999
FreeCAD v0.19 24291 (Git)
  0
SECTION
  2
HEADER
  9
$ACADVER
  1
AC1014
  9
$ACADMAINTVER
 70
     9
  9
$DWGCODEPAGE
  3
ANSI_1252
  9
$TEXTSTYLE
  7
STANDARD
  9
$DIMSTYLE
  2
STANDARD
  9
$DIMTXSTY
  7
STANDARD
  9
$CMLSTYLE
  2
STANDARD
  9
$PEXTMAX
 10
50
 20
50
 30
50
  9
$PEXTMIN
 10
0
 20
0
 30
0
  9
$HANDSEED
  5
FFFF
  0
ENDSEC
  0
SECTION
  2
CLASSES
  0
CLASS
  1
ACDBDICTIONARYWDFLT
  2
AcDbDictionaryWithDefault
  3
ObjectDBX Classes
 90
        0
280
     0
281
     0
  0
CLASS
  1
XRECORD
  2
AcDbXrecord
  3
ObjectDBX Classes
 90
        0
280
     0
281
     0
  0
CLASS
  1
LWPOLYLINE
  2
AcDbPolyline
  3
ObjectDBX Classes
 90
        0
280
     0
281
     1
  0
ENDSEC
  0
SECTION
  2
TABLES
  0
TABLE
  2
VPORT
  5
20
330
0
100
AcDbSymbolTable
 70
     1
  0
VPORT
  5
21
330
20
100
AcDbSymbolTableRecord
100
AcDbViewportTableRecord
  2
*ACTIVE
 70
     0
  0
ENDTAB
  0
TABLE
  2
LTYPE
  5
22
330
0
100
AcDbSymbolTable
 70
     1
  0
LTYPE
  5
23
330
21
100
AcDbSymbolTableRecord
100
AcDbLinetypeTableRecord
  2
BYBLOCK
 70
     0
  3

 72
    65
 73
     0
 40
0.0
  0
LTYPE
  5
24
330
21
100
AcDbSymbolTableRecord
100
AcDbLinetypeTableRecord
  2
BYLAYER
 70
     0
  3

 72
    65
 73
     0
 40
0.0
  0
LTYPE
  5
25
330
21
100
AcDbSymbolTableRecord
100
AcDbLinetypeTableRecord
  2
CONTINUOUS
 70
     0
  3
Solid line
 72
    65
 73
     0
 40
0.0
  0
ENDTAB
  0
TABLE
  2
LAYER
  5
AA8
330
0
100
AcDbSymbolTable
 70
2
  0
LAYER
  5
AA9
330
AA8
100
AcDbSymbolTableRecord
100
AcDbLayerTableRecord
  2
0
 70
   0
 62
   7
  6
CONTINUOUS
  0
LAYER
  5
AAA
330
AA8
100
AcDbSymbolTableRecord
100
AcDbLayerTableRecord
  2
View
 70
    0
 62
    7
  6
CONTINUOUS
  0
ENDTAB
  0
TABLE
  2
STYLE
  5
70
330
0
100
AcDbSymbolTable
 70
     2
  0
STYLE
  5
71
330
70
100
AcDbSymbolTableRecord
100
AcDbTextStyleTableRecord
  2
STANDARD
 70
     0
 40
0.0
 41
1.0
 50
0.0
 71
     0
 42
2.5
  3
arial.ttf
  4

  0
STYLE
  5
72
330
70
100
AcDbSymbolTableRecord
100
AcDbTextStyleTableRecord
  2
ANNOTATIVE
 70
     0
 40
0.0
 41
1.0
 50
0.0
 71
     0
 42
2.5
  3
arial.ttf
  4

  0
ENDTAB
  0
TABLE
  2
VIEW
  5
73
330
0
100
AcDbSymbolTable
 70
     0
  0
ENDTAB
  0
TABLE
  2
UCS
  5
74
330
0
100
AcDbSymbolTable
 70
     0
  0
ENDTAB
  0
TABLE
  2
APPID
  5
75
330
0
100
AcDbSymbolTable
 70
     2
  0
APPID
  5
76
330
75
100
AcDbSymbolTableRecord
100
AcDbRegAppTableRecord
  2
ACAD
 70
     0
  0
APPID
  5
77
330
75
100
AcDbSymbolTableRecord
100
AcDbRegAppTableRecord
  2
ACADANNOTATIVE
 70
     0
  0
ENDTAB
  0
TABLE
  2
DIMSTYLE
  5
78
330
0
100
AcDbSymbolTable
 70
     2
  0
DIMSTYLE
105
79
330
78
100
AcDbSymbolTableRecord
100
AcDbDimStyleTableRecord
  2
STANDARD
 70
     0
  3

  4

  5

  6

  7

 40
0.0
 41
2.5
 42
0.625
 43
3.75
 44
1.25
 45
0.0
 46
0.0
 47
0.0
 48
0.0
140
2.5
141
2.5
142
0.0
143
0.03937007874016
144
1.0
145
0.0
146
1.0
147
0.625
 71
     0
 72
     0
 73
     0
 74
     0
 75
     0
 76
     0
 77
     1
 78
     8
170
     0
171
     3
172
     1
173
     0
174
     0
175
     0
176
     0
177
     0
178
     0
270
     2
271
     2
272
     2
273
     2
274
     3
340
71
275
     0
280
     0
281
     0
282
     0
283
     0
284
     8
285
     0
286
     0
287
     3
288
     0
  0
ENDTAB
  0
TABLE
  2
BLOCK_RECORD
  5
A01
330
0
100
AcDbSymbolTable
  70
5
  0
BLOCK_RECORD
  5
A02
330
A01
100
AcDbSymbolTableRecord
100
AcDbBlockTableRecord
  2
*MODEL_SPACE
  0
BLOCK_RECORD
  5
A03
330
A01
100
AcDbSymbolTableRecord
100
AcDbBlockTableRecord
  2
*PAPER_SPACE
  0
ENDTAB
  0
ENDSEC
  0
SECTION
  2
BLOCKS
  0
BLOCK
  5
A04
330
A02
100
AcDbEntity
  8
0
100
AcDbBlockBegin
  2
*MODEL_SPACE
 70
   0
 10
0
 20
0
 30
0
  3
*MODEL_SPACE
  1
 
  0
ENDBLK
  5
A05
330
A02
100
AcDbEntity
  8
0
100
AcDbBlockEnd
  0
BLOCK
  5
A06
330
A03
100
AcDbEntity
 67
1
  8
0
100
AcDbBlockBegin
  2
*PAPER_SPACE
 70
   0
 10
0
 20
0
 30
0
  3
*PAPER_SPACE
  1
 
  0
ENDBLK
  5
A07
330
A03
100
AcDbEntity
 67
    1
  8
0
100
AcDbBlockEnd
  0
ENDSEC
  0
SECTION
  2
ENTITIES
  0
SPLINE
  5
A08
330
A02
100
AcDbEntity
  8
View
100
AcDbSpline
210
0
220
0
230
1
 70
8
 71
3
 72
17
 73
13
 74
0
 40
0
 40
0
 40
0
 40
0
 40
0.549779
 40
0.549779
 40
0.549779
 40
1.09956
 40
1.09956
 40
1.09956
 40
1.64934
 40
1.64934
 40
1.64934
 40
2.19911
 40
2.19911
 40
2.19911
 40
2.19911
 10
91.68
 20
137.07
 30
0
 10
91.6822
 20
136.906
 30
0
 10
91.6142
 20
136.712
 30
0
 10
91.475
 20
136.575
 30
0
 10
91.3382
 20
136.436
 30
0
 10
91.1441
 20
136.368
 30
0
 10
90.98
 20
136.37
 30
0
 10
90.8159
 20
136.368
 30
0
 10
90.6218
 20
136.436
 30
0
 10
90.485
 20
136.575
 30
0
 10
90.3458
 20
136.712
 30
0
 10
90.2778
 20
136.906
 30
0
 10
90.28
 20
137.07
 30
0
  0
SPLINE
  5
A09
330
A02
100
AcDbEntity
  8
View
100
AcDbSpline
210
0
220
0
230
1
 70
8
 71
3
 72
17
 73
13
 74
0
 40
4.39823
 40
4.39823
 40
4.39823
 40
4.39823
 40
4.71239
 40
4.71239
 40
4.71239
 40
5.02655
 40
5.02655
 40
5.02655
 40
5.34071
 40
5.34071
 40
5.34071
 40
5.65487
 40
5.65487
 40
5.65487
 40
5.65487
 10
91.38
 20
137.07
 30
0
 10
91.3813
 20
137.164
 30
0
 10
91.3424
 20
137.275
 30
0
 10
91.2628
 20
137.353
 30
0
 10
91.1847
 20
137.432
 30
0
 10
91.0738
 20
137.471
 30
0
 10
90.98
 20
137.47
 30
0
 10
90.8862
 20
137.471
 30
0
 10
90.7753
 20
137.432
 30
0
 10
90.6972
 20
137.353
 30
0
 10
90.6176
 20
137.275
 30
0
 10
90.5787
 20
137.164
 30
0
 10
90.58
 20
137.07
 30
0
  0
SPLINE
  5
A0A
330
A02
100
AcDbEntity
  8
View
100
AcDbSpline
210
0
220
0
230
1
 70
8
 71
3
 72
17
 73
13
 74
0
 40
2.19911
 40
2.19911
 40
2.19911
 40
2.19911
 40
2.74889
 40
2.74889
 40
2.74889
 40
3.29867
 40
3.29867
 40
3.29867
 40
3.84845
 40
3.84845
 40
3.84845
 40
4.39823
 40
4.39823
 40
4.39823
 40
4.39823
 10
90.28
 20
137.07
 30
0
 10
90.2778
 20
137.234
 30
0
 10
90.3458
 20
137.428
 30
0
 10
90.485
 20
137.565
 30
0
 10
90.6218
 20
137.704
 30
0
 10
90.8159
 20
137.772
 30
0
 10
90.98
 20
137.77
 30
0
 10
91.1441
 20
137.772
 30
0
 10
91.3382
 20
137.704
 30
0
 10
91.475
 20
137.565
 30
0
 10
91.6142
 20
137.428
 30
0
 10
91.6822
 20
137.234
 30
0
 10
91.68
 20
137.07
 30
0
  0
SPLINE
  5
A0B
330
A02
100
AcDbEntity
  8
View
100
AcDbSpline
210
0
220
0
230
1
 70
8
 71
3
 72
17
 73
13
 74
0
 40
5.65487
 40
5.65487
 40
5.65487
 40
5.65487
 40
5.96903
 40
5.96903
 40
5.96903
 40
6.28319
 40
6.28319
 40
6.28319
 40
6.59734
 40
6.59734
 40
6.59734
 40
6.9115
 40
6.9115
 40
6.9115
 40
6.9115
 10
90.58
 20
137.07
 30
0
 10
90.5787
 20
136.976
 30
0
 10
90.6176
 20
136.865
 30
0
 10
90.6972
 20
136.787
 30
0
 10
90.7753
 20
136.708
 30
0
 10
90.8862
 20
136.669
 30
0
 10
90.98
 20
136.67
 30
0
 10
91.0738
 20
136.669
 30
0
 10
91.1847
 20
136.708
 30
0
 10
91.2628
 20
136.787
 30
0
 10
91.3424
 20
136.865
 30
0
 10
91.3813
 20
136.976
 30
0
 10
91.38
 20
137.07
 30
0
  0
SPLINE
  5
A0C
330
A02
100
AcDbEntity
  8
View
100
AcDbSpline
210
0
220
0
230
1
 70
8
 71
3
 72
17
 73
13
 74
0
 40
0
 40
0
 40
0
 40
0
 40
0.549779
 40
0.549779
 40
0.549779
 40
1.09956
 40
1.09956
 40
1.09956
 40
1.64934
 40
1.64934
 40
1.64934
 40
2.19911
 40
2.19911
 40
2.19911
 40
2.19911
 10
91.68
 20
139.61
 30
0
 10
91.6822
 20
139.446
 30
0
 10
91.6142
 20
139.252
 30
0
 10
91.475
 20
139.115
 30
0
 10
91.3382
 20
138.976
 30
0
 10
91.1441
 20
138.908
 30
0
 10
90.98
 20
138.91
 30
0
 10
90.8159
 20
138.908
 30
0
 10
90.6218
 20
138.976
 30
0
 10
90.485
 20
139.115
 30
0
 10
90.3458
 20
139.252
 30
0
 10
90.2778
 20
139.446
 30
0
 10
90.28
 20
139.61
 30
0
  0
SPLINE
  5
A0D
330
A02
100
AcDbEntity
  8
View
100
AcDbSpline
210
0
220
0
230
1
 70
8
 71
3
 72
17
 73
13
 74
0
 40
4.39823
 40
4.39823
 40
4.39823
 40
4.39823
 40
4.71239
 40
4.71239
 40
4.71239
 40
5.02655
 40
5.02655
 40
5.02655
 40
5.34071
 40
5.34071
 40
5.34071
 40
5.65487
 40
5.65487
 40
5.65487
 40
5.65487
 10
91.38
 20
139.61
 30
0
 10
91.3813
 20
139.704
 30
0
 10
91.3424
 20
139.815
 30
0
 10
91.2628
 20
139.893
 30
0
 10
91.1847
 20
139.972
 30
0
 10
91.0738
 20
140.011
 30
0
 10
90.98
 20
140.01
 30
0
 10
90.8862
 20
140.011
 30
0
 10
90.7753
 20
139.972
 30
0
 10
90.6972
 20
139.893
 30
0
 10
90.6176
 20
139.815
 30
0
 10
90.5787
 20
139.704
 30
0
 10
90.58
 20
139.61
 30
0
  0
SPLINE
  5
A0E
330
A02
100
AcDbEntity
  8
View
100
AcDbSpline
210
0
220
0
230
1
 70
8
 71
3
 72
17
 73
13
 74
0
 40
2.19911
 40
2.19911
 40
2.19911
 40
2.19911
 40
2.74889
 40
2.74889
 40
2.74889
 40
3.29867
 40
3.29867
 40
3.29867
 40
3.84845
 40
3.84845
 40
3.84845
 40
4.39823
 40
4.39823
 40
4.39823
 40
4.39823
 10
90.28
 20
139.61
 30
0
 10
90.2778
 20
139.774
 30
0
 10
90.3458
 20
139.968
 30
0
 10
90.485
 20
140.105
 30
0
 10
90.6218
 20
140.244
 30
0
 10
90.8159
 20
140.312
 30
0
 10
90.98
 20
140.31
 30
0
 10
91.1441
 20
140.312
 30
0
 10
91.3382
 20
140.244
 30
0
 10
91.475
 20
140.105
 30
0
 10
91.6142
 20
139.968
 30
0
 10
91.6822
 20
139.774
 30
0
 10
91.68
 20
139.61
 30
0
  0
SPLINE
  5
A0F
330
A02
100
AcDbEntity
  8
View
100
AcDbSpline
210
0
220
0
230
1
 70
8
 71
3
 72
17
 73
13
 74
0
 40
5.65487
 40
5.65487
 40
5.65487
 40
5.65487
 40
5.96903
 40
5.96903
 40
5.96903
 40
6.28319
 40
6.28319
 40
6.28319
 40
6.59734
 40
6.59734
 40
6.59734
 40
6.9115
 40
6.9115
 40
6.9115
 40
6.9115
 10
90.58
 20
139.61
 30
0
 10
90.5787
 20
139.516
 30
0
 10
90.6176
 20
139.405
 30
0
 10
90.6972
 20
139.327
 30
0
 10
90.7753
 20
139.248
 30
0
 10
90.8862
 20
139.209
 30
0
 10
90.98
 20
139.21
 30
0
 10
91.0738
 20
139.209
 30
0
 10
91.1847
 20
139.248
 30
0
 10
91.2628
 20
139.327
 30
0
 10
91.3424
 20
139.405
 30
0
 10
91.3813
 20
139.516
 30
0
 10
91.38
 20
139.61
 30
0
  0
SPLINE
  5
A10
330
A02
100
AcDbEntity
  8
View
100
AcDbSpline
210
0
220
0
230
1
 70
8
 71
3
 72
17
 73
13
 74
0
 40
0
 40
0
 40
0
 40
0
 40
0.549779
 40
0.549779
 40
0.549779
 40
1.09956
 40
1.09956
 40
1.09956
 40
1.64934
 40
1.64934
 40
1.64934
 40
2.19911
 40
2.19911
 40
2.19911
 40
2.19911
 10
91.68
 20
142.15
 30
0
 10
91.6822
 20
141.986
 30
0
 10
91.6142
 20
141.792
 30
0
 10
91.475
 20
141.655
 30
0
 10
91.3382
 20
141.516
 30
0
 10
91.1441
 20
141.448
 30
0
 10
90.98
 20
141.45
 30
0
 10
90.8159
 20
141.448
 30
0
 10
90.6218
 20
141.516
 30
0
 10
90.485
 20
141.655
 30
0
 10
90.3458
 20
141.792
 30
0
 10
90.2778
 20
141.986
 30
0
 10
90.28
 20
142.15
 30
0
  0
SPLINE
  5
A11
330
A02
100
AcDbEntity
  8
View
100
AcDbSpline
210
0
220
0
230
1
 70
8
 71
3
 72
17
 73
13
 74
0
 40
4.39823
 40
4.39823
 40
4.39823
 40
4.39823
 40
4.71239
 40
4.71239
 40
4.71239
 40
5.02655
 40
5.02655
 40
5.02655
 40
5.34071
 40
5.34071
 40
5.34071
 40
5.65487
 40
5.65487
 40
5.65487
 40
5.65487
 10
91.38
 20
142.15
 30
0
 10
91.3813
 20
142.244
 30
0
 10
91.3424
 20
142.355
 30
0
 10
91.2628
 20
142.433
 30
0
 10
91.1847
 20
142.512
 30
0
 10
91.0738
 20
142.551
 30
0
 10
90.98
 20
142.55
 30
0
 10
90.8862
 20
142.551
 30
0
 10
90.7753
 20
142.512
 30
0
 10
90.6972
 20
142.433
 30
0
 10
90.6176
 20
142.355
 30
0
 10
90.5787
 20
142.244
 30
0
 10
90.58
 20
142.15
 30
0
  0
SPLINE
  5
A12
330
A02
100
AcDbEntity
  8
View
100
AcDbSpline
210
0
220
0
230
1
 70
8
 71
3
 72
17
 73
13
 74
0
 40
2.19911
 40
2.19911
 40
2.19911
 40
2.19911
 40
2.74889
 40
2.74889
 40
2.74889
 40
3.29867
 40
3.29867
 40
3.29867
 40
3.84845
 40
3.84845
 40
3.84845
 40
4.39823
 40
4.39823
 40
4.39823
 40
4.39823
 10
90.28
 20
142.15
 30
0
 10
90.2778
 20
142.314
 30
0
 10
90.3458
 20
142.508
 30
0
 10
90.485
 20
142.645
 30
0
 10
90.6218
 20
142.784
 30
0
 10
90.8159
 20
142.852
 30
0
 10
90.98
 20
142.85
 30
0
 10
91.1441
 20
142.852
 30
0
 10
91.3382
 20
142.784
 30
0
 10
91.475
 20
142.645
 30
0
 10
91.6142
 20
142.508
 30
0
 10
91.6822
 20
142.314
 30
0
 10
91.68
 20
142.15
 30
0
  0
SPLINE
  5
A13
330
A02
100
AcDbEntity
  8
View
100
AcDbSpline
210
0
220
0
230
1
 70
8
 71
3
 72
17
 73
13
 74
0
 40
5.65487
 40
5.65487
 40
5.65487
 40
5.65487
 40
5.96903
 40
5.96903
 40
5.96903
 40
6.28319
 40
6.28319
 40
6.28319
 40
6.59734
 40
6.59734
 40
6.59734
 40
6.9115
 40
6.9115
 40
6.9115
 40
6.9115
 10
90.58
 20
142.15
 30
0
 10
90.5787
 20
142.056
 30
0
 10
90.6176
 20
141.945
 30
0
 10
90.6972
 20
141.867
 30
0
 10
90.7753
 20
141.788
 30
0
 10
90.8862
 20
141.749
 30
0
 10
90.98
 20
141.75
 30
0
 10
91.0738
 20
141.749
 30
0
 10
91.1847
 20
141.788
 30
0
 10
91.2628
 20
141.867
 30
0
 10
91.3424
 20
141.945
 30
0
 10
91.3813
 20
142.056
 30
0
 10
91.38
 20
142.15
 30
0
  0
SPLINE
  5
A14
330
A02
100
AcDbEntity
  8
View
100
AcDbSpline
210
0
220
0
230
1
 70
8
 71
3
 72
17
 73
13
 74
0
 40
0
 40
0
 40
0
 40
0
 40
0.549779
 40
0.549779
 40
0.549779
 40
1.09956
 40
1.09956
 40
1.09956
 40
1.64934
 40
1.64934
 40
1.64934
 40
2.19911
 40
2.19911
 40
2.19911
 40
2.19911
 10
91.68
 20
144.69
 30
0
 10
91.6822
 20
144.526
 30
0
 10
91.6142
 20
144.332
 30
0
 10
91.475
 20
144.195
 30
0
 10
91.3382
 20
144.056
 30
0
 10
91.1441
 20
143.988
 30
0
 10
90.98
 20
143.99
 30
0
 10
90.8159
 20
143.988
 30
0
 10
90.6218
 20
144.056
 30
0
 10
90.485
 20
144.195
 30
0
 10
90.3458
 20
144.332
 30
0
 10
90.2778
 20
144.526
 30
0
 10
90.28
 20
144.69
 30
0
  0
SPLINE
  5
A15
330
A02
100
AcDbEntity
  8
View
100
AcDbSpline
210
0
220
0
230
1
 70
8
 71
3
 72
17
 73
13
 74
0
 40
4.39823
 40
4.39823
 40
4.39823
 40
4.39823
 40
4.71239
 40
4.71239
 40
4.71239
 40
5.02655
 40
5.02655
 40
5.02655
 40
5.34071
 40
5.34071
 40
5.34071
 40
5.65487
 40
5.65487
 40
5.65487
 40
5.65487
 10
91.38
 20
144.69
 30
0
 10
91.3813
 20
144.784
 30
0
 10
91.3424
 20
144.895
 30
0
 10
91.2628
 20
144.973
 30
0
 10
91.1847
 20
145.052
 30
0
 10
91.0738
 20
145.091
 30
0
 10
90.98
 20
145.09
 30
0
 10
90.8862
 20
145.091
 30
0
 10
90.7753
 20
145.052
 30
0
 10
90.6972
 20
144.973
 30
0
 10
90.6176
 20
144.895
 30
0
 10
90.5787
 20
144.784
 30
0
 10
90.58
 20
144.69
 30
0
  0
SPLINE
  5
A16
330
A02
100
AcDbEntity
  8
View
100
AcDbSpline
210
0
220
0
230
1
 70
8
 71
3
 72
17
 73
13
 74
0
 40
2.19911
 40
2.19911
 40
2.19911
 40
2.19911
 40
2.74889
 40
2.74889
 40
2.74889
 40
3.29867
 40
3.29867
 40
3.29867
 40
3.84845
 40
3.84845
 40
3.84845
 40
4.39823
 40
4.39823
 40
4.39823
 40
4.39823
 10
90.28
 20
144.69
 30
0
 10
90.2778
 20
144.854
 30
0
 10
90.3458
 20
145.048
 30
0
 10
90.485
 20
145.185
 30
0
 10
90.6218
 20
145.324
 30
0
 10
90.8159
 20
145.392
 30
0
 10
90.98
 20
145.39
 30
0
 10
91.1441
 20
145.392
 30
0
 10
91.3382
 20
145.324
 30
0
 10
91.475
 20
145.185
 30
0
 10
91.6142
 20
145.048
 30
0
 10
91.6822
 20
144.854
 30
0
 10
91.68
 20
144.69
 30
0
  0
SPLINE
  5
A17
330
A02
100
AcDbEntity
  8
View
100
AcDbSpline
210
0
220
0
230
1
 70
8
 71
3
 72
17
 73
13
 74
0
 40
5.65487
 40
5.65487
 40
5.65487
 40
5.65487
 40
5.96903
 40
5.96903
 40
5.96903
 40
6.28319
 40
6.28319
 40
6.28319
 40
6.59734
 40
6.59734
 40
6.59734
 40
6.9115
 40
6.9115
 40
6.9115
 40
6.9115
 10
90.58
 20
144.69
 30
0
 10
90.5787
 20
144.596
 30
0
 10
90.6176
 20
144.485
 30
0
 10
90.6972
 20
144.407
 30
0
 10
90.7753
 20
144.328
 30
0
 10
90.8862
 20
144.289
 30
0
 10
90.98
 20
144.29
 30
0
 10
91.0738
 20
144.289
 30
0
 10
91.1847
 20
144.328
 30
0
 10
91.2628
 20
144.407
 30
0
 10
91.3424
 20
144.485
 30
0
 10
91.3813
 20
144.596
 30
0
 10
91.38
 20
144.69
 30
0
  0
SPLINE
  5
A18
330
A02
100
AcDbEntity
  8
View
100
AcDbSpline
210
0
220
0
230
1
 70
8
 71
3
 72
17
 73
13
 74
0
 40
0
 40
0
 40
0
 40
0
 40
0.549779
 40
0.549779
 40
0.549779
 40
1.09956
 40
1.09956
 40
1.09956
 40
1.64934
 40
1.64934
 40
1.64934
 40
2.19911
 40
2.19911
 40
2.19911
 40
2.19911
 10
91.68
 20
147.23
 30
0
 10
91.6822
 20
147.066
 30
0
 10
91.6142
 20
146.872
 30
0
 10
91.475
 20
146.735
 30
0
 10
91.3382
 20
146.596
 30
0
 10
91.1441
 20
146.528
 30
0
 10
90.98
 20
146.53
 30
0
 10
90.8159
 20
146.528
 30
0
 10
90.6218
 20
146.596
 30
0
 10
90.485
 20
146.735
 30
0
 10
90.3458
 20
146.872
 30
0
 10
90.2778
 20
147.066
 30
0
 10
90.28
 20
147.23
 30
0
  0
SPLINE
  5
A19
330
A02
100
AcDbEntity
  8
View
100
AcDbSpline
210
0
220
0
230
1
 70
8
 71
3
 72
17
 73
13
 74
0
 40
4.39823
 40
4.39823
 40
4.39823
 40
4.39823
 40
4.71239
 40
4.71239
 40
4.71239
 40
5.02655
 40
5.02655
 40
5.02655
 40
5.34071
 40
5.34071
 40
5.34071
 40
5.65487
 40
5.65487
 40
5.65487
 40
5.65487
 10
91.38
 20
147.23
 30
0
 10
91.3813
 20
147.324
 30
0
 10
91.3424
 20
147.435
 30
0
 10
91.2628
 20
147.513
 30
0
 10
91.1847
 20
147.592
 30
0
 10
91.0738
 20
147.631
 30
0
 10
90.98
 20
147.63
 30
0
 10
90.8862
 20
147.631
 30
0
 10
90.7753
 20
147.592
 30
0
 10
90.6972
 20
147.513
 30
0
 10
90.6176
 20
147.435
 30
0
 10
90.5787
 20
147.324
 30
0
 10
90.58
 20
147.23
 30
0
  0
SPLINE
  5
A1A
330
A02
100
AcDbEntity
  8
View
100
AcDbSpline
210
0
220
0
230
1
 70
8
 71
3
 72
17
 73
13
 74
0
 40
2.19911
 40
2.19911
 40
2.19911
 40
2.19911
 40
2.74889
 40
2.74889
 40
2.74889
 40
3.29867
 40
3.29867
 40
3.29867
 40
3.84845
 40
3.84845
 40
3.84845
 40
4.39823
 40
4.39823
 40
4.39823
 40
4.39823
 10
90.28
 20
147.23
 30
0
 10
90.2778
 20
147.394
 30
0
 10
90.3458
 20
147.588
 30
0
 10
90.485
 20
147.725
 30
0
 10
90.6218
 20
147.864
 30
0
 10
90.8159
 20
147.932
 30
0
 10
90.98
 20
147.93
 30
0
 10
91.1441
 20
147.932
 30
0
 10
91.3382
 20
147.864
 30
0
 10
91.475
 20
147.725
 30
0
 10
91.6142
 20
147.588
 30
0
 10
91.6822
 20
147.394
 30
0
 10
91.68
 20
147.23
 30
0
  0
SPLINE
  5
A1B
330
A02
100
AcDbEntity
  8
View
100
AcDbSpline
210
0
220
0
230
1
 70
8
 71
3
 72
17
 73
13
 74
0
 40
5.65487
 40
5.65487
 40
5.65487
 40
5.65487
 40
5.96903
 40
5.96903
 40
5.96903
 40
6.28319
 40
6.28319
 40
6.28319
 40
6.59734
 40
6.59734
 40
6.59734
 40
6.9115
 40
6.9115
 40
6.9115
 40
6.9115
 10
90.58
 20
147.23
 30
0
 10
90.5787
 20
147.136
 30
0
 10
90.6176
 20
147.025
 30
0
 10
90.6972
 20
146.947
 30
0
 10
90.7753
 20
146.868
 30
0
 10
90.8862
 20
146.829
 30
0
 10
90.98
 20
146.83
 30
0
 10
91.0738
 20
146.829
 30
0
 10
91.1847
 20
146.868
 30
0
 10
91.2628
 20
146.947
 30
0
 10
91.3424
 20
147.025
 30
0
 10
91.3813
 20
147.136
 30
0
 10
91.38
 20
147.23
 30
0
  0
SPLINE
  5
A1C
330
A02
100
AcDbEntity
  8
View
100
AcDbSpline
210
0
220
0
230
1
 70
8
 71
3
 72
17
 73
13
 74
0
 40
0
 40
0
 40
0
 40
0
 40
0.549779
 40
0.549779
 40
0.549779
 40
1.09956
 40
1.09956
 40
1.09956
 40
1.64934
 40
1.64934
 40
1.64934
 40
2.19911
 40
2.19911
 40
2.19911
 40
2.19911
 10
91.68
 20
159.93
 30
0
 10
91.6822
 20
159.766
 30
0
 10
91.6142
 20
159.572
 30
0
 10
91.475
 20
159.435
 30
0
 10
91.3382
 20
159.296
 30
0
 10
91.1441
 20
159.228
 30
0
 10
90.98
 20
159.23
 30
0
 10
90.8159
 20
159.228
 30
0
 10
90.6218
 20
159.296
 30
0
 10
90.485
 20
159.435
 30
0
 10
90.3458
 20
159.572
 30
0
 10
90.2778
 20
159.766
 30
0
 10
90.28
 20
159.93
 30
0
  0
SPLINE
  5
A1D
330
A02
100
AcDbEntity
  8
View
100
AcDbSpline
210
0
220
0
230
1
 70
8
 71
3
 72
17
 73
13
 74
0
 40
4.39823
 40
4.39823
 40
4.39823
 40
4.39823
 40
4.71239
 40
4.71239
 40
4.71239
 40
5.02655
 40
5.02655
 40
5.02655
 40
5.34071
 40
5.34071
 40
5.34071
 40
5.65487
 40
5.65487
 40
5.65487
 40
5.65487
 10
91.38
 20
159.93
 30
0
 10
91.3813
 20
160.024
 30
0
 10
91.3424
 20
160.135
 30
0
 10
91.2628
 20
160.213
 30
0
 10
91.1847
 20
160.292
 30
0
 10
91.0738
 20
160.331
 30
0
 10
90.98
 20
160.33
 30
0
 10
90.8862
 20
160.331
 30
0
 10
90.7753
 20
160.292
 30
0
 10
90.6972
 20
160.213
 30
0
 10
90.6176
 20
160.135
 30
0
 10
90.5787
 20
160.024
 30
0
 10
90.58
 20
159.93
 30
0
  0
SPLINE
  5
A1E
330
A02
100
AcDbEntity
  8
View
100
AcDbSpline
210
0
220
0
230
1
 70
8
 71
3
 72
17
 73
13
 74
0
 40
2.19911
 40
2.19911
 40
2.19911
 40
2.19911
 40
2.74889
 40
2.74889
 40
2.74889
 40
3.29867
 40
3.29867
 40
3.29867
 40
3.84845
 40
3.84845
 40
3.84845
 40
4.39823
 40
4.39823
 40
4.39823
 40
4.39823
 10
90.28
 20
159.93
 30
0
 10
90.2778
 20
160.094
 30
0
 10
90.3458
 20
160.288
 30
0
 10
90.485
 20
160.425
 30
0
 10
90.6218
 20
160.564
 30
0
 10
90.8159
 20
160.632
 30
0
 10
90.98
 20
160.63
 30
0
 10
91.1441
 20
160.632
 30
0
 10
91.3382
 20
160.564
 30
0
 10
91.475
 20
160.425
 30
0
 10
91.6142
 20
160.288
 30
0
 10
91.6822
 20
160.094
 30
0
 10
91.68
 20
159.93
 30
0
  0
SPLINE
  5
A1F
330
A02
100
AcDbEntity
  8
View
100
AcDbSpline
210
0
220
0
230
1
 70
8
 71
3
 72
17
 73
13
 74
0
 40
5.65487
 40
5.65487
 40
5.65487
 40
5.65487
 40
5.96903
 40
5.96903
 40
5.96903
 40
6.28319
 40
6.28319
 40
6.28319
 40
6.59734
 40
6.59734
 40
6.59734
 40
6.9115
 40
6.9115
 40
6.9115
 40
6.9115
 10
90.58
 20
159.93
 30
0
 10
90.5787
 20
159.836
 30
0
 10
90.6176
 20
159.725
 30
0
 10
90.6972
 20
159.647
 30
0
 10
90.7753
 20
159.568
 30
0
 10
90.8862
 20
159.529
 30
0
 10
90.98
 20
159.53
 30
0
 10
91.0738
 20
159.529
 30
0
 10
91.1847
 20
159.568
 30
0
 10
91.2628
 20
159.647
 30
0
 10
91.3424
 20
159.725
 30
0
 10
91.3813
 20
159.836
 30
0
 10
91.38
 20
159.93
 30
0
  0
SPLINE
  5
A20
330
A02
100
AcDbEntity
  8
View
100
AcDbSpline
210
0
220
0
230
1
 70
8
 71
3
 72
17
 73
13
 74
0
 40
0
 40
0
 40
0
 40
0
 40
0.549779
 40
0.549779
 40
0.549779
 40
1.09956
 40
1.09956
 40
1.09956
 40
1.64934
 40
1.64934
 40
1.64934
 40
2.19911
 40
2.19911
 40
2.19911
 40
2.19911
 10
91.68
 20
157.39
 30
0
 10
91.6822
 20
157.226
 30
0
 10
91.6142
 20
157.032
 30
0
 10
91.475
 20
156.895
 30
0
 10
91.3382
 20
156.756
 30
0
 10
91.1441
 20
156.688
 30
0
 10
90.98
 20
156.69
 30
0
 10
90.8159
 20
156.688
 30
0
 10
90.6218
 20
156.756
 30
0
 10
90.485
 20
156.895
 30
0
 10
90.3458
 20
157.032
 30
0
 10
90.2778
 20
157.226
 30
0
 10
90.28
 20
157.39
 30
0
  0
SPLINE
  5
A21
330
A02
100
AcDbEntity
  8
View
100
AcDbSpline
210
0
220
0
230
1
 70
8
 71
3
 72
17
 73
13
 74
0
 40
4.39823
 40
4.39823
 40
4.39823
 40
4.39823
 40
4.71239
 40
4.71239
 40
4.71239
 40
5.02655
 40
5.02655
 40
5.02655
 40
5.34071
 40
5.34071
 40
5.34071
 40
5.65487
 40
5.65487
 40
5.65487
 40
5.65487
 10
91.38
 20
157.39
 30
0
 10
91.3813
 20
157.484
 30
0
 10
91.3424
 20
157.595
 30
0
 10
91.2628
 20
157.673
 30
0
 10
91.1847
 20
157.752
 30
0
 10
91.0738
 20
157.791
 30
0
 10
90.98
 20
157.79
 30
0
 10
90.8862
 20
157.791
 30
0
 10
90.7753
 20
157.752
 30
0
 10
90.6972
 20
157.673
 30
0
 10
90.6176
 20
157.595
 30
0
 10
90.5787
 20
157.484
 30
0
 10
90.58
 20
157.39
 30
0
  0
SPLINE
  5
A22
330
A02
100
AcDbEntity
  8
View
100
AcDbSpline
210
0
220
0
230
1
 70
8
 71
3
 72
17
 73
13
 74
0
 40
2.19911
 40
2.19911
 40
2.19911
 40
2.19911
 40
2.74889
 40
2.74889
 40
2.74889
 40
3.29867
 40
3.29867
 40
3.29867
 40
3.84845
 40
3.84845
 40
3.84845
 40
4.39823
 40
4.39823
 40
4.39823
 40
4.39823
 10
90.28
 20
157.39
 30
0
 10
90.2778
 20
157.554
 30
0
 10
90.3458
 20
157.748
 30
0
 10
90.485
 20
157.885
 30
0
 10
90.6218
 20
158.024
 30
0
 10
90.8159
 20
158.092
 30
0
 10
90.98
 20
158.09
 30
0
 10
91.1441
 20
158.092
 30
0
 10
91.3382
 20
158.024
 30
0
 10
91.475
 20
157.885
 30
0
 10
91.6142
 20
157.748
 30
0
 10
91.6822
 20
157.554
 30
0
 10
91.68
 20
157.39
 30
0
  0
SPLINE
  5
A23
330
A02
100
AcDbEntity
  8
View
100
AcDbSpline
210
0
220
0
230
1
 70
8
 71
3
 72
17
 73
13
 74
0
 40
5.65487
 40
5.65487
 40
5.65487
 40
5.65487
 40
5.96903
 40
5.96903
 40
5.96903
 40
6.28319
 40
6.28319
 40
6.28319
 40
6.59734
 40
6.59734
 40
6.59734
 40
6.9115
 40
6.9115
 40
6.9115
 40
6.9115
 10
90.58
 20
157.39
 30
0
 10
90.5787
 20
157.296
 30
0
 10
90.6176
 20
157.185
 30
0
 10
90.6972
 20
157.107
 30
0
 10
90.7753
 20
157.028
 30
0
 10
90.8862
 20
156.989
 30
0
 10
90.98
 20
156.99
 30
0
 10
91.0738
 20
156.989
 30
0
 10
91.1847
 20
157.028
 30
0
 10
91.2628
 20
157.107
 30
0
 10
91.3424
 20
157.185
 30
0
 10
91.3813
 20
157.296
 30
0
 10
91.38
 20
157.39
 30
0
  0
SPLINE
  5
A24
330
A02
100
AcDbEntity
  8
View
100
AcDbSpline
210
0
220
0
230
1
 70
8
 71
3
 72
17
 73
13
 74
0
 40
0
 40
0
 40
0
 40
0
 40
0.549779
 40
0.549779
 40
0.549779
 40
1.09956
 40
1.09956
 40
1.09956
 40
1.64934
 40
1.64934
 40
1.64934
 40
2.19911
 40
2.19911
 40
2.19911
 40
2.19911
 10
91.68
 20
154.85
 30
0
 10
91.6822
 20
154.686
 30
0
 10
91.6142
 20
154.492
 30
0
 10
91.475
 20
154.355
 30
0
 10
91.3382
 20
154.216
 30
0
 10
91.1441
 20
154.148
 30
0
 10
90.98
 20
154.15
 30
0
 10
90.8159
 20
154.148
 30
0
 10
90.6218
 20
154.216
 30
0
 10
90.485
 20
154.355
 30
0
 10
90.3458
 20
154.492
 30
0
 10
90.2778
 20
154.686
 30
0
 10
90.28
 20
154.85
 30
0
  0
SPLINE
  5
A25
330
A02
100
AcDbEntity
  8
View
100
AcDbSpline
210
0
220
0
230
1
 70
8
 71
3
 72
17
 73
13
 74
0
 40
4.39823
 40
4.39823
 40
4.39823
 40
4.39823
 40
4.71239
 40
4.71239
 40
4.71239
 40
5.02655
 40
5.02655
 40
5.02655
 40
5.34071
 40
5.34071
 40
5.34071
 40
5.65487
 40
5.65487
 40
5.65487
 40
5.65487
 10
91.38
 20
154.85
 30
0
 10
91.3813
 20
154.944
 30
0
 10
91.3424
 20
155.055
 30
0
 10
91.2628
 20
155.133
 30
0
 10
91.1847
 20
155.212
 30
0
 10
91.0738
 20
155.251
 30
0
 10
90.98
 20
155.25
 30
0
 10
90.8862
 20
155.251
 30
0
 10
90.7753
 20
155.212
 30
0
 10
90.6972
 20
155.133
 30
0
 10
90.6176
 20
155.055
 30
0
 10
90.5787
 20
154.944
 30
0
 10
90.58
 20
154.85
 30
0
  0
SPLINE
  5
A26
330
A02
100
AcDbEntity
  8
View
100
AcDbSpline
210
0
220
0
230
1
 70
8
 71
3
 72
17
 73
13
 74
0
 40
2.19911
 40
2.19911
 40
2.19911
 40
2.19911
 40
2.74889
 40
2.74889
 40
2.74889
 40
3.29867
 40
3.29867
 40
3.29867
 40
3.84845
 40
3.84845
 40
3.84845
 40
4.39823
 40
4.39823
 40
4.39823
 40
4.39823
 10
90.28
 20
154.85
 30
0
 10
90.2778
 20
155.014
 30
0
 10
90.3458
 20
155.208
 30
0
 10
90.485
 20
155.345
 30
0
 10
90.6218
 20
155.484
 30
0
 10
90.8159
 20
155.552
 30
0
 10
90.98
 20
155.55
 30
0
 10
91.1441
 20
155.552
 30
0
 10
91.3382
 20
155.484
 30
0
 10
91.475
 20
155.345
 30
0
 10
91.6142
 20
155.208
 30
0
 10
91.6822
 20
155.014
 30
0
 10
91.68
 20
154.85
 30
0
  0
SPLINE
  5
A27
330
A02
100
AcDbEntity
  8
View
100
AcDbSpline
210
0
220
0
230
1
 70
8
 71
3
 72
17
 73
13
 74
0
 40
5.65487
 40
5.65487
 40
5.65487
 40
5.65487
 40
5.96903
 40
5.96903
 40
5.96903
 40
6.28319
 40
6.28319
 40
6.28319
 40
6.59734
 40
6.59734
 40
6.59734
 40
6.9115
 40
6.9115
 40
6.9115
 40
6.9115
 10
90.58
 20
154.85
 30
0
 10
90.5787
 20
154.756
 30
0
 10
90.6176
 20
154.645
 30
0
 10
90.6972
 20
154.567
 30
0
 10
90.7753
 20
154.488
 30
0
 10
90.8862
 20
154.449
 30
0
 10
90.98
 20
154.45
 30
0
 10
91.0738
 20
154.449
 30
0
 10
91.1847
 20
154.488
 30
0
 10
91.2628
 20
154.567
 30
0
 10
91.3424
 20
154.645
 30
0
 10
91.3813
 20
154.756
 30
0
 10
91.38
 20
154.85
 30
0
  0
SPLINE
  5
A28
330
A02
100
AcDbEntity
  8
View
100
AcDbSpline
210
0
220
0
230
1
 70
8
 71
3
 72
17
 73
13
 74
0
 40
0
 40
0
 40
0
 40
0
 40
0.549779
 40
0.549779
 40
0.549779
 40
1.09956
 40
1.09956
 40
1.09956
 40
1.64934
 40
1.64934
 40
1.64934
 40
2.19911
 40
2.19911
 40
2.19911
 40
2.19911
 10
91.68
 20
152.31
 30
0
 10
91.6822
 20
152.146
 30
0
 10
91.6142
 20
151.952
 30
0
 10
91.475
 20
151.815
 30
0
 10
91.3382
 20
151.676
 30
0
 10
91.1441
 20
151.608
 30
0
 10
90.98
 20
151.61
 30
0
 10
90.8159
 20
151.608
 30
0
 10
90.6218
 20
151.676
 30
0
 10
90.485
 20
151.815
 30
0
 10
90.3458
 20
151.952
 30
0
 10
90.2778
 20
152.146
 30
0
 10
90.28
 20
152.31
 30
0
  0
SPLINE
  5
A29
330
A02
100
AcDbEntity
  8
View
100
AcDbSpline
210
0
220
0
230
1
 70
8
 71
3
 72
17
 73
13
 74
0
 40
4.39823
 40
4.39823
 40
4.39823
 40
4.39823
 40
4.71239
 40
4.71239
 40
4.71239
 40
5.02655
 40
5.02655
 40
5.02655
 40
5.34071
 40
5.34071
 40
5.34071
 40
5.65487
 40
5.65487
 40
5.65487
 40
5.65487
 10
91.38
 20
152.31
 30
0
 10
91.3813
 20
152.404
 30
0
 10
91.3424
 20
152.515
 30
0
 10
91.2628
 20
152.593
 30
0
 10
91.1847
 20
152.672
 30
0
 10
91.0738
 20
152.711
 30
0
 10
90.98
 20
152.71
 30
0
 10
90.8862
 20
152.711
 30
0
 10
90.7753
 20
152.672
 30
0
 10
90.6972
 20
152.593
 30
0
 10
90.6176
 20
152.515
 30
0
 10
90.5787
 20
152.404
 30
0
 10
90.58
 20
152.31
 30
0
  0
SPLINE
  5
A2A
330
A02
100
AcDbEntity
  8
View
100
AcDbSpline
210
0
220
0
230
1
 70
8
 71
3
 72
17
 73
13
 74
0
 40
2.19911
 40
2.19911
 40
2.19911
 40
2.19911
 40
2.74889
 40
2.74889
 40
2.74889
 40
3.29867
 40
3.29867
 40
3.29867
 40
3.84845
 40
3.84845
 40
3.84845
 40
4.39823
 40
4.39823
 40
4.39823
 40
4.39823
 10
90.28
 20
152.31
 30
0
 10
90.2778
 20
152.474
 30
0
 10
90.3458
 20
152.668
 30
0
 10
90.485
 20
152.805
 30
0
 10
90.6218
 20
152.944
 30
0
 10
90.8159
 20
153.012
 30
0
 10
90.98
 20
153.01
 30
0
 10
91.1441
 20
153.012
 30
0
 10
91.3382
 20
152.944
 30
0
 10
91.475
 20
152.805
 30
0
 10
91.6142
 20
152.668
 30
0
 10
91.6822
 20
152.474
 30
0
 10
91.68
 20
152.31
 30
0
  0
SPLINE
  5
A2B
330
A02
100
AcDbEntity
  8
View
100
AcDbSpline
210
0
220
0
230
1
 70
8
 71
3
 72
17
 73
13
 74
0
 40
5.65487
 40
5.65487
 40
5.65487
 40
5.65487
 40
5.96903
 40
5.96903
 40
5.96903
 40
6.28319
 40
6.28319
 40
6.28319
 40
6.59734
 40
6.59734
 40
6.59734
 40
6.9115
 40
6.9115
 40
6.9115
 40
6.9115
 10
90.58
 20
152.31
 30
0
 10
90.5787
 20
152.216
 30
0
 10
90.6176
 20
152.105
 30
0
 10
90.6972
 20
152.027
 30
0
 10
90.7753
 20
151.948
 30
0
 10
90.8862
 20
151.909
 30
0
 10
90.98
 20
151.91
 30
0
 10
91.0738
 20
151.909
 30
0
 10
91.1847
 20
151.948
 30
0
 10
91.2628
 20
152.027
 30
0
 10
91.3424
 20
152.105
 30
0
 10
91.3813
 20
152.216
 30
0
 10
91.38
 20
152.31
 30
0
  0
SPLINE
  5
A2C
330
A02
100
AcDbEntity
  8
View
100
AcDbSpline
210
0
220
0
230
1
 70
8
 71
3
 72
17
 73
13
 74
0
 40
0
 40
0
 40
0
 40
0
 40
0.549779
 40
0.549779
 40
0.549779
 40
1.09956
 40
1.09956
 40
1.09956
 40
1.64934
 40
1.64934
 40
1.64934
 40
2.19911
 40
2.19911
 40
2.19911
 40
2.19911
 10
91.68
 20
149.77
 30
0
 10
91.6822
 20
149.606
 30
0
 10
91.6142
 20
149.412
 30
0
 10
91.475
 20
149.275
 30
0
 10
91.3382
 20
149.136
 30
0
 10
91.1441
 20
149.068
 30
0
 10
90.98
 20
149.07
 30
0
 10
90.8159
 20
149.068
 30
0
 10
90.6218
 20
149.136
 30
0
 10
90.485
 20
149.275
 30
0
 10
90.3458
 20
149.412
 30
0
 10
90.2778
 20
149.606
 30
0
 10
90.28
 20
149.77
 30
0
  0
SPLINE
  5
A2D
330
A02
100
AcDbEntity
  8
View
100
AcDbSpline
210
0
220
0
230
1
 70
8
 71
3
 72
17
 73
13
 74
0
 40
4.39823
 40
4.39823
 40
4.39823
 40
4.39823
 40
4.71239
 40
4.71239
 40
4.71239
 40
5.02655
 40
5.02655
 40
5.02655
 40
5.34071
 40
5.34071
 40
5.34071
 40
5.65487
 40
5.65487
 40
5.65487
 40
5.65487
 10
91.38
 20
149.77
 30
0
 10
91.3813
 20
149.864
 30
0
 10
91.3424
 20
149.975
 30
0
 10
91.2628
 20
150.053
 30
0
 10
91.1847
 20
150.132
 30
0
 10
91.0738
 20
150.171
 30
0
 10
90.98
 20
150.17
 30
0
 10
90.8862
 20
150.171
 30
0
 10
90.7753
 20
150.132
 30
0
 10
90.6972
 20
150.053
 30
0
 10
90.6176
 20
149.975
 30
0
 10
90.5787
 20
149.864
 30
0
 10
90.58
 20
149.77
 30
0
  0
SPLINE
  5
A2E
330
A02
100
AcDbEntity
  8
View
100
AcDbSpline
210
0
220
0
230
1
 70
8
 71
3
 72
17
 73
13
 74
0
 40
2.19911
 40
2.19911
 40
2.19911
 40
2.19911
 40
2.74889
 40
2.74889
 40
2.74889
 40
3.29867
 40
3.29867
 40
3.29867
 40
3.84845
 40
3.84845
 40
3.84845
 40
4.39823
 40
4.39823
 40
4.39823
 40
4.39823
 10
90.28
 20
149.77
 30
0
 10
90.2778
 20
149.934
 30
0
 10
90.3458
 20
150.128
 30
0
 10
90.485
 20
150.265
 30
0
 10
90.6218
 20
150.404
 30
0
 10
90.8159
 20
150.472
 30
0
 10
90.98
 20
150.47
 30
0
 10
91.1441
 20
150.472
 30
0
 10
91.3382
 20
150.404
 30
0
 10
91.475
 20
150.265
 30
0
 10
91.6142
 20
150.128
 30
0
 10
91.6822
 20
149.934
 30
0
 10
91.68
 20
149.77
 30
0
  0
SPLINE
  5
A2F
330
A02
100
AcDbEntity
  8
View
100
AcDbSpline
210
0
220
0
230
1
 70
8
 71
3
 72
17
 73
13
 74
0
 40
5.65487
 40
5.65487
 40
5.65487
 40
5.65487
 40
5.96903
 40
5.96903
 40
5.96903
 40
6.28319
 40
6.28319
 40
6.28319
 40
6.59734
 40
6.59734
 40
6.59734
 40
6.9115
 40
6.9115
 40
6.9115
 40
6.9115
 10
90.58
 20
149.77
 30
0
 10
90.5787
 20
149.676
 30
0
 10
90.6176
 20
149.565
 30
0
 10
90.6972
 20
149.487
 30
0
 10
90.7753
 20
149.408
 30
0
 10
90.8862
 20
149.369
 30
0
 10
90.98
 20
149.37
 30
0
 10
91.0738
 20
149.369
 30
0
 10
91.1847
 20
149.408
 30
0
 10
91.2628
 20
149.487
 30
0
 10
91.3424
 20
149.565
 30
0
 10
91.3813
 20
149.676
 30
0
 10
91.38
 20
149.77
 30
0
  0
SPLINE
  5
A30
330
A02
100
AcDbEntity
  8
View
100
AcDbSpline
210
0
220
0
230
1
 70
8
 71
3
 72
17
 73
13
 74
0
 40
0
 40
0
 40
0
 40
0
 40
0.549779
 40
0.549779
 40
0.549779
 40
1.09956
 40
1.09956
 40
1.09956
 40
1.64934
 40
1.64934
 40
1.64934
 40
2.19911
 40
2.19911
 40
2.19911
 40
2.19911
 10
94.22
 20
149.77
 30
0
 10
94.2222
 20
149.606
 30
0
 10
94.1542
 20
149.412
 30
0
 10
94.015
 20
149.275
 30
0
 10
93.8782
 20
149.136
 30
0
 10
93.6841
 20
149.068
 30
0
 10
93.52
 20
149.07
 30
0
 10
93.3559
 20
149.068
 30
0
 10
93.1618
 20
149.136
 30
0
 10
93.025
 20
149.275
 30
0
 10
92.8858
 20
149.412
 30
0
 10
92.8178
 20
149.606
 30
0
 10
92.82
 20
149.77
 30
0
  0
SPLINE
  5
A31
330
A02
100
AcDbEntity
  8
View
100
AcDbSpline
210
0
220
0
230
1
 70
8
 71
3
 72
17
 73
13
 74
0
 40
4.39823
 40
4.39823
 40
4.39823
 40
4.39823
 40
4.71239
 40
4.71239
 40
4.71239
 40
5.02655
 40
5.02655
 40
5.02655
 40
5.34071
 40
5.34071
 40
5.34071
 40
5.65487
 40
5.65487
 40
5.65487
 40
5.65487
 10
93.92
 20
149.77
 30
0
 10
93.9213
 20
149.864
 30
0
 10
93.8824
 20
149.975
 30
0
 10
93.8028
 20
150.053
 30
0
 10
93.7247
 20
150.132
 30
0
 10
93.6138
 20
150.171
 30
0
 10
93.52
 20
150.17
 30
0
 10
93.4262
 20
150.171
 30
0
 10
93.3153
 20
150.132
 30
0
 10
93.2372
 20
150.053
 30
0
 10
93.1576
 20
149.975
 30
0
 10
93.1187
 20
149.864
 30
0
 10
93.12
 20
149.77
 30
0
  0
SPLINE
  5
A32
330
A02
100
AcDbEntity
  8
View
100
AcDbSpline
210
0
220
0
230
1
 70
8
 71
3
 72
17
 73
13
 74
0
 40
2.19911
 40
2.19911
 40
2.19911
 40
2.19911
 40
2.74889
 40
2.74889
 40
2.74889
 40
3.29867
 40
3.29867
 40
3.29867
 40
3.84845
 40
3.84845
 40
3.84845
 40
4.39823
 40
4.39823
 40
4.39823
 40
4.39823
 10
92.82
 20
149.77
 30
0
 10
92.8178
 20
149.934
 30
0
 10
92.8858
 20
150.128
 30
0
 10
93.025
 20
150.265
 30
0
 10
93.1618
 20
150.404
 30
0
 10
93.3559
 20
150.472
 30
0
 10
93.52
 20
150.47
 30
0
 10
93.6841
 20
150.472
 30
0
 10
93.8782
 20
150.404
 30
0
 10
94.015
 20
150.265
 30
0
 10
94.1542
 20
150.128
 30
0
 10
94.2222
 20
149.934
 30
0
 10
94.22
 20
149.77
 30
0
  0
SPLINE
  5
A33
330
A02
100
AcDbEntity
  8
View
100
AcDbSpline
210
0
220
0
230
1
 70
8
 71
3
 72
17
 73
13
 74
0
 40
5.65487
 40
5.65487
 40
5.65487
 40
5.65487
 40
5.96903
 40
5.96903
 40
5.96903
 40
6.28319
 40
6.28319
 40
6.28319
 40
6.59734
 40
6.59734
 40
6.59734
 40
6.9115
 40
6.9115
 40
6.9115
 40
6.9115
 10
93.12
 20
149.77
 30
0
 10
93.1187
 20
149.676
 30
0
 10
93.1576
 20
149.565
 30
0
 10
93.2372
 20
149.487
 30
0
 10
93.3153
 20
149.408
 30
0
 10
93.4262
 20
149.369
 30
0
 10
93.52
 20
149.37
 30
0
 10
93.6138
 20
149.369
 30
0
 10
93.7247
 20
149.408
 30
0
 10
93.8028
 20
149.487
 30
0
 10
93.8824
 20
149.565
 30
0
 10
93.9213
 20
149.676
 30
0
 10
93.92
 20
149.77
 30
0
  0
SPLINE
  5
A34
330
A02
100
AcDbEntity
  8
View
100
AcDbSpline
210
0
220
0
230
1
 70
8
 71
3
 72
17
 73
13
 74
0
 40
0
 40
0
 40
0
 40
0
 40
0.549779
 40
0.549779
 40
0.549779
 40
1.09956
 40
1.09956
 40
1.09956
 40
1.64934
 40
1.64934
 40
1.64934
 40
2.19911
 40
2.19911
 40
2.19911
 40
2.19911
 10
94.22
 20
152.31
 30
0
 10
94.2222
 20
152.146
 30
0
 10
94.1542
 20
151.952
 30
0
 10
94.015
 20
151.815
 30
0
 10
93.8782
 20
151.676
 30
0
 10
93.6841
 20
151.608
 30
0
 10
93.52
 20
151.61
 30
0
 10
93.3559
 20
151.608
 30
0
 10
93.1618
 20
151.676
 30
0
 10
93.025
 20
151.815
 30
0
 10
92.8858
 20
151.952
 30
0
 10
92.8178
 20
152.146
 30
0
 10
92.82
 20
152.31
 30
0
  0
SPLINE
  5
A35
330
A02
100
AcDbEntity
  8
View
100
AcDbSpline
210
0
220
0
230
1
 70
8
 71
3
 72
17
 73
13
 74
0
 40
4.39823
 40
4.39823
 40
4.39823
 40
4.39823
 40
4.71239
 40
4.71239
 40
4.71239
 40
5.02655
 40
5.02655
 40
5.02655
 40
5.34071
 40
5.34071
 40
5.34071
 40
5.65487
 40
5.65487
 40
5.65487
 40
5.65487
 10
93.92
 20
152.31
 30
0
 10
93.9213
 20
152.404
 30
0
 10
93.8824
 20
152.515
 30
0
 10
93.8028
 20
152.593
 30
0
 10
93.7247
 20
152.672
 30
0
 10
93.6138
 20
152.711
 30
0
 10
93.52
 20
152.71
 30
0
 10
93.4262
 20
152.711
 30
0
 10
93.3153
 20
152.672
 30
0
 10
93.2372
 20
152.593
 30
0
 10
93.1576
 20
152.515
 30
0
 10
93.1187
 20
152.404
 30
0
 10
93.12
 20
152.31
 30
0
  0
SPLINE
  5
A36
330
A02
100
AcDbEntity
  8
View
100
AcDbSpline
210
0
220
0
230
1
 70
8
 71
3
 72
17
 73
13
 74
0
 40
2.19911
 40
2.19911
 40
2.19911
 40
2.19911
 40
2.74889
 40
2.74889
 40
2.74889
 40
3.29867
 40
3.29867
 40
3.29867
 40
3.84845
 40
3.84845
 40
3.84845
 40
4.39823
 40
4.39823
 40
4.39823
 40
4.39823
 10
92.82
 20
152.31
 30
0
 10
92.8178
 20
152.474
 30
0
 10
92.8858
 20
152.668
 30
0
 10
93.025
 20
152.805
 30
0
 10
93.1618
 20
152.944
 30
0
 10
93.3559
 20
153.012
 30
0
 10
93.52
 20
153.01
 30
0
 10
93.6841
 20
153.012
 30
0
 10
93.8782
 20
152.944
 30
0
 10
94.015
 20
152.805
 30
0
 10
94.1542
 20
152.668
 30
0
 10
94.2222
 20
152.474
 30
0
 10
94.22
 20
152.31
 30
0
  0
SPLINE
  5
A37
330
A02
100
AcDbEntity
  8
View
100
AcDbSpline
210
0
220
0
230
1
 70
8
 71
3
 72
17
 73
13
 74
0
 40
5.65487
 40
5.65487
 40
5.65487
 40
5.65487
 40
5.96903
 40
5.96903
 40
5.96903
 40
6.28319
 40
6.28319
 40
6.28319
 40
6.59734
 40
6.59734
 40
6.59734
 40
6.9115
 40
6.9115
 40
6.9115
 40
6.9115
 10
93.12
 20
152.31
 30
0
 10
93.1187
 20
152.216
 30
0
 10
93.1576
 20
152.105
 30
0
 10
93.2372
 20
152.027
 30
0
 10
93.3153
 20
151.948
 30
0
 10
93.4262
 20
151.909
 30
0
 10
93.52
 20
151.91
 30
0
 10
93.6138
 20
151.909
 30
0
 10
93.7247
 20
151.948
 30
0
 10
93.8028
 20
152.027
 30
0
 10
93.8824
 20
152.105
 30
0
 10
93.9213
 20
152.216
 30
0
 10
93.92
 20
152.31
 30
0
  0
SPLINE
  5
A38
330
A02
100
AcDbEntity
  8
View
100
AcDbSpline
210
0
220
0
230
1
 70
8
 71
3
 72
17
 73
13
 74
0
 40
0
 40
0
 40
0
 40
0
 40
0.549779
 40
0.549779
 40
0.549779
 40
1.09956
 40
1.09956
 40
1.09956
 40
1.64934
 40
1.64934
 40
1.64934
 40
2.19911
 40
2.19911
 40
2.19911
 40
2.19911
 10
94.22
 20
154.85
 30
0
 10
94.2222
 20
154.686
 30
0
 10
94.1542
 20
154.492
 30
0
 10
94.015
 20
154.355
 30
0
 10
93.8782
 20
154.216
 30
0
 10
93.6841
 20
154.148
 30
0
 10
93.52
 20
154.15
 30
0
 10
93.3559
 20
154.148
 30
0
 10
93.1618
 20
154.216
 30
0
 10
93.025
 20
154.355
 30
0
 10
92.8858
 20
154.492
 30
0
 10
92.8178
 20
154.686
 30
0
 10
92.82
 20
154.85
 30
0
  0
SPLINE
  5
A39
330
A02
100
AcDbEntity
  8
View
100
AcDbSpline
210
0
220
0
230
1
 70
8
 71
3
 72
17
 73
13
 74
0
 40
4.39823
 40
4.39823
 40
4.39823
 40
4.39823
 40
4.71239
 40
4.71239
 40
4.71239
 40
5.02655
 40
5.02655
 40
5.02655
 40
5.34071
 40
5.34071
 40
5.34071
 40
5.65487
 40
5.65487
 40
5.65487
 40
5.65487
 10
93.92
 20
154.85
 30
0
 10
93.9213
 20
154.944
 30
0
 10
93.8824
 20
155.055
 30
0
 10
93.8028
 20
155.133
 30
0
 10
93.7247
 20
155.212
 30
0
 10
93.6138
 20
155.251
 30
0
 10
93.52
 20
155.25
 30
0
 10
93.4262
 20
155.251
 30
0
 10
93.3153
 20
155.212
 30
0
 10
93.2372
 20
155.133
 30
0
 10
93.1576
 20
155.055
 30
0
 10
93.1187
 20
154.944
 30
0
 10
93.12
 20
154.85
 30
0
  0
SPLINE
  5
A3A
330
A02
100
AcDbEntity
  8
View
100
AcDbSpline
210
0
220
0
230
1
 70
8
 71
3
 72
17
 73
13
 74
0
 40
2.19911
 40
2.19911
 40
2.19911
 40
2.19911
 40
2.74889
 40
2.74889
 40
2.74889
 40
3.29867
 40
3.29867
 40
3.29867
 40
3.84845
 40
3.84845
 40
3.84845
 40
4.39823
 40
4.39823
 40
4.39823
 40
4.39823
 10
92.82
 20
154.85
 30
0
 10
92.8178
 20
155.014
 30
0
 10
92.8858
 20
155.208
 30
0
 10
93.025
 20
155.345
 30
0
 10
93.1618
 20
155.484
 30
0
 10
93.3559
 20
155.552
 30
0
 10
93.52
 20
155.55
 30
0
 10
93.6841
 20
155.552
 30
0
 10
93.8782
 20
155.484
 30
0
 10
94.015
 20
155.345
 30
0
 10
94.1542
 20
155.208
 30
0
 10
94.2222
 20
155.014
 30
0
 10
94.22
 20
154.85
 30
0
  0
SPLINE
  5
A3B
330
A02
100
AcDbEntity
  8
View
100
AcDbSpline
210
0
220
0
230
1
 70
8
 71
3
 72
17
 73
13
 74
0
 40
5.65487
 40
5.65487
 40
5.65487
 40
5.65487
 40
5.96903
 40
5.96903
 40
5.96903
 40
6.28319
 40
6.28319
 40
6.28319
 40
6.59734
 40
6.59734
 40
6.59734
 40
6.9115
 40
6.9115
 40
6.9115
 40
6.9115
 10
93.12
 20
154.85
 30
0
 10
93.1187
 20
154.756
 30
0
 10
93.1576
 20
154.645
 30
0
 10
93.2372
 20
154.567
 30
0
 10
93.3153
 20
154.488
 30
0
 10
93.4262
 20
154.449
 30
0
 10
93.52
 20
154.45
 30
0
 10
93.6138
 20
154.449
 30
0
 10
93.7247
 20
154.488
 30
0
 10
93.8028
 20
154.567
 30
0
 10
93.8824
 20
154.645
 30
0
 10
93.9213
 20
154.756
 30
0
 10
93.92
 20
154.85
 30
0
  0
SPLINE
  5
A3C
330
A02
100
AcDbEntity
  8
View
100
AcDbSpline
210
0
220
0
230
1
 70
8
 71
3
 72
17
 73
13
 74
0
 40
0
 40
0
 40
0
 40
0
 40
0.549779
 40
0.549779
 40
0.549779
 40
1.09956
 40
1.09956
 40
1.09956
 40
1.64934
 40
1.64934
 40
1.64934
 40
2.19911
 40
2.19911
 40
2.19911
 40
2.19911
 10
94.22
 20
157.39
 30
0
 10
94.2222
 20
157.226
 30
0
 10
94.1542
 20
157.032
 30
0
 10
94.015
 20
156.895
 30
0
 10
93.8782
 20
156.756
 30
0
 10
93.6841
 20
156.688
 30
0
 10
93.52
 20
156.69
 30
0
 10
93.3559
 20
156.688
 30
0
 10
93.1618
 20
156.756
 30
0
 10
93.025
 20
156.895
 30
0
 10
92.8858
 20
157.032
 30
0
 10
92.8178
 20
157.226
 30
0
 10
92.82
 20
157.39
 30
0
  0
SPLINE
  5
A3D
330
A02
100
AcDbEntity
  8
View
100
AcDbSpline
210
0
220
0
230
1
 70
8
 71
3
 72
17
 73
13
 74
0
 40
4.39823
 40
4.39823
 40
4.39823
 40
4.39823
 40
4.71239
 40
4.71239
 40
4.71239
 40
5.02655
 40
5.02655
 40
5.02655
 40
5.34071
 40
5.34071
 40
5.34071
 40
5.65487
 40
5.65487
 40
5.65487
 40
5.65487
 10
93.92
 20
157.39
 30
0
 10
93.9213
 20
157.484
 30
0
 10
93.8824
 20
157.595
 30
0
 10
93.8028
 20
157.673
 30
0
 10
93.7247
 20
157.752
 30
0
 10
93.6138
 20
157.791
 30
0
 10
93.52
 20
157.79
 30
0
 10
93.4262
 20
157.791
 30
0
 10
93.3153
 20
157.752
 30
0
 10
93.2372
 20
157.673
 30
0
 10
93.1576
 20
157.595
 30
0
 10
93.1187
 20
157.484
 30
0
 10
93.12
 20
157.39
 30
0
  0
SPLINE
  5
A3E
330
A02
100
AcDbEntity
  8
View
100
AcDbSpline
210
0
220
0
230
1
 70
8
 71
3
 72
17
 73
13
 74
0
 40
2.19911
 40
2.19911
 40
2.19911
 40
2.19911
 40
2.74889
 40
2.74889
 40
2.74889
 40
3.29867
 40
3.29867
 40
3.29867
 40
3.84845
 40
3.84845
 40
3.84845
 40
4.39823
 40
4.39823
 40
4.39823
 40
4.39823
 10
92.82
 20
157.39
 30
0
 10
92.8178
 20
157.554
 30
0
 10
92.8858
 20
157.748
 30
0
 10
93.025
 20
157.885
 30
0
 10
93.1618
 20
158.024
 30
0
 10
93.3559
 20
158.092
 30
0
 10
93.52
 20
158.09
 30
0
 10
93.6841
 20
158.092
 30
0
 10
93.8782
 20
158.024
 30
0
 10
94.015
 20
157.885
 30
0
 10
94.1542
 20
157.748
 30
0
 10
94.2222
 20
157.554
 30
0
 10
94.22
 20
157.39
 30
0
  0
SPLINE
  5
A3F
330
A02
100
AcDbEntity
  8
View
100
AcDbSpline
210
0
220
0
230
1
 70
8
 71
3
 72
17
 73
13
 74
0
 40
5.65487
 40
5.65487
 40
5.65487
 40
5.65487
 40
5.96903
 40
5.96903
 40
5.96903
 40
6.28319
 40
6.28319
 40
6.28319
 40
6.59734
 40
6.59734
 40
6.59734
 40
6.9115
 40
6.9115
 40
6.9115
 40
6.9115
 10
93.12
 20
157.39
 30
0
 10
93.1187
 20
157.296
 30
0
 10
93.1576
 20
157.185
 30
0
 10
93.2372
 20
157.107
 30
0
 10
93.3153
 20
157.028
 30
0
 10
93.4262
 20
156.989
 30
0
 10
93.52
 20
156.99
 30
0
 10
93.6138
 20
156.989
 30
0
 10
93.7247
 20
157.028
 30
0
 10
93.8028
 20
157.107
 30
0
 10
93.8824
 20
157.185
 30
0
 10
93.9213
 20
157.296
 30
0
 10
93.92
 20
157.39
 30
0
  0
SPLINE
  5
A40
330
A02
100
AcDbEntity
  8
View
100
AcDbSpline
210
0
220
0
230
1
 70
8
 71
3
 72
17
 73
13
 74
0
 40
0
 40
0
 40
0
 40
0
 40
0.549779
 40
0.549779
 40
0.549779
 40
1.09956
 40
1.09956
 40
1.09956
 40
1.64934
 40
1.64934
 40
1.64934
 40
2.19911
 40
2.19911
 40
2.19911
 40
2.19911
 10
94.22
 20
159.93
 30
0
 10
94.2222
 20
159.766
 30
0
 10
94.1542
 20
159.572
 30
0
 10
94.015
 20
159.435
 30
0
 10
93.8782
 20
159.296
 30
0
 10
93.6841
 20
159.228
 30
0
 10
93.52
 20
159.23
 30
0
 10
93.3559
 20
159.228
 30
0
 10
93.1618
 20
159.296
 30
0
 10
93.025
 20
159.435
 30
0
 10
92.8858
 20
159.572
 30
0
 10
92.8178
 20
159.766
 30
0
 10
92.82
 20
159.93
 30
0
  0
SPLINE
  5
A41
330
A02
100
AcDbEntity
  8
View
100
AcDbSpline
210
0
220
0
230
1
 70
8
 71
3
 72
17
 73
13
 74
0
 40
4.39823
 40
4.39823
 40
4.39823
 40
4.39823
 40
4.71239
 40
4.71239
 40
4.71239
 40
5.02655
 40
5.02655
 40
5.02655
 40
5.34071
 40
5.34071
 40
5.34071
 40
5.65487
 40
5.65487
 40
5.65487
 40
5.65487
 10
93.92
 20
159.93
 30
0
 10
93.9213
 20
160.024
 30
0
 10
93.8824
 20
160.135
 30
0
 10
93.8028
 20
160.213
 30
0
 10
93.7247
 20
160.292
 30
0
 10
93.6138
 20
160.331
 30
0
 10
93.52
 20
160.33
 30
0
 10
93.4262
 20
160.331
 30
0
 10
93.3153
 20
160.292
 30
0
 10
93.2372
 20
160.213
 30
0
 10
93.1576
 20
160.135
 30
0
 10
93.1187
 20
160.024
 30
0
 10
93.12
 20
159.93
 30
0
  0
SPLINE
  5
A42
330
A02
100
AcDbEntity
  8
View
100
AcDbSpline
210
0
220
0
230
1
 70
8
 71
3
 72
17
 73
13
 74
0
 40
2.19911
 40
2.19911
 40
2.19911
 40
2.19911
 40
2.74889
 40
2.74889
 40
2.74889
 40
3.29867
 40
3.29867
 40
3.29867
 40
3.84845
 40
3.84845
 40
3.84845
 40
4.39823
 40
4.39823
 40
4.39823
 40
4.39823
 10
92.82
 20
159.93
 30
0
 10
92.8178
 20
160.094
 30
0
 10
92.8858
 20
160.288
 30
0
 10
93.025
 20
160.425
 30
0
 10
93.1618
 20
160.564
 30
0
 10
93.3559
 20
160.632
 30
0
 10
93.52
 20
160.63
 30
0
 10
93.6841
 20
160.632
 30
0
 10
93.8782
 20
160.564
 30
0
 10
94.015
 20
160.425
 30
0
 10
94.1542
 20
160.288
 30
0
 10
94.2222
 20
160.094
 30
0
 10
94.22
 20
159.93
 30
0
  0
SPLINE
  5
A43
330
A02
100
AcDbEntity
  8
View
100
AcDbSpline
210
0
220
0
230
1
 70
8
 71
3
 72
17
 73
13
 74
0
 40
5.65487
 40
5.65487
 40
5.65487
 40
5.65487
 40
5.96903
 40
5.96903
 40
5.96903
 40
6.28319
 40
6.28319
 40
6.28319
 40
6.59734
 40
6.59734
 40
6.59734
 40
6.9115
 40
6.9115
 40
6.9115
 40
6.9115
 10
93.12
 20
159.93
 30
0
 10
93.1187
 20
159.836
 30
0
 10
93.1576
 20
159.725
 30
0
 10
93.2372
 20
159.647
 30
0
 10
93.3153
 20
159.568
 30
0
 10
93.4262
 20
159.529
 30
0
 10
93.52
 20
159.53
 30
0
 10
93.6138
 20
159.529
 30
0
 10
93.7247
 20
159.568
 30
0
 10
93.8028
 20
159.647
 30
0
 10
93.8824
 20
159.725
 30
0
 10
93.9213
 20
159.836
 30
0
 10
93.92
 20
159.93
 30
0
  0
SPLINE
  5
A44
330
A02
100
AcDbEntity
  8
View
100
AcDbSpline
210
0
220
0
230
1
 70
8
 71
3
 72
17
 73
13
 74
0
 40
0
 40
0
 40
0
 40
0
 40
0.549779
 40
0.549779
 40
0.549779
 40
1.09956
 40
1.09956
 40
1.09956
 40
1.64934
 40
1.64934
 40
1.64934
 40
2.19911
 40
2.19911
 40
2.19911
 40
2.19911
 10
94.22
 20
147.23
 30
0
 10
94.2222
 20
147.066
 30
0
 10
94.1542
 20
146.872
 30
0
 10
94.015
 20
146.735
 30
0
 10
93.8782
 20
146.596
 30
0
 10
93.6841
 20
146.528
 30
0
 10
93.52
 20
146.53
 30
0
 10
93.3559
 20
146.528
 30
0
 10
93.1618
 20
146.596
 30
0
 10
93.025
 20
146.735
 30
0
 10
92.8858
 20
146.872
 30
0
 10
92.8178
 20
147.066
 30
0
 10
92.82
 20
147.23
 30
0
  0
SPLINE
  5
A45
330
A02
100
AcDbEntity
  8
View
100
AcDbSpline
210
0
220
0
230
1
 70
8
 71
3
 72
17
 73
13
 74
0
 40
4.39823
 40
4.39823
 40
4.39823
 40
4.39823
 40
4.71239
 40
4.71239
 40
4.71239
 40
5.02655
 40
5.02655
 40
5.02655
 40
5.34071
 40
5.34071
 40
5.34071
 40
5.65487
 40
5.65487
 40
5.65487
 40
5.65487
 10
93.92
 20
147.23
 30
0
 10
93.9213
 20
147.324
 30
0
 10
93.8824
 20
147.435
 30
0
 10
93.8028
 20
147.513
 30
0
 10
93.7247
 20
147.592
 30
0
 10
93.6138
 20
147.631
 30
0
 10
93.52
 20
147.63
 30
0
 10
93.4262
 20
147.631
 30
0
 10
93.3153
 20
147.592
 30
0
 10
93.2372
 20
147.513
 30
0
 10
93.1576
 20
147.435
 30
0
 10
93.1187
 20
147.324
 30
0
 10
93.12
 20
147.23
 30
0
  0
SPLINE
  5
A46
330
A02
100
AcDbEntity
  8
View
100
AcDbSpline
210
0
220
0
230
1
 70
8
 71
3
 72
17
 73
13
 74
0
 40
2.19911
 40
2.19911
 40
2.19911
 40
2.19911
 40
2.74889
 40
2.74889
 40
2.74889
 40
3.29867
 40
3.29867
 40
3.29867
 40
3.84845
 40
3.84845
 40
3.84845
 40
4.39823
 40
4.39823
 40
4.39823
 40
4.39823
 10
92.82
 20
147.23
 30
0
 10
92.8178
 20
147.394
 30
0
 10
92.8858
 20
147.588
 30
0
 10
93.025
 20
147.725
 30
0
 10
93.1618
 20
147.864
 30
0
 10
93.3559
 20
147.932
 30
0
 10
93.52
 20
147.93
 30
0
 10
93.6841
 20
147.932
 30
0
 10
93.8782
 20
147.864
 30
0
 10
94.015
 20
147.725
 30
0
 10
94.1542
 20
147.588
 30
0
 10
94.2222
 20
147.394
 30
0
 10
94.22
 20
147.23
 30
0
  0
SPLINE
  5
A47
330
A02
100
AcDbEntity
  8
View
100
AcDbSpline
210
0
220
0
230
1
 70
8
 71
3
 72
17
 73
13
 74
0
 40
5.65487
 40
5.65487
 40
5.65487
 40
5.65487
 40
5.96903
 40
5.96903
 40
5.96903
 40
6.28319
 40
6.28319
 40
6.28319
 40
6.59734
 40
6.59734
 40
6.59734
 40
6.9115
 40
6.9115
 40
6.9115
 40
6.9115
 10
93.12
 20
147.23
 30
0
 10
93.1187
 20
147.136
 30
0
 10
93.1576
 20
147.025
 30
0
 10
93.2372
 20
146.947
 30
0
 10
93.3153
 20
146.868
 30
0
 10
93.4262
 20
146.829
 30
0
 10
93.52
 20
146.83
 30
0
 10
93.6138
 20
146.829
 30
0
 10
93.7247
 20
146.868
 30
0
 10
93.8028
 20
146.947
 30
0
 10
93.8824
 20
147.025
 30
0
 10
93.9213
 20
147.136
 30
0
 10
93.92
 20
147.23
 30
0
  0
SPLINE
  5
A48
330
A02
100
AcDbEntity
  8
View
100
AcDbSpline
210
0
220
0
230
1
 70
8
 71
3
 72
17
 73
13
 74
0
 40
0
 40
0
 40
0
 40
0
 40
0.549779
 40
0.549779
 40
0.549779
 40
1.09956
 40
1.09956
 40
1.09956
 40
1.64934
 40
1.64934
 40
1.64934
 40
2.19911
 40
2.19911
 40
2.19911
 40
2.19911
 10
94.22
 20
144.69
 30
0
 10
94.2222
 20
144.526
 30
0
 10
94.1542
 20
144.332
 30
0
 10
94.015
 20
144.195
 30
0
 10
93.8782
 20
144.056
 30
0
 10
93.6841
 20
143.988
 30
0
 10
93.52
 20
143.99
 30
0
 10
93.3559
 20
143.988
 30
0
 10
93.1618
 20
144.056
 30
0
 10
93.025
 20
144.195
 30
0
 10
92.8858
 20
144.332
 30
0
 10
92.8178
 20
144.526
 30
0
 10
92.82
 20
144.69
 30
0
  0
SPLINE
  5
A49
330
A02
100
AcDbEntity
  8
View
100
AcDbSpline
210
0
220
0
230
1
 70
8
 71
3
 72
17
 73
13
 74
0
 40
4.39823
 40
4.39823
 40
4.39823
 40
4.39823
 40
4.71239
 40
4.71239
 40
4.71239
 40
5.02655
 40
5.02655
 40
5.02655
 40
5.34071
 40
5.34071
 40
5.34071
 40
5.65487
 40
5.65487
 40
5.65487
 40
5.65487
 10
93.92
 20
144.69
 30
0
 10
93.9213
 20
144.784
 30
0
 10
93.8824
 20
144.895
 30
0
 10
93.8028
 20
144.973
 30
0
 10
93.7247
 20
145.052
 30
0
 10
93.6138
 20
145.091
 30
0
 10
93.52
 20
145.09
 30
0
 10
93.4262
 20
145.091
 30
0
 10
93.3153
 20
145.052
 30
0
 10
93.2372
 20
144.973
 30
0
 10
93.1576
 20
144.895
 30
0
 10
93.1187
 20
144.784
 30
0
 10
93.12
 20
144.69
 30
0
  0
SPLINE
  5
A4A
330
A02
100
AcDbEntity
  8
View
100
AcDbSpline
210
0
220
0
230
1
 70
8
 71
3
 72
17
 73
13
 74
0
 40
2.19911
 40
2.19911
 40
2.19911
 40
2.19911
 40
2.74889
 40
2.74889
 40
2.74889
 40
3.29867
 40
3.29867
 40
3.29867
 40
3.84845
 40
3.84845
 40
3.84845
 40
4.39823
 40
4.39823
 40
4.39823
 40
4.39823
 10
92.82
 20
144.69
 30
0
 10
92.8178
 20
144.854
 30
0
 10
92.8858
 20
145.048
 30
0
 10
93.025
 20
145.185
 30
0
 10
93.1618
 20
145.324
 30
0
 10
93.3559
 20
145.392
 30
0
 10
93.52
 20
145.39
 30
0
 10
93.6841
 20
145.392
 30
0
 10
93.8782
 20
145.324
 30
0
 10
94.015
 20
145.185
 30
0
 10
94.1542
 20
145.048
 30
0
 10
94.2222
 20
144.854
 30
0
 10
94.22
 20
144.69
 30
0
  0
SPLINE
  5
A4B
330
A02
100
AcDbEntity
  8
View
100
AcDbSpline
210
0
220
0
230
1
 70
8
 71
3
 72
17
 73
13
 74
0
 40
5.65487
 40
5.65487
 40
5.65487
 40
5.65487
 40
5.96903
 40
5.96903
 40
5.96903
 40
6.28319
 40
6.28319
 40
6.28319
 40
6.59734
 40
6.59734
 40
6.59734
 40
6.9115
 40
6.9115
 40
6.9115
 40
6.9115
 10
93.12
 20
144.69
 30
0
 10
93.1187
 20
144.596
 30
0
 10
93.1576
 20
144.485
 30
0
 10
93.2372
 20
144.407
 30
0
 10
93.3153
 20
144.328
 30
0
 10
93.4262
 20
144.289
 30
0
 10
93.52
 20
144.29
 30
0
 10
93.6138
 20
144.289
 30
0
 10
93.7247
 20
144.328
 30
0
 10
93.8028
 20
144.407
 30
0
 10
93.8824
 20
144.485
 30
0
 10
93.9213
 20
144.596
 30
0
 10
93.92
 20
144.69
 30
0
  0
SPLINE
  5
A4C
330
A02
100
AcDbEntity
  8
View
100
AcDbSpline
210
0
220
0
230
1
 70
8
 71
3
 72
17
 73
13
 74
0
 40
0
 40
0
 40
0
 40
0
 40
0.549779
 40
0.549779
 40
0.549779
 40
1.09956
 40
1.09956
 40
1.09956
 40
1.64934
 40
1.64934
 40
1.64934
 40
2.19911
 40
2.19911
 40
2.19911
 40
2.19911
 10
94.22
 20
142.15
 30
0
 10
94.2222
 20
141.986
 30
0
 10
94.1542
 20
141.792
 30
0
 10
94.015
 20
141.655
 30
0
 10
93.8782
 20
141.516
 30
0
 10
93.6841
 20
141.448
 30
0
 10
93.52
 20
141.45
 30
0
 10
93.3559
 20
141.448
 30
0
 10
93.1618
 20
141.516
 30
0
 10
93.025
 20
141.655
 30
0
 10
92.8858
 20
141.792
 30
0
 10
92.8178
 20
141.986
 30
0
 10
92.82
 20
142.15
 30
0
  0
SPLINE
  5
A4D
330
A02
100
AcDbEntity
  8
View
100
AcDbSpline
210
0
220
0
230
1
 70
8
 71
3
 72
17
 73
13
 74
0
 40
4.39823
 40
4.39823
 40
4.39823
 40
4.39823
 40
4.71239
 40
4.71239
 40
4.71239
 40
5.02655
 40
5.02655
 40
5.02655
 40
5.34071
 40
5.34071
 40
5.34071
 40
5.65487
 40
5.65487
 40
5.65487
 40
5.65487
 10
93.92
 20
142.15
 30
0
 10
93.9213
 20
142.244
 30
0
 10
93.8824
 20
142.355
 30
0
 10
93.8028
 20
142.433
 30
0
 10
93.7247
 20
142.512
 30
0
 10
93.6138
 20
142.551
 30
0
 10
93.52
 20
142.55
 30
0
 10
93.4262
 20
142.551
 30
0
 10
93.3153
 20
142.512
 30
0
 10
93.2372
 20
142.433
 30
0
 10
93.1576
 20
142.355
 30
0
 10
93.1187
 20
142.244
 30
0
 10
93.12
 20
142.15
 30
0
  0
SPLINE
  5
A4E
330
A02
100
AcDbEntity
  8
View
100
AcDbSpline
210
0
220
0
230
1
 70
8
 71
3
 72
17
 73
13
 74
0
 40
2.19911
 40
2.19911
 40
2.19911
 40
2.19911
 40
2.74889
 40
2.74889
 40
2.74889
 40
3.29867
 40
3.29867
 40
3.29867
 40
3.84845
 40
3.84845
 40
3.84845
 40
4.39823
 40
4.39823
 40
4.39823
 40
4.39823
 10
92.82
 20
142.15
 30
0
 10
92.8178
 20
142.314
 30
0
 10
92.8858
 20
142.508
 30
0
 10
93.025
 20
142.645
 30
0
 10
93.1618
 20
142.784
 30
0
 10
93.3559
 20
142.852
 30
0
 10
93.52
 20
142.85
 30
0
 10
93.6841
 20
142.852
 30
0
 10
93.8782
 20
142.784
 30
0
 10
94.015
 20
142.645
 30
0
 10
94.1542
 20
142.508
 30
0
 10
94.2222
 20
142.314
 30
0
 10
94.22
 20
142.15
 30
0
  0
SPLINE
  5
A4F
330
A02
100
AcDbEntity
  8
View
100
AcDbSpline
210
0
220
0
230
1
 70
8
 71
3
 72
17
 73
13
 74
0
 40
5.65487
 40
5.65487
 40
5.65487
 40
5.65487
 40
5.96903
 40
5.96903
 40
5.96903
 40
6.28319
 40
6.28319
 40
6.28319
 40
6.59734
 40
6.59734
 40
6.59734
 40
6.9115
 40
6.9115
 40
6.9115
 40
6.9115
 10
93.12
 20
142.15
 30
0
 10
93.1187
 20
142.056
 30
0
 10
93.1576
 20
141.945
 30
0
 10
93.2372
 20
141.867
 30
0
 10
93.3153
 20
141.788
 30
0
 10
93.4262
 20
141.749
 30
0
 10
93.52
 20
141.75
 30
0
 10
93.6138
 20
141.749
 30
0
 10
93.7247
 20
141.788
 30
0
 10
93.8028
 20
141.867
 30
0
 10
93.8824
 20
141.945
 30
0
 10
93.9213
 20
142.056
 30
0
 10
93.92
 20
142.15
 30
0
  0
SPLINE
  5
A50
330
A02
100
AcDbEntity
  8
View
100
AcDbSpline
210
0
220
0
230
1
 70
8
 71
3
 72
17
 73
13
 74
0
 40
0
 40
0
 40
0
 40
0
 40
0.549779
 40
0.549779
 40
0.549779
 40
1.09956
 40
1.09956
 40
1.09956
 40
1.64934
 40
1.64934
 40
1.64934
 40
2.19911
 40
2.19911
 40
2.19911
 40
2.19911
 10
94.22
 20
139.61
 30
0
 10
94.2222
 20
139.446
 30
0
 10
94.1542
 20
139.252
 30
0
 10
94.015
 20
139.115
 30
0
 10
93.8782
 20
138.976
 30
0
 10
93.6841
 20
138.908
 30
0
 10
93.52
 20
138.91
 30
0
 10
93.3559
 20
138.908
 30
0
 10
93.1618
 20
138.976
 30
0
 10
93.025
 20
139.115
 30
0
 10
92.8858
 20
139.252
 30
0
 10
92.8178
 20
139.446
 30
0
 10
92.82
 20
139.61
 30
0
  0
SPLINE
  5
A51
330
A02
100
AcDbEntity
  8
View
100
AcDbSpline
210
0
220
0
230
1
 70
8
 71
3
 72
17
 73
13
 74
0
 40
4.39823
 40
4.39823
 40
4.39823
 40
4.39823
 40
4.71239
 40
4.71239
 40
4.71239
 40
5.02655
 40
5.02655
 40
5.02655
 40
5.34071
 40
5.34071
 40
5.34071
 40
5.65487
 40
5.65487
 40
5.65487
 40
5.65487
 10
93.92
 20
139.61
 30
0
 10
93.9213
 20
139.704
 30
0
 10
93.8824
 20
139.815
 30
0
 10
93.8028
 20
139.893
 30
0
 10
93.7247
 20
139.972
 30
0
 10
93.6138
 20
140.011
 30
0
 10
93.52
 20
140.01
 30
0
 10
93.4262
 20
140.011
 30
0
 10
93.3153
 20
139.972
 30
0
 10
93.2372
 20
139.893
 30
0
 10
93.1576
 20
139.815
 30
0
 10
93.1187
 20
139.704
 30
0
 10
93.12
 20
139.61
 30
0
  0
SPLINE
  5
A52
330
A02
100
AcDbEntity
  8
View
100
AcDbSpline
210
0
220
0
230
1
 70
8
 71
3
 72
17
 73
13
 74
0
 40
2.19911
 40
2.19911
 40
2.19911
 40
2.19911
 40
2.74889
 40
2.74889
 40
2.74889
 40
3.29867
 40
3.29867
 40
3.29867
 40
3.84845
 40
3.84845
 40
3.84845
 40
4.39823
 40
4.39823
 40
4.39823
 40
4.39823
 10
92.82
 20
139.61
 30
0
 10
92.8178
 20
139.774
 30
0
 10
92.8858
 20
139.968
 30
0
 10
93.025
 20
140.105
 30
0
 10
93.1618
 20
140.244
 30
0
 10
93.3559
 20
140.312
 30
0
 10
93.52
 20
140.31
 30
0
 10
93.6841
 20
140.312
 30
0
 10
93.8782
 20
140.244
 30
0
 10
94.015
 20
140.105
 30
0
 10
94.1542
 20
139.968
 30
0
 10
94.2222
 20
139.774
 30
0
 10
94.22
 20
139.61
 30
0
  0
SPLINE
  5
A53
330
A02
100
AcDbEntity
  8
View
100
AcDbSpline
210
0
220
0
230
1
 70
8
 71
3
 72
17
 73
13
 74
0
 40
5.65487
 40
5.65487
 40
5.65487
 40
5.65487
 40
5.96903
 40
5.96903
 40
5.96903
 40
6.28319
 40
6.28319
 40
6.28319
 40
6.59734
 40
6.59734
 40
6.59734
 40
6.9115
 40
6.9115
 40
6.9115
 40
6.9115
 10
93.12
 20
139.61
 30
0
 10
93.1187
 20
139.516
 30
0
 10
93.1576
 20
139.405
 30
0
 10
93.2372
 20
139.327
 30
0
 10
93.3153
 20
139.248
 30
0
 10
93.4262
 20
139.209
 30
0
 10
93.52
 20
139.21
 30
0
 10
93.6138
 20
139.209
 30
0
 10
93.7247
 20
139.248
 30
0
 10
93.8028
 20
139.327
 30
0
 10
93.8824
 20
139.405
 30
0
 10
93.9213
 20
139.516
 30
0
 10
93.92
 20
139.61
 30
0
  0
SPLINE
  5
A54
330
A02
100
AcDbEntity
  8
View
100
AcDbSpline
210
0
220
0
230
1
 70
8
 71
3
 72
17
 73
13
 74
0
 40
0
 40
0
 40
0
 40
0
 40
0.549779
 40
0.549779
 40
0.549779
 40
1.09956
 40
1.09956
 40
1.09956
 40
1.64934
 40
1.64934
 40
1.64934
 40
2.19911
 40
2.19911
 40
2.19911
 40
2.19911
 10
94.22
 20
137.07
 30
0
 10
94.2222
 20
136.906
 30
0
 10
94.1542
 20
136.712
 30
0
 10
94.015
 20
136.575
 30
0
 10
93.8782
 20
136.436
 30
0
 10
93.6841
 20
136.368
 30
0
 10
93.52
 20
136.37
 30
0
 10
93.3559
 20
136.368
 30
0
 10
93.1618
 20
136.436
 30
0
 10
93.025
 20
136.575
 30
0
 10
92.8858
 20
136.712
 30
0
 10
92.8178
 20
136.906
 30
0
 10
92.82
 20
137.07
 30
0
  0
SPLINE
  5
A55
330
A02
100
AcDbEntity
  8
View
100
AcDbSpline
210
0
220
0
230
1
 70
8
 71
3
 72
17
 73
13
 74
0
 40
4.39823
 40
4.39823
 40
4.39823
 40
4.39823
 40
4.71239
 40
4.71239
 40
4.71239
 40
5.02655
 40
5.02655
 40
5.02655
 40
5.34071
 40
5.34071
 40
5.34071
 40
5.65487
 40
5.65487
 40
5.65487
 40
5.65487
 10
93.92
 20
137.07
 30
0
 10
93.9213
 20
137.164
 30
0
 10
93.8824
 20
137.275
 30
0
 10
93.8028
 20
137.353
 30
0
 10
93.7247
 20
137.432
 30
0
 10
93.6138
 20
137.471
 30
0
 10
93.52
 20
137.47
 30
0
 10
93.4262
 20
137.471
 30
0
 10
93.3153
 20
137.432
 30
0
 10
93.2372
 20
137.353
 30
0
 10
93.1576
 20
137.275
 30
0
 10
93.1187
 20
137.164
 30
0
 10
93.12
 20
137.07
 30
0
  0
SPLINE
  5
A56
330
A02
100
AcDbEntity
  8
View
100
AcDbSpline
210
0
220
0
230
1
 70
8
 71
3
 72
17
 73
13
 74
0
 40
2.19911
 40
2.19911
 40
2.19911
 40
2.19911
 40
2.74889
 40
2.74889
 40
2.74889
 40
3.29867
 40
3.29867
 40
3.29867
 40
3.84845
 40
3.84845
 40
3.84845
 40
4.39823
 40
4.39823
 40
4.39823
 40
4.39823
 10
92.82
 20
137.07
 30
0
 10
92.8178
 20
137.234
 30
0
 10
92.8858
 20
137.428
 30
0
 10
93.025
 20
137.565
 30
0
 10
93.1618
 20
137.704
 30
0
 10
93.3559
 20
137.772
 30
0
 10
93.52
 20
137.77
 30
0
 10
93.6841
 20
137.772
 30
0
 10
93.8782
 20
137.704
 30
0
 10
94.015
 20
137.565
 30
0
 10
94.1542
 20
137.428
 30
0
 10
94.2222
 20
137.234
 30
0
 10
94.22
 20
137.07
 30
0
  0
SPLINE
  5
A57
330
A02
100
AcDbEntity
  8
View
100
AcDbSpline
210
0
220
0
230
1
 70
8
 71
3
 72
17
 73
13
 74
0
 40
5.65487
 40
5.65487
 40
5.65487
 40
5.65487
 40
5.96903
 40
5.96903
 40
5.96903
 40
6.28319
 40
6.28319
 40
6.28319
 40
6.59734
 40
6.59734
 40
6.59734
 40
6.9115
 40
6.9115
 40
6.9115
 40
6.9115
 10
93.12
 20
137.07
 30
0
 10
93.1187
 20
136.976
 30
0
 10
93.1576
 20
136.865
 30
0
 10
93.2372
 20
136.787
 30
0
 10
93.3153
 20
136.708
 30
0
 10
93.4262
 20
136.669
 30
0
 10
93.52
 20
136.67
 30
0
 10
93.6138
 20
136.669
 30
0
 10
93.7247
 20
136.708
 30
0
 10
93.8028
 20
136.787
 30
0
 10
93.8824
 20
136.865
 30
0
 10
93.9213
 20
136.976
 30
0
 10
93.92
 20
137.07
 30
0
  0
SPLINE
  5
A58
330
A02
100
AcDbEntity
  8
View
100
AcDbSpline
210
0
220
0
230
1
 70
8
 71
3
 72
17
 73
13
 74
0
 40
0
 40
0
 40
0
 40
0
 40
0.549779
 40
0.549779
 40
0.549779
 40
1.09956
 40
1.09956
 40
1.09956
 40
1.64934
 40
1.64934
 40
1.64934
 40
2.19911
 40
2.19911
 40
2.19911
 40
2.19911
 10
119.72
 20
137.07
 30
0
 10
119.722
 20
136.906
 30
0
 10
119.654
 20
136.712
 30
0
 10
119.515
 20
136.575
 30
0
 10
119.378
 20
136.436
 30
0
 10
119.184
 20
136.368
 30
0
 10
119.02
 20
136.37
 30
0
 10
118.856
 20
136.368
 30
0
 10
118.662
 20
136.436
 30
0
 10
118.525
 20
136.575
 30
0
 10
118.386
 20
136.712
 30
0
 10
118.318
 20
136.906
 30
0
 10
118.32
 20
137.07
 30
0
  0
SPLINE
  5
A59
330
A02
100
AcDbEntity
  8
View
100
AcDbSpline
210
0
220
0
230
1
 70
8
 71
3
 72
17
 73
13
 74
0
 40
4.39823
 40
4.39823
 40
4.39823
 40
4.39823
 40
4.71239
 40
4.71239
 40
4.71239
 40
5.02655
 40
5.02655
 40
5.02655
 40
5.34071
 40
5.34071
 40
5.34071
 40
5.65487
 40
5.65487
 40
5.65487
 40
5.65487
 10
119.42
 20
137.07
 30
0
 10
119.421
 20
137.164
 30
0
 10
119.382
 20
137.275
 30
0
 10
119.303
 20
137.353
 30
0
 10
119.225
 20
137.432
 30
0
 10
119.114
 20
137.471
 30
0
 10
119.02
 20
137.47
 30
0
 10
118.926
 20
137.471
 30
0
 10
118.815
 20
137.432
 30
0
 10
118.737
 20
137.353
 30
0
 10
118.658
 20
137.275
 30
0
 10
118.619
 20
137.164
 30
0
 10
118.62
 20
137.07
 30
0
  0
SPLINE
  5
A5A
330
A02
100
AcDbEntity
  8
View
100
AcDbSpline
210
0
220
0
230
1
 70
8
 71
3
 72
17
 73
13
 74
0
 40
2.19911
 40
2.19911
 40
2.19911
 40
2.19911
 40
2.74889
 40
2.74889
 40
2.74889
 40
3.29867
 40
3.29867
 40
3.29867
 40
3.84845
 40
3.84845
 40
3.84845
 40
4.39823
 40
4.39823
 40
4.39823
 40
4.39823
 10
118.32
 20
137.07
 30
0
 10
118.318
 20
137.234
 30
0
 10
118.386
 20
137.428
 30
0
 10
118.525
 20
137.565
 30
0
 10
118.662
 20
137.704
 30
0
 10
118.856
 20
137.772
 30
0
 10
119.02
 20
137.77
 30
0
 10
119.184
 20
137.772
 30
0
 10
119.378
 20
137.704
 30
0
 10
119.515
 20
137.565
 30
0
 10
119.654
 20
137.428
 30
0
 10
119.722
 20
137.234
 30
0
 10
119.72
 20
137.07
 30
0
  0
SPLINE
  5
A5B
330
A02
100
AcDbEntity
  8
View
100
AcDbSpline
210
0
220
0
230
1
 70
8
 71
3
 72
17
 73
13
 74
0
 40
5.65487
 40
5.65487
 40
5.65487
 40
5.65487
 40
5.96903
 40
5.96903
 40
5.96903
 40
6.28319
 40
6.28319
 40
6.28319
 40
6.59734
 40
6.59734
 40
6.59734
 40
6.9115
 40
6.9115
 40
6.9115
 40
6.9115
 10
118.62
 20
137.07
 30
0
 10
118.619
 20
136.976
 30
0
 10
118.658
 20
136.865
 30
0
 10
118.737
 20
136.787
 30
0
 10
118.815
 20
136.708
 30
0
 10
118.926
 20
136.669
 30
0
 10
119.02
 20
136.67
 30
0
 10
119.114
 20
136.669
 30
0
 10
119.225
 20
136.708
 30
0
 10
119.303
 20
136.787
 30
0
 10
119.382
 20
136.865
 30
0
 10
119.421
 20
136.976
 30
0
 10
119.42
 20
137.07
 30
0
  0
SPLINE
  5
A5C
330
A02
100
AcDbEntity
  8
View
100
AcDbSpline
210
0
220
0
230
1
 70
8
 71
3
 72
17
 73
13
 74
0
 40
0
 40
0
 40
0
 40
0
 40
0.549779
 40
0.549779
 40
0.549779
 40
1.09956
 40
1.09956
 40
1.09956
 40
1.64934
 40
1.64934
 40
1.64934
 40
2.19911
 40
2.19911
 40
2.19911
 40
2.19911
 10
119.72
 20
139.61
 30
0
 10
119.722
 20
139.446
 30
0
 10
119.654
 20
139.252
 30
0
 10
119.515
 20
139.115
 30
0
 10
119.378
 20
138.976
 30
0
 10
119.184
 20
138.908
 30
0
 10
119.02
 20
138.91
 30
0
 10
118.856
 20
138.908
 30
0
 10
118.662
 20
138.976
 30
0
 10
118.525
 20
139.115
 30
0
 10
118.386
 20
139.252
 30
0
 10
118.318
 20
139.446
 30
0
 10
118.32
 20
139.61
 30
0
  0
SPLINE
  5
A5D
330
A02
100
AcDbEntity
  8
View
100
AcDbSpline
210
0
220
0
230
1
 70
8
 71
3
 72
17
 73
13
 74
0
 40
4.39823
 40
4.39823
 40
4.39823
 40
4.39823
 40
4.71239
 40
4.71239
 40
4.71239
 40
5.02655
 40
5.02655
 40
5.02655
 40
5.34071
 40
5.34071
 40
5.34071
 40
5.65487
 40
5.65487
 40
5.65487
 40
5.65487
 10
119.42
 20
139.61
 30
0
 10
119.421
 20
139.704
 30
0
 10
119.382
 20
139.815
 30
0
 10
119.303
 20
139.893
 30
0
 10
119.225
 20
139.972
 30
0
 10
119.114
 20
140.011
 30
0
 10
119.02
 20
140.01
 30
0
 10
118.926
 20
140.011
 30
0
 10
118.815
 20
139.972
 30
0
 10
118.737
 20
139.893
 30
0
 10
118.658
 20
139.815
 30
0
 10
118.619
 20
139.704
 30
0
 10
118.62
 20
139.61
 30
0
  0
SPLINE
  5
A5E
330
A02
100
AcDbEntity
  8
View
100
AcDbSpline
210
0
220
0
230
1
 70
8
 71
3
 72
17
 73
13
 74
0
 40
2.19911
 40
2.19911
 40
2.19911
 40
2.19911
 40
2.74889
 40
2.74889
 40
2.74889
 40
3.29867
 40
3.29867
 40
3.29867
 40
3.84845
 40
3.84845
 40
3.84845
 40
4.39823
 40
4.39823
 40
4.39823
 40
4.39823
 10
118.32
 20
139.61
 30
0
 10
118.318
 20
139.774
 30
0
 10
118.386
 20
139.968
 30
0
 10
118.525
 20
140.105
 30
0
 10
118.662
 20
140.244
 30
0
 10
118.856
 20
140.312
 30
0
 10
119.02
 20
140.31
 30
0
 10
119.184
 20
140.312
 30
0
 10
119.378
 20
140.244
 30
0
 10
119.515
 20
140.105
 30
0
 10
119.654
 20
139.968
 30
0
 10
119.722
 20
139.774
 30
0
 10
119.72
 20
139.61
 30
0
  0
SPLINE
  5
A5F
330
A02
100
AcDbEntity
  8
View
100
AcDbSpline
210
0
220
0
230
1
 70
8
 71
3
 72
17
 73
13
 74
0
 40
5.65487
 40
5.65487
 40
5.65487
 40
5.65487
 40
5.96903
 40
5.96903
 40
5.96903
 40
6.28319
 40
6.28319
 40
6.28319
 40
6.59734
 40
6.59734
 40
6.59734
 40
6.9115
 40
6.9115
 40
6.9115
 40
6.9115
 10
118.62
 20
139.61
 30
0
 10
118.619
 20
139.516
 30
0
 10
118.658
 20
139.405
 30
0
 10
118.737
 20
139.327
 30
0
 10
118.815
 20
139.248
 30
0
 10
118.926
 20
139.209
 30
0
 10
119.02
 20
139.21
 30
0
 10
119.114
 20
139.209
 30
0
 10
119.225
 20
139.248
 30
0
 10
119.303
 20
139.327
 30
0
 10
119.382
 20
139.405
 30
0
 10
119.421
 20
139.516
 30
0
 10
119.42
 20
139.61
 30
0
  0
SPLINE
  5
A60
330
A02
100
AcDbEntity
  8
View
100
AcDbSpline
210
0
220
0
230
1
 70
8
 71
3
 72
17
 73
13
 74
0
 40
0
 40
0
 40
0
 40
0
 40
0.549779
 40
0.549779
 40
0.549779
 40
1.09956
 40
1.09956
 40
1.09956
 40
1.64934
 40
1.64934
 40
1.64934
 40
2.19911
 40
2.19911
 40
2.19911
 40
2.19911
 10
119.72
 20
142.15
 30
0
 10
119.722
 20
141.986
 30
0
 10
119.654
 20
141.792
 30
0
 10
119.515
 20
141.655
 30
0
 10
119.378
 20
141.516
 30
0
 10
119.184
 20
141.448
 30
0
 10
119.02
 20
141.45
 30
0
 10
118.856
 20
141.448
 30
0
 10
118.662
 20
141.516
 30
0
 10
118.525
 20
141.655
 30
0
 10
118.386
 20
141.792
 30
0
 10
118.318
 20
141.986
 30
0
 10
118.32
 20
142.15
 30
0
  0
SPLINE
  5
A61
330
A02
100
AcDbEntity
  8
View
100
AcDbSpline
210
0
220
0
230
1
 70
8
 71
3
 72
17
 73
13
 74
0
 40
4.39823
 40
4.39823
 40
4.39823
 40
4.39823
 40
4.71239
 40
4.71239
 40
4.71239
 40
5.02655
 40
5.02655
 40
5.02655
 40
5.34071
 40
5.34071
 40
5.34071
 40
5.65487
 40
5.65487
 40
5.65487
 40
5.65487
 10
119.42
 20
142.15
 30
0
 10
119.421
 20
142.244
 30
0
 10
119.382
 20
142.355
 30
0
 10
119.303
 20
142.433
 30
0
 10
119.225
 20
142.512
 30
0
 10
119.114
 20
142.551
 30
0
 10
119.02
 20
142.55
 30
0
 10
118.926
 20
142.551
 30
0
 10
118.815
 20
142.512
 30
0
 10
118.737
 20
142.433
 30
0
 10
118.658
 20
142.355
 30
0
 10
118.619
 20
142.244
 30
0
 10
118.62
 20
142.15
 30
0
  0
SPLINE
  5
A62
330
A02
100
AcDbEntity
  8
View
100
AcDbSpline
210
0
220
0
230
1
 70
8
 71
3
 72
17
 73
13
 74
0
 40
2.19911
 40
2.19911
 40
2.19911
 40
2.19911
 40
2.74889
 40
2.74889
 40
2.74889
 40
3.29867
 40
3.29867
 40
3.29867
 40
3.84845
 40
3.84845
 40
3.84845
 40
4.39823
 40
4.39823
 40
4.39823
 40
4.39823
 10
118.32
 20
142.15
 30
0
 10
118.318
 20
142.314
 30
0
 10
118.386
 20
142.508
 30
0
 10
118.525
 20
142.645
 30
0
 10
118.662
 20
142.784
 30
0
 10
118.856
 20
142.852
 30
0
 10
119.02
 20
142.85
 30
0
 10
119.184
 20
142.852
 30
0
 10
119.378
 20
142.784
 30
0
 10
119.515
 20
142.645
 30
0
 10
119.654
 20
142.508
 30
0
 10
119.722
 20
142.314
 30
0
 10
119.72
 20
142.15
 30
0
  0
SPLINE
  5
A63
330
A02
100
AcDbEntity
  8
View
100
AcDbSpline
210
0
220
0
230
1
 70
8
 71
3
 72
17
 73
13
 74
0
 40
5.65487
 40
5.65487
 40
5.65487
 40
5.65487
 40
5.96903
 40
5.96903
 40
5.96903
 40
6.28319
 40
6.28319
 40
6.28319
 40
6.59734
 40
6.59734
 40
6.59734
 40
6.9115
 40
6.9115
 40
6.9115
 40
6.9115
 10
118.62
 20
142.15
 30
0
 10
118.619
 20
142.056
 30
0
 10
118.658
 20
141.945
 30
0
 10
118.737
 20
141.867
 30
0
 10
118.815
 20
141.788
 30
0
 10
118.926
 20
141.749
 30
0
 10
119.02
 20
141.75
 30
0
 10
119.114
 20
141.749
 30
0
 10
119.225
 20
141.788
 30
0
 10
119.303
 20
141.867
 30
0
 10
119.382
 20
141.945
 30
0
 10
119.421
 20
142.056
 30
0
 10
119.42
 20
142.15
 30
0
  0
SPLINE
  5
A64
330
A02
100
AcDbEntity
  8
View
100
AcDbSpline
210
0
220
0
230
1
 70
8
 71
3
 72
17
 73
13
 74
0
 40
0
 40
0
 40
0
 40
0
 40
0.549779
 40
0.549779
 40
0.549779
 40
1.09956
 40
1.09956
 40
1.09956
 40
1.64934
 40
1.64934
 40
1.64934
 40
2.19911
 40
2.19911
 40
2.19911
 40
2.19911
 10
119.72
 20
144.69
 30
0
 10
119.722
 20
144.526
 30
0
 10
119.654
 20
144.332
 30
0
 10
119.515
 20
144.195
 30
0
 10
119.378
 20
144.056
 30
0
 10
119.184
 20
143.988
 30
0
 10
119.02
 20
143.99
 30
0
 10
118.856
 20
143.988
 30
0
 10
118.662
 20
144.056
 30
0
 10
118.525
 20
144.195
 30
0
 10
118.386
 20
144.332
 30
0
 10
118.318
 20
144.526
 30
0
 10
118.32
 20
144.69
 30
0
  0
SPLINE
  5
A65
330
A02
100
AcDbEntity
  8
View
100
AcDbSpline
210
0
220
0
230
1
 70
8
 71
3
 72
17
 73
13
 74
0
 40
4.39823
 40
4.39823
 40
4.39823
 40
4.39823
 40
4.71239
 40
4.71239
 40
4.71239
 40
5.02655
 40
5.02655
 40
5.02655
 40
5.34071
 40
5.34071
 40
5.34071
 40
5.65487
 40
5.65487
 40
5.65487
 40
5.65487
 10
119.42
 20
144.69
 30
0
 10
119.421
 20
144.784
 30
0
 10
119.382
 20
144.895
 30
0
 10
119.303
 20
144.973
 30
0
 10
119.225
 20
145.052
 30
0
 10
119.114
 20
145.091
 30
0
 10
119.02
 20
145.09
 30
0
 10
118.926
 20
145.091
 30
0
 10
118.815
 20
145.052
 30
0
 10
118.737
 20
144.973
 30
0
 10
118.658
 20
144.895
 30
0
 10
118.619
 20
144.784
 30
0
 10
118.62
 20
144.69
 30
0
  0
SPLINE
  5
A66
330
A02
100
AcDbEntity
  8
View
100
AcDbSpline
210
0
220
0
230
1
 70
8
 71
3
 72
17
 73
13
 74
0
 40
2.19911
 40
2.19911
 40
2.19911
 40
2.19911
 40
2.74889
 40
2.74889
 40
2.74889
 40
3.29867
 40
3.29867
 40
3.29867
 40
3.84845
 40
3.84845
 40
3.84845
 40
4.39823
 40
4.39823
 40
4.39823
 40
4.39823
 10
118.32
 20
144.69
 30
0
 10
118.318
 20
144.854
 30
0
 10
118.386
 20
145.048
 30
0
 10
118.525
 20
145.185
 30
0
 10
118.662
 20
145.324
 30
0
 10
118.856
 20
145.392
 30
0
 10
119.02
 20
145.39
 30
0
 10
119.184
 20
145.392
 30
0
 10
119.378
 20
145.324
 30
0
 10
119.515
 20
145.185
 30
0
 10
119.654
 20
145.048
 30
0
 10
119.722
 20
144.854
 30
0
 10
119.72
 20
144.69
 30
0
  0
SPLINE
  5
A67
330
A02
100
AcDbEntity
  8
View
100
AcDbSpline
210
0
220
0
230
1
 70
8
 71
3
 72
17
 73
13
 74
0
 40
5.65487
 40
5.65487
 40
5.65487
 40
5.65487
 40
5.96903
 40
5.96903
 40
5.96903
 40
6.28319
 40
6.28319
 40
6.28319
 40
6.59734
 40
6.59734
 40
6.59734
 40
6.9115
 40
6.9115
 40
6.9115
 40
6.9115
 10
118.62
 20
144.69
 30
0
 10
118.619
 20
144.596
 30
0
 10
118.658
 20
144.485
 30
0
 10
118.737
 20
144.407
 30
0
 10
118.815
 20
144.328
 30
0
 10
118.926
 20
144.289
 30
0
 10
119.02
 20
144.29
 30
0
 10
119.114
 20
144.289
 30
0
 10
119.225
 20
144.328
 30
0
 10
119.303
 20
144.407
 30
0
 10
119.382
 20
144.485
 30
0
 10
119.421
 20
144.596
 30
0
 10
119.42
 20
144.69
 30
0
  0
SPLINE
  5
A68
330
A02
100
AcDbEntity
  8
View
100
AcDbSpline
210
0
220
0
230
1
 70
8
 71
3
 72
17
 73
13
 74
0
 40
0
 40
0
 40
0
 40
0
 40
0.549779
 40
0.549779
 40
0.549779
 40
1.09956
 40
1.09956
 40
1.09956
 40
1.64934
 40
1.64934
 40
1.64934
 40
2.19911
 40
2.19911
 40
2.19911
 40
2.19911
 10
119.72
 20
147.23
 30
0
 10
119.722
 20
147.066
 30
0
 10
119.654
 20
146.872
 30
0
 10
119.515
 20
146.735
 30
0
 10
119.378
 20
146.596
 30
0
 10
119.184
 20
146.528
 30
0
 10
119.02
 20
146.53
 30
0
 10
118.856
 20
146.528
 30
0
 10
118.662
 20
146.596
 30
0
 10
118.525
 20
146.735
 30
0
 10
118.386
 20
146.872
 30
0
 10
118.318
 20
147.066
 30
0
 10
118.32
 20
147.23
 30
0
  0
SPLINE
  5
A69
330
A02
100
AcDbEntity
  8
View
100
AcDbSpline
210
0
220
0
230
1
 70
8
 71
3
 72
17
 73
13
 74
0
 40
4.39823
 40
4.39823
 40
4.39823
 40
4.39823
 40
4.71239
 40
4.71239
 40
4.71239
 40
5.02655
 40
5.02655
 40
5.02655
 40
5.34071
 40
5.34071
 40
5.34071
 40
5.65487
 40
5.65487
 40
5.65487
 40
5.65487
 10
119.42
 20
147.23
 30
0
 10
119.421
 20
147.324
 30
0
 10
119.382
 20
147.435
 30
0
 10
119.303
 20
147.513
 30
0
 10
119.225
 20
147.592
 30
0
 10
119.114
 20
147.631
 30
0
 10
119.02
 20
147.63
 30
0
 10
118.926
 20
147.631
 30
0
 10
118.815
 20
147.592
 30
0
 10
118.737
 20
147.513
 30
0
 10
118.658
 20
147.435
 30
0
 10
118.619
 20
147.324
 30
0
 10
118.62
 20
147.23
 30
0
  0
SPLINE
  5
A6A
330
A02
100
AcDbEntity
  8
View
100
AcDbSpline
210
0
220
0
230
1
 70
8
 71
3
 72
17
 73
13
 74
0
 40
2.19911
 40
2.19911
 40
2.19911
 40
2.19911
 40
2.74889
 40
2.74889
 40
2.74889
 40
3.29867
 40
3.29867
 40
3.29867
 40
3.84845
 40
3.84845
 40
3.84845
 40
4.39823
 40
4.39823
 40
4.39823
 40
4.39823
 10
118.32
 20
147.23
 30
0
 10
118.318
 20
147.394
 30
0
 10
118.386
 20
147.588
 30
0
 10
118.525
 20
147.725
 30
0
 10
118.662
 20
147.864
 30
0
 10
118.856
 20
147.932
 30
0
 10
119.02
 20
147.93
 30
0
 10
119.184
 20
147.932
 30
0
 10
119.378
 20
147.864
 30
0
 10
119.515
 20
147.725
 30
0
 10
119.654
 20
147.588
 30
0
 10
119.722
 20
147.394
 30
0
 10
119.72
 20
147.23
 30
0
  0
SPLINE
  5
A6B
330
A02
100
AcDbEntity
  8
View
100
AcDbSpline
210
0
220
0
230
1
 70
8
 71
3
 72
17
 73
13
 74
0
 40
5.65487
 40
5.65487
 40
5.65487
 40
5.65487
 40
5.96903
 40
5.96903
 40
5.96903
 40
6.28319
 40
6.28319
 40
6.28319
 40
6.59734
 40
6.59734
 40
6.59734
 40
6.9115
 40
6.9115
 40
6.9115
 40
6.9115
 10
118.62
 20
147.23
 30
0
 10
118.619
 20
147.136
 30
0
 10
118.658
 20
147.025
 30
0
 10
118.737
 20
146.947
 30
0
 10
118.815
 20
146.868
 30
0
 10
118.926
 20
146.829
 30
0
 10
119.02
 20
146.83
 30
0
 10
119.114
 20
146.829
 30
0
 10
119.225
 20
146.868
 30
0
 10
119.303
 20
146.947
 30
0
 10
119.382
 20
147.025
 30
0
 10
119.421
 20
147.136
 30
0
 10
119.42
 20
147.23
 30
0
  0
SPLINE
  5
A6C
330
A02
100
AcDbEntity
  8
View
100
AcDbSpline
210
0
220
0
230
1
 70
8
 71
3
 72
17
 73
13
 74
0
 40
0
 40
0
 40
0
 40
0
 40
0.549779
 40
0.549779
 40
0.549779
 40
1.09956
 40
1.09956
 40
1.09956
 40
1.64934
 40
1.64934
 40
1.64934
 40
2.19911
 40
2.19911
 40
2.19911
 40
2.19911
 10
119.72
 20
159.93
 30
0
 10
119.722
 20
159.766
 30
0
 10
119.654
 20
159.572
 30
0
 10
119.515
 20
159.435
 30
0
 10
119.378
 20
159.296
 30
0
 10
119.184
 20
159.228
 30
0
 10
119.02
 20
159.23
 30
0
 10
118.856
 20
159.228
 30
0
 10
118.662
 20
159.296
 30
0
 10
118.525
 20
159.435
 30
0
 10
118.386
 20
159.572
 30
0
 10
118.318
 20
159.766
 30
0
 10
118.32
 20
159.93
 30
0
  0
SPLINE
  5
A6D
330
A02
100
AcDbEntity
  8
View
100
AcDbSpline
210
0
220
0
230
1
 70
8
 71
3
 72
17
 73
13
 74
0
 40
4.39823
 40
4.39823
 40
4.39823
 40
4.39823
 40
4.71239
 40
4.71239
 40
4.71239
 40
5.02655
 40
5.02655
 40
5.02655
 40
5.34071
 40
5.34071
 40
5.34071
 40
5.65487
 40
5.65487
 40
5.65487
 40
5.65487
 10
119.42
 20
159.93
 30
0
 10
119.421
 20
160.024
 30
0
 10
119.382
 20
160.135
 30
0
 10
119.303
 20
160.213
 30
0
 10
119.225
 20
160.292
 30
0
 10
119.114
 20
160.331
 30
0
 10
119.02
 20
160.33
 30
0
 10
118.926
 20
160.331
 30
0
 10
118.815
 20
160.292
 30
0
 10
118.737
 20
160.213
 30
0
 10
118.658
 20
160.135
 30
0
 10
118.619
 20
160.024
 30
0
 10
118.62
 20
159.93
 30
0
  0
SPLINE
  5
A6E
330
A02
100
AcDbEntity
  8
View
100
AcDbSpline
210
0
220
0
230
1
 70
8
 71
3
 72
17
 73
13
 74
0
 40
2.19911
 40
2.19911
 40
2.19911
 40
2.19911
 40
2.74889
 40
2.74889
 40
2.74889
 40
3.29867
 40
3.29867
 40
3.29867
 40
3.84845
 40
3.84845
 40
3.84845
 40
4.39823
 40
4.39823
 40
4.39823
 40
4.39823
 10
118.32
 20
159.93
 30
0
 10
118.318
 20
160.094
 30
0
 10
118.386
 20
160.288
 30
0
 10
118.525
 20
160.425
 30
0
 10
118.662
 20
160.564
 30
0
 10
118.856
 20
160.632
 30
0
 10
119.02
 20
160.63
 30
0
 10
119.184
 20
160.632
 30
0
 10
119.378
 20
160.564
 30
0
 10
119.515
 20
160.425
 30
0
 10
119.654
 20
160.288
 30
0
 10
119.722
 20
160.094
 30
0
 10
119.72
 20
159.93
 30
0
  0
SPLINE
  5
A6F
330
A02
100
AcDbEntity
  8
View
100
AcDbSpline
210
0
220
0
230
1
 70
8
 71
3
 72
17
 73
13
 74
0
 40
5.65487
 40
5.65487
 40
5.65487
 40
5.65487
 40
5.96903
 40
5.96903
 40
5.96903
 40
6.28319
 40
6.28319
 40
6.28319
 40
6.59734
 40
6.59734
 40
6.59734
 40
6.9115
 40
6.9115
 40
6.9115
 40
6.9115
 10
118.62
 20
159.93
 30
0
 10
118.619
 20
159.836
 30
0
 10
118.658
 20
159.725
 30
0
 10
118.737
 20
159.647
 30
0
 10
118.815
 20
159.568
 30
0
 10
118.926
 20
159.529
 30
0
 10
119.02
 20
159.53
 30
0
 10
119.114
 20
159.529
 30
0
 10
119.225
 20
159.568
 30
0
 10
119.303
 20
159.647
 30
0
 10
119.382
 20
159.725
 30
0
 10
119.421
 20
159.836
 30
0
 10
119.42
 20
159.93
 30
0
  0
SPLINE
  5
A70
330
A02
100
AcDbEntity
  8
View
100
AcDbSpline
210
0
220
0
230
1
 70
8
 71
3
 72
17
 73
13
 74
0
 40
0
 40
0
 40
0
 40
0
 40
0.549779
 40
0.549779
 40
0.549779
 40
1.09956
 40
1.09956
 40
1.09956
 40
1.64934
 40
1.64934
 40
1.64934
 40
2.19911
 40
2.19911
 40
2.19911
 40
2.19911
 10
119.72
 20
157.39
 30
0
 10
119.722
 20
157.226
 30
0
 10
119.654
 20
157.032
 30
0
 10
119.515
 20
156.895
 30
0
 10
119.378
 20
156.756
 30
0
 10
119.184
 20
156.688
 30
0
 10
119.02
 20
156.69
 30
0
 10
118.856
 20
156.688
 30
0
 10
118.662
 20
156.756
 30
0
 10
118.525
 20
156.895
 30
0
 10
118.386
 20
157.032
 30
0
 10
118.318
 20
157.226
 30
0
 10
118.32
 20
157.39
 30
0
  0
SPLINE
  5
A71
330
A02
100
AcDbEntity
  8
View
100
AcDbSpline
210
0
220
0
230
1
 70
8
 71
3
 72
17
 73
13
 74
0
 40
4.39823
 40
4.39823
 40
4.39823
 40
4.39823
 40
4.71239
 40
4.71239
 40
4.71239
 40
5.02655
 40
5.02655
 40
5.02655
 40
5.34071
 40
5.34071
 40
5.34071
 40
5.65487
 40
5.65487
 40
5.65487
 40
5.65487
 10
119.42
 20
157.39
 30
0
 10
119.421
 20
157.484
 30
0
 10
119.382
 20
157.595
 30
0
 10
119.303
 20
157.673
 30
0
 10
119.225
 20
157.752
 30
0
 10
119.114
 20
157.791
 30
0
 10
119.02
 20
157.79
 30
0
 10
118.926
 20
157.791
 30
0
 10
118.815
 20
157.752
 30
0
 10
118.737
 20
157.673
 30
0
 10
118.658
 20
157.595
 30
0
 10
118.619
 20
157.484
 30
0
 10
118.62
 20
157.39
 30
0
  0
SPLINE
  5
A72
330
A02
100
AcDbEntity
  8
View
100
AcDbSpline
210
0
220
0
230
1
 70
8
 71
3
 72
17
 73
13
 74
0
 40
2.19911
 40
2.19911
 40
2.19911
 40
2.19911
 40
2.74889
 40
2.74889
 40
2.74889
 40
3.29867
 40
3.29867
 40
3.29867
 40
3.84845
 40
3.84845
 40
3.84845
 40
4.39823
 40
4.39823
 40
4.39823
 40
4.39823
 10
118.32
 20
157.39
 30
0
 10
118.318
 20
157.554
 30
0
 10
118.386
 20
157.748
 30
0
 10
118.525
 20
157.885
 30
0
 10
118.662
 20
158.024
 30
0
 10
118.856
 20
158.092
 30
0
 10
119.02
 20
158.09
 30
0
 10
119.184
 20
158.092
 30
0
 10
119.378
 20
158.024
 30
0
 10
119.515
 20
157.885
 30
0
 10
119.654
 20
157.748
 30
0
 10
119.722
 20
157.554
 30
0
 10
119.72
 20
157.39
 30
0
  0
SPLINE
  5
A73
330
A02
100
AcDbEntity
  8
View
100
AcDbSpline
210
0
220
0
230
1
 70
8
 71
3
 72
17
 73
13
 74
0
 40
5.65487
 40
5.65487
 40
5.65487
 40
5.65487
 40
5.96903
 40
5.96903
 40
5.96903
 40
6.28319
 40
6.28319
 40
6.28319
 40
6.59734
 40
6.59734
 40
6.59734
 40
6.9115
 40
6.9115
 40
6.9115
 40
6.9115
 10
118.62
 20
157.39
 30
0
 10
118.619
 20
157.296
 30
0
 10
118.658
 20
157.185
 30
0
 10
118.737
 20
157.107
 30
0
 10
118.815
 20
157.028
 30
0
 10
118.926
 20
156.989
 30
0
 10
119.02
 20
156.99
 30
0
 10
119.114
 20
156.989
 30
0
 10
119.225
 20
157.028
 30
0
 10
119.303
 20
157.107
 30
0
 10
119.382
 20
157.185
 30
0
 10
119.421
 20
157.296
 30
0
 10
119.42
 20
157.39
 30
0
  0
SPLINE
  5
A74
330
A02
100
AcDbEntity
  8
View
100
AcDbSpline
210
0
220
0
230
1
 70
8
 71
3
 72
17
 73
13
 74
0
 40
0
 40
0
 40
0
 40
0
 40
0.549779
 40
0.549779
 40
0.549779
 40
1.09956
 40
1.09956
 40
1.09956
 40
1.64934
 40
1.64934
 40
1.64934
 40
2.19911
 40
2.19911
 40
2.19911
 40
2.19911
 10
119.72
 20
154.85
 30
0
 10
119.722
 20
154.686
 30
0
 10
119.654
 20
154.492
 30
0
 10
119.515
 20
154.355
 30
0
 10
119.378
 20
154.216
 30
0
 10
119.184
 20
154.148
 30
0
 10
119.02
 20
154.15
 30
0
 10
118.856
 20
154.148
 30
0
 10
118.662
 20
154.216
 30
0
 10
118.525
 20
154.355
 30
0
 10
118.386
 20
154.492
 30
0
 10
118.318
 20
154.686
 30
0
 10
118.32
 20
154.85
 30
0
  0
SPLINE
  5
A75
330
A02
100
AcDbEntity
  8
View
100
AcDbSpline
210
0
220
0
230
1
 70
8
 71
3
 72
17
 73
13
 74
0
 40
4.39823
 40
4.39823
 40
4.39823
 40
4.39823
 40
4.71239
 40
4.71239
 40
4.71239
 40
5.02655
 40
5.02655
 40
5.02655
 40
5.34071
 40
5.34071
 40
5.34071
 40
5.65487
 40
5.65487
 40
5.65487
 40
5.65487
 10
119.42
 20
154.85
 30
0
 10
119.421
 20
154.944
 30
0
 10
119.382
 20
155.055
 30
0
 10
119.303
 20
155.133
 30
0
 10
119.225
 20
155.212
 30
0
 10
119.114
 20
155.251
 30
0
 10
119.02
 20
155.25
 30
0
 10
118.926
 20
155.251
 30
0
 10
118.815
 20
155.212
 30
0
 10
118.737
 20
155.133
 30
0
 10
118.658
 20
155.055
 30
0
 10
118.619
 20
154.944
 30
0
 10
118.62
 20
154.85
 30
0
  0
SPLINE
  5
A76
330
A02
100
AcDbEntity
  8
View
100
AcDbSpline
210
0
220
0
230
1
 70
8
 71
3
 72
17
 73
13
 74
0
 40
2.19911
 40
2.19911
 40
2.19911
 40
2.19911
 40
2.74889
 40
2.74889
 40
2.74889
 40
3.29867
 40
3.29867
 40
3.29867
 40
3.84845
 40
3.84845
 40
3.84845
 40
4.39823
 40
4.39823
 40
4.39823
 40
4.39823
 10
118.32
 20
154.85
 30
0
 10
118.318
 20
155.014
 30
0
 10
118.386
 20
155.208
 30
0
 10
118.525
 20
155.345
 30
0
 10
118.662
 20
155.484
 30
0
 10
118.856
 20
155.552
 30
0
 10
119.02
 20
155.55
 30
0
 10
119.184
 20
155.552
 30
0
 10
119.378
 20
155.484
 30
0
 10
119.515
 20
155.345
 30
0
 10
119.654
 20
155.208
 30
0
 10
119.722
 20
155.014
 30
0
 10
119.72
 20
154.85
 30
0
  0
SPLINE
  5
A77
330
A02
100
AcDbEntity
  8
View
100
AcDbSpline
210
0
220
0
230
1
 70
8
 71
3
 72
17
 73
13
 74
0
 40
5.65487
 40
5.65487
 40
5.65487
 40
5.65487
 40
5.96903
 40
5.96903
 40
5.96903
 40
6.28319
 40
6.28319
 40
6.28319
 40
6.59734
 40
6.59734
 40
6.59734
 40
6.9115
 40
6.9115
 40
6.9115
 40
6.9115
 10
118.62
 20
154.85
 30
0
 10
118.619
 20
154.756
 30
0
 10
118.658
 20
154.645
 30
0
 10
118.737
 20
154.567
 30
0
 10
118.815
 20
154.488
 30
0
 10
118.926
 20
154.449
 30
0
 10
119.02
 20
154.45
 30
0
 10
119.114
 20
154.449
 30
0
 10
119.225
 20
154.488
 30
0
 10
119.303
 20
154.567
 30
0
 10
119.382
 20
154.645
 30
0
 10
119.421
 20
154.756
 30
0
 10
119.42
 20
154.85
 30
0
  0
SPLINE
  5
A78
330
A02
100
AcDbEntity
  8
View
100
AcDbSpline
210
0
220
0
230
1
 70
8
 71
3
 72
17
 73
13
 74
0
 40
0
 40
0
 40
0
 40
0
 40
0.549779
 40
0.549779
 40
0.549779
 40
1.09956
 40
1.09956
 40
1.09956
 40
1.64934
 40
1.64934
 40
1.64934
 40
2.19911
 40
2.19911
 40
2.19911
 40
2.19911
 10
119.72
 20
152.31
 30
0
 10
119.722
 20
152.146
 30
0
 10
119.654
 20
151.952
 30
0
 10
119.515
 20
151.815
 30
0
 10
119.378
 20
151.676
 30
0
 10
119.184
 20
151.608
 30
0
 10
119.02
 20
151.61
 30
0
 10
118.856
 20
151.608
 30
0
 10
118.662
 20
151.676
 30
0
 10
118.525
 20
151.815
 30
0
 10
118.386
 20
151.952
 30
0
 10
118.318
 20
152.146
 30
0
 10
118.32
 20
152.31
 30
0
  0
SPLINE
  5
A79
330
A02
100
AcDbEntity
  8
View
100
AcDbSpline
210
0
220
0
230
1
 70
8
 71
3
 72
17
 73
13
 74
0
 40
4.39823
 40
4.39823
 40
4.39823
 40
4.39823
 40
4.71239
 40
4.71239
 40
4.71239
 40
5.02655
 40
5.02655
 40
5.02655
 40
5.34071
 40
5.34071
 40
5.34071
 40
5.65487
 40
5.65487
 40
5.65487
 40
5.65487
 10
119.42
 20
152.31
 30
0
 10
119.421
 20
152.404
 30
0
 10
119.382
 20
152.515
 30
0
 10
119.303
 20
152.593
 30
0
 10
119.225
 20
152.672
 30
0
 10
119.114
 20
152.711
 30
0
 10
119.02
 20
152.71
 30
0
 10
118.926
 20
152.711
 30
0
 10
118.815
 20
152.672
 30
0
 10
118.737
 20
152.593
 30
0
 10
118.658
 20
152.515
 30
0
 10
118.619
 20
152.404
 30
0
 10
118.62
 20
152.31
 30
0
  0
SPLINE
  5
A7A
330
A02
100
AcDbEntity
  8
View
100
AcDbSpline
210
0
220
0
230
1
 70
8
 71
3
 72
17
 73
13
 74
0
 40
2.19911
 40
2.19911
 40
2.19911
 40
2.19911
 40
2.74889
 40
2.74889
 40
2.74889
 40
3.29867
 40
3.29867
 40
3.29867
 40
3.84845
 40
3.84845
 40
3.84845
 40
4.39823
 40
4.39823
 40
4.39823
 40
4.39823
 10
118.32
 20
152.31
 30
0
 10
118.318
 20
152.474
 30
0
 10
118.386
 20
152.668
 30
0
 10
118.525
 20
152.805
 30
0
 10
118.662
 20
152.944
 30
0
 10
118.856
 20
153.012
 30
0
 10
119.02
 20
153.01
 30
0
 10
119.184
 20
153.012
 30
0
 10
119.378
 20
152.944
 30
0
 10
119.515
 20
152.805
 30
0
 10
119.654
 20
152.668
 30
0
 10
119.722
 20
152.474
 30
0
 10
119.72
 20
152.31
 30
0
  0
SPLINE
  5
A7B
330
A02
100
AcDbEntity
  8
View
100
AcDbSpline
210
0
220
0
230
1
 70
8
 71
3
 72
17
 73
13
 74
0
 40
5.65487
 40
5.65487
 40
5.65487
 40
5.65487
 40
5.96903
 40
5.96903
 40
5.96903
 40
6.28319
 40
6.28319
 40
6.28319
 40
6.59734
 40
6.59734
 40
6.59734
 40
6.9115
 40
6.9115
 40
6.9115
 40
6.9115
 10
118.62
 20
152.31
 30
0
 10
118.619
 20
152.216
 30
0
 10
118.658
 20
152.105
 30
0
 10
118.737
 20
152.027
 30
0
 10
118.815
 20
151.948
 30
0
 10
118.926
 20
151.909
 30
0
 10
119.02
 20
151.91
 30
0
 10
119.114
 20
151.909
 30
0
 10
119.225
 20
151.948
 30
0
 10
119.303
 20
152.027
 30
0
 10
119.382
 20
152.105
 30
0
 10
119.421
 20
152.216
 30
0
 10
119.42
 20
152.31
 30
0
  0
SPLINE
  5
A7C
330
A02
100
AcDbEntity
  8
View
100
AcDbSpline
210
0
220
0
230
1
 70
8
 71
3
 72
17
 73
13
 74
0
 40
0
 40
0
 40
0
 40
0
 40
0.549779
 40
0.549779
 40
0.549779
 40
1.09956
 40
1.09956
 40
1.09956
 40
1.64934
 40
1.64934
 40
1.64934
 40
2.19911
 40
2.19911
 40
2.19911
 40
2.19911
 10
119.72
 20
149.77
 30
0
 10
119.722
 20
149.606
 30
0
 10
119.654
 20
149.412
 30
0
 10
119.515
 20
149.275
 30
0
 10
119.378
 20
149.136
 30
0
 10
119.184
 20
149.068
 30
0
 10
119.02
 20
149.07
 30
0
 10
118.856
 20
149.068
 30
0
 10
118.662
 20
149.136
 30
0
 10
118.525
 20
149.275
 30
0
 10
118.386
 20
149.412
 30
0
 10
118.318
 20
149.606
 30
0
 10
118.32
 20
149.77
 30
0
  0
SPLINE
  5
A7D
330
A02
100
AcDbEntity
  8
View
100
AcDbSpline
210
0
220
0
230
1
 70
8
 71
3
 72
17
 73
13
 74
0
 40
4.39823
 40
4.39823
 40
4.39823
 40
4.39823
 40
4.71239
 40
4.71239
 40
4.71239
 40
5.02655
 40
5.02655
 40
5.02655
 40
5.34071
 40
5.34071
 40
5.34071
 40
5.65487
 40
5.65487
 40
5.65487
 40
5.65487
 10
119.42
 20
149.77
 30
0
 10
119.421
 20
149.864
 30
0
 10
119.382
 20
149.975
 30
0
 10
119.303
 20
150.053
 30
0
 10
119.225
 20
150.132
 30
0
 10
119.114
 20
150.171
 30
0
 10
119.02
 20
150.17
 30
0
 10
118.926
 20
150.171
 30
0
 10
118.815
 20
150.132
 30
0
 10
118.737
 20
150.053
 30
0
 10
118.658
 20
149.975
 30
0
 10
118.619
 20
149.864
 30
0
 10
118.62
 20
149.77
 30
0
  0
SPLINE
  5
A7E
330
A02
100
AcDbEntity
  8
View
100
AcDbSpline
210
0
220
0
230
1
 70
8
 71
3
 72
17
 73
13
 74
0
 40
2.19911
 40
2.19911
 40
2.19911
 40
2.19911
 40
2.74889
 40
2.74889
 40
2.74889
 40
3.29867
 40
3.29867
 40
3.29867
 40
3.84845
 40
3.84845
 40
3.84845
 40
4.39823
 40
4.39823
 40
4.39823
 40
4.39823
 10
118.32
 20
149.77
 30
0
 10
118.318
 20
149.934
 30
0
 10
118.386
 20
150.128
 30
0
 10
118.525
 20
150.265
 30
0
 10
118.662
 20
150.404
 30
0
 10
118.856
 20
150.472
 30
0
 10
119.02
 20
150.47
 30
0
 10
119.184
 20
150.472
 30
0
 10
119.378
 20
150.404
 30
0
 10
119.515
 20
150.265
 30
0
 10
119.654
 20
150.128
 30
0
 10
119.722
 20
149.934
 30
0
 10
119.72
 20
149.77
 30
0
  0
SPLINE
  5
A7F
330
A02
100
AcDbEntity
  8
View
100
AcDbSpline
210
0
220
0
230
1
 70
8
 71
3
 72
17
 73
13
 74
0
 40
5.65487
 40
5.65487
 40
5.65487
 40
5.65487
 40
5.96903
 40
5.96903
 40
5.96903
 40
6.28319
 40
6.28319
 40
6.28319
 40
6.59734
 40
6.59734
 40
6.59734
 40
6.9115
 40
6.9115
 40
6.9115
 40
6.9115
 10
118.62
 20
149.77
 30
0
 10
118.619
 20
149.676
 30
0
 10
118.658
 20
149.565
 30
0
 10
118.737
 20
149.487
 30
0
 10
118.815
 20
149.408
 30
0
 10
118.926
 20
149.369
 30
0
 10
119.02
 20
149.37
 30
0
 10
119.114
 20
149.369
 30
0
 10
119.225
 20
149.408
 30
0
 10
119.303
 20
149.487
 30
0
 10
119.382
 20
149.565
 30
0
 10
119.421
 20
149.676
 30
0
 10
119.42
 20
149.77
 30
0
  0
SPLINE
  5
A80
330
A02
100
AcDbEntity
  8
View
100
AcDbSpline
210
0
220
0
230
1
 70
8
 71
3
 72
17
 73
13
 74
0
 40
0
 40
0
 40
0
 40
0
 40
0.549779
 40
0.549779
 40
0.549779
 40
1.09956
 40
1.09956
 40
1.09956
 40
1.64934
 40
1.64934
 40
1.64934
 40
2.19911
 40
2.19911
 40
2.19911
 40
2.19911
 10
117.18
 20
149.77
 30
0
 10
117.182
 20
149.606
 30
0
 10
117.114
 20
149.412
 30
0
 10
116.975
 20
149.275
 30
0
 10
116.838
 20
149.136
 30
0
 10
116.644
 20
149.068
 30
0
 10
116.48
 20
149.07
 30
0
 10
116.316
 20
149.068
 30
0
 10
116.122
 20
149.136
 30
0
 10
115.985
 20
149.275
 30
0
 10
115.846
 20
149.412
 30
0
 10
115.778
 20
149.606
 30
0
 10
115.78
 20
149.77
 30
0
  0
SPLINE
  5
A81
330
A02
100
AcDbEntity
  8
View
100
AcDbSpline
210
0
220
0
230
1
 70
8
 71
3
 72
17
 73
13
 74
0
 40
4.39823
 40
4.39823
 40
4.39823
 40
4.39823
 40
4.71239
 40
4.71239
 40
4.71239
 40
5.02655
 40
5.02655
 40
5.02655
 40
5.34071
 40
5.34071
 40
5.34071
 40
5.65487
 40
5.65487
 40
5.65487
 40
5.65487
 10
116.88
 20
149.77
 30
0
 10
116.881
 20
149.864
 30
0
 10
116.842
 20
149.975
 30
0
 10
116.763
 20
150.053
 30
0
 10
116.685
 20
150.132
 30
0
 10
116.574
 20
150.171
 30
0
 10
116.48
 20
150.17
 30
0
 10
116.386
 20
150.171
 30
0
 10
116.275
 20
150.132
 30
0
 10
116.197
 20
150.053
 30
0
 10
116.118
 20
149.975
 30
0
 10
116.079
 20
149.864
 30
0
 10
116.08
 20
149.77
 30
0
  0
SPLINE
  5
A82
330
A02
100
AcDbEntity
  8
View
100
AcDbSpline
210
0
220
0
230
1
 70
8
 71
3
 72
17
 73
13
 74
0
 40
2.19911
 40
2.19911
 40
2.19911
 40
2.19911
 40
2.74889
 40
2.74889
 40
2.74889
 40
3.29867
 40
3.29867
 40
3.29867
 40
3.84845
 40
3.84845
 40
3.84845
 40
4.39823
 40
4.39823
 40
4.39823
 40
4.39823
 10
115.78
 20
149.77
 30
0
 10
115.778
 20
149.934
 30
0
 10
115.846
 20
150.128
 30
0
 10
115.985
 20
150.265
 30
0
 10
116.122
 20
150.404
 30
0
 10
116.316
 20
150.472
 30
0
 10
116.48
 20
150.47
 30
0
 10
116.644
 20
150.472
 30
0
 10
116.838
 20
150.404
 30
0
 10
116.975
 20
150.265
 30
0
 10
117.114
 20
150.128
 30
0
 10
117.182
 20
149.934
 30
0
 10
117.18
 20
149.77
 30
0
  0
SPLINE
  5
A83
330
A02
100
AcDbEntity
  8
View
100
AcDbSpline
210
0
220
0
230
1
 70
8
 71
3
 72
17
 73
13
 74
0
 40
5.65487
 40
5.65487
 40
5.65487
 40
5.65487
 40
5.96903
 40
5.96903
 40
5.96903
 40
6.28319
 40
6.28319
 40
6.28319
 40
6.59734
 40
6.59734
 40
6.59734
 40
6.9115
 40
6.9115
 40
6.9115
 40
6.9115
 10
116.08
 20
149.77
 30
0
 10
116.079
 20
149.676
 30
0
 10
116.118
 20
149.565
 30
0
 10
116.197
 20
149.487
 30
0
 10
116.275
 20
149.408
 30
0
 10
116.386
 20
149.369
 30
0
 10
116.48
 20
149.37
 30
0
 10
116.574
 20
149.369
 30
0
 10
116.685
 20
149.408
 30
0
 10
116.763
 20
149.487
 30
0
 10
116.842
 20
149.565
 30
0
 10
116.881
 20
149.676
 30
0
 10
116.88
 20
149.77
 30
0
  0
SPLINE
  5
A84
330
A02
100
AcDbEntity
  8
View
100
AcDbSpline
210
0
220
0
230
1
 70
8
 71
3
 72
17
 73
13
 74
0
 40
0
 40
0
 40
0
 40
0
 40
0.549779
 40
0.549779
 40
0.549779
 40
1.09956
 40
1.09956
 40
1.09956
 40
1.64934
 40
1.64934
 40
1.64934
 40
2.19911
 40
2.19911
 40
2.19911
 40
2.19911
 10
117.18
 20
152.31
 30
0
 10
117.182
 20
152.146
 30
0
 10
117.114
 20
151.952
 30
0
 10
116.975
 20
151.815
 30
0
 10
116.838
 20
151.676
 30
0
 10
116.644
 20
151.608
 30
0
 10
116.48
 20
151.61
 30
0
 10
116.316
 20
151.608
 30
0
 10
116.122
 20
151.676
 30
0
 10
115.985
 20
151.815
 30
0
 10
115.846
 20
151.952
 30
0
 10
115.778
 20
152.146
 30
0
 10
115.78
 20
152.31
 30
0
  0
SPLINE
  5
A85
330
A02
100
AcDbEntity
  8
View
100
AcDbSpline
210
0
220
0
230
1
 70
8
 71
3
 72
17
 73
13
 74
0
 40
4.39823
 40
4.39823
 40
4.39823
 40
4.39823
 40
4.71239
 40
4.71239
 40
4.71239
 40
5.02655
 40
5.02655
 40
5.02655
 40
5.34071
 40
5.34071
 40
5.34071
 40
5.65487
 40
5.65487
 40
5.65487
 40
5.65487
 10
116.88
 20
152.31
 30
0
 10
116.881
 20
152.404
 30
0
 10
116.842
 20
152.515
 30
0
 10
116.763
 20
152.593
 30
0
 10
116.685
 20
152.672
 30
0
 10
116.574
 20
152.711
 30
0
 10
116.48
 20
152.71
 30
0
 10
116.386
 20
152.711
 30
0
 10
116.275
 20
152.672
 30
0
 10
116.197
 20
152.593
 30
0
 10
116.118
 20
152.515
 30
0
 10
116.079
 20
152.404
 30
0
 10
116.08
 20
152.31
 30
0
  0
SPLINE
  5
A86
330
A02
100
AcDbEntity
  8
View
100
AcDbSpline
210
0
220
0
230
1
 70
8
 71
3
 72
17
 73
13
 74
0
 40
2.19911
 40
2.19911
 40
2.19911
 40
2.19911
 40
2.74889
 40
2.74889
 40
2.74889
 40
3.29867
 40
3.29867
 40
3.29867
 40
3.84845
 40
3.84845
 40
3.84845
 40
4.39823
 40
4.39823
 40
4.39823
 40
4.39823
 10
115.78
 20
152.31
 30
0
 10
115.778
 20
152.474
 30
0
 10
115.846
 20
152.668
 30
0
 10
115.985
 20
152.805
 30
0
 10
116.122
 20
152.944
 30
0
 10
116.316
 20
153.012
 30
0
 10
116.48
 20
153.01
 30
0
 10
116.644
 20
153.012
 30
0
 10
116.838
 20
152.944
 30
0
 10
116.975
 20
152.805
 30
0
 10
117.114
 20
152.668
 30
0
 10
117.182
 20
152.474
 30
0
 10
117.18
 20
152.31
 30
0
  0
SPLINE
  5
A87
330
A02
100
AcDbEntity
  8
View
100
AcDbSpline
210
0
220
0
230
1
 70
8
 71
3
 72
17
 73
13
 74
0
 40
5.65487
 40
5.65487
 40
5.65487
 40
5.65487
 40
5.96903
 40
5.96903
 40
5.96903
 40
6.28319
 40
6.28319
 40
6.28319
 40
6.59734
 40
6.59734
 40
6.59734
 40
6.9115
 40
6.9115
 40
6.9115
 40
6.9115
 10
116.08
 20
152.31
 30
0
 10
116.079
 20
152.216
 30
0
 10
116.118
 20
152.105
 30
0
 10
116.197
 20
152.027
 30
0
 10
116.275
 20
151.948
 30
0
 10
116.386
 20
151.909
 30
0
 10
116.48
 20
151.91
 30
0
 10
116.574
 20
151.909
 30
0
 10
116.685
 20
151.948
 30
0
 10
116.763
 20
152.027
 30
0
 10
116.842
 20
152.105
 30
0
 10
116.881
 20
152.216
 30
0
 10
116.88
 20
152.31
 30
0
  0
SPLINE
  5
A88
330
A02
100
AcDbEntity
  8
View
100
AcDbSpline
210
0
220
0
230
1
 70
8
 71
3
 72
17
 73
13
 74
0
 40
0
 40
0
 40
0
 40
0
 40
0.549779
 40
0.549779
 40
0.549779
 40
1.09956
 40
1.09956
 40
1.09956
 40
1.64934
 40
1.64934
 40
1.64934
 40
2.19911
 40
2.19911
 40
2.19911
 40
2.19911
 10
117.18
 20
154.85
 30
0
 10
117.182
 20
154.686
 30
0
 10
117.114
 20
154.492
 30
0
 10
116.975
 20
154.355
 30
0
 10
116.838
 20
154.216
 30
0
 10
116.644
 20
154.148
 30
0
 10
116.48
 20
154.15
 30
0
 10
116.316
 20
154.148
 30
0
 10
116.122
 20
154.216
 30
0
 10
115.985
 20
154.355
 30
0
 10
115.846
 20
154.492
 30
0
 10
115.778
 20
154.686
 30
0
 10
115.78
 20
154.85
 30
0
  0
SPLINE
  5
A89
330
A02
100
AcDbEntity
  8
View
100
AcDbSpline
210
0
220
0
230
1
 70
8
 71
3
 72
17
 73
13
 74
0
 40
4.39823
 40
4.39823
 40
4.39823
 40
4.39823
 40
4.71239
 40
4.71239
 40
4.71239
 40
5.02655
 40
5.02655
 40
5.02655
 40
5.34071
 40
5.34071
 40
5.34071
 40
5.65487
 40
5.65487
 40
5.65487
 40
5.65487
 10
116.88
 20
154.85
 30
0
 10
116.881
 20
154.944
 30
0
 10
116.842
 20
155.055
 30
0
 10
116.763
 20
155.133
 30
0
 10
116.685
 20
155.212
 30
0
 10
116.574
 20
155.251
 30
0
 10
116.48
 20
155.25
 30
0
 10
116.386
 20
155.251
 30
0
 10
116.275
 20
155.212
 30
0
 10
116.197
 20
155.133
 30
0
 10
116.118
 20
155.055
 30
0
 10
116.079
 20
154.944
 30
0
 10
116.08
 20
154.85
 30
0
  0
SPLINE
  5
A8A
330
A02
100
AcDbEntity
  8
View
100
AcDbSpline
210
0
220
0
230
1
 70
8
 71
3
 72
17
 73
13
 74
0
 40
2.19911
 40
2.19911
 40
2.19911
 40
2.19911
 40
2.74889
 40
2.74889
 40
2.74889
 40
3.29867
 40
3.29867
 40
3.29867
 40
3.84845
 40
3.84845
 40
3.84845
 40
4.39823
 40
4.39823
 40
4.39823
 40
4.39823
 10
115.78
 20
154.85
 30
0
 10
115.778
 20
155.014
 30
0
 10
115.846
 20
155.208
 30
0
 10
115.985
 20
155.345
 30
0
 10
116.122
 20
155.484
 30
0
 10
116.316
 20
155.552
 30
0
 10
116.48
 20
155.55
 30
0
 10
116.644
 20
155.552
 30
0
 10
116.838
 20
155.484
 30
0
 10
116.975
 20
155.345
 30
0
 10
117.114
 20
155.208
 30
0
 10
117.182
 20
155.014
 30
0
 10
117.18
 20
154.85
 30
0
  0
SPLINE
  5
A8B
330
A02
100
AcDbEntity
  8
View
100
AcDbSpline
210
0
220
0
230
1
 70
8
 71
3
 72
17
 73
13
 74
0
 40
5.65487
 40
5.65487
 40
5.65487
 40
5.65487
 40
5.96903
 40
5.96903
 40
5.96903
 40
6.28319
 40
6.28319
 40
6.28319
 40
6.59734
 40
6.59734
 40
6.59734
 40
6.9115
 40
6.9115
 40
6.9115
 40
6.9115
 10
116.08
 20
154.85
 30
0
 10
116.079
 20
154.756
 30
0
 10
116.118
 20
154.645
 30
0
 10
116.197
 20
154.567
 30
0
 10
116.275
 20
154.488
 30
0
 10
116.386
 20
154.449
 30
0
 10
116.48
 20
154.45
 30
0
 10
116.574
 20
154.449
 30
0
 10
116.685
 20
154.488
 30
0
 10
116.763
 20
154.567
 30
0
 10
116.842
 20
154.645
 30
0
 10
116.881
 20
154.756
 30
0
 10
116.88
 20
154.85
 30
0
  0
SPLINE
  5
A8C
330
A02
100
AcDbEntity
  8
View
100
AcDbSpline
210
0
220
0
230
1
 70
8
 71
3
 72
17
 73
13
 74
0
 40
0
 40
0
 40
0
 40
0
 40
0.549779
 40
0.549779
 40
0.549779
 40
1.09956
 40
1.09956
 40
1.09956
 40
1.64934
 40
1.64934
 40
1.64934
 40
2.19911
 40
2.19911
 40
2.19911
 40
2.19911
 10
117.18
 20
157.39
 30
0
 10
117.182
 20
157.226
 30
0
 10
117.114
 20
157.032
 30
0
 10
116.975
 20
156.895
 30
0
 10
116.838
 20
156.756
 30
0
 10
116.644
 20
156.688
 30
0
 10
116.48
 20
156.69
 30
0
 10
116.316
 20
156.688
 30
0
 10
116.122
 20
156.756
 30
0
 10
115.985
 20
156.895
 30
0
 10
115.846
 20
157.032
 30
0
 10
115.778
 20
157.226
 30
0
 10
115.78
 20
157.39
 30
0
  0
SPLINE
  5
A8D
330
A02
100
AcDbEntity
  8
View
100
AcDbSpline
210
0
220
0
230
1
 70
8
 71
3
 72
17
 73
13
 74
0
 40
4.39823
 40
4.39823
 40
4.39823
 40
4.39823
 40
4.71239
 40
4.71239
 40
4.71239
 40
5.02655
 40
5.02655
 40
5.02655
 40
5.34071
 40
5.34071
 40
5.34071
 40
5.65487
 40
5.65487
 40
5.65487
 40
5.65487
 10
116.88
 20
157.39
 30
0
 10
116.881
 20
157.484
 30
0
 10
116.842
 20
157.595
 30
0
 10
116.763
 20
157.673
 30
0
 10
116.685
 20
157.752
 30
0
 10
116.574
 20
157.791
 30
0
 10
116.48
 20
157.79
 30
0
 10
116.386
 20
157.791
 30
0
 10
116.275
 20
157.752
 30
0
 10
116.197
 20
157.673
 30
0
 10
116.118
 20
157.595
 30
0
 10
116.079
 20
157.484
 30
0
 10
116.08
 20
157.39
 30
0
  0
SPLINE
  5
A8E
330
A02
100
AcDbEntity
  8
View
100
AcDbSpline
210
0
220
0
230
1
 70
8
 71
3
 72
17
 73
13
 74
0
 40
2.19911
 40
2.19911
 40
2.19911
 40
2.19911
 40
2.74889
 40
2.74889
 40
2.74889
 40
3.29867
 40
3.29867
 40
3.29867
 40
3.84845
 40
3.84845
 40
3.84845
 40
4.39823
 40
4.39823
 40
4.39823
 40
4.39823
 10
115.78
 20
157.39
 30
0
 10
115.778
 20
157.554
 30
0
 10
115.846
 20
157.748
 30
0
 10
115.985
 20
157.885
 30
0
 10
116.122
 20
158.024
 30
0
 10
116.316
 20
158.092
 30
0
 10
116.48
 20
158.09
 30
0
 10
116.644
 20
158.092
 30
0
 10
116.838
 20
158.024
 30
0
 10
116.975
 20
157.885
 30
0
 10
117.114
 20
157.748
 30
0
 10
117.182
 20
157.554
 30
0
 10
117.18
 20
157.39
 30
0
  0
SPLINE
  5
A8F
330
A02
100
AcDbEntity
  8
View
100
AcDbSpline
210
0
220
0
230
1
 70
8
 71
3
 72
17
 73
13
 74
0
 40
5.65487
 40
5.65487
 40
5.65487
 40
5.65487
 40
5.96903
 40
5.96903
 40
5.96903
 40
6.28319
 40
6.28319
 40
6.28319
 40
6.59734
 40
6.59734
 40
6.59734
 40
6.9115
 40
6.9115
 40
6.9115
 40
6.9115
 10
116.08
 20
157.39
 30
0
 10
116.079
 20
157.296
 30
0
 10
116.118
 20
157.185
 30
0
 10
116.197
 20
157.107
 30
0
 10
116.275
 20
157.028
 30
0
 10
116.386
 20
156.989
 30
0
 10
116.48
 20
156.99
 30
0
 10
116.574
 20
156.989
 30
0
 10
116.685
 20
157.028
 30
0
 10
116.763
 20
157.107
 30
0
 10
116.842
 20
157.185
 30
0
 10
116.881
 20
157.296
 30
0
 10
116.88
 20
157.39
 30
0
  0
SPLINE
  5
A90
330
A02
100
AcDbEntity
  8
View
100
AcDbSpline
210
0
220
0
230
1
 70
8
 71
3
 72
17
 73
13
 74
0
 40
0
 40
0
 40
0
 40
0
 40
0.549779
 40
0.549779
 40
0.549779
 40
1.09956
 40
1.09956
 40
1.09956
 40
1.64934
 40
1.64934
 40
1.64934
 40
2.19911
 40
2.19911
 40
2.19911
 40
2.19911
 10
117.18
 20
159.93
 30
0
 10
117.182
 20
159.766
 30
0
 10
117.114
 20
159.572
 30
0
 10
116.975
 20
159.435
 30
0
 10
116.838
 20
159.296
 30
0
 10
116.644
 20
159.228
 30
0
 10
116.48
 20
159.23
 30
0
 10
116.316
 20
159.228
 30
0
 10
116.122
 20
159.296
 30
0
 10
115.985
 20
159.435
 30
0
 10
115.846
 20
159.572
 30
0
 10
115.778
 20
159.766
 30
0
 10
115.78
 20
159.93
 30
0
  0
SPLINE
  5
A91
330
A02
100
AcDbEntity
  8
View
100
AcDbSpline
210
0
220
0
230
1
 70
8
 71
3
 72
17
 73
13
 74
0
 40
4.39823
 40
4.39823
 40
4.39823
 40
4.39823
 40
4.71239
 40
4.71239
 40
4.71239
 40
5.02655
 40
5.02655
 40
5.02655
 40
5.34071
 40
5.34071
 40
5.34071
 40
5.65487
 40
5.65487
 40
5.65487
 40
5.65487
 10
116.88
 20
159.93
 30
0
 10
116.881
 20
160.024
 30
0
 10
116.842
 20
160.135
 30
0
 10
116.763
 20
160.213
 30
0
 10
116.685
 20
160.292
 30
0
 10
116.574
 20
160.331
 30
0
 10
116.48
 20
160.33
 30
0
 10
116.386
 20
160.331
 30
0
 10
116.275
 20
160.292
 30
0
 10
116.197
 20
160.213
 30
0
 10
116.118
 20
160.135
 30
0
 10
116.079
 20
160.024
 30
0
 10
116.08
 20
159.93
 30
0
  0
SPLINE
  5
A92
330
A02
100
AcDbEntity
  8
View
100
AcDbSpline
210
0
220
0
230
1
 70
8
 71
3
 72
17
 73
13
 74
0
 40
2.19911
 40
2.19911
 40
2.19911
 40
2.19911
 40
2.74889
 40
2.74889
 40
2.74889
 40
3.29867
 40
3.29867
 40
3.29867
 40
3.84845
 40
3.84845
 40
3.84845
 40
4.39823
 40
4.39823
 40
4.39823
 40
4.39823
 10
115.78
 20
159.93
 30
0
 10
115.778
 20
160.094
 30
0
 10
115.846
 20
160.288
 30
0
 10
115.985
 20
160.425
 30
0
 10
116.122
 20
160.564
 30
0
 10
116.316
 20
160.632
 30
0
 10
116.48
 20
160.63
 30
0
 10
116.644
 20
160.632
 30
0
 10
116.838
 20
160.564
 30
0
 10
116.975
 20
160.425
 30
0
 10
117.114
 20
160.288
 30
0
 10
117.182
 20
160.094
 30
0
 10
117.18
 20
159.93
 30
0
  0
SPLINE
  5
A93
330
A02
100
AcDbEntity
  8
View
100
AcDbSpline
210
0
220
0
230
1
 70
8
 71
3
 72
17
 73
13
 74
0
 40
5.65487
 40
5.65487
 40
5.65487
 40
5.65487
 40
5.96903
 40
5.96903
 40
5.96903
 40
6.28319
 40
6.28319
 40
6.28319
 40
6.59734
 40
6.59734
 40
6.59734
 40
6.9115
 40
6.9115
 40
6.9115
 40
6.9115
 10
116.08
 20
159.93
 30
0
 10
116.079
 20
159.836
 30
0
 10
116.118
 20
159.725
 30
0
 10
116.197
 20
159.647
 30
0
 10
116.275
 20
159.568
 30
0
 10
116.386
 20
159.529
 30
0
 10
116.48
 20
159.53
 30
0
 10
116.574
 20
159.529
 30
0
 10
116.685
 20
159.568
 30
0
 10
116.763
 20
159.647
 30
0
 10
116.842
 20
159.725
 30
0
 10
116.881
 20
159.836
 30
0
 10
116.88
 20
159.93
 30
0
  0
SPLINE
  5
A94
330
A02
100
AcDbEntity
  8
View
100
AcDbSpline
210
0
220
0
230
1
 70
8
 71
3
 72
17
 73
13
 74
0
 40
0
 40
0
 40
0
 40
0
 40
0.549779
 40
0.549779
 40
0.549779
 40
1.09956
 40
1.09956
 40
1.09956
 40
1.64934
 40
1.64934
 40
1.64934
 40
2.19911
 40
2.19911
 40
2.19911
 40
2.19911
 10
117.18
 20
147.23
 30
0
 10
117.182
 20
147.066
 30
0
 10
117.114
 20
146.872
 30
0
 10
116.975
 20
146.735
 30
0
 10
116.838
 20
146.596
 30
0
 10
116.644
 20
146.528
 30
0
 10
116.48
 20
146.53
 30
0
 10
116.316
 20
146.528
 30
0
 10
116.122
 20
146.596
 30
0
 10
115.985
 20
146.735
 30
0
 10
115.846
 20
146.872
 30
0
 10
115.778
 20
147.066
 30
0
 10
115.78
 20
147.23
 30
0
  0
SPLINE
  5
A95
330
A02
100
AcDbEntity
  8
View
100
AcDbSpline
210
0
220
0
230
1
 70
8
 71
3
 72
17
 73
13
 74
0
 40
4.39823
 40
4.39823
 40
4.39823
 40
4.39823
 40
4.71239
 40
4.71239
 40
4.71239
 40
5.02655
 40
5.02655
 40
5.02655
 40
5.34071
 40
5.34071
 40
5.34071
 40
5.65487
 40
5.65487
 40
5.65487
 40
5.65487
 10
116.88
 20
147.23
 30
0
 10
116.881
 20
147.324
 30
0
 10
116.842
 20
147.435
 30
0
 10
116.763
 20
147.513
 30
0
 10
116.685
 20
147.592
 30
0
 10
116.574
 20
147.631
 30
0
 10
116.48
 20
147.63
 30
0
 10
116.386
 20
147.631
 30
0
 10
116.275
 20
147.592
 30
0
 10
116.197
 20
147.513
 30
0
 10
116.118
 20
147.435
 30
0
 10
116.079
 20
147.324
 30
0
 10
116.08
 20
147.23
 30
0
  0
SPLINE
  5
A96
330
A02
100
AcDbEntity
  8
View
100
AcDbSpline
210
0
220
0
230
1
 70
8
 71
3
 72
17
 73
13
 74
0
 40
2.19911
 40
2.19911
 40
2.19911
 40
2.19911
 40
2.74889
 40
2.74889
 40
2.74889
 40
3.29867
 40
3.29867
 40
3.29867
 40
3.84845
 40
3.84845
 40
3.84845
 40
4.39823
 40
4.39823
 40
4.39823
 40
4.39823
 10
115.78
 20
147.23
 30
0
 10
115.778
 20
147.394
 30
0
 10
115.846
 20
147.588
 30
0
 10
115.985
 20
147.725
 30
0
 10
116.122
 20
147.864
 30
0
 10
116.316
 20
147.932
 30
0
 10
116.48
 20
147.93
 30
0
 10
116.644
 20
147.932
 30
0
 10
116.838
 20
147.864
 30
0
 10
116.975
 20
147.725
 30
0
 10
117.114
 20
147.588
 30
0
 10
117.182
 20
147.394
 30
0
 10
117.18
 20
147.23
 30
0
  0
SPLINE
  5
A97
330
A02
100
AcDbEntity
  8
View
100
AcDbSpline
210
0
220
0
230
1
 70
8
 71
3
 72
17
 73
13
 74
0
 40
5.65487
 40
5.65487
 40
5.65487
 40
5.65487
 40
5.96903
 40
5.96903
 40
5.96903
 40
6.28319
 40
6.28319
 40
6.28319
 40
6.59734
 40
6.59734
 40
6.59734
 40
6.9115
 40
6.9115
 40
6.9115
 40
6.9115
 10
116.08
 20
147.23
 30
0
 10
116.079
 20
147.136
 30
0
 10
116.118
 20
147.025
 30
0
 10
116.197
 20
146.947
 30
0
 10
116.275
 20
146.868
 30
0
 10
116.386
 20
146.829
 30
0
 10
116.48
 20
146.83
 30
0
 10
116.574
 20
146.829
 30
0
 10
116.685
 20
146.868
 30
0
 10
116.763
 20
146.947
 30
0
 10
116.842
 20
147.025
 30
0
 10
116.881
 20
147.136
 30
0
 10
116.88
 20
147.23
 30
0
  0
SPLINE
  5
A98
330
A02
100
AcDbEntity
  8
View
100
AcDbSpline
210
0
220
0
230
1
 70
8
 71
3
 72
17
 73
13
 74
0
 40
0
 40
0
 40
0
 40
0
 40
0.549779
 40
0.549779
 40
0.549779
 40
1.09956
 40
1.09956
 40
1.09956
 40
1.64934
 40
1.64934
 40
1.64934
 40
2.19911
 40
2.19911
 40
2.19911
 40
2.19911
 10
117.18
 20
144.69
 30
0
 10
117.182
 20
144.526
 30
0
 10
117.114
 20
144.332
 30
0
 10
116.975
 20
144.195
 30
0
 10
116.838
 20
144.056
 30
0
 10
116.644
 20
143.988
 30
0
 10
116.48
 20
143.99
 30
0
 10
116.316
 20
143.988
 30
0
 10
116.122
 20
144.056
 30
0
 10
115.985
 20
144.195
 30
0
 10
115.846
 20
144.332
 30
0
 10
115.778
 20
144.526
 30
0
 10
115.78
 20
144.69
 30
0
  0
SPLINE
  5
A99
330
A02
100
AcDbEntity
  8
View
100
AcDbSpline
210
0
220
0
230
1
 70
8
 71
3
 72
17
 73
13
 74
0
 40
4.39823
 40
4.39823
 40
4.39823
 40
4.39823
 40
4.71239
 40
4.71239
 40
4.71239
 40
5.02655
 40
5.02655
 40
5.02655
 40
5.34071
 40
5.34071
 40
5.34071
 40
5.65487
 40
5.65487
 40
5.65487
 40
5.65487
 10
116.88
 20
144.69
 30
0
 10
116.881
 20
144.784
 30
0
 10
116.842
 20
144.895
 30
0
 10
116.763
 20
144.973
 30
0
 10
116.685
 20
145.052
 30
0
 10
116.574
 20
145.091
 30
0
 10
116.48
 20
145.09
 30
0
 10
116.386
 20
145.091
 30
0
 10
116.275
 20
145.052
 30
0
 10
116.197
 20
144.973
 30
0
 10
116.118
 20
144.895
 30
0
 10
116.079
 20
144.784
 30
0
 10
116.08
 20
144.69
 30
0
  0
SPLINE
  5
A9A
330
A02
100
AcDbEntity
  8
View
100
AcDbSpline
210
0
220
0
230
1
 70
8
 71
3
 72
17
 73
13
 74
0
 40
2.19911
 40
2.19911
 40
2.19911
 40
2.19911
 40
2.74889
 40
2.74889
 40
2.74889
 40
3.29867
 40
3.29867
 40
3.29867
 40
3.84845
 40
3.84845
 40
3.84845
 40
4.39823
 40
4.39823
 40
4.39823
 40
4.39823
 10
115.78
 20
144.69
 30
0
 10
115.778
 20
144.854
 30
0
 10
115.846
 20
145.048
 30
0
 10
115.985
 20
145.185
 30
0
 10
116.122
 20
145.324
 30
0
 10
116.316
 20
145.392
 30
0
 10
116.48
 20
145.39
 30
0
 10
116.644
 20
145.392
 30
0
 10
116.838
 20
145.324
 30
0
 10
116.975
 20
145.185
 30
0
 10
117.114
 20
145.048
 30
0
 10
117.182
 20
144.854
 30
0
 10
117.18
 20
144.69
 30
0
  0
SPLINE
  5
A9B
330
A02
100
AcDbEntity
  8
View
100
AcDbSpline
210
0
220
0
230
1
 70
8
 71
3
 72
17
 73
13
 74
0
 40
5.65487
 40
5.65487
 40
5.65487
 40
5.65487
 40
5.96903
 40
5.96903
 40
5.96903
 40
6.28319
 40
6.28319
 40
6.28319
 40
6.59734
 40
6.59734
 40
6.59734
 40
6.9115
 40
6.9115
 40
6.9115
 40
6.9115
 10
116.08
 20
144.69
 30
0
 10
116.079
 20
144.596
 30
0
 10
116.118
 20
144.485
 30
0
 10
116.197
 20
144.407
 30
0
 10
116.275
 20
144.328
 30
0
 10
116.386
 20
144.289
 30
0
 10
116.48
 20
144.29
 30
0
 10
116.574
 20
144.289
 30
0
 10
116.685
 20
144.328
 30
0
 10
116.763
 20
144.407
 30
0
 10
116.842
 20
144.485
 30
0
 10
116.881
 20
144.596
 30
0
 10
116.88
 20
144.69
 30
0
  0
SPLINE
  5
A9C
330
A02
100
AcDbEntity
  8
View
100
AcDbSpline
210
0
220
0
230
1
 70
8
 71
3
 72
17
 73
13
 74
0
 40
0
 40
0
 40
0
 40
0
 40
0.549779
 40
0.549779
 40
0.549779
 40
1.09956
 40
1.09956
 40
1.09956
 40
1.64934
 40
1.64934
 40
1.64934
 40
2.19911
 40
2.19911
 40
2.19911
 40
2.19911
 10
117.18
 20
142.15
 30
0
 10
117.182
 20
141.986
 30
0
 10
117.114
 20
141.792
 30
0
 10
116.975
 20
141.655
 30
0
 10
116.838
 20
141.516
 30
0
 10
116.644
 20
141.448
 30
0
 10
116.48
 20
141.45
 30
0
 10
116.316
 20
141.448
 30
0
 10
116.122
 20
141.516
 30
0
 10
115.985
 20
141.655
 30
0
 10
115.846
 20
141.792
 30
0
 10
115.778
 20
141.986
 30
0
 10
115.78
 20
142.15
 30
0
  0
SPLINE
  5
A9D
330
A02
100
AcDbEntity
  8
View
100
AcDbSpline
210
0
220
0
230
1
 70
8
 71
3
 72
17
 73
13
 74
0
 40
4.39823
 40
4.39823
 40
4.39823
 40
4.39823
 40
4.71239
 40
4.71239
 40
4.71239
 40
5.02655
 40
5.02655
 40
5.02655
 40
5.34071
 40
5.34071
 40
5.34071
 40
5.65487
 40
5.65487
 40
5.65487
 40
5.65487
 10
116.88
 20
142.15
 30
0
 10
116.881
 20
142.244
 30
0
 10
116.842
 20
142.355
 30
0
 10
116.763
 20
142.433
 30
0
 10
116.685
 20
142.512
 30
0
 10
116.574
 20
142.551
 30
0
 10
116.48
 20
142.55
 30
0
 10
116.386
 20
142.551
 30
0
 10
116.275
 20
142.512
 30
0
 10
116.197
 20
142.433
 30
0
 10
116.118
 20
142.355
 30
0
 10
116.079
 20
142.244
 30
0
 10
116.08
 20
142.15
 30
0
  0
SPLINE
  5
A9E
330
A02
100
AcDbEntity
  8
View
100
AcDbSpline
210
0
220
0
230
1
 70
8
 71
3
 72
17
 73
13
 74
0
 40
2.19911
 40
2.19911
 40
2.19911
 40
2.19911
 40
2.74889
 40
2.74889
 40
2.74889
 40
3.29867
 40
3.29867
 40
3.29867
 40
3.84845
 40
3.84845
 40
3.84845
 40
4.39823
 40
4.39823
 40
4.39823
 40
4.39823
 10
115.78
 20
142.15
 30
0
 10
115.778
 20
142.314
 30
0
 10
115.846
 20
142.508
 30
0
 10
115.985
 20
142.645
 30
0
 10
116.122
 20
142.784
 30
0
 10
116.316
 20
142.852
 30
0
 10
116.48
 20
142.85
 30
0
 10
116.644
 20
142.852
 30
0
 10
116.838
 20
142.784
 30
0
 10
116.975
 20
142.645
 30
0
 10
117.114
 20
142.508
 30
0
 10
117.182
 20
142.314
 30
0
 10
117.18
 20
142.15
 30
0
  0
SPLINE
  5
A9F
330
A02
100
AcDbEntity
  8
View
100
AcDbSpline
210
0
220
0
230
1
 70
8
 71
3
 72
17
 73
13
 74
0
 40
5.65487
 40
5.65487
 40
5.65487
 40
5.65487
 40
5.96903
 40
5.96903
 40
5.96903
 40
6.28319
 40
6.28319
 40
6.28319
 40
6.59734
 40
6.59734
 40
6.59734
 40
6.9115
 40
6.9115
 40
6.9115
 40
6.9115
 10
116.08
 20
142.15
 30
0
 10
116.079
 20
142.056
 30
0
 10
116.118
 20
141.945
 30
0
 10
116.197
 20
141.867
 30
0
 10
116.275
 20
141.788
 30
0
 10
116.386
 20
141.749
 30
0
 10
116.48
 20
141.75
 30
0
 10
116.574
 20
141.749
 30
0
 10
116.685
 20
141.788
 30
0
 10
116.763
 20
141.867
 30
0
 10
116.842
 20
141.945
 30
0
 10
116.881
 20
142.056
 30
0
 10
116.88
 20
142.15
 30
0
  0
SPLINE
  5
AA0
330
A02
100
AcDbEntity
  8
View
100
AcDbSpline
210
0
220
0
230
1
 70
8
 71
3
 72
17
 73
13
 74
0
 40
0
 40
0
 40
0
 40
0
 40
0.549779
 40
0.549779
 40
0.549779
 40
1.09956
 40
1.09956
 40
1.09956
 40
1.64934
 40
1.64934
 40
1.64934
 40
2.19911
 40
2.19911
 40
2.19911
 40
2.19911
 10
117.18
 20
139.61
 30
0
 10
117.182
 20
139.446
 30
0
 10
117.114
 20
139.252
 30
0
 10
116.975
 20
139.115
 30
0
 10
116.838
 20
138.976
 30
0
 10
116.644
 20
138.908
 30
0
 10
116.48
 20
138.91
 30
0
 10
116.316
 20
138.908
 30
0
 10
116.122
 20
138.976
 30
0
 10
115.985
 20
139.115
 30
0
 10
115.846
 20
139.252
 30
0
 10
115.778
 20
139.446
 30
0
 10
115.78
 20
139.61
 30
0
  0
SPLINE
  5
AA1
330
A02
100
AcDbEntity
  8
View
100
AcDbSpline
210
0
220
0
230
1
 70
8
 71
3
 72
17
 73
13
 74
0
 40
4.39823
 40
4.39823
 40
4.39823
 40
4.39823
 40
4.71239
 40
4.71239
 40
4.71239
 40
5.02655
 40
5.02655
 40
5.02655
 40
5.34071
 40
5.34071
 40
5.34071
 40
5.65487
 40
5.65487
 40
5.65487
 40
5.65487
 10
116.88
 20
139.61
 30
0
 10
116.881
 20
139.704
 30
0
 10
116.842
 20
139.815
 30
0
 10
116.763
 20
139.893
 30
0
 10
116.685
 20
139.972
 30
0
 10
116.574
 20
140.011
 30
0
 10
116.48
 20
140.01
 30
0
 10
116.386
 20
140.011
 30
0
 10
116.275
 20
139.972
 30
0
 10
116.197
 20
139.893
 30
0
 10
116.118
 20
139.815
 30
0
 10
116.079
 20
139.704
 30
0
 10
116.08
 20
139.61
 30
0
  0
SPLINE
  5
AA2
330
A02
100
AcDbEntity
  8
View
100
AcDbSpline
210
0
220
0
230
1
 70
8
 71
3
 72
17
 73
13
 74
0
 40
2.19911
 40
2.19911
 40
2.19911
 40
2.19911
 40
2.74889
 40
2.74889
 40
2.74889
 40
3.29867
 40
3.29867
 40
3.29867
 40
3.84845
 40
3.84845
 40
3.84845
 40
4.39823
 40
4.39823
 40
4.39823
 40
4.39823
 10
115.78
 20
139.61
 30
0
 10
115.778
 20
139.774
 30
0
 10
115.846
 20
139.968
 30
0
 10
115.985
 20
140.105
 30
0
 10
116.122
 20
140.244
 30
0
 10
116.316
 20
140.312
 30
0
 10
116.48
 20
140.31
 30
0
 10
116.644
 20
140.312
 30
0
 10
116.838
 20
140.244
 30
0
 10
116.975
 20
140.105
 30
0
 10
117.114
 20
139.968
 30
0
 10
117.182
 20
139.774
 30
0
 10
117.18
 20
139.61
 30
0
  0
SPLINE
  5
AA3
330
A02
100
AcDbEntity
  8
View
100
AcDbSpline
210
0
220
0
230
1
 70
8
 71
3
 72
17
 73
13
 74
0
 40
5.65487
 40
5.65487
 40
5.65487
 40
5.65487
 40
5.96903
 40
5.96903
 40
5.96903
 40
6.28319
 40
6.28319
 40
6.28319
 40
6.59734
 40
6.59734
 40
6.59734
 40
6.9115
 40
6.9115
 40
6.9115
 40
6.9115
 10
116.08
 20
139.61
 30
0
 10
116.079
 20
139.516
 30
0
 10
116.118
 20
139.405
 30
0
 10
116.197
 20
139.327
 30
0
 10
116.275
 20
139.248
 30
0
 10
116.386
 20
139.209
 30
0
 10
116.48
 20
139.21
 30
0
 10
116.574
 20
139.209
 30
0
 10
116.685
 20
139.248
 30
0
 10
116.763
 20
139.327
 30
0
 10
116.842
 20
139.405
 30
0
 10
116.881
 20
139.516
 30
0
 10
116.88
 20
139.61
 30
0
  0
SPLINE
  5
AA4
330
A02
100
AcDbEntity
  8
View
100
AcDbSpline
210
0
220
0
230
1
 70
8
 71
3
 72
17
 73
13
 74
0
 40
0
 40
0
 40
0
 40
0
 40
0.549779
 40
0.549779
 40
0.549779
 40
1.09956
 40
1.09956
 40
1.09956
 40
1.64934
 40
1.64934
 40
1.64934
 40
2.19911
 40
2.19911
 40
2.19911
 40
2.19911
 10
117.18
 20
137.07
 30
0
 10
117.182
 20
136.906
 30
0
 10
117.114
 20
136.712
 30
0
 10
116.975
 20
136.575
 30
0
 10
116.838
 20
136.436
 30
0
 10
116.644
 20
136.368
 30
0
 10
116.48
 20
136.37
 30
0
 10
116.316
 20
136.368
 30
0
 10
116.122
 20
136.436
 30
0
 10
115.985
 20
136.575
 30
0
 10
115.846
 20
136.712
 30
0
 10
115.778
 20
136.906
 30
0
 10
115.78
 20
137.07
 30
0
  0
SPLINE
  5
AA5
330
A02
100
AcDbEntity
  8
View
100
AcDbSpline
210
0
220
0
230
1
 70
8
 71
3
 72
17
 73
13
 74
0
 40
4.39823
 40
4.39823
 40
4.39823
 40
4.39823
 40
4.71239
 40
4.71239
 40
4.71239
 40
5.02655
 40
5.02655
 40
5.02655
 40
5.34071
 40
5.34071
 40
5.34071
 40
5.65487
 40
5.65487
 40
5.65487
 40
5.65487
 10
116.88
 20
137.07
 30
0
 10
116.881
 20
137.164
 30
0
 10
116.842
 20
137.275
 30
0
 10
116.763
 20
137.353
 30
0
 10
116.685
 20
137.432
 30
0
 10
116.574
 20
137.471
 30
0
 10
116.48
 20
137.47
 30
0
 10
116.386
 20
137.471
 30
0
 10
116.275
 20
137.432
 30
0
 10
116.197
 20
137.353
 30
0
 10
116.118
 20
137.275
 30
0
 10
116.079
 20
137.164
 30
0
 10
116.08
 20
137.07
 30
0
  0
SPLINE
  5
AA6
330
A02
100
AcDbEntity
  8
View
100
AcDbSpline
210
0
220
0
230
1
 70
8
 71
3
 72
17
 73
13
 74
0
 40
2.19911
 40
2.19911
 40
2.19911
 40
2.19911
 40
2.74889
 40
2.74889
 40
2.74889
 40
3.29867
 40
3.29867
 40
3.29867
 40
3.84845
 40
3.84845
 40
3.84845
 40
4.39823
 40
4.39823
 40
4.39823
 40
4.39823
 10
115.78
 20
137.07
 30
0
 10
115.778
 20
137.234
 30
0
 10
115.846
 20
137.428
 30
0
 10
115.985
 20
137.565
 30
0
 10
116.122
 20
137.704
 30
0
 10
116.316
 20
137.772
 30
0
 10
116.48
 20
137.77
 30
0
 10
116.644
 20
137.772
 30
0
 10
116.838
 20
137.704
 30
0
 10
116.975
 20
137.565
 30
0
 10
117.114
 20
137.428
 30
0
 10
117.182
 20
137.234
 30
0
 10
117.18
 20
137.07
 30
0
  0
SPLINE
  5
AA7
330
A02
100
AcDbEntity
  8
View
100
AcDbSpline
210
0
220
0
230
1
 70
8
 71
3
 72
17
 73
13
 74
0
 40
5.65487
 40
5.65487
 40
5.65487
 40
5.65487
 40
5.96903
 40
5.96903
 40
5.96903
 40
6.28319
 40
6.28319
 40
6.28319
 40
6.59734
 40
6.59734
 40
6.59734
 40
6.9115
 40
6.9115
 40
6.9115
 40
6.9115
 10
116.08
 20
137.07
 30
0
 10
116.079
 20
136.976
 30
0
 10
116.118
 20
136.865
 30
0
 10
116.197
 20
136.787
 30
0
 10
116.275
 20
136.708
 30
0
 10
116.386
 20
136.669
 30
0
 10
116.48
 20
136.67
 30
0
 10
116.574
 20
136.669
 30
0
 10
116.685
 20
136.708
 30
0
 10
116.763
 20
136.787
 30
0
 10
116.842
 20
136.865
 30
0
 10
116.881
 20
136.976
 30
0
 10
116.88
 20
137.07
 30
0
  0
ENDSEC
  0
SECTION
  2
OBJECTS
  0
DICTIONARY
  5
F000
330
0
100
AcDbDictionary
  3
ACAD_GROUP
350
F001
  0
DICTIONARY
  5
F001
330
F000
100
AcDbDictionary
  0
ENDSEC
  0
EOF