<?xml version="1.0" encoding="UTF-8" standalone="no"?>
<svg width="180mm" height="180mm" viewBox="0 0 180 180" version="1.1" id="svg8" inkscape:version="1.1 (c4e8f9ed74, 2021-05-24)" sodipodi:docname="antwurf4o.svg" inkscape:export-filename="/home/ep/private/labor/210607-labortage-2021-logo/antwurf3o.png" inkscape:export-xdpi="120" inkscape:export-ydpi="120" xmlns:inkscape="http://www.inkscape.org/namespaces/inkscape" xmlns:sodipodi="http://sodipodi.sourceforge.net/DTD/sodipodi-0.dtd" xmlns="http://www.w3.org/2000/svg" xmlns:svg="http://www.w3.org/2000/svg" xmlns:rdf="http://www.w3.org/1999/02/22-rdf-syntax-ns#" xmlns:cc="http://creativecommons.org/ns#" xmlns:dc="http://purl.org/dc/elements/1.1/">
  <defs id="defs2"/>
  <sodipodi:namedview id="base" pagecolor="#ffffff" bordercolor="#666666" borderopacity="1.0" inkscape:pageopacity="0.0" inkscape:pageshadow="2" inkscape:zoom="0.98179026" inkscape:cx="337.13922" inkscape:cy="346.30614" inkscape:document-units="mm" inkscape:current-layer="layer3" inkscape:document-rotation="0" showgrid="false" inkscape:snap-global="true" inkscape:window-width="1920" inkscape:window-height="1029" inkscape:window-x="0" inkscape:window-y="27" inkscape:window-maximized="1" inkscape:pagecheckerboard="0" fit-margin-top="0" fit-margin-left="0" fit-margin-right="0" fit-margin-bottom="0"/>
  <metadata id="metadata5">
    <rdf:RDF>
      <cc:Work rdf:about="">
        <dc:format>image/svg+xml</dc:format>
        <dc:type rdf:resource="http://purl.org/dc/dcmitype/StillImage"/>
      </cc:Work>
    </rdf:RDF>
  </metadata>
  <g inkscape:groupmode="layer" id="layer3" inkscape:label="Strokes" style="display:inline" transform="translate(-10.752082,-13.855704)">
    <rect style="display:inline;opacity:1;fill:#000000;fill-opacity:1;stroke:none;stroke-width:1.87115" id="rect954-0" width="180" height="180" x="10.752082" y="13.855704" inkscape:export-xdpi="120" inkscape:export-ydpi="120"/>
    <g id="g4564" transform="translate(0.43745212,-1.6361837)">
      <g id="g4006">
        <path style="display:inline;fill:#000000;stroke:none;stroke-width:0.264583px;stroke-linecap:butt;stroke-linejoin:miter;stroke-opacity:1" d="m 32.900064,80.842865 c 0.40171,0.509402 0.146287,1.210227 1.205182,1.528191 3.251345,0.524978 4.153239,-0.905981 4.69105,-2.640042 z" id="path2839" sodipodi:nodetypes="cccc"/>
        <path style="display:inline;fill:#000000;stroke:#ffffff;stroke-width:0.264583px;stroke-linecap:butt;stroke-linejoin:miter;stroke-opacity:1" d="m 33.264524,81.989172 c -3.259943,-3.398027 1.191258,-7.161166 4.619762,-6.999353 2.263081,0.106809 5.470577,1.171118 5.919434,3.526753 0.425936,2.235344 -4.457026,4.723098 -5.683731,1.580075" id="path851" sodipodi:nodetypes="cssc"/>
        <path style="display:inline;fill:#000000;stroke:#ffffff;stroke-width:0.264583px;stroke-linecap:butt;stroke-linejoin:miter;stroke-opacity:1" d="m 36.235759,82.288186 c -2.28862,-0.06841 -1.922525,-0.285055 -2.620245,-0.643518 -0.316962,-0.162843 -1.252333,-1.642018 0.912929,0.07358 0.700416,0.55496 2.028273,-0.215707 2.031806,-0.214525" id="path853" sodipodi:nodetypes="cssc"/>
        <path style="display:inline;fill:#ffffff;stroke:#000000;stroke-width:0.264583px;stroke-linecap:butt;stroke-linejoin:miter;stroke-opacity:1" d="m 36.572044,75.879049 c 2.063878,2.379435 0.461188,2.791715 0.03596,2.753804 -0.615352,-0.05486 -0.632617,-1.000303 -0.48179,-1.581306" id="path855" sodipodi:nodetypes="csc"/>
        <path style="display:inline;fill:#ffffff;stroke:#000000;stroke-width:0.264583px;stroke-linecap:butt;stroke-linejoin:miter;stroke-opacity:1" d="m 39.397715,76.506238 c 1.834574,1.113163 0.375387,2.398458 -0.06193,2.256 -0.237002,-0.0772 -1.083548,-1.59647 0.126346,-2.357274" id="path857" sodipodi:nodetypes="csc"/>
        <path style="display:inline;fill:#000000;stroke:#ffffff;stroke-width:0.264583px;stroke-linecap:butt;stroke-linejoin:miter;stroke-opacity:1" d="m 37.55894,82.259526 c 6.549156,6.139872 4.179785,15.152894 -2.542977,15.643291 -3.800922,0.277262 -1.723894,-8.608145 1.630932,-13.589013 v 0" id="path859" sodipodi:nodetypes="cscc"/>
        <path style="display:inline;fill:#000000;stroke:#ffffff;stroke-width:0.264583px;stroke-linecap:butt;stroke-linejoin:miter;stroke-opacity:1" d="m 56.544461,72.143808 c -2.82903,-1.291069 -2.021396,-3.226978 -0.278167,-1.839514 0.739531,0.601867 0.315611,1.804655 0.315611,1.804655" id="path865" sodipodi:nodetypes="ccc"/>
        <path style="display:inline;fill:#1a1a1a;stroke:#ffffff;stroke-width:0.264583px;stroke-linecap:butt;stroke-linejoin:miter;stroke-opacity:1" d="m 61.342153,78.07231 c -1.473593,0.618527 1.659763,3.238554 1.378394,1.516943 -0.155209,-0.850516 -1.426442,-1.463391 -1.426442,-1.463391" id="path867" sodipodi:nodetypes="ccc"/>
        <path style="display:inline;fill:none;stroke:#ffffff;stroke-width:0.795;stroke-linecap:butt;stroke-linejoin:miter;stroke-miterlimit:4;stroke-dasharray:none;stroke-opacity:1" d="m 24.027388,73.683962 c 6.808867,-6.346227 11.757134,1.054066 11.757134,1.054066" id="path847-0"/>
        <path style="display:inline;fill:none;stroke:#ffffff;stroke-width:0.795;stroke-linecap:butt;stroke-linejoin:miter;stroke-miterlimit:4;stroke-dasharray:none;stroke-opacity:1" d="m 31.440035,68.155655 c 13.994545,-0.188124 7.619579,6.21071 7.619579,6.21071" id="path849-7"/>
        <path style="display:inline;fill:none;stroke:#ffffff;stroke-width:0.795;stroke-linecap:butt;stroke-linejoin:miter;stroke-miterlimit:4;stroke-dasharray:none;stroke-opacity:1" d="M 40.738517,84.337511 C 49.153444,79.276029 56.376906,72.258773 56.376906,72.258773" id="path861-0" sodipodi:nodetypes="cc"/>
        <path style="display:inline;fill:none;stroke:#ffffff;stroke-width:0.795;stroke-linecap:butt;stroke-linejoin:miter;stroke-miterlimit:4;stroke-dasharray:none;stroke-opacity:1" d="M 41.087129,86.945278 C 55.616475,80.294063 60.741605,78.817001 60.741605,78.817001" id="path863-1" sodipodi:nodetypes="cc"/>
        <path style="display:inline;fill:none;stroke:#ffffff;stroke-width:0.795;stroke-linecap:butt;stroke-linejoin:miter;stroke-miterlimit:4;stroke-dasharray:none;stroke-opacity:1" d="m 40.876232,95.100251 c 0,0 3.388983,2.39661 4.062802,3.4466 1.371274,2.136799 1.594056,3.566369 1.594056,3.566369 l -2.756403,4.70004 c 0,0 2.233985,-1.77461 4.073889,-0.53549" id="path869-0" sodipodi:nodetypes="csccc"/>
        <path style="display:inline;fill:none;stroke:#ffffff;stroke-width:0.795;stroke-linecap:butt;stroke-linejoin:miter;stroke-miterlimit:4;stroke-dasharray:none;stroke-opacity:1" d="m 33.465359,97.823301 c -3.395006,6.546109 -6.962539,10.040409 -6.962539,10.040409 0,0 3.050107,-0.66148 3.620274,0.0392" id="path871-1" sodipodi:nodetypes="ccc"/>
        <path style="fill:none;stroke:#000000;stroke-width:0.264583px;stroke-linecap:butt;stroke-linejoin:miter;stroke-opacity:1" d="m 24.027391,73.683962 c 6.808867,-6.346227 11.757134,1.054066 11.757134,1.054066" id="path847"/>
        <path style="fill:none;stroke:#000000;stroke-width:0.264583px;stroke-linecap:butt;stroke-linejoin:miter;stroke-opacity:1" d="m 31.440038,68.155655 c 13.994545,-0.188124 7.619579,6.21071 7.619579,6.21071" id="path849"/>
        <path style="fill:none;stroke:#000000;stroke-width:0.264583px;stroke-linecap:butt;stroke-linejoin:miter;stroke-opacity:1" d="M 40.73852,84.337511 C 49.153447,79.276029 56.376906,72.258773 56.376906,72.258773" id="path861" sodipodi:nodetypes="cc"/>
        <path style="fill:none;stroke:#000000;stroke-width:0.264583px;stroke-linecap:butt;stroke-linejoin:miter;stroke-opacity:1" d="M 41.087132,86.945278 C 55.616483,80.294063 60.741604,78.817001 60.741604,78.817001" id="path863" sodipodi:nodetypes="cc"/>
        <path style="fill:none;stroke:#000000;stroke-width:0.264583px;stroke-linecap:butt;stroke-linejoin:miter;stroke-opacity:1" d="m 40.876235,95.100245 c 0,0 3.388983,2.396619 4.062802,3.446605 1.371274,2.1368 1.594056,3.56637 1.594056,3.56637 l -2.756403,4.70004 c 0,0 2.233985,-1.77461 4.073889,-0.53549" id="path869" sodipodi:nodetypes="csccc"/>
        <path style="fill:none;stroke:#000000;stroke-width:0.264583px;stroke-linecap:butt;stroke-linejoin:miter;stroke-opacity:1" d="m 33.465362,97.823299 c -3.395006,6.546111 -6.962539,10.040411 -6.962539,10.040411 0,0 3.050107,-0.66148 3.620274,0.0392" id="path871" sodipodi:nodetypes="ccc"/>
      </g>
      <g id="g4103">
        <path style="display:inline;fill:#000000;stroke:#ffffff;stroke-width:0.264583px;stroke-linecap:butt;stroke-linejoin:miter;stroke-opacity:1" d="m 85.723884,77.085609 c 1.133179,-6.131219 5.025622,-0.37356 -0.451607,-0.207886" id="path915" sodipodi:nodetypes="cc"/>
        <path style="display:inline;fill:#000000;stroke:#ffffff;stroke-width:0.264583px;stroke-linecap:butt;stroke-linejoin:miter;stroke-opacity:1" d="m 80.775689,79.680887 c -4.214162,0.802664 -1.300676,3.953707 0.01177,-0.154945" id="path917" sodipodi:nodetypes="cc"/>
        <path style="display:inline;fill:#000000;stroke:#ffffff;stroke-width:0.264583px;stroke-linecap:butt;stroke-linejoin:miter;stroke-opacity:1" d="m 101.20181,86.134764 c -0.26417,4.904812 -2.009049,8.859463 -5.093826,5.535729 -2.95365,-3.201017 -1.980654,-6.354593 1.698535,-9.078417 2.501361,-2.122489 7.094521,-1.400285 9.602631,2.155297 -0.0887,4.671233 -3.48015,3.837329 -6.3567,3.481931" id="path919" sodipodi:nodetypes="ccccc"/>
        <path style="display:inline;fill:#ffffff;stroke:#000000;stroke-width:0.264583px;stroke-linecap:butt;stroke-linejoin:miter;stroke-opacity:1" d="m 96.487606,85.098055 c -0.944687,1.785973 -0.06932,3.193811 1.109966,0.660092 0.307185,-0.842256 -0.06119,-0.951084 -0.376705,-0.649521" id="path921" sodipodi:nodetypes="ccc"/>
        <path style="display:inline;fill:#ffffff;stroke:#000000;stroke-width:0.264583px;stroke-linecap:butt;stroke-linejoin:miter;stroke-opacity:1" d="m 98.653448,84.944079 c -1.216203,3.025944 2.843232,-0.335426 0.617516,-0.708703" id="path923" sodipodi:nodetypes="cc"/>
        <path style="display:inline;fill:#000000;stroke:#ffffff;stroke-width:0.264583px;stroke-linecap:butt;stroke-linejoin:miter;stroke-opacity:1" d="m 101.4286,90.999528 c 0.85524,5.684713 1.97964,11.317502 6.42472,16.309722 2.49703,-0.26326 4.66861,-0.9329 5.23649,-3.60507 0.69886,-2.86356 -5.44704,-13.604343 -11.08615,-14.203939" id="path925" sodipodi:nodetypes="cccc"/>
        <path style="display:inline;fill:none;stroke:#ffffff;stroke-width:0.795;stroke-linecap:butt;stroke-linejoin:miter;stroke-miterlimit:4;stroke-dasharray:none;stroke-opacity:1" d="m 80.719898,79.988529 c 3.83354,8.907907 11.303327,16.164192 21.535562,15.830782" id="path907-3" sodipodi:nodetypes="cc"/>
        <path style="display:inline;fill:none;stroke:#ffffff;stroke-width:0.795;stroke-linecap:butt;stroke-linejoin:miter;stroke-miterlimit:4;stroke-dasharray:none;stroke-opacity:1" d="m 85.54483,77.100442 c 3.7541,2.631787 7.424555,5.780671 9.554825,8.278156" id="path909-7" sodipodi:nodetypes="cc"/>
        <path style="display:inline;fill:none;stroke:#ffffff;stroke-width:0.795;stroke-linecap:butt;stroke-linejoin:miter;stroke-miterlimit:4;stroke-dasharray:none;stroke-opacity:1" d="m 92.299895,79.235095 c 2.01146,0.78955 3.84707,1.761569 5.21386,3.220112" id="path911-7" sodipodi:nodetypes="cc"/>
        <path style="display:inline;fill:none;stroke:#ffffff;stroke-width:0.795;stroke-linecap:butt;stroke-linejoin:miter;stroke-miterlimit:4;stroke-dasharray:none;stroke-opacity:1" d="m 97.956965,82.358244 c 0.57496,-3.583289 2.084675,-6.524797 5.620065,-7.500209" id="path913-2" sodipodi:nodetypes="cc"/>
        <path style="display:inline;fill:none;stroke:#ffffff;stroke-width:0.795;stroke-linecap:butt;stroke-linejoin:miter;stroke-miterlimit:4;stroke-dasharray:none;stroke-opacity:1" d="m 108.29716,107.67892 c -1.14293,1.90314 -2.3706,3.79552 -3.15411,5.74427 0.93142,1.31853 1.86283,2.83192 2.79425,4.55084 -0.99015,0.20457 -1.98029,0.86891 -2.97044,1.59461" id="path927-6" sodipodi:nodetypes="cccc"/>
        <path style="display:inline;fill:none;stroke:#ffffff;stroke-width:0.795;stroke-linecap:butt;stroke-linejoin:miter;stroke-miterlimit:4;stroke-dasharray:none;stroke-opacity:1" d="m 113.36266,104.26469 c 3.5363,3.34437 6.22344,7.03143 8.53372,10.87056 l -2.04061,3.4849" id="path929-4" sodipodi:nodetypes="ccc"/>
        <path style="fill:none;stroke:#000000;stroke-width:0.264583px;stroke-linecap:butt;stroke-linejoin:miter;stroke-opacity:1" d="m 80.719898,79.988529 c 3.833546,8.907904 11.303329,16.16419 21.535562,15.830782" id="path907" sodipodi:nodetypes="cc"/>
        <path style="fill:none;stroke:#000000;stroke-width:0.264583px;stroke-linecap:butt;stroke-linejoin:miter;stroke-opacity:1" d="m 85.54483,77.100442 c 3.754095,2.631787 7.424561,5.780671 9.554825,8.278156" id="path909" sodipodi:nodetypes="cc"/>
        <path style="fill:none;stroke:#000000;stroke-width:0.264583px;stroke-linecap:butt;stroke-linejoin:miter;stroke-opacity:1" d="m 92.2999,79.235095 c 2.011454,0.78955 3.847073,1.761569 5.213863,3.220112" id="path911" sodipodi:nodetypes="cc"/>
        <path style="fill:none;stroke:#000000;stroke-width:0.264583px;stroke-linecap:butt;stroke-linejoin:miter;stroke-opacity:1" d="m 97.956966,82.358244 c 0.574966,-3.583289 2.084674,-6.524797 5.620064,-7.500209" id="path913" sodipodi:nodetypes="cc"/>
        <path style="fill:none;stroke:#000000;stroke-width:0.264583px;stroke-linecap:butt;stroke-linejoin:miter;stroke-opacity:1" d="m 108.29716,107.67892 c -1.14293,1.90314 -2.3706,3.79552 -3.15411,5.74427 0.93142,1.31853 1.86283,2.83192 2.79425,4.55084 -0.99015,0.20457 -1.98029,0.86891 -2.97044,1.59461" id="path927" sodipodi:nodetypes="cccc"/>
        <path style="fill:none;stroke:#000000;stroke-width:0.264583px;stroke-linecap:butt;stroke-linejoin:miter;stroke-opacity:1" d="m 113.36266,104.26469 c 3.5363,3.34437 6.22344,7.03143 8.53372,10.87056 l -2.04061,3.4849" id="path929" sodipodi:nodetypes="ccc"/>
      </g>
      <g id="g4822">
        <path style="display:inline;fill:none;stroke:#ffffff;stroke-width:0.795;stroke-linecap:butt;stroke-linejoin:miter;stroke-miterlimit:4;stroke-dasharray:none;stroke-opacity:1" d="m 117.98934,65.399242 c -1.78672,2.106857 -1.6669,1.978345 -3.85012,3.238" id="path1337" sodipodi:nodetypes="cc"/>
        <path id="path890" style="display:inline;fill:#000000;stroke:#ffffff;stroke-width:0.264583px;stroke-linecap:butt;stroke-linejoin:miter;stroke-opacity:1" d="m 119.69834,62.162161 c -1.96234,-0.02821 -2.09607,-4.290562 -3.16281,-2.092181 -2.90995,1.052054 -6.22822,0.654964 -5.39082,-2.317977 0.38261,-2.177298 0.11466,-2.104003 -1.26744,-2.40606 -2.72968,-1.398044 -1.96864,-2.166565 -2.40988,-4.765804 -0.75962,-3.561154 0.63612,-2.486021 0.13971,-6.120684 -0.55363,-4.218739 2.52379,-2.089693 2.68498,-8.017156 3.74929,0.268191 3.18072,-5.383103 6.93235,-4.66811 2.56542,1.062566 7.61232,3.300932 8.30454,-0.435413 1.47943,-3.117723 4.30316,1.379345 8.23821,1.878461 3.70016,0.43537 5.21306,-1.996465 8.78313,-1.061439 3.26273,1.964896 6.57143,3.603028 8.19272,0.77857 1.67605,-2.227197 4.83955,1.155212 8.18057,1.937564 2.13958,2.344175 1.08674,4.908042 5.42084,4.119868 2.7107,0.169001 4.74729,-1.968152 4.39892,2.581286 -0.4428,4.932654 1.68126,3.199659 4.72306,4.143716 3.36287,1.812254 2.97665,2.584377 3.27214,5.815049 -1.3247,3.834093 -2.59701,-0.132591 -2.28672,3.471297 0.82082,3.020906 1.26596,3.775248 -3.03932,3.761567 -4.76829,5.023828 -2.95465,-0.338958 -8.91033,4.152703 -6.22554,-2.012936 -7.05008,-0.532485 -12.26693,0.944714 -3.44309,-0.640471 -2.36934,-3.061908 -5.33029,-2.035606 -2.97387,0.707276 -1.95765,3.640884 -4.47702,1.705848 -2.51937,-1.935036 -2.88545,-1.902251 -6.10705,-2.061681 -3.18254,1.213175 -3.75763,1.945081 -6.59636,1.885104 l -4.20564,-2.18485 z" sodipodi:nodetypes="cccccccccccccccccccccczcccc"/>
        <g aria-label="    Wat denn, funktioniert doch!" id="text886" style="font-size:8.46667px;line-height:1.25;font-family:'Happy Lucky';-inkscape-font-specification:'Happy Lucky';display:inline;fill:#ffffff;stroke-width:0.264583">
          <path d="m 126.68455,44.794803 q -0.12815,0 -0.32659,-0.06201 -0.19844,-0.06201 -0.29766,-0.318327 -0.13642,-0.405144 -0.339,-1.351856 -0.19843,-0.946713 -0.38033,-2.013315 -0.1819,-1.070736 -0.26045,-1.839682 v -0.03307 q 0,-0.276985 0.2191,-0.409277 0.17777,-0.107487 0.37208,-0.107487 0.062,0 0.22737,0.02894 0.1695,0.02894 0.26872,0.285254 0.0951,0.314193 0.31833,1.65778 0.12402,0.756544 0.23978,1.364259 0.11575,0.603581 0.18603,0.603581 0.0496,0 0.14056,-0.334864 0.0951,-0.338997 0.20257,-0.777214 0.13229,-0.537435 0.24391,-0.909505 0.0992,-0.285254 0.34314,-0.392741 0.14056,-0.06201 0.28525,-0.06201 0.10749,0 0.28525,0.05788 0.17777,0.05374 0.30593,0.326595 0.16536,0.396875 0.44648,1.455209 0.0951,0.359668 0.16123,0.595312 0.0703,0.235645 0.10336,0.235645 0.0909,-0.08268 0.50023,-2.133204 0.21084,-1.083138 0.35553,-1.682585 0.0744,-0.243913 0.30179,-0.243913 0.10749,0 0.19844,0.07028 0.10748,0.07441 0.10748,0.223242 0,0.02894 -0.40927,2.683042 -0.33073,2.145606 -0.48369,2.575554 -0.20258,0.496094 -0.71107,0.496094 -0.5085,0 -0.71934,-0.429948 -0.12402,-0.330729 -0.24391,-0.938444 -0.0909,-0.429949 -0.18604,-0.756544 -0.0909,-0.330729 -0.19017,-0.347265 -0.19843,0.05788 -0.49196,1.434538 -0.0951,0.44235 -0.16536,0.677995 -0.0951,0.243913 -0.3514,0.330729 -0.12816,0.04134 -0.25632,0.04134 z" id="path26386"/>
          <path d="m 133.64641,44.914693 q -0.28112,0 -0.47543,-0.214974 -0.0992,-0.14056 -0.10748,-0.500228 -0.0786,0.157096 -0.12403,0.223242 -0.24805,0.376204 -0.79788,0.376204 h -0.0248 q -0.49196,-0.03307 -0.80202,-0.347265 -0.31005,-0.314193 -0.43408,-0.756544 -0.12402,-0.44235 -0.12402,-0.872298 0,-0.628386 0.22737,-1.198894 0.18604,-0.475423 0.52504,-0.777214 0.339,-0.305924 0.81855,-0.305924 0.26045,0 0.43408,0.09508 0.17364,0.09508 0.27286,0.227377 0.10335,0.132292 0.14056,0.252181 0.004,-0.157096 0.0455,-0.334863 0.10335,-0.285255 0.56224,-0.285255 0.14883,0 0.29352,0.04961 0.25218,0.09095 0.27699,0.347266 0.004,0.219108 0.004,0.504362 0,1.008724 -0.0248,2.00918 -0.0165,0.669727 -0.0372,1.004591 -0.0207,0.248047 -0.21911,0.376204 -0.19843,0.128158 -0.42994,0.128158 z m -1.28985,-0.63252 q 0.20257,0 0.36794,-0.227376 0.1695,-0.231511 0.28525,-0.587045 0.11989,-0.359668 0.1571,-0.665593 0.0413,-0.310058 0.0413,-0.516764 0,-0.599447 -0.19844,-0.921908 -0.14469,-0.227376 -0.41341,-0.227376 -0.26458,0 -0.43822,0.322461 -0.16949,0.318327 -0.23977,0.735872 -0.0661,0.417546 -0.0661,0.785482 0,0.595313 0.14883,0.979786 0.12402,0.322461 0.35553,0.322461 z" id="path26388"/>
          <path d="m 135.54397,44.840279 q -0.19431,0 -0.43409,-0.136426 -0.23564,-0.14056 -0.31832,-0.417546 -0.0413,-0.198438 -0.0661,-0.859896 -0.0331,-0.91364 -0.0331,-2.033985 0,-0.529167 0.004,-1.012859 h -0.0827 q -0.11989,0 -0.20257,-0.0083 -0.18604,-0.04134 -0.18604,-0.297656 0,-0.05788 0.0248,-0.148829 0.0207,-0.09508 0.14469,-0.140559 0.17363,-0.05374 0.31833,-0.07442 0.0124,-0.256315 0.0248,-0.405143 0.0248,-0.177767 0.19017,-0.268718 0.1695,-0.09508 0.38448,-0.09508 0.21084,0.0041 0.37207,0.111621 0.16123,0.103353 0.16123,0.322461 v 0.227376 q 0.2191,-0.0124 0.26458,-0.0124 0.23978,0.0124 0.27285,0.330729 l 0.004,0.06615 q 0,0.26045 -0.21911,0.285254 -0.0703,0.0124 -0.3142,0.02481 l 0.0414,4.191994 q -0.0165,0.3514 -0.3514,0.3514 z" id="path26390"/>
          <path d="m 141.71207,44.819608 q -0.14883,0 -0.37621,-0.06615 -0.22324,-0.06615 -0.27698,-0.293522 -0.0124,-0.09095 -0.0124,-0.173633 0,-0.06615 0.008,-0.124023 v -0.03721 q -0.10335,0.248047 -0.339,0.450618 -0.23151,0.198438 -0.61598,0.214974 -0.57464,-0.0124 -0.90124,-0.434082 -0.45475,-0.587044 -0.45475,-1.579232 0,-0.367937 0.10335,-0.868165 0.10336,-0.504362 0.44235,-0.93431 0.34314,-0.429948 0.88057,-0.454753 0.23151,0 0.39274,0.05374 0.16123,0.04961 0.26459,0.128157 0.10335,0.07441 0.16123,0.152963 0.0579,0.07855 0.0785,0.132291 l 0.0207,0.05374 q 0,-0.186035 0.008,-0.595313 0.0124,-0.409277 0.0331,-0.839225 0.0207,-0.434083 0.0537,-0.68213 0.0662,-0.322461 0.54984,-0.322461 0.1695,0 0.39274,0.07855 0.22324,0.07442 0.26458,0.310059 0.0331,0.372071 0.0331,2.670639 0,2.294435 -0.0413,2.707846 -0.0786,0.450619 -0.66972,0.450619 z m -1.30638,-0.855762 q 0.23564,0 0.38447,-0.206706 0.15296,-0.206706 0.22324,-0.516764 0.0703,-0.314193 0.0703,-0.653191 v -0.206706 q 0,-0.190169 -0.0703,-0.508496 -0.0703,-0.318327 -0.20257,-0.525033 -0.13229,-0.206705 -0.31833,-0.206705 -0.25631,0 -0.40101,0.285254 -0.22324,0.438216 -0.22324,1.141016 0,0.202571 0.0289,0.51263 0.0331,0.305925 0.16536,0.595313 0.1323,0.289388 0.34314,0.289388 z" id="path26392"/>
          <path d="m 144.18013,44.798937 q -0.43821,0 -0.74,-0.23151 -0.30179,-0.235645 -0.46716,-0.620117 -0.21911,-0.496094 -0.21911,-1.141017 0,-0.305924 0.0661,-0.686263 0.0703,-0.380339 0.26872,-0.760677 0.20257,-0.384473 0.51263,-0.615984 0.31419,-0.235644 0.73587,-0.235644 0.35967,0 0.60358,0.214974 0.24391,0.214974 0.37207,0.549837 0.13229,0.359668 0.13229,0.764812 0,0.347266 -0.10335,0.669727 -0.10335,0.322461 -0.33486,0.537435 -0.22738,0.214974 -0.57464,0.214974 -0.22325,0 -0.3514,-0.06615 -0.12816,-0.07028 -0.19017,-0.148828 -0.0579,-0.08268 -0.0786,-0.136426 0.0331,0.694531 0.3514,0.868164 0.0909,0.04961 0.19017,0.04961 0.24804,0 0.54983,-0.310059 0.11163,-0.111621 0.21084,-0.111621 0.0248,0 0.0992,0.02067 0.0744,0.02067 0.1323,0.152963 0.0289,0.06615 0.0289,0.136426 0,0.219108 -0.24804,0.479557 -0.38448,0.405143 -0.94672,0.405143 z m -0.0785,-2.182813 q 0.21084,0 0.35966,-0.334863 0.15297,-0.334864 0.15297,-0.715202 0,-0.128158 -0.0331,-0.28112 -0.0331,-0.152963 -0.16536,-0.152963 -0.13229,0 -0.23978,0.161231 -0.10335,0.157096 -0.1819,0.388607 -0.0744,0.227376 -0.11162,0.450619 -0.0372,0.202571 -0.0372,0.338997 v 0.02481 q 0.14056,0.119889 0.25632,0.119889 z" id="path26394"/>
          <path d="m 148.64084,44.836145 q -0.52503,0 -0.5705,-0.512631 -0.0124,-0.343132 -0.0124,-0.677995 l 0.0165,-1.161687 q 0,-0.268717 -0.0124,-0.603581 -0.0124,-0.338997 -0.11576,-0.611849 -0.0992,-0.272851 -0.35967,-0.272851 -0.21497,0 -0.35966,0.165364 -0.1447,0.161231 -0.21911,0.413412 -0.0703,0.248047 -0.0744,0.496094 l -0.0661,2.426726 q -0.0248,0.202572 -0.28526,0.285254 -0.12815,0.04134 -0.26044,0.04134 -0.1323,0 -0.33073,-0.06201 -0.19431,-0.06201 -0.20258,-0.359668 -0.0124,-1.37666 -0.0124,-2.224154 0,-0.930176 0.0165,-1.289844 0.0372,-0.297657 0.32246,-0.388607 0.13229,-0.04548 0.26458,-0.04548 0.54571,0 0.54984,0.429948 0.17363,-0.206705 0.47129,-0.326595 0.29766,-0.119889 0.53743,-0.119889 0.51677,0 0.78549,0.30179 0.27285,0.297657 0.37207,0.839226 0.0868,0.479557 0.0868,1.120345 0,0.7028 -0.0744,1.790073 -0.0331,0.243913 -0.27699,0.318327 -0.0951,0.02894 -0.19017,0.02894 z" id="path26396"/>
          <path d="m 152.37809,44.836145 q -0.52503,0 -0.57051,-0.512631 -0.0124,-0.343132 -0.0124,-0.677995 l 0.0165,-1.161687 q 0,-0.268717 -0.0124,-0.603581 -0.0124,-0.338997 -0.11575,-0.611849 -0.0992,-0.272851 -0.35967,-0.272851 -0.21498,0 -0.35967,0.165364 -0.14469,0.161231 -0.21911,0.413412 -0.0703,0.248047 -0.0744,0.496094 l -0.0662,2.426726 q -0.0248,0.202572 -0.28525,0.285254 -0.12816,0.04134 -0.26045,0.04134 -0.13229,0 -0.33073,-0.06201 -0.1943,-0.06201 -0.20257,-0.359668 -0.0124,-1.37666 -0.0124,-2.224154 0,-0.930176 0.0165,-1.289844 0.0372,-0.297657 0.32246,-0.388607 0.13229,-0.04548 0.26459,-0.04548 0.5457,0 0.54983,0.429948 0.17364,-0.206705 0.47129,-0.326595 0.29766,-0.119889 0.53744,-0.119889 0.51676,0 0.78548,0.30179 0.27285,0.297657 0.37207,0.839226 0.0868,0.479557 0.0868,1.120345 0,0.7028 -0.0744,1.790073 -0.0331,0.243913 -0.27698,0.318327 -0.0951,0.02894 -0.19017,0.02894 z" id="path26398"/>
          <path d="m 153.57698,45.299166 q -0.0537,0 -0.10335,-0.02067 -0.18604,-0.05374 -0.18604,-0.198438 0,-0.05374 0.0413,-0.115755 0.0951,-0.148828 0.0951,-0.248047 0,-0.09922 -0.0744,-0.206706 -0.0992,-0.148828 -0.0992,-0.28112 0,-0.06614 0.0165,-0.144694 0.10749,-0.330729 0.28526,-0.351399 0.17776,-0.02067 0.21084,-0.02067 0.27285,0 0.44235,0.239779 0.0951,0.198437 0.0951,0.396875 0,0.190169 -0.0868,0.380339 -0.17363,0.392741 -0.51263,0.545703 -0.062,0.02481 -0.12402,0.02481 z" id="path26400"/>
          <path d="m 116.13016,55.419482 q -0.17364,0 -0.39275,-0.103353 -0.21497,-0.107487 -0.24391,-0.405143 -0.0248,-0.574642 -0.062,-1.153419 -0.062,-1.00459 -0.0744,-1.909961 -0.11989,-0.0041 -0.20258,-0.01654 -0.11989,-0.03307 -0.17776,-0.202572 -0.0331,-0.103352 -0.0331,-0.206705 0,-0.06201 0.0248,-0.177767 0.0248,-0.115756 0.17363,-0.14056 l 0.23565,-0.01654 q 0.0455,-0.839225 0.30179,-1.347722 0.26045,-0.508496 0.84336,-0.533301 0.5333,0.01654 0.77308,0.33073 0.25218,0.334863 0.25218,0.673861 0,0.181901 -0.0868,0.30179 -0.10749,0.144694 -0.24391,0.144694 -0.0868,0 -0.1447,-0.08268 -0.0331,-0.05374 -0.0785,-0.157097 -0.17777,-0.401009 -0.29766,-0.401009 -0.0207,0 -0.0372,0.0083 -0.14056,0.11989 -0.14056,1.000457 0.20671,-0.0083 0.35967,-0.0083 0.15296,0 0.25218,0.0083 0.30593,0.04134 0.30593,0.343131 0,0.301791 -0.28112,0.380339 -0.22738,0.04961 -0.62839,0.07855 0.0248,0.872299 0.0662,1.715658 0.0496,0.880567 0.0496,1.289845 l -0.004,0.152962 q -0.0537,0.434082 -0.50849,0.434082 z" id="path26402"/>
          <path d="m 118.71811,55.42775 q -0.54984,-0.03721 -0.77721,-0.587044 -0.22738,-0.553972 -0.26045,-1.343588 -0.0207,-0.475423 -0.0207,-0.93431 0,-0.310059 0.008,-0.611849 0.008,-0.301791 0.008,-0.56224 0.0248,-0.243913 0.32247,-0.310059 0.10335,-0.02481 0.2067,-0.02481 0.19431,0 0.44235,0.103353 0.24805,0.103353 0.28526,0.42168 0.004,0.181901 0.004,0.376205 0,0.343131 -0.0165,0.727604 -0.0165,0.380339 -0.0165,0.7028 0,0.214974 0.0124,0.545703 0.0165,0.33073 0.1819,0.367937 0.27699,-0.0083 0.58291,-1.215431 0.22324,-0.868164 0.3266,-1.599903 0.0537,-0.243912 0.34313,-0.326595 0.13642,-0.04134 0.27285,-0.04134 0.14883,0 0.35967,0.07441 0.21084,0.07028 0.22737,0.363802 -0.004,0.206706 -0.004,0.727605 l 0.004,0.673861 q 0,1.28571 -0.0372,2.087729 -0.0455,0.351399 -0.48369,0.351399 -0.55398,0 -0.7028,-0.479557 -0.0414,-0.214974 -0.0414,-0.909506 0,-0.152962 0.004,-0.276985 -0.062,0.281119 -0.20671,0.677995 -0.14469,0.396875 -0.39687,0.702799 -0.24805,0.305925 -0.62839,0.318327 z" id="path26404"/>
          <path d="m 124.40666,55.419482 q -0.52504,0 -0.57051,-0.51263 -0.0124,-0.343132 -0.0124,-0.677995 l 0.0165,-1.161687 q 0,-0.268718 -0.0124,-0.603581 -0.0124,-0.338998 -0.11576,-0.611849 -0.0992,-0.272852 -0.35966,-0.272852 -0.21498,0 -0.35967,0.165365 -0.1447,0.16123 -0.21911,0.413411 -0.0703,0.248047 -0.0744,0.496094 l -0.0661,2.426727 q -0.0248,0.202571 -0.28525,0.285254 -0.12816,0.04134 -0.26045,0.04134 -0.13229,0 -0.33073,-0.06201 -0.19431,-0.06201 -0.20257,-0.359668 -0.0124,-1.376661 -0.0124,-2.224155 0,-0.930176 0.0165,-1.289844 0.0372,-0.297656 0.32246,-0.388607 0.13229,-0.04548 0.26458,-0.04548 0.54571,0 0.54984,0.429948 0.17364,-0.206706 0.47129,-0.326595 0.29766,-0.11989 0.53744,-0.11989 0.51676,0 0.78548,0.301791 0.27285,0.297656 0.37207,0.839225 0.0868,0.479558 0.0868,1.120346 0,0.7028 -0.0744,1.790072 -0.0331,0.243913 -0.27698,0.318327 -0.0951,0.02894 -0.19017,0.02894 z" id="path26406"/>
          <path d="m 127.63953,55.469091 q -0.0413,0 -0.20257,-0.0124 -0.16123,-0.0124 -0.29352,-0.181901 -0.14469,-0.243913 -0.34726,-0.917774 -0.21084,-0.694531 -0.33487,-0.84336 v 0.21084 q 0,0.909506 -0.0289,1.289845 -0.0372,0.268717 -0.30179,0.376204 -0.14883,0.06615 -0.30179,0.06615 -0.11162,0 -0.30179,-0.06201 -0.18603,-0.06201 -0.22737,-0.37207 -0.0207,-0.355534 -0.0207,-0.917774 0,-1.529623 0.1323,-4.481382 0.0165,-0.206706 0.1819,-0.310059 0.16536,-0.107487 0.3762,-0.107487 h 0.12403 q 0.11162,0 0.28112,0.124024 0.16949,0.124023 0.16949,0.380339 0,0.214974 -0.0579,2.877344 0.0744,-0.132291 0.26045,-0.421679 0.19017,-0.289389 0.40514,-0.570508 0.21911,-0.28112 0.38447,-0.392741 0.10335,-0.05374 0.21084,-0.05374 0.25218,0 0.40928,0.202572 0.0537,0.06615 0.0537,0.136426 0,0.05374 -0.0372,0.111621 -0.0744,0.103353 -0.21084,0.268717 -0.4837,0.603581 -0.59118,0.810287 0.11162,0.429948 0.27698,0.917774 0.16537,0.483691 0.30593,0.86403 0.14469,0.380339 0.18603,0.483692 0.0455,0.09922 0.0455,0.181901 0,0.144694 -0.13229,0.227376 -0.17364,0.115755 -0.41342,0.115755 z" id="path26408"/>
          <path d="m 129.39653,55.423616 q -0.1943,0 -0.43408,-0.136426 -0.23564,-0.14056 -0.31832,-0.417545 -0.0413,-0.198438 -0.0661,-0.859897 -0.0331,-0.913639 -0.0331,-2.033985 0,-0.529167 0.004,-1.012858 h -0.0827 q -0.11989,0 -0.20257,-0.0083 -0.18604,-0.04134 -0.18604,-0.297657 0,-0.05788 0.0248,-0.148828 0.0207,-0.09509 0.14469,-0.14056 0.17363,-0.05374 0.31833,-0.07441 0.0124,-0.256315 0.0248,-0.405143 0.0248,-0.177767 0.19017,-0.268718 0.1695,-0.09509 0.38447,-0.09509 0.21084,0.0041 0.37207,0.111621 0.16123,0.103353 0.16123,0.322462 v 0.227376 q 0.21911,-0.0124 0.26459,-0.0124 0.23978,0.0124 0.27285,0.330729 l 0.004,0.06615 q 0,0.260449 -0.2191,0.285254 -0.0703,0.0124 -0.3142,0.0248 l 0.0413,4.191994 q -0.0165,0.3514 -0.3514,0.3514 z" id="path26410"/>
          <path d="m 131.00057,55.386409 q -0.008,0 -0.11575,-0.0041 -0.10749,0 -0.27699,-0.119889 -0.1695,-0.124024 -0.20671,-0.359668 -0.0909,-0.768946 -0.0909,-1.670183 0,-1.198894 0.0538,-1.769402 0.062,-0.396875 0.55397,-0.396875 0.16536,0 0.38034,0.08682 0.21911,0.08268 0.24804,0.326595 0.004,0.107487 0.004,0.322461 0,0.214974 -0.008,0.698666 -0.0372,2.186948 -0.0372,2.447397 0,0.223242 -0.15709,0.330729 -0.15297,0.107487 -0.34727,0.107487 z m -0.0992,-4.543394 q -0.24804,0 -0.35553,-0.124023 -0.0827,-0.07441 -0.14056,-0.363802 -0.0537,-0.289388 -0.0579,-0.545704 0.0248,-0.173633 0.31833,-0.239778 0.1819,-0.04134 0.3514,-0.04134 0.41754,0 0.57877,0.148829 0.0703,0.06615 0.0703,0.214974 0,0.148828 -0.0496,0.392741 -0.0455,0.239778 -0.16949,0.396875 -0.0827,0.08682 -0.27286,0.128157 -0.14469,0.03307 -0.27285,0.03307 z" id="path26412"/>
          <path d="m 133.4645,55.369873 q -0.5457,0 -0.90123,-0.301791 -0.35554,-0.305924 -0.52504,-0.789616 -0.15709,-0.450619 -0.15709,-0.950847 0,-0.03721 0.004,-0.326595 0.008,-0.293522 0.20257,-0.777214 0.19431,-0.487825 0.56638,-0.797884 0.37207,-0.314193 0.92191,-0.314193 0.47128,0 0.79375,0.23151 0.32659,0.231511 0.51263,0.607716 0.24804,0.51263 0.24804,1.153418 0,0.289388 -0.0703,0.661459 -0.0661,0.367936 -0.27698,0.748275 -0.21084,0.380338 -0.54157,0.611849 -0.33073,0.23151 -0.77722,0.243913 z m 0.16537,-0.855762 q 0.27285,0 0.43822,-0.26045 0.22737,-0.37207 0.22737,-1.033529 0,-0.227376 -0.0496,-0.545703 -0.0455,-0.318327 -0.2067,-0.603581 -0.16123,-0.285254 -0.41755,-0.285254 -0.23564,0 -0.39274,0.272852 -0.26458,0.450618 -0.26458,1.16582 0,0.148829 0.0248,0.425814 0.0248,0.272852 0.1819,0.553972 0.1571,0.276986 0.44235,0.310059 z" id="path26414"/>
          <path d="m 138.32623,55.419482 q -0.52504,0 -0.57051,-0.51263 -0.0124,-0.343132 -0.0124,-0.677995 l 0.0165,-1.161687 q 0,-0.268718 -0.0124,-0.603581 -0.0124,-0.338998 -0.11576,-0.611849 -0.0992,-0.272852 -0.35966,-0.272852 -0.21498,0 -0.35967,0.165365 -0.1447,0.16123 -0.21911,0.413411 -0.0703,0.248047 -0.0744,0.496094 l -0.0661,2.426727 q -0.0248,0.202571 -0.28525,0.285254 -0.12816,0.04134 -0.26045,0.04134 -0.1323,0 -0.33073,-0.06201 -0.19431,-0.06201 -0.20257,-0.359668 -0.0124,-1.376661 -0.0124,-2.224155 0,-0.930176 0.0165,-1.289844 0.0372,-0.297656 0.32246,-0.388607 0.13229,-0.04548 0.26458,-0.04548 0.54571,0 0.54984,0.429948 0.17363,-0.206706 0.47129,-0.326595 0.29766,-0.11989 0.53744,-0.11989 0.51676,0 0.78548,0.301791 0.27285,0.297656 0.37207,0.839225 0.0868,0.479558 0.0868,1.120346 0,0.7028 -0.0744,1.790072 -0.0331,0.243913 -0.27699,0.318327 -0.0951,0.02894 -0.19016,0.02894 z" id="path26416"/>
          <path d="m 139.88892,55.386409 q -0.008,0 -0.11575,-0.0041 -0.10749,0 -0.27699,-0.119889 -0.1695,-0.124024 -0.2067,-0.359668 -0.091,-0.768946 -0.091,-1.670183 0,-1.198894 0.0538,-1.769402 0.062,-0.396875 0.55397,-0.396875 0.16536,0 0.38034,0.08682 0.21911,0.08268 0.24805,0.326595 0.004,0.107487 0.004,0.322461 0,0.214974 -0.008,0.698666 -0.0372,2.186948 -0.0372,2.447397 0,0.223242 -0.15709,0.330729 -0.15296,0.107487 -0.34727,0.107487 z m -0.0992,-4.543394 q -0.24804,0 -0.35553,-0.124023 -0.0827,-0.07441 -0.14056,-0.363802 -0.0537,-0.289388 -0.0579,-0.545704 0.0248,-0.173633 0.31833,-0.239778 0.1819,-0.04134 0.3514,-0.04134 0.41754,0 0.57877,0.148829 0.0703,0.06615 0.0703,0.214974 0,0.148828 -0.0496,0.392741 -0.0455,0.239778 -0.1695,0.396875 -0.0827,0.08682 -0.27286,0.128157 -0.14469,0.03307 -0.27285,0.03307 z" id="path26418"/>
          <path d="m 142.19576,55.382275 q -0.43822,0 -0.74001,-0.23151 -0.30179,-0.235645 -0.46715,-0.620118 -0.21911,-0.496094 -0.21911,-1.141016 0,-0.305925 0.0661,-0.686263 0.0703,-0.380339 0.26872,-0.760678 0.20257,-0.384472 0.51263,-0.615983 0.31419,-0.235645 0.73587,-0.235645 0.35967,0 0.60358,0.214974 0.24392,0.214974 0.37208,0.549838 0.13229,0.359668 0.13229,0.764811 0,0.347266 -0.10336,0.669727 -0.10335,0.322461 -0.33486,0.537435 -0.22738,0.214974 -0.57464,0.214974 -0.22324,0 -0.3514,-0.06615 -0.12816,-0.07028 -0.19017,-0.148829 -0.0579,-0.08268 -0.0786,-0.136426 0.0331,0.694532 0.3514,0.868165 0.091,0.04961 0.19017,0.04961 0.24805,0 0.54984,-0.310058 0.11162,-0.111622 0.21084,-0.111622 0.0248,0 0.0992,0.02067 0.0744,0.02067 0.13229,0.152962 0.0289,0.06615 0.0289,0.136426 0,0.219108 -0.24805,0.479558 -0.38447,0.405143 -0.94671,0.405143 z m -0.0786,-2.182813 q 0.21084,0 0.35967,-0.334864 0.15296,-0.334863 0.15296,-0.715202 0,-0.128157 -0.0331,-0.28112 -0.0331,-0.152962 -0.16537,-0.152962 -0.13229,0 -0.23978,0.16123 -0.10335,0.157097 -0.1819,0.388607 -0.0744,0.227377 -0.11162,0.450619 -0.0372,0.202572 -0.0372,0.338998 v 0.0248 q 0.14056,0.11989 0.25632,0.11989 z" id="path26420"/>
          <path d="m 144.45299,55.382275 q -0.15297,0 -0.36794,-0.09508 -0.21084,-0.09922 -0.26872,-0.421679 -0.0248,-0.243913 -0.0248,-1.070737 0,-1.265039 0.0496,-2.203484 0.0331,-0.297656 0.31005,-0.421679 0.16124,-0.07441 0.3266,-0.07441 0.11162,0 0.30592,0.06201 0.19844,0.06201 0.23152,0.396875 0.33486,-0.392741 0.80201,-0.392741 0.36794,0 0.55811,0.301791 0.0537,0.115755 0.0537,0.235644 0,0.293523 -0.22737,0.450619 -0.0661,0.04547 -0.13643,0.04547 -0.0786,0 -0.17363,-0.06201 -0.0909,-0.06615 -0.19017,-0.06615 -0.091,0 -0.23565,0.08268 -0.14469,0.08268 -0.28938,0.355534 -0.1447,0.268718 -0.16537,0.607715 -0.0289,0.458887 -0.0579,1.84795 -0.0248,0.301791 -0.28112,0.384473 -0.10748,0.03721 -0.2191,0.03721 z" id="path26422"/>
          <path d="m 147.61558,55.423616 q -0.1943,0 -0.43408,-0.136426 -0.23564,-0.14056 -0.31832,-0.417545 -0.0413,-0.198438 -0.0661,-0.859897 -0.0331,-0.913639 -0.0331,-2.033985 0,-0.529167 0.004,-1.012858 h -0.0827 q -0.11989,0 -0.20257,-0.0083 -0.18604,-0.04134 -0.18604,-0.297657 0,-0.05788 0.0248,-0.148828 0.0207,-0.09509 0.14469,-0.14056 0.17363,-0.05374 0.31833,-0.07441 0.0124,-0.256315 0.0248,-0.405143 0.0248,-0.177767 0.19017,-0.268718 0.1695,-0.09509 0.38447,-0.09509 0.21084,0.0041 0.37207,0.111621 0.16124,0.103353 0.16124,0.322462 v 0.227376 q 0.2191,-0.0124 0.26458,-0.0124 0.23978,0.0124 0.27285,0.330729 l 0.004,0.06615 q 0,0.260449 -0.2191,0.285254 -0.0703,0.0124 -0.3142,0.0248 l 0.0413,4.191994 q -0.0165,0.3514 -0.3514,0.3514 z" id="path26424"/>
          <path d="m 153.78369,55.402946 q -0.14883,0 -0.37621,-0.06615 -0.22324,-0.06615 -0.27698,-0.293522 -0.0124,-0.09095 -0.0124,-0.173633 0,-0.06615 0.008,-0.124024 v -0.03721 q -0.10335,0.248047 -0.339,0.450619 -0.23151,0.198437 -0.61598,0.214974 -0.57464,-0.0124 -0.90124,-0.434082 -0.45475,-0.587045 -0.45475,-1.579233 0,-0.367936 0.10335,-0.868164 0.10336,-0.504362 0.44235,-0.93431 0.34314,-0.429949 0.88057,-0.454753 0.23151,0 0.39274,0.05374 0.16123,0.04961 0.26459,0.128158 0.10335,0.07441 0.16123,0.152962 0.0579,0.07855 0.0785,0.132292 l 0.0207,0.05374 q 0,-0.186035 0.008,-0.595312 0.0124,-0.409278 0.0331,-0.839226 0.0207,-0.434082 0.0537,-0.682129 0.0661,-0.322461 0.54984,-0.322461 0.1695,0 0.39274,0.07855 0.22324,0.07441 0.26458,0.310059 0.0331,0.37207 0.0331,2.670639 0,2.294434 -0.0413,2.707846 -0.0785,0.450619 -0.66972,0.450619 z m -1.30638,-0.855762 q 0.23564,0 0.38447,-0.206706 0.15296,-0.206706 0.22324,-0.516765 0.0703,-0.314193 0.0703,-0.65319 v -0.206706 q 0,-0.190169 -0.0703,-0.508496 -0.0703,-0.318327 -0.20257,-0.525033 -0.13229,-0.206706 -0.31833,-0.206706 -0.25631,0 -0.40101,0.285254 -0.22324,0.438217 -0.22324,1.141016 0,0.202572 0.0289,0.512631 0.0331,0.305924 0.16536,0.595312 0.1323,0.289389 0.34314,0.289389 z" id="path26426"/>
          <path d="m 156.40885,55.369873 q -0.54571,0 -0.90124,-0.301791 -0.35553,-0.305924 -0.52503,-0.789616 -0.1571,-0.450619 -0.1571,-0.950847 0,-0.03721 0.004,-0.326595 0.008,-0.293522 0.20257,-0.777214 0.1943,-0.487825 0.56637,-0.797884 0.37207,-0.314193 0.92191,-0.314193 0.47129,0 0.79375,0.23151 0.32659,0.231511 0.51263,0.607716 0.24805,0.51263 0.24805,1.153418 0,0.289388 -0.0703,0.661459 -0.0661,0.367936 -0.27699,0.748275 -0.21084,0.380338 -0.54157,0.611849 -0.33073,0.23151 -0.77721,0.243913 z m 0.16536,-0.855762 q 0.27285,0 0.43822,-0.26045 0.22738,-0.37207 0.22738,-1.033529 0,-0.227376 -0.0496,-0.545703 -0.0455,-0.318327 -0.20671,-0.603581 -0.16123,-0.285254 -0.41755,-0.285254 -0.23564,0 -0.39274,0.272852 -0.26458,0.450618 -0.26458,1.16582 0,0.148829 0.0248,0.425814 0.0248,0.272852 0.18191,0.553972 0.15709,0.276986 0.44235,0.310059 z" id="path26428"/>
          <path d="m 159.82776,55.419482 q -0.44235,0 -0.74414,-0.235645 -0.30179,-0.239778 -0.46715,-0.624251 -0.16537,-0.388607 -0.19017,-0.682129 -0.0207,-0.293523 -0.0207,-0.42168 0,-0.851628 0.35553,-1.517221 0.20257,-0.384473 0.51677,-0.620117 0.31419,-0.239779 0.73174,-0.239779 0.42581,0 0.67799,0.198438 0.25632,0.194303 0.33486,0.429948 0.0827,0.235644 0.0827,0.429948 0,0.405143 -0.23978,0.673861 -0.14883,0.144694 -0.33487,0.144694 -0.20257,0 -0.30179,-0.07855 -0.0992,-0.08268 -0.0992,-0.165365 0,-0.04134 0.0207,-0.08682 0.10335,-0.194304 0.10335,-0.479558 0,-0.434082 -0.26045,-0.434082 -0.18604,0 -0.31833,0.293522 -0.12816,0.289388 -0.17363,0.63252 -0.0413,0.338997 -0.0413,0.599447 0,0.640788 0.19017,1.033529 0.13642,0.293522 0.39274,0.293522 0.1695,0 0.29352,-0.09509 0.12816,-0.09922 0.21497,-0.23151 0.0868,-0.132292 0.13643,-0.252181 0.062,-0.124024 0.13229,-0.128158 0.0744,-0.0083 0.0909,-0.0083 0.10336,0 0.19431,0.07441 0.0951,0.07441 0.0951,0.214974 0,0.132292 -0.0827,0.3514 -0.19431,0.516764 -0.65319,0.781348 -0.26045,0.148828 -0.63666,0.148828 z" id="path26430"/>
          <path d="m 162.19248,55.419482 q -0.14056,0 -0.34727,-0.08268 -0.2067,-0.08682 -0.23977,-0.438217 -0.0289,-0.632519 -0.0455,-1.744597 -0.0289,-1.641244 -0.0289,-2.468067 0,-0.768946 0.0165,-1.107943 0.0496,-0.359668 0.52503,-0.359668 0.1695,0 0.38861,0.08682 0.21911,0.08682 0.23564,0.347266 v 1.773536 q 0.0413,-0.06201 0.17363,-0.177767 0.13643,-0.11989 0.3514,-0.219108 0.21911,-0.103353 0.50437,-0.103353 0.5581,0 0.85162,0.314193 0.29353,0.314192 0.40101,0.868164 0.0992,0.51263 0.0992,1.178223 0,0.760677 -0.0579,1.678451 -0.0372,0.297657 -0.31833,0.392741 -0.13229,0.04548 -0.26459,0.04548 -0.5581,0 -0.61598,-0.49196 -0.0165,-0.454753 -0.0165,-0.905372 l 0.004,-0.446484 0.008,-0.541569 q 0,-0.256316 -0.0124,-0.603581 -0.0124,-0.3514 -0.10336,-0.63252 -0.0909,-0.28112 -0.32246,-0.28112 -0.43408,0 -0.55397,0.810287 -0.0785,0.516764 -0.0785,1.575098 v 0.256315 q 0,0.429948 -0.004,0.851628 -0.0289,0.28112 -0.29353,0.376205 -0.12815,0.04961 -0.25631,0.04961 z" id="path26432"/>
          <path d="m 166.09922,53.774104 q -0.37621,0 -0.45062,-0.338998 -0.0207,-0.132291 -0.0827,-0.806152 -0.1571,-1.744597 -0.1571,-2.869077 l 0.004,-0.09922 q 0.0331,-0.293522 0.38033,-0.392741 0.1695,-0.04547 0.339,-0.04547 0.6904,0 0.7152,0.467155 -0.0124,0.471289 -0.0744,1.277442 -0.1571,2.021583 -0.23978,2.468067 -0.0909,0.338998 -0.43408,0.338998 z m 0.0289,1.628842 q -0.26459,0 -0.40101,-0.169499 -0.13643,-0.169499 -0.13643,-0.276986 l -0.004,-0.119889 q 0,-0.206706 0.13642,-0.372071 0.13643,-0.169499 0.40928,-0.169499 0.28112,0 0.40928,0.169499 0.13229,0.165365 0.13229,0.372071 0,0.219108 -0.14056,0.392741 -0.14056,0.173633 -0.40514,0.173633 z" id="path26434"/>
        </g>
        <path style="fill:none;stroke:#000000;stroke-width:0.264583px;stroke-linecap:butt;stroke-linejoin:miter;stroke-opacity:1" d="m 117.98934,65.399242 c -1.78672,2.106857 -1.6669,1.978345 -3.85012,3.238" id="path894" sodipodi:nodetypes="cc"/>
      </g>
      <g id="g4047" transform="translate(2.1166667,8.4666671)">
        <path style="display:inline;fill:#000000;stroke:#ffffff;stroke-width:0.264583px;stroke-linecap:butt;stroke-linejoin:miter;stroke-opacity:1" d="m 58.918477,135.63352 c -0.939158,2.23304 -1.604798,4.81184 -4.367175,4.7401 -3.196438,-0.34414 -6.268974,-3.38406 -2.335366,-8.02064 2.086725,-2.15344 5.239521,-4.94565 10.019881,-2.2463 3.435008,2.90118 0.357017,5.49405 -1.26996,5.89264" id="path935" sodipodi:nodetypes="ccccc"/>
        <path style="display:inline;fill:#000000;stroke:#ffffff;stroke-width:0.265;stroke-linecap:butt;stroke-linejoin:miter;stroke-miterlimit:4;stroke-dasharray:none;stroke-opacity:1" d="m 55.768311,141.65671 c -6.889947,13.24435 -1.603272,17.26009 0.997239,16.99539 3.136994,-0.31544 4.170254,-3.20626 4.385854,-7.27629 0.2156,-4.07003 0.242907,-8.58689 -4.579035,-10.64752" id="path941" sodipodi:nodetypes="cccc"/>
        <path style="display:inline;fill:#000000;stroke:#ffffff;stroke-width:0.264583px;stroke-linecap:butt;stroke-linejoin:miter;stroke-opacity:1" d="m 51.533312,151.24656 c 2.428087,2.05912 -1.731851,4.40698 -0.191954,0.40064" id="path943" sodipodi:nodetypes="cc"/>
        <path style="display:inline;fill:#000000;stroke:#ffffff;stroke-width:0.264583px;stroke-linecap:butt;stroke-linejoin:miter;stroke-opacity:1" d="m 64.330889,128.92391 c -4.078707,-3.0118 -2.391008,3.21975 -0.126767,0.33155" id="path945" sodipodi:nodetypes="cc"/>
        <path style="display:inline;fill:#ffffff;stroke:#000000;stroke-width:0.264583px;stroke-linecap:butt;stroke-linejoin:miter;stroke-opacity:1" d="m 57.553023,131.50689 c 4.343829,2.36904 -3.441966,5.37779 -0.661321,0.49258" id="path953" sodipodi:nodetypes="cc"/>
        <path style="display:inline;fill:#ffffff;stroke:#000000;stroke-width:0.264583px;stroke-linecap:butt;stroke-linejoin:miter;stroke-opacity:1" d="m 53.554984,132.16317 c -2.57761,5.85094 5.319958,0.86625 0.852471,-0.22778" id="path955" sodipodi:nodetypes="cc"/>
        <path id="path900" style="display:inline;fill:#000000;stroke:#ffffff;stroke-width:0.264583px;stroke-linecap:butt;stroke-linejoin:miter;stroke-opacity:1" d="m 75.754409,121.20022 c -1.379707,-0.66207 -1.677737,0.35291 -2.655732,-0.91566 -0.516375,-0.53624 -2.261829,-1.71599 -2.869879,-1.8349 -0.429893,-0.71885 1.638674,-2.71259 1.415122,-3.50001 0.446891,-2.9034 1.030338,-2.59692 2.496387,-4.71223 0.09563,-0.66249 3.281679,-0.98226 4.074842,-0.86834 0.872614,-0.0368 0.663087,0.71895 1.531143,0.59815 0.80108,-0.25832 2.288589,1.49152 2.089124,2.35998 -0.08974,0.80353 0.446762,1.17645 0.773971,1.85758 0.39215,0.54218 -0.84357,1.61745 -0.903073,2.39532 -0.0037,2.17913 0.608727,0.70243 -1.05321,2.03568 -0.747912,0.17857 -1.165939,2.055 -1.906659,1.80862 -0.305698,-0.1357 -2.705574,0.94332 -2.992036,0.77579 z" sodipodi:nodetypes="scccccccccccss"/>
        <text xml:space="preserve" style="font-size:8.46667px;line-height:1.25;font-family:'Happy Lucky';-inkscape-font-specification:'Happy Lucky';display:inline;fill:#ffffff;stroke-width:0.264583" x="74.960419" y="118.05016" id="text898"><tspan sodipodi:role="line" id="tspan896" x="74.960419" y="118.05016" style="font-size:8.46667px;fill:#ffffff;stroke-width:0.264583">?</tspan></text>
        <path style="display:inline;fill:none;stroke:#ffffff;stroke-width:0.795;stroke-linecap:butt;stroke-linejoin:miter;stroke-miterlimit:4;stroke-dasharray:none;stroke-opacity:1" d="m 45.623757,127.01523 c 7.617878,-5.27732 10.950218,2.2472 10.950218,2.2472" id="path931-5" sodipodi:nodetypes="cc"/>
        <path style="display:inline;fill:none;stroke:#ffffff;stroke-width:0.795;stroke-linecap:butt;stroke-linejoin:miter;stroke-miterlimit:4;stroke-dasharray:none;stroke-opacity:1" d="m 45.763444,131.7288 c 7.664831,-7.83424 9.217661,-1.95491 9.217661,-1.95491" id="path933-2"/>
        <path style="display:inline;fill:none;stroke:#ffffff;stroke-width:0.795;stroke-linecap:butt;stroke-linejoin:miter;stroke-miterlimit:4;stroke-dasharray:none;stroke-opacity:1" d="m 64.614395,128.78648 c 10.27405,6.84833 2.62625,16.58405 -3.48576,16.74086" id="path937-0" sodipodi:nodetypes="cc"/>
        <path style="display:inline;fill:none;stroke:#ffffff;stroke-width:0.795;stroke-linecap:butt;stroke-linejoin:miter;stroke-miterlimit:4;stroke-dasharray:none;stroke-opacity:1" d="m 53.534145,145.82131 c -6.209792,0.72253 -7.176744,5.56528 -7.176744,5.56528 l 5.631444,0.0909" id="path939-2"/>
        <path style="display:inline;fill:none;stroke:#ffffff;stroke-width:0.795;stroke-linecap:butt;stroke-linejoin:miter;stroke-miterlimit:4;stroke-dasharray:none;stroke-opacity:1" d="m 55.134807,158.68757 c -3.50294,6.39716 -3.257802,11.90952 -3.257802,11.90952 -1.38882,-0.73086 -2.120859,-0.30286 -3.351901,0.41139" id="path949-9" sodipodi:nodetypes="ccc"/>
        <path style="display:inline;fill:none;stroke:#ffffff;stroke-width:0.795;stroke-linecap:butt;stroke-linejoin:miter;stroke-miterlimit:4;stroke-dasharray:none;stroke-opacity:1" d="m 57.854895,158.77523 c 1.75516,6.16167 1.57693,8.50628 1.12415,9.89633 2.24305,1.37163 2.24641,2.49255 2.21301,3.72044" id="path951-0" sodipodi:nodetypes="ccc"/>
        <path style="display:inline;fill:none;stroke:#ffffff;stroke-width:0.795;stroke-linecap:butt;stroke-linejoin:miter;stroke-miterlimit:4;stroke-dasharray:none;stroke-opacity:1" d="m 71.144201,119.24238 c -4.262526,1.55255 -8.77492,5.07521 -8.77492,5.07521" id="path1339" sodipodi:nodetypes="cc"/>
        <path style="fill:none;stroke:#000000;stroke-width:0.264583px;stroke-linecap:butt;stroke-linejoin:miter;stroke-opacity:1" d="m 45.62376,127.01523 c 7.617875,-5.27732 10.950222,2.2472 10.950222,2.2472" id="path931" sodipodi:nodetypes="cc"/>
        <path style="fill:none;stroke:#000000;stroke-width:0.264583px;stroke-linecap:butt;stroke-linejoin:miter;stroke-opacity:1" d="m 45.763447,131.7288 c 7.664833,-7.83424 9.217665,-1.95491 9.217665,-1.95491" id="path933"/>
        <path style="fill:none;stroke:#000000;stroke-width:0.264583px;stroke-linecap:butt;stroke-linejoin:miter;stroke-opacity:1" d="m 64.614398,128.78648 c 10.274045,6.84833 2.626248,16.58405 -3.485756,16.74086" id="path937" sodipodi:nodetypes="cc"/>
        <path style="fill:none;stroke:#000000;stroke-width:0.264583px;stroke-linecap:butt;stroke-linejoin:miter;stroke-opacity:1" d="m 53.534151,145.82131 c -6.209795,0.72253 -7.176747,5.56528 -7.176747,5.56528 l 5.631448,0.0909" id="path939"/>
        <path style="fill:none;stroke:#000000;stroke-width:0.264583px;stroke-linecap:butt;stroke-linejoin:miter;stroke-opacity:1" d="m 55.134807,158.68757 c -3.502938,6.39716 -3.2578,11.90952 -3.2578,11.90952 -1.38882,-0.73086 -2.120858,-0.30286 -3.3519,0.41139" id="path949" sodipodi:nodetypes="ccc"/>
        <path style="fill:none;stroke:#000000;stroke-width:0.264583px;stroke-linecap:butt;stroke-linejoin:miter;stroke-opacity:1" d="m 57.854894,158.77523 c 1.755167,6.16167 1.576935,8.50628 1.124154,9.89633 2.243051,1.37163 2.246415,2.49255 2.213012,3.72044" id="path951" sodipodi:nodetypes="ccc"/>
        <path style="fill:none;stroke:#000000;stroke-width:0.264583px;stroke-linecap:butt;stroke-linejoin:miter;stroke-opacity:1" d="m 71.144201,119.24238 c -4.262526,1.55255 -8.77492,5.07521 -8.77492,5.07521" id="path904" sodipodi:nodetypes="cc"/>
      </g>
      <g id="g4120" style="display:inline;fill:#000000;fill-opacity:1" transform="translate(17.423915,4.4807298)">
        <g aria-label="LABORTAGE MMXXI" id="text26013" style="font-size:6.35px;line-height:1.25;font-family:'Happy Lucky';-inkscape-font-specification:'Happy Lucky';stroke-width:0.53;stroke:#ffffff;stroke-opacity:1;stroke-miterlimit:4;stroke-dasharray:none">
          <path d="m 104.25152,146.33786 q -0.22944,0 -0.5395,-0.0217 -0.31006,-0.0217 -0.39377,-0.14573 -0.11162,-0.31006 -0.11162,-2.45256 0,-1.12862 0.0279,-1.70222 0.0403,-0.29456 0.43408,-0.29456 0.13333,0 0.30696,0.0651 0.17674,0.062 0.19844,0.26665 l 0.003,0.0868 q 0,0.26975 -0.0248,1.0511 l -0.0248,1.0728 q -0.0124,0.56121 -0.0124,1.0325 0,0.30695 0.0186,0.36897 0.0248,0.0527 0.27905,0.0527 0.17984,0 0.4961,-0.0279 0.18603,-0.0155 0.29765,-0.0186 0.11783,0.006 0.16744,0.14262 0.031,0.0806 0.031,0.16744 0,0.0589 -0.0279,0.16123 -0.0248,0.10232 -0.16433,0.13642 -0.16744,0.0279 -0.59222,0.0496 -0.18603,0.009 -0.36897,0.009 z" id="path26015" style="stroke:#ffffff;stroke-opacity:1;stroke-width:0.53;stroke-miterlimit:4;stroke-dasharray:none"/>
          <path d="m 108.27298,146.37817 q -0.35036,0 -0.40927,-0.23254 -0.10542,-0.72244 -0.20464,-0.81856 -0.0651,-0.0372 -0.27595,-0.0372 -0.28216,0 -0.59222,0.0465 -0.26045,0.0372 -0.31626,0.093 -0.006,0.0124 -0.0992,0.27905 -0.11163,0.34727 -0.17674,0.4961 -0.0589,0.10542 -0.13332,0.11162 -0.0744,0.003 -0.0837,0.003 -0.12712,0 -0.23564,-0.0775 -0.093,-0.0744 -0.093,-0.21083 l 0.003,-0.0527 q 0.0806,-0.43099 0.32246,-1.22784 0.24185,-0.79995 0.5333,-1.5968 0.29456,-0.79995 0.5302,-1.23403 0.10232,-0.16433 0.23255,-0.20154 0.13022,-0.0372 0.20463,-0.0372 0.10232,0 0.20154,0.0403 0.17364,0.0682 0.24805,0.25425 0.17983,0.5395 0.5519,2.6386 0.25115,1.41697 0.25115,1.47588 0,0.16433 -0.18603,0.23874 -0.13023,0.0496 -0.27286,0.0496 z m -1.16892,-1.53479 q 0.16123,0 0.29456,-0.0186 0.13332,-0.0186 0.16743,-0.0496 0.0155,-0.0217 0.0155,-0.0992 0,-0.21394 -0.0961,-0.79375 -0.13333,-0.80925 -0.20464,-0.84026 -0.062,0.0155 -0.33797,0.80615 -0.26045,0.73794 -0.26045,0.91157 0,0.0837 0.36897,0.0837 z" id="path26017" style="stroke:#ffffff;stroke-opacity:1;stroke-width:0.53;stroke-miterlimit:4;stroke-dasharray:none"/>
          <path d="m 109.97521,146.34406 q -0.32247,0 -0.5209,-0.0248 -0.19844,-0.0248 -0.29766,-0.11162 -0.0992,-0.0868 -0.12092,-0.26665 -0.0558,-0.55501 -0.0558,-1.87276 0,-0.91777 0.0341,-2.07119 0.0124,-0.14572 0.18914,-0.20774 0.20464,-0.0713 0.64492,-0.0713 0.14263,0 0.28526,0.009 0.61081,0.0372 0.89917,0.35347 0.28835,0.31316 0.31936,0.73484 0.006,0.0775 0.006,0.15193 0,0.33796 -0.13953,0.66662 -0.13643,0.32866 -0.40928,0.45889 0.23255,0.14573 0.36587,0.41238 0.14883,0.29455 0.14883,0.63562 0,0.28215 -0.13022,0.5581 -0.12713,0.27285 -0.42789,0.45889 -0.29765,0.18603 -0.79064,0.18603 z m -0.0744,-0.49919 q 0.24185,0 0.41238,-0.15193 0.17053,-0.15503 0.24495,-0.37827 0.0527,-0.15193 0.0527,-0.30076 0,-0.0744 -0.0248,-0.22014 -0.0217,-0.14573 -0.19224,-0.30076 -0.16743,-0.15502 -0.48989,-0.15502 -0.009,0.15502 -0.009,0.43098 0,0.46508 0.003,0.83405 z m 0.0124,-1.96267 q 0.20774,0 0.36277,-0.12402 0.15813,-0.12403 0.25425,-0.31626 0.11782,-0.23565 0.11782,-0.4961 0,-0.16123 -0.0651,-0.33176 -0.062,-0.17053 -0.23254,-0.29146 -0.16744,-0.12402 -0.44959,-0.12402 0,0.17673 0.006,0.49609 l 0.009,0.97979 q 0,0.12402 -0.003,0.20774 z" id="path26019" style="stroke:#ffffff;stroke-opacity:1;stroke-width:0.53;stroke-miterlimit:4;stroke-dasharray:none"/>
          <path d="m 113.08819,146.34406 q -0.45578,0 -0.77514,-0.25114 -0.31936,-0.25425 -0.5054,-0.66663 -0.26355,-0.58911 -0.26355,-1.32705 0,-0.27905 0.0558,-0.66353 0.0558,-0.38757 0.25735,-0.79995 0.20154,-0.41237 0.5271,-0.66352 0.32866,-0.25425 0.77825,-0.25425 0.45578,0 0.76584,0.25425 0.31006,0.25115 0.48059,0.66352 0.22945,0.54881 0.22945,1.22163 0,0.33177 -0.0713,0.74415 -0.0682,0.41237 -0.26665,0.82475 -0.19843,0.41238 -0.50539,0.66663 -0.30386,0.25114 -0.70694,0.25114 z m -0.0279,-0.69453 q 0.21084,0 0.36277,-0.24804 0.15193,-0.24805 0.24184,-0.63562 0.10542,-0.46509 0.10542,-0.98599 0,-0.34106 -0.0589,-0.68833 -0.0558,-0.35037 -0.20774,-0.59841 -0.14883,-0.24805 -0.39377,-0.24805 -0.21394,0 -0.36897,0.24805 -0.15193,0.24804 -0.23875,0.63252 -0.10542,0.45268 -0.10542,0.98598 0,0.34417 0.0589,0.69453 0.0589,0.34727 0.21084,0.59532 0.15193,0.24804 0.39378,0.24804 z" id="path26021" style="stroke:#ffffff;stroke-opacity:1;stroke-width:0.53;stroke-miterlimit:4;stroke-dasharray:none"/>
          <path d="m 116.94842,146.35647 q -0.0217,0 -0.13022,-0.009 -0.10542,-0.006 -0.21084,-0.14572 -0.0992,-0.17984 -0.22014,-0.62012 -0.0775,-0.27595 -0.17053,-0.5488 -0.19844,-0.58291 -0.39688,-0.58291 l -0.0403,0.006 q -0.0155,0.32246 -0.0217,0.81545 -0.006,0.5116 -0.0279,0.76895 -0.0372,0.19843 -0.22944,0.26045 -0.0775,0.0248 -0.15503,0.0248 -0.39377,0 -0.43098,-0.36277 -0.0279,-0.71933 -0.0279,-2.28203 0,-1.20613 0.0279,-1.62781 0.0496,-0.34726 1.0511,-0.34726 0.84026,0 1.15342,0.61391 0.15813,0.31626 0.15813,0.71004 0,0.58601 -0.29146,0.99529 -0.15193,0.21394 -0.35037,0.28525 0.10852,0.10542 0.22015,0.39998 0.11162,0.29145 0.22014,0.64182 0.11782,0.36897 0.22634,0.65422 0.0186,0.0496 0.0186,0.093 0,0.11472 -0.093,0.17983 -0.11783,0.0775 -0.27906,0.0775 z m -1.12551,-2.27273 q 0.18914,0 0.32866,-0.13643 0.13953,-0.13952 0.22014,-0.35657 0.093,-0.25424 0.093,-0.5364 0,-0.19843 -0.0589,-0.39377 -0.0589,-0.19844 -0.20464,-0.33797 -0.14262,-0.13952 -0.37827,-0.13952 z" id="path26023" style="stroke:#ffffff;stroke-opacity:1;stroke-width:0.53;stroke-miterlimit:4;stroke-dasharray:none"/>
          <path d="m 118.76847,146.32236 q -0.093,0 -0.18294,-0.0341 -0.17673,-0.0651 -0.20464,-0.27905 -0.0434,-0.74414 -0.0434,-2.26033 v -1.23403 q -0.10232,0.003 -0.27596,0.0186 -0.20153,0.0186 -0.40307,0.0248 -0.21394,-0.009 -0.21394,-0.39378 0,-0.0837 0.0155,-0.16743 0.0403,-0.18913 0.16743,-0.21704 0.5178,-0.0403 1.21853,-0.0403 0.70383,0 1.0325,0.0403 0.20464,0.0465 0.20464,0.36277 0,0.0806 -0.0248,0.16433 -0.0434,0.16123 -0.17983,0.18294 -0.0992,0.006 -0.23565,0.006 -0.13332,0 -0.26355,-0.003 l -0.17053,-0.006 -0.0651,0.003 q 0.0217,1.0759 0.0217,2.10839 0,1.0542 -0.0248,1.43868 -0.0372,0.28525 -0.37207,0.28525 z" id="path26025" style="stroke:#ffffff;stroke-opacity:1;stroke-width:0.53;stroke-miterlimit:4;stroke-dasharray:none"/>
          <path d="m 122.18531,146.37817 q -0.35036,0 -0.40928,-0.23254 -0.10542,-0.72244 -0.20463,-0.81856 -0.0651,-0.0372 -0.27596,-0.0372 -0.28215,0 -0.59221,0.0465 -0.26045,0.0372 -0.31626,0.093 -0.006,0.0124 -0.0992,0.27905 -0.11162,0.34727 -0.17673,0.4961 -0.0589,0.10542 -0.13332,0.11162 -0.0744,0.003 -0.0837,0.003 -0.12712,0 -0.23565,-0.0775 -0.093,-0.0744 -0.093,-0.21083 l 0.003,-0.0527 q 0.0806,-0.43099 0.32246,-1.22784 0.24184,-0.79995 0.5333,-1.5968 0.29456,-0.79995 0.5302,-1.23403 0.10232,-0.16433 0.23254,-0.20154 0.13023,-0.0372 0.20464,-0.0372 0.10232,0 0.20154,0.0403 0.17363,0.0682 0.24805,0.25425 0.17983,0.5395 0.5519,2.6386 0.25115,1.41697 0.25115,1.47588 0,0.16433 -0.18604,0.23874 -0.13022,0.0496 -0.27285,0.0496 z m -1.16892,-1.53479 q 0.16123,0 0.29456,-0.0186 0.13332,-0.0186 0.16743,-0.0496 0.0155,-0.0217 0.0155,-0.0992 0,-0.21394 -0.0961,-0.79375 -0.13332,-0.80925 -0.20464,-0.84026 -0.062,0.0155 -0.33796,0.80615 -0.26045,0.73794 -0.26045,0.91157 0,0.0837 0.36897,0.0837 z" id="path26027" style="stroke:#ffffff;stroke-opacity:1;stroke-width:0.53;stroke-miterlimit:4;stroke-dasharray:none"/>
          <path d="m 125.15877,146.35027 q -0.10542,0 -0.21083,-0.0248 -0.20464,-0.0527 -0.23255,-0.19224 -0.009,-0.0837 -0.0217,-0.28215 -0.0341,0.0682 -0.11783,0.17673 -0.0806,0.10853 -0.21704,0.19844 -0.13332,0.0868 -0.32246,0.0868 -0.39687,0 -0.68213,-0.25115 -0.28215,-0.25115 -0.44648,-0.66042 -0.16433,-0.40928 -0.19534,-0.73794 -0.0279,-0.32867 -0.0279,-0.4961 0,-0.87126 0.35036,-1.54409 0.21394,-0.40928 0.56431,-0.66042 0.35037,-0.25425 0.84026,-0.25425 0.35037,0 0.56741,0.13642 0.22014,0.13333 0.33176,0.34107 0.11472,0.20774 0.13642,0.38447 0.0248,0.17673 0.0248,0.29146 0,0.32246 -0.10542,0.5364 -0.12402,0.21704 -0.24185,0.23254 -0.11472,0.0155 -0.15503,0.0155 -0.13952,0 -0.24494,-0.0651 -0.093,-0.0589 -0.093,-0.13642 0,-0.0341 0.0155,-0.0682 0.13023,-0.23254 0.13023,-0.37207 0.003,-0.14262 0.003,-0.15813 0,-0.25114 -0.0961,-0.43718 -0.10542,-0.19844 -0.29456,-0.19844 -0.24494,0 -0.42167,0.24805 -0.17674,0.24495 -0.27906,0.62942 -0.10232,0.38137 -0.11782,0.66042 -0.0155,0.27906 -0.0155,0.39998 0,0.78135 0.24494,1.19062 0.14573,0.24805 0.38758,0.24805 0.29455,0 0.40617,-0.48369 0.0682,-0.28215 0.0682,-0.66353 l -0.003,-0.0496 q 0.0248,-0.24185 0.42168,-0.24185 0.10542,0 0.21084,0.031 0.21084,0.0589 0.24184,0.22634 0.0403,0.44338 0.0403,1.43247 0,0.20154 -0.009,0.26665 -0.0279,0.17053 -0.18294,0.20774 -0.15193,0.0372 -0.25115,0.0372 z" id="path26029" style="stroke:#ffffff;stroke-opacity:1;stroke-width:0.53;stroke-miterlimit:4;stroke-dasharray:none"/>
          <path d="m 126.82379,146.35337 q -0.20154,0 -0.48059,-0.0186 -0.27905,-0.0155 -0.34106,-0.13642 -0.0558,-0.22945 -0.0992,-1.16582 -0.0527,-1.16582 -0.0527,-2.16731 0,-0.71004 0.0403,-0.94258 0.0806,-0.21704 1.0201,-0.21704 0.42788,0 0.69763,0.0372 0.26665,0.0465 0.26665,0.30076 0,0.10542 -0.0527,0.20464 -0.0713,0.13953 -0.19844,0.13953 h -0.0124 q -0.12402,-0.0155 -0.31316,-0.0155 -0.39377,0 -0.49609,0.0682 -0.0403,0.0372 -0.0589,0.22944 -0.0155,0.18914 -0.0155,0.57051 0,0.35967 0.0186,0.5271 0.0155,0.0589 0.14262,0.0713 0.0961,0.006 0.21084,0.006 l 0.18914,-0.003 q 0.0806,0 0.14573,0.006 0.20463,0.031 0.20463,0.23875 0,0.0775 -0.0527,0.17983 -0.0496,0.10232 -0.17673,0.12092 h -0.22634 q -0.13643,0 -0.25425,0.006 -0.11782,0.003 -0.15813,0.031 -0.031,0.0341 -0.031,0.32246 0,0.12713 0.006,0.31626 0.0186,0.5054 0.0558,0.64802 0.031,0.0651 0.22944,0.0651 0.13953,0 0.32246,-0.0155 0.18294,-0.0155 0.35037,-0.0155 0.18603,0.0124 0.18603,0.25425 0,0.0744 -0.0372,0.17983 -0.0372,0.10232 -0.14882,0.12403 -0.13643,0.0186 -0.524,0.0403 -0.17984,0.009 -0.35657,0.009 z" id="path26031" style="stroke:#ffffff;stroke-opacity:1;stroke-width:0.53;stroke-miterlimit:4;stroke-dasharray:none"/>
          <path d="m 133.06527,146.31616 q -0.31316,0 -0.34727,-0.27905 -0.003,-0.093 -0.003,-0.35967 0,-1.72393 0.0434,-2.1301 -0.0682,0.15813 -0.27285,0.75344 -0.27595,0.81235 -0.36277,0.98598 -0.10542,0.19224 -0.35657,0.19224 -0.26355,0 -0.34106,-0.22014 l -0.16123,-0.5147 q -0.27285,-0.88366 -0.36587,-1.20923 -0.003,0.12403 -0.003,0.30386 0,0.24185 0.006,0.57671 0.009,0.49609 0.009,0.96118 -0.003,0.46819 -0.0403,0.67283 -0.0496,0.17673 -0.18293,0.21704 -0.13023,0.0403 -0.21394,0.0403 -0.0961,0 -0.19224,-0.0341 -0.17983,-0.0682 -0.21394,-0.26045 -0.062,-0.5116 -0.0651,-1.00769 -0.003,-0.49609 -0.003,-0.59531 0,-0.77825 0.0217,-1.46348 0.0248,-0.77204 0.0558,-0.93327 0.0837,-0.26976 0.43719,-0.26976 0.29145,0 0.45578,0.19534 0.23565,0.32246 0.59842,1.38286 0.14882,0.43409 0.21704,0.71934 0.10852,-0.29456 0.28835,-0.72864 0.18294,-0.43718 0.35657,-0.82475 0.17673,-0.38758 0.27285,-0.53641 0.12402,-0.16743 0.26045,-0.18603 0.13642,-0.0186 0.18913,-0.0186 0.15193,0 0.27906,0.0682 0.17673,0.0899 0.18913,0.26975 0,0.39377 -0.0372,2.00298 -0.0434,1.74563 -0.0806,1.96267 -0.0403,0.15503 -0.18603,0.21084 -0.14263,0.0558 -0.25115,0.0558 z" id="path26033" style="stroke:#ffffff;stroke-opacity:1;stroke-width:0.53;stroke-miterlimit:4;stroke-dasharray:none"/>
          <path d="m 136.9348,146.31616 q -0.31316,0 -0.34727,-0.27905 -0.003,-0.093 -0.003,-0.35967 0,-1.72393 0.0434,-2.1301 -0.0682,0.15813 -0.27285,0.75344 -0.27595,0.81235 -0.36277,0.98598 -0.10542,0.19224 -0.35657,0.19224 -0.26355,0 -0.34106,-0.22014 l -0.16123,-0.5147 q -0.27285,-0.88366 -0.36587,-1.20923 -0.003,0.12403 -0.003,0.30386 0,0.24185 0.006,0.57671 0.009,0.49609 0.009,0.96118 -0.003,0.46819 -0.0403,0.67283 -0.0496,0.17673 -0.18294,0.21704 -0.13022,0.0403 -0.21394,0.0403 -0.0961,0 -0.19224,-0.0341 -0.17983,-0.0682 -0.21394,-0.26045 -0.062,-0.5116 -0.0651,-1.00769 -0.003,-0.49609 -0.003,-0.59531 0,-0.77825 0.0217,-1.46348 0.0248,-0.77204 0.0558,-0.93327 0.0837,-0.26976 0.43718,-0.26976 0.29145,0 0.45578,0.19534 0.23565,0.32246 0.59842,1.38286 0.14883,0.43409 0.21704,0.71934 0.10852,-0.29456 0.28835,-0.72864 0.18294,-0.43718 0.35657,-0.82475 0.17673,-0.38758 0.27285,-0.53641 0.12402,-0.16743 0.26045,-0.18603 0.13643,-0.0186 0.18914,-0.0186 0.15193,0 0.27905,0.0682 0.17673,0.0899 0.18913,0.26975 0,0.39377 -0.0372,2.00298 -0.0434,1.74563 -0.0806,1.96267 -0.0403,0.15503 -0.18603,0.21084 -0.14263,0.0558 -0.25115,0.0558 z" id="path26035" style="stroke:#ffffff;stroke-opacity:1;stroke-width:0.53;stroke-miterlimit:4;stroke-dasharray:none"/>
          <path d="m 140.20282,146.35647 q -0.009,0 -0.10852,-0.003 -0.0992,-0.003 -0.22015,-0.14263 -0.18913,-0.25425 -0.79685,-1.40147 -0.65732,0.99839 -0.97668,1.44798 -0.0589,0.0744 -0.13643,0.0744 -0.0155,0 -0.0744,-0.009 -0.0589,-0.009 -0.12092,-0.0961 -0.031,-0.0496 -0.031,-0.10852 0,-0.0496 0.0217,-0.10542 0.23565,-0.50229 1.0263,-1.76113 -0.75654,-1.45728 -0.97359,-1.96887 -0.031,-0.093 -0.031,-0.17054 0,-0.15192 0.14573,-0.27905 0.14882,-0.12712 0.39997,-0.12712 0.25115,0 0.37827,0.19533 0.10542,0.19534 0.67903,1.41387 0.68213,-1.048 0.97048,-1.39216 0.0682,-0.0682 0.15193,-0.0682 0.15503,0 0.24185,0.14882 0.031,0.0465 0.031,0.10232 0,0.0651 -0.0434,0.14263 -0.31626,0.5054 -1.07281,1.66812 0.79996,1.74252 0.90538,2.04018 0.0155,0.0558 0.0155,0.10542 0,0.12092 -0.0899,0.19534 -0.11782,0.0992 -0.29145,0.0992 z" id="path26037" style="stroke:#ffffff;stroke-opacity:1;stroke-width:0.53;stroke-miterlimit:4;stroke-dasharray:none"/>
          <path d="m 143.49254,146.35647 q -0.009,0 -0.10852,-0.003 -0.0992,-0.003 -0.22014,-0.14263 -0.18914,-0.25425 -0.79685,-1.40147 -0.65733,0.99839 -0.97669,1.44798 -0.0589,0.0744 -0.13642,0.0744 -0.0155,0 -0.0744,-0.009 -0.0589,-0.009 -0.12092,-0.0961 -0.031,-0.0496 -0.031,-0.10852 0,-0.0496 0.0217,-0.10542 0.23564,-0.50229 1.02629,-1.76113 -0.75654,-1.45728 -0.97358,-1.96887 -0.031,-0.093 -0.031,-0.17054 0,-0.15192 0.14573,-0.27905 0.14883,-0.12712 0.39997,-0.12712 0.25115,0 0.37828,0.19533 0.10542,0.19534 0.67902,1.41387 0.68213,-1.048 0.97049,-1.39216 0.0682,-0.0682 0.15193,-0.0682 0.15503,0 0.24184,0.14882 0.031,0.0465 0.031,0.10232 0,0.0651 -0.0434,0.14263 -0.31626,0.5054 -1.0728,1.66812 0.79995,1.74252 0.90537,2.04018 0.0155,0.0558 0.0155,0.10542 0,0.12092 -0.0899,0.19534 -0.11782,0.0992 -0.29145,0.0992 z" id="path26039" style="stroke:#ffffff;stroke-opacity:1;stroke-width:0.53;stroke-miterlimit:4;stroke-dasharray:none"/>
          <path d="m 144.863,146.34406 q -0.26665,0 -0.39998,-0.0248 -0.0744,-0.0186 -0.10232,-0.093 -0.0248,-0.0744 -0.0248,-0.13642 0.003,-0.15193 0.10852,-0.18914 0.12402,-0.0341 0.25735,-0.0341 -0.0155,-0.69143 -0.0155,-1.95957 0,-1.01389 0.0403,-1.68051 -0.0217,-0.003 -0.0527,-0.003 -0.12092,0 -0.23874,0.009 -0.11472,-0.009 -0.11472,-0.19224 0,-0.0713 0.0279,-0.15503 0.0403,-0.11782 0.13333,-0.13952 0.26045,-0.0279 0.80925,-0.0279 0.40618,0 0.49299,0.0186 0.11782,0.0434 0.11782,0.23255 -0.0124,0.18913 -0.0961,0.20774 -0.0372,0.009 -0.18914,0.0248 0.0124,0.18604 0.0124,0.58291 0,0.39688 -0.0124,1.00149 -0.031,1.53169 -0.0589,2.05879 0.10542,0 0.26355,0.0279 0.10542,0.031 0.10542,0.20153 0,0.21084 -0.14573,0.23565 -0.34106,0.0341 -0.91777,0.0341 z" id="path26041" style="stroke:#ffffff;stroke-opacity:1;stroke-width:0.53;stroke-miterlimit:4;stroke-dasharray:none"/>
        </g>
        <g aria-label="LABORTAGE MMXXI" id="text926-3" style="font-size:6.35px;line-height:1.25;font-family:'Happy Lucky';-inkscape-font-specification:'Happy Lucky';stroke-width:0.264583">
          <path d="m 104.25152,146.33786 q -0.22944,0 -0.5395,-0.0217 -0.31006,-0.0217 -0.39377,-0.14573 -0.11162,-0.31006 -0.11162,-2.45256 0,-1.12862 0.0279,-1.70222 0.0403,-0.29456 0.43408,-0.29456 0.13333,0 0.30696,0.0651 0.17674,0.062 0.19844,0.26665 l 0.003,0.0868 q 0,0.26975 -0.0248,1.0511 l -0.0248,1.0728 q -0.0124,0.56121 -0.0124,1.0325 0,0.30695 0.0186,0.36897 0.0248,0.0527 0.27905,0.0527 0.17984,0 0.4961,-0.0279 0.18603,-0.0155 0.29765,-0.0186 0.11783,0.006 0.16744,0.14262 0.031,0.0806 0.031,0.16744 0,0.0589 -0.0279,0.16123 -0.0248,0.10232 -0.16433,0.13642 -0.16744,0.0279 -0.59222,0.0496 -0.18603,0.009 -0.36897,0.009 z" id="path26557"/>
          <path d="m 108.27298,146.37817 q -0.35036,0 -0.40927,-0.23254 -0.10542,-0.72244 -0.20464,-0.81856 -0.0651,-0.0372 -0.27595,-0.0372 -0.28216,0 -0.59222,0.0465 -0.26045,0.0372 -0.31626,0.093 -0.006,0.0124 -0.0992,0.27905 -0.11163,0.34727 -0.17674,0.4961 -0.0589,0.10542 -0.13332,0.11162 -0.0744,0.003 -0.0837,0.003 -0.12712,0 -0.23564,-0.0775 -0.093,-0.0744 -0.093,-0.21083 l 0.003,-0.0527 q 0.0806,-0.43099 0.32246,-1.22784 0.24185,-0.79995 0.5333,-1.5968 0.29456,-0.79995 0.5302,-1.23403 0.10232,-0.16433 0.23255,-0.20154 0.13022,-0.0372 0.20463,-0.0372 0.10232,0 0.20154,0.0403 0.17364,0.0682 0.24805,0.25425 0.17983,0.5395 0.5519,2.6386 0.25115,1.41697 0.25115,1.47588 0,0.16433 -0.18603,0.23874 -0.13023,0.0496 -0.27286,0.0496 z m -1.16892,-1.53479 q 0.16123,0 0.29456,-0.0186 0.13332,-0.0186 0.16743,-0.0496 0.0155,-0.0217 0.0155,-0.0992 0,-0.21394 -0.0961,-0.79375 -0.13333,-0.80925 -0.20464,-0.84026 -0.062,0.0155 -0.33797,0.80615 -0.26045,0.73794 -0.26045,0.91157 0,0.0837 0.36897,0.0837 z" id="path26559"/>
          <path d="m 109.97521,146.34406 q -0.32247,0 -0.5209,-0.0248 -0.19844,-0.0248 -0.29766,-0.11162 -0.0992,-0.0868 -0.12092,-0.26665 -0.0558,-0.55501 -0.0558,-1.87276 0,-0.91777 0.0341,-2.07119 0.0124,-0.14572 0.18914,-0.20774 0.20464,-0.0713 0.64492,-0.0713 0.14263,0 0.28526,0.009 0.61081,0.0372 0.89917,0.35347 0.28835,0.31316 0.31936,0.73484 0.006,0.0775 0.006,0.15193 0,0.33796 -0.13953,0.66662 -0.13643,0.32866 -0.40928,0.45889 0.23255,0.14573 0.36587,0.41238 0.14883,0.29455 0.14883,0.63562 0,0.28215 -0.13022,0.5581 -0.12713,0.27285 -0.42789,0.45889 -0.29765,0.18603 -0.79064,0.18603 z m -0.0744,-0.49919 q 0.24185,0 0.41238,-0.15193 0.17053,-0.15503 0.24495,-0.37827 0.0527,-0.15193 0.0527,-0.30076 0,-0.0744 -0.0248,-0.22014 -0.0217,-0.14573 -0.19224,-0.30076 -0.16743,-0.15502 -0.48989,-0.15502 -0.009,0.15502 -0.009,0.43098 0,0.46508 0.003,0.83405 z m 0.0124,-1.96267 q 0.20774,0 0.36277,-0.12402 0.15813,-0.12403 0.25425,-0.31626 0.11782,-0.23565 0.11782,-0.4961 0,-0.16123 -0.0651,-0.33176 -0.062,-0.17053 -0.23254,-0.29146 -0.16744,-0.12402 -0.44959,-0.12402 0,0.17673 0.006,0.49609 l 0.009,0.97979 q 0,0.12402 -0.003,0.20774 z" id="path26561"/>
          <path d="m 113.08819,146.34406 q -0.45578,0 -0.77514,-0.25114 -0.31936,-0.25425 -0.5054,-0.66663 -0.26355,-0.58911 -0.26355,-1.32705 0,-0.27905 0.0558,-0.66353 0.0558,-0.38757 0.25735,-0.79995 0.20154,-0.41237 0.5271,-0.66352 0.32866,-0.25425 0.77825,-0.25425 0.45578,0 0.76584,0.25425 0.31006,0.25115 0.48059,0.66352 0.22945,0.54881 0.22945,1.22163 0,0.33177 -0.0713,0.74415 -0.0682,0.41237 -0.26665,0.82475 -0.19843,0.41238 -0.50539,0.66663 -0.30386,0.25114 -0.70694,0.25114 z m -0.0279,-0.69453 q 0.21084,0 0.36277,-0.24804 0.15193,-0.24805 0.24184,-0.63562 0.10542,-0.46509 0.10542,-0.98599 0,-0.34106 -0.0589,-0.68833 -0.0558,-0.35037 -0.20774,-0.59841 -0.14883,-0.24805 -0.39377,-0.24805 -0.21394,0 -0.36897,0.24805 -0.15193,0.24804 -0.23875,0.63252 -0.10542,0.45268 -0.10542,0.98598 0,0.34417 0.0589,0.69453 0.0589,0.34727 0.21084,0.59532 0.15193,0.24804 0.39378,0.24804 z" id="path26563"/>
          <path d="m 116.94842,146.35647 q -0.0217,0 -0.13022,-0.009 -0.10542,-0.006 -0.21084,-0.14572 -0.0992,-0.17984 -0.22014,-0.62012 -0.0775,-0.27595 -0.17053,-0.5488 -0.19844,-0.58291 -0.39688,-0.58291 l -0.0403,0.006 q -0.0155,0.32246 -0.0217,0.81545 -0.006,0.5116 -0.0279,0.76895 -0.0372,0.19843 -0.22944,0.26045 -0.0775,0.0248 -0.15503,0.0248 -0.39377,0 -0.43098,-0.36277 -0.0279,-0.71933 -0.0279,-2.28203 0,-1.20613 0.0279,-1.62781 0.0496,-0.34726 1.0511,-0.34726 0.84026,0 1.15342,0.61391 0.15813,0.31626 0.15813,0.71004 0,0.58601 -0.29146,0.99529 -0.15193,0.21394 -0.35037,0.28525 0.10852,0.10542 0.22015,0.39998 0.11162,0.29145 0.22014,0.64182 0.11782,0.36897 0.22634,0.65422 0.0186,0.0496 0.0186,0.093 0,0.11472 -0.093,0.17983 -0.11783,0.0775 -0.27906,0.0775 z m -1.12551,-2.27273 q 0.18914,0 0.32866,-0.13643 0.13953,-0.13952 0.22014,-0.35657 0.093,-0.25424 0.093,-0.5364 0,-0.19843 -0.0589,-0.39377 -0.0589,-0.19844 -0.20464,-0.33797 -0.14262,-0.13952 -0.37827,-0.13952 z" id="path26565"/>
          <path d="m 118.76847,146.32236 q -0.093,0 -0.18294,-0.0341 -0.17673,-0.0651 -0.20464,-0.27905 -0.0434,-0.74414 -0.0434,-2.26033 v -1.23403 q -0.10232,0.003 -0.27596,0.0186 -0.20153,0.0186 -0.40307,0.0248 -0.21394,-0.009 -0.21394,-0.39378 0,-0.0837 0.0155,-0.16743 0.0403,-0.18913 0.16743,-0.21704 0.5178,-0.0403 1.21853,-0.0403 0.70383,0 1.0325,0.0403 0.20464,0.0465 0.20464,0.36277 0,0.0806 -0.0248,0.16433 -0.0434,0.16123 -0.17983,0.18294 -0.0992,0.006 -0.23565,0.006 -0.13332,0 -0.26355,-0.003 l -0.17053,-0.006 -0.0651,0.003 q 0.0217,1.0759 0.0217,2.10839 0,1.0542 -0.0248,1.43868 -0.0372,0.28525 -0.37207,0.28525 z" id="path26567"/>
          <path d="m 122.18531,146.37817 q -0.35036,0 -0.40928,-0.23254 -0.10542,-0.72244 -0.20463,-0.81856 -0.0651,-0.0372 -0.27596,-0.0372 -0.28215,0 -0.59221,0.0465 -0.26045,0.0372 -0.31626,0.093 -0.006,0.0124 -0.0992,0.27905 -0.11162,0.34727 -0.17673,0.4961 -0.0589,0.10542 -0.13332,0.11162 -0.0744,0.003 -0.0837,0.003 -0.12712,0 -0.23565,-0.0775 -0.093,-0.0744 -0.093,-0.21083 l 0.003,-0.0527 q 0.0806,-0.43099 0.32246,-1.22784 0.24184,-0.79995 0.5333,-1.5968 0.29456,-0.79995 0.5302,-1.23403 0.10232,-0.16433 0.23254,-0.20154 0.13023,-0.0372 0.20464,-0.0372 0.10232,0 0.20154,0.0403 0.17363,0.0682 0.24805,0.25425 0.17983,0.5395 0.5519,2.6386 0.25115,1.41697 0.25115,1.47588 0,0.16433 -0.18604,0.23874 -0.13022,0.0496 -0.27285,0.0496 z m -1.16892,-1.53479 q 0.16123,0 0.29456,-0.0186 0.13332,-0.0186 0.16743,-0.0496 0.0155,-0.0217 0.0155,-0.0992 0,-0.21394 -0.0961,-0.79375 -0.13332,-0.80925 -0.20464,-0.84026 -0.062,0.0155 -0.33796,0.80615 -0.26045,0.73794 -0.26045,0.91157 0,0.0837 0.36897,0.0837 z" id="path26569"/>
          <path d="m 125.15877,146.35027 q -0.10542,0 -0.21083,-0.0248 -0.20464,-0.0527 -0.23255,-0.19224 -0.009,-0.0837 -0.0217,-0.28215 -0.0341,0.0682 -0.11783,0.17673 -0.0806,0.10853 -0.21704,0.19844 -0.13332,0.0868 -0.32246,0.0868 -0.39687,0 -0.68213,-0.25115 -0.28215,-0.25115 -0.44648,-0.66042 -0.16433,-0.40928 -0.19534,-0.73794 -0.0279,-0.32867 -0.0279,-0.4961 0,-0.87126 0.35036,-1.54409 0.21394,-0.40928 0.56431,-0.66042 0.35037,-0.25425 0.84026,-0.25425 0.35037,0 0.56741,0.13642 0.22014,0.13333 0.33176,0.34107 0.11472,0.20774 0.13642,0.38447 0.0248,0.17673 0.0248,0.29146 0,0.32246 -0.10542,0.5364 -0.12402,0.21704 -0.24185,0.23254 -0.11472,0.0155 -0.15503,0.0155 -0.13952,0 -0.24494,-0.0651 -0.093,-0.0589 -0.093,-0.13642 0,-0.0341 0.0155,-0.0682 0.13023,-0.23254 0.13023,-0.37207 0.003,-0.14262 0.003,-0.15813 0,-0.25114 -0.0961,-0.43718 -0.10542,-0.19844 -0.29456,-0.19844 -0.24494,0 -0.42167,0.24805 -0.17674,0.24495 -0.27906,0.62942 -0.10232,0.38137 -0.11782,0.66042 -0.0155,0.27906 -0.0155,0.39998 0,0.78135 0.24494,1.19062 0.14573,0.24805 0.38758,0.24805 0.29455,0 0.40617,-0.48369 0.0682,-0.28215 0.0682,-0.66353 l -0.003,-0.0496 q 0.0248,-0.24185 0.42168,-0.24185 0.10542,0 0.21084,0.031 0.21084,0.0589 0.24184,0.22634 0.0403,0.44338 0.0403,1.43247 0,0.20154 -0.009,0.26665 -0.0279,0.17053 -0.18294,0.20774 -0.15193,0.0372 -0.25115,0.0372 z" id="path26571"/>
          <path d="m 126.82379,146.35337 q -0.20154,0 -0.48059,-0.0186 -0.27905,-0.0155 -0.34106,-0.13642 -0.0558,-0.22945 -0.0992,-1.16582 -0.0527,-1.16582 -0.0527,-2.16731 0,-0.71004 0.0403,-0.94258 0.0806,-0.21704 1.0201,-0.21704 0.42788,0 0.69763,0.0372 0.26665,0.0465 0.26665,0.30076 0,0.10542 -0.0527,0.20464 -0.0713,0.13953 -0.19844,0.13953 h -0.0124 q -0.12402,-0.0155 -0.31316,-0.0155 -0.39377,0 -0.49609,0.0682 -0.0403,0.0372 -0.0589,0.22944 -0.0155,0.18914 -0.0155,0.57051 0,0.35967 0.0186,0.5271 0.0155,0.0589 0.14262,0.0713 0.0961,0.006 0.21084,0.006 l 0.18914,-0.003 q 0.0806,0 0.14573,0.006 0.20463,0.031 0.20463,0.23875 0,0.0775 -0.0527,0.17983 -0.0496,0.10232 -0.17673,0.12092 h -0.22634 q -0.13643,0 -0.25425,0.006 -0.11782,0.003 -0.15813,0.031 -0.031,0.0341 -0.031,0.32246 0,0.12713 0.006,0.31626 0.0186,0.5054 0.0558,0.64802 0.031,0.0651 0.22944,0.0651 0.13953,0 0.32246,-0.0155 0.18294,-0.0155 0.35037,-0.0155 0.18603,0.0124 0.18603,0.25425 0,0.0744 -0.0372,0.17983 -0.0372,0.10232 -0.14882,0.12403 -0.13643,0.0186 -0.524,0.0403 -0.17984,0.009 -0.35657,0.009 z" id="path26573"/>
          <path d="m 133.06527,146.31616 q -0.31316,0 -0.34727,-0.27905 -0.003,-0.093 -0.003,-0.35967 0,-1.72393 0.0434,-2.1301 -0.0682,0.15813 -0.27285,0.75344 -0.27595,0.81235 -0.36277,0.98598 -0.10542,0.19224 -0.35657,0.19224 -0.26355,0 -0.34106,-0.22014 l -0.16123,-0.5147 q -0.27285,-0.88366 -0.36587,-1.20923 -0.003,0.12403 -0.003,0.30386 0,0.24185 0.006,0.57671 0.009,0.49609 0.009,0.96118 -0.003,0.46819 -0.0403,0.67283 -0.0496,0.17673 -0.18293,0.21704 -0.13023,0.0403 -0.21394,0.0403 -0.0961,0 -0.19224,-0.0341 -0.17983,-0.0682 -0.21394,-0.26045 -0.062,-0.5116 -0.0651,-1.00769 -0.003,-0.49609 -0.003,-0.59531 0,-0.77825 0.0217,-1.46348 0.0248,-0.77204 0.0558,-0.93327 0.0837,-0.26976 0.43719,-0.26976 0.29145,0 0.45578,0.19534 0.23565,0.32246 0.59842,1.38286 0.14882,0.43409 0.21704,0.71934 0.10852,-0.29456 0.28835,-0.72864 0.18294,-0.43718 0.35657,-0.82475 0.17673,-0.38758 0.27285,-0.53641 0.12402,-0.16743 0.26045,-0.18603 0.13642,-0.0186 0.18913,-0.0186 0.15193,0 0.27906,0.0682 0.17673,0.0899 0.18913,0.26975 0,0.39377 -0.0372,2.00298 -0.0434,1.74563 -0.0806,1.96267 -0.0403,0.15503 -0.18603,0.21084 -0.14263,0.0558 -0.25115,0.0558 z" id="path26575"/>
          <path d="m 136.9348,146.31616 q -0.31316,0 -0.34727,-0.27905 -0.003,-0.093 -0.003,-0.35967 0,-1.72393 0.0434,-2.1301 -0.0682,0.15813 -0.27285,0.75344 -0.27595,0.81235 -0.36277,0.98598 -0.10542,0.19224 -0.35657,0.19224 -0.26355,0 -0.34106,-0.22014 l -0.16123,-0.5147 q -0.27285,-0.88366 -0.36587,-1.20923 -0.003,0.12403 -0.003,0.30386 0,0.24185 0.006,0.57671 0.009,0.49609 0.009,0.96118 -0.003,0.46819 -0.0403,0.67283 -0.0496,0.17673 -0.18294,0.21704 -0.13022,0.0403 -0.21394,0.0403 -0.0961,0 -0.19224,-0.0341 -0.17983,-0.0682 -0.21394,-0.26045 -0.062,-0.5116 -0.0651,-1.00769 -0.003,-0.49609 -0.003,-0.59531 0,-0.77825 0.0217,-1.46348 0.0248,-0.77204 0.0558,-0.93327 0.0837,-0.26976 0.43718,-0.26976 0.29145,0 0.45578,0.19534 0.23565,0.32246 0.59842,1.38286 0.14883,0.43409 0.21704,0.71934 0.10852,-0.29456 0.28835,-0.72864 0.18294,-0.43718 0.35657,-0.82475 0.17673,-0.38758 0.27285,-0.53641 0.12402,-0.16743 0.26045,-0.18603 0.13643,-0.0186 0.18914,-0.0186 0.15193,0 0.27905,0.0682 0.17673,0.0899 0.18913,0.26975 0,0.39377 -0.0372,2.00298 -0.0434,1.74563 -0.0806,1.96267 -0.0403,0.15503 -0.18603,0.21084 -0.14263,0.0558 -0.25115,0.0558 z" id="path26577"/>
          <path d="m 140.20282,146.35647 q -0.009,0 -0.10852,-0.003 -0.0992,-0.003 -0.22015,-0.14263 -0.18913,-0.25425 -0.79685,-1.40147 -0.65732,0.99839 -0.97668,1.44798 -0.0589,0.0744 -0.13643,0.0744 -0.0155,0 -0.0744,-0.009 -0.0589,-0.009 -0.12092,-0.0961 -0.031,-0.0496 -0.031,-0.10852 0,-0.0496 0.0217,-0.10542 0.23565,-0.50229 1.0263,-1.76113 -0.75654,-1.45728 -0.97359,-1.96887 -0.031,-0.093 -0.031,-0.17054 0,-0.15192 0.14573,-0.27905 0.14882,-0.12712 0.39997,-0.12712 0.25115,0 0.37827,0.19533 0.10542,0.19534 0.67903,1.41387 0.68213,-1.048 0.97048,-1.39216 0.0682,-0.0682 0.15193,-0.0682 0.15503,0 0.24185,0.14882 0.031,0.0465 0.031,0.10232 0,0.0651 -0.0434,0.14263 -0.31626,0.5054 -1.07281,1.66812 0.79996,1.74252 0.90538,2.04018 0.0155,0.0558 0.0155,0.10542 0,0.12092 -0.0899,0.19534 -0.11782,0.0992 -0.29145,0.0992 z" id="path26579"/>
          <path d="m 143.49254,146.35647 q -0.009,0 -0.10852,-0.003 -0.0992,-0.003 -0.22014,-0.14263 -0.18914,-0.25425 -0.79685,-1.40147 -0.65733,0.99839 -0.97669,1.44798 -0.0589,0.0744 -0.13642,0.0744 -0.0155,0 -0.0744,-0.009 -0.0589,-0.009 -0.12092,-0.0961 -0.031,-0.0496 -0.031,-0.10852 0,-0.0496 0.0217,-0.10542 0.23564,-0.50229 1.02629,-1.76113 -0.75654,-1.45728 -0.97358,-1.96887 -0.031,-0.093 -0.031,-0.17054 0,-0.15192 0.14573,-0.27905 0.14883,-0.12712 0.39997,-0.12712 0.25115,0 0.37828,0.19533 0.10542,0.19534 0.67902,1.41387 0.68213,-1.048 0.97049,-1.39216 0.0682,-0.0682 0.15193,-0.0682 0.15503,0 0.24184,0.14882 0.031,0.0465 0.031,0.10232 0,0.0651 -0.0434,0.14263 -0.31626,0.5054 -1.0728,1.66812 0.79995,1.74252 0.90537,2.04018 0.0155,0.0558 0.0155,0.10542 0,0.12092 -0.0899,0.19534 -0.11782,0.0992 -0.29145,0.0992 z" id="path26581"/>
          <path d="m 144.863,146.34406 q -0.26665,0 -0.39998,-0.0248 -0.0744,-0.0186 -0.10232,-0.093 -0.0248,-0.0744 -0.0248,-0.13642 0.003,-0.15193 0.10852,-0.18914 0.12402,-0.0341 0.25735,-0.0341 -0.0155,-0.69143 -0.0155,-1.95957 0,-1.01389 0.0403,-1.68051 -0.0217,-0.003 -0.0527,-0.003 -0.12092,0 -0.23874,0.009 -0.11472,-0.009 -0.11472,-0.19224 0,-0.0713 0.0279,-0.15503 0.0403,-0.11782 0.13333,-0.13952 0.26045,-0.0279 0.80925,-0.0279 0.40618,0 0.49299,0.0186 0.11782,0.0434 0.11782,0.23255 -0.0124,0.18913 -0.0961,0.20774 -0.0372,0.009 -0.18914,0.0248 0.0124,0.18604 0.0124,0.58291 0,0.39688 -0.0124,1.00149 -0.031,1.53169 -0.0589,2.05879 0.10542,0 0.26355,0.0279 0.10542,0.031 0.10542,0.20153 0,0.21084 -0.14573,0.23565 -0.34106,0.0341 -0.91777,0.0341 z" id="path26583"/>
        </g>
      </g>
      <g id="g4071" style="display:inline">
        <path style="fill:#000000;stroke:#ffffff;stroke-width:0.264583px;stroke-linecap:butt;stroke-linejoin:miter;stroke-opacity:1" d="M 75.029363,81.310334 C 58.657256,83.036839 56.177534,70.084554 55.122708,62.773422 c 1.10448,-4.548601 4.771609,-9.691714 4.827019,-10.163845 2.153127,2.329416 2.093732,-0.477051 2.694469,-1.310886 25.266778,-13.579486 39.451364,23.274375 12.385167,30.011643 z" id="path891" sodipodi:nodetypes="ccccc"/>
        <path style="fill:#ffffff;stroke:#000000;stroke-width:0.264583px;stroke-linecap:butt;stroke-linejoin:miter;stroke-opacity:1" d="m 55.534298,65.215343 3.547078,-0.348998 -0.714912,-4.317453 1.988928,-0.49635 v -1.178835 c -2.80317,-1.451445 2.921728,-1.588362 1.209855,0 l 0.03666,1.00122 h 1.686465 c 1.736418,-2.168516 1.926339,4.588183 0,1.264145 l -3.666376,0.305697 0.483179,2.334482 h 1.283182 l 1.191771,5.138169 1.466492,0.170621 c 2.474436,-2.709147 3.324274,2.940433 0.769906,1.512322 l -5.322498,0.308041 c -1.00345,2.87283 -3.952559,-1.592159 -0.497842,-1.589418 l 2.344919,-0.397922 -1.138137,-3.4694 -4.399478,1.078013" id="path893" sodipodi:nodetypes="cccccccccccccccccccc"/>
        <path style="fill:none;stroke:#ffffff;stroke-width:0.264583px;stroke-linecap:butt;stroke-linejoin:miter;stroke-opacity:1" d="m 66.463899,80.335513 0.806569,-1.264145 c 0.963289,-0.196752 1.926577,0.4958 2.889866,-0.6541" id="path895" sodipodi:nodetypes="ccc"/>
        <path style="fill:none;stroke:#ffffff;stroke-width:0.264583px;stroke-linecap:butt;stroke-linejoin:miter;stroke-opacity:1" d="m 68.360667,79.0781 c -0.756499,-0.567632 0.08955,-1.155581 0.797407,-1.543347" id="path897" sodipodi:nodetypes="cc"/>
        <path style="fill:#ffffff;stroke:#000000;stroke-width:0.264583px;stroke-linecap:butt;stroke-linejoin:miter;stroke-opacity:1" d="m 75.029459,81.030572 -1.118455,-5.108071 -2.639687,0.581663 -2.695048,-14.423982 2.989267,-0.679334 -0.669086,-2.512777 c -6.00924,0.03554 -3.770502,-4.725471 -0.851305,-5.480037 l -0.877186,-4.467248 c 22.501456,-3.758574 28.248131,27.256241 5.8615,32.089786 z" id="path901" sodipodi:nodetypes="ccccccccc"/>
        <path style="fill:none;stroke:#000000;stroke-width:0.264583px;stroke-linecap:butt;stroke-linejoin:miter;stroke-opacity:1" d="m 85.440347,54.489923 c -2.111376,0.876402 -0.791241,1.497156 -0.863832,2.07355 -0.510668,0.875201 -0.68833,0.03311 -0.961844,0.889992 -0.09012,0.282341 0.06485,1.050951 -0.0744,1.423669 -0.123675,0.331028 -0.54138,0.253137 -0.633406,0.704582 -0.197695,0.969822 -0.249232,2.26412 -0.459463,2.819852" id="path899" sodipodi:nodetypes="ccsssc"/>
        <path style="fill:none;stroke:#000000;stroke-width:0.264583px;stroke-linecap:butt;stroke-linejoin:miter;stroke-opacity:1" d="M 74.090714,75.973921 71.54016,61.418998 74.115688,60.783051 76.70498,75.649354 Z" id="path903"/>
        <path style="fill:none;stroke:#000000;stroke-width:0.264583px;stroke-linecap:butt;stroke-linejoin:miter;stroke-opacity:1" d="m 70.895828,58.681191 -0.836952,-5.186338 c 6.465443,-0.171614 4.102177,5.150634 0.836952,5.186338" id="path905" sodipodi:nodetypes="ccc"/>
        <path style="fill:#000000;stroke:#000000;stroke-width:0.264583px;stroke-linecap:butt;stroke-linejoin:miter;stroke-opacity:1" d="m 71.609581,62.094278 -2.174052,0.546637 2.471021,13.110094 1.864563,-0.460165 z" id="path932" sodipodi:nodetypes="ccccc"/>
        <path style="fill:#000000;stroke:#000000;stroke-width:0.264583px;stroke-linecap:butt;stroke-linejoin:miter;stroke-opacity:1" d="M 70.804503,58.265435 C 66.905875,58.227787 67.14716,55.693987 70.09468,54.004938 Z" id="path934" sodipodi:nodetypes="ccc"/>
      </g>
      <g id="g25763" style="display:inline;fill:#000000;fill-opacity:1" transform="translate(17.423915,4.4807298)"/>
    </g>
  </g>
</svg>