999
"DXF R12 Output" (www.mydxf.blogspot.com)
 0 
SECTION
 2 
HEADER
 9 
$ACADVER
 1 
AC1009
 9 
$EXTMIN
 10 
 0 
 20 
 0 
 9 
$EXTMAX
 10 
 8.5 
 20 
 11 
 0 
ENDSEC
 0 
SECTION
 2 
ENTITIES
0
LINE
8
Layer 1
10
9.285120
20
27.984400
11
9.385632
21
27.748495
0
LINE
8
Layer 1
10
9.385632
20
27.748495
11
9.625249
21
27.553111
0
LINE
8
Layer 1
10
9.625249
20
27.553111
11
10.197880
21
27.538204
0
LINE
8
Layer 1
10
10.197880
20
27.538204
11
10.574392
21
27.686569
0
LINE
8
Layer 1
10
10.574392
20
27.686569
11
10.949169
21
28.298189
0
LINE
8
Layer 1
10
10.949169
20
28.298189
11
9.285120
21
27.984400
0
LINE
8
Layer 1
10
9.387980
20
27.660900
11
9.140167
21
28.022990
0
LINE
8
Layer 1
10
9.140167
20
28.022990
11
9.067493
21
28.380551
0
LINE
8
Layer 1
10
9.067493
20
28.380551
11
9.332019
21
29.025336
0
LINE
8
Layer 1
10
9.332019
20
29.025336
11
9.950476
21
29.481745
0
LINE
8
Layer 1
10
9.950476
20
29.481745
11
10.691780
21
29.636270
0
LINE
8
Layer 1
10
10.691780
20
29.636270
11
11.719083
21
29.376607
0
LINE
8
Layer 1
10
11.719083
20
29.376607
11
12.137717
21
29.072691
0
LINE
8
Layer 1
10
12.137717
20
29.072691
11
12.362370
21
28.640943
0
LINE
8
Layer 1
10
12.362370
20
28.640943
11
12.211132
21
28.180382
0
LINE
8
Layer 1
10
12.211132
20
28.180382
11
11.735238
21
27.848768
0
LINE
8
Layer 1
10
11.735238
20
27.848768
11
11.171893
21
27.801758
0
LINE
8
Layer 1
10
11.171893
20
27.801758
11
10.931553
21
27.933623
0
LINE
8
Layer 1
10
10.931553
20
27.933623
11
10.758300
21
28.195011
0
LINE
8
Layer 1
10
10.226500
20
27.576500
11
9.688384
21
27.636610
0
LINE
8
Layer 1
10
9.688384
20
27.636610
11
9.487009
21
27.758115
0
LINE
8
Layer 1
10
9.487009
20
27.758115
11
9.353132
21
27.946534
0
LINE
8
Layer 1
10
9.353132
20
27.946534
11
9.744658
21
27.737349
0
LINE
8
Layer 1
10
9.744658
20
27.737349
11
10.105122
21
27.709013
0
LINE
8
Layer 1
10
10.105122
20
27.709013
11
10.318078
21
27.797893
0
LINE
8
Layer 1
10
10.321400
20
29.385300
11
10.585592
21
28.979059
0
LINE
8
Layer 1
10
10.585592
20
28.979059
11
10.589904
21
28.740873
0
LINE
8
Layer 1
10
10.589904
20
28.740873
11
10.331549
21
28.608116
0
LINE
8
Layer 1
10
10.331549
20
28.608116
11
10.182476
21
28.775572
0
LINE
8
Layer 1
10
10.182476
20
28.775572
11
10.195577
21
29.054395
0
LINE
8
Layer 1
10
11.118900
20
29.208300
11
11.351954
21
28.970627
0
LINE
8
Layer 1
10
11.351954
20
28.970627
11
11.350602
21
28.757067
0
LINE
8
Layer 1
10
11.350602
20
28.757067
11
11.101422
21
28.571607
0
LINE
8
Layer 1
10
11.101422
20
28.571607
11
10.966121
21
28.831896
0
LINE
8
Layer 1
10
10.966121
20
28.831896
11
10.978049
21
29.045413
0
LINE
8
Layer 1
10
10.978049
20
29.045413
11
11.137080
21
29.236882
0
LINE
8
Layer 1
10
10.600000
20
27.584600
11
11.177652
21
26.903069
0
LINE
8
Layer 1
10
11.177652
20
26.903069
11
11.534432
21
26.183208
0
LINE
8
Layer 1
10
11.534432
20
26.183208
11
11.685439
21
25.462708
0
LINE
8
Layer 1
10
11.685439
20
25.462708
11
11.645771
21
24.779256
0
LINE
8
Layer 1
10
11.645771
20
24.779256
11
11.430526
21
24.170543
0
LINE
8
Layer 1
10
11.430526
20
24.170543
11
11.054803
21
23.674256
0
LINE
8
Layer 1
10
11.054803
20
23.674256
11
10.533701
21
23.328086
0
LINE
8
Layer 1
10
10.533701
20
23.328086
11
9.882316
21
23.169720
0
LINE
8
Layer 1
10
9.882316
20
23.169720
11
9.555278
21
23.254388
0
LINE
8
Layer 1
10
9.555278
20
23.254388
11
9.368546
21
23.538268
0
LINE
8
Layer 1
10
9.368546
20
23.538268
11
9.355144
21
24.530795
0
LINE
8
Layer 1
10
9.355144
20
24.530795
11
9.720399
21
25.801565
0
LINE
8
Layer 1
10
9.720399
20
25.801565
11
10.342601
21
27.004840
0
LINE
8
Layer 1
10
10.342601
20
27.004840
11
10.342600
21
27.004800
0
LINE
8
Layer 1
10
15.958100
20
30.439400
11
15.539818
21
30.729300
0
LINE
8
Layer 1
10
15.539818
20
30.729300
11
15.434951
21
30.982453
0
LINE
8
Layer 1
10
15.434951
20
30.982453
11
15.572032
21
31.093868
0
LINE
8
Layer 1
10
15.572032
20
31.093868
11
15.879595
21
30.958551
0
LINE
8
Layer 1
10
15.879595
20
30.958551
11
16.002398
21
30.640197
0
LINE
8
Layer 1
10
16.002398
20
30.640197
11
15.968668
21
30.449238
0
LINE
8
Layer 1
10
17.312100
20
28.766300
11
17.208601
21
28.557437
0
LINE
8
Layer 1
10
17.208601
20
28.557437
11
17.380430
21
28.304578
0
LINE
8
Layer 1
10
17.380430
20
28.304578
11
17.615347
21
28.175551
0
LINE
8
Layer 1
10
17.615347
20
28.175551
11
17.701113
21
28.338185
0
LINE
8
Layer 1
10
17.701113
20
28.338185
11
17.483400
21
28.634698
0
LINE
8
Layer 1
10
17.483400
20
28.634698
11
17.298540
21
28.751186
0
LINE
8
Layer 1
10
6.781060
20
30.004800
11
7.475348
21
30.506242
0
LINE
8
Layer 1
10
7.475348
20
30.506242
11
8.110195
21
30.713914
0
LINE
8
Layer 1
10
8.110195
20
30.713914
11
8.675391
21
30.697753
0
LINE
8
Layer 1
10
8.675391
20
30.697753
11
9.160724
21
30.527699
0
LINE
8
Layer 1
10
9.160724
20
30.527699
11
9.850950
21
30.005665
0
LINE
8
Layer 1
10
9.850950
20
30.005665
11
10.099180
21
29.707319
0
LINE
8
Layer 1
10
8.873070
20
31.565000
11
10.099429
21
31.504928
0
LINE
8
Layer 1
10
10.099429
20
31.504928
11
10.875296
21
31.313523
0
LINE
8
Layer 1
10
10.875296
20
31.313523
11
11.289124
21
31.033735
0
LINE
8
Layer 1
10
11.289124
20
31.033735
11
11.429364
21
30.708510
0
LINE
8
Layer 1
10
11.429364
20
30.708510
11
11.242887
21
30.093541
0
LINE
8
Layer 1
10
11.242887
20
30.093541
11
11.023480
21
29.812200
0
LINE
8
Layer 1
10
11.497300
20
26.998100
11
13.188820
21
28.133389
0
LINE
8
Layer 1
10
13.188820
20
28.133389
11
14.594638
21
29.238238
0
LINE
8
Layer 1
10
14.594638
20
29.238238
11
15.910800
21
30.407000
0
LINE
8
Layer 1
10
11.595700
20
26.262100
11
15.906837
21
28.113012
0
LINE
8
Layer 1
10
15.906837
20
28.113012
11
17.142600
21
28.556100
0
LINE
8
Layer 1
10
11.536200
20
23.960600
11
12.038193
21
23.585371
0
LINE
8
Layer 1
10
12.038193
20
23.585371
11
12.682810
21
22.987894
0
LINE
8
Layer 1
10
12.682810
20
22.987894
11
13.052875
21
22.258494
0
LINE
8
Layer 1
10
13.052875
20
22.258494
11
13.132688
21
21.981384
0
LINE
8
Layer 1
10
13.132688
20
21.981384
11
12.354770
21
20.654934
0
LINE
8
Layer 1
10
12.354770
20
20.654934
11
12.734917
21
20.861638
0
LINE
8
Layer 1
10
12.734917
20
20.861638
11
13.105800
21
20.929980
0
LINE
8
Layer 1
10
13.105800
20
20.929980
11
13.504510
21
20.806061
0
LINE
8
Layer 1
10
9.444660
20
23.192100
11
8.102866
21
21.082493
0
LINE
8
Layer 1
10
8.102866
20
21.082493
11
7.479680
21
20.358480
0
LINE
8
Layer 1
10
7.479680
20
20.358480
11
7.930198
21
20.427104
0
LINE
8
Layer 1
10
7.930198
20
20.427104
11
8.501400
21
20.347417
0
LINE
8
Layer 1
10
6.781060
20
30.004800
11
7.475348
21
30.506242
0
LINE
8
Layer 1
10
7.475348
20
30.506242
11
8.110195
21
30.713914
0
LINE
8
Layer 1
10
8.110195
20
30.713914
11
8.675391
21
30.697753
0
LINE
8
Layer 1
10
8.675391
20
30.697753
11
9.160724
21
30.527699
0
LINE
8
Layer 1
10
9.160724
20
30.527699
11
9.850950
21
30.005665
0
LINE
8
Layer 1
10
9.850950
20
30.005665
11
10.099180
21
29.707319
0
LINE
8
Layer 1
10
8.873070
20
31.565000
11
10.099429
21
31.504928
0
LINE
8
Layer 1
10
10.099429
20
31.504928
11
10.875296
21
31.313523
0
LINE
8
Layer 1
10
10.875296
20
31.313523
11
11.289124
21
31.033735
0
LINE
8
Layer 1
10
11.289124
20
31.033735
11
11.429364
21
30.708510
0
LINE
8
Layer 1
10
11.429364
20
30.708510
11
11.242887
21
30.093541
0
LINE
8
Layer 1
10
11.242887
20
30.093541
11
11.023480
21
29.812200
0
LINE
8
Layer 1
10
11.497300
20
26.998100
11
13.188820
21
28.133389
0
LINE
8
Layer 1
10
13.188820
20
28.133389
11
14.594638
21
29.238238
0
LINE
8
Layer 1
10
14.594638
20
29.238238
11
15.910800
21
30.407000
0
LINE
8
Layer 1
10
11.595700
20
26.262100
11
15.906837
21
28.113012
0
LINE
8
Layer 1
10
15.906837
20
28.113012
11
17.142600
21
28.556100
0
LINE
8
Layer 1
10
11.536200
20
23.960600
11
12.038193
21
23.585369
0
LINE
8
Layer 1
10
12.038193
20
23.585369
11
12.682810
21
22.987892
0
LINE
8
Layer 1
10
12.682810
20
22.987892
11
13.052875
21
22.258492
0
LINE
8
Layer 1
10
13.052875
20
22.258492
11
13.132688
21
21.981382
0
LINE
8
Layer 1
10
13.132688
20
21.981382
11
12.354770
21
20.654932
0
LINE
8
Layer 1
10
12.354770
20
20.654932
11
12.734917
21
20.861636
0
LINE
8
Layer 1
10
12.734917
20
20.861636
11
13.105800
21
20.929978
0
LINE
8
Layer 1
10
13.105800
20
20.929978
11
13.504510
21
20.806059
0
LINE
8
Layer 1
10
9.444660
20
23.192100
11
8.102866
21
21.082493
0
LINE
8
Layer 1
10
8.102866
20
21.082493
11
7.479680
21
20.358480
0
LINE
8
Layer 1
10
7.479680
20
20.358480
11
7.930198
21
20.427104
0
LINE
8
Layer 1
10
7.930198
20
20.427104
11
8.501400
21
20.347417
0
LINE
8
Layer 1
10
24.193200
20
29.044700
11
24.342945
21
29.545941
0
LINE
8
Layer 1
10
24.342945
20
29.545941
11
24.525582
21
29.790438
0
LINE
8
Layer 1
10
24.525582
20
29.790438
11
24.700996
21
29.836004
0
LINE
8
Layer 1
10
24.700996
20
29.836004
11
24.829074
21
29.740454
0
LINE
8
Layer 1
10
24.829074
20
29.740454
11
24.782766
21
29.357260
0
LINE
8
Layer 1
10
24.782766
20
29.357260
11
24.528152
21
29.185245
0
LINE
8
Layer 1
10
24.528152
20
29.185245
11
24.065747
21
29.103370
0
LINE
8
Layer 1
10
22.796700
20
28.312300
11
22.243383
21
28.060504
0
LINE
8
Layer 1
10
22.243383
20
28.060504
11
22.213462
21
27.814385
0
LINE
8
Layer 1
10
22.213462
20
27.814385
11
22.475990
21
27.828156
0
LINE
8
Layer 1
10
22.475990
20
27.828156
11
22.800022
21
28.356029
0
LINE
8
Layer 1
10
28.561400
20
26.490900
11
28.427751
21
25.530898
0
LINE
8
Layer 1
10
28.427751
20
25.530898
11
28.141119
21
24.838891
0
LINE
8
Layer 1
10
28.141119
20
24.838891
11
27.705230
21
24.582314
0
LINE
8
Layer 1
10
27.705230
20
24.582314
11
27.123810
21
24.928600
0
LINE
8
Layer 1
10
27.123810
20
24.928600
11
26.701024
21
25.601952
0
LINE
8
Layer 1
10
26.701024
20
25.601952
11
26.661517
21
26.260169
0
LINE
8
Layer 1
10
26.661517
20
26.260169
11
26.972997
21
26.893134
0
LINE
8
Layer 1
10
26.972997
20
26.893134
11
27.603174
21
27.490730
0
LINE
8
Layer 1
10
27.603174
20
27.490730
11
28.224900
21
27.789508
0
LINE
8
Layer 1
10
28.224900
20
27.789508
11
28.957496
21
27.787522
0
LINE
8
Layer 1
10
28.957496
20
27.787522
11
29.690448
21
27.485073
0
LINE
8
Layer 1
10
29.690448
20
27.485073
11
30.313244
21
26.882458
0
LINE
8
Layer 1
10
30.313244
20
26.882458
11
30.136534
21
26.158643
0
LINE
8
Layer 1
10
30.136534
20
26.158643
11
29.711291
21
25.859136
0
LINE
8
Layer 1
10
29.711291
20
25.859136
11
29.138525
21
25.825620
0
LINE
8
Layer 1
10
29.138525
20
25.825620
11
28.519244
21
25.899780
0
LINE
8
Layer 1
10
27.230900
20
26.783500
11
27.120567
21
26.441193
0
LINE
8
Layer 1
10
27.120567
20
26.441193
11
27.162742
21
26.233187
0
LINE
8
Layer 1
10
27.162742
20
26.233187
11
27.317310
21
26.253764
0
LINE
8
Layer 1
10
27.317310
20
26.253764
11
27.544157
21
26.597208
0
LINE
8
Layer 1
10
27.544157
20
26.597208
11
27.556902
21
26.809917
0
LINE
8
Layer 1
10
27.556902
20
26.809917
11
27.437843
21
26.780517
0
LINE
8
Layer 1
10
27.842200
20
26.826900
11
27.812960
21
26.483061
0
LINE
8
Layer 1
10
27.812960
20
26.483061
11
28.036179
21
26.567155
0
LINE
8
Layer 1
10
28.036179
20
26.567155
11
28.205977
21
26.831125
0
LINE
8
Layer 1
10
28.205977
20
26.831125
11
28.016477
21
27.026912
0
LINE
8
Layer 1
10
28.625400
20
25.117900
11
29.152075
21
22.743130
0
LINE
8
Layer 1
10
29.152075
20
22.743130
11
29.659987
21
21.602925
0
LINE
8
Layer 1
10
29.659987
20
21.602925
11
30.438600
21
20.514940
0
LINE
8
Layer 1
10
30.438600
20
20.514940
11
31.381693
21
20.768712
0
LINE
8
Layer 1
10
31.381693
20
20.768712
11
31.717023
21
21.065690
0
LINE
8
Layer 1
10
31.717023
20
21.065690
11
31.916450
21
21.532370
0
LINE
8
Layer 1
10
31.916450
20
21.532370
11
31.734593
21
22.475869
0
LINE
8
Layer 1
10
31.734593
20
22.475869
11
31.022841
21
23.776302
0
LINE
8
Layer 1
10
31.022841
20
23.776302
11
29.975705
21
24.956935
0
LINE
8
Layer 1
10
29.975705
20
24.956935
11
29.387150
21
25.353345
0
LINE
8
Layer 1
10
29.387150
20
25.353345
11
28.787690
21
25.541030
0
LINE
8
Layer 1
10
22.780900
20
28.225500
11
23.780897
21
26.453577
0
LINE
8
Layer 1
10
23.780897
20
26.453577
11
25.142611
21
25.013564
0
LINE
8
Layer 1
10
25.142611
20
25.013564
11
25.951887
21
24.467120
0
LINE
8
Layer 1
10
25.951887
20
24.467120
11
26.842922
21
24.062571
0
LINE
8
Layer 1
10
26.842922
20
24.062571
11
27.812826
21
23.819555
0
LINE
8
Layer 1
10
27.812826
20
23.819555
11
28.858710
21
23.757710
0
LINE
8
Layer 1
10
24.142600
20
29.040600
11
25.662745
21
27.858248
0
LINE
8
Layer 1
10
25.662745
20
27.858248
11
26.839180
21
26.704320
0
LINE
8
Layer 1
10
26.049100
20
28.438100
11
26.853062
21
28.054508
0
LINE
8
Layer 1
10
26.853062
20
28.054508
11
27.520570
21
27.529314
0
LINE
8
Layer 1
10
27.645600
20
27.556700
11
27.821574
21
28.275360
0
LINE
8
Layer 1
10
27.821574
20
28.275360
11
28.125341
21
28.891060
0
LINE
8
Layer 1
10
28.125341
20
28.891060
11
28.585765
21
29.368760
0
LINE
8
Layer 1
10
28.585765
20
29.368760
11
29.231710
21
29.673420
0
LINE
8
Layer 1
10
30.563800
20
20.410600
11
29.673641
21
18.789440
0
LINE
8
Layer 1
10
29.673641
20
18.789440
11
30.462240
21
17.505090
0
LINE
8
Layer 1
10
30.462240
20
17.505090
11
29.623916
21
17.055056
0
LINE
8
Layer 1
10
31.993400
20
21.374200
11
33.327355
21
19.892608
0
LINE
8
Layer 1
10
33.327355
20
19.892608
11
34.401800
21
18.306290
0
LINE
8
Layer 1
10
34.401800
20
18.306290
11
33.825895
21
17.322775
0
LINE
8
Layer 1
10
22.780900
20
28.225500
11
23.780897
21
26.453577
0
LINE
8
Layer 1
10
23.780897
20
26.453577
11
25.142611
21
25.013564
0
LINE
8
Layer 1
10
25.142611
20
25.013564
11
25.951887
21
24.467120
0
LINE
8
Layer 1
10
25.951887
20
24.467120
11
26.842922
21
24.062571
0
LINE
8
Layer 1
10
26.842922
20
24.062571
11
27.812826
21
23.819555
0
LINE
8
Layer 1
10
27.812826
20
23.819555
11
28.858710
21
23.757710
0
LINE
8
Layer 1
10
24.142600
20
29.040600
11
25.662745
21
27.858248
0
LINE
8
Layer 1
10
25.662745
20
27.858248
11
26.839180
21
26.704320
0
LINE
8
Layer 1
10
26.049100
20
28.438100
11
26.853061
21
28.054508
0
LINE
8
Layer 1
10
26.853061
20
28.054508
11
27.520570
21
27.529314
0
LINE
8
Layer 1
10
27.645600
20
27.556700
11
27.821575
21
28.275360
0
LINE
8
Layer 1
10
27.821575
20
28.275360
11
28.125342
21
28.891060
0
LINE
8
Layer 1
10
28.125342
20
28.891060
11
28.585765
21
29.368760
0
LINE
8
Layer 1
10
28.585765
20
29.368760
11
29.231710
21
29.673420
0
LINE
8
Layer 1
10
30.563800
20
20.410600
11
29.673641
21
18.789440
0
LINE
8
Layer 1
10
29.673641
20
18.789440
11
30.462240
21
17.505090
0
LINE
8
Layer 1
10
30.462240
20
17.505090
11
29.623916
21
17.055056
0
LINE
8
Layer 1
10
31.993400
20
21.374200
11
33.327355
21
19.892608
0
LINE
8
Layer 1
10
33.327355
20
19.892608
11
34.401800
21
18.306290
0
LINE
8
Layer 1
10
34.401800
20
18.306290
11
33.825895
21
17.322775
0
LINE
8
Layer 1
10
33.299200
20
32.342900
11
32.797868
21
31.796321
0
LINE
8
Layer 1
10
32.797868
20
31.796321
11
32.212610
21
31.429065
0
LINE
8
Layer 1
10
33.781500
20
33.256500
11
33.450724
21
33.439366
0
LINE
8
Layer 1
10
33.450724
20
33.439366
11
33.240408
21
33.787377
0
LINE
8
Layer 1
10
33.240408
20
33.787377
11
33.077485
21
34.017564
0
LINE
8
Layer 1
10
33.077485
20
34.017564
11
32.888885
21
33.846960
0
LINE
8
Layer 1
10
32.888885
20
33.846960
11
32.271465
21
33.705928
0
LINE
8
Layer 1
10
32.271465
20
33.705928
11
31.731587
21
33.748074
0
LINE
8
Layer 1
10
31.731587
20
33.748074
11
31.390005
21
34.003209
0
LINE
8
Layer 1
10
31.390005
20
34.003209
11
31.367475
21
34.501144
0
LINE
8
Layer 1
10
31.367475
20
34.501144
11
31.375390
21
35.039128
0
LINE
8
Layer 1
10
31.375390
20
35.039128
11
31.009776
21
35.180187
0
LINE
8
Layer 1
10
31.009776
20
35.180187
11
30.596016
21
35.453643
0
LINE
8
Layer 1
10
30.596016
20
35.453643
11
30.427522
21
35.725567
0
LINE
8
Layer 1
10
30.427522
20
35.725567
11
30.329655
21
36.525197
0
LINE
8
Layer 1
10
30.329655
20
36.525197
11
30.265075
21
37.074853
0
LINE
8
Layer 1
10
30.265075
20
37.074853
11
30.321513
21
37.381115
0
LINE
8
Layer 1
10
30.321513
20
37.381115
11
30.369084
21
38.252587
0
LINE
8
Layer 1
10
30.369084
20
38.252587
11
30.415170
21
38.873168
0
LINE
8
Layer 1
10
30.415170
20
38.873168
11
30.672312
21
39.203056
0
LINE
8
Layer 1
10
30.672312
20
39.203056
11
30.967280
21
39.623364
0
LINE
8
Layer 1
10
30.967280
20
39.623364
11
31.126844
21
40.515207
0
LINE
8
Layer 1
10
31.126844
20
40.515207
11
31.471283
21
40.558361
0
LINE
8
Layer 1
10
31.471283
20
40.558361
11
31.730047
21
40.717502
0
LINE
8
Layer 1
10
31.730047
20
40.717502
11
32.104826
21
41.221215
0
LINE
8
Layer 1
10
32.104826
20
41.221215
11
32.479729
21
41.701283
0
LINE
8
Layer 1
10
32.479729
20
41.701283
11
32.738649
21
41.830870
0
LINE
8
Layer 1
10
32.738649
20
41.830870
11
33.083304
21
41.832647
0
LINE
8
Layer 1
10
33.083304
20
41.832647
11
34.453411
21
41.386204
0
LINE
8
Layer 1
10
34.453411
20
41.386204
11
35.080215
21
41.449301
0
LINE
8
Layer 1
10
35.080215
20
41.449301
11
35.299924
21
41.635199
0
LINE
8
Layer 1
10
35.299924
20
41.635199
11
35.427024
21
41.955530
0
LINE
8
Layer 1
10
35.427024
20
41.955530
11
35.601253
21
42.191153
0
LINE
8
Layer 1
10
35.601253
20
42.191153
11
35.810279
21
42.263707
0
LINE
8
Layer 1
10
35.810279
20
42.263707
11
36.329641
21
42.073240
0
LINE
8
Layer 1
10
36.329641
20
42.073240
11
36.978945
21
41.691382
0
LINE
8
Layer 1
10
36.978945
20
41.691382
11
37.752024
21
41.425387
0
LINE
8
Layer 1
10
37.752024
20
41.425387
11
38.438200
21
41.457466
0
LINE
8
Layer 1
10
38.438200
20
41.457466
11
39.005189
21
41.628048
0
LINE
8
Layer 1
10
39.005189
20
41.628048
11
39.565294
21
41.772189
0
LINE
8
Layer 1
10
39.565294
20
41.772189
11
40.230814
21
41.724948
0
LINE
8
Layer 1
10
40.230814
20
41.724948
11
41.560616
21
41.108212
0
LINE
8
Layer 1
10
41.560616
20
41.108212
11
42.118160
21
41.125284
0
LINE
8
Layer 1
10
42.118160
20
41.125284
11
42.542984
21
41.505218
0
LINE
8
Layer 1
10
42.542984
20
41.505218
11
42.970683
21
41.716002
0
LINE
8
Layer 1
10
42.970683
20
41.716002
11
43.521145
21
41.550317
0
LINE
8
Layer 1
10
43.521145
20
41.550317
11
44.851724
21
40.958395
0
LINE
8
Layer 1
10
44.851724
20
40.958395
11
45.384411
21
40.045528
0
LINE
8
Layer 1
10
45.384411
20
40.045528
11
45.711447
21
39.790474
0
LINE
8
Layer 1
10
45.711447
20
39.790474
11
46.381604
21
39.795675
0
LINE
8
Layer 1
10
46.381604
20
39.795675
11
47.326091
21
39.895023
0
LINE
8
Layer 1
10
47.326091
20
39.895023
11
47.578154
21
39.715967
0
LINE
8
Layer 1
10
47.578154
20
39.715967
11
47.623074
21
39.067179
0
LINE
8
Layer 1
10
47.623074
20
39.067179
11
47.657906
21
38.334628
0
LINE
8
Layer 1
10
47.657906
20
38.334628
11
47.920763
21
38.060330
0
LINE
8
Layer 1
10
47.920763
20
38.060330
11
48.956024
21
37.897729
0
LINE
8
Layer 1
10
48.956024
20
37.897729
11
49.488981
21
37.553748
0
LINE
8
Layer 1
10
49.488981
20
37.553748
11
49.742390
21
37.227278
0
LINE
8
Layer 1
10
49.742390
20
37.227278
11
49.879494
21
36.256599
0
LINE
8
Layer 1
10
49.879494
20
36.256599
11
49.608620
21
35.790055
0
LINE
8
Layer 1
10
49.608620
20
35.790055
11
49.383777
21
35.742396
0
LINE
8
Layer 1
10
49.383777
20
35.742396
11
49.245452
21
35.706919
0
LINE
8
Layer 1
10
49.245452
20
35.706919
11
49.234131
21
35.276923
0
LINE
8
Layer 1
10
49.234131
20
35.276923
11
49.368700
21
34.750829
0
LINE
8
Layer 1
10
49.368700
20
34.750829
11
49.347761
21
34.424963
0
LINE
8
Layer 1
10
49.347761
20
34.424963
11
49.055567
21
34.259677
0
LINE
8
Layer 1
10
49.055567
20
34.259677
11
48.376368
21
34.215323
0
LINE
8
Layer 1
10
48.376368
20
34.215323
11
47.652088
21
33.612316
0
LINE
8
Layer 1
10
47.652088
20
33.612316
11
47.244687
21
33.573012
0
LINE
8
Layer 1
10
47.244687
20
33.573012
11
46.774454
21
33.561869
0
LINE
8
Layer 1
10
46.774454
20
33.561869
11
45.861678
21
33.043343
0
LINE
8
Layer 1
10
45.861678
20
33.043343
11
44.786558
21
33.299975
0
LINE
8
Layer 1
10
44.786558
20
33.299975
11
44.023927
21
33.279406
0
LINE
8
Layer 1
10
44.023927
20
33.279406
11
42.399678
21
32.776724
0
LINE
8
Layer 1
10
42.399678
20
32.776724
11
41.872197
21
32.983476
0
LINE
8
Layer 1
10
41.872197
20
32.983476
11
41.596488
21
33.240371
0
LINE
8
Layer 1
10
41.596488
20
33.240371
11
41.346292
21
33.409065
0
LINE
8
Layer 1
10
41.346292
20
33.409065
11
40.895348
21
33.351217
0
LINE
8
Layer 1
10
40.895348
20
33.351217
11
40.443835
21
33.114987
0
LINE
8
Layer 1
10
40.443835
20
33.114987
11
40.215490
21
32.830858
0
LINE
8
Layer 1
10
40.215490
20
32.830858
11
40.011197
21
32.686551
0
LINE
8
Layer 1
10
40.011197
20
32.686551
11
39.631838
21
32.869789
0
LINE
8
Layer 1
10
39.631838
20
32.869789
11
38.844386
21
33.348633
0
LINE
8
Layer 1
10
38.844386
20
33.348633
11
37.908298
21
33.451641
0
LINE
8
Layer 1
10
37.908298
20
33.451641
11
36.941091
21
33.050890
0
LINE
8
Layer 1
10
36.941091
20
33.050890
11
36.046658
21
32.919623
0
LINE
8
Layer 1
10
36.046658
20
32.919623
11
34.859738
21
33.536236
0
LINE
8
Layer 1
10
34.859738
20
33.536236
11
33.781500
21
33.256500
0
LINE
8
Layer 1
10
35.753200
20
38.157900
11
35.661029
21
38.175401
0
LINE
8
Layer 1
10
35.661029
20
38.175401
11
35.577023
21
38.265239
0
LINE
8
Layer 1
10
35.577023
20
38.265239
11
35.481350
21
38.646763
0
LINE
8
Layer 1
10
35.481350
20
38.646763
11
35.374013
21
39.214965
0
LINE
8
Layer 1
10
35.374013
20
39.214965
11
35.300508
21
39.734164
0
LINE
8
Layer 1
10
35.300508
20
39.734164
11
35.300500
21
39.743500
0
LINE
8
Layer 1
10
35.300500
20
39.743500
11
35.362335
21
39.859007
0
LINE
8
Layer 1
10
35.362335
20
39.859007
11
35.467344
21
39.889342
0
LINE
8
Layer 1
10
35.467344
20
39.889342
11
35.531513
21
39.881175
0
LINE
8
Layer 1
10
35.531513
20
39.881175
11
35.607351
21
39.800670
0
LINE
8
Layer 1
10
35.607351
20
39.800670
11
35.697191
21
39.332808
0
LINE
8
Layer 1
10
35.697191
20
39.332808
11
35.764862
21
38.947784
0
LINE
8
Layer 1
10
35.764862
20
38.947784
11
35.817364
21
38.777440
0
LINE
8
Layer 1
10
35.817364
20
38.777440
11
35.857033
21
38.871946
0
LINE
8
Layer 1
10
35.857033
20
38.871946
11
35.914203
21
39.091293
0
LINE
8
Layer 1
10
35.914203
20
39.091293
11
35.983040
21
39.347975
0
LINE
8
Layer 1
10
35.983040
20
39.347975
11
36.079881
21
39.458815
0
LINE
8
Layer 1
10
36.079881
20
39.458815
11
36.160385
21
39.476315
0
LINE
8
Layer 1
10
36.160385
20
39.476315
11
36.240889
21
39.459980
0
LINE
8
Layer 1
10
36.240889
20
39.459980
11
36.327229
21
39.367808
0
LINE
8
Layer 1
10
36.327229
20
39.367808
11
36.453235
21
38.957116
0
LINE
8
Layer 1
10
36.453235
20
38.957116
11
36.498738
21
38.789106
0
LINE
8
Layer 1
10
36.498738
20
38.789106
11
36.527908
21
38.722602
0
LINE
8
Layer 1
10
36.527908
20
38.722602
11
36.669084
21
39.324639
0
LINE
8
Layer 1
10
36.669084
20
39.324639
11
36.769422
21
39.799502
0
LINE
8
Layer 1
10
36.769422
20
39.799502
11
36.854594
21
39.868339
0
LINE
8
Layer 1
10
36.854594
20
39.868339
11
36.910598
21
39.848505
0
LINE
8
Layer 1
10
36.910598
20
39.848505
11
36.940931
21
39.785501
0
LINE
8
Layer 1
10
36.940931
20
39.785501
11
36.825426
21
39.028288
0
LINE
8
Layer 1
10
36.825426
20
39.028288
11
36.688918
21
38.301410
0
LINE
8
Layer 1
10
36.688918
20
38.301410
11
36.488238
21
38.161401
0
LINE
8
Layer 1
10
36.488238
20
38.161401
11
36.285224
21
38.282742
0
LINE
8
Layer 1
10
36.285224
20
38.282742
11
36.216388
21
38.547592
0
LINE
8
Layer 1
10
36.216388
20
38.547592
11
36.163883
21
38.761105
0
LINE
8
Layer 1
10
36.163883
20
38.761105
11
36.110213
21
38.859111
0
LINE
8
Layer 1
10
36.110213
20
38.859111
11
35.971371
21
38.454253
0
LINE
8
Layer 1
10
35.971371
20
38.454253
11
35.924703
21
38.262908
0
LINE
8
Layer 1
10
35.924703
20
38.262908
11
35.825530
21
38.169569
0
LINE
8
Layer 1
10
35.825530
20
38.169569
11
35.753191
21
38.157902
0
LINE
8
Layer 1
10
35.753191
20
38.157902
11
35.753200
21
38.157900
0
LINE
8
Layer 1
10
37.718000
20
38.124100
11
37.583823
21
38.184770
0
LINE
8
Layer 1
10
37.583823
20
38.184770
11
37.553490
21
38.325945
0
LINE
8
Layer 1
10
37.553490
20
38.325945
11
37.518486
21
38.262942
0
LINE
8
Layer 1
10
37.518486
20
38.262942
11
37.293307
21
38.156769
0
LINE
8
Layer 1
10
37.293307
20
38.156769
11
37.286300
21
38.156800
0
LINE
8
Layer 1
10
37.286300
20
38.156800
11
37.059952
21
38.254806
0
LINE
8
Layer 1
10
37.059952
20
38.254806
11
36.937445
21
38.468319
0
LINE
8
Layer 1
10
36.937445
20
38.468319
11
36.902444
21
38.714501
0
LINE
8
Layer 1
10
36.902444
20
38.714501
11
36.966613
21
39.052855
0
LINE
8
Layer 1
10
36.966613
20
39.052855
11
37.114791
21
39.272202
0
LINE
8
Layer 1
10
37.114791
20
39.272202
11
37.345804
21
39.358540
0
LINE
8
Layer 1
10
37.345804
20
39.358540
11
37.468311
21
39.331707
0
LINE
8
Layer 1
10
37.468311
20
39.331707
11
37.545318
21
39.267536
0
LINE
8
Layer 1
10
37.545318
20
39.267536
11
37.584987
21
39.196365
0
LINE
8
Layer 1
10
37.584987
20
39.196365
11
37.597828
21
39.290870
0
LINE
8
Layer 1
10
37.597828
20
39.290870
11
37.756504
21
39.371376
0
LINE
8
Layer 1
10
37.756504
20
39.371376
11
37.839342
21
39.357375
0
LINE
8
Layer 1
10
37.839342
20
39.357375
11
37.917514
21
39.259369
0
LINE
8
Layer 1
10
37.917514
20
39.259369
11
37.918643
21
39.117027
0
LINE
8
Layer 1
10
37.918643
20
39.117027
11
37.911644
21
38.549992
0
LINE
8
Layer 1
10
37.911644
20
38.549992
11
37.901145
21
38.266474
0
LINE
8
Layer 1
10
37.901145
20
38.266474
11
37.839308
21
38.160301
0
LINE
8
Layer 1
10
37.839308
20
38.160301
11
37.717969
21
38.124132
0
LINE
8
Layer 1
10
37.717969
20
38.124132
11
37.718000
21
38.124100
0
LINE
8
Layer 1
10
37.353976
20
38.302611
11
37.457817
21
38.366782
0
LINE
8
Layer 1
10
37.457817
20
38.366782
11
37.538321
21
38.532459
0
LINE
8
Layer 1
10
37.538321
20
38.532459
11
37.582658
21
38.720304
0
LINE
8
Layer 1
10
37.582658
20
38.720304
11
37.594314
21
38.866146
0
LINE
8
Layer 1
10
37.594314
20
38.866146
11
37.538310
21
39.126329
0
LINE
8
Layer 1
10
37.538310
20
39.126329
11
37.421637
21
39.190499
0
LINE
8
Layer 1
10
37.421637
20
39.190499
11
37.297962
21
39.099493
0
LINE
8
Layer 1
10
37.297962
20
39.099493
11
37.230293
21
38.891814
0
LINE
8
Layer 1
10
37.230293
20
38.891814
11
37.211638
21
38.670134
0
LINE
8
Layer 1
10
37.211638
20
38.670134
11
37.253641
21
38.393617
0
LINE
8
Layer 1
10
37.253641
20
38.393617
11
37.353979
21
38.302612
0
LINE
8
Layer 1
10
37.353979
20
38.302612
11
37.353976
21
38.302611
0
LINE
8
Layer 1
10
38.253500
20
38.145100
11
38.130990
21
38.183602
0
LINE
8
Layer 1
10
38.130990
20
38.183602
11
38.041153
21
38.301443
0
LINE
8
Layer 1
10
38.041153
20
38.301443
11
38.022498
21
38.544125
0
LINE
8
Layer 1
10
38.022498
20
38.544125
11
38.013157
21
39.118160
0
LINE
8
Layer 1
10
38.013157
20
39.118160
11
38.014286
21
39.404011
0
LINE
8
Layer 1
10
38.014286
20
39.404011
11
37.990900
21
39.404000
0
LINE
8
Layer 1
10
37.990900
20
39.404000
11
37.933730
21
39.406342
0
LINE
8
Layer 1
10
37.933730
20
39.406342
11
37.881226
21
39.490348
0
LINE
8
Layer 1
10
37.881226
20
39.490348
11
37.888225
21
39.532350
0
LINE
8
Layer 1
10
37.888225
20
39.532350
11
37.929060
21
39.572019
0
LINE
8
Layer 1
10
37.929060
20
39.572019
11
38.018899
21
39.593022
0
LINE
8
Layer 1
10
38.018899
20
39.593022
11
38.025898
21
39.707362
0
LINE
8
Layer 1
10
38.025898
20
39.707362
11
38.079569
21
39.783200
0
LINE
8
Layer 1
10
38.079569
20
39.783200
11
38.188078
21
39.810034
0
LINE
8
Layer 1
10
38.188078
20
39.810034
11
38.293084
21
39.778532
0
LINE
8
Layer 1
10
38.293084
20
39.778532
11
38.338586
21
39.687526
0
LINE
8
Layer 1
10
38.338586
20
39.687526
11
38.338600
21
39.623400
0
LINE
8
Layer 1
10
38.338600
20
39.623400
11
38.413270
21
39.626900
0
LINE
8
Layer 1
10
38.413270
20
39.626900
11
38.490275
21
39.533561
0
LINE
8
Layer 1
10
38.490275
20
39.533561
11
38.491403
21
39.514892
0
LINE
8
Layer 1
10
38.491403
20
39.514892
11
38.429566
21
39.434387
0
LINE
8
Layer 1
10
38.429566
20
39.434387
11
38.340892
21
39.427385
0
LINE
8
Layer 1
10
38.340892
20
39.427385
11
38.352576
21
38.244315
0
LINE
8
Layer 1
10
38.352576
20
38.244315
11
38.253403
21
38.145142
0
LINE
8
Layer 1
10
38.253403
20
38.145142
11
38.253500
21
38.145100
0
LINE
8
Layer 1
10
39.994300
20
38.150900
11
39.888125
21
38.169569
0
LINE
8
Layer 1
10
39.888125
20
38.169569
11
39.809955
21
38.252407
0
LINE
8
Layer 1
10
39.809955
20
38.252407
11
39.806456
21
38.301411
0
LINE
8
Layer 1
10
39.806456
20
38.301411
11
39.808713
21
38.336413
0
LINE
8
Layer 1
10
39.808713
20
38.336413
11
39.808700
21
38.346900
0
LINE
8
Layer 1
10
39.808700
20
38.346900
11
39.713027
21
38.219726
0
LINE
8
Layer 1
10
39.713027
20
38.219726
11
39.539184
21
38.159056
0
LINE
8
Layer 1
10
39.539184
20
38.159056
11
39.284834
21
38.281563
0
LINE
8
Layer 1
10
39.284834
20
38.281563
11
39.156494
21
38.727257
0
LINE
8
Layer 1
10
39.156494
20
38.727257
11
39.185661
21
38.972272
0
LINE
8
Layer 1
10
39.185661
20
38.972272
11
39.310502
21
39.235955
0
LINE
8
Layer 1
10
39.310502
20
39.235955
11
39.559018
21
39.364296
0
LINE
8
Layer 1
10
39.559018
20
39.364296
11
39.669858
21
39.349129
0
LINE
8
Layer 1
10
39.669858
20
39.349129
11
39.744531
21
39.312960
0
LINE
8
Layer 1
10
39.744531
20
39.312960
11
39.790034
21
39.269791
0
LINE
8
Layer 1
10
39.790034
20
39.269791
11
39.812189
21
39.232455
0
LINE
8
Layer 1
10
39.812189
20
39.232455
11
39.818031
21
39.217289
0
LINE
8
Layer 1
10
39.818031
20
39.217289
11
39.820288
21
39.385299
0
LINE
8
Layer 1
10
39.820288
20
39.385299
11
39.829630
21
39.622147
0
LINE
8
Layer 1
10
39.829630
20
39.622147
11
39.844785
21
39.814659
0
LINE
8
Layer 1
10
39.844785
20
39.814659
11
39.999962
21
39.905664
0
LINE
8
Layer 1
10
39.999962
20
39.905664
11
40.110802
21
39.883496
0
LINE
8
Layer 1
10
40.110802
20
39.883496
11
40.185472
21
39.795990
0
LINE
8
Layer 1
10
40.185472
20
39.795990
11
40.194814
21
39.042277
0
LINE
8
Layer 1
10
40.194814
20
39.042277
11
40.183158
21
38.278063
0
LINE
8
Layer 1
10
40.183158
20
38.278063
11
39.994148
21
38.150888
0
LINE
8
Layer 1
10
39.994148
20
38.150888
11
39.994300
21
38.150900
0
LINE
8
Layer 1
10
39.625611
20
38.392415
11
39.734117
21
38.450752
0
LINE
8
Layer 1
10
39.734117
20
38.450752
11
39.797120
21
38.596594
0
LINE
8
Layer 1
10
39.797120
20
38.596594
11
39.816960
21
38.780939
0
LINE
8
Layer 1
10
39.816960
20
38.780939
11
39.816900
21
38.839300
0
LINE
8
Layer 1
10
39.816900
20
38.839300
11
39.797060
21
38.982809
0
LINE
8
Layer 1
10
39.797060
20
38.982809
11
39.739890
21
39.130985
0
LINE
8
Layer 1
10
39.739890
20
39.130985
11
39.650050
21
39.189322
0
LINE
8
Layer 1
10
39.650050
20
39.189322
11
39.536876
21
39.108817
0
LINE
8
Layer 1
10
39.536876
20
39.108817
11
39.473873
21
38.786797
0
LINE
8
Layer 1
10
39.473873
20
38.786797
11
39.482029
21
38.642122
0
LINE
8
Layer 1
10
39.482029
20
38.642122
11
39.528698
21
38.474112
0
LINE
8
Layer 1
10
39.528698
20
38.474112
11
39.625539
21
38.392440
0
LINE
8
Layer 1
10
39.625539
20
38.392440
11
39.625611
21
38.392415
0
LINE
8
Layer 1
10
40.690800
20
38.156800
11
40.481956
21
38.222137
0
LINE
8
Layer 1
10
40.481956
20
38.222137
11
40.350113
21
38.397148
0
LINE
8
Layer 1
10
40.350113
20
38.397148
11
40.288275
21
38.719168
0
LINE
8
Layer 1
10
40.288275
20
38.719168
11
40.306930
21
38.912847
0
LINE
8
Layer 1
10
40.306930
20
38.912847
11
40.382769
21
39.127527
0
LINE
8
Layer 1
10
40.382769
20
39.127527
11
40.527444
21
39.301371
0
LINE
8
Layer 1
10
40.527444
20
39.301371
11
40.735123
21
39.367875
0
LINE
8
Layer 1
10
40.735123
20
39.367875
11
40.905467
21
39.307205
0
LINE
8
Layer 1
10
40.905467
20
39.307205
11
41.010473
21
39.152029
0
LINE
8
Layer 1
10
41.010473
20
39.152029
11
41.047808
21
38.936182
0
LINE
8
Layer 1
10
41.047808
20
38.936182
11
41.018640
21
38.747170
0
LINE
8
Layer 1
10
41.018640
20
38.747170
11
40.924136
21
38.595494
0
LINE
8
Layer 1
10
40.924136
20
38.595494
11
40.761960
21
38.534823
0
LINE
8
Layer 1
10
40.761960
20
38.534823
11
40.662787
21
38.553492
0
LINE
8
Layer 1
10
40.662787
20
38.553492
11
40.609117
21
38.595495
0
LINE
8
Layer 1
10
40.609117
20
38.595495
11
40.586934
21
38.633997
0
LINE
8
Layer 1
10
40.586934
20
38.633997
11
40.686107
21
38.388982
0
LINE
8
Layer 1
10
40.686107
20
38.388982
11
40.739777
21
38.374981
0
LINE
8
Layer 1
10
40.739777
20
38.374981
11
40.894951
21
38.462487
0
LINE
8
Layer 1
10
40.894951
20
38.462487
11
40.954455
21
38.493989
0
LINE
8
Layer 1
10
40.954455
20
38.493989
11
40.982451
21
38.488155
0
LINE
8
Layer 1
10
40.982451
20
38.488155
11
41.019789
21
38.444986
0
LINE
8
Layer 1
10
41.019789
20
38.444986
11
41.027945
21
38.406483
0
LINE
8
Layer 1
10
41.027945
20
38.406483
11
40.957943
21
38.271141
0
LINE
8
Layer 1
10
40.957943
20
38.271141
11
40.690758
21
38.156801
0
LINE
8
Layer 1
10
40.690758
20
38.156801
11
40.690800
21
38.156800
0
LINE
8
Layer 1
10
40.668646
20
38.772838
11
40.770150
21
38.867344
0
LINE
8
Layer 1
10
40.770150
20
38.867344
11
40.813321
21
39.069190
0
LINE
8
Layer 1
10
40.813321
20
39.069190
11
40.803980
21
39.148528
0
LINE
8
Layer 1
10
40.803980
20
39.148528
11
40.757311
21
39.191697
0
LINE
8
Layer 1
10
40.757311
20
39.191697
11
40.689640
21
39.146195
0
LINE
8
Layer 1
10
40.689640
20
39.146195
11
40.638304
21
39.036521
0
LINE
8
Layer 1
10
40.638304
20
39.036521
11
40.606802
21
38.909346
0
LINE
8
Layer 1
10
40.606802
20
38.909346
11
40.596304
21
38.813674
0
LINE
8
Layer 1
10
40.596304
20
38.813674
11
40.596300
21
38.806600
0
LINE
8
Layer 1
10
40.596300
20
38.806600
11
40.668639
21
38.772765
0
LINE
8
Layer 1
10
40.668639
20
38.772765
11
40.668646
21
38.772838
0
LINE
8
Layer 1
10
41.949700
20
38.146300
11
41.788692
21
38.290976
0
LINE
8
Layer 1
10
41.788692
20
38.290976
11
41.785192
21
38.482321
0
LINE
8
Layer 1
10
41.785192
20
38.482321
11
41.789849
21
38.810175
0
LINE
8
Layer 1
10
41.789849
20
38.810175
11
41.786350
21
38.980519
0
LINE
8
Layer 1
10
41.786350
20
38.980519
11
41.753680
21
39.153196
0
LINE
8
Layer 1
10
41.753680
20
39.153196
11
41.652173
21
39.230201
0
LINE
8
Layer 1
10
41.652173
20
39.230201
11
41.550669
21
39.183531
0
LINE
8
Layer 1
10
41.550669
20
39.183531
11
41.488831
21
39.066857
0
LINE
8
Layer 1
10
41.488831
20
39.066857
11
41.467834
21
38.926848
0
LINE
8
Layer 1
10
41.467834
20
38.926848
11
41.449179
21
38.241973
0
LINE
8
Layer 1
10
41.449179
20
38.241973
11
41.368672
21
38.161468
0
LINE
8
Layer 1
10
41.368672
20
38.161468
11
41.295170
21
38.149801
0
LINE
8
Layer 1
10
41.295170
20
38.149801
11
41.201831
21
38.167302
0
LINE
8
Layer 1
10
41.201831
20
38.167302
11
41.144658
21
38.268808
0
LINE
8
Layer 1
10
41.144658
20
38.268808
11
41.141159
21
38.896513
0
LINE
8
Layer 1
10
41.141159
20
38.896513
11
41.145815
21
39.260535
0
LINE
8
Layer 1
10
41.145815
20
39.260535
11
41.236821
21
39.370208
0
LINE
8
Layer 1
10
41.236821
20
39.370208
11
41.311491
21
39.383043
0
LINE
8
Layer 1
10
41.311491
20
39.383043
11
41.466668
21
39.261702
0
LINE
8
Layer 1
10
41.466668
20
39.261702
11
41.599676
21
39.353874
0
LINE
8
Layer 1
10
41.599676
20
39.353874
11
41.751351
21
39.387710
0
LINE
8
Layer 1
10
41.751351
20
39.387710
11
41.973034
21
39.302538
0
LINE
8
Layer 1
10
41.973034
20
39.302538
11
42.078040
21
39.065690
0
LINE
8
Layer 1
10
42.078040
20
39.065690
11
42.102537
21
38.749504
0
LINE
8
Layer 1
10
42.102537
20
38.749504
11
42.081540
21
38.244306
0
LINE
8
Layer 1
10
42.081540
20
38.244306
11
42.003367
21
38.154467
0
LINE
8
Layer 1
10
42.003367
20
38.154467
11
41.949697
21
38.146300
0
LINE
8
Layer 1
10
41.949697
20
38.146300
11
41.949700
21
38.146300
0
LINE
8
Layer 1
10
43.004400
20
38.146300
11
42.843390
21
38.290976
0
LINE
8
Layer 1
10
42.843390
20
38.290976
11
42.839890
21
38.482321
0
LINE
8
Layer 1
10
42.839890
20
38.482321
11
42.844547
21
38.810175
0
LINE
8
Layer 1
10
42.844547
20
38.810175
11
42.841048
21
38.980519
0
LINE
8
Layer 1
10
42.841048
20
38.980519
11
42.808380
21
39.153196
0
LINE
8
Layer 1
10
42.808380
20
39.153196
11
42.706873
21
39.230201
0
LINE
8
Layer 1
10
42.706873
20
39.230201
11
42.605366
21
39.183531
0
LINE
8
Layer 1
10
42.605366
20
39.183531
11
42.543529
21
39.066857
0
LINE
8
Layer 1
10
42.543529
20
39.066857
11
42.522531
21
38.926848
0
LINE
8
Layer 1
10
42.522531
20
38.926848
11
42.503848
21
38.241973
0
LINE
8
Layer 1
10
42.503848
20
38.241973
11
42.423344
21
38.161468
0
LINE
8
Layer 1
10
42.423344
20
38.161468
11
42.349840
21
38.149801
0
LINE
8
Layer 1
10
42.349840
20
38.149801
11
42.256500
21
38.167302
0
LINE
8
Layer 1
10
42.256500
20
38.167302
11
42.199331
21
38.268808
0
LINE
8
Layer 1
10
42.199331
20
38.268808
11
42.195831
21
38.896513
0
LINE
8
Layer 1
10
42.195831
20
38.896513
11
42.200488
21
39.260535
0
LINE
8
Layer 1
10
42.200488
20
39.260535
11
42.291493
21
39.370208
0
LINE
8
Layer 1
10
42.291493
20
39.370208
11
42.366166
21
39.383043
0
LINE
8
Layer 1
10
42.366166
20
39.383043
11
42.521340
21
39.261702
0
LINE
8
Layer 1
10
42.521340
20
39.261702
11
42.654348
21
39.353874
0
LINE
8
Layer 1
10
42.654348
20
39.353874
11
42.806025
21
39.387710
0
LINE
8
Layer 1
10
42.806025
20
39.387710
11
43.027705
21
39.302538
0
LINE
8
Layer 1
10
43.027705
20
39.302538
11
43.132711
21
39.065690
0
LINE
8
Layer 1
10
43.132711
20
39.065690
11
43.157208
21
38.749504
0
LINE
8
Layer 1
10
43.157208
20
38.749504
11
43.136211
21
38.244306
0
LINE
8
Layer 1
10
43.136211
20
38.244306
11
43.058041
21
38.154467
0
LINE
8
Layer 1
10
43.058041
20
38.154467
11
43.004371
21
38.146300
0
LINE
8
Layer 1
10
43.004371
20
38.146300
11
43.004400
21
38.146300
0
LINE
8
Layer 1
10
43.342800
20
38.015600
11
43.313632
21
38.021434
0
LINE
8
Layer 1
10
43.313632
20
38.021434
11
43.261128
21
38.077437
0
LINE
8
Layer 1
10
43.261128
20
38.077437
11
43.272784
21
38.110106
0
LINE
8
Layer 1
10
43.272784
20
38.110106
11
43.299623
21
38.180110
0
LINE
8
Layer 1
10
43.299623
20
38.180110
11
43.278626
21
38.238447
0
LINE
8
Layer 1
10
43.278626
20
38.238447
11
43.250629
21
38.317785
0
LINE
8
Layer 1
10
43.250629
20
38.317785
11
43.255286
21
38.358621
0
LINE
8
Layer 1
10
43.255286
20
38.358621
11
43.335792
21
38.457794
0
LINE
8
Layer 1
10
43.335792
20
38.457794
11
43.395296
21
38.463627
0
LINE
8
Layer 1
10
43.395296
20
38.463627
11
43.520137
21
38.395956
0
LINE
8
Layer 1
10
43.520137
20
38.395956
11
43.546976
21
38.283949
0
LINE
8
Layer 1
10
43.546976
20
38.283949
11
43.522480
21
38.176609
0
LINE
8
Layer 1
10
43.522480
20
38.176609
11
43.377805
21
38.022600
0
LINE
8
Layer 1
10
43.377805
20
38.022600
11
43.342803
21
38.015598
0
LINE
8
Layer 1
10
43.342803
20
38.015598
11
43.342800
21
38.015600
0
LINE
8
Layer 1
10
32.774500
20
35.159400
11
32.663657
21
35.188568
0
LINE
8
Layer 1
10
32.663657
20
35.188568
11
32.594820
21
35.302908
0
LINE
8
Layer 1
10
32.594820
20
35.302908
11
32.577322
21
35.628428
0
LINE
8
Layer 1
10
32.577322
20
35.628428
11
32.556325
21
36.167461
0
LINE
8
Layer 1
10
32.556325
20
36.167461
11
32.499153
21
36.172129
0
LINE
8
Layer 1
10
32.499153
20
36.172129
11
32.448985
21
36.229300
0
LINE
8
Layer 1
10
32.448985
20
36.229300
11
32.439643
21
36.287636
0
LINE
8
Layer 1
10
32.439643
20
36.287636
11
32.446642
21
36.337806
0
LINE
8
Layer 1
10
32.446642
20
36.337806
11
32.495645
21
36.377475
0
LINE
8
Layer 1
10
32.495645
20
36.377475
11
32.562150
21
36.382143
0
LINE
8
Layer 1
10
32.562150
20
36.382143
11
32.647322
21
36.762500
0
LINE
8
Layer 1
10
32.647322
20
36.762500
11
32.885337
21
36.913009
0
LINE
8
Layer 1
10
32.885337
20
36.913009
11
33.103517
21
36.819670
0
LINE
8
Layer 1
10
33.103517
20
36.819670
11
33.174688
21
36.629492
0
LINE
8
Layer 1
10
33.174688
20
36.629492
11
33.150191
21
36.544320
0
LINE
8
Layer 1
10
33.150191
20
36.544320
11
33.081354
21
36.503484
0
LINE
8
Layer 1
10
33.081354
20
36.503484
11
33.040516
21
36.526818
0
LINE
8
Layer 1
10
33.040516
20
36.526818
11
33.018362
21
36.571155
0
LINE
8
Layer 1
10
33.018362
20
36.571155
11
32.934356
21
36.684329
0
LINE
8
Layer 1
10
32.934356
20
36.684329
11
32.923857
21
36.681986
0
LINE
8
Layer 1
10
32.923857
20
36.681986
11
32.884188
21
36.399635
0
LINE
8
Layer 1
10
32.884188
20
36.399635
11
32.985695
21
36.401978
0
LINE
8
Layer 1
10
32.985695
20
36.401978
11
33.056866
21
36.399635
0
LINE
8
Layer 1
10
33.056866
20
36.399635
11
33.143206
21
36.302796
0
LINE
8
Layer 1
10
33.143206
20
36.302796
11
33.063868
21
36.195456
0
LINE
8
Layer 1
10
33.063868
20
36.195456
11
32.886523
21
36.173288
0
LINE
8
Layer 1
10
32.886523
20
36.173288
11
32.905206
21
35.689092
0
LINE
8
Layer 1
10
32.905206
20
35.689092
11
32.919204
21
35.325069
0
LINE
8
Layer 1
10
32.919204
20
35.325069
11
32.918075
21
35.281899
0
LINE
8
Layer 1
10
32.918075
20
35.281899
11
32.774568
21
35.159392
0
LINE
8
Layer 1
10
32.774568
20
35.159392
11
32.774500
21
35.159400
0
LINE
8
Layer 1
10
33.504900
20
35.157100
11
33.285554
21
35.322777
0
LINE
8
Layer 1
10
33.285554
20
35.322777
11
33.212049
21
35.701967
0
LINE
8
Layer 1
10
33.212049
20
35.701967
11
33.206207
21
35.965650
0
LINE
8
Layer 1
10
33.206207
20
35.965650
11
33.208465
21
36.138327
0
LINE
8
Layer 1
10
33.208465
20
36.138327
11
33.210723
21
36.297003
0
LINE
8
Layer 1
10
33.210723
20
36.297003
11
33.301731
21
36.384509
0
LINE
8
Layer 1
10
33.301731
20
36.384509
11
33.360066
21
36.391510
0
LINE
8
Layer 1
10
33.360066
20
36.391510
11
33.484907
21
36.362342
0
LINE
8
Layer 1
10
33.484907
20
36.362342
11
33.565414
21
36.243335
0
LINE
8
Layer 1
10
33.565414
20
36.243335
11
33.566543
21
36.137162
0
LINE
8
Layer 1
10
33.566543
20
36.137162
11
33.561886
21
35.931816
0
LINE
8
Layer 1
10
33.561886
20
35.931816
11
33.557229
21
35.733470
0
LINE
8
Layer 1
10
33.557229
20
35.733470
11
33.560729
21
35.579461
0
LINE
8
Layer 1
10
33.560729
20
35.579461
11
33.612065
21
35.475621
0
LINE
8
Layer 1
10
33.612065
20
35.475621
11
33.776575
21
35.818642
0
LINE
8
Layer 1
10
33.776575
20
35.818642
11
33.868749
21
36.270170
0
LINE
8
Layer 1
10
33.868749
20
36.270170
11
33.965588
21
36.362342
0
LINE
8
Layer 1
10
33.965588
20
36.362342
11
34.042592
21
36.374009
0
LINE
8
Layer 1
10
34.042592
20
36.374009
11
34.144099
21
36.353009
0
LINE
8
Layer 1
10
34.144099
20
36.353009
11
34.208268
21
36.250336
0
LINE
8
Layer 1
10
34.208268
20
36.250336
11
34.207139
21
36.044990
0
LINE
8
Layer 1
10
34.207139
20
36.044990
11
34.208268
21
35.854812
0
LINE
8
Layer 1
10
34.208268
20
35.854812
11
34.197769
21
35.265609
0
LINE
8
Layer 1
10
34.197769
20
35.265609
11
34.061261
21
35.166437
0
LINE
8
Layer 1
10
34.061261
20
35.166437
11
33.862915
21
35.301779
0
LINE
8
Layer 1
10
33.862915
20
35.301779
11
33.851231
21
35.558462
0
LINE
8
Layer 1
10
33.851231
20
35.558462
11
33.852360
21
35.636633
0
LINE
8
Layer 1
10
33.852360
20
35.636633
11
33.794022
21
35.445288
0
LINE
8
Layer 1
10
33.794022
20
35.445288
11
33.682017
21
35.246943
0
LINE
8
Layer 1
10
33.682017
20
35.246943
11
33.504672
21
35.157104
0
LINE
8
Layer 1
10
33.504672
20
35.157104
11
33.504900
21
35.157100
0
LINE
8
Layer 1
10
35.110300
20
35.159400
11
34.949290
21
35.304075
0
LINE
8
Layer 1
10
34.949290
20
35.304075
11
34.945790
21
35.495420
0
LINE
8
Layer 1
10
34.945790
20
35.495420
11
34.950447
21
35.823274
0
LINE
8
Layer 1
10
34.950447
20
35.823274
11
34.946948
21
35.993618
0
LINE
8
Layer 1
10
34.946948
20
35.993618
11
34.914278
21
36.166295
0
LINE
8
Layer 1
10
34.914278
20
36.166295
11
34.812774
21
36.243300
0
LINE
8
Layer 1
10
34.812774
20
36.243300
11
34.711267
21
36.196630
0
LINE
8
Layer 1
10
34.711267
20
36.196630
11
34.649429
21
36.079956
0
LINE
8
Layer 1
10
34.649429
20
36.079956
11
34.628432
21
35.939947
0
LINE
8
Layer 1
10
34.628432
20
35.939947
11
34.609777
21
35.255071
0
LINE
8
Layer 1
10
34.609777
20
35.255071
11
34.529273
21
35.174566
0
LINE
8
Layer 1
10
34.529273
20
35.174566
11
34.455768
21
35.162899
0
LINE
8
Layer 1
10
34.455768
20
35.162899
11
34.362429
21
35.180400
0
LINE
8
Layer 1
10
34.362429
20
35.180400
11
34.305259
21
35.281906
0
LINE
8
Layer 1
10
34.305259
20
35.281906
11
34.301760
21
35.909611
0
LINE
8
Layer 1
10
34.301760
20
35.909611
11
34.306416
21
36.273633
0
LINE
8
Layer 1
10
34.306416
20
36.273633
11
34.397422
21
36.383306
0
LINE
8
Layer 1
10
34.397422
20
36.383306
11
34.472092
21
36.396141
0
LINE
8
Layer 1
10
34.472092
20
36.396141
11
34.627269
21
36.274800
0
LINE
8
Layer 1
10
34.627269
20
36.274800
11
34.760277
21
36.366972
0
LINE
8
Layer 1
10
34.760277
20
36.366972
11
34.911954
21
36.400808
0
LINE
8
Layer 1
10
34.911954
20
36.400808
11
35.133634
21
36.315636
0
LINE
8
Layer 1
10
35.133634
20
36.315636
11
35.238640
21
36.078788
0
LINE
8
Layer 1
10
35.238640
20
36.078788
11
35.263137
21
35.762602
0
LINE
8
Layer 1
10
35.263137
20
35.762602
11
35.242139
21
35.257404
0
LINE
8
Layer 1
10
35.242139
20
35.257404
11
35.163970
21
35.167565
0
LINE
8
Layer 1
10
35.163970
20
35.167565
11
35.110299
21
35.159398
0
LINE
8
Layer 1
10
35.110299
20
35.159398
11
35.110300
21
35.159400
0
LINE
8
Layer 1
10
36.022700
20
35.145400
11
35.965530
21
35.148900
0
LINE
8
Layer 1
10
35.965530
20
35.148900
11
35.882692
21
35.200236
0
LINE
8
Layer 1
10
35.882692
20
35.200236
11
35.784688
21
35.459252
0
LINE
8
Layer 1
10
35.784688
20
35.459252
11
35.690180
21
35.697267
0
LINE
8
Layer 1
10
35.690180
20
35.697267
11
35.690200
21
35.637800
0
LINE
8
Layer 1
10
35.690200
20
35.637800
11
35.682044
21
35.273777
0
LINE
8
Layer 1
10
35.682044
20
35.273777
11
35.596872
21
35.167604
0
LINE
8
Layer 1
10
35.596872
20
35.167604
11
35.511700
21
35.148935
0
LINE
8
Layer 1
10
35.511700
20
35.148935
11
35.426528
21
35.166436
0
LINE
8
Layer 1
10
35.426528
20
35.166436
11
35.362360
21
35.271442
0
LINE
8
Layer 1
10
35.362360
20
35.271442
11
35.356518
21
35.530458
0
LINE
8
Layer 1
10
35.356518
20
35.530458
11
35.393856
21
36.795198
0
LINE
8
Layer 1
10
35.393856
20
36.795198
11
35.445192
21
36.882703
0
LINE
8
Layer 1
10
35.445192
20
36.882703
11
35.551364
21
36.913038
0
LINE
8
Layer 1
10
35.551364
20
36.913038
11
35.586300
21
36.913000
0
LINE
8
Layer 1
10
35.586300
20
36.913000
11
35.665638
21
36.877998
0
LINE
8
Layer 1
10
35.665638
20
36.877998
11
35.713472
21
36.770658
0
LINE
8
Layer 1
10
35.713472
20
36.770658
11
35.697131
21
35.958608
0
LINE
8
Layer 1
10
35.697131
20
35.958608
11
35.770636
21
36.077615
0
LINE
8
Layer 1
10
35.770636
20
36.077615
11
35.884975
21
36.238625
0
LINE
8
Layer 1
10
35.884975
20
36.238625
11
35.993481
21
36.349465
0
LINE
8
Layer 1
10
35.993481
20
36.349465
11
36.052985
21
36.364631
0
LINE
8
Layer 1
10
36.052985
20
36.364631
11
36.168493
21
36.307461
0
LINE
8
Layer 1
10
36.168493
20
36.307461
11
36.183648
21
36.268959
0
LINE
8
Layer 1
10
36.183648
20
36.268959
11
36.173149
21
36.237457
0
LINE
8
Layer 1
10
36.173149
20
36.237457
11
36.113646
21
36.161619
0
LINE
8
Layer 1
10
36.113646
20
36.161619
11
35.946802
21
35.932938
0
LINE
8
Layer 1
10
35.946802
20
35.932938
11
36.024971
21
35.673922
0
LINE
8
Layer 1
10
36.024971
20
35.673922
11
36.111312
21
35.430074
0
LINE
8
Layer 1
10
36.111312
20
35.430074
11
36.163813
21
35.293565
0
LINE
8
Layer 1
10
36.163813
20
35.293565
11
36.176655
21
35.242228
0
LINE
8
Layer 1
10
36.176655
20
35.242228
11
36.139319
21
35.178058
0
LINE
8
Layer 1
10
36.139319
20
35.178058
11
36.022643
21
35.145389
0
LINE
8
Layer 1
10
36.022643
20
35.145389
11
36.022700
21
35.145400
0
LINE
8
Layer 1
10
36.518500
20
35.158200
11
36.395993
21
35.196702
0
LINE
8
Layer 1
10
36.395993
20
35.196702
11
36.306156
21
35.314542
0
LINE
8
Layer 1
10
36.306156
20
35.314542
11
36.287501
21
35.557224
0
LINE
8
Layer 1
10
36.287501
20
35.557224
11
36.278160
21
36.131259
0
LINE
8
Layer 1
10
36.278160
20
36.131259
11
36.279289
21
36.417110
0
LINE
8
Layer 1
10
36.279289
20
36.417110
11
36.256000
21
36.417100
0
LINE
8
Layer 1
10
36.256000
20
36.417100
11
36.198830
21
36.419442
0
LINE
8
Layer 1
10
36.198830
20
36.419442
11
36.146326
21
36.503448
0
LINE
8
Layer 1
10
36.146326
20
36.503448
11
36.153325
21
36.545450
0
LINE
8
Layer 1
10
36.153325
20
36.545450
11
36.194160
21
36.585119
0
LINE
8
Layer 1
10
36.194160
20
36.585119
11
36.283999
21
36.606120
0
LINE
8
Layer 1
10
36.283999
20
36.606120
11
36.290998
21
36.720460
0
LINE
8
Layer 1
10
36.290998
20
36.720460
11
36.344669
21
36.796298
0
LINE
8
Layer 1
10
36.344669
20
36.796298
11
36.453175
21
36.823134
0
LINE
8
Layer 1
10
36.453175
20
36.823134
11
36.558181
21
36.791632
0
LINE
8
Layer 1
10
36.558181
20
36.791632
11
36.603683
21
36.700626
0
LINE
8
Layer 1
10
36.603683
20
36.700626
11
36.603700
21
36.636500
0
LINE
8
Layer 1
10
36.603700
20
36.636500
11
36.678373
21
36.640000
0
LINE
8
Layer 1
10
36.678373
20
36.640000
11
36.755377
21
36.546661
0
LINE
8
Layer 1
10
36.755377
20
36.546661
11
36.756506
21
36.527992
0
LINE
8
Layer 1
10
36.756506
20
36.527992
11
36.694671
21
36.447487
0
LINE
8
Layer 1
10
36.694671
20
36.447487
11
36.605997
21
36.440487
0
LINE
8
Layer 1
10
36.605997
20
36.440487
11
36.617653
21
35.257417
0
LINE
8
Layer 1
10
36.617653
20
35.257417
11
36.518480
21
35.158245
0
LINE
8
Layer 1
10
36.518480
20
35.158245
11
36.518500
21
35.158200
0
LINE
8
Layer 1
10
36.971200
20
35.168700
11
36.938533
21
35.169857
0
LINE
8
Layer 1
10
36.938533
20
35.169857
11
36.860360
21
35.203692
0
LINE
8
Layer 1
10
36.860360
20
35.203692
11
36.802022
21
35.305198
0
LINE
8
Layer 1
10
36.802022
20
35.305198
11
36.776368
21
35.776560
0
LINE
8
Layer 1
10
36.776368
20
35.776560
11
36.791551
21
36.275924
0
LINE
8
Layer 1
10
36.791551
20
36.275924
11
36.947894
21
36.387931
0
LINE
8
Layer 1
10
36.947894
20
36.387931
11
37.055234
21
36.363429
0
LINE
8
Layer 1
10
37.055234
20
36.363429
11
37.125237
21
36.271257
0
LINE
8
Layer 1
10
37.125237
20
36.271257
11
37.126366
21
36.180251
0
LINE
8
Layer 1
10
37.126366
20
36.180251
11
37.124108
21
35.983072
0
LINE
8
Layer 1
10
37.124108
20
35.983072
11
37.113609
21
35.292363
0
LINE
8
Layer 1
10
37.113609
20
35.292363
11
37.069275
21
35.199024
0
LINE
8
Layer 1
10
37.069275
20
35.199024
11
36.971268
21
35.168689
0
LINE
8
Layer 1
10
36.971268
20
35.168689
11
36.971200
21
35.168700
0
LINE
8
Layer 1
10
36.943204
20
36.450950
11
36.842866
21
36.485952
0
LINE
8
Layer 1
10
36.842866
20
36.485952
11
36.803197
21
36.588625
0
LINE
8
Layer 1
10
36.803197
20
36.588625
11
36.786856
21
36.742635
0
LINE
8
Layer 1
10
36.786856
20
36.742635
11
36.876696
21
36.810306
0
LINE
8
Layer 1
10
36.876696
20
36.810306
11
36.975868
21
36.821973
0
LINE
8
Layer 1
10
36.975868
20
36.821973
11
37.139210
21
36.779970
0
LINE
8
Layer 1
10
37.139210
20
36.779970
11
37.159050
21
36.719299
0
LINE
8
Layer 1
10
37.159050
20
36.719299
11
37.145052
21
36.608459
0
LINE
8
Layer 1
10
37.145052
20
36.608459
11
37.097218
21
36.496452
0
LINE
8
Layer 1
10
37.097218
20
36.496452
11
37.020211
21
36.460284
0
LINE
8
Layer 1
10
37.020211
20
36.460284
11
36.943207
21
36.450951
0
LINE
8
Layer 1
10
36.943207
20
36.450951
11
36.943204
21
36.450950
0
LINE
8
Layer 1
10
37.666600
20
35.173400
11
37.412253
21
35.258572
0
LINE
8
Layer 1
10
37.412253
20
35.258572
11
37.264075
21
35.481419
0
LINE
8
Layer 1
10
37.264075
20
35.481419
11
37.219741
21
35.749769
0
LINE
8
Layer 1
10
37.219741
20
35.749769
11
37.220870
21
35.841941
0
LINE
8
Layer 1
10
37.220870
20
35.841941
11
37.278039
21
36.061288
0
LINE
8
Layer 1
10
37.278039
20
36.061288
11
37.437884
21
36.286468
0
LINE
8
Layer 1
10
37.437884
20
36.286468
11
37.698067
21
36.375141
0
LINE
8
Layer 1
10
37.698067
20
36.375141
11
37.922081
21
36.309803
0
LINE
8
Layer 1
10
37.922081
20
36.309803
11
38.066756
21
36.138292
0
LINE
8
Layer 1
10
38.066756
20
36.138292
11
38.136759
21
35.812772
0
LINE
8
Layer 1
10
38.136759
20
35.812772
11
38.116918
21
35.626094
0
LINE
8
Layer 1
10
38.116918
20
35.626094
11
38.038749
21
35.414914
0
LINE
8
Layer 1
10
38.038749
20
35.414914
11
37.885906
21
35.242237
0
LINE
8
Layer 1
10
37.885906
20
35.242237
11
37.666557
21
35.173400
0
LINE
8
Layer 1
10
37.666557
20
35.173400
11
37.666600
21
35.173400
0
LINE
8
Layer 1
10
37.713271
20
35.414915
11
37.836946
21
35.488420
0
LINE
8
Layer 1
10
37.836946
20
35.488420
11
37.901115
21
35.780105
0
LINE
8
Layer 1
10
37.901115
20
35.780105
11
37.887117
21
35.934114
0
LINE
8
Layer 1
10
37.887117
20
35.934114
11
37.828781
21
36.104458
0
LINE
8
Layer 1
10
37.828781
20
36.104458
11
37.710939
21
36.184963
0
LINE
8
Layer 1
10
37.710939
20
36.184963
11
37.600099
21
36.107958
0
LINE
8
Layer 1
10
37.600099
20
36.107958
11
37.525429
21
35.778938
0
LINE
8
Layer 1
10
37.525429
20
35.778938
11
37.532428
21
35.658764
0
LINE
8
Layer 1
10
37.532428
20
35.658764
11
37.583764
21
35.502421
0
LINE
8
Layer 1
10
37.583764
20
35.502421
11
37.708605
21
35.414915
0
LINE
8
Layer 1
10
37.708605
20
35.414915
11
37.713271
21
35.414915
0
LINE
8
Layer 1
10
39.038700
20
35.159400
11
38.877690
21
35.304075
0
LINE
8
Layer 1
10
38.877690
20
35.304075
11
38.874190
21
35.495420
0
LINE
8
Layer 1
10
38.874190
20
35.495420
11
38.878847
21
35.823274
0
LINE
8
Layer 1
10
38.878847
20
35.823274
11
38.875348
21
35.993618
0
LINE
8
Layer 1
10
38.875348
20
35.993618
11
38.842678
21
36.166295
0
LINE
8
Layer 1
10
38.842678
20
36.166295
11
38.741174
21
36.243300
0
LINE
8
Layer 1
10
38.741174
20
36.243300
11
38.639667
21
36.196630
0
LINE
8
Layer 1
10
38.639667
20
36.196630
11
38.577829
21
36.079956
0
LINE
8
Layer 1
10
38.577829
20
36.079956
11
38.556832
21
35.939947
0
LINE
8
Layer 1
10
38.556832
20
35.939947
11
38.538177
21
35.255071
0
LINE
8
Layer 1
10
38.538177
20
35.255071
11
38.457673
21
35.174566
0
LINE
8
Layer 1
10
38.457673
20
35.174566
11
38.384168
21
35.162899
0
LINE
8
Layer 1
10
38.384168
20
35.162899
11
38.290829
21
35.180400
0
LINE
8
Layer 1
10
38.290829
20
35.180400
11
38.233659
21
35.281906
0
LINE
8
Layer 1
10
38.233659
20
35.281906
11
38.230160
21
35.909611
0
LINE
8
Layer 1
10
38.230160
20
35.909611
11
38.234816
21
36.273633
0
LINE
8
Layer 1
10
38.234816
20
36.273633
11
38.325822
21
36.383306
0
LINE
8
Layer 1
10
38.325822
20
36.383306
11
38.400492
21
36.396141
0
LINE
8
Layer 1
10
38.400492
20
36.396141
11
38.555669
21
36.274800
0
LINE
8
Layer 1
10
38.555669
20
36.274800
11
38.688677
21
36.366972
0
LINE
8
Layer 1
10
38.688677
20
36.366972
11
38.840354
21
36.400808
0
LINE
8
Layer 1
10
38.840354
20
36.400808
11
39.062034
21
36.315636
0
LINE
8
Layer 1
10
39.062034
20
36.315636
11
39.167040
21
36.078788
0
LINE
8
Layer 1
10
39.167040
20
36.078788
11
39.191537
21
35.762602
0
LINE
8
Layer 1
10
39.191537
20
35.762602
11
39.170539
21
35.257404
0
LINE
8
Layer 1
10
39.170539
20
35.257404
11
39.092367
21
35.167565
0
LINE
8
Layer 1
10
39.092367
20
35.167565
11
39.038699
21
35.159398
0
LINE
8
Layer 1
10
39.038699
20
35.159398
11
39.038700
21
35.159400
0
LINE
8
Layer 1
10
39.479700
20
35.168700
11
39.447033
21
35.169857
0
LINE
8
Layer 1
10
39.447033
20
35.169857
11
39.368860
21
35.203692
0
LINE
8
Layer 1
10
39.368860
20
35.203692
11
39.310525
21
35.305198
0
LINE
8
Layer 1
10
39.310525
20
35.305198
11
39.284843
21
35.776560
0
LINE
8
Layer 1
10
39.284843
20
35.776560
11
39.300026
21
36.275924
0
LINE
8
Layer 1
10
39.300026
20
36.275924
11
39.456369
21
36.387931
0
LINE
8
Layer 1
10
39.456369
20
36.387931
11
39.563709
21
36.363429
0
LINE
8
Layer 1
10
39.563709
20
36.363429
11
39.633714
21
36.271257
0
LINE
8
Layer 1
10
39.633714
20
36.271257
11
39.634843
21
36.180251
0
LINE
8
Layer 1
10
39.634843
20
36.180251
11
39.632585
21
35.983072
0
LINE
8
Layer 1
10
39.632585
20
35.983072
11
39.622087
21
35.292363
0
LINE
8
Layer 1
10
39.622087
20
35.292363
11
39.577752
21
35.199024
0
LINE
8
Layer 1
10
39.577752
20
35.199024
11
39.479745
21
35.168689
0
LINE
8
Layer 1
10
39.479745
20
35.168689
11
39.479700
21
35.168700
0
LINE
8
Layer 1
10
39.451704
20
36.450950
11
39.351366
21
36.485952
0
LINE
8
Layer 1
10
39.351366
20
36.485952
11
39.311697
21
36.588625
0
LINE
8
Layer 1
10
39.311697
20
36.588625
11
39.295356
21
36.742635
0
LINE
8
Layer 1
10
39.295356
20
36.742635
11
39.385196
21
36.810306
0
LINE
8
Layer 1
10
39.385196
20
36.810306
11
39.484368
21
36.821973
0
LINE
8
Layer 1
10
39.484368
20
36.821973
11
39.647710
21
36.779970
0
LINE
8
Layer 1
10
39.647710
20
36.779970
11
39.667550
21
36.719299
0
LINE
8
Layer 1
10
39.667550
20
36.719299
11
39.653552
21
36.608459
0
LINE
8
Layer 1
10
39.653552
20
36.608459
11
39.605716
21
36.496452
0
LINE
8
Layer 1
10
39.605716
20
36.496452
11
39.528709
21
36.460284
0
LINE
8
Layer 1
10
39.528709
20
36.460284
11
39.451704
21
36.450951
0
LINE
8
Layer 1
10
39.451704
20
36.450951
11
39.451704
21
36.450950
0
LINE
8
Layer 1
10
40.130800
20
35.169900
11
39.921953
21
35.235237
0
LINE
8
Layer 1
10
39.921953
20
35.235237
11
39.790113
21
35.410248
0
LINE
8
Layer 1
10
39.790113
20
35.410248
11
39.728275
21
35.732268
0
LINE
8
Layer 1
10
39.728275
20
35.732268
11
39.746930
21
35.925947
0
LINE
8
Layer 1
10
39.746930
20
35.925947
11
39.822769
21
36.140627
0
LINE
8
Layer 1
10
39.822769
20
36.140627
11
39.967444
21
36.314471
0
LINE
8
Layer 1
10
39.967444
20
36.314471
11
40.175123
21
36.380975
0
LINE
8
Layer 1
10
40.175123
20
36.380975
11
40.345467
21
36.320305
0
LINE
8
Layer 1
10
40.345467
20
36.320305
11
40.450476
21
36.165129
0
LINE
8
Layer 1
10
40.450476
20
36.165129
11
40.487811
21
35.949283
0
LINE
8
Layer 1
10
40.487811
20
35.949283
11
40.458641
21
35.760271
0
LINE
8
Layer 1
10
40.458641
20
35.760271
11
40.364136
21
35.608595
0
LINE
8
Layer 1
10
40.364136
20
35.608595
11
40.201960
21
35.547925
0
LINE
8
Layer 1
10
40.201960
20
35.547925
11
40.102787
21
35.566594
0
LINE
8
Layer 1
10
40.102787
20
35.566594
11
40.049117
21
35.608596
0
LINE
8
Layer 1
10
40.049117
20
35.608596
11
40.026934
21
35.647099
0
LINE
8
Layer 1
10
40.026934
20
35.647099
11
40.126107
21
35.402084
0
LINE
8
Layer 1
10
40.126107
20
35.402084
11
40.179777
21
35.388083
0
LINE
8
Layer 1
10
40.179777
20
35.388083
11
40.334954
21
35.475588
0
LINE
8
Layer 1
10
40.334954
20
35.475588
11
40.394458
21
35.507090
0
LINE
8
Layer 1
10
40.394458
20
35.507090
11
40.422454
21
35.501257
0
LINE
8
Layer 1
10
40.422454
20
35.501257
11
40.459789
21
35.458087
0
LINE
8
Layer 1
10
40.459789
20
35.458087
11
40.467945
21
35.419585
0
LINE
8
Layer 1
10
40.467945
20
35.419585
11
40.397940
21
35.284243
0
LINE
8
Layer 1
10
40.397940
20
35.284243
11
40.130758
21
35.169903
0
LINE
8
Layer 1
10
40.130758
20
35.169903
11
40.130800
21
35.169900
0
LINE
8
Layer 1
10
40.108617
20
35.785938
11
40.210124
21
35.880444
0
LINE
8
Layer 1
10
40.210124
20
35.880444
11
40.253293
21
36.082290
0
LINE
8
Layer 1
10
40.253293
20
36.082290
11
40.243952
21
36.161628
0
LINE
8
Layer 1
10
40.243952
20
36.161628
11
40.197280
21
36.204797
0
LINE
8
Layer 1
10
40.197280
20
36.204797
11
40.129609
21
36.159295
0
LINE
8
Layer 1
10
40.129609
20
36.159295
11
40.078273
21
36.049622
0
LINE
8
Layer 1
10
40.078273
20
36.049622
11
40.046771
21
35.922447
0
LINE
8
Layer 1
10
40.046771
20
35.922447
11
40.036273
21
35.826774
0
LINE
8
Layer 1
10
40.036273
20
35.826774
11
40.036200
21
35.819800
0
LINE
8
Layer 1
10
40.036200
20
35.819800
11
40.108539
21
35.785964
0
LINE
8
Layer 1
10
40.108539
20
35.785964
11
40.108617
21
35.785938
0
LINE
8
Layer 1
10
40.767800
20
35.169900
11
40.663959
21
35.196734
0
LINE
8
Layer 1
10
40.663959
20
35.196734
11
40.588120
21
35.315741
0
LINE
8
Layer 1
10
40.588120
20
35.315741
11
40.581121
21
35.617927
0
LINE
8
Layer 1
10
40.581121
20
35.617927
11
40.595119
21
36.239799
0
LINE
8
Layer 1
10
40.595119
20
36.239799
11
40.682622
21
36.358806
0
LINE
8
Layer 1
10
40.682622
20
36.358806
11
40.774796
21
36.379806
0
LINE
8
Layer 1
10
40.774796
20
36.379806
11
40.861133
21
36.362305
0
LINE
8
Layer 1
10
40.861133
20
36.362305
11
40.926473
21
36.250298
0
LINE
8
Layer 1
10
40.926473
20
36.250298
11
41.152818
21
36.361138
0
LINE
8
Layer 1
10
41.152818
20
36.361138
11
41.310329
21
36.275966
0
LINE
8
Layer 1
10
41.310329
20
36.275966
11
41.325485
21
36.209462
0
LINE
8
Layer 1
10
41.325485
20
36.209462
11
41.261316
21
36.082287
0
LINE
8
Layer 1
10
41.261316
20
36.082287
11
41.222812
21
36.069455
0
LINE
8
Layer 1
10
41.222812
20
36.069455
11
41.173810
21
36.086955
0
LINE
8
Layer 1
10
41.173810
20
36.086955
11
41.120140
21
36.105624
0
LINE
8
Layer 1
10
41.120140
20
36.105624
11
41.053634
21
36.082290
0
LINE
8
Layer 1
10
41.053634
20
36.082290
11
40.971965
21
35.981950
0
LINE
8
Layer 1
10
40.971965
20
35.981950
11
40.925294
21
35.810439
0
LINE
8
Layer 1
10
40.925294
20
35.810439
11
40.908953
21
35.288907
0
LINE
8
Layer 1
10
40.908953
20
35.288907
11
40.829615
21
35.180400
0
LINE
8
Layer 1
10
40.829615
20
35.180400
11
40.767780
21
35.169899
0
LINE
8
Layer 1
10
40.767780
20
35.169899
11
40.767800
21
35.169900
0
LINE
8
Layer 1
10
41.660400
20
35.158200
11
41.537893
21
35.196702
0
LINE
8
Layer 1
10
41.537893
20
35.196702
11
41.448056
21
35.314542
0
LINE
8
Layer 1
10
41.448056
20
35.314542
11
41.429401
21
35.557224
0
LINE
8
Layer 1
10
41.429401
20
35.557224
11
41.420060
21
36.131259
0
LINE
8
Layer 1
10
41.420060
20
36.131259
11
41.421189
21
36.417110
0
LINE
8
Layer 1
10
41.421189
20
36.417110
11
41.397800
21
36.417100
0
LINE
8
Layer 1
10
41.397800
20
36.417100
11
41.340630
21
36.419442
0
LINE
8
Layer 1
10
41.340630
20
36.419442
11
41.288126
21
36.503448
0
LINE
8
Layer 1
10
41.288126
20
36.503448
11
41.295125
21
36.545450
0
LINE
8
Layer 1
10
41.295125
20
36.545450
11
41.335960
21
36.585119
0
LINE
8
Layer 1
10
41.335960
20
36.585119
11
41.425799
21
36.606120
0
LINE
8
Layer 1
10
41.425799
20
36.606120
11
41.432798
21
36.720460
0
LINE
8
Layer 1
10
41.432798
20
36.720460
11
41.486469
21
36.796298
0
LINE
8
Layer 1
10
41.486469
20
36.796298
11
41.594975
21
36.823134
0
LINE
8
Layer 1
10
41.594975
20
36.823134
11
41.699981
21
36.791632
0
LINE
8
Layer 1
10
41.699981
20
36.791632
11
41.745486
21
36.700626
0
LINE
8
Layer 1
10
41.745486
20
36.700626
11
41.745500
21
36.636500
0
LINE
8
Layer 1
10
41.745500
20
36.636500
11
41.820170
21
36.640000
0
LINE
8
Layer 1
10
41.820170
20
36.640000
11
41.897175
21
36.546661
0
LINE
8
Layer 1
10
41.897175
20
36.546661
11
41.898303
21
36.527992
0
LINE
8
Layer 1
10
41.898303
20
36.527992
11
41.836469
21
36.447487
0
LINE
8
Layer 1
10
41.836469
20
36.447487
11
41.747794
21
36.440487
0
LINE
8
Layer 1
10
41.747794
20
36.440487
11
41.759450
21
35.257417
0
LINE
8
Layer 1
10
41.759450
20
35.257417
11
41.660277
21
35.158245
0
LINE
8
Layer 1
10
41.660277
20
35.158245
11
41.660400
21
35.158200
0
LINE
8
Layer 1
10
43.401100
20
35.164100
11
43.294925
21
35.182769
0
LINE
8
Layer 1
10
43.294925
20
35.182769
11
43.216755
21
35.265607
0
LINE
8
Layer 1
10
43.216755
20
35.265607
11
43.213256
21
35.314611
0
LINE
8
Layer 1
10
43.213256
20
35.314611
11
43.215513
21
35.349613
0
LINE
8
Layer 1
10
43.215513
20
35.349613
11
43.215600
21
35.360100
0
LINE
8
Layer 1
10
43.215600
20
35.360100
11
43.119927
21
35.232925
0
LINE
8
Layer 1
10
43.119927
20
35.232925
11
42.946084
21
35.172255
0
LINE
8
Layer 1
10
42.946084
20
35.172255
11
42.691734
21
35.294762
0
LINE
8
Layer 1
10
42.691734
20
35.294762
11
42.563394
21
35.740456
0
LINE
8
Layer 1
10
42.563394
20
35.740456
11
42.592561
21
35.985471
0
LINE
8
Layer 1
10
42.592561
20
35.985471
11
42.717402
21
36.249154
0
LINE
8
Layer 1
10
42.717402
20
36.249154
11
42.965918
21
36.377495
0
LINE
8
Layer 1
10
42.965918
20
36.377495
11
43.076758
21
36.362328
0
LINE
8
Layer 1
10
43.076758
20
36.362328
11
43.151431
21
36.326159
0
LINE
8
Layer 1
10
43.151431
20
36.326159
11
43.196934
21
36.282990
0
LINE
8
Layer 1
10
43.196934
20
36.282990
11
43.219089
21
36.245654
0
LINE
8
Layer 1
10
43.219089
20
36.245654
11
43.224931
21
36.230488
0
LINE
8
Layer 1
10
43.224931
20
36.230488
11
43.227188
21
36.398498
0
LINE
8
Layer 1
10
43.227188
20
36.398498
11
43.236530
21
36.635346
0
LINE
8
Layer 1
10
43.236530
20
36.635346
11
43.251685
21
36.827858
0
LINE
8
Layer 1
10
43.251685
20
36.827858
11
43.406862
21
36.918863
0
LINE
8
Layer 1
10
43.406862
20
36.918863
11
43.517702
21
36.896695
0
LINE
8
Layer 1
10
43.517702
20
36.896695
11
43.592372
21
36.809189
0
LINE
8
Layer 1
10
43.592372
20
36.809189
11
43.601714
21
36.055476
0
LINE
8
Layer 1
10
43.601714
20
36.055476
11
43.590058
21
35.291262
0
LINE
8
Layer 1
10
43.590058
20
35.291262
11
43.401048
21
35.164087
0
LINE
8
Layer 1
10
43.401048
20
35.164087
11
43.401100
21
35.164100
0
LINE
8
Layer 1
10
43.032411
20
35.405615
11
43.140917
21
35.463952
0
LINE
8
Layer 1
10
43.140917
20
35.463952
11
43.203920
21
35.609794
0
LINE
8
Layer 1
10
43.203920
20
35.609794
11
43.223760
21
35.794139
0
LINE
8
Layer 1
10
43.223760
20
35.794139
11
43.223800
21
35.852400
0
LINE
8
Layer 1
10
43.223800
20
35.852400
11
43.203960
21
35.995909
0
LINE
8
Layer 1
10
43.203960
20
35.995909
11
43.146790
21
36.144085
0
LINE
8
Layer 1
10
43.146790
20
36.144085
11
43.056950
21
36.202422
0
LINE
8
Layer 1
10
43.056950
20
36.202422
11
42.943776
21
36.121917
0
LINE
8
Layer 1
10
42.943776
20
36.121917
11
42.880773
21
35.799897
0
LINE
8
Layer 1
10
42.880773
20
35.799897
11
42.888929
21
35.655221
0
LINE
8
Layer 1
10
42.888929
20
35.655221
11
42.935598
21
35.487211
0
LINE
8
Layer 1
10
42.935598
20
35.487211
11
43.032439
21
35.405539
0
LINE
8
Layer 1
10
43.032439
20
35.405539
11
43.032411
21
35.405615
0
LINE
8
Layer 1
10
44.142000
20
35.173400
11
43.887650
21
35.258572
0
LINE
8
Layer 1
10
43.887650
20
35.258572
11
43.739475
21
35.481419
0
LINE
8
Layer 1
10
43.739475
20
35.481419
11
43.695138
21
35.749769
0
LINE
8
Layer 1
10
43.695138
20
35.749769
11
43.696267
21
35.841941
0
LINE
8
Layer 1
10
43.696267
20
35.841941
11
43.753436
21
36.061288
0
LINE
8
Layer 1
10
43.753436
20
36.061288
11
43.913278
21
36.286468
0
LINE
8
Layer 1
10
43.913278
20
36.286468
11
44.173461
21
36.375141
0
LINE
8
Layer 1
10
44.173461
20
36.375141
11
44.397475
21
36.309803
0
LINE
8
Layer 1
10
44.397475
20
36.309803
11
44.542150
21
36.138292
0
LINE
8
Layer 1
10
44.542150
20
36.138292
11
44.612156
21
35.812772
0
LINE
8
Layer 1
10
44.612156
20
35.812772
11
44.592315
21
35.626094
0
LINE
8
Layer 1
10
44.592315
20
35.626094
11
44.514143
21
35.414914
0
LINE
8
Layer 1
10
44.514143
20
35.414914
11
44.361300
21
35.242237
0
LINE
8
Layer 1
10
44.361300
20
35.242237
11
44.141954
21
35.173400
0
LINE
8
Layer 1
10
44.141954
20
35.173400
11
44.142000
21
35.173400
0
LINE
8
Layer 1
10
44.188668
20
35.414915
11
44.312343
21
35.488420
0
LINE
8
Layer 1
10
44.312343
20
35.488420
11
44.376515
21
35.780105
0
LINE
8
Layer 1
10
44.376515
20
35.780105
11
44.362517
21
35.934114
0
LINE
8
Layer 1
10
44.362517
20
35.934114
11
44.304178
21
36.104458
0
LINE
8
Layer 1
10
44.304178
20
36.104458
11
44.186336
21
36.184963
0
LINE
8
Layer 1
10
44.186336
20
36.184963
11
44.075496
21
36.107958
0
LINE
8
Layer 1
10
44.075496
20
36.107958
11
44.000826
21
35.778938
0
LINE
8
Layer 1
10
44.000826
20
35.778938
11
44.007825
21
35.658764
0
LINE
8
Layer 1
10
44.007825
20
35.658764
11
44.059164
21
35.502421
0
LINE
8
Layer 1
10
44.059164
20
35.502421
11
44.184005
21
35.414915
0
LINE
8
Layer 1
10
44.184005
20
35.414915
11
44.188668
21
35.414915
0
LINE
8
Layer 1
10
45.106900
20
35.159400
11
44.896887
21
35.225904
0
LINE
8
Layer 1
10
44.896887
20
35.225904
11
44.765047
21
35.402081
0
LINE
8
Layer 1
10
44.765047
20
35.402081
11
44.711377
21
35.594593
0
LINE
8
Layer 1
10
44.711377
20
35.594593
11
44.705535
21
35.713600
0
LINE
8
Layer 1
10
44.705535
20
35.713600
11
44.805873
21
36.141793
0
LINE
8
Layer 1
10
44.805873
20
36.141793
11
44.951717
21
36.316804
0
LINE
8
Layer 1
10
44.951717
20
36.316804
11
45.158230
21
36.384475
0
LINE
8
Layer 1
10
45.158230
20
36.384475
11
45.349574
21
36.328472
0
LINE
8
Layer 1
10
45.349574
20
36.328472
11
45.444079
21
36.207131
0
LINE
8
Layer 1
10
45.444079
20
36.207131
11
45.467419
21
36.085790
0
LINE
8
Layer 1
10
45.467419
20
36.085790
11
45.399747
21
35.895612
0
LINE
8
Layer 1
10
45.399747
20
35.895612
11
45.305240
21
35.854776
0
LINE
8
Layer 1
10
45.305240
20
35.854776
11
45.220068
21
35.876944
0
LINE
8
Layer 1
10
45.220068
20
35.876944
11
45.192071
21
35.923614
0
LINE
8
Layer 1
10
45.192071
20
35.923614
11
45.197913
21
35.948116
0
LINE
8
Layer 1
10
45.197913
20
35.948116
11
45.227081
21
36.083458
0
LINE
8
Layer 1
10
45.227081
20
36.083458
11
45.153576
21
36.205965
0
LINE
8
Layer 1
10
45.153576
20
36.205965
11
45.063737
21
36.123127
0
LINE
8
Layer 1
10
45.063737
20
36.123127
11
45.014734
21
35.944616
0
LINE
8
Layer 1
10
45.014734
20
35.944616
11
45.003079
21
35.775439
0
LINE
8
Layer 1
10
45.003079
20
35.775439
11
45.056749
21
35.483754
0
LINE
8
Layer 1
10
45.056749
20
35.483754
11
45.167589
21
35.400915
0
LINE
8
Layer 1
10
45.167589
20
35.400915
11
45.250427
21
35.427752
0
LINE
8
Layer 1
10
45.250427
20
35.427752
11
45.311096
21
35.493089
0
LINE
8
Layer 1
10
45.311096
20
35.493089
11
45.349599
21
35.564260
0
LINE
8
Layer 1
10
45.349599
20
35.564260
11
45.386935
21
35.600429
0
LINE
8
Layer 1
10
45.386935
20
35.600429
11
45.412589
21
35.602772
0
LINE
8
Layer 1
10
45.412589
20
35.602772
11
45.467427
21
35.581772
0
LINE
8
Layer 1
10
45.467427
20
35.581772
11
45.494266
21
35.521101
0
LINE
8
Layer 1
10
45.494266
20
35.521101
11
45.470927
21
35.421928
0
LINE
8
Layer 1
10
45.470927
20
35.421928
11
45.286582
21
35.201414
0
LINE
8
Layer 1
10
45.286582
20
35.201414
11
45.106903
21
35.159412
0
LINE
8
Layer 1
10
45.106903
20
35.159412
11
45.106900
21
35.159400
0
LINE
8
Layer 1
10
45.774300
20
35.159400
11
45.676293
21
35.182734
0
LINE
8
Layer 1
10
45.676293
20
35.182734
11
45.608624
21
35.306408
0
LINE
8
Layer 1
10
45.608624
20
35.306408
11
45.595783
21
35.798772
0
LINE
8
Layer 1
10
45.595783
20
35.798772
11
45.587627
21
36.495315
0
LINE
8
Layer 1
10
45.587627
20
36.495315
11
45.592284
21
36.808001
0
LINE
8
Layer 1
10
45.592284
20
36.808001
11
45.740459
21
36.909507
0
LINE
8
Layer 1
10
45.740459
20
36.909507
11
45.850133
21
36.885005
0
LINE
8
Layer 1
10
45.850133
20
36.885005
11
45.916636
21
36.786999
0
LINE
8
Layer 1
10
45.916636
20
36.786999
11
45.916600
21
36.286500
0
LINE
8
Layer 1
10
45.916600
20
36.286500
11
45.965602
21
36.336670
0
LINE
8
Layer 1
10
45.965602
20
36.336670
11
46.064775
21
36.398507
0
LINE
8
Layer 1
10
46.064775
20
36.398507
11
46.207119
21
36.427675
0
LINE
8
Layer 1
10
46.207119
20
36.427675
11
46.447465
21
36.339003
0
LINE
8
Layer 1
10
46.447465
20
36.339003
11
46.560639
21
36.093988
0
LINE
8
Layer 1
10
46.560639
20
36.093988
11
46.588635
21
35.761468
0
LINE
8
Layer 1
10
46.588635
20
35.761468
11
46.572295
21
35.287772
0
LINE
8
Layer 1
10
46.572295
20
35.287772
11
46.482455
21
35.176932
0
LINE
8
Layer 1
10
46.482455
20
35.176932
11
46.407782
21
35.164097
0
LINE
8
Layer 1
10
46.407782
20
35.164097
11
46.233939
21
35.302939
0
LINE
8
Layer 1
10
46.233939
20
35.302939
11
46.229282
21
35.558455
0
LINE
8
Layer 1
10
46.229282
20
35.558455
11
46.230411
21
35.684463
0
LINE
8
Layer 1
10
46.230411
20
35.684463
11
46.232669
21
35.837306
0
LINE
8
Layer 1
10
46.232669
20
35.837306
11
46.229169
21
36.007650
0
LINE
8
Layer 1
10
46.229169
20
36.007650
11
46.199999
21
36.186161
0
LINE
8
Layer 1
10
46.199999
20
36.186161
11
46.108994
21
36.265499
0
LINE
8
Layer 1
10
46.108994
20
36.265499
11
45.952651
21
36.036818
0
LINE
8
Layer 1
10
45.952651
20
36.036818
11
45.930496
21
35.592291
0
LINE
8
Layer 1
10
45.930496
20
35.592291
11
45.930500
21
35.519900
0
LINE
8
Layer 1
10
45.930500
20
35.519900
11
45.929371
21
35.279552
0
LINE
8
Layer 1
10
45.929371
20
35.279552
11
45.846531
21
35.173379
0
LINE
8
Layer 1
10
45.846531
20
35.173379
11
45.774194
21
35.159378
0
LINE
8
Layer 1
10
45.774194
20
35.159378
11
45.774300
21
35.159400
0
LINE
8
Layer 1
10
46.876900
20
35.623800
11
46.749725
21
35.719473
0
LINE
8
Layer 1
10
46.749725
20
35.719473
11
46.726385
21
35.946987
0
LINE
8
Layer 1
10
46.726385
20
35.946987
11
46.682048
21
36.756704
0
LINE
8
Layer 1
10
46.682048
20
36.756704
11
46.683177
21
36.784706
0
LINE
8
Layer 1
10
46.683177
20
36.784706
11
46.790514
21
36.895546
0
LINE
8
Layer 1
10
46.790514
20
36.895546
11
46.886187
21
36.908378
0
LINE
8
Layer 1
10
46.886187
20
36.908378
11
47.088032
21
36.776537
0
LINE
8
Layer 1
10
47.088032
20
36.776537
11
47.067035
21
36.416015
0
LINE
8
Layer 1
10
47.067035
20
36.416015
11
46.999364
21
35.719472
0
LINE
8
Layer 1
10
46.999364
20
35.719472
11
46.876857
21
35.623800
0
LINE
8
Layer 1
10
46.876857
20
35.623800
11
46.876900
21
35.623800
0
LINE
8
Layer 1
10
46.885056
20
35.164105
11
46.771882
21
35.211941
0
LINE
8
Layer 1
10
46.771882
20
35.211941
11
46.733379
21
35.290113
0
LINE
8
Layer 1
10
46.733379
20
35.290113
11
46.732250
21
35.323948
0
LINE
8
Layer 1
10
46.732250
20
35.323948
11
46.770751
21
35.428955
0
LINE
8
Layer 1
10
46.770751
20
35.428955
11
46.886259
21
35.476791
0
LINE
8
Layer 1
10
46.886259
20
35.476791
11
47.001767
21
35.428955
0
LINE
8
Layer 1
10
47.001767
20
35.428955
11
47.039102
21
35.323948
0
LINE
8
Layer 1
10
47.039102
20
35.323948
11
46.999433
21
35.213108
0
LINE
8
Layer 1
10
46.999433
20
35.213108
11
46.885094
21
35.164105
0
LINE
8
Layer 1
10
46.885094
20
35.164105
11
46.885056
21
35.164105
0
LINE
8
Layer 1
10
33.299200
20
32.342900
11
32.797868
21
31.796321
0
LINE
8
Layer 1
10
32.797868
20
31.796321
11
32.212610
21
31.429065
0
LINE
8
Layer 1
10
16.628100
20
12.521200
11
16.204801
21
11.608396
0
LINE
8
Layer 1
10
16.204801
20
11.608396
11
15.879791
21
11.295298
0
LINE
8
Layer 1
10
15.879791
20
11.295298
11
15.395590
21
11.183440
0
LINE
8
Layer 1
10
15.395590
20
11.183440
11
14.755917
21
11.394088
0
LINE
8
Layer 1
10
14.755917
20
11.394088
11
14.311449
21
11.860957
0
LINE
8
Layer 1
10
14.311449
20
11.860957
11
14.244279
21
12.554969
0
LINE
8
Layer 1
10
14.244279
20
12.554969
11
14.736498
21
13.447040
0
LINE
8
Layer 1
10
14.736498
20
13.447040
11
15.237077
21
13.909619
0
LINE
8
Layer 1
10
15.237077
20
13.909619
11
15.865338
21
14.277604
0
LINE
8
Layer 1
10
15.865338
20
14.277604
11
16.636136
21
14.388795
0
LINE
8
Layer 1
10
16.636136
20
14.388795
11
17.564328
21
14.080995
0
LINE
8
Layer 1
10
17.564328
20
14.080995
11
17.981877
21
13.491544
0
LINE
8
Layer 1
10
17.981877
20
13.491544
11
17.920849
21
12.984622
0
LINE
8
Layer 1
10
17.920849
20
12.984622
11
17.591957
21
12.610130
0
LINE
8
Layer 1
10
17.591957
20
12.610130
11
17.205917
21
12.417965
0
LINE
8
Layer 1
10
15.739000
20
10.821400
11
15.162710
21
9.539066
0
LINE
8
Layer 1
10
15.162710
20
9.539066
11
14.859436
21
8.484540
0
LINE
8
Layer 1
10
14.859436
20
8.484540
11
14.780024
21
7.641458
0
LINE
8
Layer 1
10
14.780024
20
7.641458
11
14.875317
21
6.993455
0
LINE
8
Layer 1
10
14.875317
20
6.993455
11
15.096161
21
6.524166
0
LINE
8
Layer 1
10
15.096161
20
6.524166
11
15.393400
21
6.217225
0
LINE
8
Layer 1
10
15.393400
20
6.217225
11
16.020443
21
6.024930
0
LINE
8
Layer 1
10
16.020443
20
6.024930
11
16.578789
21
6.221822
0
LINE
8
Layer 1
10
16.578789
20
6.221822
11
16.948516
21
6.654334
0
LINE
8
Layer 1
10
16.948516
20
6.654334
11
17.163652
21
7.285527
0
LINE
8
Layer 1
10
17.163652
20
7.285527
11
17.258223
21
8.078460
0
LINE
8
Layer 1
10
17.258223
20
8.078460
11
17.273341
21
8.950791
0
LINE
8
Layer 1
10
17.273341
20
8.950791
11
17.145211
21
9.793602
0
LINE
8
Layer 1
10
17.145211
20
9.793602
11
16.750512
21
10.530082
0
LINE
8
Layer 1
10
16.750512
20
10.530082
11
15.965923
21
11.083420
0
LINE
8
Layer 1
10
14.543800
20
8.114890
11
14.763315
21
7.693057
0
LINE
8
Layer 1
10
14.763315
20
7.693057
11
14.610714
21
7.416427
0
LINE
8
Layer 1
10
14.610714
20
7.416427
11
14.411112
21
7.460761
0
LINE
8
Layer 1
10
14.411112
20
7.460761
11
14.489626
21
8.001821
0
LINE
8
Layer 1
10
18.155600
20
14.414800
11
17.574528
21
14.644146
0
LINE
8
Layer 1
10
17.574528
20
14.644146
11
17.466417
21
14.381096
0
LINE
8
Layer 1
10
17.466417
20
14.381096
11
17.693954
21
14.111504
0
LINE
8
Layer 1
10
17.693954
20
14.111504
11
17.890680
21
14.126086
0
LINE
8
Layer 1
10
17.890680
20
14.126086
11
18.119824
21
14.321229
0
LINE
8
Layer 1
10
16.242700
20
13.685900
11
16.554466
21
13.431418
0
LINE
8
Layer 1
10
16.554466
20
13.431418
11
16.620366
21
13.188234
0
LINE
8
Layer 1
10
16.620366
20
13.188234
11
16.314816
21
12.848651
0
LINE
8
Layer 1
10
16.314816
20
12.848651
11
15.926548
21
12.892939
0
LINE
8
Layer 1
10
15.926548
20
12.892939
11
15.889051
21
13.129592
0
LINE
8
Layer 1
10
15.889051
20
13.129592
11
16.056061
21
13.546883
0
LINE
8
Layer 1
10
15.114400
20
13.500600
11
14.967591
21
13.016606
0
LINE
8
Layer 1
10
14.967591
20
13.016606
11
15.022399
21
12.770600
0
LINE
8
Layer 1
10
15.022399
20
12.770600
11
15.203283
21
12.713877
0
LINE
8
Layer 1
10
15.203283
20
12.713877
11
15.434705
21
12.797735
0
LINE
8
Layer 1
10
15.434705
20
12.797735
11
15.747006
21
13.192374
0
LINE
8
Layer 1
10
15.747006
20
13.192374
11
15.676806
21
13.405747
0
LINE
8
Layer 1
10
15.676806
20
13.405747
11
15.354986
21
13.564884
0
LINE
8
Layer 1
10
21.379600
20
16.594600
11
20.962333
21
16.659622
0
LINE
8
Layer 1
10
20.962333
20
16.659622
11
20.630094
21
16.853019
0
LINE
8
Layer 1
10
20.630094
20
16.853019
11
19.820151
21
17.370868
0
LINE
8
Layer 1
10
19.820151
20
17.370868
11
19.998003
21
17.857501
0
LINE
8
Layer 1
10
19.998003
20
17.857501
11
20.219530
21
18.358648
0
LINE
8
Layer 1
10
20.219530
20
18.358648
11
20.463937
21
19.107001
0
LINE
8
Layer 1
10
20.463937
20
19.107001
11
20.924065
21
19.688538
0
LINE
8
Layer 1
10
20.924065
20
19.688538
11
21.425248
21
19.893240
0
LINE
8
Layer 1
10
21.425248
20
19.893240
11
22.074075
21
19.933603
0
LINE
8
Layer 1
10
22.074075
20
19.933603
11
22.290619
21
19.840307
0
LINE
8
Layer 1
10
22.290619
20
19.840307
11
22.506197
21
19.764792
0
LINE
8
Layer 1
10
22.506197
20
19.764792
11
22.906886
21
19.551024
0
LINE
8
Layer 1
10
22.906886
20
19.551024
11
23.095794
21
19.098754
0
LINE
8
Layer 1
10
23.095794
20
19.098754
11
23.160883
21
18.823675
0
LINE
8
Layer 1
10
23.160883
20
18.823675
11
23.314226
21
18.574504
0
LINE
8
Layer 1
10
23.314226
20
18.574504
11
23.234592
21
18.261442
0
LINE
8
Layer 1
10
23.234592
20
18.261442
11
23.059359
21
17.898492
0
LINE
8
Layer 1
10
23.059359
20
17.898492
11
23.086236
21
17.521713
0
LINE
8
Layer 1
10
23.086236
20
17.521713
11
22.762120
21
17.323978
0
LINE
8
Layer 1
10
22.762120
20
17.323978
11
22.492308
21
17.023788
0
LINE
8
Layer 1
10
22.492308
20
17.023788
11
22.224019
21
16.813546
0
LINE
8
Layer 1
10
22.224019
20
16.813546
11
21.379601
21
16.594601
0
LINE
8
Layer 1
10
21.379601
20
16.594601
11
21.379600
21
16.594600
0
LINE
8
Layer 1
10
12.876000
20
14.953500
11
13.626055
21
15.353864
0
LINE
8
Layer 1
10
13.626055
20
15.353864
11
14.265875
21
15.482737
0
LINE
8
Layer 1
10
14.265875
20
15.482737
11
14.798612
21
15.407345
0
LINE
8
Layer 1
10
14.798612
20
15.407345
11
15.227419
21
15.194913
0
LINE
8
Layer 1
10
15.227419
20
15.194913
11
15.785850
21
14.627830
0
LINE
8
Layer 1
10
15.785850
20
14.627830
11
15.966390
21
14.319291
0
LINE
8
Layer 1
10
12.915500
20
13.623200
11
13.648349
21
14.281703
0
LINE
8
Layer 1
10
13.648349
20
14.281703
11
14.234565
21
14.642167
0
LINE
8
Layer 1
10
14.234565
20
14.642167
11
14.689225
21
14.769394
0
LINE
8
Layer 1
10
14.689225
20
14.769394
11
15.027407
21
14.728181
0
LINE
8
Layer 1
10
15.027407
20
14.728181
11
15.414654
21
14.399633
0
LINE
8
Layer 1
10
15.414654
20
14.399633
11
15.516930
21
14.174919
0
LINE
8
Layer 1
10
18.235600
20
14.453600
11
19.096570
21
13.697493
0
LINE
8
Layer 1
10
19.096570
20
13.697493
11
19.547710
21
12.906220
0
LINE
8
Layer 1
10
19.547710
20
12.906220
11
19.653373
21
12.121011
0
LINE
8
Layer 1
10
19.653373
20
12.121011
11
19.477910
21
11.383096
0
LINE
8
Layer 1
10
19.477910
20
11.383096
11
19.085674
21
10.733704
0
LINE
8
Layer 1
10
19.085674
20
10.733704
11
18.541016
21
10.214064
0
LINE
8
Layer 1
10
18.541016
20
10.214064
11
17.908288
21
9.865406
0
LINE
8
Layer 1
10
17.908288
20
9.865406
11
17.251842
21
9.728960
0
LINE
8
Layer 1
10
15.108500
20
9.646020
11
14.052672
21
9.314581
0
LINE
8
Layer 1
10
14.052672
20
9.314581
11
13.438578
21
8.784232
0
LINE
8
Layer 1
10
13.438578
20
8.784232
11
13.083060
21
8.075380
0
LINE
8
Layer 1
10
13.083060
20
8.075380
11
14.672380
21
8.049726
0
LINE
8
Layer 1
10
15.560300
20
6.014880
11
14.999572
21
4.728042
0
LINE
8
Layer 1
10
14.999572
20
4.728042
11
14.729861
21
3.657282
0
LINE
8
Layer 1
10
14.729861
20
3.657282
11
14.640877
21
2.653750
0
LINE
8
Layer 1
10
14.640877
20
2.653750
11
14.151189
21
2.748639
0
LINE
8
Layer 1
10
14.151189
20
2.748639
11
13.694897
21
2.537647
0
LINE
8
Layer 1
10
16.327900
20
5.990140
11
16.720203
21
4.088662
0
LINE
8
Layer 1
10
16.720203
20
4.088662
11
16.645160
21
3.197180
0
LINE
8
Layer 1
10
16.645160
20
3.197180
11
17.198364
21
2.656973
0
LINE
8
Layer 1
10
17.198364
20
2.656973
11
17.269720
21
2.147190
0
LINE
8
Layer 1
10
20.078500
20
17.147200
11
18.389142
21
16.266719
0
LINE
8
Layer 1
10
18.389142
20
16.266719
11
17.602020
21
15.714860
0
LINE
8
Layer 1
10
12.876000
20
14.953500
11
13.626055
21
15.353864
0
LINE
8
Layer 1
10
13.626055
20
15.353864
11
14.265875
21
15.482737
0
LINE
8
Layer 1
10
14.265875
20
15.482737
11
14.798612
21
15.407345
0
LINE
8
Layer 1
10
14.798612
20
15.407345
11
15.227419
21
15.194913
0
LINE
8
Layer 1
10
15.227419
20
15.194913
11
15.785850
21
14.627830
0
LINE
8
Layer 1
10
15.785850
20
14.627830
11
15.966390
21
14.319291
0
LINE
8
Layer 1
10
12.915500
20
13.623200
11
13.648349
21
14.281703
0
LINE
8
Layer 1
10
13.648349
20
14.281703
11
14.234565
21
14.642167
0
LINE
8
Layer 1
10
14.234565
20
14.642167
11
14.689225
21
14.769394
0
LINE
8
Layer 1
10
14.689225
20
14.769394
11
15.027407
21
14.728181
0
LINE
8
Layer 1
10
15.027407
20
14.728181
11
15.414654
21
14.399633
0
LINE
8
Layer 1
10
15.414654
20
14.399633
11
15.516930
21
14.174919
0
LINE
8
Layer 1
10
18.235600
20
14.453600
11
19.096570
21
13.697493
0
LINE
8
Layer 1
10
19.096570
20
13.697493
11
19.547710
21
12.906220
0
LINE
8
Layer 1
10
19.547710
20
12.906220
11
19.653373
21
12.121011
0
LINE
8
Layer 1
10
19.653373
20
12.121011
11
19.477910
21
11.383096
0
LINE
8
Layer 1
10
19.477910
20
11.383096
11
19.085673
21
10.733704
0
LINE
8
Layer 1
10
19.085673
20
10.733704
11
18.541016
21
10.214064
0
LINE
8
Layer 1
10
18.541016
20
10.214064
11
17.908288
21
9.865406
0
LINE
8
Layer 1
10
17.908288
20
9.865406
11
17.251843
21
9.728960
0
LINE
8
Layer 1
10
15.108500
20
9.646020
11
14.052672
21
9.314581
0
LINE
8
Layer 1
10
14.052672
20
9.314581
11
13.438578
21
8.784232
0
LINE
8
Layer 1
10
13.438578
20
8.784232
11
13.083060
21
8.075380
0
LINE
8
Layer 1
10
13.083060
20
8.075380
11
14.672380
21
8.049726
0
LINE
8
Layer 1
10
15.560300
20
6.014880
11
14.999572
21
4.728042
0
LINE
8
Layer 1
10
14.999572
20
4.728042
11
14.729861
21
3.657282
0
LINE
8
Layer 1
10
14.729861
20
3.657282
11
14.640877
21
2.653750
0
LINE
8
Layer 1
10
14.640877
20
2.653750
11
14.151189
21
2.748639
0
LINE
8
Layer 1
10
14.151189
20
2.748639
11
13.694897
21
2.537647
0
LINE
8
Layer 1
10
16.327900
20
5.990140
11
16.720205
21
4.088662
0
LINE
8
Layer 1
10
16.720205
20
4.088662
11
16.645161
21
3.197180
0
LINE
8
Layer 1
10
16.645161
20
3.197180
11
17.198366
21
2.656973
0
LINE
8
Layer 1
10
17.198366
20
2.656973
11
17.269722
21
2.147190
0
LINE
8
Layer 1
10
20.078500
20
17.147200
11
18.389142
21
16.266719
0
LINE
8
Layer 1
10
18.389142
20
16.266719
11
17.602020
21
15.714860
0
LINE
8
Layer 1
10
29.422100
20
9.500240
11
29.269841
21
9.506364
0
LINE
8
Layer 1
10
29.269841
20
9.506364
11
29.158710
21
9.547492
0
LINE
8
Layer 1
10
29.158710
20
9.547492
11
29.127208
21
10.239658
0
LINE
8
Layer 1
10
29.127208
20
10.239658
11
29.135082
21
10.720062
0
LINE
8
Layer 1
10
29.135082
20
10.720062
11
29.257589
21
10.803194
0
LINE
8
Layer 1
10
29.257589
20
10.803194
11
29.344220
21
10.784821
0
LINE
8
Layer 1
10
29.344220
20
10.784821
11
29.400224
21
10.709567
0
LINE
8
Layer 1
10
29.400224
20
10.709567
11
29.401071
21
10.685070
0
LINE
8
Layer 1
10
29.401071
20
10.685070
11
29.394072
21
10.388426
0
LINE
8
Layer 1
10
29.394072
20
10.388426
11
29.387073
21
10.085658
0
LINE
8
Layer 1
10
29.387073
20
10.085658
11
29.383573
21
9.794264
0
LINE
8
Layer 1
10
29.383573
20
9.794264
11
29.388823
21
9.690133
0
LINE
8
Layer 1
10
29.388823
20
9.690133
11
29.467577
21
9.675260
0
LINE
8
Layer 1
10
29.467577
20
9.675260
11
29.607587
21
9.683134
0
LINE
8
Layer 1
10
29.607587
20
9.683134
11
29.691590
21
9.688383
0
LINE
8
Layer 1
10
29.691590
20
9.688383
11
29.738845
21
9.648132
0
LINE
8
Layer 1
10
29.738845
20
9.648132
11
29.747594
21
9.600877
0
LINE
8
Layer 1
10
29.747594
20
9.600877
11
29.739720
21
9.555374
0
LINE
8
Layer 1
10
29.739720
20
9.555374
11
29.693343
21
9.516874
0
LINE
8
Layer 1
10
29.693343
20
9.516874
11
29.526205
21
9.502875
0
LINE
8
Layer 1
10
29.526205
20
9.502875
11
29.422074
21
9.500335
0
LINE
8
Layer 1
10
29.422074
20
9.500335
11
29.422100
21
9.500240
0
LINE
8
Layer 1
10
30.557000
20
9.488860
11
30.441495
21
9.554488
0
LINE
8
Layer 1
10
30.441495
20
9.554488
11
30.383741
21
9.785504
0
LINE
8
Layer 1
10
30.383741
20
9.785504
11
30.305862
21
9.796003
0
LINE
8
Layer 1
10
30.305862
20
9.796003
11
30.138724
21
9.782879
0
LINE
8
Layer 1
10
30.138724
20
9.782879
11
30.049468
21
9.756633
0
LINE
8
Layer 1
10
30.049468
20
9.756633
11
30.021472
21
9.677879
0
LINE
8
Layer 1
10
30.021472
20
9.677879
11
29.971592
21
9.537869
0
LINE
8
Layer 1
10
29.971592
20
9.537869
11
29.933966
21
9.506367
0
LINE
8
Layer 1
10
29.933966
20
9.506367
11
29.910344
21
9.505520
0
LINE
8
Layer 1
10
29.910344
20
9.505520
11
29.843841
21
9.527393
0
LINE
8
Layer 1
10
29.843841
20
9.527393
11
29.817595
21
9.586894
0
LINE
8
Layer 1
10
29.817595
20
9.586894
11
29.818442
21
9.601767
0
LINE
8
Layer 1
10
29.818442
20
9.601767
11
29.909447
21
9.948290
0
LINE
8
Layer 1
10
29.909447
20
9.948290
11
30.059956
21
10.398942
0
LINE
8
Layer 1
10
30.059956
20
10.398942
11
30.209590
21
10.747212
0
LINE
8
Layer 1
10
30.209590
20
10.747212
11
30.275221
21
10.804091
0
LINE
8
Layer 1
10
30.275221
20
10.804091
11
30.332972
21
10.814589
0
LINE
8
Layer 1
10
30.332972
20
10.814589
11
30.389851
21
10.803216
0
LINE
8
Layer 1
10
30.389851
20
10.803216
11
30.459856
21
10.731461
0
LINE
8
Layer 1
10
30.459856
20
10.731461
11
30.615614
21
9.986790
0
LINE
8
Layer 1
10
30.615614
20
9.986790
11
30.686494
21
9.570264
0
LINE
8
Layer 1
10
30.686494
20
9.570264
11
30.633992
21
9.502886
0
LINE
8
Layer 1
10
30.633992
20
9.502886
11
30.556985
21
9.488888
0
LINE
8
Layer 1
10
30.556985
20
9.488888
11
30.557000
21
9.488860
0
LINE
8
Layer 1
10
30.227105
20
9.922012
11
30.310236
21
9.927261
0
LINE
8
Layer 1
10
30.310236
20
9.927261
11
30.357489
21
9.941260
0
LINE
8
Layer 1
10
30.357489
20
9.941260
11
30.361863
21
9.969256
0
LINE
8
Layer 1
10
30.361863
20
9.969256
11
30.334742
21
10.193270
0
LINE
8
Layer 1
10
30.334742
20
10.193270
11
30.276988
21
10.430410
0
LINE
8
Layer 1
10
30.276988
20
10.430410
11
30.181605
21
10.202897
0
LINE
8
Layer 1
10
30.181605
20
10.202897
11
30.108100
21
9.945632
0
LINE
8
Layer 1
10
30.108100
20
9.945632
11
30.212231
21
9.922010
0
LINE
8
Layer 1
10
30.212231
20
9.922010
11
30.227105
21
9.922012
0
LINE
8
Layer 1
10
31.037400
20
9.498490
11
30.890391
21
9.505489
0
LINE
8
Layer 1
10
30.890391
20
9.505489
11
30.806385
21
9.536991
0
LINE
8
Layer 1
10
30.806385
20
9.536991
11
30.772258
21
9.612245
0
LINE
8
Layer 1
10
30.772258
20
9.612245
11
30.756511
21
10.140779
0
LINE
8
Layer 1
10
30.756511
20
10.140779
11
30.766134
21
10.725314
0
LINE
8
Layer 1
10
30.766134
20
10.725314
11
30.819514
21
10.783943
0
LINE
8
Layer 1
10
30.819514
20
10.783943
11
31.001525
21
10.804065
0
LINE
8
Layer 1
10
31.001525
20
10.804065
11
31.082031
21
10.801525
0
LINE
8
Layer 1
10
31.082031
20
10.801525
11
31.335797
21
10.701768
0
LINE
8
Layer 1
10
31.335797
20
10.701768
11
31.425928
21
10.494380
0
LINE
8
Layer 1
10
31.425928
20
10.494380
11
31.427621
21
10.451502
0
LINE
8
Layer 1
10
31.427621
20
10.451502
11
31.388243
21
10.263367
0
LINE
8
Layer 1
10
31.388243
20
10.263367
11
31.272735
21
10.133858
0
LINE
8
Layer 1
10
31.272735
20
10.133858
11
31.375992
21
10.017475
0
LINE
8
Layer 1
10
31.375992
20
10.017475
11
31.417995
21
9.838089
0
LINE
8
Layer 1
10
31.417995
20
9.838089
11
31.381244
21
9.680581
0
LINE
8
Layer 1
10
31.381244
20
9.680581
11
31.260484
21
9.551072
0
LINE
8
Layer 1
10
31.260484
20
9.551072
11
31.037348
21
9.498571
0
LINE
8
Layer 1
10
31.037348
20
9.498571
11
31.037400
21
9.498490
0
LINE
8
Layer 1
10
31.016403
20
9.639372
11
31.132786
21
9.682250
0
LINE
8
Layer 1
10
31.132786
20
9.682250
11
31.201916
21
9.789006
0
LINE
8
Layer 1
10
31.201916
20
9.789006
11
31.216789
21
9.873887
0
LINE
8
Layer 1
10
31.216789
20
9.873887
11
31.209790
21
9.936016
0
LINE
8
Layer 1
10
31.209790
20
9.936016
11
31.155536
21
10.020897
0
LINE
8
Layer 1
10
31.155536
20
10.020897
11
31.017278
21
10.064647
0
LINE
8
Layer 1
10
31.017278
20
10.064647
11
31.014738
21
9.943015
0
LINE
8
Layer 1
10
31.014738
20
9.943015
11
31.015584
21
9.707628
0
LINE
8
Layer 1
10
31.015584
20
9.707628
11
31.016403
21
9.639372
0
LINE
8
Layer 1
10
31.019902
20
10.193281
11
31.122284
21
10.228282
0
LINE
8
Layer 1
10
31.122284
20
10.228282
11
31.194039
21
10.317538
0
LINE
8
Layer 1
10
31.194039
20
10.317538
11
31.227291
21
10.457548
0
LINE
8
Layer 1
10
31.227291
20
10.457548
11
31.208918
21
10.551178
0
LINE
8
Layer 1
10
31.208918
20
10.551178
11
31.143290
21
10.633434
0
LINE
8
Layer 1
10
31.143290
20
10.633434
11
31.016406
21
10.668435
0
LINE
8
Layer 1
10
31.016406
20
10.668435
11
31.018099
21
10.528427
0
LINE
8
Layer 1
10
31.018099
20
10.528427
11
31.020639
21
10.251909
0
LINE
8
Layer 1
10
31.020639
20
10.251909
11
31.019793
21
10.193281
0
LINE
8
Layer 1
10
31.019793
20
10.193281
11
31.019902
21
10.193281
0
LINE
8
Layer 1
10
31.916000
20
9.498490
11
31.697238
21
9.569367
0
LINE
8
Layer 1
10
31.697238
20
9.569367
11
31.554603
21
9.757505
0
LINE
8
Layer 1
10
31.554603
20
9.757505
11
31.480223
21
10.132028
0
LINE
8
Layer 1
10
31.480223
20
10.132028
11
31.495971
21
10.319291
0
LINE
8
Layer 1
10
31.495971
20
10.319291
11
31.568601
21
10.545054
0
LINE
8
Layer 1
10
31.568601
20
10.545054
11
31.717360
21
10.732314
0
LINE
8
Layer 1
10
31.717360
20
10.732314
11
31.936999
21
10.804069
0
LINE
8
Layer 1
10
31.936999
20
10.804069
11
32.153136
21
10.732314
0
LINE
8
Layer 1
10
32.153136
20
10.732314
11
32.288769
21
10.545054
0
LINE
8
Layer 1
10
32.288769
20
10.545054
11
32.353525
21
10.200283
0
LINE
8
Layer 1
10
32.353525
20
10.200283
11
32.333403
21
9.990267
0
LINE
8
Layer 1
10
32.333403
20
9.990267
11
32.258148
21
9.757504
0
LINE
8
Layer 1
10
32.258148
20
9.757504
11
32.115516
21
9.569366
0
LINE
8
Layer 1
10
32.115516
20
9.569366
11
31.916002
21
9.498489
0
LINE
8
Layer 1
10
31.916002
20
9.498489
11
31.916000
21
9.498490
0
LINE
8
Layer 1
10
31.908126
20
9.694502
11
32.010508
21
9.764504
0
LINE
8
Layer 1
10
32.010508
20
9.764504
11
32.078761
21
9.943890
0
LINE
8
Layer 1
10
32.078761
20
9.943890
11
32.108512
21
10.222158
0
LINE
8
Layer 1
10
32.108512
20
10.222158
11
32.091890
21
10.416420
0
LINE
8
Layer 1
10
32.091890
20
10.416420
11
32.033261
21
10.585304
0
LINE
8
Layer 1
10
32.033261
20
10.585304
11
31.922130
21
10.655310
0
LINE
8
Layer 1
10
31.922130
20
10.655310
11
31.817999
21
10.585304
0
LINE
8
Layer 1
10
31.817999
20
10.585304
11
31.750618
21
10.406793
0
LINE
8
Layer 1
10
31.750618
20
10.406793
11
31.720866
21
10.128528
0
LINE
8
Layer 1
10
31.720866
20
10.128528
11
31.737489
21
9.932516
0
LINE
8
Layer 1
10
31.737489
20
9.932516
11
31.796993
21
9.764504
0
LINE
8
Layer 1
10
31.796993
20
9.764504
11
31.908126
21
9.694502
0
LINE
8
Layer 1
10
31.908126
20
9.694502
11
31.908126
21
9.694502
0
LINE
8
Layer 1
10
33.005400
20
9.494980
11
32.968649
21
9.497520
0
LINE
8
Layer 1
10
32.968649
20
9.497520
11
32.909145
21
9.538645
0
LINE
8
Layer 1
10
32.909145
20
9.538645
11
32.847017
21
9.713657
0
LINE
8
Layer 1
10
32.847017
20
9.713657
11
32.798890
21
9.868540
0
LINE
8
Layer 1
10
32.798890
20
9.868540
11
32.686882
21
10.033050
0
LINE
8
Layer 1
10
32.686882
20
10.033050
11
32.675508
21
10.031357
0
LINE
8
Layer 1
10
32.675508
20
10.031357
11
32.669384
21
9.801219
0
LINE
8
Layer 1
10
32.669384
20
9.801219
11
32.661510
21
9.584204
0
LINE
8
Layer 1
10
32.661510
20
9.584204
11
32.596757
21
9.510699
0
LINE
8
Layer 1
10
32.596757
20
9.510699
11
32.553004
21
9.503700
0
LINE
8
Layer 1
10
32.553004
20
9.503700
11
32.431372
21
9.606082
0
LINE
8
Layer 1
10
32.431372
20
9.606082
11
32.423498
21
10.250121
0
LINE
8
Layer 1
10
32.423498
20
10.250121
11
32.431372
21
10.709525
0
LINE
8
Layer 1
10
32.431372
20
10.709525
11
32.728016
21
10.807530
0
LINE
8
Layer 1
10
32.728016
20
10.807530
11
33.053536
21
10.634271
0
LINE
8
Layer 1
10
33.053536
20
10.634271
11
33.098164
21
10.433882
0
LINE
8
Layer 1
10
33.098164
20
10.433882
11
33.015907
21
10.152989
0
LINE
8
Layer 1
10
33.015907
20
10.152989
11
32.917025
21
10.072485
0
LINE
8
Layer 1
10
32.917025
20
10.072485
11
32.979157
21
9.959602
0
LINE
8
Layer 1
10
32.979157
20
9.959602
11
33.041285
21
9.778466
0
LINE
8
Layer 1
10
33.041285
20
9.778466
11
33.105163
21
9.593831
0
LINE
8
Layer 1
10
33.105163
20
9.593831
11
33.110412
21
9.567584
0
LINE
8
Layer 1
10
33.110412
20
9.567584
11
33.084166
21
9.516832
0
LINE
8
Layer 1
10
33.084166
20
9.516832
11
33.005409
21
9.494960
0
LINE
8
Layer 1
10
33.005409
20
9.494960
11
33.005400
21
9.494980
0
LINE
8
Layer 1
10
32.687756
20
10.136394
11
32.780511
21
10.174897
0
LINE
8
Layer 1
10
32.780511
20
10.174897
11
32.842639
21
10.275529
0
LINE
8
Layer 1
10
32.842639
20
10.275529
11
32.868886
21
10.426913
0
LINE
8
Layer 1
10
32.868886
20
10.426913
11
32.852263
21
10.538044
0
LINE
8
Layer 1
10
32.852263
20
10.538044
11
32.794509
21
10.633427
0
LINE
8
Layer 1
10
32.794509
20
10.633427
11
32.687753
21
10.672803
0
LINE
8
Layer 1
10
32.687753
20
10.672803
11
32.687756
21
10.136394
0
LINE
8
Layer 1
10
33.519100
20
9.504610
11
33.467470
21
9.514234
0
LINE
8
Layer 1
10
33.467470
20
9.514234
11
33.409716
21
9.592988
0
LINE
8
Layer 1
10
33.409716
20
9.592988
11
33.397468
21
10.230903
0
LINE
8
Layer 1
10
33.397468
20
10.230903
11
33.397400
21
10.579200
0
LINE
8
Layer 1
10
33.397400
20
10.579200
11
33.319518
21
10.573951
0
LINE
8
Layer 1
10
33.319518
20
10.573951
11
33.205763
21
10.566952
0
LINE
8
Layer 1
10
33.205763
20
10.566952
11
33.145384
21
10.678085
0
LINE
8
Layer 1
10
33.145384
20
10.678085
11
33.149759
21
10.725337
0
LINE
8
Layer 1
10
33.149759
20
10.725337
11
33.197011
21
10.786590
0
LINE
8
Layer 1
10
33.197011
20
10.786590
11
33.540907
21
10.797964
0
LINE
8
Layer 1
10
33.540907
20
10.797964
11
33.832301
21
10.786590
0
LINE
8
Layer 1
10
33.832301
20
10.786590
11
33.890055
21
10.684208
0
LINE
8
Layer 1
10
33.890055
20
10.684208
11
33.883056
21
10.637831
0
LINE
8
Layer 1
10
33.883056
20
10.637831
11
33.832304
21
10.586201
0
LINE
8
Layer 1
10
33.832304
20
10.586201
11
33.765798
21
10.584508
0
LINE
8
Layer 1
10
33.765798
20
10.584508
11
33.691419
21
10.585355
0
LINE
8
Layer 1
10
33.691419
20
10.585355
11
33.643292
21
10.587048
0
LINE
8
Layer 1
10
33.643292
20
10.587048
11
33.624919
21
10.586201
0
LINE
8
Layer 1
10
33.624919
20
10.586201
11
33.631043
21
9.991167
0
LINE
8
Layer 1
10
33.631043
20
9.991167
11
33.624044
21
9.585140
0
LINE
8
Layer 1
10
33.624044
20
9.585140
11
33.519038
21
9.504636
0
LINE
8
Layer 1
10
33.519038
20
9.504636
11
33.519100
21
9.504610
0
LINE
8
Layer 1
10
34.483400
20
9.488860
11
34.367892
21
9.554488
0
LINE
8
Layer 1
10
34.367892
20
9.554488
11
34.310141
21
9.785504
0
LINE
8
Layer 1
10
34.310141
20
9.785504
11
34.232259
21
9.796003
0
LINE
8
Layer 1
10
34.232259
20
9.796003
11
34.065124
21
9.782879
0
LINE
8
Layer 1
10
34.065124
20
9.782879
11
33.975868
21
9.756633
0
LINE
8
Layer 1
10
33.975868
20
9.756633
11
33.947872
21
9.677879
0
LINE
8
Layer 1
10
33.947872
20
9.677879
11
33.897995
21
9.537869
0
LINE
8
Layer 1
10
33.897995
20
9.537869
11
33.860369
21
9.506367
0
LINE
8
Layer 1
10
33.860369
20
9.506367
11
33.836747
21
9.505520
0
LINE
8
Layer 1
10
33.836747
20
9.505520
11
33.770241
21
9.527393
0
LINE
8
Layer 1
10
33.770241
20
9.527393
11
33.743995
21
9.586894
0
LINE
8
Layer 1
10
33.743995
20
9.586894
11
33.744842
21
9.601767
0
LINE
8
Layer 1
10
33.744842
20
9.601767
11
33.835847
21
9.948290
0
LINE
8
Layer 1
10
33.835847
20
9.948290
11
33.986356
21
10.398942
0
LINE
8
Layer 1
10
33.986356
20
10.398942
11
34.135990
21
10.747212
0
LINE
8
Layer 1
10
34.135990
20
10.747212
11
34.201618
21
10.804091
0
LINE
8
Layer 1
10
34.201618
20
10.804091
11
34.259372
21
10.814589
0
LINE
8
Layer 1
10
34.259372
20
10.814589
11
34.316251
21
10.803216
0
LINE
8
Layer 1
10
34.316251
20
10.803216
11
34.386256
21
10.731461
0
LINE
8
Layer 1
10
34.386256
20
10.731461
11
34.542014
21
9.986790
0
LINE
8
Layer 1
10
34.542014
20
9.986790
11
34.612894
21
9.570264
0
LINE
8
Layer 1
10
34.612894
20
9.570264
11
34.560389
21
9.502886
0
LINE
8
Layer 1
10
34.560389
20
9.502886
11
34.483385
21
9.488888
0
LINE
8
Layer 1
10
34.483385
20
9.488888
11
34.483400
21
9.488860
0
LINE
8
Layer 1
10
34.153505
20
9.922012
11
34.236636
21
9.927261
0
LINE
8
Layer 1
10
34.236636
20
9.927261
11
34.283889
21
9.941260
0
LINE
8
Layer 1
10
34.283889
20
9.941260
11
34.288263
21
9.969256
0
LINE
8
Layer 1
10
34.288263
20
9.969256
11
34.261142
21
10.193270
0
LINE
8
Layer 1
10
34.261142
20
10.193270
11
34.203388
21
10.430410
0
LINE
8
Layer 1
10
34.203388
20
10.430410
11
34.108008
21
10.202897
0
LINE
8
Layer 1
10
34.108008
20
10.202897
11
34.034503
21
9.945632
0
LINE
8
Layer 1
10
34.034503
20
9.945632
11
34.138634
21
9.922010
0
LINE
8
Layer 1
10
34.138634
20
9.922010
11
34.153505
21
9.922012
0
LINE
8
Layer 1
10
35.322600
20
9.496730
11
35.263099
21
9.503729
0
LINE
8
Layer 1
10
35.263099
20
9.503729
11
35.197468
21
9.557984
0
LINE
8
Layer 1
10
35.197468
20
9.557984
11
35.191344
21
9.637612
0
LINE
8
Layer 1
10
35.191344
20
9.637612
11
35.158090
21
9.587735
0
LINE
8
Layer 1
10
35.158090
20
9.587735
11
35.096836
21
9.531731
0
LINE
8
Layer 1
10
35.096836
20
9.531731
11
35.005831
21
9.507234
0
LINE
8
Layer 1
10
35.005831
20
9.507234
11
34.813319
21
9.578114
0
LINE
8
Layer 1
10
34.813319
20
9.578114
11
34.687313
21
9.764499
0
LINE
8
Layer 1
10
34.687313
20
9.764499
11
34.632184
21
9.972762
0
LINE
8
Layer 1
10
34.632184
20
9.972762
11
34.624310
21
10.112772
0
LINE
8
Layer 1
10
34.624310
20
10.112772
11
34.723189
21
10.548548
0
LINE
8
Layer 1
10
34.723189
20
10.548548
11
34.882450
21
10.734933
0
LINE
8
Layer 1
10
34.882450
20
10.734933
11
35.119590
21
10.806688
0
LINE
8
Layer 1
10
35.119590
20
10.806688
11
35.279726
21
10.768188
0
LINE
8
Layer 1
10
35.279726
20
10.768188
11
35.373356
21
10.671930
0
LINE
8
Layer 1
10
35.373356
20
10.671930
11
35.411857
21
10.563424
0
LINE
8
Layer 1
10
35.411857
20
10.563424
11
35.418856
21
10.481168
0
LINE
8
Layer 1
10
35.418856
20
10.481168
11
35.389104
21
10.329784
0
LINE
8
Layer 1
10
35.389104
20
10.329784
11
35.320849
21
10.264156
0
LINE
8
Layer 1
10
35.320849
20
10.264156
11
35.277096
21
10.259781
0
LINE
8
Layer 1
10
35.277096
20
10.259781
11
35.207968
21
10.278154
0
LINE
8
Layer 1
10
35.207968
20
10.278154
11
35.181722
21
10.316655
0
LINE
8
Layer 1
10
35.181722
20
10.316655
11
35.186096
21
10.335902
0
LINE
8
Layer 1
10
35.186096
20
10.335902
11
35.222850
21
10.440908
0
LINE
8
Layer 1
10
35.222850
20
10.440908
11
35.223697
21
10.485536
0
LINE
8
Layer 1
10
35.223697
20
10.485536
11
35.196575
21
10.608918
0
LINE
8
Layer 1
10
35.196575
20
10.608918
11
35.113444
21
10.664922
0
LINE
8
Layer 1
10
35.113444
20
10.664922
11
34.994439
21
10.594917
0
LINE
8
Layer 1
10
34.994439
20
10.594917
11
34.915682
21
10.417281
0
LINE
8
Layer 1
10
34.915682
20
10.417281
11
34.882431
21
10.230896
0
LINE
8
Layer 1
10
34.882431
20
10.230896
11
34.878056
21
10.118013
0
LINE
8
Layer 1
10
34.878056
20
10.118013
11
34.947184
21
9.781994
0
LINE
8
Layer 1
10
34.947184
20
9.781994
11
35.056568
21
9.711989
0
LINE
8
Layer 1
10
35.056568
20
9.711989
11
35.171198
21
9.848497
0
LINE
8
Layer 1
10
35.171198
20
9.848497
11
35.190445
21
10.035760
0
LINE
8
Layer 1
10
35.190445
20
10.035760
11
35.189599
21
10.049758
0
LINE
8
Layer 1
10
35.189599
20
10.049758
11
35.308606
21
10.118013
0
LINE
8
Layer 1
10
35.308606
20
10.118013
11
35.368109
21
10.109264
0
LINE
8
Layer 1
10
35.368109
20
10.109264
11
35.436362
21
10.045386
0
LINE
8
Layer 1
10
35.436362
20
10.045386
11
35.447735
21
9.641111
0
LINE
8
Layer 1
10
35.447735
20
9.641111
11
35.445195
21
9.565857
0
LINE
8
Layer 1
10
35.445195
20
9.565857
11
35.393566
21
9.507228
0
LINE
8
Layer 1
10
35.393566
20
9.507228
11
35.322686
21
9.496729
0
LINE
8
Layer 1
10
35.322686
20
9.496729
11
35.322600
21
9.496730
0
LINE
8
Layer 1
10
35.792500
20
9.495860
11
35.656867
21
9.501109
0
LINE
8
Layer 1
10
35.656867
20
9.501109
11
35.560612
21
9.539610
0
LINE
8
Layer 1
10
35.560612
20
9.539610
11
35.532616
21
9.868630
0
LINE
8
Layer 1
10
35.532616
20
9.868630
11
35.517743
21
10.480293
0
LINE
8
Layer 1
10
35.517743
20
10.480293
11
35.529116
21
10.746310
0
LINE
8
Layer 1
10
35.529116
20
10.746310
11
35.817011
21
10.807564
0
LINE
8
Layer 1
10
35.817011
20
10.807564
11
36.013898
21
10.797065
0
LINE
8
Layer 1
10
36.013898
20
10.797065
11
36.089153
21
10.712184
0
LINE
8
Layer 1
10
36.089153
20
10.712184
11
36.074280
21
10.654430
0
LINE
8
Layer 1
10
36.074280
20
10.654430
11
36.018276
21
10.615051
0
LINE
8
Layer 1
10
36.018276
20
10.615051
11
36.014700
21
10.615100
0
LINE
8
Layer 1
10
36.014700
20
10.615100
11
35.926319
21
10.619474
0
LINE
8
Layer 1
10
35.926319
20
10.619474
11
35.786311
21
10.600227
0
LINE
8
Layer 1
10
35.786311
20
10.600227
11
35.769688
21
10.535474
0
LINE
8
Layer 1
10
35.769688
20
10.535474
11
35.765314
21
10.374464
0
LINE
8
Layer 1
10
35.765314
20
10.374464
11
35.770563
21
10.225705
0
LINE
8
Layer 1
10
35.770563
20
10.225705
11
35.810814
21
10.205583
0
LINE
8
Layer 1
10
35.810814
20
10.205583
11
35.870318
21
10.203889
0
LINE
8
Layer 1
10
35.870318
20
10.203889
11
35.923697
21
10.204736
0
LINE
8
Layer 1
10
35.923697
20
10.204736
11
35.964825
21
10.203043
0
LINE
8
Layer 1
10
35.964825
20
10.203043
11
36.022576
21
10.135662
0
LINE
8
Layer 1
10
36.022576
20
10.135662
11
36.007703
21
10.084910
0
LINE
8
Layer 1
10
36.007703
20
10.084910
11
35.957826
21
10.050784
0
LINE
8
Layer 1
10
35.957826
20
10.050784
11
35.894000
21
10.050700
0
LINE
8
Layer 1
10
35.894000
20
10.050700
11
35.822245
21
10.049007
0
LINE
8
Layer 1
10
35.822245
20
10.049007
11
35.777617
21
10.040258
0
LINE
8
Layer 1
10
35.777617
20
10.040258
11
35.768868
21
9.949252
0
LINE
8
Layer 1
10
35.768868
20
9.949252
11
35.770562
21
9.859997
0
LINE
8
Layer 1
10
35.770562
20
9.859997
11
35.786310
21
9.677111
0
LINE
8
Layer 1
10
35.786310
20
9.677111
11
35.851063
21
9.658738
0
LINE
8
Layer 1
10
35.851063
20
9.658738
11
35.942068
21
9.663113
0
LINE
8
Layer 1
10
35.942068
20
9.663113
11
36.040950
21
9.667487
0
LINE
8
Layer 1
10
36.040950
20
9.667487
11
36.093452
21
9.595732
0
LINE
8
Layer 1
10
36.093452
20
9.595732
11
36.082953
21
9.544980
0
LINE
8
Layer 1
10
36.082953
20
9.544980
11
36.040953
21
9.509976
0
LINE
8
Layer 1
10
36.040953
20
9.509976
11
35.893069
21
9.498603
0
LINE
8
Layer 1
10
35.893069
20
9.498603
11
35.792437
21
9.496063
0
LINE
8
Layer 1
10
35.792437
20
9.496063
11
35.792500
21
9.495860
0
LINE
8
Layer 1
10
37.553900
20
9.506360
11
37.455893
21
9.585114
0
LINE
8
Layer 1
10
37.455893
20
9.585114
11
37.455046
21
9.686621
0
LINE
8
Layer 1
10
37.455046
20
9.686621
11
37.467295
21
10.287782
0
LINE
8
Layer 1
10
37.467295
20
10.287782
11
37.390290
21
10.075145
0
LINE
8
Layer 1
10
37.390290
20
10.075145
11
37.287908
21
9.796880
0
LINE
8
Layer 1
10
37.287908
20
9.796880
11
37.187276
21
9.742626
0
LINE
8
Layer 1
10
37.187276
20
9.742626
11
37.091022
21
9.804754
0
LINE
8
Layer 1
10
37.091022
20
9.804754
11
37.045519
21
9.950014
0
LINE
8
Layer 1
10
37.045519
20
9.950014
11
36.942262
21
10.291285
0
LINE
8
Layer 1
10
36.942262
20
10.291285
11
36.941415
21
10.205529
0
LINE
8
Layer 1
10
36.941415
20
10.205529
11
36.943109
21
10.042769
0
LINE
8
Layer 1
10
36.943109
20
10.042769
11
36.945649
21
9.771503
0
LINE
8
Layer 1
10
36.945649
20
9.771503
11
36.934275
21
9.581616
0
LINE
8
Layer 1
10
36.934275
20
9.581616
11
36.882648
21
9.520363
0
LINE
8
Layer 1
10
36.882648
20
9.520363
11
36.822270
21
9.508989
0
LINE
8
Layer 1
10
36.822270
20
9.508989
11
36.768015
21
9.518613
0
LINE
8
Layer 1
10
36.768015
20
9.518613
11
36.707637
21
9.592117
0
LINE
8
Layer 1
10
36.707637
20
9.592117
11
36.689264
21
9.876509
0
LINE
8
Layer 1
10
36.689264
20
9.876509
11
36.688417
21
10.044519
0
LINE
8
Layer 1
10
36.688417
20
10.044519
11
36.694541
21
10.457545
0
LINE
8
Layer 1
10
36.694541
20
10.457545
11
36.710289
21
10.720934
0
LINE
8
Layer 1
10
36.710289
20
10.720934
11
36.833674
21
10.797067
0
LINE
8
Layer 1
10
36.833674
20
10.797067
11
36.962305
21
10.741937
0
LINE
8
Layer 1
10
36.962305
20
10.741937
11
37.131192
21
10.351663
0
LINE
8
Layer 1
10
37.131192
20
10.351663
11
37.192446
21
10.148649
0
LINE
8
Layer 1
10
37.192446
20
10.148649
11
37.273825
21
10.354287
0
LINE
8
Layer 1
10
37.273825
20
10.354287
11
37.374457
21
10.587050
0
LINE
8
Layer 1
10
37.374457
20
10.587050
11
37.451461
21
10.738437
0
LINE
8
Layer 1
10
37.451461
20
10.738437
11
37.524966
21
10.790939
0
LINE
8
Layer 1
10
37.524966
20
10.790939
11
37.578342
21
10.796189
0
LINE
8
Layer 1
10
37.578342
20
10.796189
11
37.657099
21
10.776941
0
LINE
8
Layer 1
10
37.657099
20
10.776941
11
37.710476
21
10.700812
0
LINE
8
Layer 1
10
37.710476
20
10.700812
11
37.699977
21
10.135527
0
LINE
8
Layer 1
10
37.699977
20
10.135527
11
37.677230
21
9.581618
0
LINE
8
Layer 1
10
37.677230
20
9.581618
11
37.624728
21
9.522114
0
LINE
8
Layer 1
10
37.624728
20
9.522114
11
37.553848
21
9.506366
0
LINE
8
Layer 1
10
37.553848
20
9.506366
11
37.553900
21
9.506360
0
LINE
8
Layer 1
10
38.646000
20
9.506360
11
38.547993
21
9.585114
0
LINE
8
Layer 1
10
38.547993
20
9.585114
11
38.547146
21
9.686621
0
LINE
8
Layer 1
10
38.547146
20
9.686621
11
38.559395
21
10.287782
0
LINE
8
Layer 1
10
38.559395
20
10.287782
11
38.482390
21
10.075145
0
LINE
8
Layer 1
10
38.482390
20
10.075145
11
38.380008
21
9.796880
0
LINE
8
Layer 1
10
38.380008
20
9.796880
11
38.279376
21
9.742626
0
LINE
8
Layer 1
10
38.279376
20
9.742626
11
38.183122
21
9.804754
0
LINE
8
Layer 1
10
38.183122
20
9.804754
11
38.137619
21
9.950014
0
LINE
8
Layer 1
10
38.137619
20
9.950014
11
38.034362
21
10.291285
0
LINE
8
Layer 1
10
38.034362
20
10.291285
11
38.033515
21
10.205529
0
LINE
8
Layer 1
10
38.033515
20
10.205529
11
38.035209
21
10.042769
0
LINE
8
Layer 1
10
38.035209
20
10.042769
11
38.037749
21
9.771503
0
LINE
8
Layer 1
10
38.037749
20
9.771503
11
38.026375
21
9.581616
0
LINE
8
Layer 1
10
38.026375
20
9.581616
11
37.974745
21
9.520363
0
LINE
8
Layer 1
10
37.974745
20
9.520363
11
37.914367
21
9.508989
0
LINE
8
Layer 1
10
37.914367
20
9.508989
11
37.860112
21
9.518613
0
LINE
8
Layer 1
10
37.860112
20
9.518613
11
37.799734
21
9.592117
0
LINE
8
Layer 1
10
37.799734
20
9.592117
11
37.781361
21
9.876509
0
LINE
8
Layer 1
10
37.781361
20
9.876509
11
37.780514
21
10.044519
0
LINE
8
Layer 1
10
37.780514
20
10.044519
11
37.786639
21
10.457545
0
LINE
8
Layer 1
10
37.786639
20
10.457545
11
37.802387
21
10.720934
0
LINE
8
Layer 1
10
37.802387
20
10.720934
11
37.925769
21
10.797067
0
LINE
8
Layer 1
10
37.925769
20
10.797067
11
38.054400
21
10.741937
0
LINE
8
Layer 1
10
38.054400
20
10.741937
11
38.223287
21
10.351663
0
LINE
8
Layer 1
10
38.223287
20
10.351663
11
38.284540
21
10.148649
0
LINE
8
Layer 1
10
38.284540
20
10.148649
11
38.365919
21
10.354287
0
LINE
8
Layer 1
10
38.365919
20
10.354287
11
38.466551
21
10.587050
0
LINE
8
Layer 1
10
38.466551
20
10.587050
11
38.543555
21
10.738437
0
LINE
8
Layer 1
10
38.543555
20
10.738437
11
38.617060
21
10.790939
0
LINE
8
Layer 1
10
38.617060
20
10.790939
11
38.670439
21
10.796189
0
LINE
8
Layer 1
10
38.670439
20
10.796189
11
38.749193
21
10.776941
0
LINE
8
Layer 1
10
38.749193
20
10.776941
11
38.802570
21
10.700812
0
LINE
8
Layer 1
10
38.802570
20
10.700812
11
38.792071
21
10.135527
0
LINE
8
Layer 1
10
38.792071
20
10.135527
11
38.769324
21
9.581618
0
LINE
8
Layer 1
10
38.769324
20
9.581618
11
38.716822
21
9.522114
0
LINE
8
Layer 1
10
38.716822
20
9.522114
11
38.645942
21
9.506366
0
LINE
8
Layer 1
10
38.645942
20
9.506366
11
38.646000
21
9.506360
0
LINE
8
Layer 1
10
39.568300
20
9.494980
11
39.537673
21
9.495827
0
LINE
8
Layer 1
10
39.537673
20
9.495827
11
39.475542
21
9.536080
0
LINE
8
Layer 1
10
39.475542
20
9.536080
11
39.250653
21
9.931606
0
LINE
8
Layer 1
10
39.250653
20
9.931606
11
38.975012
21
9.522954
0
LINE
8
Layer 1
10
38.975012
20
9.522954
11
38.936509
21
9.501957
0
LINE
8
Layer 1
10
38.936509
20
9.501957
11
38.915511
21
9.504497
0
LINE
8
Layer 1
10
38.915511
20
9.504497
11
38.881385
21
9.531618
0
LINE
8
Layer 1
10
38.881385
20
9.531618
11
38.872636
21
9.562245
0
LINE
8
Layer 1
10
38.872636
20
9.562245
11
38.878760
21
9.591997
0
LINE
8
Layer 1
10
38.878760
20
9.591997
11
39.168404
21
10.089027
0
LINE
8
Layer 1
10
39.168404
20
10.089027
11
38.893635
21
10.644685
0
LINE
8
Layer 1
10
38.893635
20
10.644685
11
38.884886
21
10.692815
0
LINE
8
Layer 1
10
38.884886
20
10.692815
11
38.926015
21
10.771569
0
LINE
8
Layer 1
10
38.926015
20
10.771569
11
39.038895
21
10.807445
0
LINE
8
Layer 1
10
39.038895
20
10.807445
11
39.145651
21
10.752318
0
LINE
8
Layer 1
10
39.145651
20
10.752318
11
39.337288
21
10.353293
0
LINE
8
Layer 1
10
39.337288
20
10.353293
11
39.611179
21
10.746191
0
LINE
8
Layer 1
10
39.611179
20
10.746191
11
39.654057
21
10.765439
0
LINE
8
Layer 1
10
39.654057
20
10.765439
11
39.722312
21
10.723439
0
LINE
8
Layer 1
10
39.722312
20
10.723439
11
39.731061
21
10.694562
0
LINE
8
Layer 1
10
39.731061
20
10.694562
11
39.718813
21
10.654308
0
LINE
8
Layer 1
10
39.718813
20
10.654308
11
39.416042
21
10.183528
0
LINE
8
Layer 1
10
39.416042
20
10.183528
11
39.671560
21
9.607744
0
LINE
8
Layer 1
10
39.671560
20
9.607744
11
39.675934
21
9.577993
0
LINE
8
Layer 1
10
39.675934
20
9.577993
11
39.650562
21
9.522863
0
LINE
8
Layer 1
10
39.650562
20
9.522863
11
39.568309
21
9.494867
0
LINE
8
Layer 1
10
39.568309
20
9.494867
11
39.568300
21
9.494980
0
LINE
8
Layer 1
10
40.496800
20
9.494980
11
40.466173
21
9.495827
0
LINE
8
Layer 1
10
40.466173
20
9.495827
11
40.404045
21
9.536080
0
LINE
8
Layer 1
10
40.404045
20
9.536080
11
40.179156
21
9.931606
0
LINE
8
Layer 1
10
40.179156
20
9.931606
11
39.903513
21
9.522954
0
LINE
8
Layer 1
10
39.903513
20
9.522954
11
39.865012
21
9.501957
0
LINE
8
Layer 1
10
39.865012
20
9.501957
11
39.844015
21
9.504497
0
LINE
8
Layer 1
10
39.844015
20
9.504497
11
39.809889
21
9.531618
0
LINE
8
Layer 1
10
39.809889
20
9.531618
11
39.801140
21
9.562245
0
LINE
8
Layer 1
10
39.801140
20
9.562245
11
39.807264
21
9.591997
0
LINE
8
Layer 1
10
39.807264
20
9.591997
11
40.096906
21
10.089027
0
LINE
8
Layer 1
10
40.096906
20
10.089027
11
39.822140
21
10.644685
0
LINE
8
Layer 1
10
39.822140
20
10.644685
11
39.813391
21
10.692815
0
LINE
8
Layer 1
10
39.813391
20
10.692815
11
39.854519
21
10.771569
0
LINE
8
Layer 1
10
39.854519
20
10.771569
11
39.967399
21
10.807445
0
LINE
8
Layer 1
10
39.967399
20
10.807445
11
40.074158
21
10.752318
0
LINE
8
Layer 1
10
40.074158
20
10.752318
11
40.265792
21
10.353293
0
LINE
8
Layer 1
10
40.265792
20
10.353293
11
40.539686
21
10.746191
0
LINE
8
Layer 1
10
40.539686
20
10.746191
11
40.582564
21
10.765439
0
LINE
8
Layer 1
10
40.582564
20
10.765439
11
40.650817
21
10.723439
0
LINE
8
Layer 1
10
40.650817
20
10.723439
11
40.659566
21
10.694562
0
LINE
8
Layer 1
10
40.659566
20
10.694562
11
40.647317
21
10.654308
0
LINE
8
Layer 1
10
40.647317
20
10.654308
11
40.344549
21
10.183528
0
LINE
8
Layer 1
10
40.344549
20
10.183528
11
40.600064
21
9.607744
0
LINE
8
Layer 1
10
40.600064
20
9.607744
11
40.604439
21
9.577993
0
LINE
8
Layer 1
10
40.604439
20
9.577993
11
40.579067
21
9.522863
0
LINE
8
Layer 1
10
40.579067
20
9.522863
11
40.496813
21
9.494867
0
LINE
8
Layer 1
10
40.496813
20
9.494867
11
40.496800
21
9.494980
0
LINE
8
Layer 1
10
40.883500
20
9.498490
11
40.770617
21
9.505489
0
LINE
8
Layer 1
10
40.770617
20
9.505489
11
40.741740
21
9.531736
0
LINE
8
Layer 1
10
40.741740
20
9.531736
11
40.734741
21
9.570236
0
LINE
8
Layer 1
10
40.734741
20
9.570236
11
40.765368
21
9.623616
0
LINE
8
Layer 1
10
40.765368
20
9.623616
11
40.837997
21
9.633240
0
LINE
8
Layer 1
10
40.837997
20
9.633240
11
40.833623
21
10.186274
0
LINE
8
Layer 1
10
40.833623
20
10.186274
11
40.844996
21
10.660551
0
LINE
8
Layer 1
10
40.844996
20
10.660551
11
40.830123
21
10.661397
0
LINE
8
Layer 1
10
40.830123
20
10.661397
11
40.762746
21
10.658857
0
LINE
8
Layer 1
10
40.762746
20
10.658857
11
40.730369
21
10.713112
0
LINE
8
Layer 1
10
40.730369
20
10.713112
11
40.738243
21
10.756865
0
LINE
8
Layer 1
10
40.738243
20
10.756865
11
40.775872
21
10.796240
0
LINE
8
Layer 1
10
40.775872
20
10.796240
11
41.004260
21
10.804114
0
LINE
8
Layer 1
10
41.004260
20
10.804114
11
41.143393
21
10.798865
0
LINE
8
Layer 1
10
41.143393
20
10.798865
11
41.176644
21
10.733234
0
LINE
8
Layer 1
10
41.176644
20
10.733234
11
41.149523
21
10.674605
0
LINE
8
Layer 1
10
41.149523
20
10.674605
11
41.096143
21
10.667606
0
LINE
8
Layer 1
10
41.096143
20
10.667606
11
41.099643
21
10.503096
0
LINE
8
Layer 1
10
41.099643
20
10.503096
11
41.096143
21
10.220453
0
LINE
8
Layer 1
10
41.096143
20
10.220453
11
41.079520
21
9.639417
0
LINE
8
Layer 1
10
41.079520
20
9.639417
11
41.153900
21
9.631543
0
LINE
8
Layer 1
10
41.153900
20
9.631543
11
41.183652
21
9.574667
0
LINE
8
Layer 1
10
41.183652
20
9.574667
11
41.142524
21
9.508162
0
LINE
8
Layer 1
10
41.142524
20
9.508162
11
40.883509
21
9.498538
0
LINE
8
Layer 1
10
40.883509
20
9.498538
11
40.883500
21
9.498490
0
LINE
8
Layer 1
10
29.422100
20
9.500240
11
29.269841
21
9.506364
0
LINE
8
Layer 1
10
29.269841
20
9.506364
11
29.158710
21
9.547492
0
LINE
8
Layer 1
10
29.158710
20
9.547492
11
29.127208
21
10.239658
0
LINE
8
Layer 1
10
29.127208
20
10.239658
11
29.135082
21
10.720062
0
LINE
8
Layer 1
10
29.135082
20
10.720062
11
29.257589
21
10.803194
0
LINE
8
Layer 1
10
29.257589
20
10.803194
11
29.344220
21
10.784821
0
LINE
8
Layer 1
10
29.344220
20
10.784821
11
29.400224
21
10.709567
0
LINE
8
Layer 1
10
29.400224
20
10.709567
11
29.401071
21
10.685070
0
LINE
8
Layer 1
10
29.401071
20
10.685070
11
29.394072
21
10.388426
0
LINE
8
Layer 1
10
29.394072
20
10.388426
11
29.387073
21
10.085658
0
LINE
8
Layer 1
10
29.387073
20
10.085658
11
29.383573
21
9.794264
0
LINE
8
Layer 1
10
29.383573
20
9.794264
11
29.388823
21
9.690133
0
LINE
8
Layer 1
10
29.388823
20
9.690133
11
29.467577
21
9.675260
0
LINE
8
Layer 1
10
29.467577
20
9.675260
11
29.607587
21
9.683134
0
LINE
8
Layer 1
10
29.607587
20
9.683134
11
29.691590
21
9.688383
0
LINE
8
Layer 1
10
29.691590
20
9.688383
11
29.738845
21
9.648132
0
LINE
8
Layer 1
10
29.738845
20
9.648132
11
29.747594
21
9.600877
0
LINE
8
Layer 1
10
29.747594
20
9.600877
11
29.739720
21
9.555374
0
LINE
8
Layer 1
10
29.739720
20
9.555374
11
29.693343
21
9.516874
0
LINE
8
Layer 1
10
29.693343
20
9.516874
11
29.526205
21
9.502875
0
LINE
8
Layer 1
10
29.526205
20
9.502875
11
29.422074
21
9.500335
0
LINE
8
Layer 1
10
29.422074
20
9.500335
11
29.422100
21
9.500240
0
LINE
8
Layer 1
10
30.557000
20
9.488860
11
30.441495
21
9.554488
0
LINE
8
Layer 1
10
30.441495
20
9.554488
11
30.383741
21
9.785504
0
LINE
8
Layer 1
10
30.383741
20
9.785504
11
30.305862
21
9.796003
0
LINE
8
Layer 1
10
30.305862
20
9.796003
11
30.138724
21
9.782879
0
LINE
8
Layer 1
10
30.138724
20
9.782879
11
30.049468
21
9.756633
0
LINE
8
Layer 1
10
30.049468
20
9.756633
11
30.021472
21
9.677879
0
LINE
8
Layer 1
10
30.021472
20
9.677879
11
29.971592
21
9.537869
0
LINE
8
Layer 1
10
29.971592
20
9.537869
11
29.933966
21
9.506367
0
LINE
8
Layer 1
10
29.933966
20
9.506367
11
29.910344
21
9.505520
0
LINE
8
Layer 1
10
29.910344
20
9.505520
11
29.843841
21
9.527393
0
LINE
8
Layer 1
10
29.843841
20
9.527393
11
29.817595
21
9.586894
0
LINE
8
Layer 1
10
29.817595
20
9.586894
11
29.818442
21
9.601767
0
LINE
8
Layer 1
10
29.818442
20
9.601767
11
29.909447
21
9.948290
0
LINE
8
Layer 1
10
29.909447
20
9.948290
11
30.059956
21
10.398942
0
LINE
8
Layer 1
10
30.059956
20
10.398942
11
30.209590
21
10.747212
0
LINE
8
Layer 1
10
30.209590
20
10.747212
11
30.275221
21
10.804091
0
LINE
8
Layer 1
10
30.275221
20
10.804091
11
30.332972
21
10.814589
0
LINE
8
Layer 1
10
30.332972
20
10.814589
11
30.389851
21
10.803216
0
LINE
8
Layer 1
10
30.389851
20
10.803216
11
30.459856
21
10.731461
0
LINE
8
Layer 1
10
30.459856
20
10.731461
11
30.615614
21
9.986790
0
LINE
8
Layer 1
10
30.615614
20
9.986790
11
30.686494
21
9.570264
0
LINE
8
Layer 1
10
30.686494
20
9.570264
11
30.633992
21
9.502886
0
LINE
8
Layer 1
10
30.633992
20
9.502886
11
30.556985
21
9.488888
0
LINE
8
Layer 1
10
30.556985
20
9.488888
11
30.557000
21
9.488860
0
LINE
8
Layer 1
10
30.227105
20
9.922012
11
30.310236
21
9.927261
0
LINE
8
Layer 1
10
30.310236
20
9.927261
11
30.357489
21
9.941260
0
LINE
8
Layer 1
10
30.357489
20
9.941260
11
30.361863
21
9.969256
0
LINE
8
Layer 1
10
30.361863
20
9.969256
11
30.334742
21
10.193270
0
LINE
8
Layer 1
10
30.334742
20
10.193270
11
30.276988
21
10.430410
0
LINE
8
Layer 1
10
30.276988
20
10.430410
11
30.181605
21
10.202897
0
LINE
8
Layer 1
10
30.181605
20
10.202897
11
30.108100
21
9.945632
0
LINE
8
Layer 1
10
30.108100
20
9.945632
11
30.212231
21
9.922010
0
LINE
8
Layer 1
10
30.212231
20
9.922010
11
30.227105
21
9.922012
0
LINE
8
Layer 1
10
31.037400
20
9.498490
11
30.890391
21
9.505489
0
LINE
8
Layer 1
10
30.890391
20
9.505489
11
30.806385
21
9.536991
0
LINE
8
Layer 1
10
30.806385
20
9.536991
11
30.772258
21
9.612245
0
LINE
8
Layer 1
10
30.772258
20
9.612245
11
30.756511
21
10.140779
0
LINE
8
Layer 1
10
30.756511
20
10.140779
11
30.766134
21
10.725314
0
LINE
8
Layer 1
10
30.766134
20
10.725314
11
30.819514
21
10.783943
0
LINE
8
Layer 1
10
30.819514
20
10.783943
11
31.001525
21
10.804065
0
LINE
8
Layer 1
10
31.001525
20
10.804065
11
31.082031
21
10.801525
0
LINE
8
Layer 1
10
31.082031
20
10.801525
11
31.335797
21
10.701768
0
LINE
8
Layer 1
10
31.335797
20
10.701768
11
31.425928
21
10.494380
0
LINE
8
Layer 1
10
31.425928
20
10.494380
11
31.427621
21
10.451502
0
LINE
8
Layer 1
10
31.427621
20
10.451502
11
31.388243
21
10.263367
0
LINE
8
Layer 1
10
31.388243
20
10.263367
11
31.272735
21
10.133858
0
LINE
8
Layer 1
10
31.272735
20
10.133858
11
31.375992
21
10.017475
0
LINE
8
Layer 1
10
31.375992
20
10.017475
11
31.417995
21
9.838089
0
LINE
8
Layer 1
10
31.417995
20
9.838089
11
31.381244
21
9.680581
0
LINE
8
Layer 1
10
31.381244
20
9.680581
11
31.260484
21
9.551072
0
LINE
8
Layer 1
10
31.260484
20
9.551072
11
31.037348
21
9.498571
0
LINE
8
Layer 1
10
31.037348
20
9.498571
11
31.037400
21
9.498490
0
LINE
8
Layer 1
10
31.016403
20
9.639372
11
31.132786
21
9.682250
0
LINE
8
Layer 1
10
31.132786
20
9.682250
11
31.201916
21
9.789006
0
LINE
8
Layer 1
10
31.201916
20
9.789006
11
31.216789
21
9.873887
0
LINE
8
Layer 1
10
31.216789
20
9.873887
11
31.209790
21
9.936016
0
LINE
8
Layer 1
10
31.209790
20
9.936016
11
31.155536
21
10.020897
0
LINE
8
Layer 1
10
31.155536
20
10.020897
11
31.017278
21
10.064647
0
LINE
8
Layer 1
10
31.017278
20
10.064647
11
31.014738
21
9.943015
0
LINE
8
Layer 1
10
31.014738
20
9.943015
11
31.015584
21
9.707628
0
LINE
8
Layer 1
10
31.015584
20
9.707628
11
31.016403
21
9.639372
0
LINE
8
Layer 1
10
31.019902
20
10.193281
11
31.122284
21
10.228282
0
LINE
8
Layer 1
10
31.122284
20
10.228282
11
31.194039
21
10.317538
0
LINE
8
Layer 1
10
31.194039
20
10.317538
11
31.227291
21
10.457548
0
LINE
8
Layer 1
10
31.227291
20
10.457548
11
31.208918
21
10.551178
0
LINE
8
Layer 1
10
31.208918
20
10.551178
11
31.143290
21
10.633434
0
LINE
8
Layer 1
10
31.143290
20
10.633434
11
31.016406
21
10.668435
0
LINE
8
Layer 1
10
31.016406
20
10.668435
11
31.018099
21
10.528427
0
LINE
8
Layer 1
10
31.018099
20
10.528427
11
31.020639
21
10.251909
0
LINE
8
Layer 1
10
31.020639
20
10.251909
11
31.019793
21
10.193281
0
LINE
8
Layer 1
10
31.019793
20
10.193281
11
31.019902
21
10.193281
0
LINE
8
Layer 1
10
31.916000
20
9.498490
11
31.697238
21
9.569367
0
LINE
8
Layer 1
10
31.697238
20
9.569367
11
31.554603
21
9.757505
0
LINE
8
Layer 1
10
31.554603
20
9.757505
11
31.480223
21
10.132028
0
LINE
8
Layer 1
10
31.480223
20
10.132028
11
31.495971
21
10.319291
0
LINE
8
Layer 1
10
31.495971
20
10.319291
11
31.568601
21
10.545054
0
LINE
8
Layer 1
10
31.568601
20
10.545054
11
31.717360
21
10.732314
0
LINE
8
Layer 1
10
31.717360
20
10.732314
11
31.936999
21
10.804069
0
LINE
8
Layer 1
10
31.936999
20
10.804069
11
32.153136
21
10.732314
0
LINE
8
Layer 1
10
32.153136
20
10.732314
11
32.288769
21
10.545054
0
LINE
8
Layer 1
10
32.288769
20
10.545054
11
32.353525
21
10.200283
0
LINE
8
Layer 1
10
32.353525
20
10.200283
11
32.333403
21
9.990267
0
LINE
8
Layer 1
10
32.333403
20
9.990267
11
32.258148
21
9.757504
0
LINE
8
Layer 1
10
32.258148
20
9.757504
11
32.115516
21
9.569366
0
LINE
8
Layer 1
10
32.115516
20
9.569366
11
31.916002
21
9.498489
0
LINE
8
Layer 1
10
31.916002
20
9.498489
11
31.916000
21
9.498490
0
LINE
8
Layer 1
10
31.908126
20
9.694502
11
32.010508
21
9.764504
0
LINE
8
Layer 1
10
32.010508
20
9.764504
11
32.078761
21
9.943890
0
LINE
8
Layer 1
10
32.078761
20
9.943890
11
32.108512
21
10.222158
0
LINE
8
Layer 1
10
32.108512
20
10.222158
11
32.091890
21
10.416420
0
LINE
8
Layer 1
10
32.091890
20
10.416420
11
32.033261
21
10.585304
0
LINE
8
Layer 1
10
32.033261
20
10.585304
11
31.922130
21
10.655310
0
LINE
8
Layer 1
10
31.922130
20
10.655310
11
31.817999
21
10.585304
0
LINE
8
Layer 1
10
31.817999
20
10.585304
11
31.750618
21
10.406793
0
LINE
8
Layer 1
10
31.750618
20
10.406793
11
31.720866
21
10.128528
0
LINE
8
Layer 1
10
31.720866
20
10.128528
11
31.737489
21
9.932516
0
LINE
8
Layer 1
10
31.737489
20
9.932516
11
31.796993
21
9.764504
0
LINE
8
Layer 1
10
31.796993
20
9.764504
11
31.908126
21
9.694502
0
LINE
8
Layer 1
10
31.908126
20
9.694502
11
31.908126
21
9.694502
0
LINE
8
Layer 1
10
33.005400
20
9.494980
11
32.968649
21
9.497520
0
LINE
8
Layer 1
10
32.968649
20
9.497520
11
32.909145
21
9.538645
0
LINE
8
Layer 1
10
32.909145
20
9.538645
11
32.847017
21
9.713657
0
LINE
8
Layer 1
10
32.847017
20
9.713657
11
32.798890
21
9.868540
0
LINE
8
Layer 1
10
32.798890
20
9.868540
11
32.686882
21
10.033050
0
LINE
8
Layer 1
10
32.686882
20
10.033050
11
32.675508
21
10.031357
0
LINE
8
Layer 1
10
32.675508
20
10.031357
11
32.669384
21
9.801219
0
LINE
8
Layer 1
10
32.669384
20
9.801219
11
32.661510
21
9.584204
0
LINE
8
Layer 1
10
32.661510
20
9.584204
11
32.596757
21
9.510699
0
LINE
8
Layer 1
10
32.596757
20
9.510699
11
32.553004
21
9.503700
0
LINE
8
Layer 1
10
32.553004
20
9.503700
11
32.431372
21
9.606082
0
LINE
8
Layer 1
10
32.431372
20
9.606082
11
32.423498
21
10.250121
0
LINE
8
Layer 1
10
32.423498
20
10.250121
11
32.431372
21
10.709525
0
LINE
8
Layer 1
10
32.431372
20
10.709525
11
32.728016
21
10.807530
0
LINE
8
Layer 1
10
32.728016
20
10.807530
11
33.053536
21
10.634271
0
LINE
8
Layer 1
10
33.053536
20
10.634271
11
33.098164
21
10.433882
0
LINE
8
Layer 1
10
33.098164
20
10.433882
11
33.015907
21
10.152989
0
LINE
8
Layer 1
10
33.015907
20
10.152989
11
32.917025
21
10.072485
0
LINE
8
Layer 1
10
32.917025
20
10.072485
11
32.979157
21
9.959602
0
LINE
8
Layer 1
10
32.979157
20
9.959602
11
33.041285
21
9.778466
0
LINE
8
Layer 1
10
33.041285
20
9.778466
11
33.105163
21
9.593831
0
LINE
8
Layer 1
10
33.105163
20
9.593831
11
33.110412
21
9.567584
0
LINE
8
Layer 1
10
33.110412
20
9.567584
11
33.084166
21
9.516832
0
LINE
8
Layer 1
10
33.084166
20
9.516832
11
33.005409
21
9.494960
0
LINE
8
Layer 1
10
33.005409
20
9.494960
11
33.005400
21
9.494980
0
LINE
8
Layer 1
10
32.687756
20
10.136394
11
32.780511
21
10.174897
0
LINE
8
Layer 1
10
32.780511
20
10.174897
11
32.842639
21
10.275529
0
LINE
8
Layer 1
10
32.842639
20
10.275529
11
32.868886
21
10.426913
0
LINE
8
Layer 1
10
32.868886
20
10.426913
11
32.852263
21
10.538044
0
LINE
8
Layer 1
10
32.852263
20
10.538044
11
32.794509
21
10.633427
0
LINE
8
Layer 1
10
32.794509
20
10.633427
11
32.687753
21
10.672803
0
LINE
8
Layer 1
10
32.687753
20
10.672803
11
32.687756
21
10.136394
0
LINE
8
Layer 1
10
33.519100
20
9.504610
11
33.467470
21
9.514234
0
LINE
8
Layer 1
10
33.467470
20
9.514234
11
33.409716
21
9.592988
0
LINE
8
Layer 1
10
33.409716
20
9.592988
11
33.397468
21
10.230903
0
LINE
8
Layer 1
10
33.397468
20
10.230903
11
33.397400
21
10.579200
0
LINE
8
Layer 1
10
33.397400
20
10.579200
11
33.319518
21
10.573951
0
LINE
8
Layer 1
10
33.319518
20
10.573951
11
33.205763
21
10.566952
0
LINE
8
Layer 1
10
33.205763
20
10.566952
11
33.145384
21
10.678085
0
LINE
8
Layer 1
10
33.145384
20
10.678085
11
33.149759
21
10.725337
0
LINE
8
Layer 1
10
33.149759
20
10.725337
11
33.197011
21
10.786590
0
LINE
8
Layer 1
10
33.197011
20
10.786590
11
33.540907
21
10.797964
0
LINE
8
Layer 1
10
33.540907
20
10.797964
11
33.832301
21
10.786590
0
LINE
8
Layer 1
10
33.832301
20
10.786590
11
33.890055
21
10.684208
0
LINE
8
Layer 1
10
33.890055
20
10.684208
11
33.883056
21
10.637831
0
LINE
8
Layer 1
10
33.883056
20
10.637831
11
33.832304
21
10.586201
0
LINE
8
Layer 1
10
33.832304
20
10.586201
11
33.765798
21
10.584508
0
LINE
8
Layer 1
10
33.765798
20
10.584508
11
33.691419
21
10.585355
0
LINE
8
Layer 1
10
33.691419
20
10.585355
11
33.643292
21
10.587048
0
LINE
8
Layer 1
10
33.643292
20
10.587048
11
33.624919
21
10.586201
0
LINE
8
Layer 1
10
33.624919
20
10.586201
11
33.631043
21
9.991167
0
LINE
8
Layer 1
10
33.631043
20
9.991167
11
33.624044
21
9.585140
0
LINE
8
Layer 1
10
33.624044
20
9.585140
11
33.519038
21
9.504636
0
LINE
8
Layer 1
10
33.519038
20
9.504636
11
33.519100
21
9.504610
0
LINE
8
Layer 1
10
34.483400
20
9.488860
11
34.367892
21
9.554488
0
LINE
8
Layer 1
10
34.367892
20
9.554488
11
34.310141
21
9.785504
0
LINE
8
Layer 1
10
34.310141
20
9.785504
11
34.232259
21
9.796003
0
LINE
8
Layer 1
10
34.232259
20
9.796003
11
34.065124
21
9.782879
0
LINE
8
Layer 1
10
34.065124
20
9.782879
11
33.975868
21
9.756633
0
LINE
8
Layer 1
10
33.975868
20
9.756633
11
33.947872
21
9.677879
0
LINE
8
Layer 1
10
33.947872
20
9.677879
11
33.897995
21
9.537869
0
LINE
8
Layer 1
10
33.897995
20
9.537869
11
33.860369
21
9.506367
0
LINE
8
Layer 1
10
33.860369
20
9.506367
11
33.836747
21
9.505520
0
LINE
8
Layer 1
10
33.836747
20
9.505520
11
33.770241
21
9.527393
0
LINE
8
Layer 1
10
33.770241
20
9.527393
11
33.743995
21
9.586894
0
LINE
8
Layer 1
10
33.743995
20
9.586894
11
33.744842
21
9.601767
0
LINE
8
Layer 1
10
33.744842
20
9.601767
11
33.835847
21
9.948290
0
LINE
8
Layer 1
10
33.835847
20
9.948290
11
33.986356
21
10.398942
0
LINE
8
Layer 1
10
33.986356
20
10.398942
11
34.135990
21
10.747212
0
LINE
8
Layer 1
10
34.135990
20
10.747212
11
34.201618
21
10.804091
0
LINE
8
Layer 1
10
34.201618
20
10.804091
11
34.259372
21
10.814589
0
LINE
8
Layer 1
10
34.259372
20
10.814589
11
34.316251
21
10.803216
0
LINE
8
Layer 1
10
34.316251
20
10.803216
11
34.386256
21
10.731461
0
LINE
8
Layer 1
10
34.386256
20
10.731461
11
34.542014
21
9.986790
0
LINE
8
Layer 1
10
34.542014
20
9.986790
11
34.612894
21
9.570264
0
LINE
8
Layer 1
10
34.612894
20
9.570264
11
34.560389
21
9.502886
0
LINE
8
Layer 1
10
34.560389
20
9.502886
11
34.483385
21
9.488888
0
LINE
8
Layer 1
10
34.483385
20
9.488888
11
34.483400
21
9.488860
0
LINE
8
Layer 1
10
34.153505
20
9.922012
11
34.236636
21
9.927261
0
LINE
8
Layer 1
10
34.236636
20
9.927261
11
34.283889
21
9.941260
0
LINE
8
Layer 1
10
34.283889
20
9.941260
11
34.288263
21
9.969256
0
LINE
8
Layer 1
10
34.288263
20
9.969256
11
34.261142
21
10.193270
0
LINE
8
Layer 1
10
34.261142
20
10.193270
11
34.203388
21
10.430410
0
LINE
8
Layer 1
10
34.203388
20
10.430410
11
34.108008
21
10.202897
0
LINE
8
Layer 1
10
34.108008
20
10.202897
11
34.034503
21
9.945632
0
LINE
8
Layer 1
10
34.034503
20
9.945632
11
34.138634
21
9.922010
0
LINE
8
Layer 1
10
34.138634
20
9.922010
11
34.153505
21
9.922012
0
LINE
8
Layer 1
10
35.322600
20
9.496730
11
35.263099
21
9.503729
0
LINE
8
Layer 1
10
35.263099
20
9.503729
11
35.197468
21
9.557984
0
LINE
8
Layer 1
10
35.197468
20
9.557984
11
35.191344
21
9.637612
0
LINE
8
Layer 1
10
35.191344
20
9.637612
11
35.158090
21
9.587735
0
LINE
8
Layer 1
10
35.158090
20
9.587735
11
35.096836
21
9.531731
0
LINE
8
Layer 1
10
35.096836
20
9.531731
11
35.005831
21
9.507234
0
LINE
8
Layer 1
10
35.005831
20
9.507234
11
34.813319
21
9.578114
0
LINE
8
Layer 1
10
34.813319
20
9.578114
11
34.687313
21
9.764499
0
LINE
8
Layer 1
10
34.687313
20
9.764499
11
34.632184
21
9.972762
0
LINE
8
Layer 1
10
34.632184
20
9.972762
11
34.624310
21
10.112772
0
LINE
8
Layer 1
10
34.624310
20
10.112772
11
34.723189
21
10.548548
0
LINE
8
Layer 1
10
34.723189
20
10.548548
11
34.882450
21
10.734933
0
LINE
8
Layer 1
10
34.882450
20
10.734933
11
35.119590
21
10.806688
0
LINE
8
Layer 1
10
35.119590
20
10.806688
11
35.279726
21
10.768188
0
LINE
8
Layer 1
10
35.279726
20
10.768188
11
35.373356
21
10.671930
0
LINE
8
Layer 1
10
35.373356
20
10.671930
11
35.411857
21
10.563424
0
LINE
8
Layer 1
10
35.411857
20
10.563424
11
35.418856
21
10.481168
0
LINE
8
Layer 1
10
35.418856
20
10.481168
11
35.389104
21
10.329784
0
LINE
8
Layer 1
10
35.389104
20
10.329784
11
35.320849
21
10.264156
0
LINE
8
Layer 1
10
35.320849
20
10.264156
11
35.277096
21
10.259781
0
LINE
8
Layer 1
10
35.277096
20
10.259781
11
35.207968
21
10.278154
0
LINE
8
Layer 1
10
35.207968
20
10.278154
11
35.181722
21
10.316655
0
LINE
8
Layer 1
10
35.181722
20
10.316655
11
35.186096
21
10.335902
0
LINE
8
Layer 1
10
35.186096
20
10.335902
11
35.222850
21
10.440908
0
LINE
8
Layer 1
10
35.222850
20
10.440908
11
35.223697
21
10.485536
0
LINE
8
Layer 1
10
35.223697
20
10.485536
11
35.196575
21
10.608918
0
LINE
8
Layer 1
10
35.196575
20
10.608918
11
35.113444
21
10.664922
0
LINE
8
Layer 1
10
35.113444
20
10.664922
11
34.994439
21
10.594917
0
LINE
8
Layer 1
10
34.994439
20
10.594917
11
34.915682
21
10.417281
0
LINE
8
Layer 1
10
34.915682
20
10.417281
11
34.882431
21
10.230896
0
LINE
8
Layer 1
10
34.882431
20
10.230896
11
34.878056
21
10.118013
0
LINE
8
Layer 1
10
34.878056
20
10.118013
11
34.947184
21
9.781994
0
LINE
8
Layer 1
10
34.947184
20
9.781994
11
35.056568
21
9.711989
0
LINE
8
Layer 1
10
35.056568
20
9.711989
11
35.171198
21
9.848497
0
LINE
8
Layer 1
10
35.171198
20
9.848497
11
35.190445
21
10.035760
0
LINE
8
Layer 1
10
35.190445
20
10.035760
11
35.189599
21
10.049758
0
LINE
8
Layer 1
10
35.189599
20
10.049758
11
35.308606
21
10.118013
0
LINE
8
Layer 1
10
35.308606
20
10.118013
11
35.368109
21
10.109264
0
LINE
8
Layer 1
10
35.368109
20
10.109264
11
35.436362
21
10.045386
0
LINE
8
Layer 1
10
35.436362
20
10.045386
11
35.447735
21
9.641111
0
LINE
8
Layer 1
10
35.447735
20
9.641111
11
35.445195
21
9.565857
0
LINE
8
Layer 1
10
35.445195
20
9.565857
11
35.393566
21
9.507228
0
LINE
8
Layer 1
10
35.393566
20
9.507228
11
35.322686
21
9.496729
0
LINE
8
Layer 1
10
35.322686
20
9.496729
11
35.322600
21
9.496730
0
LINE
8
Layer 1
10
35.792500
20
9.495860
11
35.656867
21
9.501109
0
LINE
8
Layer 1
10
35.656867
20
9.501109
11
35.560612
21
9.539610
0
LINE
8
Layer 1
10
35.560612
20
9.539610
11
35.532616
21
9.868630
0
LINE
8
Layer 1
10
35.532616
20
9.868630
11
35.517743
21
10.480293
0
LINE
8
Layer 1
10
35.517743
20
10.480293
11
35.529116
21
10.746310
0
LINE
8
Layer 1
10
35.529116
20
10.746310
11
35.817011
21
10.807564
0
LINE
8
Layer 1
10
35.817011
20
10.807564
11
36.013898
21
10.797065
0
LINE
8
Layer 1
10
36.013898
20
10.797065
11
36.089153
21
10.712184
0
LINE
8
Layer 1
10
36.089153
20
10.712184
11
36.074280
21
10.654430
0
LINE
8
Layer 1
10
36.074280
20
10.654430
11
36.018276
21
10.615051
0
LINE
8
Layer 1
10
36.018276
20
10.615051
11
36.014700
21
10.615100
0
LINE
8
Layer 1
10
36.014700
20
10.615100
11
35.926319
21
10.619474
0
LINE
8
Layer 1
10
35.926319
20
10.619474
11
35.786311
21
10.600227
0
LINE
8
Layer 1
10
35.786311
20
10.600227
11
35.769688
21
10.535474
0
LINE
8
Layer 1
10
35.769688
20
10.535474
11
35.765314
21
10.374464
0
LINE
8
Layer 1
10
35.765314
20
10.374464
11
35.770563
21
10.225705
0
LINE
8
Layer 1
10
35.770563
20
10.225705
11
35.810814
21
10.205583
0
LINE
8
Layer 1
10
35.810814
20
10.205583
11
35.870318
21
10.203889
0
LINE
8
Layer 1
10
35.870318
20
10.203889
11
35.923697
21
10.204736
0
LINE
8
Layer 1
10
35.923697
20
10.204736
11
35.964825
21
10.203043
0
LINE
8
Layer 1
10
35.964825
20
10.203043
11
36.022576
21
10.135662
0
LINE
8
Layer 1
10
36.022576
20
10.135662
11
36.007703
21
10.084910
0
LINE
8
Layer 1
10
36.007703
20
10.084910
11
35.957826
21
10.050784
0
LINE
8
Layer 1
10
35.957826
20
10.050784
11
35.894000
21
10.050700
0
LINE
8
Layer 1
10
35.894000
20
10.050700
11
35.822245
21
10.049007
0
LINE
8
Layer 1
10
35.822245
20
10.049007
11
35.777617
21
10.040258
0
LINE
8
Layer 1
10
35.777617
20
10.040258
11
35.768868
21
9.949252
0
LINE
8
Layer 1
10
35.768868
20
9.949252
11
35.770562
21
9.859997
0
LINE
8
Layer 1
10
35.770562
20
9.859997
11
35.786310
21
9.677111
0
LINE
8
Layer 1
10
35.786310
20
9.677111
11
35.851063
21
9.658738
0
LINE
8
Layer 1
10
35.851063
20
9.658738
11
35.942068
21
9.663113
0
LINE
8
Layer 1
10
35.942068
20
9.663113
11
36.040950
21
9.667487
0
LINE
8
Layer 1
10
36.040950
20
9.667487
11
36.093452
21
9.595732
0
LINE
8
Layer 1
10
36.093452
20
9.595732
11
36.082953
21
9.544980
0
LINE
8
Layer 1
10
36.082953
20
9.544980
11
36.040953
21
9.509976
0
LINE
8
Layer 1
10
36.040953
20
9.509976
11
35.893069
21
9.498603
0
LINE
8
Layer 1
10
35.893069
20
9.498603
11
35.792437
21
9.496063
0
LINE
8
Layer 1
10
35.792437
20
9.496063
11
35.792500
21
9.495860
0
LINE
8
Layer 1
10
37.553900
20
9.506360
11
37.455893
21
9.585114
0
LINE
8
Layer 1
10
37.455893
20
9.585114
11
37.455046
21
9.686621
0
LINE
8
Layer 1
10
37.455046
20
9.686621
11
37.467295
21
10.287782
0
LINE
8
Layer 1
10
37.467295
20
10.287782
11
37.390290
21
10.075145
0
LINE
8
Layer 1
10
37.390290
20
10.075145
11
37.287908
21
9.796880
0
LINE
8
Layer 1
10
37.287908
20
9.796880
11
37.187276
21
9.742626
0
LINE
8
Layer 1
10
37.187276
20
9.742626
11
37.091022
21
9.804754
0
LINE
8
Layer 1
10
37.091022
20
9.804754
11
37.045519
21
9.950014
0
LINE
8
Layer 1
10
37.045519
20
9.950014
11
36.942262
21
10.291285
0
LINE
8
Layer 1
10
36.942262
20
10.291285
11
36.941415
21
10.205529
0
LINE
8
Layer 1
10
36.941415
20
10.205529
11
36.943109
21
10.042769
0
LINE
8
Layer 1
10
36.943109
20
10.042769
11
36.945649
21
9.771503
0
LINE
8
Layer 1
10
36.945649
20
9.771503
11
36.934275
21
9.581616
0
LINE
8
Layer 1
10
36.934275
20
9.581616
11
36.882648
21
9.520363
0
LINE
8
Layer 1
10
36.882648
20
9.520363
11
36.822270
21
9.508989
0
LINE
8
Layer 1
10
36.822270
20
9.508989
11
36.768015
21
9.518613
0
LINE
8
Layer 1
10
36.768015
20
9.518613
11
36.707637
21
9.592117
0
LINE
8
Layer 1
10
36.707637
20
9.592117
11
36.689264
21
9.876509
0
LINE
8
Layer 1
10
36.689264
20
9.876509
11
36.688417
21
10.044519
0
LINE
8
Layer 1
10
36.688417
20
10.044519
11
36.694541
21
10.457545
0
LINE
8
Layer 1
10
36.694541
20
10.457545
11
36.710289
21
10.720934
0
LINE
8
Layer 1
10
36.710289
20
10.720934
11
36.833674
21
10.797067
0
LINE
8
Layer 1
10
36.833674
20
10.797067
11
36.962305
21
10.741937
0
LINE
8
Layer 1
10
36.962305
20
10.741937
11
37.131192
21
10.351663
0
LINE
8
Layer 1
10
37.131192
20
10.351663
11
37.192446
21
10.148649
0
LINE
8
Layer 1
10
37.192446
20
10.148649
11
37.273825
21
10.354287
0
LINE
8
Layer 1
10
37.273825
20
10.354287
11
37.374457
21
10.587050
0
LINE
8
Layer 1
10
37.374457
20
10.587050
11
37.451461
21
10.738437
0
LINE
8
Layer 1
10
37.451461
20
10.738437
11
37.524966
21
10.790939
0
LINE
8
Layer 1
10
37.524966
20
10.790939
11
37.578342
21
10.796189
0
LINE
8
Layer 1
10
37.578342
20
10.796189
11
37.657099
21
10.776941
0
LINE
8
Layer 1
10
37.657099
20
10.776941
11
37.710476
21
10.700812
0
LINE
8
Layer 1
10
37.710476
20
10.700812
11
37.699977
21
10.135527
0
LINE
8
Layer 1
10
37.699977
20
10.135527
11
37.677230
21
9.581618
0
LINE
8
Layer 1
10
37.677230
20
9.581618
11
37.624728
21
9.522114
0
LINE
8
Layer 1
10
37.624728
20
9.522114
11
37.553848
21
9.506366
0
LINE
8
Layer 1
10
37.553848
20
9.506366
11
37.553900
21
9.506360
0
LINE
8
Layer 1
10
38.646000
20
9.506360
11
38.547993
21
9.585114
0
LINE
8
Layer 1
10
38.547993
20
9.585114
11
38.547146
21
9.686621
0
LINE
8
Layer 1
10
38.547146
20
9.686621
11
38.559395
21
10.287782
0
LINE
8
Layer 1
10
38.559395
20
10.287782
11
38.482390
21
10.075145
0
LINE
8
Layer 1
10
38.482390
20
10.075145
11
38.380008
21
9.796880
0
LINE
8
Layer 1
10
38.380008
20
9.796880
11
38.279376
21
9.742626
0
LINE
8
Layer 1
10
38.279376
20
9.742626
11
38.183122
21
9.804754
0
LINE
8
Layer 1
10
38.183122
20
9.804754
11
38.137619
21
9.950014
0
LINE
8
Layer 1
10
38.137619
20
9.950014
11
38.034362
21
10.291285
0
LINE
8
Layer 1
10
38.034362
20
10.291285
11
38.033515
21
10.205529
0
LINE
8
Layer 1
10
38.033515
20
10.205529
11
38.035209
21
10.042769
0
LINE
8
Layer 1
10
38.035209
20
10.042769
11
38.037749
21
9.771503
0
LINE
8
Layer 1
10
38.037749
20
9.771503
11
38.026375
21
9.581616
0
LINE
8
Layer 1
10
38.026375
20
9.581616
11
37.974745
21
9.520363
0
LINE
8
Layer 1
10
37.974745
20
9.520363
11
37.914367
21
9.508989
0
LINE
8
Layer 1
10
37.914367
20
9.508989
11
37.860112
21
9.518613
0
LINE
8
Layer 1
10
37.860112
20
9.518613
11
37.799734
21
9.592117
0
LINE
8
Layer 1
10
37.799734
20
9.592117
11
37.781361
21
9.876509
0
LINE
8
Layer 1
10
37.781361
20
9.876509
11
37.780514
21
10.044519
0
LINE
8
Layer 1
10
37.780514
20
10.044519
11
37.786639
21
10.457545
0
LINE
8
Layer 1
10
37.786639
20
10.457545
11
37.802387
21
10.720934
0
LINE
8
Layer 1
10
37.802387
20
10.720934
11
37.925769
21
10.797067
0
LINE
8
Layer 1
10
37.925769
20
10.797067
11
38.054400
21
10.741937
0
LINE
8
Layer 1
10
38.054400
20
10.741937
11
38.223287
21
10.351663
0
LINE
8
Layer 1
10
38.223287
20
10.351663
11
38.284540
21
10.148649
0
LINE
8
Layer 1
10
38.284540
20
10.148649
11
38.365919
21
10.354287
0
LINE
8
Layer 1
10
38.365919
20
10.354287
11
38.466551
21
10.587050
0
LINE
8
Layer 1
10
38.466551
20
10.587050
11
38.543555
21
10.738437
0
LINE
8
Layer 1
10
38.543555
20
10.738437
11
38.617060
21
10.790939
0
LINE
8
Layer 1
10
38.617060
20
10.790939
11
38.670439
21
10.796189
0
LINE
8
Layer 1
10
38.670439
20
10.796189
11
38.749193
21
10.776941
0
LINE
8
Layer 1
10
38.749193
20
10.776941
11
38.802570
21
10.700812
0
LINE
8
Layer 1
10
38.802570
20
10.700812
11
38.792071
21
10.135527
0
LINE
8
Layer 1
10
38.792071
20
10.135527
11
38.769324
21
9.581618
0
LINE
8
Layer 1
10
38.769324
20
9.581618
11
38.716822
21
9.522114
0
LINE
8
Layer 1
10
38.716822
20
9.522114
11
38.645942
21
9.506366
0
LINE
8
Layer 1
10
38.645942
20
9.506366
11
38.646000
21
9.506360
0
LINE
8
Layer 1
10
39.568300
20
9.494980
11
39.537673
21
9.495827
0
LINE
8
Layer 1
10
39.537673
20
9.495827
11
39.475542
21
9.536080
0
LINE
8
Layer 1
10
39.475542
20
9.536080
11
39.250653
21
9.931606
0
LINE
8
Layer 1
10
39.250653
20
9.931606
11
38.975012
21
9.522954
0
LINE
8
Layer 1
10
38.975012
20
9.522954
11
38.936509
21
9.501957
0
LINE
8
Layer 1
10
38.936509
20
9.501957
11
38.915511
21
9.504497
0
LINE
8
Layer 1
10
38.915511
20
9.504497
11
38.881385
21
9.531618
0
LINE
8
Layer 1
10
38.881385
20
9.531618
11
38.872636
21
9.562245
0
LINE
8
Layer 1
10
38.872636
20
9.562245
11
38.878760
21
9.591997
0
LINE
8
Layer 1
10
38.878760
20
9.591997
11
39.168404
21
10.089027
0
LINE
8
Layer 1
10
39.168404
20
10.089027
11
38.893635
21
10.644685
0
LINE
8
Layer 1
10
38.893635
20
10.644685
11
38.884886
21
10.692815
0
LINE
8
Layer 1
10
38.884886
20
10.692815
11
38.926015
21
10.771569
0
LINE
8
Layer 1
10
38.926015
20
10.771569
11
39.038895
21
10.807445
0
LINE
8
Layer 1
10
39.038895
20
10.807445
11
39.145651
21
10.752318
0
LINE
8
Layer 1
10
39.145651
20
10.752318
11
39.337288
21
10.353293
0
LINE
8
Layer 1
10
39.337288
20
10.353293
11
39.611179
21
10.746191
0
LINE
8
Layer 1
10
39.611179
20
10.746191
11
39.654057
21
10.765439
0
LINE
8
Layer 1
10
39.654057
20
10.765439
11
39.722312
21
10.723439
0
LINE
8
Layer 1
10
39.722312
20
10.723439
11
39.731061
21
10.694562
0
LINE
8
Layer 1
10
39.731061
20
10.694562
11
39.718813
21
10.654308
0
LINE
8
Layer 1
10
39.718813
20
10.654308
11
39.416042
21
10.183528
0
LINE
8
Layer 1
10
39.416042
20
10.183528
11
39.671560
21
9.607744
0
LINE
8
Layer 1
10
39.671560
20
9.607744
11
39.675934
21
9.577993
0
LINE
8
Layer 1
10
39.675934
20
9.577993
11
39.650562
21
9.522863
0
LINE
8
Layer 1
10
39.650562
20
9.522863
11
39.568309
21
9.494867
0
LINE
8
Layer 1
10
39.568309
20
9.494867
11
39.568300
21
9.494980
0
LINE
8
Layer 1
10
40.496800
20
9.494980
11
40.466173
21
9.495827
0
LINE
8
Layer 1
10
40.466173
20
9.495827
11
40.404045
21
9.536080
0
LINE
8
Layer 1
10
40.404045
20
9.536080
11
40.179156
21
9.931606
0
LINE
8
Layer 1
10
40.179156
20
9.931606
11
39.903513
21
9.522954
0
LINE
8
Layer 1
10
39.903513
20
9.522954
11
39.865012
21
9.501957
0
LINE
8
Layer 1
10
39.865012
20
9.501957
11
39.844015
21
9.504497
0
LINE
8
Layer 1
10
39.844015
20
9.504497
11
39.809889
21
9.531618
0
LINE
8
Layer 1
10
39.809889
20
9.531618
11
39.801140
21
9.562245
0
LINE
8
Layer 1
10
39.801140
20
9.562245
11
39.807264
21
9.591997
0
LINE
8
Layer 1
10
39.807264
20
9.591997
11
40.096906
21
10.089027
0
LINE
8
Layer 1
10
40.096906
20
10.089027
11
39.822140
21
10.644685
0
LINE
8
Layer 1
10
39.822140
20
10.644685
11
39.813391
21
10.692815
0
LINE
8
Layer 1
10
39.813391
20
10.692815
11
39.854519
21
10.771569
0
LINE
8
Layer 1
10
39.854519
20
10.771569
11
39.967399
21
10.807445
0
LINE
8
Layer 1
10
39.967399
20
10.807445
11
40.074158
21
10.752318
0
LINE
8
Layer 1
10
40.074158
20
10.752318
11
40.265792
21
10.353293
0
LINE
8
Layer 1
10
40.265792
20
10.353293
11
40.539686
21
10.746191
0
LINE
8
Layer 1
10
40.539686
20
10.746191
11
40.582564
21
10.765439
0
LINE
8
Layer 1
10
40.582564
20
10.765439
11
40.650817
21
10.723439
0
LINE
8
Layer 1
10
40.650817
20
10.723439
11
40.659566
21
10.694562
0
LINE
8
Layer 1
10
40.659566
20
10.694562
11
40.647317
21
10.654308
0
LINE
8
Layer 1
10
40.647317
20
10.654308
11
40.344549
21
10.183528
0
LINE
8
Layer 1
10
40.344549
20
10.183528
11
40.600064
21
9.607744
0
LINE
8
Layer 1
10
40.600064
20
9.607744
11
40.604439
21
9.577993
0
LINE
8
Layer 1
10
40.604439
20
9.577993
11
40.579067
21
9.522863
0
LINE
8
Layer 1
10
40.579067
20
9.522863
11
40.496813
21
9.494867
0
LINE
8
Layer 1
10
40.496813
20
9.494867
11
40.496800
21
9.494980
0
LINE
8
Layer 1
10
40.883500
20
9.498490
11
40.770617
21
9.505489
0
LINE
8
Layer 1
10
40.770617
20
9.505489
11
40.741740
21
9.531736
0
LINE
8
Layer 1
10
40.741740
20
9.531736
11
40.734741
21
9.570236
0
LINE
8
Layer 1
10
40.734741
20
9.570236
11
40.765368
21
9.623616
0
LINE
8
Layer 1
10
40.765368
20
9.623616
11
40.837997
21
9.633240
0
LINE
8
Layer 1
10
40.837997
20
9.633240
11
40.833623
21
10.186274
0
LINE
8
Layer 1
10
40.833623
20
10.186274
11
40.844996
21
10.660551
0
LINE
8
Layer 1
10
40.844996
20
10.660551
11
40.830123
21
10.661397
0
LINE
8
Layer 1
10
40.830123
20
10.661397
11
40.762746
21
10.658857
0
LINE
8
Layer 1
10
40.762746
20
10.658857
11
40.730369
21
10.713112
0
LINE
8
Layer 1
10
40.730369
20
10.713112
11
40.738243
21
10.756865
0
LINE
8
Layer 1
10
40.738243
20
10.756865
11
40.775872
21
10.796240
0
LINE
8
Layer 1
10
40.775872
20
10.796240
11
41.004260
21
10.804114
0
LINE
8
Layer 1
10
41.004260
20
10.804114
11
41.143393
21
10.798865
0
LINE
8
Layer 1
10
41.143393
20
10.798865
11
41.176644
21
10.733234
0
LINE
8
Layer 1
10
41.176644
20
10.733234
11
41.149523
21
10.674605
0
LINE
8
Layer 1
10
41.149523
20
10.674605
11
41.096143
21
10.667606
0
LINE
8
Layer 1
10
41.096143
20
10.667606
11
41.099643
21
10.503096
0
LINE
8
Layer 1
10
41.099643
20
10.503096
11
41.096143
21
10.220453
0
LINE
8
Layer 1
10
41.096143
20
10.220453
11
41.079520
21
9.639417
0
LINE
8
Layer 1
10
41.079520
20
9.639417
11
41.153900
21
9.631543
0
LINE
8
Layer 1
10
41.153900
20
9.631543
11
41.183652
21
9.574667
0
LINE
8
Layer 1
10
41.183652
20
9.574667
11
41.142524
21
9.508162
0
LINE
8
Layer 1
10
41.142524
20
9.508162
11
40.883509
21
9.498538
0
LINE
8
Layer 1
10
40.883509
20
9.498538
11
40.883500
21
9.498490
0
LINE
8
Layer 1
10
21.174900
20
27.852400
11
19.619119
21
27.852684
0
LINE
8
Layer 1
10
19.619119
20
27.852684
11
18.389663
21
28.174134
0
LINE
8
Layer 1
10
18.389663
20
28.174134
11
17.445300
21
28.749549
0
LINE
8
Layer 1
10
17.445300
20
28.749549
11
16.744800
21
29.511725
0
LINE
8
Layer 1
10
16.744800
20
29.511725
11
16.246931
21
30.393461
0
LINE
8
Layer 1
10
16.246931
20
30.393461
11
15.910462
21
31.327553
0
LINE
8
Layer 1
10
15.910462
20
31.327553
11
15.556800
21
33.084000
0
LINE
8
Layer 1
10
15.556800
20
33.084000
11
15.898961
21
34.055028
0
LINE
8
Layer 1
10
15.898961
20
34.055028
11
16.348971
21
34.949656
0
LINE
8
Layer 1
10
16.348971
20
34.949656
11
16.919090
21
35.952460
0
LINE
8
Layer 1
10
16.919090
20
35.952460
11
17.270423
21
35.699828
0
LINE
8
Layer 1
10
17.270423
20
35.699828
11
17.463604
21
35.802663
0
LINE
8
Layer 1
10
17.463604
20
35.802663
11
17.679528
21
36.322421
0
LINE
8
Layer 1
10
17.679528
20
36.322421
11
18.977829
21
36.879754
0
LINE
8
Layer 1
10
18.977829
20
36.879754
11
20.190354
21
37.136792
0
LINE
8
Layer 1
10
20.190354
20
37.136792
11
21.304630
21
37.126835
0
LINE
8
Layer 1
10
21.304630
20
37.126835
11
22.308185
21
36.883184
0
LINE
8
Layer 1
10
22.308185
20
36.883184
11
23.188548
21
36.439138
0
LINE
8
Layer 1
10
23.188548
20
36.439138
11
23.933247
21
35.827998
0
LINE
8
Layer 1
10
23.933247
20
35.827998
11
24.529809
21
35.083064
0
LINE
8
Layer 1
10
24.529809
20
35.083064
11
24.965764
21
34.237636
0
LINE
8
Layer 1
10
24.965764
20
34.237636
11
25.228639
21
33.325015
0
LINE
8
Layer 1
10
25.228639
20
33.325015
11
25.305963
21
32.378501
0
LINE
8
Layer 1
10
25.305963
20
32.378501
11
25.185263
21
31.431393
0
LINE
8
Layer 1
10
25.185263
20
31.431393
11
24.854068
21
30.516994
0
LINE
8
Layer 1
10
24.854068
20
30.516994
11
24.299906
21
29.668601
0
LINE
8
Layer 1
10
24.299906
20
29.668601
11
23.510304
21
28.919516
0
LINE
8
Layer 1
10
23.510304
20
28.919516
11
22.472793
21
28.303040
0
LINE
8
Layer 1
10
22.472793
20
28.303040
11
21.174898
21
27.852471
0
LINE
8
Layer 1
10
21.174898
20
27.852471
11
21.174900
21
27.852400
0
LINE
8
Layer 1
10
15.673000
20
32.394800
11
16.674060
21
32.493295
0
LINE
8
Layer 1
10
16.674060
20
32.493295
11
16.472296
21
33.711775
0
LINE
8
Layer 1
10
16.472296
20
33.711775
11
17.033615
21
33.851856
0
LINE
8
Layer 1
10
17.033615
20
33.851856
11
17.033600
21
34.184500
0
LINE
8
Layer 1
10
17.033600
20
34.184500
11
16.821139
21
34.420351
0
LINE
8
Layer 1
10
16.821139
20
34.420351
11
17.088829
21
34.506213
0
LINE
8
Layer 1
10
17.088829
20
34.506213
11
17.414266
21
34.431219
0
LINE
8
Layer 1
10
17.414266
20
34.431219
11
17.466639
21
34.330004
0
LINE
8
Layer 1
10
17.466639
20
34.330004
11
17.375048
21
34.184500
0
LINE
8
Layer 1
10
17.375048
20
34.184500
11
17.385394
21
33.901934
0
LINE
8
Layer 1
10
17.385394
20
33.901934
11
17.861400
21
33.902000
0
LINE
8
Layer 1
10
17.861400
20
33.902000
11
18.024398
21
34.023904
0
LINE
8
Layer 1
10
18.024398
20
34.023904
11
18.144593
21
33.972520
0
LINE
8
Layer 1
10
18.144593
20
33.972520
11
18.249041
21
33.601321
0
LINE
8
Layer 1
10
18.249041
20
33.601321
11
18.159668
21
33.291269
0
LINE
8
Layer 1
10
18.159668
20
33.291269
11
17.861400
21
33.545230
0
LINE
8
Layer 1
10
17.861400
20
33.545230
11
16.826670
21
33.458956
0
LINE
8
Layer 1
10
16.826670
20
33.458956
11
16.963034
21
32.800114
0
LINE
8
Layer 1
10
16.963034
20
32.800114
11
17.325100
21
32.800100
0
LINE
8
Layer 1
10
17.325100
20
32.800100
11
17.661444
21
31.350000
0
LINE
8
Layer 1
10
17.661444
20
31.350000
11
18.075320
21
31.301847
0
LINE
8
Layer 1
10
18.075320
20
31.301847
11
18.314725
21
31.486495
0
LINE
8
Layer 1
10
18.314725
20
31.486495
11
18.505259
21
31.501037
0
LINE
8
Layer 1
10
18.505259
20
31.501037
11
18.716177
21
31.224018
0
LINE
8
Layer 1
10
18.716177
20
31.224018
11
18.660987
21
30.879210
0
LINE
8
Layer 1
10
18.660987
20
30.879210
11
18.518887
21
30.809018
0
LINE
8
Layer 1
10
18.518887
20
30.809018
11
18.292604
21
30.875036
0
LINE
8
Layer 1
10
18.292604
20
30.875036
11
16.790474
21
30.788100
0
LINE
8
Layer 1
10
16.790474
20
30.788100
11
16.511938
21
30.516252
0
LINE
8
Layer 1
10
16.511938
20
30.516252
11
16.248400
21
30.708633
0
LINE
8
Layer 1
10
16.248400
20
30.708633
11
16.220774
21
31.052891
0
LINE
8
Layer 1
10
16.220774
20
31.052891
11
16.649972
21
31.236669
0
LINE
8
Layer 1
10
16.649972
20
31.236669
11
17.311760
21
31.348971
0
LINE
8
Layer 1
10
17.311760
20
31.348971
11
16.990553
21
32.328112
0
LINE
8
Layer 1
10
16.990553
20
32.328112
11
15.748923
21
32.023873
0
LINE
8
Layer 1
10
18.757600
20
28.127600
11
18.985232
21
28.484370
0
LINE
8
Layer 1
10
18.985232
20
28.484370
11
19.393024
21
28.475796
0
LINE
8
Layer 1
10
19.393024
20
28.475796
11
19.800816
21
28.668971
0
LINE
8
Layer 1
10
19.292900
20
28.482400
11
19.250445
21
28.719219
0
LINE
8
Layer 1
10
19.250445
20
28.719219
11
19.517946
21
28.917966
0
LINE
8
Layer 1
10
21.175000
20
27.931400
11
20.859347
21
29.373010
0
LINE
8
Layer 1
10
20.859347
20
29.373010
11
20.114369
21
29.208852
0
LINE
8
Layer 1
10
20.114369
20
29.208852
11
19.353767
21
33.279622
0
LINE
8
Layer 1
10
19.353767
20
33.279622
11
20.197404
21
33.471345
0
LINE
8
Layer 1
10
20.197404
20
33.471345
11
20.008573
21
34.180506
0
LINE
8
Layer 1
10
20.008573
20
34.180506
11
19.477538
21
34.235347
0
LINE
8
Layer 1
10
19.477538
20
34.235347
11
19.139702
21
34.387982
0
LINE
8
Layer 1
10
19.139702
20
34.387982
11
18.970039
21
34.609297
0
LINE
8
Layer 1
10
18.970039
20
34.609297
11
18.943518
21
34.870180
0
LINE
8
Layer 1
10
18.943518
20
34.870180
11
19.219797
21
35.394188
0
LINE
8
Layer 1
10
19.219797
20
35.394188
11
19.768316
21
35.727096
0
LINE
8
Layer 1
10
19.768316
20
35.727096
11
19.520755
21
36.987856
0
LINE
8
Layer 1
10
19.520755
20
36.987856
11
20.655260
21
37.075941
0
LINE
8
Layer 1
10
20.655260
20
37.075941
11
21.674235
21
36.959214
0
LINE
8
Layer 1
10
21.674235
20
36.959214
11
22.572975
21
36.662875
0
LINE
8
Layer 1
10
22.572975
20
36.662875
11
23.346778
21
36.212122
0
LINE
8
Layer 1
10
23.346778
20
36.212122
11
23.990939
21
35.632155
0
LINE
8
Layer 1
10
23.990939
20
35.632155
11
24.500753
21
34.948174
0
LINE
8
Layer 1
10
24.500753
20
34.948174
11
24.871518
21
34.185378
0
LINE
8
Layer 1
10
24.871518
20
34.185378
11
25.098529
21
33.368966
0
LINE
8
Layer 1
10
25.098529
20
33.368966
11
25.177082
21
32.524137
0
LINE
8
Layer 1
10
25.177082
20
32.524137
11
25.102472
21
31.676091
0
LINE
8
Layer 1
10
25.102472
20
31.676091
11
24.869998
21
30.850027
0
LINE
8
Layer 1
10
24.869998
20
30.850027
11
24.474953
21
30.071145
0
LINE
8
Layer 1
10
24.474953
20
30.071145
11
23.912634
21
29.364643
0
LINE
8
Layer 1
10
23.912634
20
29.364643
11
23.178337
21
28.755722
0
LINE
8
Layer 1
10
23.178337
20
28.755722
11
22.267359
21
28.269580
0
LINE
8
Layer 1
10
22.267359
20
28.269580
11
21.174995
21
27.931416
0
LINE
8
Layer 1
10
21.174995
20
27.931416
11
21.175000
21
27.931400
0
LINE
8
Layer 1
10
24.113100
20
35.421700
11
23.826503
21
35.248791
0
LINE
8
Layer 1
10
23.826503
20
35.248791
11
23.775432
21
35.097349
0
LINE
8
Layer 1
10
23.775432
20
35.097349
11
23.869308
21
34.836499
0
LINE
8
Layer 1
10
23.869308
20
34.836499
11
23.708482
21
34.708973
0
LINE
8
Layer 1
10
23.708482
20
34.708973
11
23.597854
21
34.585324
0
LINE
8
Layer 1
10
23.597854
20
34.585324
11
23.576857
21
34.183533
0
LINE
8
Layer 1
10
23.576857
20
34.183533
11
23.398096
21
33.984684
0
LINE
8
Layer 1
10
23.398096
20
33.984684
11
23.268425
21
33.188860
0
LINE
8
Layer 1
10
20.910000
20
29.358500
11
20.190200
21
33.466200
0
LINE
8
Layer 1
10
20.190200
20
33.466200
11
20.917100
21
33.645700
0
LINE
8
Layer 1
10
20.917100
20
33.645700
11
21.647800
21
29.450100
0
LINE
8
Layer 1
10
21.647800
20
29.450100
11
20.910000
21
29.358500
0
LINE
8
Layer 1
10
20.008400
20
34.238900
11
19.772194
21
35.702600
0
LINE
8
Layer 1
10
19.772194
20
35.702600
11
20.344026
21
35.654026
0
LINE
8
Layer 1
10
20.344026
20
35.654026
11
20.708480
21
35.495747
0
LINE
8
Layer 1
10
20.708480
20
35.495747
11
20.891774
21
35.263418
0
LINE
8
Layer 1
10
20.891774
20
35.263418
11
20.920124
21
34.992692
0
LINE
8
Layer 1
10
20.920124
20
34.992692
11
20.616854
21
34.478667
0
LINE
8
Layer 1
10
20.616854
20
34.478667
11
20.008400
21
34.238900
0
LINE
8
Layer 1
10
20.209800
20
33.275600
11
19.596235
21
33.121327
0
LINE
8
Layer 1
10
19.596235
20
33.121327
11
20.293611
21
29.421367
0
LINE
8
Layer 1
10
20.293611
20
29.421367
11
20.819832
21
29.551236
0
LINE
8
Layer 1
10
20.819832
20
29.551236
11
20.209800
21
33.275600
0
LINE
8
Layer 1
10
19.982600
20
34.356200
11
19.370128
21
34.481511
0
LINE
8
Layer 1
10
19.370128
20
34.481511
11
19.157875
21
34.782612
0
LINE
8
Layer 1
10
19.157875
20
34.782612
11
19.307909
21
35.171108
0
LINE
8
Layer 1
10
19.307909
20
35.171108
11
19.782300
21
35.558600
0
LINE
8
Layer 1
10
19.782300
20
35.558600
11
19.982600
21
34.356200
 0 
ENDSEC
 0 
EOF