%TF.GenerationSoftware,KiCad,Pcbnew,5.1.10*%
%TF.CreationDate,2021-07-13T19:15:49+02:00*%
%TF.ProjectId,lni-badge,6c6e692d-6261-4646-9765-2e6b69636164,rev?*%
%TF.SameCoordinates,Original*%
%TF.FileFunction,Soldermask,Bot*%
%TF.FilePolarity,Negative*%
%FSLAX46Y46*%
G04 Gerber Fmt 4.6, Leading zero omitted, Abs format (unit mm)*
G04 Created by KiCad (PCBNEW 5.1.10) date 2021-07-13 19:15:49*
%MOMM*%
%LPD*%
G01*
G04 APERTURE LIST*
%ADD10C,1.500000*%
%ADD11C,2.000000*%
%ADD12C,2.500000*%
%ADD13O,3.048000X1.850000*%
%ADD14C,2.100000*%
%ADD15O,1.700000X1.700000*%
%ADD16R,1.700000X1.700000*%
%ADD17C,5.000000*%
%ADD18C,2.900000*%
%ADD19C,9.200000*%
%ADD20C,1.800000*%
%ADD21R,1.800000X1.800000*%
G04 APERTURE END LIST*
D10*
%TO.C,U2*%
X170648000Y-138274000D03*
D11*
X165060000Y-118187000D03*
D10*
X165648000Y-138274000D03*
D12*
X174752000Y-124206000D03*
D10*
X159160000Y-132040000D03*
D12*
X161925000Y-124206000D03*
D10*
X159160000Y-127040000D03*
X159160000Y-129540000D03*
D11*
X165060000Y-122687000D03*
X171490000Y-122687000D03*
D10*
X168148000Y-138274000D03*
D12*
X161798000Y-134366000D03*
X174752000Y-134366000D03*
D11*
X171490000Y-118187000D03*
%TD*%
D12*
%TO.C,U1*%
X104775000Y-134874000D03*
X91948000Y-134874000D03*
X91948000Y-124714000D03*
X104902000Y-124714000D03*
D10*
X107540000Y-129540000D03*
X107540000Y-132040000D03*
X107540000Y-127040000D03*
X98552000Y-120806000D03*
X101052000Y-120806000D03*
X96052000Y-120806000D03*
D11*
X101640000Y-136393000D03*
X95210000Y-136393000D03*
X95210000Y-140893000D03*
X101640000Y-140893000D03*
%TD*%
D13*
%TO.C,SW2*%
X163068000Y-104060000D03*
X163068000Y-99060000D03*
X175568000Y-104060000D03*
X175568000Y-99060000D03*
%TD*%
%TO.C,SW1*%
X93980000Y-104060000D03*
X93980000Y-99060000D03*
X106480000Y-104060000D03*
X106480000Y-99060000D03*
%TD*%
D14*
%TO.C,H22*%
X166116000Y-69596000D03*
%TD*%
%TO.C,H21*%
X166116000Y-88646000D03*
%TD*%
%TO.C,H20*%
X141224000Y-88646000D03*
%TD*%
%TO.C,H19*%
X141224000Y-69596000D03*
%TD*%
%TO.C,H18*%
X128016000Y-88646000D03*
%TD*%
%TO.C,H17*%
X103124000Y-88646000D03*
%TD*%
%TO.C,H16*%
X128016000Y-69596000D03*
%TD*%
%TO.C,H15*%
X103124000Y-69596000D03*
%TD*%
%TO.C,H12*%
X162306000Y-63500000D03*
%TD*%
%TO.C,H11*%
X129286000Y-63500000D03*
%TD*%
%TO.C,H10*%
X137922000Y-63500000D03*
%TD*%
%TO.C,H9*%
X104902000Y-63500000D03*
%TD*%
%TO.C,H8*%
X162306000Y-39370000D03*
%TD*%
%TO.C,H7*%
X129286000Y-39370000D03*
%TD*%
%TO.C,H6*%
X137922000Y-39370000D03*
%TD*%
%TO.C,H5*%
X104902000Y-39370000D03*
%TD*%
D15*
%TO.C,J11*%
X157988000Y-29718000D03*
X157988000Y-32258000D03*
X155448000Y-29718000D03*
X155448000Y-32258000D03*
X152908000Y-29718000D03*
X152908000Y-32258000D03*
X150368000Y-29718000D03*
X150368000Y-32258000D03*
X147828000Y-29718000D03*
X147828000Y-32258000D03*
X145288000Y-29718000D03*
X145288000Y-32258000D03*
X142748000Y-29718000D03*
X142748000Y-32258000D03*
X140208000Y-29718000D03*
X140208000Y-32258000D03*
X137668000Y-29718000D03*
X137668000Y-32258000D03*
X135128000Y-29718000D03*
D16*
X135128000Y-32258000D03*
%TD*%
D15*
%TO.C,J10*%
X130556000Y-29718000D03*
X130556000Y-32258000D03*
X128016000Y-29718000D03*
X128016000Y-32258000D03*
X125476000Y-29718000D03*
X125476000Y-32258000D03*
X122936000Y-29718000D03*
X122936000Y-32258000D03*
X120396000Y-29718000D03*
X120396000Y-32258000D03*
X117856000Y-29718000D03*
X117856000Y-32258000D03*
X115316000Y-29718000D03*
X115316000Y-32258000D03*
X112776000Y-29718000D03*
X112776000Y-32258000D03*
X110236000Y-29718000D03*
X110236000Y-32258000D03*
X107696000Y-29718000D03*
D16*
X107696000Y-32258000D03*
%TD*%
%TO.C,R9*%
G36*
G01*
X151832999Y-74534000D02*
X153983001Y-74534000D01*
G75*
G02*
X154233000Y-74783999I0J-249999D01*
G01*
X154233000Y-75584001D01*
G75*
G02*
X153983001Y-75834000I-249999J0D01*
G01*
X151832999Y-75834000D01*
G75*
G02*
X151583000Y-75584001I0J249999D01*
G01*
X151583000Y-74783999D01*
G75*
G02*
X151832999Y-74534000I249999J0D01*
G01*
G37*
G36*
G01*
X151832999Y-71434000D02*
X153983001Y-71434000D01*
G75*
G02*
X154233000Y-71683999I0J-249999D01*
G01*
X154233000Y-72484001D01*
G75*
G02*
X153983001Y-72734000I-249999J0D01*
G01*
X151832999Y-72734000D01*
G75*
G02*
X151583000Y-72484001I0J249999D01*
G01*
X151583000Y-71683999D01*
G75*
G02*
X151832999Y-71434000I249999J0D01*
G01*
G37*
%TD*%
%TO.C,C8*%
G36*
G01*
X151749998Y-132002500D02*
X153050002Y-132002500D01*
G75*
G02*
X153300000Y-132252498I0J-249998D01*
G01*
X153300000Y-133077502D01*
G75*
G02*
X153050002Y-133327500I-249998J0D01*
G01*
X151749998Y-133327500D01*
G75*
G02*
X151500000Y-133077502I0J249998D01*
G01*
X151500000Y-132252498D01*
G75*
G02*
X151749998Y-132002500I249998J0D01*
G01*
G37*
G36*
G01*
X151749998Y-128877500D02*
X153050002Y-128877500D01*
G75*
G02*
X153300000Y-129127498I0J-249998D01*
G01*
X153300000Y-129952502D01*
G75*
G02*
X153050002Y-130202500I-249998J0D01*
G01*
X151749998Y-130202500D01*
G75*
G02*
X151500000Y-129952502I0J249998D01*
G01*
X151500000Y-129127498D01*
G75*
G02*
X151749998Y-128877500I249998J0D01*
G01*
G37*
%TD*%
%TO.C,R21*%
G36*
G01*
X171644999Y-68464000D02*
X173795001Y-68464000D01*
G75*
G02*
X174045000Y-68713999I0J-249999D01*
G01*
X174045000Y-69514001D01*
G75*
G02*
X173795001Y-69764000I-249999J0D01*
G01*
X171644999Y-69764000D01*
G75*
G02*
X171395000Y-69514001I0J249999D01*
G01*
X171395000Y-68713999D01*
G75*
G02*
X171644999Y-68464000I249999J0D01*
G01*
G37*
G36*
G01*
X171644999Y-65364000D02*
X173795001Y-65364000D01*
G75*
G02*
X174045000Y-65613999I0J-249999D01*
G01*
X174045000Y-66414001D01*
G75*
G02*
X173795001Y-66664000I-249999J0D01*
G01*
X171644999Y-66664000D01*
G75*
G02*
X171395000Y-66414001I0J249999D01*
G01*
X171395000Y-65613999D01*
G75*
G02*
X171644999Y-65364000I249999J0D01*
G01*
G37*
%TD*%
%TO.C,R19*%
G36*
G01*
X169530000Y-39175001D02*
X169530000Y-37024999D01*
G75*
G02*
X169779999Y-36775000I249999J0D01*
G01*
X170580001Y-36775000D01*
G75*
G02*
X170830000Y-37024999I0J-249999D01*
G01*
X170830000Y-39175001D01*
G75*
G02*
X170580001Y-39425000I-249999J0D01*
G01*
X169779999Y-39425000D01*
G75*
G02*
X169530000Y-39175001I0J249999D01*
G01*
G37*
G36*
G01*
X166430000Y-39175001D02*
X166430000Y-37024999D01*
G75*
G02*
X166679999Y-36775000I249999J0D01*
G01*
X167480001Y-36775000D01*
G75*
G02*
X167730000Y-37024999I0J-249999D01*
G01*
X167730000Y-39175001D01*
G75*
G02*
X167480001Y-39425000I-249999J0D01*
G01*
X166679999Y-39425000D01*
G75*
G02*
X166430000Y-39175001I0J249999D01*
G01*
G37*
%TD*%
%TO.C,R18*%
G36*
G01*
X174128000Y-55939001D02*
X174128000Y-53788999D01*
G75*
G02*
X174377999Y-53539000I249999J0D01*
G01*
X175178001Y-53539000D01*
G75*
G02*
X175428000Y-53788999I0J-249999D01*
G01*
X175428000Y-55939001D01*
G75*
G02*
X175178001Y-56189000I-249999J0D01*
G01*
X174377999Y-56189000D01*
G75*
G02*
X174128000Y-55939001I0J249999D01*
G01*
G37*
G36*
G01*
X171028000Y-55939001D02*
X171028000Y-53788999D01*
G75*
G02*
X171277999Y-53539000I249999J0D01*
G01*
X172078001Y-53539000D01*
G75*
G02*
X172328000Y-53788999I0J-249999D01*
G01*
X172328000Y-55939001D01*
G75*
G02*
X172078001Y-56189000I-249999J0D01*
G01*
X171277999Y-56189000D01*
G75*
G02*
X171028000Y-55939001I0J249999D01*
G01*
G37*
%TD*%
%TO.C,R17*%
G36*
G01*
X117288999Y-44562000D02*
X119439001Y-44562000D01*
G75*
G02*
X119689000Y-44811999I0J-249999D01*
G01*
X119689000Y-45612001D01*
G75*
G02*
X119439001Y-45862000I-249999J0D01*
G01*
X117288999Y-45862000D01*
G75*
G02*
X117039000Y-45612001I0J249999D01*
G01*
X117039000Y-44811999D01*
G75*
G02*
X117288999Y-44562000I249999J0D01*
G01*
G37*
G36*
G01*
X117288999Y-41462000D02*
X119439001Y-41462000D01*
G75*
G02*
X119689000Y-41711999I0J-249999D01*
G01*
X119689000Y-42512001D01*
G75*
G02*
X119439001Y-42762000I-249999J0D01*
G01*
X117288999Y-42762000D01*
G75*
G02*
X117039000Y-42512001I0J249999D01*
G01*
X117039000Y-41711999D01*
G75*
G02*
X117288999Y-41462000I249999J0D01*
G01*
G37*
%TD*%
%TO.C,R16*%
G36*
G01*
X121352999Y-44588000D02*
X123503001Y-44588000D01*
G75*
G02*
X123753000Y-44837999I0J-249999D01*
G01*
X123753000Y-45638001D01*
G75*
G02*
X123503001Y-45888000I-249999J0D01*
G01*
X121352999Y-45888000D01*
G75*
G02*
X121103000Y-45638001I0J249999D01*
G01*
X121103000Y-44837999D01*
G75*
G02*
X121352999Y-44588000I249999J0D01*
G01*
G37*
G36*
G01*
X121352999Y-41488000D02*
X123503001Y-41488000D01*
G75*
G02*
X123753000Y-41737999I0J-249999D01*
G01*
X123753000Y-42538001D01*
G75*
G02*
X123503001Y-42788000I-249999J0D01*
G01*
X121352999Y-42788000D01*
G75*
G02*
X121103000Y-42538001I0J249999D01*
G01*
X121103000Y-41737999D01*
G75*
G02*
X121352999Y-41488000I249999J0D01*
G01*
G37*
%TD*%
%TO.C,R14*%
G36*
G01*
X89856999Y-69454000D02*
X92007001Y-69454000D01*
G75*
G02*
X92257000Y-69703999I0J-249999D01*
G01*
X92257000Y-70504001D01*
G75*
G02*
X92007001Y-70754000I-249999J0D01*
G01*
X89856999Y-70754000D01*
G75*
G02*
X89607000Y-70504001I0J249999D01*
G01*
X89607000Y-69703999D01*
G75*
G02*
X89856999Y-69454000I249999J0D01*
G01*
G37*
G36*
G01*
X89856999Y-66354000D02*
X92007001Y-66354000D01*
G75*
G02*
X92257000Y-66603999I0J-249999D01*
G01*
X92257000Y-67404001D01*
G75*
G02*
X92007001Y-67654000I-249999J0D01*
G01*
X89856999Y-67654000D01*
G75*
G02*
X89607000Y-67404001I0J249999D01*
G01*
X89607000Y-66603999D01*
G75*
G02*
X89856999Y-66354000I249999J0D01*
G01*
G37*
%TD*%
%TO.C,R13*%
G36*
G01*
X166766000Y-50740999D02*
X166766000Y-52891001D01*
G75*
G02*
X166516001Y-53141000I-249999J0D01*
G01*
X165715999Y-53141000D01*
G75*
G02*
X165466000Y-52891001I0J249999D01*
G01*
X165466000Y-50740999D01*
G75*
G02*
X165715999Y-50491000I249999J0D01*
G01*
X166516001Y-50491000D01*
G75*
G02*
X166766000Y-50740999I0J-249999D01*
G01*
G37*
G36*
G01*
X169866000Y-50740999D02*
X169866000Y-52891001D01*
G75*
G02*
X169616001Y-53141000I-249999J0D01*
G01*
X168815999Y-53141000D01*
G75*
G02*
X168566000Y-52891001I0J249999D01*
G01*
X168566000Y-50740999D01*
G75*
G02*
X168815999Y-50491000I249999J0D01*
G01*
X169616001Y-50491000D01*
G75*
G02*
X169866000Y-50740999I0J-249999D01*
G01*
G37*
%TD*%
%TO.C,R11*%
G36*
G01*
X97984999Y-59346000D02*
X100135001Y-59346000D01*
G75*
G02*
X100385000Y-59595999I0J-249999D01*
G01*
X100385000Y-60396001D01*
G75*
G02*
X100135001Y-60646000I-249999J0D01*
G01*
X97984999Y-60646000D01*
G75*
G02*
X97735000Y-60396001I0J249999D01*
G01*
X97735000Y-59595999D01*
G75*
G02*
X97984999Y-59346000I249999J0D01*
G01*
G37*
G36*
G01*
X97984999Y-56246000D02*
X100135001Y-56246000D01*
G75*
G02*
X100385000Y-56495999I0J-249999D01*
G01*
X100385000Y-57296001D01*
G75*
G02*
X100135001Y-57546000I-249999J0D01*
G01*
X97984999Y-57546000D01*
G75*
G02*
X97735000Y-57296001I0J249999D01*
G01*
X97735000Y-56495999D01*
G75*
G02*
X97984999Y-56246000I249999J0D01*
G01*
G37*
%TD*%
%TO.C,R10*%
G36*
G01*
X89975001Y-45354000D02*
X87824999Y-45354000D01*
G75*
G02*
X87575000Y-45104001I0J249999D01*
G01*
X87575000Y-44303999D01*
G75*
G02*
X87824999Y-44054000I249999J0D01*
G01*
X89975001Y-44054000D01*
G75*
G02*
X90225000Y-44303999I0J-249999D01*
G01*
X90225000Y-45104001D01*
G75*
G02*
X89975001Y-45354000I-249999J0D01*
G01*
G37*
G36*
G01*
X89975001Y-48454000D02*
X87824999Y-48454000D01*
G75*
G02*
X87575000Y-48204001I0J249999D01*
G01*
X87575000Y-47403999D01*
G75*
G02*
X87824999Y-47154000I249999J0D01*
G01*
X89975001Y-47154000D01*
G75*
G02*
X90225000Y-47403999I0J-249999D01*
G01*
X90225000Y-48204001D01*
G75*
G02*
X89975001Y-48454000I-249999J0D01*
G01*
G37*
%TD*%
%TO.C,R8*%
G36*
G01*
X147768999Y-74534000D02*
X149919001Y-74534000D01*
G75*
G02*
X150169000Y-74783999I0J-249999D01*
G01*
X150169000Y-75584001D01*
G75*
G02*
X149919001Y-75834000I-249999J0D01*
G01*
X147768999Y-75834000D01*
G75*
G02*
X147519000Y-75584001I0J249999D01*
G01*
X147519000Y-74783999D01*
G75*
G02*
X147768999Y-74534000I249999J0D01*
G01*
G37*
G36*
G01*
X147768999Y-71434000D02*
X149919001Y-71434000D01*
G75*
G02*
X150169000Y-71683999I0J-249999D01*
G01*
X150169000Y-72484001D01*
G75*
G02*
X149919001Y-72734000I-249999J0D01*
G01*
X147768999Y-72734000D01*
G75*
G02*
X147519000Y-72484001I0J249999D01*
G01*
X147519000Y-71683999D01*
G75*
G02*
X147768999Y-71434000I249999J0D01*
G01*
G37*
%TD*%
%TO.C,R7*%
G36*
G01*
X113224999Y-75602000D02*
X115375001Y-75602000D01*
G75*
G02*
X115625000Y-75851999I0J-249999D01*
G01*
X115625000Y-76652001D01*
G75*
G02*
X115375001Y-76902000I-249999J0D01*
G01*
X113224999Y-76902000D01*
G75*
G02*
X112975000Y-76652001I0J249999D01*
G01*
X112975000Y-75851999D01*
G75*
G02*
X113224999Y-75602000I249999J0D01*
G01*
G37*
G36*
G01*
X113224999Y-72502000D02*
X115375001Y-72502000D01*
G75*
G02*
X115625000Y-72751999I0J-249999D01*
G01*
X115625000Y-73552001D01*
G75*
G02*
X115375001Y-73802000I-249999J0D01*
G01*
X113224999Y-73802000D01*
G75*
G02*
X112975000Y-73552001I0J249999D01*
G01*
X112975000Y-72751999D01*
G75*
G02*
X113224999Y-72502000I249999J0D01*
G01*
G37*
%TD*%
%TO.C,R5*%
G36*
G01*
X157338000Y-119439001D02*
X157338000Y-117288999D01*
G75*
G02*
X157587999Y-117039000I249999J0D01*
G01*
X158388001Y-117039000D01*
G75*
G02*
X158638000Y-117288999I0J-249999D01*
G01*
X158638000Y-119439001D01*
G75*
G02*
X158388001Y-119689000I-249999J0D01*
G01*
X157587999Y-119689000D01*
G75*
G02*
X157338000Y-119439001I0J249999D01*
G01*
G37*
G36*
G01*
X154238000Y-119439001D02*
X154238000Y-117288999D01*
G75*
G02*
X154487999Y-117039000I249999J0D01*
G01*
X155288001Y-117039000D01*
G75*
G02*
X155538000Y-117288999I0J-249999D01*
G01*
X155538000Y-119439001D01*
G75*
G02*
X155288001Y-119689000I-249999J0D01*
G01*
X154487999Y-119689000D01*
G75*
G02*
X154238000Y-119439001I0J249999D01*
G01*
G37*
%TD*%
%TO.C,R4*%
G36*
G01*
X166026000Y-110295001D02*
X166026000Y-108144999D01*
G75*
G02*
X166275999Y-107895000I249999J0D01*
G01*
X167076001Y-107895000D01*
G75*
G02*
X167326000Y-108144999I0J-249999D01*
G01*
X167326000Y-110295001D01*
G75*
G02*
X167076001Y-110545000I-249999J0D01*
G01*
X166275999Y-110545000D01*
G75*
G02*
X166026000Y-110295001I0J249999D01*
G01*
G37*
G36*
G01*
X162926000Y-110295001D02*
X162926000Y-108144999D01*
G75*
G02*
X163175999Y-107895000I249999J0D01*
G01*
X163976001Y-107895000D01*
G75*
G02*
X164226000Y-108144999I0J-249999D01*
G01*
X164226000Y-110295001D01*
G75*
G02*
X163976001Y-110545000I-249999J0D01*
G01*
X163175999Y-110545000D01*
G75*
G02*
X162926000Y-110295001I0J249999D01*
G01*
G37*
%TD*%
%TO.C,R3*%
G36*
G01*
X110041001Y-107304000D02*
X107890999Y-107304000D01*
G75*
G02*
X107641000Y-107054001I0J249999D01*
G01*
X107641000Y-106253999D01*
G75*
G02*
X107890999Y-106004000I249999J0D01*
G01*
X110041001Y-106004000D01*
G75*
G02*
X110291000Y-106253999I0J-249999D01*
G01*
X110291000Y-107054001D01*
G75*
G02*
X110041001Y-107304000I-249999J0D01*
G01*
G37*
G36*
G01*
X110041001Y-110404000D02*
X107890999Y-110404000D01*
G75*
G02*
X107641000Y-110154001I0J249999D01*
G01*
X107641000Y-109353999D01*
G75*
G02*
X107890999Y-109104000I249999J0D01*
G01*
X110041001Y-109104000D01*
G75*
G02*
X110291000Y-109353999I0J-249999D01*
G01*
X110291000Y-110154001D01*
G75*
G02*
X110041001Y-110404000I-249999J0D01*
G01*
G37*
%TD*%
%TO.C,R2*%
G36*
G01*
X128106000Y-131512999D02*
X128106000Y-133663001D01*
G75*
G02*
X127856001Y-133913000I-249999J0D01*
G01*
X127055999Y-133913000D01*
G75*
G02*
X126806000Y-133663001I0J249999D01*
G01*
X126806000Y-131512999D01*
G75*
G02*
X127055999Y-131263000I249999J0D01*
G01*
X127856001Y-131263000D01*
G75*
G02*
X128106000Y-131512999I0J-249999D01*
G01*
G37*
G36*
G01*
X131206000Y-131512999D02*
X131206000Y-133663001D01*
G75*
G02*
X130956001Y-133913000I-249999J0D01*
G01*
X130155999Y-133913000D01*
G75*
G02*
X129906000Y-133663001I0J249999D01*
G01*
X129906000Y-131512999D01*
G75*
G02*
X130155999Y-131263000I249999J0D01*
G01*
X130956001Y-131263000D01*
G75*
G02*
X131206000Y-131512999I0J-249999D01*
G01*
G37*
%TD*%
%TO.C,R1*%
G36*
G01*
X108346000Y-140656999D02*
X108346000Y-142807001D01*
G75*
G02*
X108096001Y-143057000I-249999J0D01*
G01*
X107295999Y-143057000D01*
G75*
G02*
X107046000Y-142807001I0J249999D01*
G01*
X107046000Y-140656999D01*
G75*
G02*
X107295999Y-140407000I249999J0D01*
G01*
X108096001Y-140407000D01*
G75*
G02*
X108346000Y-140656999I0J-249999D01*
G01*
G37*
G36*
G01*
X111446000Y-140656999D02*
X111446000Y-142807001D01*
G75*
G02*
X111196001Y-143057000I-249999J0D01*
G01*
X110395999Y-143057000D01*
G75*
G02*
X110146000Y-142807001I0J249999D01*
G01*
X110146000Y-140656999D01*
G75*
G02*
X110395999Y-140407000I249999J0D01*
G01*
X111196001Y-140407000D01*
G75*
G02*
X111446000Y-140656999I0J-249999D01*
G01*
G37*
%TD*%
D15*
%TO.C,J9*%
X147650200Y-137693400D03*
X145110200Y-137693400D03*
X147650200Y-135153400D03*
X145110200Y-135153400D03*
X147650200Y-132613400D03*
X145110200Y-132613400D03*
X147650200Y-130073400D03*
X145110200Y-130073400D03*
X147650200Y-127533400D03*
X145110200Y-127533400D03*
X147650200Y-124993400D03*
X145110200Y-124993400D03*
X147650200Y-122453400D03*
X145110200Y-122453400D03*
X147650200Y-119913400D03*
X145110200Y-119913400D03*
X147650200Y-117373400D03*
X145110200Y-117373400D03*
X147650200Y-114833400D03*
D16*
X145110200Y-114833400D03*
%TD*%
D15*
%TO.C,J8*%
X175260000Y-50800000D03*
X172720000Y-50800000D03*
X175260000Y-48260000D03*
X172720000Y-48260000D03*
X175260000Y-45720000D03*
X172720000Y-45720000D03*
X175260000Y-43180000D03*
D16*
X172720000Y-43180000D03*
%TD*%
D15*
%TO.C,J7*%
X96520000Y-50800000D03*
X93980000Y-50800000D03*
X96520000Y-48260000D03*
X93980000Y-48260000D03*
X96520000Y-45720000D03*
X93980000Y-45720000D03*
X96520000Y-43180000D03*
D16*
X93980000Y-43180000D03*
%TD*%
D15*
%TO.C,J6*%
X162560000Y-68580000D03*
X160020000Y-68580000D03*
X157480000Y-68580000D03*
X154940000Y-68580000D03*
X152400000Y-68580000D03*
X149860000Y-68580000D03*
X147320000Y-68580000D03*
D16*
X144780000Y-68580000D03*
%TD*%
D15*
%TO.C,J5*%
X153924000Y-38608000D03*
X151384000Y-38608000D03*
X148844000Y-38608000D03*
D16*
X146304000Y-38608000D03*
%TD*%
D15*
%TO.C,J4*%
X122123200Y-137668000D03*
X119583200Y-137668000D03*
X122123200Y-135128000D03*
X119583200Y-135128000D03*
X122123200Y-132588000D03*
X119583200Y-132588000D03*
X122123200Y-130048000D03*
X119583200Y-130048000D03*
X122123200Y-127508000D03*
X119583200Y-127508000D03*
X122123200Y-124968000D03*
X119583200Y-124968000D03*
X122123200Y-122428000D03*
X119583200Y-122428000D03*
X122123200Y-119888000D03*
X119583200Y-119888000D03*
X122123200Y-117348000D03*
X119583200Y-117348000D03*
X122123200Y-114808000D03*
D16*
X119583200Y-114808000D03*
%TD*%
D15*
%TO.C,J3*%
X120904000Y-38608000D03*
X118364000Y-38608000D03*
X115824000Y-38608000D03*
D16*
X113284000Y-38608000D03*
%TD*%
D15*
%TO.C,J2*%
X124460000Y-68580000D03*
X121920000Y-68580000D03*
X119380000Y-68580000D03*
X116840000Y-68580000D03*
X114300000Y-68580000D03*
X111760000Y-68580000D03*
X109220000Y-68580000D03*
D16*
X106680000Y-68580000D03*
%TD*%
D15*
%TO.C,J1*%
X142240000Y-102616000D03*
X142240000Y-100076000D03*
X142240000Y-97536000D03*
D16*
X142240000Y-94996000D03*
%TD*%
D17*
%TO.C,H14*%
X150876000Y-150876000D03*
D18*
X150876000Y-150876000D03*
%TD*%
D17*
%TO.C,H13*%
X140716000Y-150876000D03*
D18*
X140716000Y-150876000D03*
%TD*%
D19*
%TO.C,H4*%
X175260000Y-149860000D03*
%TD*%
%TO.C,H3*%
X91440000Y-149860000D03*
%TD*%
%TO.C,H2*%
X175260000Y-30480000D03*
%TD*%
%TO.C,H1*%
X91440000Y-30480000D03*
%TD*%
D20*
%TO.C,D2*%
X175260000Y-60960000D03*
D21*
X172720000Y-60960000D03*
%TD*%
D20*
%TO.C,D1*%
X93980000Y-60960000D03*
D21*
X91440000Y-60960000D03*
%TD*%
%TO.C,C9*%
G36*
G01*
X163653500Y-134477998D02*
X163653500Y-135778002D01*
G75*
G02*
X163403502Y-136028000I-249998J0D01*
G01*
X162578498Y-136028000D01*
G75*
G02*
X162328500Y-135778002I0J249998D01*
G01*
X162328500Y-134477998D01*
G75*
G02*
X162578498Y-134228000I249998J0D01*
G01*
X163403502Y-134228000D01*
G75*
G02*
X163653500Y-134477998I0J-249998D01*
G01*
G37*
G36*
G01*
X166778500Y-134477998D02*
X166778500Y-135778002D01*
G75*
G02*
X166528502Y-136028000I-249998J0D01*
G01*
X165703498Y-136028000D01*
G75*
G02*
X165453500Y-135778002I0J249998D01*
G01*
X165453500Y-134477998D01*
G75*
G02*
X165703498Y-134228000I249998J0D01*
G01*
X166528502Y-134228000D01*
G75*
G02*
X166778500Y-134477998I0J-249998D01*
G01*
G37*
%TD*%
%TO.C,C7*%
G36*
G01*
X157364000Y-114950002D02*
X157364000Y-113649998D01*
G75*
G02*
X157613998Y-113400000I249998J0D01*
G01*
X158439002Y-113400000D01*
G75*
G02*
X158689000Y-113649998I0J-249998D01*
G01*
X158689000Y-114950002D01*
G75*
G02*
X158439002Y-115200000I-249998J0D01*
G01*
X157613998Y-115200000D01*
G75*
G02*
X157364000Y-114950002I0J249998D01*
G01*
G37*
G36*
G01*
X154239000Y-114950002D02*
X154239000Y-113649998D01*
G75*
G02*
X154488998Y-113400000I249998J0D01*
G01*
X155314002Y-113400000D01*
G75*
G02*
X155564000Y-113649998I0J-249998D01*
G01*
X155564000Y-114950002D01*
G75*
G02*
X155314002Y-115200000I-249998J0D01*
G01*
X154488998Y-115200000D01*
G75*
G02*
X154239000Y-114950002I0J249998D01*
G01*
G37*
%TD*%
%TO.C,C6*%
G36*
G01*
X99710002Y-112930500D02*
X98409998Y-112930500D01*
G75*
G02*
X98160000Y-112680502I0J249998D01*
G01*
X98160000Y-111855498D01*
G75*
G02*
X98409998Y-111605500I249998J0D01*
G01*
X99710002Y-111605500D01*
G75*
G02*
X99960000Y-111855498I0J-249998D01*
G01*
X99960000Y-112680502D01*
G75*
G02*
X99710002Y-112930500I-249998J0D01*
G01*
G37*
G36*
G01*
X99710002Y-116055500D02*
X98409998Y-116055500D01*
G75*
G02*
X98160000Y-115805502I0J249998D01*
G01*
X98160000Y-114980498D01*
G75*
G02*
X98409998Y-114730500I249998J0D01*
G01*
X99710002Y-114730500D01*
G75*
G02*
X99960000Y-114980498I0J-249998D01*
G01*
X99960000Y-115805502D01*
G75*
G02*
X99710002Y-116055500I-249998J0D01*
G01*
G37*
%TD*%
%TO.C,C5*%
G36*
G01*
X114442002Y-127154500D02*
X113141998Y-127154500D01*
G75*
G02*
X112892000Y-126904502I0J249998D01*
G01*
X112892000Y-126079498D01*
G75*
G02*
X113141998Y-125829500I249998J0D01*
G01*
X114442002Y-125829500D01*
G75*
G02*
X114692000Y-126079498I0J-249998D01*
G01*
X114692000Y-126904502D01*
G75*
G02*
X114442002Y-127154500I-249998J0D01*
G01*
G37*
G36*
G01*
X114442002Y-130279500D02*
X113141998Y-130279500D01*
G75*
G02*
X112892000Y-130029502I0J249998D01*
G01*
X112892000Y-129204498D01*
G75*
G02*
X113141998Y-128954500I249998J0D01*
G01*
X114442002Y-128954500D01*
G75*
G02*
X114692000Y-129204498I0J-249998D01*
G01*
X114692000Y-130029502D01*
G75*
G02*
X114442002Y-130279500I-249998J0D01*
G01*
G37*
%TD*%
%TO.C,C4*%
G36*
G01*
X166038500Y-112918002D02*
X166038500Y-111617998D01*
G75*
G02*
X166288498Y-111368000I249998J0D01*
G01*
X167113502Y-111368000D01*
G75*
G02*
X167363500Y-111617998I0J-249998D01*
G01*
X167363500Y-112918002D01*
G75*
G02*
X167113502Y-113168000I-249998J0D01*
G01*
X166288498Y-113168000D01*
G75*
G02*
X166038500Y-112918002I0J249998D01*
G01*
G37*
G36*
G01*
X162913500Y-112918002D02*
X162913500Y-111617998D01*
G75*
G02*
X163163498Y-111368000I249998J0D01*
G01*
X163988502Y-111368000D01*
G75*
G02*
X164238500Y-111617998I0J-249998D01*
G01*
X164238500Y-112918002D01*
G75*
G02*
X163988502Y-113168000I-249998J0D01*
G01*
X163163498Y-113168000D01*
G75*
G02*
X162913500Y-112918002I0J249998D01*
G01*
G37*
%TD*%
%TO.C,C3*%
G36*
G01*
X112664002Y-107304000D02*
X111363998Y-107304000D01*
G75*
G02*
X111114000Y-107054002I0J249998D01*
G01*
X111114000Y-106228998D01*
G75*
G02*
X111363998Y-105979000I249998J0D01*
G01*
X112664002Y-105979000D01*
G75*
G02*
X112914000Y-106228998I0J-249998D01*
G01*
X112914000Y-107054002D01*
G75*
G02*
X112664002Y-107304000I-249998J0D01*
G01*
G37*
G36*
G01*
X112664002Y-110429000D02*
X111363998Y-110429000D01*
G75*
G02*
X111114000Y-110179002I0J249998D01*
G01*
X111114000Y-109353998D01*
G75*
G02*
X111363998Y-109104000I249998J0D01*
G01*
X112664002Y-109104000D01*
G75*
G02*
X112914000Y-109353998I0J-249998D01*
G01*
X112914000Y-110179002D01*
G75*
G02*
X112664002Y-110429000I-249998J0D01*
G01*
G37*
%TD*%
%TO.C,C2*%
G36*
G01*
X131656002Y-125630500D02*
X129455998Y-125630500D01*
G75*
G02*
X129206000Y-125380502I0J249998D01*
G01*
X129206000Y-124555498D01*
G75*
G02*
X129455998Y-124305500I249998J0D01*
G01*
X131656002Y-124305500D01*
G75*
G02*
X131906000Y-124555498I0J-249998D01*
G01*
X131906000Y-125380502D01*
G75*
G02*
X131656002Y-125630500I-249998J0D01*
G01*
G37*
G36*
G01*
X131656002Y-128755500D02*
X129455998Y-128755500D01*
G75*
G02*
X129206000Y-128505502I0J249998D01*
G01*
X129206000Y-127680498D01*
G75*
G02*
X129455998Y-127430500I249998J0D01*
G01*
X131656002Y-127430500D01*
G75*
G02*
X131906000Y-127680498I0J-249998D01*
G01*
X131906000Y-128505502D01*
G75*
G02*
X131656002Y-128755500I-249998J0D01*
G01*
G37*
%TD*%
%TO.C,C1*%
G36*
G01*
X108358500Y-145145998D02*
X108358500Y-146446002D01*
G75*
G02*
X108108502Y-146696000I-249998J0D01*
G01*
X107283498Y-146696000D01*
G75*
G02*
X107033500Y-146446002I0J249998D01*
G01*
X107033500Y-145145998D01*
G75*
G02*
X107283498Y-144896000I249998J0D01*
G01*
X108108502Y-144896000D01*
G75*
G02*
X108358500Y-145145998I0J-249998D01*
G01*
G37*
G36*
G01*
X111483500Y-145145998D02*
X111483500Y-146446002D01*
G75*
G02*
X111233502Y-146696000I-249998J0D01*
G01*
X110408498Y-146696000D01*
G75*
G02*
X110158500Y-146446002I0J249998D01*
G01*
X110158500Y-145145998D01*
G75*
G02*
X110408498Y-144896000I249998J0D01*
G01*
X111233502Y-144896000D01*
G75*
G02*
X111483500Y-145145998I0J-249998D01*
G01*
G37*
%TD*%
M02*
