%TF.GenerationSoftware,KiCad,Pcbnew,5.1.10*%
%TF.CreationDate,2021-07-13T19:10:57+02:00*%
%TF.ProjectId,lni-badge,6c6e692d-6261-4646-9765-2e6b69636164,rev?*%
%TF.SameCoordinates,Original*%
%TF.FileFunction,Legend,Top*%
%TF.FilePolarity,Positive*%
%FSLAX46Y46*%
G04 Gerber Fmt 4.6, Leading zero omitted, Abs format (unit mm)*
G04 Created by KiCad (PCBNEW 5.1.10) date 2021-07-13 19:10:57*
%MOMM*%
%LPD*%
G01*
G04 APERTURE LIST*
%ADD10C,0.150000*%
%ADD11C,0.200000*%
%ADD12C,0.120000*%
G04 APERTURE END LIST*
D10*
X113541180Y-106275142D02*
X113588800Y-106322761D01*
X113541180Y-106370380D01*
X113493561Y-106322761D01*
X113541180Y-106275142D01*
X113541180Y-106370380D01*
X113350704Y-105418000D02*
X113445942Y-105370380D01*
X113684038Y-105370380D01*
X113779276Y-105418000D01*
X113826895Y-105513238D01*
X113826895Y-105608476D01*
X113779276Y-105703714D01*
X113731657Y-105751333D01*
X113636419Y-105798952D01*
X113588800Y-105846571D01*
X113541180Y-105941809D01*
X113541180Y-105989428D01*
D11*
X161185890Y-150652941D02*
X161159644Y-150614440D01*
X161255018Y-150671314D02*
X161185890Y-150652941D01*
X161298771Y-150666939D02*
X161255018Y-150671314D01*
X161367026Y-150601311D02*
X161298771Y-150666939D01*
X137026748Y-106123540D02*
X138072632Y-106185385D01*
X160112216Y-96633190D02*
X160112178Y-96633190D01*
X160226555Y-96584187D02*
X160112216Y-96633190D01*
X160266224Y-96473347D02*
X160226555Y-96584187D01*
X147680533Y-90411091D02*
X148307337Y-90347994D01*
X117324116Y-99229181D02*
X117889313Y-99245342D01*
X157140400Y-95510827D02*
X157400583Y-95422154D01*
X156980558Y-95736007D02*
X157140400Y-95510827D01*
X156923389Y-95955354D02*
X156980558Y-95736007D01*
X149905495Y-95157295D02*
X149982499Y-95250634D01*
X149830822Y-95160795D02*
X149905495Y-95157295D01*
X149830805Y-95096669D02*
X149830822Y-95160795D01*
X162595822Y-97046466D02*
X162574883Y-97372332D01*
X162461253Y-96520372D02*
X162595822Y-97046466D01*
X151415200Y-91987261D02*
X151520206Y-92018763D01*
X151306691Y-92014095D02*
X151415200Y-91987261D01*
X159336116Y-95531796D02*
X159179773Y-95760477D01*
X159427121Y-95611134D02*
X159336116Y-95531796D01*
X159456291Y-95789645D02*
X159427121Y-95611134D01*
X104953194Y-114532514D02*
X104339100Y-115062863D01*
X106009022Y-114201075D02*
X104953194Y-114532514D01*
X108808810Y-113981689D02*
X108152364Y-114118135D01*
X150695433Y-92465588D02*
X150772440Y-92529759D01*
X150572926Y-92438755D02*
X150695433Y-92465588D01*
X149252093Y-96123373D02*
X149338434Y-96367221D01*
X149173924Y-95864357D02*
X149252093Y-96123373D01*
X149340768Y-95635676D02*
X149173924Y-95864357D01*
X151517951Y-96616895D02*
X151460781Y-96515389D01*
X151611290Y-96634396D02*
X151517951Y-96616895D01*
X151684795Y-96622729D02*
X151611290Y-96634396D01*
X151765299Y-96542224D02*
X151684795Y-96622729D01*
X151783954Y-95857348D02*
X151765299Y-96542224D01*
X151804951Y-95717339D02*
X151783954Y-95857348D01*
X110553895Y-111726084D02*
X110378432Y-112463999D01*
X110448232Y-110940875D02*
X110553895Y-111726084D01*
X109997092Y-110149602D02*
X110448232Y-110940875D01*
X149380447Y-95251845D02*
X149421282Y-95212176D01*
X149373448Y-95293847D02*
X149380447Y-95251845D01*
X149425952Y-95377853D02*
X149373448Y-95293847D01*
X160112178Y-96633190D02*
X159999004Y-96585354D01*
X160103979Y-96173495D02*
X160104022Y-96173495D01*
X160226486Y-96077823D02*
X160103979Y-96173495D01*
X108173863Y-114896304D02*
X108045733Y-114053493D01*
X108158745Y-115768635D02*
X108173863Y-114896304D01*
X108064174Y-116561568D02*
X108158745Y-115768635D01*
X104548871Y-109565392D02*
X105135087Y-109204928D01*
X103816022Y-110223895D02*
X104548871Y-109565392D01*
X106686372Y-109219265D02*
X106866912Y-109527804D01*
X153356731Y-95638000D02*
X153305395Y-95747673D01*
X153424402Y-95592498D02*
X153356731Y-95638000D01*
X153471074Y-95635667D02*
X153424402Y-95592498D01*
X156368039Y-96333343D02*
X156431042Y-96187501D01*
X156259533Y-96391680D02*
X156368039Y-96333343D01*
X156628170Y-96633208D02*
X156628222Y-96633195D01*
X156817180Y-96506033D02*
X156628170Y-96633208D01*
X156828836Y-95741819D02*
X156817180Y-96506033D01*
X156819494Y-94988106D02*
X156828836Y-95741819D01*
X138873909Y-108340170D02*
X139652522Y-109428155D01*
X155821763Y-151403702D02*
X155795517Y-151344201D01*
X155888266Y-151425575D02*
X155821763Y-151403702D01*
X155911888Y-151424728D02*
X155888266Y-151425575D01*
X148917302Y-96100028D02*
X148917322Y-96159495D01*
X149011810Y-96338043D02*
X148917302Y-96100028D01*
X149109814Y-96597059D02*
X149011810Y-96338043D01*
X108366939Y-109465999D02*
X108594476Y-109735591D01*
X108475050Y-109202949D02*
X108366939Y-109465999D01*
X109056122Y-109432295D02*
X108475050Y-109202949D01*
X115035657Y-105160829D02*
X115189000Y-105410000D01*
X114986916Y-105002341D02*
X115052005Y-105277420D01*
X114798008Y-104550071D02*
X114986916Y-105002341D01*
X109136122Y-109393495D02*
X109997092Y-110149602D01*
X106315176Y-109447462D02*
X106417452Y-109672176D01*
X105927929Y-109118914D02*
X106315176Y-109447462D01*
X107143222Y-110161195D02*
X107454988Y-110415677D01*
X108791202Y-109721009D02*
X109020346Y-109525866D01*
X108594476Y-109735591D02*
X108791202Y-109721009D01*
X136531232Y-103689331D02*
X136758079Y-103345887D01*
X164262462Y-150782446D02*
X164343841Y-150576808D01*
X164201209Y-150579432D02*
X164262462Y-150782446D01*
X164032322Y-150189158D02*
X164201209Y-150579432D01*
X163903691Y-150134028D02*
X164032322Y-150189158D01*
X131457305Y-101882591D02*
X131427384Y-102128710D01*
X137056122Y-103116195D02*
X137026882Y-103460034D01*
X133356522Y-100902495D02*
X134876667Y-102084847D01*
X139676162Y-112438005D02*
X138837838Y-112888039D01*
X121568692Y-109288161D02*
X121948839Y-109081457D01*
X134356533Y-104929531D02*
X135165809Y-105475975D01*
X138352447Y-104117475D02*
X137733166Y-104043315D01*
X136770824Y-103133178D02*
X136651765Y-103162578D01*
X149192652Y-96648395D02*
X149109814Y-96597059D01*
X149249822Y-96651895D02*
X149192652Y-96648395D01*
X148337421Y-96637897D02*
X148337422Y-96637895D01*
X146290990Y-95601839D02*
X146113644Y-95624007D01*
X146370328Y-95494499D02*
X146290990Y-95601839D01*
X146283988Y-95397660D02*
X146370328Y-95494499D01*
X156604927Y-93774695D02*
X156569925Y-93781697D01*
X156749602Y-93620686D02*
X156604927Y-93774695D01*
X156774098Y-93513346D02*
X156749602Y-93620686D01*
X126915035Y-101604910D02*
X126697322Y-101308397D01*
X161507038Y-150184785D02*
X161794933Y-150123531D01*
X161495665Y-150450802D02*
X161507038Y-150184785D01*
X161510538Y-151062465D02*
X161495665Y-150450802D01*
X161538534Y-151391485D02*
X161510538Y-151062465D01*
X140595615Y-109174383D02*
X140930945Y-108877405D01*
X154675178Y-96482753D02*
X154656523Y-96240071D01*
X154765015Y-96600593D02*
X154675178Y-96482753D01*
X154887522Y-96639095D02*
X154765015Y-96600593D01*
X150366332Y-95017325D02*
X150386172Y-95077996D01*
X150202990Y-94975322D02*
X150366332Y-95017325D01*
X150103818Y-94986989D02*
X150202990Y-94975322D01*
X158820561Y-150655566D02*
X158846808Y-150504182D01*
X158758432Y-150756198D02*
X158820561Y-150655566D01*
X158665678Y-150794701D02*
X158758432Y-150756198D01*
X158983331Y-151436135D02*
X158983322Y-151436115D01*
X156994325Y-151291723D02*
X157110708Y-151248845D01*
X157015270Y-151432524D02*
X157015322Y-151432605D01*
X157238406Y-151380023D02*
X157015270Y-151432524D01*
X148828375Y-89606142D02*
X149037401Y-89533588D01*
X146304607Y-97779731D02*
X146116007Y-97950335D01*
X155016971Y-92987120D02*
X155013472Y-92816776D01*
X155012314Y-93314974D02*
X155016971Y-92987120D01*
X155015814Y-93506319D02*
X155012314Y-93314974D01*
X159748163Y-151403702D02*
X159721917Y-151344201D01*
X159814669Y-151425575D02*
X159748163Y-151403702D01*
X159838291Y-151424728D02*
X159814669Y-151425575D01*
X159875917Y-151393226D02*
X159838291Y-151424728D01*
X166625239Y-150276787D02*
X166322471Y-150747567D01*
X166637488Y-150236533D02*
X166625239Y-150276787D01*
X166628739Y-150207656D02*
X166637488Y-150236533D01*
X166560486Y-150165656D02*
X166628739Y-150207656D01*
X153045153Y-92580006D02*
X153047410Y-92411996D01*
X153039311Y-92564840D02*
X153045153Y-92580006D01*
X137355041Y-105104204D02*
X136919152Y-105360781D01*
X148527622Y-92053795D02*
X148589457Y-91938288D01*
X148527630Y-92063131D02*
X148527622Y-92053795D01*
X148804145Y-93532056D02*
X148708472Y-93150532D01*
X148888151Y-93621894D02*
X148804145Y-93532056D01*
X132612018Y-95958411D02*
X132482347Y-96754235D01*
X132790779Y-95759562D02*
X132612018Y-95958411D01*
X132811776Y-95357771D02*
X132790779Y-95759562D01*
X132922404Y-95234122D02*
X132811776Y-95357771D01*
X149273780Y-98877672D02*
X148086860Y-98261059D01*
X150168213Y-98746405D02*
X149273780Y-98877672D01*
X118958580Y-102205746D02*
X119319044Y-102234082D01*
X120089218Y-98629572D02*
X120503046Y-98909360D01*
X104339100Y-115062863D02*
X103983582Y-115771716D01*
X104953194Y-114532514D02*
X104339100Y-115062863D01*
X106009022Y-114201075D02*
X104953194Y-114532514D01*
X150983626Y-92425919D02*
X151066464Y-92439920D01*
X150824950Y-92506425D02*
X150983626Y-92425919D01*
X149198493Y-93343042D02*
X149151825Y-93534387D01*
X149337335Y-92938184D02*
X149198493Y-93343042D01*
X119813922Y-102358495D02*
X120391574Y-103040026D01*
X161396778Y-150449927D02*
X161367026Y-150601311D01*
X161389779Y-150367671D02*
X161396778Y-150449927D01*
X161351278Y-150259165D02*
X161389779Y-150367671D01*
X161257648Y-150162907D02*
X161351278Y-150259165D01*
X161097512Y-150124407D02*
X161257648Y-150162907D01*
X160860372Y-150196162D02*
X161097512Y-150124407D01*
X160701111Y-150382547D02*
X160860372Y-150196162D01*
X160602232Y-150818323D02*
X160701111Y-150382547D01*
X136444822Y-103159595D02*
X136334489Y-103501902D01*
X144194402Y-92173931D02*
X144353966Y-91282088D01*
X144594597Y-97296151D02*
X144602512Y-96758167D01*
X157458145Y-150799067D02*
X157473893Y-150611804D01*
X157532525Y-151173590D02*
X157458145Y-150799067D01*
X157675160Y-151361728D02*
X157532525Y-151173590D01*
X157893922Y-151432605D02*
X157675160Y-151361728D01*
X160237294Y-150116506D02*
X160294173Y-150127879D01*
X160179540Y-150127004D02*
X160237294Y-150116506D01*
X160113912Y-150183883D02*
X160179540Y-150127004D01*
X159964278Y-150532153D02*
X160113912Y-150183883D01*
X120809622Y-103680995D02*
X125120759Y-101830083D01*
X136859522Y-102386395D02*
X137035496Y-101667735D01*
X105541399Y-121193345D02*
X105051711Y-121098456D01*
X105630383Y-120189813D02*
X105541399Y-121193345D01*
X105900094Y-119119053D02*
X105630383Y-120189813D01*
X158576721Y-96233035D02*
X158614057Y-96196866D01*
X158538218Y-96304206D02*
X158576721Y-96233035D01*
X158477549Y-96369543D02*
X158538218Y-96304206D01*
X129922402Y-94447348D02*
X130105696Y-94679677D01*
X129557948Y-94289069D02*
X129922402Y-94447348D01*
X128986116Y-94240495D02*
X129557948Y-94289069D01*
X129222322Y-95704195D02*
X128986116Y-94240495D01*
X151665322Y-90339829D02*
X152232311Y-90169247D01*
X105589747Y-109077701D02*
X105927929Y-109118914D01*
X105135087Y-109204928D02*
X105589747Y-109077701D01*
X104548871Y-109565392D02*
X105135087Y-109204928D01*
X139777722Y-109532495D02*
X138887563Y-111153655D01*
X147756395Y-96622729D02*
X147682890Y-96634396D01*
X147836899Y-96542224D02*
X147756395Y-96622729D01*
X147855554Y-95857348D02*
X147836899Y-96542224D01*
X160294157Y-95381280D02*
X160226486Y-96077823D01*
X160315154Y-95020758D02*
X160294157Y-95381280D01*
X160113309Y-94888917D02*
X160315154Y-95020758D01*
X144353966Y-91282088D02*
X144698405Y-91238934D01*
X133914918Y-100107091D02*
X134042996Y-100202641D01*
X121252115Y-106357726D02*
X121896732Y-106955203D01*
X162940227Y-150189158D02*
X163109114Y-150579432D01*
X162811596Y-150134028D02*
X162940227Y-150189158D01*
X162688211Y-150210161D02*
X162811596Y-150134028D01*
X162672463Y-150473550D02*
X162688211Y-150210161D01*
X134312451Y-96574129D02*
X134391004Y-97418958D01*
X134085440Y-95757717D02*
X134312451Y-96574129D01*
X133714675Y-94994921D02*
X134085440Y-95757717D01*
X133204861Y-94310940D02*
X133714675Y-94994921D01*
X145789272Y-95415152D02*
X145874444Y-95034795D01*
X145722767Y-95419820D02*
X145789272Y-95415152D01*
X145673763Y-95459489D02*
X145722767Y-95419820D01*
X153962245Y-92429420D02*
X154132589Y-92490090D01*
X153754566Y-92495924D02*
X153962245Y-92429420D01*
X153609891Y-92669768D02*
X153754566Y-92495924D01*
X155795517Y-151344201D02*
X155796364Y-151329328D01*
X155821763Y-151403702D02*
X155795517Y-151344201D01*
X155888266Y-151425575D02*
X155821763Y-151403702D01*
X155911888Y-151424728D02*
X155888266Y-151425575D01*
X120644448Y-105772552D02*
X120268725Y-106268839D01*
X164862808Y-150238280D02*
X164903937Y-150159526D01*
X164871557Y-150286410D02*
X164862808Y-150238280D01*
X165146326Y-150842068D02*
X164871557Y-150286410D01*
X164856682Y-151339098D02*
X165146326Y-150842068D01*
X106577328Y-110441348D02*
X106255508Y-110282211D01*
X106647528Y-110654721D02*
X106577328Y-110441348D01*
X106335227Y-111049360D02*
X106647528Y-110654721D01*
X118599554Y-102194600D02*
X118839171Y-102389984D01*
X159001316Y-96637917D02*
X159001422Y-96637895D01*
X159073653Y-96623916D02*
X159001316Y-96637917D01*
X159156493Y-96517743D02*
X159073653Y-96623916D01*
X158131058Y-150198781D02*
X158266691Y-150386041D01*
X157914921Y-150127026D02*
X158131058Y-150198781D01*
X157695282Y-150198781D02*
X157914921Y-150127026D01*
X157546523Y-150386041D02*
X157695282Y-150198781D01*
X117144120Y-109515991D02*
X117715322Y-109595678D01*
X161241021Y-151427366D02*
X161175390Y-151373111D01*
X161300522Y-151434365D02*
X161241021Y-151427366D01*
X160116556Y-151009085D02*
X160131427Y-151009083D01*
X160012425Y-150985463D02*
X160116556Y-151009085D01*
X163445217Y-150643313D02*
X163368212Y-150855950D01*
X163432968Y-151244474D02*
X163445217Y-150643313D01*
X163433815Y-151345981D02*
X163432968Y-151244474D01*
X163531822Y-151424735D02*
X163433815Y-151345981D01*
X158409294Y-151325013D02*
X158401420Y-150680974D01*
X158530926Y-151427395D02*
X158409294Y-151325013D01*
X158574678Y-151420396D02*
X158530926Y-151427395D01*
X158639432Y-151346891D02*
X158574678Y-151420396D01*
X146433329Y-95831645D02*
X146435586Y-95658968D01*
X146439171Y-96095328D02*
X146433329Y-95831645D01*
X146512675Y-96474518D02*
X146439171Y-96095328D01*
X157589639Y-95863181D02*
X157531300Y-95692837D01*
X157603637Y-96017190D02*
X157589639Y-95863181D01*
X157539465Y-96308875D02*
X157603637Y-96017190D01*
X133083230Y-95106596D02*
X132922404Y-95234122D01*
X132989354Y-94845746D02*
X133083230Y-95106596D01*
X133040425Y-94694304D02*
X132989354Y-94845746D01*
X133327022Y-94521395D02*
X133040425Y-94694304D01*
X155650466Y-93635827D02*
X155576962Y-93647494D01*
X155730970Y-93555322D02*
X155650466Y-93635827D01*
X155749653Y-92870447D02*
X155730970Y-93555322D01*
X121896732Y-106955203D02*
X122266797Y-107684603D01*
X165515595Y-151435268D02*
X165453464Y-151395015D01*
X165546222Y-151436115D02*
X165515595Y-151435268D01*
X164623864Y-151424729D02*
X164623922Y-151424735D01*
X164694744Y-151408981D02*
X164623864Y-151424729D01*
X156734433Y-150790316D02*
X156744056Y-150205781D01*
X156750180Y-151318850D02*
X156734433Y-150790316D01*
X156784307Y-151394104D02*
X156750180Y-151318850D01*
X120268725Y-106268839D02*
X119747623Y-106615009D01*
X137641673Y-104412197D02*
X137355041Y-105104204D01*
X166708291Y-150217983D02*
X166716165Y-150174230D01*
X166740668Y-150272238D02*
X166708291Y-150217983D01*
X166808045Y-150269698D02*
X166740668Y-150272238D01*
X166822918Y-150270544D02*
X166808045Y-150269698D01*
X150827221Y-95689337D02*
X150752551Y-96018357D01*
X150938061Y-95612332D02*
X150827221Y-95689337D01*
X151055903Y-95692837D02*
X150938061Y-95612332D01*
X140948515Y-107467226D02*
X140236763Y-106166793D01*
X163952667Y-151410732D02*
X163892289Y-151422106D01*
X164004297Y-151349479D02*
X163952667Y-151410732D01*
X164015671Y-151159592D02*
X164004297Y-151349479D01*
X164013131Y-150888326D02*
X164015671Y-151159592D01*
X133996688Y-100585835D02*
X133742074Y-100757850D01*
X166811545Y-150744821D02*
X166822918Y-150270544D01*
X166815919Y-151297855D02*
X166811545Y-150744821D01*
X166743290Y-151307479D02*
X166815919Y-151297855D01*
X166712663Y-151360859D02*
X166743290Y-151307479D01*
X138887563Y-111153655D02*
X139676162Y-112438005D01*
X149725860Y-93008189D02*
X149755030Y-93074693D01*
X149680357Y-92840179D02*
X149725860Y-93008189D01*
X125172022Y-99503695D02*
X124753740Y-99213795D01*
X118934321Y-104141530D02*
X119556523Y-102938255D01*
X159813769Y-150982805D02*
X159964278Y-150532153D01*
X159722764Y-151329328D02*
X159813769Y-150982805D01*
X159721917Y-151344201D02*
X159722764Y-151329328D01*
X159748163Y-151403702D02*
X159721917Y-151344201D01*
X155176819Y-93650995D02*
X155176822Y-93650995D01*
X155230489Y-93642828D02*
X155176819Y-93650995D01*
X155308662Y-93552989D02*
X155230489Y-93642828D01*
X152102470Y-95803677D02*
X152069800Y-95631000D01*
X152105969Y-95974021D02*
X152102470Y-95803677D01*
X152101312Y-96301875D02*
X152105969Y-95974021D01*
X132994819Y-103489518D02*
X134356533Y-104929531D01*
X122346610Y-107961713D02*
X121568692Y-109288163D01*
X159814669Y-151425575D02*
X159748163Y-151403702D01*
X159838291Y-151424728D02*
X159814669Y-151425575D01*
X159875917Y-151393226D02*
X159838291Y-151424728D01*
X159925794Y-151253216D02*
X159875917Y-151393226D01*
X160345814Y-151376607D02*
X160288063Y-151145591D01*
X160461322Y-151442235D02*
X160345814Y-151376607D01*
X159496960Y-151426459D02*
X159497022Y-151426485D01*
X159601966Y-151345955D02*
X159496960Y-151426459D01*
X160001576Y-98235426D02*
X159088800Y-98753952D01*
X160471809Y-98224283D02*
X160001576Y-98235426D01*
X163635021Y-150154154D02*
X163688398Y-150230283D01*
X163556264Y-150134906D02*
X163635021Y-150154154D01*
X163502888Y-150140156D02*
X163556264Y-150134906D01*
X163429383Y-150192658D02*
X163502888Y-150140156D01*
X156303880Y-95434967D02*
X156378553Y-95471136D01*
X156193040Y-95419800D02*
X156303880Y-95434967D01*
X155944524Y-95548141D02*
X156193040Y-95419800D01*
X134356533Y-104929531D02*
X135165809Y-105475975D01*
X157473893Y-150611804D02*
X157546523Y-150386041D01*
X157458145Y-150799067D02*
X157473893Y-150611804D01*
X157532525Y-151173590D02*
X157458145Y-150799067D01*
X157675160Y-151361728D02*
X157532525Y-151173590D01*
X166560486Y-150165656D02*
X166628739Y-150207656D01*
X166517608Y-150184904D02*
X166560486Y-150165656D01*
X166243714Y-150577802D02*
X166517608Y-150184904D01*
X166052080Y-150178777D02*
X166243714Y-150577802D01*
X107545683Y-120649915D02*
X108098888Y-121190122D01*
X107620727Y-119758433D02*
X107545683Y-120649915D01*
X107228422Y-117856955D02*
X107620727Y-119758433D01*
X150352359Y-95526038D02*
X150353488Y-95617044D01*
X150282356Y-95433866D02*
X150352359Y-95526038D01*
X150175016Y-95409364D02*
X150282356Y-95433866D01*
X122402742Y-101809706D02*
X123808560Y-100704857D01*
X165832441Y-150159526D02*
X165945321Y-150123650D01*
X165791313Y-150238280D02*
X165832441Y-150159526D01*
X165800062Y-150286410D02*
X165791313Y-150238280D01*
X166074828Y-150842068D02*
X165800062Y-150286410D01*
X152683491Y-95409364D02*
X152790831Y-95433866D01*
X152527148Y-95521371D02*
X152683491Y-95409364D01*
X152511965Y-96020735D02*
X152527148Y-95521371D01*
X128734677Y-92955239D02*
X129869182Y-92867154D01*
X128982238Y-94215999D02*
X128734677Y-92955239D01*
X128433719Y-94548907D02*
X128982238Y-94215999D01*
X128157440Y-95072915D02*
X128433719Y-94548907D01*
X140236763Y-106166793D02*
X139189627Y-104986160D01*
X115994982Y-99938295D02*
X116689270Y-99436853D01*
X158983322Y-151436115D02*
X158946571Y-151433575D01*
X157886048Y-151236593D02*
X157886048Y-151236593D01*
X157774915Y-151166591D02*
X157886048Y-151236593D01*
X157715411Y-150998579D02*
X157774915Y-151166591D01*
X163352379Y-150344045D02*
X163429383Y-150192658D01*
X163251747Y-150576808D02*
X163352379Y-150344045D01*
X163170368Y-150782446D02*
X163251747Y-150576808D01*
X163109114Y-150579432D02*
X163170368Y-150782446D01*
X150324340Y-95300843D02*
X150247333Y-95337011D01*
X150372174Y-95188836D02*
X150324340Y-95300843D01*
X150386172Y-95077996D02*
X150372174Y-95188836D01*
X152861965Y-95617044D02*
X152859707Y-95814223D01*
X152860836Y-95526038D02*
X152861965Y-95617044D01*
X152790831Y-95433866D02*
X152860836Y-95526038D01*
X158011183Y-150345791D02*
X157900052Y-150275785D01*
X158069812Y-150514675D02*
X158011183Y-150345791D01*
X158086433Y-150708937D02*
X158069812Y-150514675D01*
X158056683Y-150987205D02*
X158086433Y-150708937D01*
X155725516Y-151330218D02*
X155717642Y-151375721D01*
X155716767Y-151282963D02*
X155725516Y-151330218D01*
X155669512Y-151242712D02*
X155716767Y-151282963D01*
X162018872Y-151263608D02*
X162071374Y-151335363D01*
X161919990Y-151267982D02*
X162018872Y-151263608D01*
X161828985Y-151272357D02*
X161919990Y-151267982D01*
X161764232Y-151253984D02*
X161828985Y-151272357D01*
X153115247Y-93627726D02*
X153037077Y-93544888D01*
X153221422Y-93646395D02*
X153115247Y-93627726D01*
X155949514Y-151393226D02*
X155911888Y-151424728D01*
X155999394Y-151253216D02*
X155949514Y-151393226D01*
X156027390Y-151174462D02*
X155999394Y-151253216D01*
X156116646Y-151148216D02*
X156027390Y-151174462D01*
X122319722Y-109013115D02*
X122718432Y-109137034D01*
X133739504Y-100152657D02*
X133914918Y-100107091D01*
X156253143Y-150127004D02*
X156310894Y-150116506D01*
X156187512Y-150183883D02*
X156253143Y-150127004D01*
X156037878Y-150532153D02*
X156187512Y-150183883D01*
X160228889Y-96368340D02*
X160266224Y-96473347D01*
X160113381Y-96320504D02*
X160228889Y-96368340D01*
X159997873Y-96368340D02*
X160113381Y-96320504D01*
X156442635Y-96447682D02*
X156442722Y-96437195D01*
X156440378Y-96482684D02*
X156442635Y-96447682D01*
X156443877Y-96531688D02*
X156440378Y-96482684D01*
X153916762Y-92651100D02*
X153865426Y-92760774D01*
X153984433Y-92605598D02*
X153916762Y-92651100D01*
X154031102Y-92648767D02*
X153984433Y-92605598D01*
X120089218Y-98629572D02*
X120503046Y-98909360D01*
X160261811Y-150989835D02*
X160266185Y-150961839D01*
X160214558Y-151003834D02*
X160261811Y-150989835D01*
X160131427Y-151009083D02*
X160214558Y-151003834D01*
X160461307Y-151442207D02*
X160461322Y-151442235D01*
X105444322Y-115732205D02*
X105663837Y-116154038D01*
X107651034Y-113317013D02*
X106866445Y-112763675D01*
X108045733Y-114053493D02*
X107651034Y-113317013D01*
X160085930Y-150728198D02*
X160012425Y-150985463D01*
X160181310Y-150500685D02*
X160085930Y-150728198D01*
X160239064Y-150737825D02*
X160181310Y-150500685D01*
X160266185Y-150961839D02*
X160239064Y-150737825D01*
X161904241Y-150311621D02*
X161764233Y-150330868D01*
X161992622Y-150315995D02*
X161904241Y-150311621D01*
X161996198Y-150316044D02*
X161992622Y-150315995D01*
X162052202Y-150276665D02*
X161996198Y-150316044D01*
X153823426Y-92983621D02*
X153823422Y-92990695D01*
X153833924Y-92887949D02*
X153823426Y-92983621D01*
X153865426Y-92760774D02*
X153833924Y-92887949D01*
X166474735Y-151436228D02*
X166474722Y-151436115D01*
X166556989Y-151408232D02*
X166474735Y-151436228D01*
X166582361Y-151353102D02*
X166556989Y-151408232D01*
X166577986Y-151323351D02*
X166582361Y-151353102D01*
X156086022Y-150985463D02*
X156190153Y-151009085D01*
X156159527Y-150728198D02*
X156086022Y-150985463D01*
X156254910Y-150500685D02*
X156159527Y-150728198D01*
X156312664Y-150737825D02*
X156254910Y-150500685D01*
X114397319Y-104336303D02*
X114798008Y-104550071D01*
X114181741Y-104260788D02*
X114397319Y-104336303D01*
X113965197Y-104167492D02*
X114181741Y-104260788D01*
X162919337Y-150725566D02*
X162921031Y-150888326D01*
X162920184Y-150639810D02*
X162919337Y-150725566D01*
X163023441Y-150981081D02*
X162920184Y-150639810D01*
X163068944Y-151126341D02*
X163023441Y-150981081D01*
X119064872Y-99937430D02*
X119313102Y-100235776D01*
X149556763Y-89724055D02*
X150206067Y-90105913D01*
X127930099Y-98719077D02*
X127874909Y-99063885D01*
X127719181Y-98442058D02*
X127930099Y-98719077D01*
X127528647Y-98456600D02*
X127719181Y-98442058D01*
X127289242Y-98641248D02*
X127528647Y-98456600D01*
X159497022Y-151426485D02*
X159445392Y-151416861D01*
X158665675Y-150258292D02*
X158665678Y-150794701D01*
X158772430Y-150297668D02*
X158665675Y-150258292D01*
X158830185Y-150393051D02*
X158772430Y-150297668D01*
X118582468Y-106404827D02*
X118569066Y-105412300D01*
X162067075Y-150218911D02*
X162052202Y-150276665D01*
X161991820Y-150134030D02*
X162067075Y-150218911D01*
X161794933Y-150123531D02*
X161991820Y-150134030D01*
X161507038Y-150184785D02*
X161794933Y-150123531D01*
X137339264Y-101052035D02*
X137799687Y-100574335D01*
X152896980Y-92448166D02*
X152971653Y-92484335D01*
X152786140Y-92432999D02*
X152896980Y-92448166D01*
X137026748Y-106123540D02*
X138072632Y-106185385D01*
X120809622Y-103680995D02*
X125120759Y-101830083D01*
X153457936Y-90072347D02*
X154787738Y-90689083D01*
X143615722Y-111636805D02*
X143039817Y-112620320D01*
X135263022Y-101504995D02*
X136066984Y-101888587D01*
X120191971Y-100897682D02*
X120351002Y-100706213D01*
X120949160Y-102094327D02*
X120385815Y-102141337D01*
X157171961Y-150613557D02*
X157205213Y-150473547D01*
X157100206Y-150702813D02*
X157171961Y-150613557D01*
X156997824Y-150737814D02*
X157100206Y-150702813D01*
X156993506Y-151223467D02*
X156994325Y-151291723D01*
X122266797Y-107684601D02*
X122346610Y-107961711D01*
X118569066Y-105412300D02*
X118934321Y-104141530D01*
X146784351Y-96063825D02*
X146787851Y-96217834D01*
X146789008Y-95865479D02*
X146784351Y-96063825D01*
X146793665Y-95660133D02*
X146789008Y-95865479D01*
X154274930Y-92861113D02*
X154245762Y-93050125D01*
X154237595Y-92645266D02*
X154274930Y-92861113D01*
X154132589Y-92490090D02*
X154237595Y-92645266D01*
X161201619Y-150445559D02*
X161174497Y-150322177D01*
X161200772Y-150490187D02*
X161201619Y-150445559D01*
X161164018Y-150595193D02*
X161200772Y-150490187D01*
X161159644Y-150614440D02*
X161164018Y-150595193D01*
X155504127Y-151428220D02*
X155399996Y-151430760D01*
X155671265Y-151414221D02*
X155504127Y-151428220D01*
X155717642Y-151375721D02*
X155671265Y-151414221D01*
X125120759Y-101830083D02*
X126356522Y-101386995D01*
X155361495Y-151136831D02*
X155366745Y-151240962D01*
X155364995Y-150845437D02*
X155361495Y-151136831D01*
X155371994Y-150542669D02*
X155364995Y-150845437D01*
X164903937Y-150159526D02*
X165016817Y-150123650D01*
X164862808Y-150238280D02*
X164903937Y-150159526D01*
X164871557Y-150286410D02*
X164862808Y-150238280D01*
X165146326Y-150842068D02*
X164871557Y-150286410D01*
X117144120Y-109515991D02*
X117715322Y-109595678D01*
X112521216Y-107248076D02*
X111711273Y-106730227D01*
X112853455Y-107441474D02*
X112521216Y-107248076D01*
X113270722Y-107506495D02*
X112853455Y-107441474D01*
X151293878Y-95659003D02*
X151363881Y-95984523D01*
X151149203Y-95487492D02*
X151293878Y-95659003D01*
X150925189Y-95422154D02*
X151149203Y-95487492D01*
X149210162Y-92449320D02*
X149307003Y-92338480D01*
X149141325Y-92706002D02*
X149210162Y-92449320D01*
X145783447Y-95629834D02*
X145726275Y-95625166D01*
X145804444Y-96168867D02*
X145783447Y-95629834D01*
X145821942Y-96494387D02*
X145804444Y-96168867D01*
X151268275Y-93495852D02*
X151249620Y-93253170D01*
X151358112Y-93613693D02*
X151268275Y-93495852D01*
X119313351Y-98438167D02*
X120089218Y-98629572D01*
X119396398Y-101167523D02*
X119409499Y-100888700D01*
X120163091Y-101644906D02*
X118499042Y-101958695D01*
X158241856Y-95852679D02*
X158230201Y-96021856D01*
X158290859Y-95674168D02*
X158241856Y-95852679D01*
X158380698Y-95591330D02*
X158290859Y-95674168D01*
X156744824Y-94900600D02*
X156819494Y-94988106D01*
X156633984Y-94878432D02*
X156744824Y-94900600D01*
X156478807Y-94969437D02*
X156633984Y-94878432D01*
X152612318Y-94986989D02*
X152711490Y-94975322D01*
X152522478Y-95054660D02*
X152612318Y-94986989D01*
X152538819Y-95208670D02*
X152522478Y-95054660D01*
X106103805Y-111133218D02*
X106335227Y-111049360D01*
X105922921Y-111076495D02*
X106103805Y-111133218D01*
X105868113Y-110830489D02*
X105922921Y-111076495D01*
X132010622Y-101630795D02*
X131457305Y-101882591D01*
X135263022Y-101504995D02*
X136066983Y-101888587D01*
X158394711Y-96396380D02*
X158477549Y-96369543D01*
X158283871Y-96313541D02*
X158394711Y-96396380D01*
X158230201Y-96021856D02*
X158283871Y-96313541D01*
X156997715Y-150737814D02*
X156997824Y-150737814D01*
X156998561Y-150679186D02*
X156997715Y-150737814D01*
X156996021Y-150402668D02*
X156998561Y-150679186D01*
X156994328Y-150262660D02*
X156996021Y-150402668D01*
X153917880Y-93640494D02*
X153917922Y-93640495D01*
X154185065Y-93526154D02*
X153917880Y-93640494D01*
X154255067Y-93390812D02*
X154185065Y-93526154D01*
X135914946Y-104341143D02*
X135875439Y-103682926D01*
X146732022Y-96640195D02*
X146512675Y-96474518D01*
X146001690Y-96637903D02*
X146001622Y-96637895D01*
X146145197Y-96515396D02*
X146001690Y-96637903D01*
X165945321Y-150123650D02*
X166052080Y-150178777D01*
X165832441Y-150159526D02*
X165945321Y-150123650D01*
X165791313Y-150238280D02*
X165832441Y-150159526D01*
X165800062Y-150286410D02*
X165791313Y-150238280D01*
X156463652Y-95161949D02*
X156478807Y-94969437D01*
X156454310Y-95398797D02*
X156463652Y-95161949D01*
X156452053Y-95566807D02*
X156454310Y-95398797D01*
X128183961Y-95333798D02*
X128157440Y-95072915D01*
X128353624Y-95555113D02*
X128183961Y-95333798D01*
X128691460Y-95707748D02*
X128353624Y-95555113D01*
X129222495Y-95762589D02*
X128691460Y-95707748D01*
X150945122Y-93673195D02*
X150810945Y-93612525D01*
X148980313Y-93639393D02*
X148980322Y-93639395D01*
X160805276Y-92081328D02*
X160850196Y-92730116D01*
X160553213Y-91902272D02*
X160805276Y-92081328D01*
X156526745Y-93617185D02*
X156505748Y-93558848D01*
X156499906Y-93687189D02*
X156526745Y-93617185D01*
X156488250Y-93719858D02*
X156499906Y-93687189D01*
X145666764Y-95509659D02*
X145673763Y-95459489D01*
X145676107Y-95567995D02*
X145666764Y-95509659D01*
X145726275Y-95625166D02*
X145676107Y-95567995D01*
X153410280Y-93519232D02*
X153221270Y-93646407D01*
X153421936Y-92755018D02*
X153410280Y-93519232D01*
X146528852Y-95412786D02*
X146587188Y-95405785D01*
X146437845Y-95500292D02*
X146528852Y-95412786D01*
X146435586Y-95658968D02*
X146437845Y-95500292D01*
X154040443Y-92728105D02*
X154031102Y-92648767D01*
X153997272Y-92929951D02*
X154040443Y-92728105D01*
X153895768Y-93024457D02*
X153997272Y-92929951D01*
X147288383Y-96630858D02*
X147090037Y-96495516D01*
X147424891Y-96531686D02*
X147288383Y-96630858D01*
X147435390Y-95942483D02*
X147424891Y-96531686D01*
X118839171Y-102389984D02*
X119411802Y-102404891D01*
X137799687Y-100574335D02*
X138445632Y-100269675D01*
X152792416Y-90025106D02*
X153457936Y-90072347D01*
X120332822Y-100734795D02*
X120565876Y-100972468D01*
X137419899Y-103111970D02*
X137230399Y-102916183D01*
X152537624Y-92561340D02*
X152786140Y-92432999D01*
X152412783Y-92825023D02*
X152537624Y-92561340D01*
X156868313Y-151425606D02*
X156784307Y-151394104D01*
X157015322Y-151432605D02*
X156868313Y-151425606D01*
X156190153Y-151009085D02*
X156205027Y-151009083D01*
X159076085Y-150497213D02*
X158993829Y-150778106D01*
X159031458Y-150296824D02*
X159076085Y-150497213D01*
X158705937Y-150123565D02*
X159031458Y-150296824D01*
X158409294Y-150221570D02*
X158705937Y-150123565D01*
X151144636Y-92537926D02*
X151145765Y-92680268D01*
X151066464Y-92439920D02*
X151144636Y-92537926D01*
X119440422Y-102366595D02*
X118902306Y-102306485D01*
X135165809Y-105475975D02*
X136056844Y-105880524D01*
X120748354Y-103759887D02*
X120899361Y-104480387D01*
X165696735Y-150276787D02*
X165393964Y-150747567D01*
X165708983Y-150236533D02*
X165696735Y-150276787D01*
X165700234Y-150207656D02*
X165708983Y-150236533D01*
X165631979Y-150165656D02*
X165700234Y-150207656D01*
X151138766Y-93247303D02*
X151128267Y-93530821D01*
X151145765Y-92680268D02*
X151138766Y-93247303D01*
X158069812Y-150514675D02*
X158011183Y-150345791D01*
X158086433Y-150708937D02*
X158069812Y-150514675D01*
X158056683Y-150987205D02*
X158086433Y-150708937D01*
X157988430Y-151166591D02*
X158056683Y-150987205D01*
X129411326Y-96471750D02*
X129222495Y-95762589D01*
X128567689Y-96663473D02*
X129411326Y-96471750D01*
X129328291Y-100734243D02*
X128567689Y-96663473D01*
X130073269Y-100570085D02*
X129328291Y-100734243D01*
X163602650Y-151408981D02*
X163531770Y-151424729D01*
X163655152Y-151349477D02*
X163602650Y-151408981D01*
X163677899Y-150795568D02*
X163655152Y-151349477D01*
X163688398Y-150230283D02*
X163677899Y-150795568D01*
X157403850Y-150436715D02*
X157405543Y-150479593D01*
X157313719Y-150229327D02*
X157403850Y-150436715D01*
X157059953Y-150129570D02*
X157313719Y-150229327D01*
X153686911Y-96339208D02*
X153695067Y-96377710D01*
X153649576Y-96296038D02*
X153686911Y-96339208D01*
X153621580Y-96290205D02*
X153649576Y-96296038D01*
X148694466Y-91907953D02*
X148758635Y-91916120D01*
X148589457Y-91938288D02*
X148694466Y-91907953D01*
X118086992Y-98378095D02*
X119313351Y-98438167D01*
X165546222Y-151436115D02*
X165515595Y-151435268D01*
X164623864Y-151424729D02*
X164623922Y-151424735D01*
X164694744Y-151408981D02*
X164623864Y-151424729D01*
X164747246Y-151349477D02*
X164694744Y-151408981D01*
X149084155Y-92925349D02*
X149141325Y-92706002D01*
X149044486Y-93019855D02*
X149084155Y-92925349D01*
X154648311Y-95380185D02*
X154624922Y-95380195D01*
X154647182Y-95666036D02*
X154648311Y-95380185D01*
X154656523Y-96240071D02*
X154647182Y-95666036D01*
X152804874Y-96598271D02*
X152706867Y-96628606D01*
X152849209Y-96504932D02*
X152804874Y-96598271D01*
X152859707Y-95814223D02*
X152849209Y-96504932D01*
X159031458Y-150296824D02*
X159076085Y-150497213D01*
X158705937Y-150123565D02*
X159031458Y-150296824D01*
X158409294Y-150221570D02*
X158705937Y-150123565D01*
X158401420Y-150680974D02*
X158409294Y-150221570D01*
X158639432Y-151346891D02*
X158574678Y-151420396D01*
X158647306Y-151129876D02*
X158639432Y-151346891D01*
X158653430Y-150899738D02*
X158647306Y-151129876D01*
X158664803Y-150898045D02*
X158653430Y-150899738D01*
X150780612Y-93471350D02*
X150745608Y-93534353D01*
X150810945Y-93612525D02*
X150780612Y-93471350D01*
X164011437Y-150725566D02*
X164013131Y-150888326D01*
X164012284Y-150639810D02*
X164011437Y-150725566D01*
X164115541Y-150981081D02*
X164012284Y-150639810D01*
X164161044Y-151126341D02*
X164115541Y-150981081D01*
X133356522Y-100902495D02*
X134876667Y-102084847D01*
X138904370Y-102458022D02*
X139527166Y-103060637D01*
X144698405Y-91238934D02*
X144957169Y-91079793D01*
X105311634Y-116386334D02*
X105390148Y-115845274D01*
X105511236Y-116430668D02*
X105311634Y-116386334D01*
X105663837Y-116154038D02*
X105511236Y-116430668D01*
X153044022Y-92957995D02*
X153024182Y-92814486D01*
X153044082Y-93016356D02*
X153044022Y-92957995D01*
X148527046Y-90162096D02*
X148654146Y-89841765D01*
X109441538Y-113633031D02*
X108808810Y-113981689D01*
X109986196Y-113113391D02*
X109441538Y-113633031D01*
X110378432Y-112463999D02*
X109986196Y-113113391D01*
X166716165Y-150174230D02*
X166753794Y-150134855D01*
X166708291Y-150217983D02*
X166716165Y-150174230D01*
X166740668Y-150272238D02*
X166708291Y-150217983D01*
X166808045Y-150269698D02*
X166740668Y-150272238D01*
X130388922Y-102011695D02*
X130073269Y-100570085D01*
X128464367Y-101223876D02*
X128731868Y-101025129D01*
X128506822Y-101460695D02*
X128464367Y-101223876D01*
X128606946Y-101467299D02*
X129014738Y-101274124D01*
X156284072Y-95594873D02*
X156170898Y-95675378D01*
X156373912Y-95653210D02*
X156284072Y-95594873D01*
X156431082Y-95801386D02*
X156373912Y-95653210D01*
X147624544Y-95413989D02*
X147699214Y-95401154D01*
X147533538Y-95523662D02*
X147624544Y-95413989D01*
X147528882Y-95887684D02*
X147533538Y-95523662D01*
X127238320Y-95919191D02*
X127358515Y-95970575D01*
X127075322Y-96041095D02*
X127238320Y-95919191D01*
X126599316Y-96041161D02*
X127075322Y-96041095D01*
X126588970Y-95758595D02*
X126599316Y-96041161D01*
X125863894Y-98706426D02*
X126525682Y-98594124D01*
X125434695Y-98890204D02*
X125863894Y-98706426D01*
X125462322Y-99234462D02*
X125434695Y-98890204D01*
X125725860Y-99426843D02*
X125462322Y-99234462D01*
X164648361Y-150134906D02*
X164727115Y-150154154D01*
X164594982Y-150140156D02*
X164648361Y-150134906D01*
X164521477Y-150192658D02*
X164594982Y-150140156D01*
X164444473Y-150344045D02*
X164521477Y-150192658D01*
X146792536Y-95553960D02*
X146793665Y-95660133D01*
X146712029Y-95434953D02*
X146792536Y-95553960D01*
X146587188Y-95405785D02*
X146712029Y-95434953D01*
X124886922Y-97548296D02*
X125887982Y-97449800D01*
X130388820Y-102090624D02*
X130388822Y-102090695D01*
X131686715Y-101640055D02*
X130388820Y-102090624D01*
X132724226Y-101023579D02*
X131686715Y-101640055D01*
X120643286Y-99234585D02*
X120456809Y-99849554D01*
X167074065Y-150710642D02*
X167057442Y-151291678D01*
X167077565Y-150427999D02*
X167074065Y-150710642D01*
X167074065Y-150263489D02*
X167077565Y-150427999D01*
X167127445Y-150256490D02*
X167074065Y-150263489D01*
X159127681Y-150205758D02*
X159174933Y-150144505D01*
X159123306Y-150253010D02*
X159127681Y-150205758D01*
X159183684Y-150364143D02*
X159123306Y-150253010D01*
X159297440Y-150357144D02*
X159183684Y-150364143D01*
X149387507Y-92320980D02*
X149468011Y-92337315D01*
X149307003Y-92338480D02*
X149387507Y-92320980D01*
X165628484Y-151408232D02*
X165546231Y-151436228D01*
X165653856Y-151353102D02*
X165628484Y-151408232D01*
X165649482Y-151323351D02*
X165653856Y-151353102D01*
X165393964Y-150747567D02*
X165649482Y-151323351D01*
X149280107Y-95432664D02*
X149395615Y-95489834D01*
X149220603Y-95447830D02*
X149280107Y-95432664D01*
X149112097Y-95558670D02*
X149220603Y-95447830D01*
X157988430Y-151166591D02*
X158056683Y-150987205D01*
X157886048Y-151236593D02*
X157988430Y-151166591D01*
X157893924Y-151432606D02*
X157893922Y-151432605D01*
X158093438Y-151361729D02*
X157893924Y-151432606D01*
X136758079Y-103345887D02*
X136770824Y-103133178D01*
X161255018Y-150671314D02*
X161185890Y-150652941D01*
X161298771Y-150666939D02*
X161255018Y-150671314D01*
X161367026Y-150601311D02*
X161298771Y-150666939D01*
X161396778Y-150449927D02*
X161367026Y-150601311D01*
X158311324Y-150940828D02*
X158236070Y-151173591D01*
X158331446Y-150730812D02*
X158311324Y-150940828D01*
X158266691Y-150386041D02*
X158331446Y-150730812D01*
X158131058Y-150198781D02*
X158266691Y-150386041D01*
X157893922Y-151432605D02*
X157675160Y-151361728D01*
X156997715Y-150737814D02*
X156997824Y-150737814D01*
X156998561Y-150679186D02*
X156997715Y-150737814D01*
X156996021Y-150402668D02*
X156998561Y-150679186D01*
X165785186Y-151339098D02*
X166074828Y-150842068D01*
X165779062Y-151368850D02*
X165785186Y-151339098D01*
X165787811Y-151399477D02*
X165779062Y-151368850D01*
X165821937Y-151426598D02*
X165787811Y-151399477D01*
X152763998Y-92688478D02*
X152700995Y-93010498D01*
X152877172Y-92607973D02*
X152763998Y-92688478D01*
X150648759Y-92606796D02*
X150525084Y-92697802D01*
X150765432Y-92670966D02*
X150648759Y-92606796D01*
X155235511Y-150127901D02*
X155322142Y-150146274D01*
X155113004Y-150211033D02*
X155235511Y-150127901D01*
X155105130Y-150691437D02*
X155113004Y-150211033D01*
X164525915Y-151345981D02*
X164525068Y-151244474D01*
X164623922Y-151424735D02*
X164525915Y-151345981D01*
X163531770Y-151424729D02*
X163531822Y-151424735D01*
X163602650Y-151408981D02*
X163531770Y-151424729D01*
X160294173Y-150127879D02*
X160364178Y-150199634D01*
X160237294Y-150116506D02*
X160294173Y-150127879D01*
X160179540Y-150127004D02*
X160237294Y-150116506D01*
X160113912Y-150183883D02*
X160179540Y-150127004D01*
X158454203Y-95713837D02*
X158380698Y-95591330D01*
X158425035Y-95849179D02*
X158454203Y-95713837D01*
X158419193Y-95873681D02*
X158425035Y-95849179D01*
X121948839Y-109081459D02*
X122319722Y-109013117D01*
X155445499Y-151255835D02*
X155585509Y-151247961D01*
X155366745Y-151240962D02*
X155445499Y-151255835D01*
X155361495Y-151136831D02*
X155366745Y-151240962D01*
X155364995Y-150845437D02*
X155361495Y-151136831D01*
X156611914Y-151428209D02*
X156534907Y-151442207D01*
X156664416Y-151360831D02*
X156611914Y-151428209D01*
X156593536Y-150944305D02*
X156664416Y-151360831D01*
X118281415Y-101562544D02*
X118545941Y-100917759D01*
X163165198Y-151188469D02*
X163068944Y-151126341D01*
X163265830Y-151134215D02*
X163165198Y-151188469D01*
X163368212Y-150855950D02*
X163265830Y-151134215D01*
X163445217Y-150643313D02*
X163368212Y-150855950D01*
X110280264Y-107834377D02*
X109493142Y-108386235D01*
X111969622Y-106953895D02*
X110280264Y-107834377D01*
X108098888Y-121190122D02*
X108170244Y-121699905D01*
X154652921Y-95191175D02*
X154659920Y-95076835D01*
X154563082Y-95212176D02*
X154652921Y-95191175D01*
X154522247Y-95251845D02*
X154563082Y-95212176D01*
X108882399Y-110355551D02*
X108821371Y-110862473D01*
X108464850Y-109766100D02*
X108882399Y-110355551D01*
X107536658Y-109458300D02*
X108464850Y-109766100D01*
X156067012Y-93314974D02*
X156071669Y-92987120D01*
X156070512Y-93506319D02*
X156067012Y-93314974D01*
X156231522Y-93650995D02*
X156070512Y-93506319D01*
X158665675Y-150258292D02*
X158665678Y-150794701D01*
X158772430Y-150297668D02*
X158665675Y-150258292D01*
X158830185Y-150393051D02*
X158772430Y-150297668D01*
X158846808Y-150504182D02*
X158830185Y-150393051D01*
X141130372Y-108410725D02*
X140948515Y-107467226D01*
X155770651Y-92730438D02*
X155749653Y-92870447D01*
X155832488Y-92613764D02*
X155770651Y-92730438D01*
X155933995Y-92567094D02*
X155832488Y-92613764D01*
X131994822Y-101717595D02*
X132994819Y-103489518D01*
X163251747Y-150576808D02*
X163352379Y-150344045D01*
X163170368Y-150782446D02*
X163251747Y-150576808D01*
X163109114Y-150579432D02*
X163170368Y-150782446D01*
X162940227Y-150189158D02*
X163109114Y-150579432D01*
X118700931Y-102184980D02*
X118567054Y-101996561D01*
X146330638Y-94977625D02*
X146401810Y-95167803D01*
X146112459Y-94884286D02*
X146330638Y-94977625D01*
X145874444Y-95034795D02*
X146112459Y-94884286D01*
X164343841Y-150576808D02*
X164444473Y-150344045D01*
X164262462Y-150782446D02*
X164343841Y-150576808D01*
X164201209Y-150579432D02*
X164262462Y-150782446D01*
X164032322Y-150189158D02*
X164201209Y-150579432D01*
X128191751Y-93063341D02*
X129404276Y-92806303D01*
X126893450Y-93620674D02*
X128191751Y-93063341D01*
X126677526Y-94140432D02*
X126893450Y-93620674D01*
X126484345Y-94243267D02*
X126677526Y-94140432D01*
X149745602Y-96639050D02*
X149745622Y-96639095D01*
X149844775Y-96539878D02*
X149745602Y-96639050D01*
X149833119Y-95356808D02*
X149844775Y-96539878D01*
X158983331Y-151436135D02*
X158983322Y-151436115D01*
X159062088Y-151414263D02*
X158983331Y-151436135D01*
X159088333Y-151363511D02*
X159062088Y-151414263D01*
X159083084Y-151337264D02*
X159088333Y-151363511D01*
X137026882Y-103460034D02*
X137250101Y-103375940D01*
X158385352Y-95412820D02*
X158576696Y-95468823D01*
X158178839Y-95480491D02*
X158385352Y-95412820D01*
X158032995Y-95655502D02*
X158178839Y-95480491D01*
X119788314Y-102256526D02*
X120163091Y-101644906D01*
X160893604Y-150513814D02*
X160860353Y-150700199D01*
X160972361Y-150336178D02*
X160893604Y-150513814D01*
X161091366Y-150266173D02*
X160972361Y-150336178D01*
X161174497Y-150322177D02*
X161091366Y-150266173D01*
X157698788Y-150802567D02*
X157715411Y-150998579D01*
X157728540Y-150524302D02*
X157698788Y-150802567D01*
X157795921Y-150345791D02*
X157728540Y-150524302D01*
X157900052Y-150275785D02*
X157795921Y-150345791D01*
X154246911Y-93352309D02*
X154255067Y-93390812D01*
X154209573Y-93309140D02*
X154246911Y-93352309D01*
X154181577Y-93303306D02*
X154209573Y-93309140D01*
X165315210Y-150577802D02*
X165589101Y-150184904D01*
X165123573Y-150178777D02*
X165315210Y-150577802D01*
X165016817Y-150123650D02*
X165123573Y-150178777D01*
X164903937Y-150159526D02*
X165016817Y-150123650D01*
X158957079Y-150971493D02*
X159019207Y-151152629D01*
X158894947Y-150858610D02*
X158957079Y-150971493D01*
X158993829Y-150778106D02*
X158894947Y-150858610D01*
X159076085Y-150497213D02*
X158993829Y-150778106D01*
X117889313Y-99245342D02*
X118374646Y-99415396D01*
X166822918Y-150270544D02*
X166808045Y-150269698D01*
X166811545Y-150744821D02*
X166822918Y-150270544D01*
X166815919Y-151297855D02*
X166811545Y-150744821D01*
X166743290Y-151307479D02*
X166815919Y-151297855D01*
X126133012Y-93990635D02*
X126484345Y-94243267D01*
X125562892Y-94993439D02*
X126133012Y-93990635D01*
X125112883Y-95888067D02*
X125562892Y-94993439D01*
X124770722Y-96859095D02*
X125112883Y-95888067D01*
X149554351Y-92429487D02*
X149680357Y-92840179D01*
X149468011Y-92337315D02*
X149554351Y-92429487D01*
X157914921Y-150127026D02*
X158131058Y-150198781D01*
X157695282Y-150198781D02*
X157914921Y-150127026D01*
X157546523Y-150386041D02*
X157695282Y-150198781D01*
X157473893Y-150611804D02*
X157546523Y-150386041D01*
X106293922Y-117629870D02*
X106920965Y-117822165D01*
X105996683Y-117322929D02*
X106293922Y-117629870D01*
X105775839Y-116853640D02*
X105996683Y-117322929D01*
X139189627Y-104986160D02*
X138601072Y-104589750D01*
X135165809Y-105475975D02*
X136056844Y-105880524D01*
X163556264Y-150134906D02*
X163635021Y-150154154D01*
X163502888Y-150140156D02*
X163556264Y-150134906D01*
X163429383Y-150192658D02*
X163502888Y-150140156D01*
X163352379Y-150344045D02*
X163429383Y-150192658D01*
X156359833Y-92731605D02*
X156384330Y-93047791D01*
X156254827Y-92494757D02*
X156359833Y-92731605D01*
X156033147Y-92409585D02*
X156254827Y-92494757D01*
X166074828Y-150842068D02*
X165800062Y-150286410D01*
X165785186Y-151339098D02*
X166074828Y-150842068D01*
X165779062Y-151368850D02*
X165785186Y-151339098D01*
X165787811Y-151399477D02*
X165779062Y-151368850D01*
X155949514Y-151393226D02*
X155911888Y-151424728D01*
X155999394Y-151253216D02*
X155949514Y-151393226D01*
X156027390Y-151174462D02*
X155999394Y-151253216D01*
X126680561Y-95613091D02*
X126588970Y-95758595D01*
X126628188Y-95511876D02*
X126680561Y-95613091D01*
X126302751Y-95436882D02*
X126628188Y-95511876D01*
X126035061Y-95522744D02*
X126302751Y-95436882D01*
X150206067Y-90105913D02*
X150979146Y-90371908D01*
X150520429Y-93640526D02*
X150513422Y-93640495D01*
X150745608Y-93534353D02*
X150520429Y-93640526D01*
X167120446Y-151422933D02*
X166861431Y-151432557D01*
X167161574Y-151356428D02*
X167120446Y-151422933D01*
X167131822Y-151299552D02*
X167161574Y-151356428D01*
X167057442Y-151291678D02*
X167131822Y-151299552D01*
X152232311Y-90169247D02*
X152792416Y-90025106D01*
X107849038Y-117192761D02*
X108064174Y-116561568D01*
X107479311Y-117625273D02*
X107849038Y-117192761D01*
X106920965Y-117822165D02*
X107479311Y-117625273D01*
X152289156Y-95481659D02*
X152394162Y-95718507D01*
X152067476Y-95396487D02*
X152289156Y-95481659D01*
X151915799Y-95430323D02*
X152067476Y-95396487D01*
X165821937Y-151426598D02*
X165787811Y-151399477D01*
X165842934Y-151429138D02*
X165821937Y-151426598D01*
X165881435Y-151408141D02*
X165842934Y-151429138D01*
X166157078Y-150999489D02*
X165881435Y-151408141D01*
X159375321Y-150351895D02*
X159297440Y-150357144D01*
X159375390Y-150700192D02*
X159375321Y-150351895D01*
X159387638Y-151338107D02*
X159375390Y-150700192D01*
X159445392Y-151416861D02*
X159387638Y-151338107D01*
X118374646Y-99415396D02*
X119064872Y-99937430D01*
X118601902Y-102282195D02*
X118354089Y-101920105D01*
X152755820Y-93323183D02*
X152852661Y-93404855D01*
X152709151Y-93155173D02*
X152755820Y-93323183D01*
X152700995Y-93010498D02*
X152709151Y-93155173D01*
X120391574Y-103040026D02*
X120748354Y-103759887D01*
X126004396Y-99154995D02*
X125725860Y-99426843D01*
X127506526Y-99068059D02*
X126004396Y-99154995D01*
X127732809Y-99134077D02*
X127506526Y-99068059D01*
X127874909Y-99063885D02*
X127732809Y-99134077D01*
X162183146Y-93899566D02*
X162716103Y-94243547D01*
X161147885Y-93736965D02*
X162183146Y-93899566D01*
X107528622Y-111325895D02*
X107105323Y-112238699D01*
X146024990Y-100000974D02*
X145439731Y-100368230D01*
X146526322Y-99454395D02*
X146024990Y-100000974D01*
X161034490Y-151219106D02*
X161149120Y-151082598D01*
X160925106Y-151149101D02*
X161034490Y-151219106D01*
X160855978Y-150813082D02*
X160925106Y-151149101D01*
X160860353Y-150700199D02*
X160855978Y-150813082D01*
X161942747Y-150728052D02*
X162000498Y-150795433D01*
X161901619Y-150726359D02*
X161942747Y-150728052D01*
X161848240Y-150727206D02*
X161901619Y-150726359D01*
X161788736Y-150725512D02*
X161848240Y-150727206D01*
X156482408Y-93438674D02*
X156562914Y-93339501D01*
X156477751Y-93479510D02*
X156482408Y-93438674D01*
X156505748Y-93558848D02*
X156477751Y-93479510D01*
X155176822Y-93650995D02*
X155015814Y-93506319D01*
X153895761Y-93024530D02*
X153895768Y-93024457D01*
X153823422Y-92990695D02*
X153895761Y-93024530D01*
X156446211Y-95551641D02*
X156452053Y-95566807D01*
X156424056Y-95514305D02*
X156446211Y-95551641D01*
X156378553Y-95471136D02*
X156424056Y-95514305D01*
X154694956Y-92870447D02*
X154676301Y-93555322D01*
X154715953Y-92730438D02*
X154694956Y-92870447D01*
X154777791Y-92613764D02*
X154715953Y-92730438D01*
X143492197Y-94722442D02*
X143548635Y-94416180D01*
X164747246Y-151349477D02*
X164694744Y-151408981D01*
X164769993Y-150795568D02*
X164747246Y-151349477D01*
X164780492Y-150230283D02*
X164769993Y-150795568D01*
X164727115Y-150154154D02*
X164780492Y-150230283D01*
X153149075Y-96562058D02*
X153017235Y-96387047D01*
X153357922Y-96627395D02*
X153149075Y-96562058D01*
X152678826Y-95346344D02*
X152678826Y-95346345D01*
X149483122Y-95380195D02*
X149425952Y-95377853D01*
X149506411Y-95380185D02*
X149483122Y-95380195D01*
X149505282Y-95666036D02*
X149506411Y-95380185D01*
X119096238Y-106773375D02*
X118769200Y-106688707D01*
X151461938Y-95523662D02*
X151552944Y-95413989D01*
X151457282Y-95887684D02*
X151461938Y-95523662D01*
X151460781Y-96515389D02*
X151457282Y-95887684D01*
X151108348Y-92306947D02*
X151115347Y-92264945D01*
X151160852Y-92390953D02*
X151108348Y-92306947D01*
X156283784Y-151135092D02*
X156116646Y-151148216D01*
X156361663Y-151145591D02*
X156283784Y-151135092D01*
X156419417Y-151376607D02*
X156361663Y-151145591D01*
X156534922Y-151442235D02*
X156419417Y-151376607D01*
X156035502Y-92644099D02*
X155933995Y-92567094D01*
X156068170Y-92816776D02*
X156035502Y-92644099D01*
X156071669Y-92987120D02*
X156068170Y-92816776D01*
X151218022Y-92393295D02*
X151160852Y-92390953D01*
X151241408Y-92393284D02*
X151218022Y-92393295D01*
X160590816Y-151360831D02*
X160538311Y-151428209D01*
X160519936Y-150944305D02*
X160590816Y-151360831D01*
X160364178Y-150199634D02*
X160519936Y-150944305D01*
X160294173Y-150127879D02*
X160364178Y-150199634D01*
X126422523Y-101385658D02*
X126594352Y-101638517D01*
X160860372Y-150196162D02*
X161097512Y-150124407D01*
X160701111Y-150382547D02*
X160860372Y-150196162D01*
X160602232Y-150818323D02*
X160701111Y-150382547D01*
X160610106Y-150958333D02*
X160602232Y-150818323D01*
X164769993Y-150795568D02*
X164747246Y-151349477D01*
X164780492Y-150230283D02*
X164769993Y-150795568D01*
X164727115Y-150154154D02*
X164780492Y-150230283D01*
X164648361Y-150134906D02*
X164727115Y-150154154D01*
X159123306Y-150253010D02*
X159127681Y-150205758D01*
X159183684Y-150364143D02*
X159123306Y-150253010D01*
X159297440Y-150357144D02*
X159183684Y-150364143D01*
X159375321Y-150351895D02*
X159297440Y-150357144D01*
X162860570Y-151410732D02*
X162800192Y-151422106D01*
X162912197Y-151349479D02*
X162860570Y-151410732D01*
X162923571Y-151159592D02*
X162912197Y-151349479D01*
X162921031Y-150888326D02*
X162923571Y-151159592D01*
X160925106Y-151149101D02*
X161034490Y-151219106D01*
X160855978Y-150813082D02*
X160925106Y-151149101D01*
X160860353Y-150700199D02*
X160855978Y-150813082D01*
X160893604Y-150513814D02*
X160860353Y-150700199D01*
X167154566Y-150197861D02*
X167127445Y-150256490D01*
X167121315Y-150132230D02*
X167154566Y-150197861D01*
X166982182Y-150126981D02*
X167121315Y-150132230D01*
X166753794Y-150134855D02*
X166982182Y-150126981D01*
X158013680Y-98497320D02*
X157251049Y-98517889D01*
X159088800Y-98753952D02*
X158013680Y-98497320D01*
X155887369Y-150982805D02*
X156037878Y-150532153D01*
X155796364Y-151329328D02*
X155887369Y-150982805D01*
X155795517Y-151344201D02*
X155796364Y-151329328D01*
X151480525Y-93652153D02*
X151480622Y-93652195D01*
X151579698Y-93552980D02*
X151480525Y-93652153D01*
X161764232Y-151253984D02*
X161828985Y-151272357D01*
X161748484Y-151071098D02*
X161764232Y-151253984D01*
X161746790Y-150981843D02*
X161748484Y-151071098D01*
X161755539Y-150890837D02*
X161746790Y-150981843D01*
X127603585Y-101768961D02*
X126659222Y-101193546D01*
X128833041Y-102090411D02*
X127603585Y-101768961D01*
X130388822Y-102090695D02*
X128833041Y-102090411D01*
X166861431Y-151432557D02*
X166861422Y-151432605D01*
X163777656Y-151338978D02*
X163759283Y-151054586D01*
X163838034Y-151412482D02*
X163777656Y-151338978D01*
X163892289Y-151422106D02*
X163838034Y-151412482D01*
X163952667Y-151410732D02*
X163892289Y-151422106D01*
X166556989Y-151408232D02*
X166474735Y-151436228D01*
X166582361Y-151353102D02*
X166556989Y-151408232D01*
X166577986Y-151323351D02*
X166582361Y-151353102D01*
X166322471Y-150747567D02*
X166577986Y-151323351D01*
X156197805Y-90081293D02*
X156748267Y-90246978D01*
X157121212Y-150297661D02*
X156994328Y-150262660D01*
X157186840Y-150379917D02*
X157121212Y-150297661D01*
X157205213Y-150473547D02*
X157186840Y-150379917D01*
X157171961Y-150613557D02*
X157205213Y-150473547D01*
X106296112Y-112663655D02*
X105656439Y-112453007D01*
X106780313Y-112551797D02*
X106296112Y-112663655D01*
X107105323Y-112238699D02*
X106780313Y-112551797D01*
X138365997Y-107199965D02*
X138873909Y-108340170D01*
X156116051Y-96142074D02*
X156162720Y-96310084D01*
X156107895Y-95997398D02*
X156116051Y-96142074D01*
X156170898Y-95675378D02*
X156107895Y-95997398D01*
X120503046Y-98909360D02*
X120643286Y-99234585D01*
X165653856Y-151353102D02*
X165628484Y-151408232D01*
X165649482Y-151323351D02*
X165653856Y-151353102D01*
X165393964Y-150747567D02*
X165649482Y-151323351D01*
X165696735Y-150276787D02*
X165393964Y-150747567D01*
X154152416Y-95986856D02*
X154136075Y-96508388D01*
X154199087Y-95815345D02*
X154152416Y-95986856D01*
X154280756Y-95715005D02*
X154199087Y-95815345D01*
X159601966Y-151345955D02*
X159496960Y-151426459D01*
X159608965Y-150939928D02*
X159601966Y-151345955D01*
X159602841Y-150344894D02*
X159608965Y-150939928D01*
X159621214Y-150344047D02*
X159602841Y-150344894D01*
X153709078Y-93575158D02*
X153577235Y-93400147D01*
X153917922Y-93640495D02*
X153709078Y-93575158D01*
X152852661Y-93404855D02*
X152852733Y-93404880D01*
X136334489Y-103501902D02*
X136376664Y-103709908D01*
X156522047Y-96614526D02*
X156443877Y-96531688D01*
X156628222Y-96633195D02*
X156522047Y-96614526D01*
X154887399Y-96639050D02*
X154887522Y-96639095D01*
X156437778Y-150199634D02*
X156593536Y-150944305D01*
X156367773Y-150127879D02*
X156437778Y-150199634D01*
X156310894Y-150116506D02*
X156367773Y-150127879D01*
X156253143Y-150127004D02*
X156310894Y-150116506D01*
X165589101Y-150184904D02*
X165631979Y-150165656D01*
X165315210Y-150577802D02*
X165589101Y-150184904D01*
X165123573Y-150178777D02*
X165315210Y-150577802D01*
X165016817Y-150123650D02*
X165123573Y-150178777D01*
X152537647Y-96492097D02*
X152511965Y-96020735D01*
X152595982Y-96593603D02*
X152537647Y-96492097D01*
X152674155Y-96627438D02*
X152595982Y-96593603D01*
X157886048Y-151236593D02*
X157988430Y-151166591D01*
X157893924Y-151432606D02*
X157893922Y-151432605D01*
X158093438Y-151361729D02*
X157893924Y-151432606D01*
X158236070Y-151173591D02*
X158093438Y-151361729D01*
X153994902Y-96627396D02*
X153994922Y-96627395D01*
X154056737Y-96616895D02*
X153994902Y-96627396D01*
X154136075Y-96508388D02*
X154056737Y-96616895D01*
X157728540Y-150524302D02*
X157698788Y-150802567D01*
X157795921Y-150345791D02*
X157728540Y-150524302D01*
X157900052Y-150275785D02*
X157795921Y-150345791D01*
X158011183Y-150345791D02*
X157900052Y-150275785D01*
X159062088Y-151414263D02*
X158983331Y-151436135D01*
X159088333Y-151363511D02*
X159062088Y-151414263D01*
X159083084Y-151337264D02*
X159088333Y-151363511D01*
X159019207Y-151152629D02*
X159083084Y-151337264D01*
X153989082Y-93262472D02*
X153889909Y-93243803D01*
X154151258Y-93201801D02*
X153989082Y-93262472D01*
X154245762Y-93050125D02*
X154151258Y-93201801D01*
X151568014Y-92369910D02*
X151579698Y-93552980D01*
X151656688Y-92362908D02*
X151568014Y-92369910D01*
X158236070Y-151173591D02*
X158093438Y-151361729D01*
X158311324Y-150940828D02*
X158236070Y-151173591D01*
X158331446Y-150730812D02*
X158311324Y-150940828D01*
X158266691Y-150386041D02*
X158331446Y-150730812D01*
X121576292Y-101302152D02*
X121425054Y-101762713D01*
X148997758Y-95719680D02*
X149112097Y-95558670D01*
X148924253Y-95838687D02*
X148997758Y-95719680D01*
X148940594Y-95026637D02*
X148924253Y-95838687D01*
X143556777Y-95272098D02*
X143492197Y-94722442D01*
X154538613Y-92414252D02*
X154693790Y-92535593D01*
X154463943Y-92427087D02*
X154538613Y-92414252D01*
X154372937Y-92536760D02*
X154463943Y-92427087D01*
X157353914Y-150913620D02*
X157395917Y-151093006D01*
X157250657Y-150797237D02*
X157353914Y-150913620D01*
X157366165Y-150667728D02*
X157250657Y-150797237D01*
X157405543Y-150479593D02*
X157366165Y-150667728D01*
X148823994Y-96629691D02*
X148738822Y-96648360D01*
X148909166Y-96523518D02*
X148823994Y-96629691D01*
X148917322Y-96159495D02*
X148909166Y-96523518D01*
X119319044Y-102234082D02*
X119532000Y-102145202D01*
X126829269Y-101767544D02*
X126915035Y-101604910D01*
X154978473Y-92409585D02*
X155200156Y-92494757D01*
X154826798Y-92443421D02*
X154978473Y-92409585D01*
X154693790Y-92535593D02*
X154826798Y-92443421D01*
X166322471Y-150747567D02*
X166577986Y-151323351D01*
X166625239Y-150276787D02*
X166322471Y-150747567D01*
X166637488Y-150236533D02*
X166625239Y-150276787D01*
X166628739Y-150207656D02*
X166637488Y-150236533D01*
X155518615Y-92427087D02*
X155593288Y-92414252D01*
X155427610Y-92536760D02*
X155518615Y-92427087D01*
X155422953Y-92900782D02*
X155427610Y-92536760D01*
X161495665Y-150450802D02*
X161507038Y-150184785D01*
X161510538Y-151062465D02*
X161495665Y-150450802D01*
X161538534Y-151391485D02*
X161510538Y-151062465D01*
X161634789Y-151429986D02*
X161538534Y-151391485D01*
X137035496Y-101667735D02*
X137339263Y-101052035D01*
X120643286Y-99234585D02*
X120456809Y-99849554D01*
X153254056Y-96150196D02*
X153353229Y-96395211D01*
X153276239Y-96188699D02*
X153254056Y-96150196D01*
X153329909Y-96230701D02*
X153276239Y-96188699D01*
X136919152Y-105360781D02*
X136337732Y-105014495D01*
X156784307Y-151394104D02*
X156750180Y-151318850D01*
X156868313Y-151425606D02*
X156784307Y-151394104D01*
X157015322Y-151432605D02*
X156868313Y-151425606D01*
X156190153Y-151009085D02*
X156205027Y-151009083D01*
X158824939Y-151217438D02*
X158776812Y-151062555D01*
X158887067Y-151392450D02*
X158824939Y-151217438D01*
X158946571Y-151433575D02*
X158887067Y-151392450D01*
X158983322Y-151436115D02*
X158946571Y-151433575D01*
X130861722Y-100492995D02*
X130123922Y-100584595D01*
X130131022Y-96297395D02*
X130861722Y-100492995D01*
X129404122Y-96476895D02*
X130131022Y-96297395D01*
X130123922Y-100584595D02*
X129404122Y-96476895D01*
X161425657Y-151289984D02*
X161423117Y-151365238D01*
X161414284Y-150885709D02*
X161425657Y-151289984D01*
X161346031Y-150821831D02*
X161414284Y-150885709D01*
X161286528Y-150813082D02*
X161346031Y-150821831D01*
X160885028Y-93462667D02*
X161147885Y-93736965D01*
X160850196Y-92730116D02*
X160885028Y-93462667D01*
X156339785Y-150961839D02*
X156312664Y-150737825D01*
X156335411Y-150989835D02*
X156339785Y-150961839D01*
X156288158Y-151003834D02*
X156335411Y-150989835D01*
X156205027Y-151009083D02*
X156288158Y-151003834D01*
X155371994Y-150542669D02*
X155364995Y-150845437D01*
X155378993Y-150246025D02*
X155371994Y-150542669D01*
X155378146Y-150221528D02*
X155378993Y-150246025D01*
X155322142Y-150146274D02*
X155378146Y-150221528D01*
X133513828Y-100274494D02*
X132724226Y-101023579D01*
X134067990Y-99426101D02*
X133513828Y-100274494D01*
X134399185Y-98511702D02*
X134067990Y-99426101D01*
X134519885Y-97564594D02*
X134399185Y-98511702D01*
X161871922Y-150880395D02*
X161800167Y-150882088D01*
X161935748Y-150880311D02*
X161871922Y-150880395D01*
X161985625Y-150846185D02*
X161935748Y-150880311D01*
X162000498Y-150795433D02*
X161985625Y-150846185D01*
X161770422Y-151435235D02*
X161634789Y-151429986D01*
X161300608Y-151434366D02*
X161300522Y-151434365D01*
X161371488Y-151423867D02*
X161300608Y-151434366D01*
X161423117Y-151365238D02*
X161371488Y-151423867D01*
X166719662Y-151399359D02*
X166712663Y-151360859D01*
X166748539Y-151425606D02*
X166719662Y-151399359D01*
X166861422Y-151432605D02*
X166748539Y-151425606D01*
X166474735Y-151436228D02*
X166474722Y-151436115D01*
X119411802Y-102404891D02*
X119788314Y-102256526D01*
X148141400Y-95631000D02*
X148039896Y-95553995D01*
X148174070Y-95803677D02*
X148141400Y-95631000D01*
X148177569Y-95974021D02*
X148174070Y-95803677D01*
X126697322Y-101308397D02*
X126512462Y-101191909D01*
X154823610Y-98556924D02*
X154573414Y-98388230D01*
X155099319Y-98813819D02*
X154823610Y-98556924D01*
X139652522Y-109428155D02*
X140595615Y-109174383D01*
X154522292Y-93647494D02*
X154428953Y-93629993D01*
X154595794Y-93635827D02*
X154522292Y-93647494D01*
X154676301Y-93555322D02*
X154595794Y-93635827D01*
X158776812Y-151062555D02*
X158664803Y-150898045D01*
X158824939Y-151217438D02*
X158776812Y-151062555D01*
X158887067Y-151392450D02*
X158824939Y-151217438D01*
X158946571Y-151433575D02*
X158887067Y-151392450D01*
X156285163Y-93642828D02*
X156231493Y-93650995D01*
X156363333Y-93552989D02*
X156285163Y-93642828D01*
X156384330Y-93047791D02*
X156363333Y-93552989D01*
X154879295Y-92567094D02*
X154777791Y-92613764D01*
X154980802Y-92644099D02*
X154879295Y-92567094D01*
X155013472Y-92816776D02*
X154980802Y-92644099D01*
X123808560Y-100704857D02*
X125124722Y-99536095D01*
X162472574Y-96090376D02*
X162461253Y-96520372D01*
X162610899Y-96054899D02*
X162472574Y-96090376D01*
X139676162Y-112438005D02*
X138837838Y-112888039D01*
X139350456Y-103784452D02*
X138925213Y-104083959D01*
X143596206Y-93544708D02*
X143642292Y-92924127D01*
X120564524Y-101186028D02*
X120315344Y-101371488D01*
X132994819Y-103489518D02*
X134356533Y-104929531D01*
X161764233Y-150330868D02*
X161747610Y-150395621D01*
X161904241Y-150311621D02*
X161764233Y-150330868D01*
X161992622Y-150315995D02*
X161904241Y-150311621D01*
X161996198Y-150316044D02*
X161992622Y-150315995D01*
X160181310Y-150500685D02*
X160085930Y-150728198D01*
X160239064Y-150737825D02*
X160181310Y-150500685D01*
X160266185Y-150961839D02*
X160239064Y-150737825D01*
X160261811Y-150989835D02*
X160266185Y-150961839D01*
X143654644Y-96071728D02*
X143556777Y-95272098D01*
X164856682Y-151339098D02*
X165146326Y-150842068D01*
X164850558Y-151368850D02*
X164856682Y-151339098D01*
X164859307Y-151399477D02*
X164850558Y-151368850D01*
X164893433Y-151426598D02*
X164859307Y-151399477D01*
X156534907Y-151442207D02*
X156534922Y-151442235D01*
X156611914Y-151428209D02*
X156534907Y-151442207D01*
X156664416Y-151360831D02*
X156611914Y-151428209D01*
X156593536Y-150944305D02*
X156664416Y-151360831D01*
X164012284Y-150639810D02*
X164011437Y-150725566D01*
X164115541Y-150981081D02*
X164012284Y-150639810D01*
X164161044Y-151126341D02*
X164115541Y-150981081D01*
X164257298Y-151188469D02*
X164161044Y-151126341D01*
X120933005Y-100566488D02*
X121351639Y-100870404D01*
X163655152Y-151349477D02*
X163602650Y-151408981D01*
X163677899Y-150795568D02*
X163655152Y-151349477D01*
X163688398Y-150230283D02*
X163677899Y-150795568D01*
X163635021Y-150154154D02*
X163688398Y-150230283D01*
X143642292Y-92924127D02*
X143899434Y-92594239D01*
X117316788Y-108860602D02*
X116693602Y-109584615D01*
X164357930Y-151134215D02*
X164257298Y-151188469D01*
X164460312Y-150855950D02*
X164357930Y-151134215D01*
X164537317Y-150643313D02*
X164460312Y-150855950D01*
X164525068Y-151244474D02*
X164537317Y-150643313D01*
X130388917Y-102011679D02*
X130388922Y-102011695D01*
X131481281Y-101673515D02*
X130388917Y-102011679D01*
X132392259Y-101187373D02*
X131481281Y-101673515D01*
X133126556Y-100578452D02*
X132392259Y-101187373D01*
X150979146Y-90371908D02*
X151665322Y-90339829D01*
X153814056Y-93163298D02*
X153913229Y-93408313D01*
X153836239Y-93201800D02*
X153814056Y-93163298D01*
X153889909Y-93243803D02*
X153836239Y-93201800D01*
X119905702Y-100306825D02*
X120933005Y-100566488D01*
X145965771Y-89966425D02*
X146310426Y-89964648D01*
X164952934Y-151408141D02*
X164914431Y-151429138D01*
X165228575Y-150999489D02*
X164952934Y-151408141D01*
X165453464Y-151395015D02*
X165228575Y-150999489D01*
X165515595Y-151435268D02*
X165453464Y-151395015D01*
X136376664Y-103709908D02*
X136531232Y-103689331D01*
X117316788Y-108860602D02*
X116693602Y-109584615D01*
X138601072Y-104589750D02*
X138001612Y-104402065D01*
X146161478Y-95112966D02*
X146150979Y-95115309D01*
X146245484Y-95226140D02*
X146161478Y-95112966D01*
X146267637Y-95270477D02*
X146245484Y-95226140D01*
X151066430Y-93636994D02*
X150945091Y-93673163D01*
X151128267Y-93530821D02*
X151066430Y-93636994D01*
X118086992Y-98378095D02*
X119313351Y-98438167D01*
X160879210Y-98184979D02*
X160471809Y-98224283D01*
X161603490Y-97581972D02*
X160879210Y-98184979D01*
X134876667Y-102084847D02*
X136053102Y-103238775D01*
X150581098Y-93494684D02*
X150684939Y-93430513D01*
X150945091Y-93673163D02*
X150945122Y-93673195D01*
X142541276Y-110050487D02*
X143615722Y-111636805D01*
X120859693Y-105163839D02*
X120644448Y-105772552D01*
X148980322Y-93639395D02*
X148888151Y-93621894D01*
X148086860Y-98261059D02*
X147008622Y-98540795D01*
X154972622Y-95160795D02*
X155047292Y-95157295D01*
X154972608Y-95096669D02*
X154972622Y-95160795D01*
X154927103Y-95005663D02*
X154972608Y-95096669D01*
X106765860Y-109569491D02*
X107536658Y-109458300D01*
X106137599Y-109937476D02*
X106765860Y-109569491D01*
X105637020Y-110400055D02*
X106137599Y-109937476D01*
X148672314Y-94914592D02*
X148778486Y-94884257D01*
X148620978Y-95002097D02*
X148672314Y-94914592D01*
X148583640Y-96266837D02*
X148620978Y-95002097D01*
X120711222Y-102944995D02*
X122402742Y-101809706D01*
X157403850Y-150436715D02*
X157405543Y-150479593D01*
X157313719Y-150229327D02*
X157403850Y-150436715D01*
X157059953Y-150129570D02*
X157313719Y-150229327D01*
X156979447Y-150127030D02*
X157059953Y-150129570D01*
X152578488Y-95311343D02*
X152538819Y-95208670D01*
X152678826Y-95346345D02*
X152578488Y-95311343D01*
X152706867Y-96628606D02*
X152706822Y-96628595D01*
X151718525Y-92282403D02*
X151656688Y-92362908D01*
X151717397Y-92263734D02*
X151718525Y-92282403D01*
X134876667Y-102084847D02*
X136053102Y-103238775D01*
X103816022Y-110223895D02*
X104548871Y-109565392D01*
X106686372Y-109219265D02*
X106866912Y-109527804D01*
X106127941Y-108652182D02*
X106686372Y-109219265D01*
X150940393Y-96382380D02*
X151064068Y-96308875D01*
X150893679Y-96623895D02*
X150893722Y-96623895D01*
X151113028Y-96555058D02*
X150893679Y-96623895D01*
X149400271Y-95559838D02*
X149340768Y-95635676D01*
X149410770Y-95528336D02*
X149400271Y-95559838D01*
X149395615Y-95489834D02*
X149410770Y-95528336D01*
X137035497Y-101667735D02*
X137339264Y-101052035D01*
X159953507Y-95850308D02*
X159909170Y-95040591D01*
X159976847Y-96077822D02*
X159953507Y-95850308D01*
X160104022Y-96173495D02*
X159976847Y-96077822D01*
X151782791Y-95522495D02*
X151915799Y-95430323D01*
X151627614Y-95401154D02*
X151782791Y-95522495D01*
X151552944Y-95413989D02*
X151627614Y-95401154D01*
X110378432Y-112463999D02*
X109986195Y-113113391D01*
X110553895Y-111726084D02*
X110378432Y-112463999D01*
X110448232Y-110940875D02*
X110553895Y-111726084D01*
X159459791Y-95959989D02*
X159456291Y-95789645D01*
X159457533Y-96112832D02*
X159459791Y-95959989D01*
X159456404Y-96238840D02*
X159457533Y-96112832D01*
X157250657Y-150797237D02*
X157353914Y-150913620D01*
X157366165Y-150667728D02*
X157250657Y-150797237D01*
X157405543Y-150479593D02*
X157366165Y-150667728D01*
X136056844Y-105880524D02*
X137026748Y-106123540D01*
X151253020Y-92089933D02*
X151306691Y-92014095D01*
X151246021Y-92204273D02*
X151253020Y-92089933D01*
X133407122Y-100898395D02*
X133556867Y-100397154D01*
X153994922Y-96627395D02*
X153891081Y-96600561D01*
X153335661Y-96011331D02*
X153335739Y-96011357D01*
X153263322Y-95977495D02*
X153335661Y-96011331D01*
X154822097Y-94974161D02*
X154927103Y-95005663D01*
X154713591Y-95000997D02*
X154822097Y-94974161D01*
X154659920Y-95076835D02*
X154713591Y-95000997D01*
X151114239Y-95863181D02*
X151055903Y-95692837D01*
X151128237Y-96017190D02*
X151114239Y-95863181D01*
X151064068Y-96308875D02*
X151128237Y-96017190D01*
X150665006Y-95510827D02*
X150925189Y-95422154D01*
X150505161Y-95736007D02*
X150665006Y-95510827D01*
X150447992Y-95955354D02*
X150505161Y-95736007D01*
X154001918Y-95417489D02*
X154088255Y-95434990D01*
X153909744Y-95438489D02*
X154001918Y-95417489D01*
X153822241Y-95557496D02*
X153909744Y-95438489D01*
X157932657Y-96083695D02*
X158032995Y-95655502D01*
X157938499Y-96202702D02*
X157932657Y-96083695D01*
X157992169Y-96395214D02*
X157938499Y-96202702D01*
X105680546Y-116205637D02*
X105775839Y-116853640D01*
X105759958Y-115362555D02*
X105680546Y-116205637D01*
X106063232Y-114308029D02*
X105759958Y-115362555D01*
X105900094Y-119119053D02*
X105630383Y-120189813D01*
X106460822Y-117832215D02*
X105900094Y-119119053D01*
X103983582Y-115771716D02*
X105572902Y-115797369D01*
X119545471Y-101334979D02*
X119396398Y-101167523D01*
X159674587Y-95458292D02*
X159787761Y-95703307D01*
X159434241Y-95369620D02*
X159674587Y-95458292D01*
X159291897Y-95398788D02*
X159434241Y-95369620D01*
X148601135Y-92582330D02*
X148527630Y-92063131D01*
X148708472Y-93150532D02*
X148601135Y-92582330D01*
X118769200Y-106688707D02*
X118582468Y-106404827D01*
X147876551Y-95717339D02*
X147855554Y-95857348D01*
X147938389Y-95600665D02*
X147876551Y-95717339D01*
X148039896Y-95553995D02*
X147938389Y-95600665D01*
X146731794Y-96640191D02*
X146732022Y-96640195D01*
X146909139Y-96550352D02*
X146731794Y-96640191D01*
X147021144Y-96352007D02*
X146909139Y-96550352D01*
X147532381Y-96515389D02*
X147528882Y-95887684D01*
X147589551Y-96616895D02*
X147532381Y-96515389D01*
X147682890Y-96634396D02*
X147589551Y-96616895D01*
X153017156Y-92527504D02*
X153039311Y-92564840D01*
X152971653Y-92484335D02*
X153017156Y-92527504D01*
X149921793Y-95349808D02*
X149833119Y-95356808D01*
X149983628Y-95269303D02*
X149921793Y-95349808D01*
X149982499Y-95250634D02*
X149983628Y-95269303D01*
X164594982Y-150140156D02*
X164648361Y-150134906D01*
X164521477Y-150192658D02*
X164594982Y-150140156D01*
X164444473Y-150344045D02*
X164521477Y-150192658D01*
X164343841Y-150576808D02*
X164444473Y-150344045D01*
X153402245Y-95416320D02*
X153572589Y-95476990D01*
X153194566Y-95482824D02*
X153402245Y-95416320D01*
X153049891Y-95656668D02*
X153194566Y-95482824D01*
X152766306Y-93638239D02*
X152511956Y-93515732D01*
X152940149Y-93577569D02*
X152766306Y-93638239D01*
X105051711Y-121098456D02*
X104595419Y-121309448D01*
X105541399Y-121193345D02*
X105051711Y-121098456D01*
X105630383Y-120189813D02*
X105541399Y-121193345D01*
X155819683Y-95811824D02*
X155944524Y-95548141D01*
X155790516Y-96056839D02*
X155819683Y-95811824D01*
X155918856Y-96502533D02*
X155790516Y-96056839D01*
X158694549Y-96215523D02*
X158721388Y-96276194D01*
X158639711Y-96194523D02*
X158694549Y-96215523D01*
X158614057Y-96196866D02*
X158639711Y-96194523D01*
X105144801Y-111292126D02*
X105637020Y-110400055D01*
X105211971Y-111986138D02*
X105144801Y-111292126D01*
X105656439Y-112453007D02*
X105211971Y-111986138D01*
X149514623Y-96240071D02*
X149505282Y-95666036D01*
X149533278Y-96482753D02*
X149514623Y-96240071D01*
X149623115Y-96600593D02*
X149533278Y-96482753D01*
X147434261Y-95752305D02*
X147435390Y-95942483D01*
X147435390Y-95546959D02*
X147434261Y-95752305D01*
X147371221Y-95444286D02*
X147435390Y-95546959D01*
X146024990Y-100000974D02*
X145439731Y-100368230D01*
X153562076Y-96321707D02*
X153621580Y-96290205D01*
X153406899Y-96409212D02*
X153562076Y-96321707D01*
X153353229Y-96395211D02*
X153406899Y-96409212D01*
X159192724Y-95460625D02*
X159291897Y-95398788D01*
X159143722Y-95510795D02*
X159192724Y-95460625D01*
X159143758Y-95010296D02*
X159143722Y-95510795D01*
X159799417Y-96509523D02*
X159709577Y-96620363D01*
X159815757Y-96035827D02*
X159799417Y-96509523D01*
X159787761Y-95703307D02*
X159815757Y-96035827D01*
X147987399Y-95430323D02*
X148139076Y-95396487D01*
X147854391Y-95522495D02*
X147987399Y-95430323D01*
X147699214Y-95401154D02*
X147854391Y-95522495D01*
X146310426Y-89964648D02*
X147680533Y-90411091D01*
X157015270Y-151432524D02*
X157015322Y-151432605D01*
X157238406Y-151380023D02*
X157015270Y-151432524D01*
X157359166Y-151250514D02*
X157238406Y-151380023D01*
X157395917Y-151093006D02*
X157359166Y-151250514D01*
X156116646Y-151148216D02*
X156027390Y-151174462D01*
X156283784Y-151135092D02*
X156116646Y-151148216D01*
X156361663Y-151145591D02*
X156283784Y-151135092D01*
X150013978Y-95054660D02*
X150103818Y-94986989D01*
X150030319Y-95208670D02*
X150013978Y-95054660D01*
X150069988Y-95311343D02*
X150030319Y-95208670D01*
X105699134Y-108439750D02*
X106127941Y-108652182D01*
X105166397Y-108364358D02*
X105699134Y-108439750D01*
X104526577Y-108493231D02*
X105166397Y-108364358D01*
X155345282Y-90672011D02*
X155770106Y-90292077D01*
X148172912Y-96301875D02*
X148177569Y-95974021D01*
X148176412Y-96493220D02*
X148172912Y-96301875D01*
X148337422Y-96637895D02*
X148176412Y-96493220D01*
X147079482Y-96160662D02*
X147021144Y-96352007D01*
X147078353Y-96238833D02*
X147079482Y-96160662D01*
X147090037Y-96495516D02*
X147078353Y-96238833D01*
X162000498Y-150795433D02*
X161985625Y-150846185D01*
X161942747Y-150728052D02*
X162000498Y-150795433D01*
X161901619Y-150726359D02*
X161942747Y-150728052D01*
X161848240Y-150727206D02*
X161901619Y-150726359D01*
X136066983Y-101888587D02*
X136734492Y-102413781D01*
X157359166Y-151250514D02*
X157238406Y-151380023D01*
X157395917Y-151093006D02*
X157359166Y-151250514D01*
X157353914Y-150913620D02*
X157395917Y-151093006D01*
X139527166Y-103060637D02*
X139350456Y-103784452D01*
X132402470Y-93503957D02*
X133147169Y-94115097D01*
X131522107Y-93059911D02*
X132402470Y-93503957D01*
X130518552Y-92816260D02*
X131522107Y-93059911D01*
X129404276Y-92806303D02*
X130518552Y-92816260D01*
X153429082Y-96249370D02*
X153329909Y-96230701D01*
X153591258Y-96188700D02*
X153429082Y-96249370D01*
X153685763Y-96037024D02*
X153591258Y-96188700D01*
X114950481Y-106202603D02*
X114977358Y-106579382D01*
X115125714Y-105839653D02*
X114950481Y-106202603D01*
X115205348Y-105526591D02*
X115125714Y-105839653D01*
X109997092Y-110149602D02*
X110448232Y-110940875D01*
X109136122Y-109393495D02*
X109997092Y-110149602D01*
X106315176Y-109447462D02*
X106417452Y-109672176D01*
X151265871Y-96382381D02*
X151113028Y-96555058D01*
X151344040Y-96171201D02*
X151265871Y-96382381D01*
X151363881Y-95984523D02*
X151344040Y-96171201D01*
X122266797Y-107684603D02*
X122346610Y-107961713D01*
X119747623Y-106615009D02*
X119096238Y-106773375D01*
X124753740Y-99213795D02*
X124648873Y-98960642D01*
X147269714Y-95423286D02*
X147371221Y-95444286D01*
X147192710Y-95434953D02*
X147269714Y-95423286D01*
X147095871Y-95527125D02*
X147192710Y-95434953D01*
X122319722Y-109013117D02*
X122718432Y-109137036D01*
X160017636Y-94901749D02*
X160113309Y-94888917D01*
X159910299Y-95012589D02*
X160017636Y-94901749D01*
X159909170Y-95040591D02*
X159910299Y-95012589D01*
X122346610Y-107961711D02*
X121568692Y-109288161D01*
X158124009Y-96571391D02*
X157992169Y-96395214D01*
X158334022Y-96637895D02*
X158124009Y-96571391D01*
X157411127Y-96382380D02*
X157415790Y-96382380D01*
X141207322Y-108568895D02*
X142541276Y-110050487D01*
X154515248Y-95293847D02*
X154522247Y-95251845D01*
X154567752Y-95377853D02*
X154515248Y-95293847D01*
X154624922Y-95380195D02*
X154567752Y-95377853D01*
X121351639Y-100870404D02*
X121576292Y-101302152D01*
X154986572Y-96539878D02*
X154887399Y-96639050D01*
X154974916Y-95356808D02*
X154986572Y-96539878D01*
X155063591Y-95349808D02*
X154974916Y-95356808D01*
X149785303Y-95005663D02*
X149830805Y-95096669D01*
X149680297Y-94974161D02*
X149785303Y-95005663D01*
X149571791Y-95000997D02*
X149680297Y-94974161D01*
X121568692Y-109288163D02*
X121948839Y-109081459D01*
X149512346Y-93514553D02*
X149443510Y-93249703D01*
X149715360Y-93635894D02*
X149512346Y-93514553D01*
X150129566Y-93082794D02*
X150193735Y-92744440D01*
X150164567Y-93328976D02*
X150129566Y-93082794D01*
X162969512Y-94570017D02*
X163106616Y-95540696D01*
X162716103Y-94243547D02*
X162969512Y-94570017D01*
X158814749Y-95301980D02*
X158819406Y-94989294D01*
X158822905Y-95998523D02*
X158814749Y-95301980D01*
X158835746Y-96490887D02*
X158822905Y-95998523D01*
X156086022Y-150985463D02*
X156190153Y-151009085D01*
X156159527Y-150728198D02*
X156086022Y-150985463D01*
X156254910Y-150500685D02*
X156159527Y-150728198D01*
X157286286Y-96294874D02*
X157411127Y-96382380D01*
X157234947Y-96138531D02*
X157286286Y-96294874D01*
X157227948Y-96018357D02*
X157234947Y-96138531D01*
X137339263Y-101052035D02*
X137799687Y-100574335D01*
X158694541Y-95711505D02*
X158626869Y-95901683D01*
X158671201Y-95590164D02*
X158694541Y-95711505D01*
X158576696Y-95468823D02*
X158671201Y-95590164D01*
X150081716Y-91928956D02*
X150137720Y-91948790D01*
X149996544Y-91997793D02*
X150081716Y-91928956D01*
X153357880Y-96627392D02*
X153357922Y-96627395D01*
X153625062Y-96513052D02*
X153357880Y-96627392D01*
X153695067Y-96377710D02*
X153625062Y-96513052D01*
X153714933Y-95848012D02*
X153685763Y-96037024D01*
X153677598Y-95632166D02*
X153714933Y-95848012D01*
X153572589Y-95476990D02*
X153677598Y-95632166D01*
X106460822Y-117832215D02*
X105900094Y-119119053D01*
X103983582Y-115771716D02*
X105572902Y-115797369D01*
X104339100Y-115062863D02*
X103983582Y-115771716D01*
X146526322Y-99454395D02*
X146024990Y-100000974D01*
X156995200Y-150866448D02*
X156992660Y-150988080D01*
X157133458Y-150910198D02*
X156995200Y-150866448D01*
X157187712Y-150995079D02*
X157133458Y-150910198D01*
X148391092Y-96629730D02*
X148337421Y-96637897D01*
X148469261Y-96539891D02*
X148391092Y-96629730D01*
X148490259Y-96034693D02*
X148469261Y-96539891D01*
X159157622Y-96277395D02*
X159156493Y-96517743D01*
X159157618Y-96205004D02*
X159157622Y-96277395D01*
X159179773Y-95760477D02*
X159157618Y-96205004D01*
X137799687Y-100574335D02*
X138445632Y-100269675D01*
X158903415Y-96614561D02*
X158835746Y-96490887D01*
X159001422Y-96637895D02*
X158903415Y-96614561D01*
X158334025Y-96637883D02*
X158334022Y-96637895D01*
X149391005Y-93036190D02*
X149337335Y-92938184D01*
X149443510Y-93249703D02*
X149391005Y-93036190D01*
X150341913Y-92525093D02*
X150572926Y-92438755D01*
X150193735Y-92744440D02*
X150341913Y-92525093D01*
X106639522Y-113025695D02*
X106063232Y-114308029D01*
X108492479Y-111236965D02*
X108106439Y-111429130D01*
X108821371Y-110862473D02*
X108492479Y-111236965D01*
X156748267Y-90246978D02*
X158078846Y-90838900D01*
X156992660Y-150988080D02*
X156993506Y-151223467D01*
X156995200Y-150866448D02*
X156992660Y-150988080D01*
X157133458Y-150910198D02*
X156995200Y-150866448D01*
X157187712Y-150995079D02*
X157133458Y-150910198D01*
X106127941Y-108652182D02*
X106686372Y-109219265D01*
X105699134Y-108439750D02*
X106127941Y-108652182D01*
X105166397Y-108364358D02*
X105699134Y-108439750D01*
X160288063Y-151145591D02*
X160210181Y-151135092D01*
X160345814Y-151376607D02*
X160288063Y-151145591D01*
X160461322Y-151442235D02*
X160345814Y-151376607D01*
X159496960Y-151426459D02*
X159497022Y-151426485D01*
X157194711Y-151057208D02*
X157187712Y-150995079D01*
X157179838Y-151142089D02*
X157194711Y-151057208D01*
X157110708Y-151248845D02*
X157179838Y-151142089D01*
X159959372Y-96473347D02*
X159997873Y-96368340D01*
X159960501Y-96507182D02*
X159959372Y-96473347D01*
X159999004Y-96585354D02*
X159960501Y-96507182D01*
X150087482Y-96593603D02*
X150029144Y-96492097D01*
X150165655Y-96627438D02*
X150087482Y-96593603D01*
X150198322Y-96628595D02*
X150165655Y-96627438D01*
X106014922Y-110346495D02*
X105868113Y-110830489D01*
X106789573Y-110717503D02*
X106956583Y-110300212D01*
X106827070Y-110954156D02*
X106789573Y-110717503D01*
X108808810Y-113981689D02*
X108152365Y-114118135D01*
X109441538Y-113633031D02*
X108808810Y-113981689D01*
X109986195Y-113113391D02*
X109441538Y-113633031D01*
X159669341Y-150345740D02*
X159621214Y-150344047D01*
X159743720Y-150346587D02*
X159669341Y-150345740D01*
X159810226Y-150344894D02*
X159743720Y-150346587D01*
X159860978Y-150293264D02*
X159810226Y-150344894D01*
X134042996Y-100202641D02*
X133996688Y-100585835D01*
X120711222Y-102944995D02*
X122402742Y-101809706D01*
X154787738Y-90689083D02*
X155345282Y-90672011D01*
X150810886Y-96294874D02*
X150935727Y-96382380D01*
X150759550Y-96138531D02*
X150810886Y-96294874D01*
X150752551Y-96018357D02*
X150759550Y-96138531D01*
X121425054Y-101762713D02*
X120949160Y-102094327D01*
X159964278Y-150532153D02*
X160113912Y-150183883D01*
X159813769Y-150982805D02*
X159964278Y-150532153D01*
X159722764Y-151329328D02*
X159813769Y-150982805D01*
X159721917Y-151344201D02*
X159722764Y-151329328D01*
X161800167Y-150882088D02*
X161755539Y-150890837D01*
X161871922Y-150880395D02*
X161800167Y-150882088D01*
X161935748Y-150880311D02*
X161871922Y-150880395D01*
X161985625Y-150846185D02*
X161935748Y-150880311D01*
X126875366Y-98593095D02*
X127289242Y-98641248D01*
X126539022Y-97142995D02*
X126875366Y-98593095D01*
X126176956Y-97142981D02*
X126539022Y-97142995D01*
X126040592Y-96484139D02*
X126176956Y-97142981D01*
X150893722Y-96623895D02*
X150639375Y-96538723D01*
X150170329Y-95346344D02*
X150170326Y-95346345D01*
X150247333Y-95337011D02*
X150170329Y-95346344D01*
X152706822Y-96628595D02*
X152674155Y-96627438D01*
X152265821Y-96637897D02*
X152265822Y-96637895D01*
X152319489Y-96629730D02*
X152265821Y-96637897D01*
X120503046Y-98909360D02*
X120643286Y-99234585D01*
X149518120Y-95076835D02*
X149571791Y-95000997D01*
X149511121Y-95191175D02*
X149518120Y-95076835D01*
X149421282Y-95212176D02*
X149511121Y-95191175D01*
X154488438Y-95715008D02*
X154449934Y-95727840D01*
X154552607Y-95587833D02*
X154488438Y-95715008D01*
X154537451Y-95521329D02*
X154552607Y-95587833D01*
X137775322Y-103452195D02*
X137641673Y-104412197D01*
X153480415Y-95715005D02*
X153471074Y-95635667D01*
X153437246Y-95916851D02*
X153480415Y-95715005D01*
X153335739Y-96011357D02*
X153437246Y-95916851D01*
X116689270Y-99436853D02*
X117324116Y-99229181D01*
X148465762Y-95718507D02*
X148490259Y-96034693D01*
X148360756Y-95481659D02*
X148465762Y-95718507D01*
X148139076Y-95396487D02*
X148360756Y-95481659D01*
X153263395Y-95970521D02*
X153263322Y-95977495D01*
X153273893Y-95874848D02*
X153263395Y-95970521D01*
X153305395Y-95747673D02*
X153273893Y-95874848D01*
X120565876Y-100972468D02*
X120564524Y-101186028D01*
X116693602Y-109584615D02*
X117144120Y-109515991D01*
X153534052Y-92884448D02*
X153609891Y-92669768D01*
X153515397Y-93078127D02*
X153534052Y-92884448D01*
X153577235Y-93400147D02*
X153515397Y-93078127D01*
X154379940Y-95436157D02*
X154537451Y-95521329D01*
X154153595Y-95546997D02*
X154379940Y-95436157D01*
X154088255Y-95434990D02*
X154153595Y-95546997D01*
X119535322Y-100557795D02*
X119799514Y-100964036D01*
X153056752Y-92175148D02*
X153071907Y-91982636D01*
X153047410Y-92411996D02*
X153056752Y-92175148D01*
X129196522Y-95586895D02*
X128584050Y-95461584D01*
X130033754Y-100391859D02*
X129423722Y-96667496D01*
X129507533Y-100521728D02*
X130033754Y-100391859D01*
X128810157Y-96821768D02*
X129507533Y-100521728D01*
X117324116Y-99229181D02*
X117889313Y-99245342D01*
X136337732Y-105014495D02*
X135914946Y-104341143D01*
X156312664Y-150737825D02*
X156254910Y-150500685D01*
X156339785Y-150961839D02*
X156312664Y-150737825D01*
X156335411Y-150989835D02*
X156339785Y-150961839D01*
X121252115Y-106357724D02*
X121896732Y-106955201D01*
X144236898Y-96617108D02*
X143823138Y-96343652D01*
X117889313Y-99245342D02*
X118374646Y-99415396D01*
X120456809Y-99849554D02*
X120237402Y-100130895D01*
X119064872Y-99937430D02*
X119313102Y-100235776D01*
X157100206Y-150702813D02*
X157171961Y-150613557D01*
X156997824Y-150737814D02*
X157100206Y-150702813D01*
X156993506Y-151223467D02*
X156994325Y-151291723D01*
X156992660Y-150988080D02*
X156993506Y-151223467D01*
X118658582Y-106750995D02*
X117316788Y-108860602D01*
X120456809Y-99849554D02*
X120237402Y-100130895D01*
X119313351Y-98438167D02*
X120089218Y-98629572D01*
X159810223Y-150144505D02*
X159867977Y-150246887D01*
X159518828Y-150133131D02*
X159810223Y-150144505D01*
X159174933Y-150144505D02*
X159518828Y-150133131D01*
X159127681Y-150205758D02*
X159174933Y-150144505D01*
X122402742Y-101809706D02*
X123808560Y-100704857D01*
X156797436Y-150147152D02*
X156979447Y-150127030D01*
X156744056Y-150205781D02*
X156797436Y-150147152D01*
X156734433Y-150790316D02*
X156744056Y-150205781D01*
X156750180Y-151318850D02*
X156734433Y-150790316D01*
X160665235Y-151166596D02*
X160610106Y-150958333D01*
X160791241Y-151352981D02*
X160665235Y-151166596D01*
X160983753Y-151423861D02*
X160791241Y-151352981D01*
X161074758Y-151399364D02*
X160983753Y-151423861D01*
X116693602Y-109584615D02*
X117144120Y-109515991D01*
X116689270Y-99436853D02*
X117324116Y-99229181D01*
X146146326Y-96472226D02*
X146145197Y-96515396D01*
X146132328Y-96108203D02*
X146146326Y-96472226D01*
X146113644Y-95624007D02*
X146132328Y-96108203D01*
X155426453Y-93528487D02*
X155422953Y-92900782D01*
X155483622Y-93629993D02*
X155426453Y-93528487D01*
X155576962Y-93647494D02*
X155483622Y-93629993D01*
X115994982Y-99938295D02*
X116689270Y-99436853D01*
X133556867Y-100397154D02*
X133739504Y-100152657D01*
X123808560Y-100704857D02*
X125124722Y-99536095D01*
X156979447Y-150127030D02*
X157059953Y-150129570D01*
X156797436Y-150147152D02*
X156979447Y-150127030D01*
X156744056Y-150205781D02*
X156797436Y-150147152D01*
X103776522Y-108893595D02*
X104526577Y-108493231D01*
X113270723Y-107506494D02*
X113270722Y-107506495D01*
X114115141Y-107287549D02*
X113270723Y-107506494D01*
X149745622Y-96639095D02*
X149623115Y-96600593D01*
X149249765Y-96651906D02*
X149249822Y-96651895D01*
X149366441Y-96619237D02*
X149249765Y-96651906D01*
X113316370Y-104207855D02*
X113965197Y-104167492D01*
X112815187Y-104412557D02*
X113316370Y-104207855D01*
X112355059Y-104994094D02*
X112815187Y-104412557D01*
X114383430Y-107077307D02*
X114115141Y-107287549D01*
X114653242Y-106777117D02*
X114383430Y-107077307D01*
X114977358Y-106579382D02*
X114653242Y-106777117D01*
X136817096Y-102452365D02*
X137438822Y-102153587D01*
X159375390Y-150700192D02*
X159375321Y-150351895D01*
X159387638Y-151338107D02*
X159375390Y-150700192D01*
X159445392Y-151416861D02*
X159387638Y-151338107D01*
X159497022Y-151426485D02*
X159445392Y-151416861D01*
X160538311Y-151428209D02*
X160461307Y-151442207D01*
X160590816Y-151360831D02*
X160538311Y-151428209D01*
X160519936Y-150944305D02*
X160590816Y-151360831D01*
X160364178Y-150199634D02*
X160519936Y-150944305D01*
X157194711Y-151057208D02*
X157187712Y-150995079D01*
X157179838Y-151142089D02*
X157194711Y-151057208D01*
X157110708Y-151248845D02*
X157179838Y-151142089D01*
X156994325Y-151291723D02*
X157110708Y-151248845D01*
X161788736Y-150725512D02*
X161848240Y-150727206D01*
X161748485Y-150705390D02*
X161788736Y-150725512D01*
X161743236Y-150556631D02*
X161748485Y-150705390D01*
X161747610Y-150395621D02*
X161743236Y-150556631D01*
X167077565Y-150427999D02*
X167074065Y-150710642D01*
X167074065Y-150263489D02*
X167077565Y-150427999D01*
X167127445Y-150256490D02*
X167074065Y-150263489D01*
X167154566Y-150197861D02*
X167127445Y-150256490D01*
X161167521Y-150881337D02*
X161286528Y-150813082D01*
X161168367Y-150895335D02*
X161167521Y-150881337D01*
X161149120Y-151082598D02*
X161168367Y-150895335D01*
X161034490Y-151219106D02*
X161149120Y-151082598D01*
X137438822Y-102153587D02*
X138171418Y-102155573D01*
X165708983Y-150236533D02*
X165696735Y-150276787D01*
X165700234Y-150207656D02*
X165708983Y-150236533D01*
X165631979Y-150165656D02*
X165700234Y-150207656D01*
X165589101Y-150184904D02*
X165631979Y-150165656D01*
X146116007Y-97950335D02*
X145498587Y-98091367D01*
X161136012Y-151343360D02*
X161074758Y-151399364D01*
X161169266Y-151293483D02*
X161136012Y-151343360D01*
X161175390Y-151373111D02*
X161169266Y-151293483D01*
X161241021Y-151427366D02*
X161175390Y-151373111D01*
X119803826Y-101202222D02*
X119545471Y-101334979D01*
X131689912Y-102114939D02*
X132013944Y-101587066D01*
X107215338Y-110998444D02*
X106827070Y-110954156D01*
X107520888Y-110658861D02*
X107215338Y-110998444D01*
X107454988Y-110415677D02*
X107520888Y-110658861D01*
X141207322Y-108568895D02*
X142541276Y-110050487D01*
X150340731Y-96504932D02*
X150296397Y-96598271D01*
X150351230Y-95814223D02*
X150340731Y-96504932D01*
X150353488Y-95617044D02*
X150351230Y-95814223D01*
X148307337Y-90347994D02*
X148527046Y-90162096D01*
X120145475Y-102009472D02*
X119972222Y-101748084D01*
X119799514Y-100964036D02*
X119803826Y-101202222D01*
X121948839Y-109081457D02*
X122319722Y-109013115D01*
X153035822Y-93450395D02*
X152940149Y-93577569D01*
X153035835Y-93460882D02*
X153035822Y-93450395D01*
X156187512Y-150183883D02*
X156253143Y-150127004D01*
X156037878Y-150532153D02*
X156187512Y-150183883D01*
X155887369Y-150982805D02*
X156037878Y-150532153D01*
X155796364Y-151329328D02*
X155887369Y-150982805D01*
X138925213Y-104083959D02*
X138352447Y-104117475D01*
X145706851Y-90096012D02*
X145965771Y-89966425D01*
X159019207Y-151152629D02*
X159083084Y-151337264D01*
X158957079Y-150971493D02*
X159019207Y-151152629D01*
X158894947Y-150858610D02*
X158957079Y-150971493D01*
X158993829Y-150778106D02*
X158894947Y-150858610D01*
X151135420Y-98345654D02*
X150168213Y-98746405D01*
X152071508Y-98448662D02*
X151135420Y-98345654D01*
X160214558Y-151003834D02*
X160261811Y-150989835D01*
X160131427Y-151009083D02*
X160214558Y-151003834D01*
X160461307Y-151442207D02*
X160461322Y-151442235D01*
X160538311Y-151428209D02*
X160461307Y-151442207D01*
X146677846Y-98357929D02*
X146467530Y-98009918D01*
X153024242Y-93200701D02*
X153044082Y-93016356D01*
X152961239Y-93346543D02*
X153024242Y-93200701D01*
X158611533Y-91751767D02*
X158938569Y-92006821D01*
X163068944Y-151126341D02*
X163023441Y-150981081D01*
X163165198Y-151188469D02*
X163068944Y-151126341D01*
X163265830Y-151134215D02*
X163165198Y-151188469D01*
X163368212Y-150855950D02*
X163265830Y-151134215D01*
X120899361Y-104480387D02*
X120859693Y-105163839D01*
X153442612Y-98966437D02*
X153238319Y-99110744D01*
X153670957Y-98682308D02*
X153442612Y-98966437D01*
X111969622Y-106953895D02*
X110280264Y-107834377D01*
X108098886Y-121190122D02*
X108170242Y-121699905D01*
X107545682Y-120649915D02*
X108098886Y-121190122D01*
X161286528Y-150813082D02*
X161346031Y-150821831D01*
X161167521Y-150881337D02*
X161286528Y-150813082D01*
X161168367Y-150895335D02*
X161167521Y-150881337D01*
X161149120Y-151082598D02*
X161168367Y-150895335D01*
X152858960Y-98927507D02*
X152071508Y-98448662D01*
X153238319Y-99110744D02*
X152858960Y-98927507D01*
X136056844Y-105880524D02*
X137026748Y-106123540D01*
X162052202Y-150276665D02*
X161996198Y-150316044D01*
X162067075Y-150218911D02*
X162052202Y-150276665D01*
X161991820Y-150134030D02*
X162067075Y-150218911D01*
X161794933Y-150123531D02*
X161991820Y-150134030D01*
X159953790Y-151174462D02*
X159925794Y-151253216D01*
X160043046Y-151148216D02*
X159953790Y-151174462D01*
X160210181Y-151135092D02*
X160043046Y-151148216D01*
X160288063Y-151145591D02*
X160210181Y-151135092D01*
X158078846Y-90838900D02*
X158611533Y-91751767D01*
X150765443Y-93264836D02*
X150809780Y-93076991D01*
X150684939Y-93430513D02*
X150765443Y-93264836D01*
X124648873Y-98960642D02*
X124785954Y-98849227D01*
X150457415Y-92905481D02*
X150438760Y-93127161D01*
X150525084Y-92697802D02*
X150457415Y-92905481D01*
X159925794Y-151253216D02*
X159875917Y-151393226D01*
X159953790Y-151174462D02*
X159925794Y-151253216D01*
X160043046Y-151148216D02*
X159953790Y-151174462D01*
X160210181Y-151135092D02*
X160043046Y-151148216D01*
X120315344Y-101371488D02*
X120180043Y-101111199D01*
X136066984Y-101888587D02*
X136734492Y-102413781D01*
X107620725Y-119758433D02*
X107545682Y-120649915D01*
X107228422Y-117856955D02*
X107620725Y-119758433D01*
X105051711Y-121098456D02*
X104595419Y-121309448D01*
X155399996Y-151430760D02*
X155400022Y-151430855D01*
X155504127Y-151428220D02*
X155399996Y-151430760D01*
X155671265Y-151414221D02*
X155504127Y-151428220D01*
X155717642Y-151375721D02*
X155671265Y-151414221D01*
X159867977Y-150246887D02*
X159860978Y-150293264D01*
X159810223Y-150144505D02*
X159867977Y-150246887D01*
X159518828Y-150133131D02*
X159810223Y-150144505D01*
X159174933Y-150144505D02*
X159518828Y-150133131D01*
X156288158Y-151003834D02*
X156335411Y-150989835D01*
X156205027Y-151009083D02*
X156288158Y-151003834D01*
X156534907Y-151442207D02*
X156534922Y-151442235D01*
X153227084Y-91891631D02*
X153337924Y-91913799D01*
X153071907Y-91982636D02*
X153227084Y-91891631D01*
X149896206Y-92472656D02*
X149996544Y-91997793D01*
X149755030Y-93074693D02*
X149896206Y-92472656D01*
X162282689Y-97537618D02*
X161603490Y-97581972D01*
X162574883Y-97372332D02*
X162282689Y-97537618D01*
X150812109Y-92600930D02*
X150824950Y-92506425D01*
X150772440Y-92529759D02*
X150812109Y-92600930D01*
X159608726Y-92001620D02*
X160553213Y-91902272D01*
X151565708Y-92109769D02*
X151565722Y-92173895D01*
X151520206Y-92018763D02*
X151565708Y-92109769D01*
X131994822Y-101717595D02*
X132994819Y-103489518D01*
X155247763Y-151424731D02*
X155136632Y-151383603D01*
X155400022Y-151430855D02*
X155247763Y-151424731D01*
X166861431Y-151432557D02*
X166861422Y-151432605D01*
X167120446Y-151422933D02*
X166861431Y-151432557D01*
X125120759Y-101830083D02*
X126356522Y-101386995D01*
X125093517Y-98984544D02*
X125216320Y-99302898D01*
X156922260Y-96047526D02*
X156923389Y-95955354D01*
X156966597Y-96315876D02*
X156922260Y-96047526D01*
X157114772Y-96538723D02*
X156966597Y-96315876D01*
X153412594Y-92001305D02*
X153421936Y-92755018D01*
X153337924Y-91913799D02*
X153412594Y-92001305D01*
X143615722Y-111636805D02*
X143039817Y-112620320D01*
X152755831Y-95337011D02*
X152678826Y-95346344D01*
X152832838Y-95300843D02*
X152755831Y-95337011D01*
X152880674Y-95188836D02*
X152832838Y-95300843D01*
X142541276Y-110050487D02*
X143615722Y-111636805D01*
X152967012Y-92666310D02*
X152877172Y-92607973D01*
X153024182Y-92814486D02*
X152967012Y-92666310D01*
X163903691Y-150134028D02*
X164032322Y-150189158D01*
X163780309Y-150210161D02*
X163903691Y-150134028D01*
X163764561Y-150473550D02*
X163780309Y-150210161D01*
X163758436Y-150886576D02*
X163764561Y-150473550D01*
X150821436Y-92931149D02*
X150765432Y-92670966D01*
X150809780Y-93076991D02*
X150821436Y-92931149D01*
X127075322Y-96397866D02*
X126040592Y-96484139D01*
X127373590Y-96651826D02*
X127075322Y-96397866D01*
X127462963Y-96341774D02*
X127373590Y-96651826D01*
X127358515Y-95970575D02*
X127462963Y-96341774D01*
X144617127Y-97794086D02*
X144594597Y-97296151D01*
X156540754Y-93775861D02*
X156488250Y-93719858D01*
X156569922Y-93781695D02*
X156540754Y-93775861D01*
X156231493Y-93650995D02*
X156231522Y-93650995D01*
X161300522Y-151434365D02*
X161241021Y-151427366D01*
X160116556Y-151009085D02*
X160131427Y-151009083D01*
X160012425Y-150985463D02*
X160116556Y-151009085D01*
X160085930Y-150728198D02*
X160012425Y-150985463D01*
X166444095Y-151435268D02*
X166381967Y-151395015D01*
X166474722Y-151436115D02*
X166444095Y-151435268D01*
X165546231Y-151436228D02*
X165546222Y-151436115D01*
X165628484Y-151408232D02*
X165546231Y-151436228D01*
X162921031Y-150888326D02*
X162923571Y-151159592D01*
X162919337Y-150725566D02*
X162921031Y-150888326D01*
X162920184Y-150639810D02*
X162919337Y-150725566D01*
X163023441Y-150981081D02*
X162920184Y-150639810D01*
X155881470Y-92443421D02*
X156033147Y-92409585D01*
X155748462Y-92535593D02*
X155881470Y-92443421D01*
X155593288Y-92414252D02*
X155748462Y-92535593D01*
X150287074Y-93542489D02*
X150164567Y-93328976D01*
X150513422Y-93640495D02*
X150287074Y-93542489D01*
X157369122Y-96623895D02*
X157114772Y-96538723D01*
X156259561Y-96391756D02*
X156259533Y-96391680D01*
X156162720Y-96310084D02*
X156259561Y-96391756D01*
X164257298Y-151188469D02*
X164161044Y-151126341D01*
X164357930Y-151134215D02*
X164257298Y-151188469D01*
X164460312Y-150855950D02*
X164357930Y-151134215D01*
X164537317Y-150643313D02*
X164460312Y-150855950D01*
X160610106Y-150958333D02*
X160602232Y-150818323D01*
X160665235Y-151166596D02*
X160610106Y-150958333D01*
X160791241Y-151352981D02*
X160665235Y-151166596D01*
X160983753Y-151423861D02*
X160791241Y-151352981D01*
X143899434Y-92594239D02*
X144194402Y-92173931D01*
X148654146Y-89841765D02*
X148828375Y-89606142D01*
X154368281Y-92900782D02*
X154372937Y-92536760D01*
X154371780Y-93528487D02*
X154368281Y-92900782D01*
X154428953Y-93629993D02*
X154371780Y-93528487D01*
X155136632Y-151383603D02*
X155105130Y-150691437D01*
X155247763Y-151424731D02*
X155136632Y-151383603D01*
X155400022Y-151430855D02*
X155247763Y-151424731D01*
X161423117Y-151365238D02*
X161371488Y-151423867D01*
X161425657Y-151289984D02*
X161423117Y-151365238D01*
X161414284Y-150885709D02*
X161425657Y-151289984D01*
X161346031Y-150821831D02*
X161414284Y-150885709D01*
X162835742Y-96007240D02*
X162610899Y-96054899D01*
X163106616Y-95540696D02*
X162835742Y-96007240D01*
X126526022Y-101176795D02*
X126422523Y-101385658D01*
X147003697Y-95978653D02*
X147095871Y-95527125D01*
X146839187Y-96321674D02*
X147003697Y-95978653D01*
X146787851Y-96217834D02*
X146839187Y-96321674D01*
X151640392Y-92170395D02*
X151717397Y-92263734D01*
X151565722Y-92173895D02*
X151640392Y-92170395D01*
X165842934Y-151429138D02*
X165821937Y-151426598D01*
X165881435Y-151408141D02*
X165842934Y-151429138D01*
X166157078Y-150999489D02*
X165881435Y-151408141D01*
X166381967Y-151395015D02*
X166157078Y-150999489D01*
X164850558Y-151368850D02*
X164856682Y-151339098D01*
X164859307Y-151399477D02*
X164850558Y-151368850D01*
X164893433Y-151426598D02*
X164859307Y-151399477D01*
X164914431Y-151429138D02*
X164893433Y-151426598D01*
X128996222Y-94384495D02*
X129196522Y-95586895D01*
X128521831Y-94771987D02*
X128996222Y-94384495D01*
X128371797Y-95160483D02*
X128521831Y-94771987D01*
X128584050Y-95461584D02*
X128371797Y-95160483D01*
X162071374Y-151335363D02*
X162060875Y-151386115D01*
X162018872Y-151263608D02*
X162071374Y-151335363D01*
X161919990Y-151267982D02*
X162018872Y-151263608D01*
X161828985Y-151272357D02*
X161919990Y-151267982D01*
X166517608Y-150184904D02*
X166560486Y-150165656D01*
X166243714Y-150577802D02*
X166517608Y-150184904D01*
X166052080Y-150178777D02*
X166243714Y-150577802D01*
X165945321Y-150123650D02*
X166052080Y-150178777D01*
X145890779Y-96608727D02*
X145821942Y-96494387D01*
X146001622Y-96637895D02*
X145890779Y-96608727D01*
X156569925Y-93781697D02*
X156569922Y-93781695D01*
X151156182Y-92225276D02*
X151246021Y-92204273D01*
X151115347Y-92264945D02*
X151156182Y-92225276D01*
X161770359Y-151435032D02*
X161770422Y-151435235D01*
X161870991Y-151432492D02*
X161770359Y-151435032D01*
X162018875Y-151421119D02*
X161870991Y-151432492D01*
X162060875Y-151386115D02*
X162018875Y-151421119D01*
X157886048Y-151236593D02*
X157886048Y-151236593D01*
X157774915Y-151166591D02*
X157886048Y-151236593D01*
X157715411Y-150998579D02*
X157774915Y-151166591D01*
X157698788Y-150802567D02*
X157715411Y-150998579D01*
X167161574Y-151356428D02*
X167120446Y-151422933D01*
X167131822Y-151299552D02*
X167161574Y-151356428D01*
X167057442Y-151291678D02*
X167131822Y-151299552D01*
X167074065Y-150710642D02*
X167057442Y-151291678D01*
X157741265Y-96382381D02*
X157588422Y-96555058D01*
X157819437Y-96171201D02*
X157741265Y-96382381D01*
X157839278Y-95984523D02*
X157819437Y-96171201D01*
X163780309Y-150210161D02*
X163903691Y-150134028D01*
X163764561Y-150473550D02*
X163780309Y-150210161D01*
X163758436Y-150886576D02*
X163764561Y-150473550D01*
X163759283Y-151054586D02*
X163758436Y-150886576D01*
X164004297Y-151349479D02*
X163952667Y-151410732D01*
X164015671Y-151159592D02*
X164004297Y-151349479D01*
X164013131Y-150888326D02*
X164015671Y-151159592D01*
X164011437Y-150725566D02*
X164013131Y-150888326D01*
X154122470Y-98446078D02*
X153670957Y-98682308D01*
X154573414Y-98388230D02*
X154122470Y-98446078D01*
X149037401Y-89533588D02*
X149556763Y-89724055D01*
X140930945Y-108877405D02*
X141130372Y-108410725D01*
X151480622Y-93652195D02*
X151358112Y-93613693D01*
X150581101Y-93494683D02*
X150581098Y-93494684D01*
X146467530Y-98009918D02*
X146304607Y-97779731D01*
X153808243Y-96179368D02*
X153822241Y-95557496D01*
X153815242Y-96481554D02*
X153808243Y-96179368D01*
X153891081Y-96600561D02*
X153815242Y-96481554D01*
X156450922Y-95944895D02*
X156431082Y-95801386D01*
X156450882Y-96003156D02*
X156450922Y-95944895D01*
X156431042Y-96187501D02*
X156450882Y-96003156D01*
X118545941Y-100917759D02*
X119164398Y-100461350D01*
X156747259Y-93401339D02*
X156774098Y-93513346D01*
X156622418Y-93333668D02*
X156747259Y-93401339D01*
X156562914Y-93339501D02*
X156622418Y-93333668D01*
X154122073Y-93334808D02*
X154181577Y-93303306D01*
X153966899Y-93422314D02*
X154122073Y-93334808D01*
X153913229Y-93408313D02*
X153966899Y-93422314D01*
X149052652Y-93627726D02*
X148980313Y-93639393D01*
X149151825Y-93534387D02*
X149052652Y-93627726D01*
X125124384Y-98615542D02*
X124770722Y-96859095D01*
X125460853Y-99549634D02*
X125124384Y-98615542D01*
X125958722Y-100431370D02*
X125460853Y-99549634D01*
X126659222Y-101193546D02*
X125958722Y-100431370D01*
X120750122Y-105982495D02*
X121252115Y-106357724D01*
X120750122Y-105982495D02*
X121252115Y-106357726D01*
X151240279Y-92679135D02*
X151241408Y-92393284D01*
X151249620Y-93253170D02*
X151240279Y-92679135D01*
X138887563Y-111153655D02*
X139676162Y-112438005D01*
X149403777Y-96555067D02*
X149366441Y-96619237D01*
X149390935Y-96503730D02*
X149403777Y-96555067D01*
X149338434Y-96367221D02*
X149390935Y-96503730D01*
X158938569Y-92006821D02*
X159608726Y-92001620D01*
X161074758Y-151399364D02*
X160983753Y-151423861D01*
X161136012Y-151343360D02*
X161074758Y-151399364D01*
X161169266Y-151293483D02*
X161136012Y-151343360D01*
X161175390Y-151373111D02*
X161169266Y-151293483D01*
X134442561Y-96618080D02*
X134519885Y-97564594D01*
X134179686Y-95705459D02*
X134442561Y-96618080D01*
X133743731Y-94860031D02*
X134179686Y-95705459D01*
X133147169Y-94115097D02*
X133743731Y-94860031D01*
X167121315Y-150132230D02*
X167154566Y-150197861D01*
X166982182Y-150126981D02*
X167121315Y-150132230D01*
X166753794Y-150134855D02*
X166982182Y-150126981D01*
X166716165Y-150174230D02*
X166753794Y-150134855D01*
X162800192Y-151422106D02*
X162745937Y-151412482D01*
X162860570Y-151410732D02*
X162800192Y-151422106D01*
X162912197Y-151349479D02*
X162860570Y-151410732D01*
X162923571Y-151159592D02*
X162912197Y-151349479D01*
X133688875Y-99871950D02*
X133126556Y-100578452D01*
X134083920Y-99093068D02*
X133688875Y-99871950D01*
X134316394Y-98267004D02*
X134083920Y-99093068D01*
X134391004Y-97418958D02*
X134316394Y-98267004D01*
X118658582Y-106750995D02*
X117316788Y-108860602D01*
X161389779Y-150367671D02*
X161396778Y-150449927D01*
X161351278Y-150259165D02*
X161389779Y-150367671D01*
X161257648Y-150162907D02*
X161351278Y-150259165D01*
X161097512Y-150124407D02*
X161257648Y-150162907D01*
X163432968Y-151244474D02*
X163445217Y-150643313D01*
X163433815Y-151345981D02*
X163432968Y-151244474D01*
X163531822Y-151424735D02*
X163433815Y-151345981D01*
X161770359Y-151435032D02*
X161770422Y-151435235D01*
X164525068Y-151244474D02*
X164537317Y-150643313D01*
X164525915Y-151345981D02*
X164525068Y-151244474D01*
X164623922Y-151424735D02*
X164525915Y-151345981D01*
X163531770Y-151424729D02*
X163531822Y-151424735D01*
X148991984Y-92849511D02*
X149044486Y-93019855D01*
X148924313Y-92464487D02*
X148991984Y-92849511D01*
X155725516Y-151330218D02*
X155717642Y-151375721D01*
X155716767Y-151282963D02*
X155725516Y-151330218D01*
X155669512Y-151242712D02*
X155716767Y-151282963D01*
X155585509Y-151247961D02*
X155669512Y-151242712D01*
X143823138Y-96343652D02*
X143654644Y-96071728D01*
X133742074Y-100757850D02*
X133279669Y-100839725D01*
X150480763Y-93403678D02*
X150581101Y-93494683D01*
X150438760Y-93127161D02*
X150480763Y-93403678D01*
X131427384Y-102128710D02*
X131689912Y-102114939D01*
X126594352Y-101638517D02*
X126829269Y-101767544D01*
X126247522Y-95758595D02*
X126035061Y-95522744D01*
X126247537Y-96091239D02*
X126247522Y-95758595D01*
X125686218Y-96231320D02*
X126247537Y-96091239D01*
X125887982Y-97449800D02*
X125686218Y-96231320D01*
X162667186Y-151054586D02*
X162666339Y-150886576D01*
X162685559Y-151338978D02*
X162667186Y-151054586D01*
X162745937Y-151412482D02*
X162685559Y-151338978D01*
X162800192Y-151422106D02*
X162745937Y-151412482D01*
X152397661Y-96539891D02*
X152319489Y-96629730D01*
X152418659Y-96034693D02*
X152397661Y-96539891D01*
X152394162Y-95718507D02*
X152418659Y-96034693D01*
X161634789Y-151429986D02*
X161538534Y-151391485D01*
X161770422Y-151435235D02*
X161634789Y-151429986D01*
X161300608Y-151434366D02*
X161300522Y-151434365D01*
X161371488Y-151423867D02*
X161300608Y-151434366D01*
X155378993Y-150246025D02*
X155371994Y-150542669D01*
X155378146Y-150221528D02*
X155378993Y-150246025D01*
X155322142Y-150146274D02*
X155378146Y-150221528D01*
X159608965Y-150939928D02*
X159601966Y-151345955D01*
X159602841Y-150344894D02*
X159608965Y-150939928D01*
X159621214Y-150344047D02*
X159602841Y-150344894D01*
X159669341Y-150345740D02*
X159621214Y-150344047D01*
X144602512Y-96758167D02*
X144236898Y-96617108D01*
X166381967Y-151395015D02*
X166157078Y-150999489D01*
X166444095Y-151435268D02*
X166381967Y-151395015D01*
X166474722Y-151436115D02*
X166444095Y-151435268D01*
X165546231Y-151436228D02*
X165546222Y-151436115D01*
X112110652Y-105742447D02*
X112355059Y-104994094D01*
X111889125Y-106243594D02*
X112110652Y-105742447D01*
X111711273Y-106730227D02*
X111889125Y-106243594D01*
X150170326Y-95346345D02*
X150069988Y-95311343D01*
X150198390Y-96628606D02*
X150198322Y-96628595D01*
X150296397Y-96598271D02*
X150198390Y-96628606D01*
X144958709Y-98049221D02*
X144617127Y-97794086D01*
X143548635Y-94416180D02*
X143596206Y-93544708D01*
X156437778Y-150199634D02*
X156593536Y-150944305D01*
X156367773Y-150127879D02*
X156437778Y-150199634D01*
X156310894Y-150116506D02*
X156367773Y-150127879D01*
X155329659Y-93047791D02*
X155308662Y-93552989D01*
X155305162Y-92731605D02*
X155329659Y-93047791D01*
X155200156Y-92494757D02*
X155305162Y-92731605D01*
X148589482Y-96525853D02*
X148583640Y-96266837D01*
X148653650Y-96630859D02*
X148589482Y-96525853D01*
X148738822Y-96648360D02*
X148653650Y-96630859D01*
X160972361Y-150336178D02*
X160893604Y-150513814D01*
X161091366Y-150266173D02*
X160972361Y-150336178D01*
X161174497Y-150322177D02*
X161091366Y-150266173D01*
X161201619Y-150445559D02*
X161174497Y-150322177D01*
X135875439Y-103682926D02*
X136186919Y-103049961D01*
X155125425Y-95269303D02*
X155063591Y-95349808D01*
X155124297Y-95250634D02*
X155125425Y-95269303D01*
X155047292Y-95157295D02*
X155124297Y-95250634D01*
X121896732Y-106955201D02*
X122266797Y-107684601D01*
X161870991Y-151432492D02*
X161770359Y-151435032D01*
X162018875Y-151421119D02*
X161870991Y-151432492D01*
X162060875Y-151386115D02*
X162018875Y-151421119D01*
X162071374Y-151335363D02*
X162060875Y-151386115D01*
X163759283Y-151054586D02*
X163758436Y-150886576D01*
X163777656Y-151338978D02*
X163759283Y-151054586D01*
X163838034Y-151412482D02*
X163777656Y-151338978D01*
X163892289Y-151422106D02*
X163838034Y-151412482D01*
X152852733Y-93404880D02*
X152961239Y-93346543D01*
X153221270Y-93646407D02*
X153221422Y-93646395D01*
X156173206Y-96625040D02*
X155918856Y-96502533D01*
X156347049Y-96564370D02*
X156173206Y-96625040D01*
X156442722Y-96437195D02*
X156347049Y-96564370D01*
X161200772Y-150490187D02*
X161201619Y-150445559D01*
X161164018Y-150595193D02*
X161200772Y-150490187D01*
X161159644Y-150614440D02*
X161164018Y-150595193D01*
X161185890Y-150652941D02*
X161159644Y-150614440D01*
X162666339Y-150886576D02*
X162672463Y-150473550D01*
X162667186Y-151054586D02*
X162666339Y-150886576D01*
X162685559Y-151338978D02*
X162667186Y-151054586D01*
X162745937Y-151412482D02*
X162685559Y-151338978D01*
X118354089Y-101920105D02*
X118281415Y-101562544D01*
X155585509Y-151247961D02*
X155669512Y-151242712D01*
X155445499Y-151255835D02*
X155585509Y-151247961D01*
X155366745Y-151240962D02*
X155445499Y-151255835D01*
X158513704Y-96595881D02*
X158334025Y-96637883D01*
X158698049Y-96375367D02*
X158513704Y-96595881D01*
X158721388Y-96276194D02*
X158698049Y-96375367D01*
X118374646Y-99415396D02*
X119064872Y-99937430D01*
X157769272Y-95659003D02*
X157839278Y-95984523D01*
X157624597Y-95487492D02*
X157769272Y-95659003D01*
X157400583Y-95422154D02*
X157624597Y-95487492D01*
X150446863Y-96047526D02*
X150447992Y-95955354D01*
X150491197Y-96315876D02*
X150446863Y-96047526D01*
X150639375Y-96538723D02*
X150491197Y-96315876D01*
X118567054Y-101996561D02*
X118958580Y-102205746D01*
X150018673Y-95521371D02*
X150175016Y-95409364D01*
X150003490Y-96020735D02*
X150018673Y-95521371D01*
X150029144Y-96492097D02*
X150003490Y-96020735D01*
X158647306Y-151129876D02*
X158639432Y-151346891D01*
X158653430Y-150899738D02*
X158647306Y-151129876D01*
X158664803Y-150898045D02*
X158653430Y-150899738D01*
X158776812Y-151062555D02*
X158664803Y-150898045D01*
X159743720Y-150346587D02*
X159669341Y-150345740D01*
X159810226Y-150344894D02*
X159743720Y-150346587D01*
X159860978Y-150293264D02*
X159810226Y-150344894D01*
X159867977Y-150246887D02*
X159860978Y-150293264D01*
X164914431Y-151429138D02*
X164893433Y-151426598D01*
X164952934Y-151408141D02*
X164914431Y-151429138D01*
X165228575Y-150999489D02*
X164952934Y-151408141D01*
X165453464Y-151395015D02*
X165228575Y-150999489D01*
X105927929Y-109118914D02*
X106315176Y-109447462D01*
X105589747Y-109077701D02*
X105927929Y-109118914D01*
X105135087Y-109204928D02*
X105589747Y-109077701D01*
X166712663Y-151360859D02*
X166743290Y-151307479D01*
X166719662Y-151399359D02*
X166712663Y-151360859D01*
X166748539Y-151425606D02*
X166719662Y-151399359D01*
X166861422Y-151432605D02*
X166748539Y-151425606D01*
X159077255Y-94912290D02*
X159143758Y-95010296D01*
X158967581Y-94887788D02*
X159077255Y-94912290D01*
X158819406Y-94989294D02*
X158967581Y-94887788D01*
X161748484Y-151071098D02*
X161764232Y-151253984D01*
X161746790Y-150981843D02*
X161748484Y-151071098D01*
X161755539Y-150890837D02*
X161746790Y-150981843D01*
X161800167Y-150882088D02*
X161755539Y-150890837D01*
X119556523Y-102938255D02*
X119556522Y-102938295D01*
X137250101Y-103375940D02*
X137419899Y-103111970D01*
X152894672Y-95077996D02*
X152880674Y-95188836D01*
X152874832Y-95017325D02*
X152894672Y-95077996D01*
X152711490Y-94975322D02*
X152874832Y-95017325D01*
X124785954Y-98849227D02*
X125093517Y-98984544D01*
X152974052Y-95871348D02*
X153049891Y-95656668D01*
X152955397Y-96065027D02*
X152974052Y-95871348D01*
X153017235Y-96387047D02*
X152955397Y-96065027D01*
X128199154Y-101458725D02*
X128606946Y-101467299D01*
X127971522Y-101815495D02*
X128199154Y-101458725D01*
X126204475Y-97614984D02*
X124962845Y-97919222D01*
X126525682Y-98594124D02*
X126204475Y-97614984D01*
X146212817Y-95395317D02*
X146283988Y-95397660D01*
X146111310Y-95397660D02*
X146212817Y-95395317D01*
X146150979Y-95115309D02*
X146111310Y-95397660D01*
X156419417Y-151376607D02*
X156361663Y-151145591D01*
X156534922Y-151442235D02*
X156419417Y-151376607D01*
X155399996Y-151430760D02*
X155400022Y-151430855D01*
X145331948Y-90576080D02*
X145706851Y-90096012D01*
X104526577Y-108493231D02*
X105166397Y-108364358D01*
X103776522Y-108893595D02*
X104526577Y-108493231D01*
X110280264Y-107834377D02*
X109493142Y-108386235D01*
X157302618Y-95689337D02*
X157227948Y-96018357D01*
X157413458Y-95612332D02*
X157302618Y-95689337D01*
X157531300Y-95692837D02*
X157413458Y-95612332D01*
X152104812Y-96493220D02*
X152101312Y-96301875D01*
X152265822Y-96637895D02*
X152104812Y-96493220D01*
X150935727Y-96382380D02*
X150940393Y-96382380D01*
X156994328Y-150262660D02*
X156996021Y-150402668D01*
X157121212Y-150297661D02*
X156994328Y-150262660D01*
X157186840Y-150379917D02*
X157121212Y-150297661D01*
X157205213Y-150473547D02*
X157186840Y-150379917D01*
X118499042Y-101958695D02*
X118599554Y-102194600D01*
X118902306Y-102306485D02*
X118700931Y-102184980D01*
X158447190Y-95920351D02*
X158419193Y-95873681D01*
X158532362Y-95942519D02*
X158447190Y-95920351D01*
X158626869Y-95901683D02*
X158532362Y-95942519D01*
X149916040Y-93495885D02*
X149715360Y-93635894D01*
X150052548Y-92769007D02*
X149916040Y-93495885D01*
X132560700Y-93730973D02*
X133204861Y-94310940D01*
X131786897Y-93280220D02*
X132560700Y-93730973D01*
X130888157Y-92983881D02*
X131786897Y-93280220D01*
X129869182Y-92867154D02*
X130888157Y-92983881D01*
X120385815Y-102141337D02*
X120145475Y-102009472D01*
X144957169Y-91079793D02*
X145331948Y-90576080D01*
X158401420Y-150680974D02*
X158409294Y-150221570D01*
X158409294Y-151325013D02*
X158401420Y-150680974D01*
X158530926Y-151427395D02*
X158409294Y-151325013D01*
X158574678Y-151420396D02*
X158530926Y-151427395D01*
X159461061Y-96494356D02*
X159456404Y-96238840D01*
X159634904Y-96633198D02*
X159461061Y-96494356D01*
X159709577Y-96620363D02*
X159634904Y-96633198D01*
X158846808Y-150504182D02*
X158830185Y-150393051D01*
X158820561Y-150655566D02*
X158846808Y-150504182D01*
X158758432Y-150756198D02*
X158820561Y-150655566D01*
X158665678Y-150794701D02*
X158758432Y-150756198D01*
X154347262Y-95691671D02*
X154280756Y-95715005D01*
X154400932Y-95710340D02*
X154347262Y-95691671D01*
X154449934Y-95727840D02*
X154400932Y-95710340D01*
X136859522Y-102386395D02*
X137035497Y-101667735D01*
X119164398Y-100461350D02*
X119905702Y-100306825D01*
X129423722Y-96667496D02*
X128810157Y-96821768D01*
X129830776Y-95464428D02*
X129222322Y-95704195D01*
X130134046Y-94950403D02*
X129830776Y-95464428D01*
X130105696Y-94679677D02*
X130134046Y-94950403D01*
X155770106Y-90292077D02*
X156197805Y-90081293D01*
X155235511Y-150127901D02*
X155322142Y-150146274D01*
X155113004Y-150211033D02*
X155235511Y-150127901D01*
X155105130Y-150691437D02*
X155113004Y-150211033D01*
X155136632Y-151383603D02*
X155105130Y-150691437D01*
X162811596Y-150134028D02*
X162940227Y-150189158D01*
X162688211Y-150210161D02*
X162811596Y-150134028D01*
X162672463Y-150473550D02*
X162688211Y-150210161D01*
X162666339Y-150886576D02*
X162672463Y-150473550D01*
X136186919Y-103049961D02*
X136817096Y-102452365D01*
X139777722Y-109532495D02*
X138887563Y-111153655D01*
X161748485Y-150705390D02*
X161788736Y-150725512D01*
X161743236Y-150556631D02*
X161748485Y-150705390D01*
X161747610Y-150395621D02*
X161743236Y-150556631D01*
X161764233Y-150330868D02*
X161747610Y-150395621D01*
X153033578Y-93495884D02*
X153035835Y-93460882D01*
X153037077Y-93544888D02*
X153033578Y-93495884D01*
X145498587Y-98091367D02*
X144958709Y-98049221D01*
X120180043Y-101111199D02*
X120191971Y-100897682D01*
X146308475Y-95293811D02*
X146267637Y-95270477D01*
X146377313Y-95252975D02*
X146308475Y-95293811D01*
X146401810Y-95167803D02*
X146377313Y-95252975D01*
X150168053Y-92011794D02*
X150052548Y-92769007D01*
X150137720Y-91948790D02*
X150168053Y-92011794D01*
X155626800Y-99020571D02*
X155099319Y-98813819D01*
X157251049Y-98517889D02*
X155626800Y-99020571D01*
X137839322Y-104825195D02*
X138365997Y-107199965D01*
X152383616Y-93070038D02*
X152412783Y-92825023D01*
X152511956Y-93515732D02*
X152383616Y-93070038D01*
X147008622Y-98540795D02*
X146677846Y-98357929D01*
X148834473Y-91996625D02*
X148924313Y-92464487D01*
X148758635Y-91916120D02*
X148834473Y-91996625D01*
X125216320Y-99302898D02*
X125182590Y-99493857D01*
X157415790Y-96382380D02*
X157539465Y-96308875D01*
X157369076Y-96623895D02*
X157369122Y-96623895D01*
X157588422Y-96555058D02*
X157369076Y-96623895D01*
X148892760Y-94919297D02*
X148940594Y-95026637D01*
X148813422Y-94884295D02*
X148892760Y-94919297D01*
X148778486Y-94884257D02*
X148813422Y-94884295D01*
X138171418Y-102155573D02*
X138904370Y-102458022D01*
X151866789Y-95600665D02*
X151804951Y-95717339D01*
X151968296Y-95553995D02*
X151866789Y-95600665D01*
X152069800Y-95631000D02*
X151968296Y-95553995D01*
D10*
X108563928Y-44565000D02*
X108487738Y-44526904D01*
X108373452Y-44526904D01*
X108259166Y-44565000D01*
X108182976Y-44641190D01*
X108144880Y-44717380D01*
X108106785Y-44869761D01*
X108106785Y-44984047D01*
X108144880Y-45136428D01*
X108182976Y-45212619D01*
X108259166Y-45288809D01*
X108373452Y-45326904D01*
X108449642Y-45326904D01*
X108563928Y-45288809D01*
X108602023Y-45250714D01*
X108602023Y-44984047D01*
X108449642Y-44984047D01*
X108944880Y-45326904D02*
X108944880Y-44526904D01*
X109402023Y-45326904D01*
X109402023Y-44526904D01*
X109782976Y-45326904D02*
X109782976Y-44526904D01*
X109973452Y-44526904D01*
X110087738Y-44565000D01*
X110163928Y-44641190D01*
X110202023Y-44717380D01*
X110240119Y-44869761D01*
X110240119Y-44984047D01*
X110202023Y-45136428D01*
X110163928Y-45212619D01*
X110087738Y-45288809D01*
X109973452Y-45326904D01*
X109782976Y-45326904D01*
X109059166Y-45876904D02*
X109554404Y-45876904D01*
X109287738Y-46181666D01*
X109402023Y-46181666D01*
X109478214Y-46219761D01*
X109516309Y-46257857D01*
X109554404Y-46334047D01*
X109554404Y-46524523D01*
X109516309Y-46600714D01*
X109478214Y-46638809D01*
X109402023Y-46676904D01*
X109173452Y-46676904D01*
X109097261Y-46638809D01*
X109059166Y-46600714D01*
X109782976Y-45876904D02*
X110049642Y-46676904D01*
X110316309Y-45876904D01*
X108297261Y-47988809D02*
X108411547Y-48026904D01*
X108602023Y-48026904D01*
X108678214Y-47988809D01*
X108716309Y-47950714D01*
X108754404Y-47874523D01*
X108754404Y-47798333D01*
X108716309Y-47722142D01*
X108678214Y-47684047D01*
X108602023Y-47645952D01*
X108449642Y-47607857D01*
X108373452Y-47569761D01*
X108335357Y-47531666D01*
X108297261Y-47455476D01*
X108297261Y-47379285D01*
X108335357Y-47303095D01*
X108373452Y-47265000D01*
X108449642Y-47226904D01*
X108640119Y-47226904D01*
X108754404Y-47265000D01*
X109097261Y-48026904D02*
X109097261Y-47226904D01*
X109287738Y-47226904D01*
X109402023Y-47265000D01*
X109478214Y-47341190D01*
X109516309Y-47417380D01*
X109554404Y-47569761D01*
X109554404Y-47684047D01*
X109516309Y-47836428D01*
X109478214Y-47912619D01*
X109402023Y-47988809D01*
X109287738Y-48026904D01*
X109097261Y-48026904D01*
X109859166Y-47798333D02*
X110240119Y-47798333D01*
X109782976Y-48026904D02*
X110049642Y-47226904D01*
X110316309Y-48026904D01*
X108335357Y-49338809D02*
X108449642Y-49376904D01*
X108640119Y-49376904D01*
X108716309Y-49338809D01*
X108754404Y-49300714D01*
X108792500Y-49224523D01*
X108792500Y-49148333D01*
X108754404Y-49072142D01*
X108716309Y-49034047D01*
X108640119Y-48995952D01*
X108487738Y-48957857D01*
X108411547Y-48919761D01*
X108373452Y-48881666D01*
X108335357Y-48805476D01*
X108335357Y-48729285D01*
X108373452Y-48653095D01*
X108411547Y-48615000D01*
X108487738Y-48576904D01*
X108678214Y-48576904D01*
X108792500Y-48615000D01*
X109592500Y-49300714D02*
X109554404Y-49338809D01*
X109440119Y-49376904D01*
X109363928Y-49376904D01*
X109249642Y-49338809D01*
X109173452Y-49262619D01*
X109135357Y-49186428D01*
X109097261Y-49034047D01*
X109097261Y-48919761D01*
X109135357Y-48767380D01*
X109173452Y-48691190D01*
X109249642Y-48615000D01*
X109363928Y-48576904D01*
X109440119Y-48576904D01*
X109554404Y-48615000D01*
X109592500Y-48653095D01*
X110316309Y-49376904D02*
X109935357Y-49376904D01*
X109935357Y-48576904D01*
X161903928Y-44565000D02*
X161827738Y-44526904D01*
X161713452Y-44526904D01*
X161599166Y-44565000D01*
X161522976Y-44641190D01*
X161484880Y-44717380D01*
X161446785Y-44869761D01*
X161446785Y-44984047D01*
X161484880Y-45136428D01*
X161522976Y-45212619D01*
X161599166Y-45288809D01*
X161713452Y-45326904D01*
X161789642Y-45326904D01*
X161903928Y-45288809D01*
X161942023Y-45250714D01*
X161942023Y-44984047D01*
X161789642Y-44984047D01*
X162284880Y-45326904D02*
X162284880Y-44526904D01*
X162742023Y-45326904D01*
X162742023Y-44526904D01*
X163122976Y-45326904D02*
X163122976Y-44526904D01*
X163313452Y-44526904D01*
X163427738Y-44565000D01*
X163503928Y-44641190D01*
X163542023Y-44717380D01*
X163580119Y-44869761D01*
X163580119Y-44984047D01*
X163542023Y-45136428D01*
X163503928Y-45212619D01*
X163427738Y-45288809D01*
X163313452Y-45326904D01*
X163122976Y-45326904D01*
X162399166Y-45876904D02*
X162894404Y-45876904D01*
X162627738Y-46181666D01*
X162742023Y-46181666D01*
X162818214Y-46219761D01*
X162856309Y-46257857D01*
X162894404Y-46334047D01*
X162894404Y-46524523D01*
X162856309Y-46600714D01*
X162818214Y-46638809D01*
X162742023Y-46676904D01*
X162513452Y-46676904D01*
X162437261Y-46638809D01*
X162399166Y-46600714D01*
X163122976Y-45876904D02*
X163389642Y-46676904D01*
X163656309Y-45876904D01*
X161637261Y-47988809D02*
X161751547Y-48026904D01*
X161942023Y-48026904D01*
X162018214Y-47988809D01*
X162056309Y-47950714D01*
X162094404Y-47874523D01*
X162094404Y-47798333D01*
X162056309Y-47722142D01*
X162018214Y-47684047D01*
X161942023Y-47645952D01*
X161789642Y-47607857D01*
X161713452Y-47569761D01*
X161675357Y-47531666D01*
X161637261Y-47455476D01*
X161637261Y-47379285D01*
X161675357Y-47303095D01*
X161713452Y-47265000D01*
X161789642Y-47226904D01*
X161980119Y-47226904D01*
X162094404Y-47265000D01*
X162437261Y-48026904D02*
X162437261Y-47226904D01*
X162627738Y-47226904D01*
X162742023Y-47265000D01*
X162818214Y-47341190D01*
X162856309Y-47417380D01*
X162894404Y-47569761D01*
X162894404Y-47684047D01*
X162856309Y-47836428D01*
X162818214Y-47912619D01*
X162742023Y-47988809D01*
X162627738Y-48026904D01*
X162437261Y-48026904D01*
X163199166Y-47798333D02*
X163580119Y-47798333D01*
X163122976Y-48026904D02*
X163389642Y-47226904D01*
X163656309Y-48026904D01*
X161675357Y-49338809D02*
X161789642Y-49376904D01*
X161980119Y-49376904D01*
X162056309Y-49338809D01*
X162094404Y-49300714D01*
X162132500Y-49224523D01*
X162132500Y-49148333D01*
X162094404Y-49072142D01*
X162056309Y-49034047D01*
X161980119Y-48995952D01*
X161827738Y-48957857D01*
X161751547Y-48919761D01*
X161713452Y-48881666D01*
X161675357Y-48805476D01*
X161675357Y-48729285D01*
X161713452Y-48653095D01*
X161751547Y-48615000D01*
X161827738Y-48576904D01*
X162018214Y-48576904D01*
X162132500Y-48615000D01*
X162932500Y-49300714D02*
X162894404Y-49338809D01*
X162780119Y-49376904D01*
X162703928Y-49376904D01*
X162589642Y-49338809D01*
X162513452Y-49262619D01*
X162475357Y-49186428D01*
X162437261Y-49034047D01*
X162437261Y-48919761D01*
X162475357Y-48767380D01*
X162513452Y-48691190D01*
X162589642Y-48615000D01*
X162703928Y-48576904D01*
X162780119Y-48576904D01*
X162894404Y-48615000D01*
X162932500Y-48653095D01*
X163656309Y-49376904D02*
X163275357Y-49376904D01*
X163275357Y-48576904D01*
X158187023Y-44565000D02*
X158110833Y-44526904D01*
X157996547Y-44526904D01*
X157882261Y-44565000D01*
X157806071Y-44641190D01*
X157767976Y-44717380D01*
X157729880Y-44869761D01*
X157729880Y-44984047D01*
X157767976Y-45136428D01*
X157806071Y-45212619D01*
X157882261Y-45288809D01*
X157996547Y-45326904D01*
X158072738Y-45326904D01*
X158187023Y-45288809D01*
X158225119Y-45250714D01*
X158225119Y-44984047D01*
X158072738Y-44984047D01*
X158567976Y-45326904D02*
X158567976Y-44526904D01*
X159025119Y-45326904D01*
X159025119Y-44526904D01*
X159406071Y-45326904D02*
X159406071Y-44526904D01*
X159596547Y-44526904D01*
X159710833Y-44565000D01*
X159787023Y-44641190D01*
X159825119Y-44717380D01*
X159863214Y-44869761D01*
X159863214Y-44984047D01*
X159825119Y-45136428D01*
X159787023Y-45212619D01*
X159710833Y-45288809D01*
X159596547Y-45326904D01*
X159406071Y-45326904D01*
X158187023Y-45915000D02*
X158110833Y-45876904D01*
X157996547Y-45876904D01*
X157882261Y-45915000D01*
X157806071Y-45991190D01*
X157767976Y-46067380D01*
X157729880Y-46219761D01*
X157729880Y-46334047D01*
X157767976Y-46486428D01*
X157806071Y-46562619D01*
X157882261Y-46638809D01*
X157996547Y-46676904D01*
X158072738Y-46676904D01*
X158187023Y-46638809D01*
X158225119Y-46600714D01*
X158225119Y-46334047D01*
X158072738Y-46334047D01*
X158567976Y-46676904D02*
X158567976Y-45876904D01*
X159025119Y-46676904D01*
X159025119Y-45876904D01*
X159406071Y-46676904D02*
X159406071Y-45876904D01*
X159596547Y-45876904D01*
X159710833Y-45915000D01*
X159787023Y-45991190D01*
X159825119Y-46067380D01*
X159863214Y-46219761D01*
X159863214Y-46334047D01*
X159825119Y-46486428D01*
X159787023Y-46562619D01*
X159710833Y-46638809D01*
X159596547Y-46676904D01*
X159406071Y-46676904D01*
X158148928Y-47226904D02*
X157767976Y-47226904D01*
X157729880Y-47607857D01*
X157767976Y-47569761D01*
X157844166Y-47531666D01*
X158034642Y-47531666D01*
X158110833Y-47569761D01*
X158148928Y-47607857D01*
X158187023Y-47684047D01*
X158187023Y-47874523D01*
X158148928Y-47950714D01*
X158110833Y-47988809D01*
X158034642Y-48026904D01*
X157844166Y-48026904D01*
X157767976Y-47988809D01*
X157729880Y-47950714D01*
X158415595Y-47226904D02*
X158682261Y-48026904D01*
X158948928Y-47226904D01*
X157767976Y-49376904D02*
X157767976Y-48576904D01*
X157958452Y-48576904D01*
X158072738Y-48615000D01*
X158148928Y-48691190D01*
X158187023Y-48767380D01*
X158225119Y-48919761D01*
X158225119Y-49034047D01*
X158187023Y-49186428D01*
X158148928Y-49262619D01*
X158072738Y-49338809D01*
X157958452Y-49376904D01*
X157767976Y-49376904D01*
X158529880Y-49148333D02*
X158910833Y-49148333D01*
X158453690Y-49376904D02*
X158720357Y-48576904D01*
X158987023Y-49376904D01*
X159710833Y-49300714D02*
X159672738Y-49338809D01*
X159558452Y-49376904D01*
X159482261Y-49376904D01*
X159367976Y-49338809D01*
X159291785Y-49262619D01*
X159253690Y-49186428D01*
X159215595Y-49034047D01*
X159215595Y-48919761D01*
X159253690Y-48767380D01*
X159291785Y-48691190D01*
X159367976Y-48615000D01*
X159482261Y-48576904D01*
X159558452Y-48576904D01*
X159672738Y-48615000D01*
X159710833Y-48653095D01*
X160015595Y-48653095D02*
X160053690Y-48615000D01*
X160129880Y-48576904D01*
X160320357Y-48576904D01*
X160396547Y-48615000D01*
X160434642Y-48653095D01*
X160472738Y-48729285D01*
X160472738Y-48805476D01*
X160434642Y-48919761D01*
X159977500Y-49376904D01*
X160472738Y-49376904D01*
X104847023Y-44565000D02*
X104770833Y-44526904D01*
X104656547Y-44526904D01*
X104542261Y-44565000D01*
X104466071Y-44641190D01*
X104427976Y-44717380D01*
X104389880Y-44869761D01*
X104389880Y-44984047D01*
X104427976Y-45136428D01*
X104466071Y-45212619D01*
X104542261Y-45288809D01*
X104656547Y-45326904D01*
X104732738Y-45326904D01*
X104847023Y-45288809D01*
X104885119Y-45250714D01*
X104885119Y-44984047D01*
X104732738Y-44984047D01*
X105227976Y-45326904D02*
X105227976Y-44526904D01*
X105685119Y-45326904D01*
X105685119Y-44526904D01*
X106066071Y-45326904D02*
X106066071Y-44526904D01*
X106256547Y-44526904D01*
X106370833Y-44565000D01*
X106447023Y-44641190D01*
X106485119Y-44717380D01*
X106523214Y-44869761D01*
X106523214Y-44984047D01*
X106485119Y-45136428D01*
X106447023Y-45212619D01*
X106370833Y-45288809D01*
X106256547Y-45326904D01*
X106066071Y-45326904D01*
X104847023Y-45915000D02*
X104770833Y-45876904D01*
X104656547Y-45876904D01*
X104542261Y-45915000D01*
X104466071Y-45991190D01*
X104427976Y-46067380D01*
X104389880Y-46219761D01*
X104389880Y-46334047D01*
X104427976Y-46486428D01*
X104466071Y-46562619D01*
X104542261Y-46638809D01*
X104656547Y-46676904D01*
X104732738Y-46676904D01*
X104847023Y-46638809D01*
X104885119Y-46600714D01*
X104885119Y-46334047D01*
X104732738Y-46334047D01*
X105227976Y-46676904D02*
X105227976Y-45876904D01*
X105685119Y-46676904D01*
X105685119Y-45876904D01*
X106066071Y-46676904D02*
X106066071Y-45876904D01*
X106256547Y-45876904D01*
X106370833Y-45915000D01*
X106447023Y-45991190D01*
X106485119Y-46067380D01*
X106523214Y-46219761D01*
X106523214Y-46334047D01*
X106485119Y-46486428D01*
X106447023Y-46562619D01*
X106370833Y-46638809D01*
X106256547Y-46676904D01*
X106066071Y-46676904D01*
X104808928Y-47226904D02*
X104427976Y-47226904D01*
X104389880Y-47607857D01*
X104427976Y-47569761D01*
X104504166Y-47531666D01*
X104694642Y-47531666D01*
X104770833Y-47569761D01*
X104808928Y-47607857D01*
X104847023Y-47684047D01*
X104847023Y-47874523D01*
X104808928Y-47950714D01*
X104770833Y-47988809D01*
X104694642Y-48026904D01*
X104504166Y-48026904D01*
X104427976Y-47988809D01*
X104389880Y-47950714D01*
X105075595Y-47226904D02*
X105342261Y-48026904D01*
X105608928Y-47226904D01*
X104427976Y-49376904D02*
X104427976Y-48576904D01*
X104618452Y-48576904D01*
X104732738Y-48615000D01*
X104808928Y-48691190D01*
X104847023Y-48767380D01*
X104885119Y-48919761D01*
X104885119Y-49034047D01*
X104847023Y-49186428D01*
X104808928Y-49262619D01*
X104732738Y-49338809D01*
X104618452Y-49376904D01*
X104427976Y-49376904D01*
X105189880Y-49148333D02*
X105570833Y-49148333D01*
X105113690Y-49376904D02*
X105380357Y-48576904D01*
X105647023Y-49376904D01*
X106370833Y-49300714D02*
X106332738Y-49338809D01*
X106218452Y-49376904D01*
X106142261Y-49376904D01*
X106027976Y-49338809D01*
X105951785Y-49262619D01*
X105913690Y-49186428D01*
X105875595Y-49034047D01*
X105875595Y-48919761D01*
X105913690Y-48767380D01*
X105951785Y-48691190D01*
X106027976Y-48615000D01*
X106142261Y-48576904D01*
X106218452Y-48576904D01*
X106332738Y-48615000D01*
X106370833Y-48653095D01*
X107132738Y-49376904D02*
X106675595Y-49376904D01*
X106904166Y-49376904D02*
X106904166Y-48576904D01*
X106827976Y-48691190D01*
X106751785Y-48767380D01*
X106675595Y-48805476D01*
X149733142Y-146518285D02*
X152018857Y-146518285D01*
X140716000Y-146105428D02*
X140858857Y-146248285D01*
X140716000Y-146391142D01*
X140573142Y-146248285D01*
X140716000Y-146105428D01*
X140716000Y-146391142D01*
X104482952Y-150522514D02*
X104482952Y-151332038D01*
X104435333Y-151427276D01*
X104387714Y-151474895D01*
X104292476Y-151522514D01*
X104149619Y-151522514D01*
X104054380Y-151474895D01*
X104482952Y-151141561D02*
X104387714Y-151189180D01*
X104197238Y-151189180D01*
X104102000Y-151141561D01*
X104054380Y-151093942D01*
X104006761Y-150998704D01*
X104006761Y-150712990D01*
X104054380Y-150617752D01*
X104102000Y-150570133D01*
X104197238Y-150522514D01*
X104387714Y-150522514D01*
X104482952Y-150570133D01*
X104959142Y-151189180D02*
X104959142Y-150522514D01*
X104959142Y-150189180D02*
X104911523Y-150236800D01*
X104959142Y-150284419D01*
X105006761Y-150236800D01*
X104959142Y-150189180D01*
X104959142Y-150284419D01*
X105292476Y-150522514D02*
X105673428Y-150522514D01*
X105435333Y-150189180D02*
X105435333Y-151046323D01*
X105482952Y-151141561D01*
X105578190Y-151189180D01*
X105673428Y-151189180D01*
X106006761Y-151189180D02*
X106006761Y-150189180D01*
X106435333Y-151189180D02*
X106435333Y-150665371D01*
X106387714Y-150570133D01*
X106292476Y-150522514D01*
X106149619Y-150522514D01*
X106054380Y-150570133D01*
X106006761Y-150617752D01*
X107340095Y-150522514D02*
X107340095Y-151189180D01*
X106911523Y-150522514D02*
X106911523Y-151046323D01*
X106959142Y-151141561D01*
X107054380Y-151189180D01*
X107197238Y-151189180D01*
X107292476Y-151141561D01*
X107340095Y-151093942D01*
X107816285Y-151189180D02*
X107816285Y-150189180D01*
X107816285Y-150570133D02*
X107911523Y-150522514D01*
X108102000Y-150522514D01*
X108197238Y-150570133D01*
X108244857Y-150617752D01*
X108292476Y-150712990D01*
X108292476Y-150998704D01*
X108244857Y-151093942D01*
X108197238Y-151141561D01*
X108102000Y-151189180D01*
X107911523Y-151189180D01*
X107816285Y-151141561D01*
X108721047Y-151093942D02*
X108768666Y-151141561D01*
X108721047Y-151189180D01*
X108673428Y-151141561D01*
X108721047Y-151093942D01*
X108721047Y-151189180D01*
X109625809Y-151141561D02*
X109530571Y-151189180D01*
X109340095Y-151189180D01*
X109244857Y-151141561D01*
X109197238Y-151093942D01*
X109149619Y-150998704D01*
X109149619Y-150712990D01*
X109197238Y-150617752D01*
X109244857Y-150570133D01*
X109340095Y-150522514D01*
X109530571Y-150522514D01*
X109625809Y-150570133D01*
X110197238Y-151189180D02*
X110102000Y-151141561D01*
X110054380Y-151093942D01*
X110006761Y-150998704D01*
X110006761Y-150712990D01*
X110054380Y-150617752D01*
X110102000Y-150570133D01*
X110197238Y-150522514D01*
X110340095Y-150522514D01*
X110435333Y-150570133D01*
X110482952Y-150617752D01*
X110530571Y-150712990D01*
X110530571Y-150998704D01*
X110482952Y-151093942D01*
X110435333Y-151141561D01*
X110340095Y-151189180D01*
X110197238Y-151189180D01*
X110959142Y-151189180D02*
X110959142Y-150522514D01*
X110959142Y-150617752D02*
X111006761Y-150570133D01*
X111102000Y-150522514D01*
X111244857Y-150522514D01*
X111340095Y-150570133D01*
X111387714Y-150665371D01*
X111387714Y-151189180D01*
X111387714Y-150665371D02*
X111435333Y-150570133D01*
X111530571Y-150522514D01*
X111673428Y-150522514D01*
X111768666Y-150570133D01*
X111816285Y-150665371D01*
X111816285Y-151189180D01*
X113006761Y-150141561D02*
X112149619Y-151427276D01*
X113768666Y-151189180D02*
X113768666Y-150189180D01*
X113768666Y-151141561D02*
X113673428Y-151189180D01*
X113482952Y-151189180D01*
X113387714Y-151141561D01*
X113340095Y-151093942D01*
X113292476Y-150998704D01*
X113292476Y-150712990D01*
X113340095Y-150617752D01*
X113387714Y-150570133D01*
X113482952Y-150522514D01*
X113673428Y-150522514D01*
X113768666Y-150570133D01*
X114673428Y-151189180D02*
X114673428Y-150665371D01*
X114625809Y-150570133D01*
X114530571Y-150522514D01*
X114340095Y-150522514D01*
X114244857Y-150570133D01*
X114673428Y-151141561D02*
X114578190Y-151189180D01*
X114340095Y-151189180D01*
X114244857Y-151141561D01*
X114197238Y-151046323D01*
X114197238Y-150951085D01*
X114244857Y-150855847D01*
X114340095Y-150808228D01*
X114578190Y-150808228D01*
X114673428Y-150760609D01*
X115102000Y-151141561D02*
X115197238Y-151189180D01*
X115387714Y-151189180D01*
X115482952Y-151141561D01*
X115530571Y-151046323D01*
X115530571Y-150998704D01*
X115482952Y-150903466D01*
X115387714Y-150855847D01*
X115244857Y-150855847D01*
X115149619Y-150808228D01*
X115102000Y-150712990D01*
X115102000Y-150665371D01*
X115149619Y-150570133D01*
X115244857Y-150522514D01*
X115387714Y-150522514D01*
X115482952Y-150570133D01*
X115959142Y-150808228D02*
X116721047Y-150808228D01*
X117340095Y-151189180D02*
X117244857Y-151141561D01*
X117197238Y-151046323D01*
X117197238Y-150189180D01*
X118149619Y-151189180D02*
X118149619Y-150665371D01*
X118102000Y-150570133D01*
X118006761Y-150522514D01*
X117816285Y-150522514D01*
X117721047Y-150570133D01*
X118149619Y-151141561D02*
X118054380Y-151189180D01*
X117816285Y-151189180D01*
X117721047Y-151141561D01*
X117673428Y-151046323D01*
X117673428Y-150951085D01*
X117721047Y-150855847D01*
X117816285Y-150808228D01*
X118054380Y-150808228D01*
X118149619Y-150760609D01*
X118625809Y-151189180D02*
X118625809Y-150189180D01*
X118625809Y-150570133D02*
X118721047Y-150522514D01*
X118911523Y-150522514D01*
X119006761Y-150570133D01*
X119054380Y-150617752D01*
X119102000Y-150712990D01*
X119102000Y-150998704D01*
X119054380Y-151093942D01*
X119006761Y-151141561D01*
X118911523Y-151189180D01*
X118721047Y-151189180D01*
X118625809Y-151141561D01*
X119673428Y-151189180D02*
X119578190Y-151141561D01*
X119530571Y-151093942D01*
X119482952Y-150998704D01*
X119482952Y-150712990D01*
X119530571Y-150617752D01*
X119578190Y-150570133D01*
X119673428Y-150522514D01*
X119816285Y-150522514D01*
X119911523Y-150570133D01*
X119959142Y-150617752D01*
X120006761Y-150712990D01*
X120006761Y-150998704D01*
X119959142Y-151093942D01*
X119911523Y-151141561D01*
X119816285Y-151189180D01*
X119673428Y-151189180D01*
X120435333Y-151189180D02*
X120435333Y-150522514D01*
X120435333Y-150712990D02*
X120482952Y-150617752D01*
X120530571Y-150570133D01*
X120625809Y-150522514D01*
X120721047Y-150522514D01*
X121768666Y-150141561D02*
X120911523Y-151427276D01*
X122102000Y-151189180D02*
X122102000Y-150189180D01*
X122102000Y-150570133D02*
X122197238Y-150522514D01*
X122387714Y-150522514D01*
X122482952Y-150570133D01*
X122530571Y-150617752D01*
X122578190Y-150712990D01*
X122578190Y-150998704D01*
X122530571Y-151093942D01*
X122482952Y-151141561D01*
X122387714Y-151189180D01*
X122197238Y-151189180D01*
X122102000Y-151141561D01*
X123435333Y-151189180D02*
X123435333Y-150665371D01*
X123387714Y-150570133D01*
X123292476Y-150522514D01*
X123102000Y-150522514D01*
X123006761Y-150570133D01*
X123435333Y-151141561D02*
X123340095Y-151189180D01*
X123102000Y-151189180D01*
X123006761Y-151141561D01*
X122959142Y-151046323D01*
X122959142Y-150951085D01*
X123006761Y-150855847D01*
X123102000Y-150808228D01*
X123340095Y-150808228D01*
X123435333Y-150760609D01*
X124340095Y-151189180D02*
X124340095Y-150189180D01*
X124340095Y-151141561D02*
X124244857Y-151189180D01*
X124054380Y-151189180D01*
X123959142Y-151141561D01*
X123911523Y-151093942D01*
X123863904Y-150998704D01*
X123863904Y-150712990D01*
X123911523Y-150617752D01*
X123959142Y-150570133D01*
X124054380Y-150522514D01*
X124244857Y-150522514D01*
X124340095Y-150570133D01*
X125244857Y-150522514D02*
X125244857Y-151332038D01*
X125197238Y-151427276D01*
X125149619Y-151474895D01*
X125054380Y-151522514D01*
X124911523Y-151522514D01*
X124816285Y-151474895D01*
X125244857Y-151141561D02*
X125149619Y-151189180D01*
X124959142Y-151189180D01*
X124863904Y-151141561D01*
X124816285Y-151093942D01*
X124768666Y-150998704D01*
X124768666Y-150712990D01*
X124816285Y-150617752D01*
X124863904Y-150570133D01*
X124959142Y-150522514D01*
X125149619Y-150522514D01*
X125244857Y-150570133D01*
X126102000Y-151141561D02*
X126006761Y-151189180D01*
X125816285Y-151189180D01*
X125721047Y-151141561D01*
X125673428Y-151046323D01*
X125673428Y-150665371D01*
X125721047Y-150570133D01*
X125816285Y-150522514D01*
X126006761Y-150522514D01*
X126102000Y-150570133D01*
X126149619Y-150665371D01*
X126149619Y-150760609D01*
X125673428Y-150855847D01*
X126578190Y-150808228D02*
X127340095Y-150808228D01*
X127768666Y-150284419D02*
X127816285Y-150236800D01*
X127911523Y-150189180D01*
X128149619Y-150189180D01*
X128244857Y-150236800D01*
X128292476Y-150284419D01*
X128340095Y-150379657D01*
X128340095Y-150474895D01*
X128292476Y-150617752D01*
X127721047Y-151189180D01*
X128340095Y-151189180D01*
X128959142Y-150189180D02*
X129054380Y-150189180D01*
X129149619Y-150236800D01*
X129197238Y-150284419D01*
X129244857Y-150379657D01*
X129292476Y-150570133D01*
X129292476Y-150808228D01*
X129244857Y-150998704D01*
X129197238Y-151093942D01*
X129149619Y-151141561D01*
X129054380Y-151189180D01*
X128959142Y-151189180D01*
X128863904Y-151141561D01*
X128816285Y-151093942D01*
X128768666Y-150998704D01*
X128721047Y-150808228D01*
X128721047Y-150570133D01*
X128768666Y-150379657D01*
X128816285Y-150284419D01*
X128863904Y-150236800D01*
X128959142Y-150189180D01*
X129673428Y-150284419D02*
X129721047Y-150236800D01*
X129816285Y-150189180D01*
X130054380Y-150189180D01*
X130149619Y-150236800D01*
X130197238Y-150284419D01*
X130244857Y-150379657D01*
X130244857Y-150474895D01*
X130197238Y-150617752D01*
X129625809Y-151189180D01*
X130244857Y-151189180D01*
X131197238Y-151189180D02*
X130625809Y-151189180D01*
X130911523Y-151189180D02*
X130911523Y-150189180D01*
X130816285Y-150332038D01*
X130721047Y-150427276D01*
X130625809Y-150474895D01*
X116173428Y-152839180D02*
X115840095Y-152362990D01*
X115602000Y-152839180D02*
X115602000Y-151839180D01*
X115982952Y-151839180D01*
X116078190Y-151886800D01*
X116125809Y-151934419D01*
X116173428Y-152029657D01*
X116173428Y-152172514D01*
X116125809Y-152267752D01*
X116078190Y-152315371D01*
X115982952Y-152362990D01*
X115602000Y-152362990D01*
X116602000Y-152315371D02*
X116935333Y-152315371D01*
X117078190Y-152839180D02*
X116602000Y-152839180D01*
X116602000Y-151839180D01*
X117078190Y-151839180D01*
X117363904Y-151839180D02*
X117697238Y-152839180D01*
X118030571Y-151839180D01*
X119649619Y-152839180D02*
X119078190Y-152839180D01*
X119363904Y-152839180D02*
X119363904Y-151839180D01*
X119268666Y-151982038D01*
X119173428Y-152077276D01*
X119078190Y-152124895D01*
X130596190Y-137596571D02*
X130929523Y-137596571D01*
X131072380Y-138120380D02*
X130596190Y-138120380D01*
X130596190Y-137120380D01*
X131072380Y-137120380D01*
X131453333Y-138072761D02*
X131596190Y-138120380D01*
X131834285Y-138120380D01*
X131929523Y-138072761D01*
X131977142Y-138025142D01*
X132024761Y-137929904D01*
X132024761Y-137834666D01*
X131977142Y-137739428D01*
X131929523Y-137691809D01*
X131834285Y-137644190D01*
X131643809Y-137596571D01*
X131548571Y-137548952D01*
X131500952Y-137501333D01*
X131453333Y-137406095D01*
X131453333Y-137310857D01*
X131500952Y-137215619D01*
X131548571Y-137168000D01*
X131643809Y-137120380D01*
X131881904Y-137120380D01*
X132024761Y-137168000D01*
X132453333Y-138120380D02*
X132453333Y-137120380D01*
X132834285Y-137120380D01*
X132929523Y-137168000D01*
X132977142Y-137215619D01*
X133024761Y-137310857D01*
X133024761Y-137453714D01*
X132977142Y-137548952D01*
X132929523Y-137596571D01*
X132834285Y-137644190D01*
X132453333Y-137644190D01*
X134548571Y-137596571D02*
X134691428Y-137644190D01*
X134739047Y-137691809D01*
X134786666Y-137787047D01*
X134786666Y-137929904D01*
X134739047Y-138025142D01*
X134691428Y-138072761D01*
X134596190Y-138120380D01*
X134215238Y-138120380D01*
X134215238Y-137120380D01*
X134548571Y-137120380D01*
X134643809Y-137168000D01*
X134691428Y-137215619D01*
X134739047Y-137310857D01*
X134739047Y-137406095D01*
X134691428Y-137501333D01*
X134643809Y-137548952D01*
X134548571Y-137596571D01*
X134215238Y-137596571D01*
X135405714Y-137120380D02*
X135596190Y-137120380D01*
X135691428Y-137168000D01*
X135786666Y-137263238D01*
X135834285Y-137453714D01*
X135834285Y-137787047D01*
X135786666Y-137977523D01*
X135691428Y-138072761D01*
X135596190Y-138120380D01*
X135405714Y-138120380D01*
X135310476Y-138072761D01*
X135215238Y-137977523D01*
X135167619Y-137787047D01*
X135167619Y-137453714D01*
X135215238Y-137263238D01*
X135310476Y-137168000D01*
X135405714Y-137120380D01*
X136215238Y-137834666D02*
X136691428Y-137834666D01*
X136120000Y-138120380D02*
X136453333Y-137120380D01*
X136786666Y-138120380D01*
X137691428Y-138120380D02*
X137358095Y-137644190D01*
X137120000Y-138120380D02*
X137120000Y-137120380D01*
X137500952Y-137120380D01*
X137596190Y-137168000D01*
X137643809Y-137215619D01*
X137691428Y-137310857D01*
X137691428Y-137453714D01*
X137643809Y-137548952D01*
X137596190Y-137596571D01*
X137500952Y-137644190D01*
X137120000Y-137644190D01*
X138120000Y-138120380D02*
X138120000Y-137120380D01*
X138358095Y-137120380D01*
X138500952Y-137168000D01*
X138596190Y-137263238D01*
X138643809Y-137358476D01*
X138691428Y-137548952D01*
X138691428Y-137691809D01*
X138643809Y-137882285D01*
X138596190Y-137977523D01*
X138500952Y-138072761D01*
X138358095Y-138120380D01*
X138120000Y-138120380D01*
X149193904Y-72032761D02*
X149336761Y-72080380D01*
X149574857Y-72080380D01*
X149670095Y-72032761D01*
X149717714Y-71985142D01*
X149765333Y-71889904D01*
X149765333Y-71794666D01*
X149717714Y-71699428D01*
X149670095Y-71651809D01*
X149574857Y-71604190D01*
X149384380Y-71556571D01*
X149289142Y-71508952D01*
X149241523Y-71461333D01*
X149193904Y-71366095D01*
X149193904Y-71270857D01*
X149241523Y-71175619D01*
X149289142Y-71128000D01*
X149384380Y-71080380D01*
X149622476Y-71080380D01*
X149765333Y-71128000D01*
X150193904Y-72080380D02*
X150193904Y-71080380D01*
X150574857Y-71080380D01*
X150670095Y-71128000D01*
X150717714Y-71175619D01*
X150765333Y-71270857D01*
X150765333Y-71413714D01*
X150717714Y-71508952D01*
X150670095Y-71556571D01*
X150574857Y-71604190D01*
X150193904Y-71604190D01*
X151193904Y-72080380D02*
X151193904Y-71080380D01*
X152432000Y-72080380D02*
X152432000Y-71080380D01*
X152670095Y-71080380D01*
X152812952Y-71128000D01*
X152908190Y-71223238D01*
X152955809Y-71318476D01*
X153003428Y-71508952D01*
X153003428Y-71651809D01*
X152955809Y-71842285D01*
X152908190Y-71937523D01*
X152812952Y-72032761D01*
X152670095Y-72080380D01*
X152432000Y-72080380D01*
X153432000Y-72080380D02*
X153432000Y-71080380D01*
X153860571Y-72032761D02*
X154003428Y-72080380D01*
X154241523Y-72080380D01*
X154336761Y-72032761D01*
X154384380Y-71985142D01*
X154432000Y-71889904D01*
X154432000Y-71794666D01*
X154384380Y-71699428D01*
X154336761Y-71651809D01*
X154241523Y-71604190D01*
X154051047Y-71556571D01*
X153955809Y-71508952D01*
X153908190Y-71461333D01*
X153860571Y-71366095D01*
X153860571Y-71270857D01*
X153908190Y-71175619D01*
X153955809Y-71128000D01*
X154051047Y-71080380D01*
X154289142Y-71080380D01*
X154432000Y-71128000D01*
X154860571Y-72080380D02*
X154860571Y-71080380D01*
X155241523Y-71080380D01*
X155336761Y-71128000D01*
X155384380Y-71175619D01*
X155432000Y-71270857D01*
X155432000Y-71413714D01*
X155384380Y-71508952D01*
X155336761Y-71556571D01*
X155241523Y-71604190D01*
X154860571Y-71604190D01*
X156336761Y-72080380D02*
X155860571Y-72080380D01*
X155860571Y-71080380D01*
X156622476Y-71794666D02*
X157098666Y-71794666D01*
X156527238Y-72080380D02*
X156860571Y-71080380D01*
X157193904Y-72080380D01*
X157717714Y-71604190D02*
X157717714Y-72080380D01*
X157384380Y-71080380D02*
X157717714Y-71604190D01*
X158051047Y-71080380D01*
X159098666Y-71175619D02*
X159146285Y-71128000D01*
X159241523Y-71080380D01*
X159479619Y-71080380D01*
X159574857Y-71128000D01*
X159622476Y-71175619D01*
X159670095Y-71270857D01*
X159670095Y-71366095D01*
X159622476Y-71508952D01*
X159051047Y-72080380D01*
X159670095Y-72080380D01*
X111093904Y-72032761D02*
X111236761Y-72080380D01*
X111474857Y-72080380D01*
X111570095Y-72032761D01*
X111617714Y-71985142D01*
X111665333Y-71889904D01*
X111665333Y-71794666D01*
X111617714Y-71699428D01*
X111570095Y-71651809D01*
X111474857Y-71604190D01*
X111284380Y-71556571D01*
X111189142Y-71508952D01*
X111141523Y-71461333D01*
X111093904Y-71366095D01*
X111093904Y-71270857D01*
X111141523Y-71175619D01*
X111189142Y-71128000D01*
X111284380Y-71080380D01*
X111522476Y-71080380D01*
X111665333Y-71128000D01*
X112093904Y-72080380D02*
X112093904Y-71080380D01*
X112474857Y-71080380D01*
X112570095Y-71128000D01*
X112617714Y-71175619D01*
X112665333Y-71270857D01*
X112665333Y-71413714D01*
X112617714Y-71508952D01*
X112570095Y-71556571D01*
X112474857Y-71604190D01*
X112093904Y-71604190D01*
X113093904Y-72080380D02*
X113093904Y-71080380D01*
X114332000Y-72080380D02*
X114332000Y-71080380D01*
X114570095Y-71080380D01*
X114712952Y-71128000D01*
X114808190Y-71223238D01*
X114855809Y-71318476D01*
X114903428Y-71508952D01*
X114903428Y-71651809D01*
X114855809Y-71842285D01*
X114808190Y-71937523D01*
X114712952Y-72032761D01*
X114570095Y-72080380D01*
X114332000Y-72080380D01*
X115332000Y-72080380D02*
X115332000Y-71080380D01*
X115760571Y-72032761D02*
X115903428Y-72080380D01*
X116141523Y-72080380D01*
X116236761Y-72032761D01*
X116284380Y-71985142D01*
X116332000Y-71889904D01*
X116332000Y-71794666D01*
X116284380Y-71699428D01*
X116236761Y-71651809D01*
X116141523Y-71604190D01*
X115951047Y-71556571D01*
X115855809Y-71508952D01*
X115808190Y-71461333D01*
X115760571Y-71366095D01*
X115760571Y-71270857D01*
X115808190Y-71175619D01*
X115855809Y-71128000D01*
X115951047Y-71080380D01*
X116189142Y-71080380D01*
X116332000Y-71128000D01*
X116760571Y-72080380D02*
X116760571Y-71080380D01*
X117141523Y-71080380D01*
X117236761Y-71128000D01*
X117284380Y-71175619D01*
X117332000Y-71270857D01*
X117332000Y-71413714D01*
X117284380Y-71508952D01*
X117236761Y-71556571D01*
X117141523Y-71604190D01*
X116760571Y-71604190D01*
X118236761Y-72080380D02*
X117760571Y-72080380D01*
X117760571Y-71080380D01*
X118522476Y-71794666D02*
X118998666Y-71794666D01*
X118427238Y-72080380D02*
X118760571Y-71080380D01*
X119093904Y-72080380D01*
X119617714Y-71604190D02*
X119617714Y-72080380D01*
X119284380Y-71080380D02*
X119617714Y-71604190D01*
X119951047Y-71080380D01*
X121570095Y-72080380D02*
X120998666Y-72080380D01*
X121284380Y-72080380D02*
X121284380Y-71080380D01*
X121189142Y-71223238D01*
X121093904Y-71318476D01*
X120998666Y-71366095D01*
X145177523Y-41600380D02*
X145177523Y-40600380D01*
X145606095Y-40695619D02*
X145653714Y-40648000D01*
X145748952Y-40600380D01*
X145987047Y-40600380D01*
X146082285Y-40648000D01*
X146129904Y-40695619D01*
X146177523Y-40790857D01*
X146177523Y-40886095D01*
X146129904Y-41028952D01*
X145558476Y-41600380D01*
X146177523Y-41600380D01*
X147177523Y-41505142D02*
X147129904Y-41552761D01*
X146987047Y-41600380D01*
X146891809Y-41600380D01*
X146748952Y-41552761D01*
X146653714Y-41457523D01*
X146606095Y-41362285D01*
X146558476Y-41171809D01*
X146558476Y-41028952D01*
X146606095Y-40838476D01*
X146653714Y-40743238D01*
X146748952Y-40648000D01*
X146891809Y-40600380D01*
X146987047Y-40600380D01*
X147129904Y-40648000D01*
X147177523Y-40695619D01*
X148368000Y-41600380D02*
X148368000Y-40600380D01*
X148606095Y-40600380D01*
X148748952Y-40648000D01*
X148844190Y-40743238D01*
X148891809Y-40838476D01*
X148939428Y-41028952D01*
X148939428Y-41171809D01*
X148891809Y-41362285D01*
X148844190Y-41457523D01*
X148748952Y-41552761D01*
X148606095Y-41600380D01*
X148368000Y-41600380D01*
X149368000Y-41600380D02*
X149368000Y-40600380D01*
X149796571Y-41552761D02*
X149939428Y-41600380D01*
X150177523Y-41600380D01*
X150272761Y-41552761D01*
X150320380Y-41505142D01*
X150368000Y-41409904D01*
X150368000Y-41314666D01*
X150320380Y-41219428D01*
X150272761Y-41171809D01*
X150177523Y-41124190D01*
X149987047Y-41076571D01*
X149891809Y-41028952D01*
X149844190Y-40981333D01*
X149796571Y-40886095D01*
X149796571Y-40790857D01*
X149844190Y-40695619D01*
X149891809Y-40648000D01*
X149987047Y-40600380D01*
X150225142Y-40600380D01*
X150368000Y-40648000D01*
X150796571Y-41600380D02*
X150796571Y-40600380D01*
X151177523Y-40600380D01*
X151272761Y-40648000D01*
X151320380Y-40695619D01*
X151368000Y-40790857D01*
X151368000Y-40933714D01*
X151320380Y-41028952D01*
X151272761Y-41076571D01*
X151177523Y-41124190D01*
X150796571Y-41124190D01*
X152272761Y-41600380D02*
X151796571Y-41600380D01*
X151796571Y-40600380D01*
X152558476Y-41314666D02*
X153034666Y-41314666D01*
X152463238Y-41600380D02*
X152796571Y-40600380D01*
X153129904Y-41600380D01*
X153653714Y-41124190D02*
X153653714Y-41600380D01*
X153320380Y-40600380D02*
X153653714Y-41124190D01*
X153987047Y-40600380D01*
X155034666Y-40695619D02*
X155082285Y-40648000D01*
X155177523Y-40600380D01*
X155415619Y-40600380D01*
X155510857Y-40648000D01*
X155558476Y-40695619D01*
X155606095Y-40790857D01*
X155606095Y-40886095D01*
X155558476Y-41028952D01*
X154987047Y-41600380D01*
X155606095Y-41600380D01*
X112157523Y-41600380D02*
X112157523Y-40600380D01*
X112586095Y-40695619D02*
X112633714Y-40648000D01*
X112728952Y-40600380D01*
X112967047Y-40600380D01*
X113062285Y-40648000D01*
X113109904Y-40695619D01*
X113157523Y-40790857D01*
X113157523Y-40886095D01*
X113109904Y-41028952D01*
X112538476Y-41600380D01*
X113157523Y-41600380D01*
X114157523Y-41505142D02*
X114109904Y-41552761D01*
X113967047Y-41600380D01*
X113871809Y-41600380D01*
X113728952Y-41552761D01*
X113633714Y-41457523D01*
X113586095Y-41362285D01*
X113538476Y-41171809D01*
X113538476Y-41028952D01*
X113586095Y-40838476D01*
X113633714Y-40743238D01*
X113728952Y-40648000D01*
X113871809Y-40600380D01*
X113967047Y-40600380D01*
X114109904Y-40648000D01*
X114157523Y-40695619D01*
X115348000Y-41600380D02*
X115348000Y-40600380D01*
X115586095Y-40600380D01*
X115728952Y-40648000D01*
X115824190Y-40743238D01*
X115871809Y-40838476D01*
X115919428Y-41028952D01*
X115919428Y-41171809D01*
X115871809Y-41362285D01*
X115824190Y-41457523D01*
X115728952Y-41552761D01*
X115586095Y-41600380D01*
X115348000Y-41600380D01*
X116348000Y-41600380D02*
X116348000Y-40600380D01*
X116776571Y-41552761D02*
X116919428Y-41600380D01*
X117157523Y-41600380D01*
X117252761Y-41552761D01*
X117300380Y-41505142D01*
X117348000Y-41409904D01*
X117348000Y-41314666D01*
X117300380Y-41219428D01*
X117252761Y-41171809D01*
X117157523Y-41124190D01*
X116967047Y-41076571D01*
X116871809Y-41028952D01*
X116824190Y-40981333D01*
X116776571Y-40886095D01*
X116776571Y-40790857D01*
X116824190Y-40695619D01*
X116871809Y-40648000D01*
X116967047Y-40600380D01*
X117205142Y-40600380D01*
X117348000Y-40648000D01*
X117776571Y-41600380D02*
X117776571Y-40600380D01*
X118157523Y-40600380D01*
X118252761Y-40648000D01*
X118300380Y-40695619D01*
X118348000Y-40790857D01*
X118348000Y-40933714D01*
X118300380Y-41028952D01*
X118252761Y-41076571D01*
X118157523Y-41124190D01*
X117776571Y-41124190D01*
X119252761Y-41600380D02*
X118776571Y-41600380D01*
X118776571Y-40600380D01*
X119538476Y-41314666D02*
X120014666Y-41314666D01*
X119443238Y-41600380D02*
X119776571Y-40600380D01*
X120109904Y-41600380D01*
X120633714Y-41124190D02*
X120633714Y-41600380D01*
X120300380Y-40600380D02*
X120633714Y-41124190D01*
X120967047Y-40600380D01*
X122586095Y-41600380D02*
X122014666Y-41600380D01*
X122300380Y-41600380D02*
X122300380Y-40600380D01*
X122205142Y-40743238D01*
X122109904Y-40838476D01*
X122014666Y-40886095D01*
X172196380Y-38028571D02*
X172529714Y-38028571D01*
X172672571Y-38552380D02*
X172196380Y-38552380D01*
X172196380Y-37552380D01*
X172672571Y-37552380D01*
X173005904Y-37552380D02*
X173672571Y-38552380D01*
X173672571Y-37552380D02*
X173005904Y-38552380D01*
X174053523Y-38552380D02*
X174053523Y-37552380D01*
X174434476Y-37552380D01*
X174529714Y-37600000D01*
X174577333Y-37647619D01*
X174624952Y-37742857D01*
X174624952Y-37885714D01*
X174577333Y-37980952D01*
X174529714Y-38028571D01*
X174434476Y-38076190D01*
X174053523Y-38076190D01*
X175767809Y-37647619D02*
X175815428Y-37600000D01*
X175910666Y-37552380D01*
X176148761Y-37552380D01*
X176244000Y-37600000D01*
X176291619Y-37647619D01*
X176339238Y-37742857D01*
X176339238Y-37838095D01*
X176291619Y-37980952D01*
X175720190Y-38552380D01*
X176339238Y-38552380D01*
X93456380Y-38536571D02*
X93789714Y-38536571D01*
X93932571Y-39060380D02*
X93456380Y-39060380D01*
X93456380Y-38060380D01*
X93932571Y-38060380D01*
X94265904Y-38060380D02*
X94932571Y-39060380D01*
X94932571Y-38060380D02*
X94265904Y-39060380D01*
X95313523Y-39060380D02*
X95313523Y-38060380D01*
X95694476Y-38060380D01*
X95789714Y-38108000D01*
X95837333Y-38155619D01*
X95884952Y-38250857D01*
X95884952Y-38393714D01*
X95837333Y-38488952D01*
X95789714Y-38536571D01*
X95694476Y-38584190D01*
X95313523Y-38584190D01*
X97599238Y-39060380D02*
X97027809Y-39060380D01*
X97313523Y-39060380D02*
X97313523Y-38060380D01*
X97218285Y-38203238D01*
X97123047Y-38298476D01*
X97027809Y-38346095D01*
%TO.C,U2*%
X156390000Y-124790000D02*
X156390000Y-134290000D01*
X173040000Y-121540000D02*
X173040000Y-115040000D01*
X162890000Y-140740000D02*
X172974000Y-140740000D01*
X162240000Y-115040000D02*
X162240000Y-121540000D01*
X173040000Y-115040000D02*
X162240000Y-115040000D01*
X162890000Y-137540000D02*
X162890000Y-140740000D01*
X172974000Y-140740000D02*
X172974000Y-137540000D01*
X181916000Y-125044000D02*
X181916000Y-134544000D01*
X181916000Y-134544000D02*
X180466000Y-134544000D01*
X156390000Y-134290000D02*
X159640000Y-134290000D01*
X159640000Y-124790000D02*
X156390000Y-124790000D01*
X180466000Y-125044000D02*
X181916000Y-125044000D01*
%TO.C,U1*%
X86234000Y-134036000D02*
X84784000Y-134036000D01*
X84784000Y-134036000D02*
X84784000Y-124536000D01*
X84784000Y-124536000D02*
X86234000Y-124536000D01*
X107060000Y-134290000D02*
X110310000Y-134290000D01*
X110310000Y-134290000D02*
X110310000Y-124790000D01*
X110310000Y-124790000D02*
X107060000Y-124790000D01*
X103810000Y-121540000D02*
X103810000Y-118340000D01*
X103810000Y-118340000D02*
X93726000Y-118340000D01*
X93726000Y-118340000D02*
X93726000Y-121540000D01*
X93660000Y-137540000D02*
X93660000Y-144040000D01*
X93660000Y-144040000D02*
X104460000Y-144040000D01*
X104460000Y-144040000D02*
X104460000Y-137540000D01*
D12*
%TO.C,SW2*%
X175468000Y-95410000D02*
X175468000Y-98130000D01*
X175468000Y-104990000D02*
X175468000Y-107710000D01*
X163168000Y-103130000D02*
X163168000Y-99990000D01*
X163168000Y-107710000D02*
X163168000Y-104990000D01*
X173997050Y-101600000D02*
G75*
G03*
X173997050Y-101600000I-4579050J0D01*
G01*
X163168000Y-98130000D02*
X163168000Y-95410000D01*
X175468000Y-107710000D02*
X163168000Y-107710000D01*
X175468000Y-99990000D02*
X175468000Y-103130000D01*
X163168000Y-95410000D02*
X175468000Y-95410000D01*
%TO.C,SW1*%
X106380000Y-95410000D02*
X106380000Y-98130000D01*
X106380000Y-104990000D02*
X106380000Y-107710000D01*
X94080000Y-103130000D02*
X94080000Y-99990000D01*
X94080000Y-107710000D02*
X94080000Y-104990000D01*
X104909050Y-101600000D02*
G75*
G03*
X104909050Y-101600000I-4579050J0D01*
G01*
X94080000Y-98130000D02*
X94080000Y-95410000D01*
X106380000Y-107710000D02*
X94080000Y-107710000D01*
X106380000Y-99990000D02*
X106380000Y-103130000D01*
X94080000Y-95410000D02*
X106380000Y-95410000D01*
%TO.C,J11*%
X159318000Y-33588000D02*
X159318000Y-28388000D01*
X136398000Y-33588000D02*
X159318000Y-33588000D01*
X133798000Y-28388000D02*
X159318000Y-28388000D01*
X136398000Y-33588000D02*
X136398000Y-30988000D01*
X136398000Y-30988000D02*
X133798000Y-30988000D01*
X133798000Y-30988000D02*
X133798000Y-28388000D01*
X135128000Y-33588000D02*
X133798000Y-33588000D01*
X133798000Y-33588000D02*
X133798000Y-32258000D01*
%TO.C,J10*%
X131886000Y-33588000D02*
X131886000Y-28388000D01*
X108966000Y-33588000D02*
X131886000Y-33588000D01*
X106366000Y-28388000D02*
X131886000Y-28388000D01*
X108966000Y-33588000D02*
X108966000Y-30988000D01*
X108966000Y-30988000D02*
X106366000Y-30988000D01*
X106366000Y-30988000D02*
X106366000Y-28388000D01*
X107696000Y-33588000D02*
X106366000Y-33588000D01*
X106366000Y-33588000D02*
X106366000Y-32258000D01*
%TO.C,TP3*%
X115990600Y-112598200D02*
G75*
G03*
X115990600Y-112598200I-700000J0D01*
G01*
%TO.C,TP2*%
X167324000Y-64516000D02*
G75*
G03*
X167324000Y-64516000I-700000J0D01*
G01*
%TO.C,TP1*%
X125160000Y-65024000D02*
G75*
G03*
X125160000Y-65024000I-700000J0D01*
G01*
%TO.C,R20*%
X165926263Y-38777000D02*
X167373737Y-38777000D01*
X165926263Y-41487000D02*
X167373737Y-41487000D01*
%TO.C,R15*%
X99229000Y-47967737D02*
X99229000Y-46520263D01*
X101939000Y-47967737D02*
X101939000Y-46520263D01*
%TO.C,R12*%
X167829737Y-47075000D02*
X166382263Y-47075000D01*
X167829737Y-44365000D02*
X166382263Y-44365000D01*
%TO.C,R6*%
X98560800Y-75375263D02*
X98560800Y-76822737D01*
X95850800Y-75375263D02*
X95850800Y-76822737D01*
%TO.C,J9*%
X143780200Y-139023400D02*
X148980200Y-139023400D01*
X143780200Y-116103400D02*
X143780200Y-139023400D01*
X148980200Y-113503400D02*
X148980200Y-139023400D01*
X143780200Y-116103400D02*
X146380200Y-116103400D01*
X146380200Y-116103400D02*
X146380200Y-113503400D01*
X146380200Y-113503400D02*
X148980200Y-113503400D01*
X143780200Y-114833400D02*
X143780200Y-113503400D01*
X143780200Y-113503400D02*
X145110200Y-113503400D01*
%TO.C,J8*%
X171390000Y-52130000D02*
X176590000Y-52130000D01*
X171390000Y-44450000D02*
X171390000Y-52130000D01*
X176590000Y-41850000D02*
X176590000Y-52130000D01*
X171390000Y-44450000D02*
X173990000Y-44450000D01*
X173990000Y-44450000D02*
X173990000Y-41850000D01*
X173990000Y-41850000D02*
X176590000Y-41850000D01*
X171390000Y-43180000D02*
X171390000Y-41850000D01*
X171390000Y-41850000D02*
X172720000Y-41850000D01*
%TO.C,J7*%
X92650000Y-52130000D02*
X97850000Y-52130000D01*
X92650000Y-44450000D02*
X92650000Y-52130000D01*
X97850000Y-41850000D02*
X97850000Y-52130000D01*
X92650000Y-44450000D02*
X95250000Y-44450000D01*
X95250000Y-44450000D02*
X95250000Y-41850000D01*
X95250000Y-41850000D02*
X97850000Y-41850000D01*
X92650000Y-43180000D02*
X92650000Y-41850000D01*
X92650000Y-41850000D02*
X93980000Y-41850000D01*
%TO.C,J6*%
X163890000Y-69910000D02*
X163890000Y-67250000D01*
X146050000Y-69910000D02*
X163890000Y-69910000D01*
X146050000Y-67250000D02*
X163890000Y-67250000D01*
X146050000Y-69910000D02*
X146050000Y-67250000D01*
X144780000Y-69910000D02*
X143450000Y-69910000D01*
X143450000Y-69910000D02*
X143450000Y-68580000D01*
%TO.C,J5*%
X155254000Y-39938000D02*
X155254000Y-37278000D01*
X147574000Y-39938000D02*
X155254000Y-39938000D01*
X147574000Y-37278000D02*
X155254000Y-37278000D01*
X147574000Y-39938000D02*
X147574000Y-37278000D01*
X146304000Y-39938000D02*
X144974000Y-39938000D01*
X144974000Y-39938000D02*
X144974000Y-38608000D01*
%TO.C,J4*%
X118253200Y-138998000D02*
X123453200Y-138998000D01*
X118253200Y-116078000D02*
X118253200Y-138998000D01*
X123453200Y-113478000D02*
X123453200Y-138998000D01*
X118253200Y-116078000D02*
X120853200Y-116078000D01*
X120853200Y-116078000D02*
X120853200Y-113478000D01*
X120853200Y-113478000D02*
X123453200Y-113478000D01*
X118253200Y-114808000D02*
X118253200Y-113478000D01*
X118253200Y-113478000D02*
X119583200Y-113478000D01*
%TO.C,J3*%
X122234000Y-39938000D02*
X122234000Y-37278000D01*
X114554000Y-39938000D02*
X122234000Y-39938000D01*
X114554000Y-37278000D02*
X122234000Y-37278000D01*
X114554000Y-39938000D02*
X114554000Y-37278000D01*
X113284000Y-39938000D02*
X111954000Y-39938000D01*
X111954000Y-39938000D02*
X111954000Y-38608000D01*
%TO.C,J2*%
X125790000Y-69910000D02*
X125790000Y-67250000D01*
X107950000Y-69910000D02*
X125790000Y-69910000D01*
X107950000Y-67250000D02*
X125790000Y-67250000D01*
X107950000Y-69910000D02*
X107950000Y-67250000D01*
X106680000Y-69910000D02*
X105350000Y-69910000D01*
X105350000Y-69910000D02*
X105350000Y-68580000D01*
%TO.C,J1*%
X140910000Y-103946000D02*
X143570000Y-103946000D01*
X140910000Y-96266000D02*
X140910000Y-103946000D01*
X143570000Y-96266000D02*
X143570000Y-103946000D01*
X140910000Y-96266000D02*
X143570000Y-96266000D01*
X140910000Y-94996000D02*
X140910000Y-93666000D01*
X140910000Y-93666000D02*
X142240000Y-93666000D01*
%TO.C,D2*%
X176490000Y-60960000D02*
G75*
G03*
X176490000Y-60960000I-2500000J0D01*
G01*
X171430000Y-59415000D02*
X171430000Y-62505000D01*
X176980000Y-60959538D02*
G75*
G02*
X171430000Y-62504830I-2990000J-462D01*
G01*
X176980000Y-60960462D02*
G75*
G03*
X171430000Y-59415170I-2990000J462D01*
G01*
%TO.C,D1*%
X95210000Y-60960000D02*
G75*
G03*
X95210000Y-60960000I-2500000J0D01*
G01*
X90150000Y-59415000D02*
X90150000Y-62505000D01*
X95700000Y-60959538D02*
G75*
G02*
X90150000Y-62504830I-2990000J-462D01*
G01*
X95700000Y-60960462D02*
G75*
G03*
X90150000Y-59415170I-2990000J462D01*
G01*
%TO.C,SW2*%
D10*
X167814666Y-94804761D02*
X167957523Y-94852380D01*
X168195619Y-94852380D01*
X168290857Y-94804761D01*
X168338476Y-94757142D01*
X168386095Y-94661904D01*
X168386095Y-94566666D01*
X168338476Y-94471428D01*
X168290857Y-94423809D01*
X168195619Y-94376190D01*
X168005142Y-94328571D01*
X167909904Y-94280952D01*
X167862285Y-94233333D01*
X167814666Y-94138095D01*
X167814666Y-94042857D01*
X167862285Y-93947619D01*
X167909904Y-93900000D01*
X168005142Y-93852380D01*
X168243238Y-93852380D01*
X168386095Y-93900000D01*
X168719428Y-93852380D02*
X168957523Y-94852380D01*
X169148000Y-94138095D01*
X169338476Y-94852380D01*
X169576571Y-93852380D01*
X169909904Y-93947619D02*
X169957523Y-93900000D01*
X170052761Y-93852380D01*
X170290857Y-93852380D01*
X170386095Y-93900000D01*
X170433714Y-93947619D01*
X170481333Y-94042857D01*
X170481333Y-94138095D01*
X170433714Y-94280952D01*
X169862285Y-94852380D01*
X170481333Y-94852380D01*
%TO.C,SW1*%
X98726666Y-94804761D02*
X98869523Y-94852380D01*
X99107619Y-94852380D01*
X99202857Y-94804761D01*
X99250476Y-94757142D01*
X99298095Y-94661904D01*
X99298095Y-94566666D01*
X99250476Y-94471428D01*
X99202857Y-94423809D01*
X99107619Y-94376190D01*
X98917142Y-94328571D01*
X98821904Y-94280952D01*
X98774285Y-94233333D01*
X98726666Y-94138095D01*
X98726666Y-94042857D01*
X98774285Y-93947619D01*
X98821904Y-93900000D01*
X98917142Y-93852380D01*
X99155238Y-93852380D01*
X99298095Y-93900000D01*
X99631428Y-93852380D02*
X99869523Y-94852380D01*
X100060000Y-94138095D01*
X100250476Y-94852380D01*
X100488571Y-93852380D01*
X101393333Y-94852380D02*
X100821904Y-94852380D01*
X101107619Y-94852380D02*
X101107619Y-93852380D01*
X101012380Y-93995238D01*
X100917142Y-94090476D01*
X100821904Y-94138095D01*
%TO.C,TP3*%
X114028695Y-110602580D02*
X114600123Y-110602580D01*
X114314409Y-111602580D02*
X114314409Y-110602580D01*
X114933457Y-111602580D02*
X114933457Y-110602580D01*
X115314409Y-110602580D01*
X115409647Y-110650200D01*
X115457266Y-110697819D01*
X115504885Y-110793057D01*
X115504885Y-110935914D01*
X115457266Y-111031152D01*
X115409647Y-111078771D01*
X115314409Y-111126390D01*
X114933457Y-111126390D01*
X115838219Y-110602580D02*
X116457266Y-110602580D01*
X116123933Y-110983533D01*
X116266790Y-110983533D01*
X116362028Y-111031152D01*
X116409647Y-111078771D01*
X116457266Y-111174009D01*
X116457266Y-111412104D01*
X116409647Y-111507342D01*
X116362028Y-111554961D01*
X116266790Y-111602580D01*
X115981076Y-111602580D01*
X115885838Y-111554961D01*
X115838219Y-111507342D01*
%TO.C,TP2*%
X165362095Y-62520380D02*
X165933523Y-62520380D01*
X165647809Y-63520380D02*
X165647809Y-62520380D01*
X166266857Y-63520380D02*
X166266857Y-62520380D01*
X166647809Y-62520380D01*
X166743047Y-62568000D01*
X166790666Y-62615619D01*
X166838285Y-62710857D01*
X166838285Y-62853714D01*
X166790666Y-62948952D01*
X166743047Y-62996571D01*
X166647809Y-63044190D01*
X166266857Y-63044190D01*
X167219238Y-62615619D02*
X167266857Y-62568000D01*
X167362095Y-62520380D01*
X167600190Y-62520380D01*
X167695428Y-62568000D01*
X167743047Y-62615619D01*
X167790666Y-62710857D01*
X167790666Y-62806095D01*
X167743047Y-62948952D01*
X167171619Y-63520380D01*
X167790666Y-63520380D01*
%TO.C,TP1*%
X123198095Y-63028380D02*
X123769523Y-63028380D01*
X123483809Y-64028380D02*
X123483809Y-63028380D01*
X124102857Y-64028380D02*
X124102857Y-63028380D01*
X124483809Y-63028380D01*
X124579047Y-63076000D01*
X124626666Y-63123619D01*
X124674285Y-63218857D01*
X124674285Y-63361714D01*
X124626666Y-63456952D01*
X124579047Y-63504571D01*
X124483809Y-63552190D01*
X124102857Y-63552190D01*
X125626666Y-64028380D02*
X125055238Y-64028380D01*
X125340952Y-64028380D02*
X125340952Y-63028380D01*
X125245714Y-63171238D01*
X125150476Y-63266476D01*
X125055238Y-63314095D01*
%TO.C,R20*%
X166007142Y-38304380D02*
X165673809Y-37828190D01*
X165435714Y-38304380D02*
X165435714Y-37304380D01*
X165816666Y-37304380D01*
X165911904Y-37352000D01*
X165959523Y-37399619D01*
X166007142Y-37494857D01*
X166007142Y-37637714D01*
X165959523Y-37732952D01*
X165911904Y-37780571D01*
X165816666Y-37828190D01*
X165435714Y-37828190D01*
X166388095Y-37399619D02*
X166435714Y-37352000D01*
X166530952Y-37304380D01*
X166769047Y-37304380D01*
X166864285Y-37352000D01*
X166911904Y-37399619D01*
X166959523Y-37494857D01*
X166959523Y-37590095D01*
X166911904Y-37732952D01*
X166340476Y-38304380D01*
X166959523Y-38304380D01*
X167578571Y-37304380D02*
X167673809Y-37304380D01*
X167769047Y-37352000D01*
X167816666Y-37399619D01*
X167864285Y-37494857D01*
X167911904Y-37685333D01*
X167911904Y-37923428D01*
X167864285Y-38113904D01*
X167816666Y-38209142D01*
X167769047Y-38256761D01*
X167673809Y-38304380D01*
X167578571Y-38304380D01*
X167483333Y-38256761D01*
X167435714Y-38209142D01*
X167388095Y-38113904D01*
X167340476Y-37923428D01*
X167340476Y-37685333D01*
X167388095Y-37494857D01*
X167435714Y-37399619D01*
X167483333Y-37352000D01*
X167578571Y-37304380D01*
%TO.C,R15*%
X103576380Y-47886857D02*
X103100190Y-48220190D01*
X103576380Y-48458285D02*
X102576380Y-48458285D01*
X102576380Y-48077333D01*
X102624000Y-47982095D01*
X102671619Y-47934476D01*
X102766857Y-47886857D01*
X102909714Y-47886857D01*
X103004952Y-47934476D01*
X103052571Y-47982095D01*
X103100190Y-48077333D01*
X103100190Y-48458285D01*
X103576380Y-46934476D02*
X103576380Y-47505904D01*
X103576380Y-47220190D02*
X102576380Y-47220190D01*
X102719238Y-47315428D01*
X102814476Y-47410666D01*
X102862095Y-47505904D01*
X102576380Y-46029714D02*
X102576380Y-46505904D01*
X103052571Y-46553523D01*
X103004952Y-46505904D01*
X102957333Y-46410666D01*
X102957333Y-46172571D01*
X103004952Y-46077333D01*
X103052571Y-46029714D01*
X103147809Y-45982095D01*
X103385904Y-45982095D01*
X103481142Y-46029714D01*
X103528761Y-46077333D01*
X103576380Y-46172571D01*
X103576380Y-46410666D01*
X103528761Y-46505904D01*
X103481142Y-46553523D01*
%TO.C,R12*%
X166463142Y-48452380D02*
X166129809Y-47976190D01*
X165891714Y-48452380D02*
X165891714Y-47452380D01*
X166272666Y-47452380D01*
X166367904Y-47500000D01*
X166415523Y-47547619D01*
X166463142Y-47642857D01*
X166463142Y-47785714D01*
X166415523Y-47880952D01*
X166367904Y-47928571D01*
X166272666Y-47976190D01*
X165891714Y-47976190D01*
X167415523Y-48452380D02*
X166844095Y-48452380D01*
X167129809Y-48452380D02*
X167129809Y-47452380D01*
X167034571Y-47595238D01*
X166939333Y-47690476D01*
X166844095Y-47738095D01*
X167796476Y-47547619D02*
X167844095Y-47500000D01*
X167939333Y-47452380D01*
X168177428Y-47452380D01*
X168272666Y-47500000D01*
X168320285Y-47547619D01*
X168367904Y-47642857D01*
X168367904Y-47738095D01*
X168320285Y-47880952D01*
X167748857Y-48452380D01*
X168367904Y-48452380D01*
%TO.C,R6*%
X99938180Y-76265666D02*
X99461990Y-76599000D01*
X99938180Y-76837095D02*
X98938180Y-76837095D01*
X98938180Y-76456142D01*
X98985800Y-76360904D01*
X99033419Y-76313285D01*
X99128657Y-76265666D01*
X99271514Y-76265666D01*
X99366752Y-76313285D01*
X99414371Y-76360904D01*
X99461990Y-76456142D01*
X99461990Y-76837095D01*
X98938180Y-75408523D02*
X98938180Y-75599000D01*
X98985800Y-75694238D01*
X99033419Y-75741857D01*
X99176276Y-75837095D01*
X99366752Y-75884714D01*
X99747704Y-75884714D01*
X99842942Y-75837095D01*
X99890561Y-75789476D01*
X99938180Y-75694238D01*
X99938180Y-75503761D01*
X99890561Y-75408523D01*
X99842942Y-75360904D01*
X99747704Y-75313285D01*
X99509609Y-75313285D01*
X99414371Y-75360904D01*
X99366752Y-75408523D01*
X99319133Y-75503761D01*
X99319133Y-75694238D01*
X99366752Y-75789476D01*
X99414371Y-75837095D01*
X99509609Y-75884714D01*
%TO.C,J9*%
X146046866Y-111955780D02*
X146046866Y-112670066D01*
X145999247Y-112812923D01*
X145904009Y-112908161D01*
X145761152Y-112955780D01*
X145665914Y-112955780D01*
X146570676Y-112955780D02*
X146761152Y-112955780D01*
X146856390Y-112908161D01*
X146904009Y-112860542D01*
X146999247Y-112717685D01*
X147046866Y-112527209D01*
X147046866Y-112146257D01*
X146999247Y-112051019D01*
X146951628Y-112003400D01*
X146856390Y-111955780D01*
X146665914Y-111955780D01*
X146570676Y-112003400D01*
X146523057Y-112051019D01*
X146475438Y-112146257D01*
X146475438Y-112384352D01*
X146523057Y-112479590D01*
X146570676Y-112527209D01*
X146665914Y-112574828D01*
X146856390Y-112574828D01*
X146951628Y-112527209D01*
X146999247Y-112479590D01*
X147046866Y-112384352D01*
%TO.C,J8*%
X173656666Y-40302380D02*
X173656666Y-41016666D01*
X173609047Y-41159523D01*
X173513809Y-41254761D01*
X173370952Y-41302380D01*
X173275714Y-41302380D01*
X174275714Y-40730952D02*
X174180476Y-40683333D01*
X174132857Y-40635714D01*
X174085238Y-40540476D01*
X174085238Y-40492857D01*
X174132857Y-40397619D01*
X174180476Y-40350000D01*
X174275714Y-40302380D01*
X174466190Y-40302380D01*
X174561428Y-40350000D01*
X174609047Y-40397619D01*
X174656666Y-40492857D01*
X174656666Y-40540476D01*
X174609047Y-40635714D01*
X174561428Y-40683333D01*
X174466190Y-40730952D01*
X174275714Y-40730952D01*
X174180476Y-40778571D01*
X174132857Y-40826190D01*
X174085238Y-40921428D01*
X174085238Y-41111904D01*
X174132857Y-41207142D01*
X174180476Y-41254761D01*
X174275714Y-41302380D01*
X174466190Y-41302380D01*
X174561428Y-41254761D01*
X174609047Y-41207142D01*
X174656666Y-41111904D01*
X174656666Y-40921428D01*
X174609047Y-40826190D01*
X174561428Y-40778571D01*
X174466190Y-40730952D01*
%TO.C,J7*%
X94916666Y-40302380D02*
X94916666Y-41016666D01*
X94869047Y-41159523D01*
X94773809Y-41254761D01*
X94630952Y-41302380D01*
X94535714Y-41302380D01*
X95297619Y-40302380D02*
X95964285Y-40302380D01*
X95535714Y-41302380D01*
%TO.C,J6*%
X142200380Y-67643333D02*
X142914666Y-67643333D01*
X143057523Y-67690952D01*
X143152761Y-67786190D01*
X143200380Y-67929047D01*
X143200380Y-68024285D01*
X142200380Y-66738571D02*
X142200380Y-66929047D01*
X142248000Y-67024285D01*
X142295619Y-67071904D01*
X142438476Y-67167142D01*
X142628952Y-67214761D01*
X143009904Y-67214761D01*
X143105142Y-67167142D01*
X143152761Y-67119523D01*
X143200380Y-67024285D01*
X143200380Y-66833809D01*
X143152761Y-66738571D01*
X143105142Y-66690952D01*
X143009904Y-66643333D01*
X142771809Y-66643333D01*
X142676571Y-66690952D01*
X142628952Y-66738571D01*
X142581333Y-66833809D01*
X142581333Y-67024285D01*
X142628952Y-67119523D01*
X142676571Y-67167142D01*
X142771809Y-67214761D01*
%TO.C,J5*%
X143426380Y-38941333D02*
X144140666Y-38941333D01*
X144283523Y-38988952D01*
X144378761Y-39084190D01*
X144426380Y-39227047D01*
X144426380Y-39322285D01*
X143426380Y-37988952D02*
X143426380Y-38465142D01*
X143902571Y-38512761D01*
X143854952Y-38465142D01*
X143807333Y-38369904D01*
X143807333Y-38131809D01*
X143854952Y-38036571D01*
X143902571Y-37988952D01*
X143997809Y-37941333D01*
X144235904Y-37941333D01*
X144331142Y-37988952D01*
X144378761Y-38036571D01*
X144426380Y-38131809D01*
X144426380Y-38369904D01*
X144378761Y-38465142D01*
X144331142Y-38512761D01*
%TO.C,J4*%
X120519866Y-111930380D02*
X120519866Y-112644666D01*
X120472247Y-112787523D01*
X120377009Y-112882761D01*
X120234152Y-112930380D01*
X120138914Y-112930380D01*
X121424628Y-112263714D02*
X121424628Y-112930380D01*
X121186533Y-111882761D02*
X120948438Y-112597047D01*
X121567485Y-112597047D01*
%TO.C,J3*%
X110406380Y-38941333D02*
X111120666Y-38941333D01*
X111263523Y-38988952D01*
X111358761Y-39084190D01*
X111406380Y-39227047D01*
X111406380Y-39322285D01*
X110406380Y-38560380D02*
X110406380Y-37941333D01*
X110787333Y-38274666D01*
X110787333Y-38131809D01*
X110834952Y-38036571D01*
X110882571Y-37988952D01*
X110977809Y-37941333D01*
X111215904Y-37941333D01*
X111311142Y-37988952D01*
X111358761Y-38036571D01*
X111406380Y-38131809D01*
X111406380Y-38417523D01*
X111358761Y-38512761D01*
X111311142Y-38560380D01*
%TO.C,J2*%
X103846380Y-67389333D02*
X104560666Y-67389333D01*
X104703523Y-67436952D01*
X104798761Y-67532190D01*
X104846380Y-67675047D01*
X104846380Y-67770285D01*
X103941619Y-66960761D02*
X103894000Y-66913142D01*
X103846380Y-66817904D01*
X103846380Y-66579809D01*
X103894000Y-66484571D01*
X103941619Y-66436952D01*
X104036857Y-66389333D01*
X104132095Y-66389333D01*
X104274952Y-66436952D01*
X104846380Y-67008380D01*
X104846380Y-66389333D01*
%TO.C,J1*%
X141906666Y-92118380D02*
X141906666Y-92832666D01*
X141859047Y-92975523D01*
X141763809Y-93070761D01*
X141620952Y-93118380D01*
X141525714Y-93118380D01*
X142906666Y-93118380D02*
X142335238Y-93118380D01*
X142620952Y-93118380D02*
X142620952Y-92118380D01*
X142525714Y-92261238D01*
X142430476Y-92356476D01*
X142335238Y-92404095D01*
%TO.C,D2*%
X173251904Y-57452380D02*
X173251904Y-56452380D01*
X173490000Y-56452380D01*
X173632857Y-56500000D01*
X173728095Y-56595238D01*
X173775714Y-56690476D01*
X173823333Y-56880952D01*
X173823333Y-57023809D01*
X173775714Y-57214285D01*
X173728095Y-57309523D01*
X173632857Y-57404761D01*
X173490000Y-57452380D01*
X173251904Y-57452380D01*
X174204285Y-56547619D02*
X174251904Y-56500000D01*
X174347142Y-56452380D01*
X174585238Y-56452380D01*
X174680476Y-56500000D01*
X174728095Y-56547619D01*
X174775714Y-56642857D01*
X174775714Y-56738095D01*
X174728095Y-56880952D01*
X174156666Y-57452380D01*
X174775714Y-57452380D01*
%TO.C,D1*%
X91971904Y-57452380D02*
X91971904Y-56452380D01*
X92210000Y-56452380D01*
X92352857Y-56500000D01*
X92448095Y-56595238D01*
X92495714Y-56690476D01*
X92543333Y-56880952D01*
X92543333Y-57023809D01*
X92495714Y-57214285D01*
X92448095Y-57309523D01*
X92352857Y-57404761D01*
X92210000Y-57452380D01*
X91971904Y-57452380D01*
X93495714Y-57452380D02*
X92924285Y-57452380D01*
X93210000Y-57452380D02*
X93210000Y-56452380D01*
X93114761Y-56595238D01*
X93019523Y-56690476D01*
X92924285Y-56738095D01*
%TD*%
M02*
