M48
; DRILL file {KiCad 5.1.10} date Tue Jul 13 19:15:52 2021
; FORMAT={-:-/ absolute / inch / decimal}
; #@! TF.CreationDate,2021-07-13T19:15:52+02:00
; #@! TF.GenerationSoftware,Kicad,Pcbnew,5.1.10
; #@! TF.FileFunction,Plated,1,2,PTH
FMAT,2
INCH
T1C0.0157
T2C0.0354
T3C0.0394
T4C0.0512
T5C0.0531
T6C0.0591
T7C0.0984
T8C0.2087
%
G90
G05
T1
X4.42Y-5.4
X4.85Y-2.18
X4.94Y-3.04
X4.94Y-3.58
X5.04Y-1.76
X5.1Y-5.62
X5.26Y-3.04
X5.28Y-2.56
X5.28Y-3.94
X5.32Y-2.96
X5.38Y-3.08
X5.65Y-2.41
X5.73Y-1.81
X6.1Y-4.84
T2
X3.6Y-2.4
X3.7Y-2.4
X6.8Y-2.4
X6.9Y-2.4
T3
X3.7Y-1.7
X3.7Y-1.8
X3.7Y-1.9
X3.7Y-2.0
X3.7816Y-4.7561
X3.8Y-1.7
X3.8Y-1.8
X3.8Y-1.9
X3.8Y-2.0
X3.88Y-4.7561
X3.9784Y-4.7561
X4.2Y-2.7
X4.2339Y-5.0016
X4.2339Y-5.1
X4.2339Y-5.1984
X4.24Y-1.17
X4.24Y-1.27
X4.3Y-2.7
X4.34Y-1.17
X4.34Y-1.27
X4.4Y-2.7
X4.44Y-1.17
X4.44Y-1.27
X4.46Y-1.52
X4.5Y-2.7
X4.54Y-1.17
X4.54Y-1.27
X4.56Y-1.52
X4.6Y-2.7
X4.64Y-1.17
X4.64Y-1.27
X4.66Y-1.52
X4.7Y-2.7
X4.708Y-4.52
X4.708Y-4.62
X4.708Y-4.72
X4.708Y-4.82
X4.708Y-4.92
X4.708Y-5.02
X4.708Y-5.12
X4.708Y-5.22
X4.708Y-5.32
X4.708Y-5.42
X4.74Y-1.17
X4.74Y-1.27
X4.76Y-1.52
X4.8Y-2.7
X4.808Y-4.52
X4.808Y-4.62
X4.808Y-4.72
X4.808Y-4.82
X4.808Y-4.92
X4.808Y-5.02
X4.808Y-5.12
X4.808Y-5.22
X4.808Y-5.32
X4.808Y-5.42
X4.84Y-1.17
X4.84Y-1.27
X4.9Y-2.7
X4.94Y-1.17
X4.94Y-1.27
X5.04Y-1.17
X5.04Y-1.27
X5.14Y-1.17
X5.14Y-1.27
X5.32Y-1.17
X5.32Y-1.27
X5.42Y-1.17
X5.42Y-1.27
X5.52Y-1.17
X5.52Y-1.27
X5.6Y-3.74
X5.6Y-3.84
X5.6Y-3.94
X5.6Y-4.04
X5.62Y-1.17
X5.62Y-1.27
X5.7Y-2.7
X5.713Y-4.521
X5.713Y-4.621
X5.713Y-4.721
X5.713Y-4.821
X5.713Y-4.921
X5.713Y-5.021
X5.713Y-5.121
X5.713Y-5.221
X5.713Y-5.321
X5.713Y-5.421
X5.72Y-1.17
X5.72Y-1.27
X5.76Y-1.52
X5.8Y-2.7
X5.813Y-4.521
X5.813Y-4.621
X5.813Y-4.721
X5.813Y-4.821
X5.813Y-4.921
X5.813Y-5.021
X5.813Y-5.121
X5.813Y-5.221
X5.813Y-5.321
X5.813Y-5.421
X5.82Y-1.17
X5.82Y-1.27
X5.86Y-1.52
X5.9Y-2.7
X5.92Y-1.17
X5.92Y-1.27
X5.96Y-1.52
X6.0Y-2.7
X6.02Y-1.17
X6.02Y-1.27
X6.06Y-1.52
X6.1Y-2.7
X6.12Y-1.17
X6.12Y-1.27
X6.2Y-2.7
X6.22Y-1.17
X6.22Y-1.27
X6.2661Y-5.0016
X6.2661Y-5.1
X6.2661Y-5.1984
X6.3Y-2.7
X6.4Y-2.7
X6.5216Y-5.4439
X6.62Y-5.4439
X6.7184Y-5.4439
X6.8Y-1.7
X6.8Y-1.8
X6.8Y-1.9
X6.8Y-2.0
X6.9Y-1.7
X6.9Y-1.8
X6.9Y-1.9
X6.9Y-2.0
T4
X3.7Y-3.9
X3.7Y-4.0969
X4.1921Y-3.9
X4.1921Y-4.0969
X6.42Y-3.9
X6.42Y-4.0969
X6.9121Y-3.9
X6.9121Y-4.0969
T5
X3.7484Y-5.3698
X3.7484Y-5.547
X4.0016Y-5.3698
X4.0016Y-5.547
X6.4984Y-4.653
X6.4984Y-4.8302
X6.7516Y-4.653
X6.7516Y-4.8302
T6
X3.62Y-4.91
X3.62Y-5.31
X4.125Y-5.31
X4.13Y-4.91
X6.37Y-5.29
X6.375Y-4.89
X6.88Y-4.89
X6.88Y-5.29
T7
X5.54Y-5.94
X5.94Y-5.94
T8
X3.6Y-1.2
X3.6Y-5.9
X6.9Y-1.2
X6.9Y-5.9
T0
M30
