M48
; DRILL file {KiCad 5.1.10} date Sun Aug 29 20:40:10 2021
; FORMAT={-:-/ absolute / metric / decimal}
; #@! TF.CreationDate,2021-08-29T20:40:10+02:00
; #@! TF.GenerationSoftware,Kicad,Pcbnew,5.1.10
; #@! TF.FileFunction,Plated,1,2,PTH
FMAT,2
METRIC
T1C0.400
T2C0.900
T3C1.000
T4C1.300
T5C1.350
T6C1.500
T7C2.500
T8C5.300
%
G90
G05
T1
X114.109Y-134.62
X123.19Y-55.372
X125.476Y-77.216
X125.476Y-90.932
X128.016Y-44.704
X129.54Y-142.748
X134.2Y-77.216
X134.2Y-100.076
X134.747Y-66.421
X135.128Y-75.184
X136.652Y-78.232
X143.51Y-61.214
X145.542Y-45.974
X154.94Y-122.936
T2
X91.44Y-60.96
X93.98Y-60.96
X172.72Y-60.96
X175.26Y-60.96
T3
X93.98Y-43.18
X93.98Y-45.72
X93.98Y-48.26
X93.98Y-50.8
X96.052Y-120.806
X96.52Y-43.18
X96.52Y-45.72
X96.52Y-48.26
X96.52Y-50.8
X98.552Y-120.806
X101.052Y-120.806
X106.68Y-68.58
X107.54Y-127.04
X107.54Y-129.54
X107.54Y-132.04
X107.696Y-29.718
X107.696Y-32.258
X109.22Y-68.58
X110.236Y-29.718
X110.236Y-32.258
X111.76Y-68.58
X112.776Y-29.718
X112.776Y-32.258
X113.284Y-38.608
X114.3Y-68.58
X115.316Y-29.718
X115.316Y-32.258
X115.824Y-38.608
X116.84Y-68.58
X117.856Y-29.718
X117.856Y-32.258
X118.364Y-38.608
X119.38Y-68.58
X119.583Y-114.808
X119.583Y-117.348
X119.583Y-119.888
X119.583Y-122.428
X119.583Y-124.968
X119.583Y-127.508
X119.583Y-130.048
X119.583Y-132.588
X119.583Y-135.128
X119.583Y-137.668
X120.396Y-29.718
X120.396Y-32.258
X120.904Y-38.608
X121.92Y-68.58
X122.123Y-114.808
X122.123Y-117.348
X122.123Y-119.888
X122.123Y-122.428
X122.123Y-124.968
X122.123Y-127.508
X122.123Y-130.048
X122.123Y-132.588
X122.123Y-135.128
X122.123Y-137.668
X122.936Y-29.718
X122.936Y-32.258
X124.46Y-68.58
X125.476Y-29.718
X125.476Y-32.258
X128.016Y-29.718
X128.016Y-32.258
X130.556Y-29.718
X130.556Y-32.258
X135.128Y-29.718
X135.128Y-32.258
X137.668Y-29.718
X137.668Y-32.258
X140.208Y-29.718
X140.208Y-32.258
X142.24Y-94.996
X142.24Y-97.536
X142.24Y-100.076
X142.24Y-102.616
X142.748Y-29.718
X142.748Y-32.258
X144.78Y-68.58
X145.11Y-114.833
X145.11Y-117.373
X145.11Y-119.913
X145.11Y-122.453
X145.11Y-124.993
X145.11Y-127.533
X145.11Y-130.073
X145.11Y-132.613
X145.11Y-135.153
X145.11Y-137.693
X145.288Y-29.718
X145.288Y-32.258
X146.304Y-38.608
X147.32Y-68.58
X147.65Y-114.833
X147.65Y-117.373
X147.65Y-119.913
X147.65Y-122.453
X147.65Y-124.993
X147.65Y-127.533
X147.65Y-130.073
X147.65Y-132.613
X147.65Y-135.153
X147.65Y-137.693
X147.828Y-29.718
X147.828Y-32.258
X148.844Y-38.608
X149.86Y-68.58
X150.368Y-29.718
X150.368Y-32.258
X151.384Y-38.608
X152.4Y-68.58
X152.908Y-29.718
X152.908Y-32.258
X153.924Y-38.608
X154.94Y-68.58
X155.448Y-29.718
X155.448Y-32.258
X157.48Y-68.58
X157.988Y-29.718
X157.988Y-32.258
X159.16Y-127.04
X159.16Y-129.54
X159.16Y-132.04
X160.02Y-68.58
X162.56Y-68.58
X165.648Y-138.274
X168.148Y-138.274
X170.648Y-138.274
X172.72Y-43.18
X172.72Y-45.72
X172.72Y-48.26
X172.72Y-50.8
X175.26Y-43.18
X175.26Y-45.72
X175.26Y-48.26
X175.26Y-50.8
T4
X93.98Y-99.06
X93.98Y-104.06
X106.48Y-99.06
X106.48Y-104.06
X163.068Y-99.06
X163.068Y-104.06
X175.568Y-99.06
X175.568Y-104.06
T5
X95.21Y-136.393
X95.21Y-140.893
X101.64Y-136.393
X101.64Y-140.893
X165.06Y-118.187
X165.06Y-122.687
X171.49Y-118.187
X171.49Y-122.687
T6
X91.948Y-124.714
X91.948Y-134.874
X104.775Y-134.874
X104.902Y-124.714
X161.798Y-134.366
X161.925Y-124.206
X174.752Y-124.206
X174.752Y-134.366
T7
X140.716Y-150.876
X150.876Y-150.876
T8
X91.44Y-30.48
X91.44Y-149.86
X175.26Y-30.48
X175.26Y-149.86
T0
M30
