  0
SECTION
  2
HEADER
  9
$ANGBASE
  50
0.0
  9
$ANGDIR
  70
1
  9
$MEASUREMENT
  70
0
  0
ENDSEC
  0
SECTION
  2
TABLES
  0
TABLE
  2
LTYPE
  70
4
  0
LTYPE
  5
40F
  2
CONTINUOUS
  70
0
  3
Solid line
  72
65
  73
0
  40
0.0
  0
LTYPE
  5
410
  2
DASHDOT
 70
0
  3
Dash Dot ____ _ ____ _
 72
65
 73
4
 40
2.0
 49
1.25
 49
-0.25
 49
0.25
 49
-0.25
  0
LTYPE
  5
411
  2
DASHED
 70
0
  3
Dashed __ __ __ __ __
 72
65
 73
2
 40
0.75
 49
0.5
 49
-0.25
  0
LTYPE
  5
43B
  2
DOTTED
 70
0
  3
Dotted .  .  .  .
 72
65
 73
2
 40
0.2
 49
0.0
 49
-0.2
  0
ENDTAB
  0
TABLE
  2
STYLE
  70
4
  0
STYLE
  2
KICAD
  70
0
  40
0
  41
1
  42
1
  50
0
  71
0
  3
isocp.shx
  0
STYLE
  2
KICADB
  70
0
  40
0
  41
1
  42
1
  50
0
  71
0
  3
isocp.shx
  0
STYLE
  2
KICADI
  70
0
  40
0
  41
1
  42
1
  50
15
  71
0
  3
isocp.shx
  0
STYLE
  2
KICADBI
  70
0
  40
0
  41
1
  42
1
  50
15
  71
0
  3
isocp.shx
  0
ENDTAB
  0
TABLE
  2
LAYER
  70
1
  0
LAYER
  2
BLACK
  70
0
  62
7
  6
CONTINUOUS
  0
ENDTAB
  0
ENDSEC
  0
SECTION
  2
ENTITIES
0
LINE
8
BLACK
6
CONTINUOUS
10
6.95283
20
-5.72586
11
6.98578
21
-5.73951
0
LINE
8
BLACK
6
CONTINUOUS
10
6.98578
20
-5.73951
11
7.01545
21
-5.75933
0
LINE
8
BLACK
6
CONTINUOUS
10
7.01545
20
-5.75933
11
7.04067
21
-5.78455
0
LINE
8
BLACK
6
CONTINUOUS
10
7.04067
20
-5.78455
11
7.06049
21
-5.81422
0
LINE
8
BLACK
6
CONTINUOUS
10
7.06049
20
-5.81422
11
7.07414
21
-5.84717
0
LINE
8
BLACK
6
CONTINUOUS
10
7.07414
20
-5.84717
11
7.0811
21
-5.88216
0
LINE
8
BLACK
6
CONTINUOUS
10
7.0811
20
-5.88216
11
7.0811
21
-5.91784
0
LINE
8
BLACK
6
CONTINUOUS
10
7.0811
20
-5.91784
11
7.07414
21
-5.95283
0
LINE
8
BLACK
6
CONTINUOUS
10
7.07414
20
-5.95283
11
7.06049
21
-5.98578
0
LINE
8
BLACK
6
CONTINUOUS
10
7.06049
20
-5.98578
11
7.04067
21
-6.01545
0
LINE
8
BLACK
6
CONTINUOUS
10
7.04067
20
-6.01545
11
7.01545
21
-6.04067
0
LINE
8
BLACK
6
CONTINUOUS
10
7.01545
20
-6.04067
11
6.98578
21
-6.06049
0
LINE
8
BLACK
6
CONTINUOUS
10
6.98578
20
-6.06049
11
6.95283
21
-6.07414
0
LINE
8
BLACK
6
CONTINUOUS
10
6.95283
20
-6.07414
11
6.91784
21
-6.0811
0
LINE
8
BLACK
6
CONTINUOUS
10
6.91784
20
-6.0811
11
6.88216
21
-6.0811
0
LINE
8
BLACK
6
CONTINUOUS
10
6.88216
20
-6.0811
11
6.84717
21
-6.07414
0
LINE
8
BLACK
6
CONTINUOUS
10
6.84717
20
-6.07414
11
6.81422
21
-6.06049
0
LINE
8
BLACK
6
CONTINUOUS
10
6.81422
20
-6.06049
11
6.78455
21
-6.04067
0
LINE
8
BLACK
6
CONTINUOUS
10
6.78455
20
-6.04067
11
6.75933
21
-6.01545
0
LINE
8
BLACK
6
CONTINUOUS
10
6.75933
20
-6.01545
11
6.73951
21
-5.98578
0
LINE
8
BLACK
6
CONTINUOUS
10
6.73951
20
-5.98578
11
6.72586
21
-5.95283
0
LINE
8
BLACK
6
CONTINUOUS
10
6.72586
20
-5.95283
11
6.7189
21
-5.91784
0
LINE
8
BLACK
6
CONTINUOUS
10
6.7189
20
-5.91784
11
6.7189
21
-5.88216
0
LINE
8
BLACK
6
CONTINUOUS
10
6.7189
20
-5.88216
11
6.72586
21
-5.84717
0
LINE
8
BLACK
6
CONTINUOUS
10
6.72586
20
-5.84717
11
6.73951
21
-5.81422
0
LINE
8
BLACK
6
CONTINUOUS
10
6.73951
20
-5.81422
11
6.75933
21
-5.78455
0
LINE
8
BLACK
6
CONTINUOUS
10
6.75933
20
-5.78455
11
6.78455
21
-5.75933
0
LINE
8
BLACK
6
CONTINUOUS
10
6.78455
20
-5.75933
11
6.81422
21
-5.73951
0
LINE
8
BLACK
6
CONTINUOUS
10
6.81422
20
-5.73951
11
6.84717
21
-5.72586
0
LINE
8
BLACK
6
CONTINUOUS
10
6.84717
20
-5.72586
11
6.88216
21
-5.7189
0
LINE
8
BLACK
6
CONTINUOUS
10
6.88216
20
-5.7189
11
6.91784
21
-5.7189
0
LINE
8
BLACK
6
CONTINUOUS
10
6.91784
20
-5.7189
11
6.95283
21
-5.72586
0
LINE
8
BLACK
6
CONTINUOUS
10
3.65283
20
-5.72586
11
3.68578
21
-5.73951
0
LINE
8
BLACK
6
CONTINUOUS
10
3.68578
20
-5.73951
11
3.71545
21
-5.75933
0
LINE
8
BLACK
6
CONTINUOUS
10
3.71545
20
-5.75933
11
3.74067
21
-5.78455
0
LINE
8
BLACK
6
CONTINUOUS
10
3.74067
20
-5.78455
11
3.76049
21
-5.81422
0
LINE
8
BLACK
6
CONTINUOUS
10
3.76049
20
-5.81422
11
3.77414
21
-5.84717
0
LINE
8
BLACK
6
CONTINUOUS
10
3.77414
20
-5.84717
11
3.7811
21
-5.88216
0
LINE
8
BLACK
6
CONTINUOUS
10
3.7811
20
-5.88216
11
3.7811
21
-5.91784
0
LINE
8
BLACK
6
CONTINUOUS
10
3.7811
20
-5.91784
11
3.77414
21
-5.95283
0
LINE
8
BLACK
6
CONTINUOUS
10
3.77414
20
-5.95283
11
3.76049
21
-5.98578
0
LINE
8
BLACK
6
CONTINUOUS
10
3.76049
20
-5.98578
11
3.74067
21
-6.01545
0
LINE
8
BLACK
6
CONTINUOUS
10
3.74067
20
-6.01545
11
3.71545
21
-6.04067
0
LINE
8
BLACK
6
CONTINUOUS
10
3.71545
20
-6.04067
11
3.68578
21
-6.06049
0
LINE
8
BLACK
6
CONTINUOUS
10
3.68578
20
-6.06049
11
3.65283
21
-6.07414
0
LINE
8
BLACK
6
CONTINUOUS
10
3.65283
20
-6.07414
11
3.61784
21
-6.0811
0
LINE
8
BLACK
6
CONTINUOUS
10
3.61784
20
-6.0811
11
3.58216
21
-6.0811
0
LINE
8
BLACK
6
CONTINUOUS
10
3.58216
20
-6.0811
11
3.54717
21
-6.07414
0
LINE
8
BLACK
6
CONTINUOUS
10
3.54717
20
-6.07414
11
3.51422
21
-6.06049
0
LINE
8
BLACK
6
CONTINUOUS
10
3.51422
20
-6.06049
11
3.48455
21
-6.04067
0
LINE
8
BLACK
6
CONTINUOUS
10
3.48455
20
-6.04067
11
3.45933
21
-6.01545
0
LINE
8
BLACK
6
CONTINUOUS
10
3.45933
20
-6.01545
11
3.43951
21
-5.98578
0
LINE
8
BLACK
6
CONTINUOUS
10
3.43951
20
-5.98578
11
3.42586
21
-5.95283
0
LINE
8
BLACK
6
CONTINUOUS
10
3.42586
20
-5.95283
11
3.4189
21
-5.91784
0
LINE
8
BLACK
6
CONTINUOUS
10
3.4189
20
-5.91784
11
3.4189
21
-5.88216
0
LINE
8
BLACK
6
CONTINUOUS
10
3.4189
20
-5.88216
11
3.42586
21
-5.84717
0
LINE
8
BLACK
6
CONTINUOUS
10
3.42586
20
-5.84717
11
3.43951
21
-5.81422
0
LINE
8
BLACK
6
CONTINUOUS
10
3.43951
20
-5.81422
11
3.45933
21
-5.78455
0
LINE
8
BLACK
6
CONTINUOUS
10
3.45933
20
-5.78455
11
3.48455
21
-5.75933
0
LINE
8
BLACK
6
CONTINUOUS
10
3.48455
20
-5.75933
11
3.51422
21
-5.73951
0
LINE
8
BLACK
6
CONTINUOUS
10
3.51422
20
-5.73951
11
3.54717
21
-5.72586
0
LINE
8
BLACK
6
CONTINUOUS
10
3.54717
20
-5.72586
11
3.58216
21
-5.7189
0
LINE
8
BLACK
6
CONTINUOUS
10
3.58216
20
-5.7189
11
3.61784
21
-5.7189
0
LINE
8
BLACK
6
CONTINUOUS
10
3.61784
20
-5.7189
11
3.65283
21
-5.72586
0
LINE
8
BLACK
6
CONTINUOUS
10
6.06976
20
-1.48782
11
6.07585
21
-1.49034
0
LINE
8
BLACK
6
CONTINUOUS
10
6.07585
20
-1.49034
11
6.08133
21
-1.49401
0
LINE
8
BLACK
6
CONTINUOUS
10
6.08133
20
-1.49401
11
6.08599
21
-1.49867
0
LINE
8
BLACK
6
CONTINUOUS
10
6.08599
20
-1.49867
11
6.08966
21
-1.50415
0
LINE
8
BLACK
6
CONTINUOUS
10
6.08966
20
-1.50415
11
6.09218
21
-1.51024
0
LINE
8
BLACK
6
CONTINUOUS
10
6.09218
20
-1.51024
11
6.09346
21
-1.5167
0
LINE
8
BLACK
6
CONTINUOUS
10
6.09346
20
-1.5167
11
6.09346
21
-1.5233
0
LINE
8
BLACK
6
CONTINUOUS
10
6.09346
20
-1.5233
11
6.09218
21
-1.52976
0
LINE
8
BLACK
6
CONTINUOUS
10
6.09218
20
-1.52976
11
6.08966
21
-1.53585
0
LINE
8
BLACK
6
CONTINUOUS
10
6.08966
20
-1.53585
11
6.08599
21
-1.54133
0
LINE
8
BLACK
6
CONTINUOUS
10
6.08599
20
-1.54133
11
6.08133
21
-1.54599
0
LINE
8
BLACK
6
CONTINUOUS
10
6.08133
20
-1.54599
11
6.07585
21
-1.54966
0
LINE
8
BLACK
6
CONTINUOUS
10
6.07585
20
-1.54966
11
6.06976
21
-1.55218
0
LINE
8
BLACK
6
CONTINUOUS
10
6.06976
20
-1.55218
11
6.0633
21
-1.55346
0
LINE
8
BLACK
6
CONTINUOUS
10
6.0633
20
-1.55346
11
6.0567
21
-1.55346
0
LINE
8
BLACK
6
CONTINUOUS
10
6.0567
20
-1.55346
11
6.05024
21
-1.55218
0
LINE
8
BLACK
6
CONTINUOUS
10
6.05024
20
-1.55218
11
6.04415
21
-1.54966
0
LINE
8
BLACK
6
CONTINUOUS
10
6.04415
20
-1.54966
11
6.03867
21
-1.54599
0
LINE
8
BLACK
6
CONTINUOUS
10
6.03867
20
-1.54599
11
6.03401
21
-1.54133
0
LINE
8
BLACK
6
CONTINUOUS
10
6.03401
20
-1.54133
11
6.03034
21
-1.53585
0
LINE
8
BLACK
6
CONTINUOUS
10
6.03034
20
-1.53585
11
6.02782
21
-1.52976
0
LINE
8
BLACK
6
CONTINUOUS
10
6.02782
20
-1.52976
11
6.02654
21
-1.5233
0
LINE
8
BLACK
6
CONTINUOUS
10
6.02654
20
-1.5233
11
6.02654
21
-1.5167
0
LINE
8
BLACK
6
CONTINUOUS
10
6.02654
20
-1.5167
11
6.02782
21
-1.51024
0
LINE
8
BLACK
6
CONTINUOUS
10
6.02782
20
-1.51024
11
6.03034
21
-1.50415
0
LINE
8
BLACK
6
CONTINUOUS
10
6.03034
20
-1.50415
11
6.03401
21
-1.49867
0
LINE
8
BLACK
6
CONTINUOUS
10
6.03401
20
-1.49867
11
6.03867
21
-1.49401
0
LINE
8
BLACK
6
CONTINUOUS
10
6.03867
20
-1.49401
11
6.04415
21
-1.49034
0
LINE
8
BLACK
6
CONTINUOUS
10
6.04415
20
-1.49034
11
6.05024
21
-1.48782
0
LINE
8
BLACK
6
CONTINUOUS
10
6.05024
20
-1.48782
11
6.0567
21
-1.48654
0
LINE
8
BLACK
6
CONTINUOUS
10
6.0567
20
-1.48654
11
6.0633
21
-1.48654
0
LINE
8
BLACK
6
CONTINUOUS
10
6.0633
20
-1.48654
11
6.06976
21
-1.48782
0
LINE
8
BLACK
6
CONTINUOUS
10
6.95283
20
-1.02586
11
6.98578
21
-1.03951
0
LINE
8
BLACK
6
CONTINUOUS
10
6.98578
20
-1.03951
11
7.01545
21
-1.05933
0
LINE
8
BLACK
6
CONTINUOUS
10
7.01545
20
-1.05933
11
7.04067
21
-1.08455
0
LINE
8
BLACK
6
CONTINUOUS
10
7.04067
20
-1.08455
11
7.06049
21
-1.11422
0
LINE
8
BLACK
6
CONTINUOUS
10
7.06049
20
-1.11422
11
7.07414
21
-1.14717
0
LINE
8
BLACK
6
CONTINUOUS
10
7.07414
20
-1.14717
11
7.0811
21
-1.18216
0
LINE
8
BLACK
6
CONTINUOUS
10
7.0811
20
-1.18216
11
7.0811
21
-1.21784
0
LINE
8
BLACK
6
CONTINUOUS
10
7.0811
20
-1.21784
11
7.07414
21
-1.25283
0
LINE
8
BLACK
6
CONTINUOUS
10
7.07414
20
-1.25283
11
7.06049
21
-1.28578
0
LINE
8
BLACK
6
CONTINUOUS
10
7.06049
20
-1.28578
11
7.04067
21
-1.31545
0
LINE
8
BLACK
6
CONTINUOUS
10
7.04067
20
-1.31545
11
7.01545
21
-1.34067
0
LINE
8
BLACK
6
CONTINUOUS
10
7.01545
20
-1.34067
11
6.98578
21
-1.36049
0
LINE
8
BLACK
6
CONTINUOUS
10
6.98578
20
-1.36049
11
6.95283
21
-1.37414
0
LINE
8
BLACK
6
CONTINUOUS
10
6.95283
20
-1.37414
11
6.91784
21
-1.3811
0
LINE
8
BLACK
6
CONTINUOUS
10
6.91784
20
-1.3811
11
6.88216
21
-1.3811
0
LINE
8
BLACK
6
CONTINUOUS
10
6.88216
20
-1.3811
11
6.84717
21
-1.37414
0
LINE
8
BLACK
6
CONTINUOUS
10
6.84717
20
-1.37414
11
6.81422
21
-1.36049
0
LINE
8
BLACK
6
CONTINUOUS
10
6.81422
20
-1.36049
11
6.78455
21
-1.34067
0
LINE
8
BLACK
6
CONTINUOUS
10
6.78455
20
-1.34067
11
6.75933
21
-1.31545
0
LINE
8
BLACK
6
CONTINUOUS
10
6.75933
20
-1.31545
11
6.73951
21
-1.28578
0
LINE
8
BLACK
6
CONTINUOUS
10
6.73951
20
-1.28578
11
6.72586
21
-1.25283
0
LINE
8
BLACK
6
CONTINUOUS
10
6.72586
20
-1.25283
11
6.7189
21
-1.21784
0
LINE
8
BLACK
6
CONTINUOUS
10
6.7189
20
-1.21784
11
6.7189
21
-1.18216
0
LINE
8
BLACK
6
CONTINUOUS
10
6.7189
20
-1.18216
11
6.72586
21
-1.14717
0
LINE
8
BLACK
6
CONTINUOUS
10
6.72586
20
-1.14717
11
6.73951
21
-1.11422
0
LINE
8
BLACK
6
CONTINUOUS
10
6.73951
20
-1.11422
11
6.75933
21
-1.08455
0
LINE
8
BLACK
6
CONTINUOUS
10
6.75933
20
-1.08455
11
6.78455
21
-1.05933
0
LINE
8
BLACK
6
CONTINUOUS
10
6.78455
20
-1.05933
11
6.81422
21
-1.03951
0
LINE
8
BLACK
6
CONTINUOUS
10
6.81422
20
-1.03951
11
6.84717
21
-1.02586
0
LINE
8
BLACK
6
CONTINUOUS
10
6.84717
20
-1.02586
11
6.88216
21
-1.0189
0
LINE
8
BLACK
6
CONTINUOUS
10
6.88216
20
-1.0189
11
6.91784
21
-1.0189
0
LINE
8
BLACK
6
CONTINUOUS
10
6.91784
20
-1.0189
11
6.95283
21
-1.02586
0
LINE
8
BLACK
6
CONTINUOUS
10
3.65283
20
-1.02586
11
3.68578
21
-1.03951
0
LINE
8
BLACK
6
CONTINUOUS
10
3.68578
20
-1.03951
11
3.71545
21
-1.05933
0
LINE
8
BLACK
6
CONTINUOUS
10
3.71545
20
-1.05933
11
3.74067
21
-1.08455
0
LINE
8
BLACK
6
CONTINUOUS
10
3.74067
20
-1.08455
11
3.76049
21
-1.11422
0
LINE
8
BLACK
6
CONTINUOUS
10
3.76049
20
-1.11422
11
3.77414
21
-1.14717
0
LINE
8
BLACK
6
CONTINUOUS
10
3.77414
20
-1.14717
11
3.7811
21
-1.18216
0
LINE
8
BLACK
6
CONTINUOUS
10
3.7811
20
-1.18216
11
3.7811
21
-1.21784
0
LINE
8
BLACK
6
CONTINUOUS
10
3.7811
20
-1.21784
11
3.77414
21
-1.25283
0
LINE
8
BLACK
6
CONTINUOUS
10
3.77414
20
-1.25283
11
3.76049
21
-1.28578
0
LINE
8
BLACK
6
CONTINUOUS
10
3.76049
20
-1.28578
11
3.74067
21
-1.31545
0
LINE
8
BLACK
6
CONTINUOUS
10
3.74067
20
-1.31545
11
3.71545
21
-1.34067
0
LINE
8
BLACK
6
CONTINUOUS
10
3.71545
20
-1.34067
11
3.68578
21
-1.36049
0
LINE
8
BLACK
6
CONTINUOUS
10
3.68578
20
-1.36049
11
3.65283
21
-1.37414
0
LINE
8
BLACK
6
CONTINUOUS
10
3.65283
20
-1.37414
11
3.61784
21
-1.3811
0
LINE
8
BLACK
6
CONTINUOUS
10
3.61784
20
-1.3811
11
3.58216
21
-1.3811
0
LINE
8
BLACK
6
CONTINUOUS
10
3.58216
20
-1.3811
11
3.54717
21
-1.37414
0
LINE
8
BLACK
6
CONTINUOUS
10
3.54717
20
-1.37414
11
3.51422
21
-1.36049
0
LINE
8
BLACK
6
CONTINUOUS
10
3.51422
20
-1.36049
11
3.48455
21
-1.34067
0
LINE
8
BLACK
6
CONTINUOUS
10
3.48455
20
-1.34067
11
3.45933
21
-1.31545
0
LINE
8
BLACK
6
CONTINUOUS
10
3.45933
20
-1.31545
11
3.43951
21
-1.28578
0
LINE
8
BLACK
6
CONTINUOUS
10
3.43951
20
-1.28578
11
3.42586
21
-1.25283
0
LINE
8
BLACK
6
CONTINUOUS
10
3.42586
20
-1.25283
11
3.4189
21
-1.21784
0
LINE
8
BLACK
6
CONTINUOUS
10
3.4189
20
-1.21784
11
3.4189
21
-1.18216
0
LINE
8
BLACK
6
CONTINUOUS
10
3.4189
20
-1.18216
11
3.42586
21
-1.14717
0
LINE
8
BLACK
6
CONTINUOUS
10
3.42586
20
-1.14717
11
3.43951
21
-1.11422
0
LINE
8
BLACK
6
CONTINUOUS
10
3.43951
20
-1.11422
11
3.45933
21
-1.08455
0
LINE
8
BLACK
6
CONTINUOUS
10
3.45933
20
-1.08455
11
3.48455
21
-1.05933
0
LINE
8
BLACK
6
CONTINUOUS
10
3.48455
20
-1.05933
11
3.51422
21
-1.03951
0
LINE
8
BLACK
6
CONTINUOUS
10
3.51422
20
-1.03951
11
3.54717
21
-1.02586
0
LINE
8
BLACK
6
CONTINUOUS
10
3.54717
20
-1.02586
11
3.58216
21
-1.0189
0
LINE
8
BLACK
6
CONTINUOUS
10
3.58216
20
-1.0189
11
3.61784
21
-1.0189
0
LINE
8
BLACK
6
CONTINUOUS
10
3.61784
20
-1.0189
11
3.65283
21
-1.02586
  0
ENDSEC
  0
EOF
