%TF.GenerationSoftware,KiCad,Pcbnew,5.1.10*%
%TF.CreationDate,2021-07-13T19:15:49+02:00*%
%TF.ProjectId,lni-badge,6c6e692d-6261-4646-9765-2e6b69636164,rev?*%
%TF.SameCoordinates,Original*%
%TF.FileFunction,Legend,Bot*%
%TF.FilePolarity,Positive*%
%FSLAX46Y46*%
G04 Gerber Fmt 4.6, Leading zero omitted, Abs format (unit mm)*
G04 Created by KiCad (PCBNEW 5.1.10) date 2021-07-13 19:15:49*
%MOMM*%
%LPD*%
G01*
G04 APERTURE LIST*
%ADD10C,0.120000*%
%ADD11C,0.150000*%
G04 APERTURE END LIST*
D10*
%TO.C,R9*%
X154263000Y-72910263D02*
X154263000Y-74357737D01*
X151553000Y-72910263D02*
X151553000Y-74357737D01*
%TO.C,C8*%
X153310000Y-130391248D02*
X153310000Y-131813752D01*
X151490000Y-130391248D02*
X151490000Y-131813752D01*
%TO.C,R21*%
X174075000Y-66840263D02*
X174075000Y-68287737D01*
X171365000Y-66840263D02*
X171365000Y-68287737D01*
%TO.C,R19*%
X167906263Y-36745000D02*
X169353737Y-36745000D01*
X167906263Y-39455000D02*
X169353737Y-39455000D01*
%TO.C,R18*%
X172504263Y-53509000D02*
X173951737Y-53509000D01*
X172504263Y-56219000D02*
X173951737Y-56219000D01*
%TO.C,R17*%
X119719000Y-42938263D02*
X119719000Y-44385737D01*
X117009000Y-42938263D02*
X117009000Y-44385737D01*
%TO.C,R16*%
X123783000Y-42964263D02*
X123783000Y-44411737D01*
X121073000Y-42964263D02*
X121073000Y-44411737D01*
%TO.C,R14*%
X92287000Y-67830263D02*
X92287000Y-69277737D01*
X89577000Y-67830263D02*
X89577000Y-69277737D01*
%TO.C,R13*%
X168389737Y-53171000D02*
X166942263Y-53171000D01*
X168389737Y-50461000D02*
X166942263Y-50461000D01*
%TO.C,R11*%
X100415000Y-57722263D02*
X100415000Y-59169737D01*
X97705000Y-57722263D02*
X97705000Y-59169737D01*
%TO.C,R10*%
X87545000Y-46977737D02*
X87545000Y-45530263D01*
X90255000Y-46977737D02*
X90255000Y-45530263D01*
%TO.C,R8*%
X150199000Y-72910263D02*
X150199000Y-74357737D01*
X147489000Y-72910263D02*
X147489000Y-74357737D01*
%TO.C,R7*%
X115655000Y-73978263D02*
X115655000Y-75425737D01*
X112945000Y-73978263D02*
X112945000Y-75425737D01*
%TO.C,R5*%
X155714263Y-117009000D02*
X157161737Y-117009000D01*
X155714263Y-119719000D02*
X157161737Y-119719000D01*
%TO.C,R4*%
X164402263Y-107865000D02*
X165849737Y-107865000D01*
X164402263Y-110575000D02*
X165849737Y-110575000D01*
%TO.C,R3*%
X107611000Y-108927737D02*
X107611000Y-107480263D01*
X110321000Y-108927737D02*
X110321000Y-107480263D01*
%TO.C,R2*%
X129729737Y-133943000D02*
X128282263Y-133943000D01*
X129729737Y-131233000D02*
X128282263Y-131233000D01*
%TO.C,R1*%
X109969737Y-143087000D02*
X108522263Y-143087000D01*
X109969737Y-140377000D02*
X108522263Y-140377000D01*
%TO.C,C9*%
X165264752Y-136038000D02*
X163842248Y-136038000D01*
X165264752Y-134218000D02*
X163842248Y-134218000D01*
%TO.C,C7*%
X155752748Y-113390000D02*
X157175252Y-113390000D01*
X155752748Y-115210000D02*
X157175252Y-115210000D01*
%TO.C,C6*%
X98150000Y-114541752D02*
X98150000Y-113119248D01*
X99970000Y-114541752D02*
X99970000Y-113119248D01*
%TO.C,C5*%
X112882000Y-128765752D02*
X112882000Y-127343248D01*
X114702000Y-128765752D02*
X114702000Y-127343248D01*
%TO.C,C4*%
X164427248Y-111358000D02*
X165849752Y-111358000D01*
X164427248Y-113178000D02*
X165849752Y-113178000D01*
%TO.C,C3*%
X111104000Y-108915252D02*
X111104000Y-107492748D01*
X112924000Y-108915252D02*
X112924000Y-107492748D01*
%TO.C,C2*%
X129196000Y-127241752D02*
X129196000Y-125819248D01*
X131916000Y-127241752D02*
X131916000Y-125819248D01*
%TO.C,C1*%
X109969752Y-146706000D02*
X108547248Y-146706000D01*
X109969752Y-144886000D02*
X108547248Y-144886000D01*
%TO.C,R9*%
D11*
X151080380Y-73467333D02*
X150604190Y-73134000D01*
X151080380Y-72895904D02*
X150080380Y-72895904D01*
X150080380Y-73276857D01*
X150128000Y-73372095D01*
X150175619Y-73419714D01*
X150270857Y-73467333D01*
X150413714Y-73467333D01*
X150508952Y-73419714D01*
X150556571Y-73372095D01*
X150604190Y-73276857D01*
X150604190Y-72895904D01*
X151080380Y-73943523D02*
X151080380Y-74134000D01*
X151032761Y-74229238D01*
X150985142Y-74276857D01*
X150842285Y-74372095D01*
X150651809Y-74419714D01*
X150270857Y-74419714D01*
X150175619Y-74372095D01*
X150128000Y-74324476D01*
X150080380Y-74229238D01*
X150080380Y-74038761D01*
X150128000Y-73943523D01*
X150175619Y-73895904D01*
X150270857Y-73848285D01*
X150508952Y-73848285D01*
X150604190Y-73895904D01*
X150651809Y-73943523D01*
X150699428Y-74038761D01*
X150699428Y-74229238D01*
X150651809Y-74324476D01*
X150604190Y-74372095D01*
X150508952Y-74419714D01*
%TO.C,C8*%
X150907142Y-130935833D02*
X150954761Y-130888214D01*
X151002380Y-130745357D01*
X151002380Y-130650119D01*
X150954761Y-130507261D01*
X150859523Y-130412023D01*
X150764285Y-130364404D01*
X150573809Y-130316785D01*
X150430952Y-130316785D01*
X150240476Y-130364404D01*
X150145238Y-130412023D01*
X150050000Y-130507261D01*
X150002380Y-130650119D01*
X150002380Y-130745357D01*
X150050000Y-130888214D01*
X150097619Y-130935833D01*
X150430952Y-131507261D02*
X150383333Y-131412023D01*
X150335714Y-131364404D01*
X150240476Y-131316785D01*
X150192857Y-131316785D01*
X150097619Y-131364404D01*
X150050000Y-131412023D01*
X150002380Y-131507261D01*
X150002380Y-131697738D01*
X150050000Y-131792976D01*
X150097619Y-131840595D01*
X150192857Y-131888214D01*
X150240476Y-131888214D01*
X150335714Y-131840595D01*
X150383333Y-131792976D01*
X150430952Y-131697738D01*
X150430952Y-131507261D01*
X150478571Y-131412023D01*
X150526190Y-131364404D01*
X150621428Y-131316785D01*
X150811904Y-131316785D01*
X150907142Y-131364404D01*
X150954761Y-131412023D01*
X151002380Y-131507261D01*
X151002380Y-131697738D01*
X150954761Y-131792976D01*
X150907142Y-131840595D01*
X150811904Y-131888214D01*
X150621428Y-131888214D01*
X150526190Y-131840595D01*
X150478571Y-131792976D01*
X150430952Y-131697738D01*
%TO.C,R21*%
X170892380Y-66921142D02*
X170416190Y-66587809D01*
X170892380Y-66349714D02*
X169892380Y-66349714D01*
X169892380Y-66730666D01*
X169940000Y-66825904D01*
X169987619Y-66873523D01*
X170082857Y-66921142D01*
X170225714Y-66921142D01*
X170320952Y-66873523D01*
X170368571Y-66825904D01*
X170416190Y-66730666D01*
X170416190Y-66349714D01*
X169987619Y-67302095D02*
X169940000Y-67349714D01*
X169892380Y-67444952D01*
X169892380Y-67683047D01*
X169940000Y-67778285D01*
X169987619Y-67825904D01*
X170082857Y-67873523D01*
X170178095Y-67873523D01*
X170320952Y-67825904D01*
X170892380Y-67254476D01*
X170892380Y-67873523D01*
X170892380Y-68825904D02*
X170892380Y-68254476D01*
X170892380Y-68540190D02*
X169892380Y-68540190D01*
X170035238Y-68444952D01*
X170130476Y-68349714D01*
X170178095Y-68254476D01*
%TO.C,R19*%
X169272857Y-40832380D02*
X169606190Y-40356190D01*
X169844285Y-40832380D02*
X169844285Y-39832380D01*
X169463333Y-39832380D01*
X169368095Y-39880000D01*
X169320476Y-39927619D01*
X169272857Y-40022857D01*
X169272857Y-40165714D01*
X169320476Y-40260952D01*
X169368095Y-40308571D01*
X169463333Y-40356190D01*
X169844285Y-40356190D01*
X168320476Y-40832380D02*
X168891904Y-40832380D01*
X168606190Y-40832380D02*
X168606190Y-39832380D01*
X168701428Y-39975238D01*
X168796666Y-40070476D01*
X168891904Y-40118095D01*
X167844285Y-40832380D02*
X167653809Y-40832380D01*
X167558571Y-40784761D01*
X167510952Y-40737142D01*
X167415714Y-40594285D01*
X167368095Y-40403809D01*
X167368095Y-40022857D01*
X167415714Y-39927619D01*
X167463333Y-39880000D01*
X167558571Y-39832380D01*
X167749047Y-39832380D01*
X167844285Y-39880000D01*
X167891904Y-39927619D01*
X167939523Y-40022857D01*
X167939523Y-40260952D01*
X167891904Y-40356190D01*
X167844285Y-40403809D01*
X167749047Y-40451428D01*
X167558571Y-40451428D01*
X167463333Y-40403809D01*
X167415714Y-40356190D01*
X167368095Y-40260952D01*
%TO.C,R18*%
X173870857Y-57596380D02*
X174204190Y-57120190D01*
X174442285Y-57596380D02*
X174442285Y-56596380D01*
X174061333Y-56596380D01*
X173966095Y-56644000D01*
X173918476Y-56691619D01*
X173870857Y-56786857D01*
X173870857Y-56929714D01*
X173918476Y-57024952D01*
X173966095Y-57072571D01*
X174061333Y-57120190D01*
X174442285Y-57120190D01*
X172918476Y-57596380D02*
X173489904Y-57596380D01*
X173204190Y-57596380D02*
X173204190Y-56596380D01*
X173299428Y-56739238D01*
X173394666Y-56834476D01*
X173489904Y-56882095D01*
X172347047Y-57024952D02*
X172442285Y-56977333D01*
X172489904Y-56929714D01*
X172537523Y-56834476D01*
X172537523Y-56786857D01*
X172489904Y-56691619D01*
X172442285Y-56644000D01*
X172347047Y-56596380D01*
X172156571Y-56596380D01*
X172061333Y-56644000D01*
X172013714Y-56691619D01*
X171966095Y-56786857D01*
X171966095Y-56834476D01*
X172013714Y-56929714D01*
X172061333Y-56977333D01*
X172156571Y-57024952D01*
X172347047Y-57024952D01*
X172442285Y-57072571D01*
X172489904Y-57120190D01*
X172537523Y-57215428D01*
X172537523Y-57405904D01*
X172489904Y-57501142D01*
X172442285Y-57548761D01*
X172347047Y-57596380D01*
X172156571Y-57596380D01*
X172061333Y-57548761D01*
X172013714Y-57501142D01*
X171966095Y-57405904D01*
X171966095Y-57215428D01*
X172013714Y-57120190D01*
X172061333Y-57072571D01*
X172156571Y-57024952D01*
%TO.C,R17*%
X116536380Y-43019142D02*
X116060190Y-42685809D01*
X116536380Y-42447714D02*
X115536380Y-42447714D01*
X115536380Y-42828666D01*
X115584000Y-42923904D01*
X115631619Y-42971523D01*
X115726857Y-43019142D01*
X115869714Y-43019142D01*
X115964952Y-42971523D01*
X116012571Y-42923904D01*
X116060190Y-42828666D01*
X116060190Y-42447714D01*
X116536380Y-43971523D02*
X116536380Y-43400095D01*
X116536380Y-43685809D02*
X115536380Y-43685809D01*
X115679238Y-43590571D01*
X115774476Y-43495333D01*
X115822095Y-43400095D01*
X115536380Y-44304857D02*
X115536380Y-44971523D01*
X116536380Y-44542952D01*
%TO.C,R16*%
X125420380Y-43045142D02*
X124944190Y-42711809D01*
X125420380Y-42473714D02*
X124420380Y-42473714D01*
X124420380Y-42854666D01*
X124468000Y-42949904D01*
X124515619Y-42997523D01*
X124610857Y-43045142D01*
X124753714Y-43045142D01*
X124848952Y-42997523D01*
X124896571Y-42949904D01*
X124944190Y-42854666D01*
X124944190Y-42473714D01*
X125420380Y-43997523D02*
X125420380Y-43426095D01*
X125420380Y-43711809D02*
X124420380Y-43711809D01*
X124563238Y-43616571D01*
X124658476Y-43521333D01*
X124706095Y-43426095D01*
X124420380Y-44854666D02*
X124420380Y-44664190D01*
X124468000Y-44568952D01*
X124515619Y-44521333D01*
X124658476Y-44426095D01*
X124848952Y-44378476D01*
X125229904Y-44378476D01*
X125325142Y-44426095D01*
X125372761Y-44473714D01*
X125420380Y-44568952D01*
X125420380Y-44759428D01*
X125372761Y-44854666D01*
X125325142Y-44902285D01*
X125229904Y-44949904D01*
X124991809Y-44949904D01*
X124896571Y-44902285D01*
X124848952Y-44854666D01*
X124801333Y-44759428D01*
X124801333Y-44568952D01*
X124848952Y-44473714D01*
X124896571Y-44426095D01*
X124991809Y-44378476D01*
%TO.C,R14*%
X89104380Y-67911142D02*
X88628190Y-67577809D01*
X89104380Y-67339714D02*
X88104380Y-67339714D01*
X88104380Y-67720666D01*
X88152000Y-67815904D01*
X88199619Y-67863523D01*
X88294857Y-67911142D01*
X88437714Y-67911142D01*
X88532952Y-67863523D01*
X88580571Y-67815904D01*
X88628190Y-67720666D01*
X88628190Y-67339714D01*
X89104380Y-68863523D02*
X89104380Y-68292095D01*
X89104380Y-68577809D02*
X88104380Y-68577809D01*
X88247238Y-68482571D01*
X88342476Y-68387333D01*
X88390095Y-68292095D01*
X88437714Y-69720666D02*
X89104380Y-69720666D01*
X88056761Y-69482571D02*
X88771047Y-69244476D01*
X88771047Y-69863523D01*
%TO.C,R13*%
X168308857Y-49988380D02*
X168642190Y-49512190D01*
X168880285Y-49988380D02*
X168880285Y-48988380D01*
X168499333Y-48988380D01*
X168404095Y-49036000D01*
X168356476Y-49083619D01*
X168308857Y-49178857D01*
X168308857Y-49321714D01*
X168356476Y-49416952D01*
X168404095Y-49464571D01*
X168499333Y-49512190D01*
X168880285Y-49512190D01*
X167356476Y-49988380D02*
X167927904Y-49988380D01*
X167642190Y-49988380D02*
X167642190Y-48988380D01*
X167737428Y-49131238D01*
X167832666Y-49226476D01*
X167927904Y-49274095D01*
X167023142Y-48988380D02*
X166404095Y-48988380D01*
X166737428Y-49369333D01*
X166594571Y-49369333D01*
X166499333Y-49416952D01*
X166451714Y-49464571D01*
X166404095Y-49559809D01*
X166404095Y-49797904D01*
X166451714Y-49893142D01*
X166499333Y-49940761D01*
X166594571Y-49988380D01*
X166880285Y-49988380D01*
X166975523Y-49940761D01*
X167023142Y-49893142D01*
%TO.C,R11*%
X97232380Y-57803142D02*
X96756190Y-57469809D01*
X97232380Y-57231714D02*
X96232380Y-57231714D01*
X96232380Y-57612666D01*
X96280000Y-57707904D01*
X96327619Y-57755523D01*
X96422857Y-57803142D01*
X96565714Y-57803142D01*
X96660952Y-57755523D01*
X96708571Y-57707904D01*
X96756190Y-57612666D01*
X96756190Y-57231714D01*
X97232380Y-58755523D02*
X97232380Y-58184095D01*
X97232380Y-58469809D02*
X96232380Y-58469809D01*
X96375238Y-58374571D01*
X96470476Y-58279333D01*
X96518095Y-58184095D01*
X97232380Y-59707904D02*
X97232380Y-59136476D01*
X97232380Y-59422190D02*
X96232380Y-59422190D01*
X96375238Y-59326952D01*
X96470476Y-59231714D01*
X96518095Y-59136476D01*
%TO.C,R10*%
X90727619Y-46896857D02*
X91203809Y-47230190D01*
X90727619Y-47468285D02*
X91727619Y-47468285D01*
X91727619Y-47087333D01*
X91680000Y-46992095D01*
X91632380Y-46944476D01*
X91537142Y-46896857D01*
X91394285Y-46896857D01*
X91299047Y-46944476D01*
X91251428Y-46992095D01*
X91203809Y-47087333D01*
X91203809Y-47468285D01*
X90727619Y-45944476D02*
X90727619Y-46515904D01*
X90727619Y-46230190D02*
X91727619Y-46230190D01*
X91584761Y-46325428D01*
X91489523Y-46420666D01*
X91441904Y-46515904D01*
X91727619Y-45325428D02*
X91727619Y-45230190D01*
X91680000Y-45134952D01*
X91632380Y-45087333D01*
X91537142Y-45039714D01*
X91346666Y-44992095D01*
X91108571Y-44992095D01*
X90918095Y-45039714D01*
X90822857Y-45087333D01*
X90775238Y-45134952D01*
X90727619Y-45230190D01*
X90727619Y-45325428D01*
X90775238Y-45420666D01*
X90822857Y-45468285D01*
X90918095Y-45515904D01*
X91108571Y-45563523D01*
X91346666Y-45563523D01*
X91537142Y-45515904D01*
X91632380Y-45468285D01*
X91680000Y-45420666D01*
X91727619Y-45325428D01*
%TO.C,R8*%
X147016380Y-73467333D02*
X146540190Y-73134000D01*
X147016380Y-72895904D02*
X146016380Y-72895904D01*
X146016380Y-73276857D01*
X146064000Y-73372095D01*
X146111619Y-73419714D01*
X146206857Y-73467333D01*
X146349714Y-73467333D01*
X146444952Y-73419714D01*
X146492571Y-73372095D01*
X146540190Y-73276857D01*
X146540190Y-72895904D01*
X146444952Y-74038761D02*
X146397333Y-73943523D01*
X146349714Y-73895904D01*
X146254476Y-73848285D01*
X146206857Y-73848285D01*
X146111619Y-73895904D01*
X146064000Y-73943523D01*
X146016380Y-74038761D01*
X146016380Y-74229238D01*
X146064000Y-74324476D01*
X146111619Y-74372095D01*
X146206857Y-74419714D01*
X146254476Y-74419714D01*
X146349714Y-74372095D01*
X146397333Y-74324476D01*
X146444952Y-74229238D01*
X146444952Y-74038761D01*
X146492571Y-73943523D01*
X146540190Y-73895904D01*
X146635428Y-73848285D01*
X146825904Y-73848285D01*
X146921142Y-73895904D01*
X146968761Y-73943523D01*
X147016380Y-74038761D01*
X147016380Y-74229238D01*
X146968761Y-74324476D01*
X146921142Y-74372095D01*
X146825904Y-74419714D01*
X146635428Y-74419714D01*
X146540190Y-74372095D01*
X146492571Y-74324476D01*
X146444952Y-74229238D01*
%TO.C,R7*%
X112472380Y-74535333D02*
X111996190Y-74202000D01*
X112472380Y-73963904D02*
X111472380Y-73963904D01*
X111472380Y-74344857D01*
X111520000Y-74440095D01*
X111567619Y-74487714D01*
X111662857Y-74535333D01*
X111805714Y-74535333D01*
X111900952Y-74487714D01*
X111948571Y-74440095D01*
X111996190Y-74344857D01*
X111996190Y-73963904D01*
X111472380Y-74868666D02*
X111472380Y-75535333D01*
X112472380Y-75106761D01*
%TO.C,R5*%
X156604666Y-121096380D02*
X156938000Y-120620190D01*
X157176095Y-121096380D02*
X157176095Y-120096380D01*
X156795142Y-120096380D01*
X156699904Y-120144000D01*
X156652285Y-120191619D01*
X156604666Y-120286857D01*
X156604666Y-120429714D01*
X156652285Y-120524952D01*
X156699904Y-120572571D01*
X156795142Y-120620190D01*
X157176095Y-120620190D01*
X155699904Y-120096380D02*
X156176095Y-120096380D01*
X156223714Y-120572571D01*
X156176095Y-120524952D01*
X156080857Y-120477333D01*
X155842761Y-120477333D01*
X155747523Y-120524952D01*
X155699904Y-120572571D01*
X155652285Y-120667809D01*
X155652285Y-120905904D01*
X155699904Y-121001142D01*
X155747523Y-121048761D01*
X155842761Y-121096380D01*
X156080857Y-121096380D01*
X156176095Y-121048761D01*
X156223714Y-121001142D01*
%TO.C,R4*%
X165266666Y-107132380D02*
X165600000Y-106656190D01*
X165838095Y-107132380D02*
X165838095Y-106132380D01*
X165457142Y-106132380D01*
X165361904Y-106180000D01*
X165314285Y-106227619D01*
X165266666Y-106322857D01*
X165266666Y-106465714D01*
X165314285Y-106560952D01*
X165361904Y-106608571D01*
X165457142Y-106656190D01*
X165838095Y-106656190D01*
X164409523Y-106465714D02*
X164409523Y-107132380D01*
X164647619Y-106084761D02*
X164885714Y-106799047D01*
X164266666Y-106799047D01*
%TO.C,R3*%
X106624380Y-108037333D02*
X106148190Y-107704000D01*
X106624380Y-107465904D02*
X105624380Y-107465904D01*
X105624380Y-107846857D01*
X105672000Y-107942095D01*
X105719619Y-107989714D01*
X105814857Y-108037333D01*
X105957714Y-108037333D01*
X106052952Y-107989714D01*
X106100571Y-107942095D01*
X106148190Y-107846857D01*
X106148190Y-107465904D01*
X105624380Y-108370666D02*
X105624380Y-108989714D01*
X106005333Y-108656380D01*
X106005333Y-108799238D01*
X106052952Y-108894476D01*
X106100571Y-108942095D01*
X106195809Y-108989714D01*
X106433904Y-108989714D01*
X106529142Y-108942095D01*
X106576761Y-108894476D01*
X106624380Y-108799238D01*
X106624380Y-108513523D01*
X106576761Y-108418285D01*
X106529142Y-108370666D01*
%TO.C,R2*%
X129172666Y-130760380D02*
X129506000Y-130284190D01*
X129744095Y-130760380D02*
X129744095Y-129760380D01*
X129363142Y-129760380D01*
X129267904Y-129808000D01*
X129220285Y-129855619D01*
X129172666Y-129950857D01*
X129172666Y-130093714D01*
X129220285Y-130188952D01*
X129267904Y-130236571D01*
X129363142Y-130284190D01*
X129744095Y-130284190D01*
X128791714Y-129855619D02*
X128744095Y-129808000D01*
X128648857Y-129760380D01*
X128410761Y-129760380D01*
X128315523Y-129808000D01*
X128267904Y-129855619D01*
X128220285Y-129950857D01*
X128220285Y-130046095D01*
X128267904Y-130188952D01*
X128839333Y-130760380D01*
X128220285Y-130760380D01*
%TO.C,R1*%
X109412666Y-139904380D02*
X109746000Y-139428190D01*
X109984095Y-139904380D02*
X109984095Y-138904380D01*
X109603142Y-138904380D01*
X109507904Y-138952000D01*
X109460285Y-138999619D01*
X109412666Y-139094857D01*
X109412666Y-139237714D01*
X109460285Y-139332952D01*
X109507904Y-139380571D01*
X109603142Y-139428190D01*
X109984095Y-139428190D01*
X108460285Y-139904380D02*
X109031714Y-139904380D01*
X108746000Y-139904380D02*
X108746000Y-138904380D01*
X108841238Y-139047238D01*
X108936476Y-139142476D01*
X109031714Y-139190095D01*
%TO.C,C9*%
X164720166Y-133635142D02*
X164767785Y-133682761D01*
X164910642Y-133730380D01*
X165005880Y-133730380D01*
X165148738Y-133682761D01*
X165243976Y-133587523D01*
X165291595Y-133492285D01*
X165339214Y-133301809D01*
X165339214Y-133158952D01*
X165291595Y-132968476D01*
X165243976Y-132873238D01*
X165148738Y-132778000D01*
X165005880Y-132730380D01*
X164910642Y-132730380D01*
X164767785Y-132778000D01*
X164720166Y-132825619D01*
X164243976Y-133730380D02*
X164053500Y-133730380D01*
X163958261Y-133682761D01*
X163910642Y-133635142D01*
X163815404Y-133492285D01*
X163767785Y-133301809D01*
X163767785Y-132920857D01*
X163815404Y-132825619D01*
X163863023Y-132778000D01*
X163958261Y-132730380D01*
X164148738Y-132730380D01*
X164243976Y-132778000D01*
X164291595Y-132825619D01*
X164339214Y-132920857D01*
X164339214Y-133158952D01*
X164291595Y-133254190D01*
X164243976Y-133301809D01*
X164148738Y-133349428D01*
X163958261Y-133349428D01*
X163863023Y-133301809D01*
X163815404Y-133254190D01*
X163767785Y-133158952D01*
%TO.C,C7*%
X156630666Y-116507142D02*
X156678285Y-116554761D01*
X156821142Y-116602380D01*
X156916380Y-116602380D01*
X157059238Y-116554761D01*
X157154476Y-116459523D01*
X157202095Y-116364285D01*
X157249714Y-116173809D01*
X157249714Y-116030952D01*
X157202095Y-115840476D01*
X157154476Y-115745238D01*
X157059238Y-115650000D01*
X156916380Y-115602380D01*
X156821142Y-115602380D01*
X156678285Y-115650000D01*
X156630666Y-115697619D01*
X156297333Y-115602380D02*
X155630666Y-115602380D01*
X156059238Y-116602380D01*
%TO.C,C6*%
X101267142Y-113663833D02*
X101314761Y-113616214D01*
X101362380Y-113473357D01*
X101362380Y-113378119D01*
X101314761Y-113235261D01*
X101219523Y-113140023D01*
X101124285Y-113092404D01*
X100933809Y-113044785D01*
X100790952Y-113044785D01*
X100600476Y-113092404D01*
X100505238Y-113140023D01*
X100410000Y-113235261D01*
X100362380Y-113378119D01*
X100362380Y-113473357D01*
X100410000Y-113616214D01*
X100457619Y-113663833D01*
X100362380Y-114520976D02*
X100362380Y-114330500D01*
X100410000Y-114235261D01*
X100457619Y-114187642D01*
X100600476Y-114092404D01*
X100790952Y-114044785D01*
X101171904Y-114044785D01*
X101267142Y-114092404D01*
X101314761Y-114140023D01*
X101362380Y-114235261D01*
X101362380Y-114425738D01*
X101314761Y-114520976D01*
X101267142Y-114568595D01*
X101171904Y-114616214D01*
X100933809Y-114616214D01*
X100838571Y-114568595D01*
X100790952Y-114520976D01*
X100743333Y-114425738D01*
X100743333Y-114235261D01*
X100790952Y-114140023D01*
X100838571Y-114092404D01*
X100933809Y-114044785D01*
%TO.C,C5*%
X115999142Y-127887833D02*
X116046761Y-127840214D01*
X116094380Y-127697357D01*
X116094380Y-127602119D01*
X116046761Y-127459261D01*
X115951523Y-127364023D01*
X115856285Y-127316404D01*
X115665809Y-127268785D01*
X115522952Y-127268785D01*
X115332476Y-127316404D01*
X115237238Y-127364023D01*
X115142000Y-127459261D01*
X115094380Y-127602119D01*
X115094380Y-127697357D01*
X115142000Y-127840214D01*
X115189619Y-127887833D01*
X115094380Y-128792595D02*
X115094380Y-128316404D01*
X115570571Y-128268785D01*
X115522952Y-128316404D01*
X115475333Y-128411642D01*
X115475333Y-128649738D01*
X115522952Y-128744976D01*
X115570571Y-128792595D01*
X115665809Y-128840214D01*
X115903904Y-128840214D01*
X115999142Y-128792595D01*
X116046761Y-128744976D01*
X116094380Y-128649738D01*
X116094380Y-128411642D01*
X116046761Y-128316404D01*
X115999142Y-128268785D01*
%TO.C,C4*%
X165305166Y-114475142D02*
X165352785Y-114522761D01*
X165495642Y-114570380D01*
X165590880Y-114570380D01*
X165733738Y-114522761D01*
X165828976Y-114427523D01*
X165876595Y-114332285D01*
X165924214Y-114141809D01*
X165924214Y-113998952D01*
X165876595Y-113808476D01*
X165828976Y-113713238D01*
X165733738Y-113618000D01*
X165590880Y-113570380D01*
X165495642Y-113570380D01*
X165352785Y-113618000D01*
X165305166Y-113665619D01*
X164448023Y-113903714D02*
X164448023Y-114570380D01*
X164686119Y-113522761D02*
X164924214Y-114237047D01*
X164305166Y-114237047D01*
%TO.C,C3*%
X114221142Y-108037333D02*
X114268761Y-107989714D01*
X114316380Y-107846857D01*
X114316380Y-107751619D01*
X114268761Y-107608761D01*
X114173523Y-107513523D01*
X114078285Y-107465904D01*
X113887809Y-107418285D01*
X113744952Y-107418285D01*
X113554476Y-107465904D01*
X113459238Y-107513523D01*
X113364000Y-107608761D01*
X113316380Y-107751619D01*
X113316380Y-107846857D01*
X113364000Y-107989714D01*
X113411619Y-108037333D01*
X113316380Y-108370666D02*
X113316380Y-108989714D01*
X113697333Y-108656380D01*
X113697333Y-108799238D01*
X113744952Y-108894476D01*
X113792571Y-108942095D01*
X113887809Y-108989714D01*
X114125904Y-108989714D01*
X114221142Y-108942095D01*
X114268761Y-108894476D01*
X114316380Y-108799238D01*
X114316380Y-108513523D01*
X114268761Y-108418285D01*
X114221142Y-108370666D01*
%TO.C,C2*%
X133213142Y-126363833D02*
X133260761Y-126316214D01*
X133308380Y-126173357D01*
X133308380Y-126078119D01*
X133260761Y-125935261D01*
X133165523Y-125840023D01*
X133070285Y-125792404D01*
X132879809Y-125744785D01*
X132736952Y-125744785D01*
X132546476Y-125792404D01*
X132451238Y-125840023D01*
X132356000Y-125935261D01*
X132308380Y-126078119D01*
X132308380Y-126173357D01*
X132356000Y-126316214D01*
X132403619Y-126363833D01*
X132403619Y-126744785D02*
X132356000Y-126792404D01*
X132308380Y-126887642D01*
X132308380Y-127125738D01*
X132356000Y-127220976D01*
X132403619Y-127268595D01*
X132498857Y-127316214D01*
X132594095Y-127316214D01*
X132736952Y-127268595D01*
X133308380Y-126697166D01*
X133308380Y-127316214D01*
%TO.C,C1*%
X109425166Y-144303142D02*
X109472785Y-144350761D01*
X109615642Y-144398380D01*
X109710880Y-144398380D01*
X109853738Y-144350761D01*
X109948976Y-144255523D01*
X109996595Y-144160285D01*
X110044214Y-143969809D01*
X110044214Y-143826952D01*
X109996595Y-143636476D01*
X109948976Y-143541238D01*
X109853738Y-143446000D01*
X109710880Y-143398380D01*
X109615642Y-143398380D01*
X109472785Y-143446000D01*
X109425166Y-143493619D01*
X108472785Y-144398380D02*
X109044214Y-144398380D01*
X108758500Y-144398380D02*
X108758500Y-143398380D01*
X108853738Y-143541238D01*
X108948976Y-143636476D01*
X109044214Y-143684095D01*
%TD*%
M02*
