%TF.GenerationSoftware,KiCad,Pcbnew,5.1.10*%
%TF.CreationDate,2021-07-13T19:10:57+02:00*%
%TF.ProjectId,lni-badge,6c6e692d-6261-4646-9765-2e6b69636164,rev?*%
%TF.SameCoordinates,Original*%
%TF.FileFunction,Paste,Top*%
%TF.FilePolarity,Positive*%
%FSLAX46Y46*%
G04 Gerber Fmt 4.6, Leading zero omitted, Abs format (unit mm)*
G04 Created by KiCad (PCBNEW 5.1.10) date 2021-07-13 19:10:57*
%MOMM*%
%LPD*%
G01*
G04 APERTURE LIST*
G04 APERTURE END LIST*
%TO.C,R20*%
G36*
G01*
X167550000Y-41207000D02*
X167550000Y-39057000D01*
G75*
G02*
X167800000Y-38807000I250000J0D01*
G01*
X168600000Y-38807000D01*
G75*
G02*
X168850000Y-39057000I0J-250000D01*
G01*
X168850000Y-41207000D01*
G75*
G02*
X168600000Y-41457000I-250000J0D01*
G01*
X167800000Y-41457000D01*
G75*
G02*
X167550000Y-41207000I0J250000D01*
G01*
G37*
G36*
G01*
X164450000Y-41207000D02*
X164450000Y-39057000D01*
G75*
G02*
X164700000Y-38807000I250000J0D01*
G01*
X165500000Y-38807000D01*
G75*
G02*
X165750000Y-39057000I0J-250000D01*
G01*
X165750000Y-41207000D01*
G75*
G02*
X165500000Y-41457000I-250000J0D01*
G01*
X164700000Y-41457000D01*
G75*
G02*
X164450000Y-41207000I0J250000D01*
G01*
G37*
%TD*%
%TO.C,R15*%
G36*
G01*
X101659000Y-46344000D02*
X99509000Y-46344000D01*
G75*
G02*
X99259000Y-46094000I0J250000D01*
G01*
X99259000Y-45294000D01*
G75*
G02*
X99509000Y-45044000I250000J0D01*
G01*
X101659000Y-45044000D01*
G75*
G02*
X101909000Y-45294000I0J-250000D01*
G01*
X101909000Y-46094000D01*
G75*
G02*
X101659000Y-46344000I-250000J0D01*
G01*
G37*
G36*
G01*
X101659000Y-49444000D02*
X99509000Y-49444000D01*
G75*
G02*
X99259000Y-49194000I0J250000D01*
G01*
X99259000Y-48394000D01*
G75*
G02*
X99509000Y-48144000I250000J0D01*
G01*
X101659000Y-48144000D01*
G75*
G02*
X101909000Y-48394000I0J-250000D01*
G01*
X101909000Y-49194000D01*
G75*
G02*
X101659000Y-49444000I-250000J0D01*
G01*
G37*
%TD*%
%TO.C,R12*%
G36*
G01*
X166206000Y-44645000D02*
X166206000Y-46795000D01*
G75*
G02*
X165956000Y-47045000I-250000J0D01*
G01*
X165156000Y-47045000D01*
G75*
G02*
X164906000Y-46795000I0J250000D01*
G01*
X164906000Y-44645000D01*
G75*
G02*
X165156000Y-44395000I250000J0D01*
G01*
X165956000Y-44395000D01*
G75*
G02*
X166206000Y-44645000I0J-250000D01*
G01*
G37*
G36*
G01*
X169306000Y-44645000D02*
X169306000Y-46795000D01*
G75*
G02*
X169056000Y-47045000I-250000J0D01*
G01*
X168256000Y-47045000D01*
G75*
G02*
X168006000Y-46795000I0J250000D01*
G01*
X168006000Y-44645000D01*
G75*
G02*
X168256000Y-44395000I250000J0D01*
G01*
X169056000Y-44395000D01*
G75*
G02*
X169306000Y-44645000I0J-250000D01*
G01*
G37*
%TD*%
%TO.C,R6*%
G36*
G01*
X96130800Y-76999000D02*
X98280800Y-76999000D01*
G75*
G02*
X98530800Y-77249000I0J-250000D01*
G01*
X98530800Y-78049000D01*
G75*
G02*
X98280800Y-78299000I-250000J0D01*
G01*
X96130800Y-78299000D01*
G75*
G02*
X95880800Y-78049000I0J250000D01*
G01*
X95880800Y-77249000D01*
G75*
G02*
X96130800Y-76999000I250000J0D01*
G01*
G37*
G36*
G01*
X96130800Y-73899000D02*
X98280800Y-73899000D01*
G75*
G02*
X98530800Y-74149000I0J-250000D01*
G01*
X98530800Y-74949000D01*
G75*
G02*
X98280800Y-75199000I-250000J0D01*
G01*
X96130800Y-75199000D01*
G75*
G02*
X95880800Y-74949000I0J250000D01*
G01*
X95880800Y-74149000D01*
G75*
G02*
X96130800Y-73899000I250000J0D01*
G01*
G37*
%TD*%
M02*
