%TF.GenerationSoftware,KiCad,Pcbnew,5.1.10*%
%TF.CreationDate,2021-06-28T20:45:46+02:00*%
%TF.ProjectId,lni-badge,6c6e692d-6261-4646-9765-2e6b69636164,rev?*%
%TF.SameCoordinates,Original*%
%TF.FileFunction,Soldermask,Top*%
%TF.FilePolarity,Negative*%
%FSLAX46Y46*%
G04 Gerber Fmt 4.6, Leading zero omitted, Abs format (unit mm)*
G04 Created by KiCad (PCBNEW 5.1.10) date 2021-06-28 20:45:46*
%MOMM*%
%LPD*%
G01*
G04 APERTURE LIST*
%ADD10C,2.500000*%
%ADD11C,1.500000*%
%ADD12C,2.000000*%
%ADD13C,1.000000*%
%ADD14O,1.700000X1.700000*%
%ADD15R,1.700000X1.700000*%
%ADD16C,5.000000*%
%ADD17C,2.900000*%
%ADD18C,9.200000*%
%ADD19C,1.800000*%
%ADD20R,1.800000X1.800000*%
G04 APERTURE END LIST*
D10*
%TO.C,U2*%
X159890000Y-122890000D03*
X175390000Y-122890000D03*
X175390000Y-136190000D03*
X159890000Y-136190000D03*
D11*
X157890000Y-129540000D03*
X157890000Y-127040000D03*
X157890000Y-132040000D03*
X167640000Y-139290000D03*
X165140000Y-139290000D03*
X170140000Y-139290000D03*
D12*
X163790000Y-121290000D03*
X171490000Y-121290000D03*
X171490000Y-116790000D03*
X163790000Y-116790000D03*
%TD*%
D10*
%TO.C,U1*%
X106810000Y-136190000D03*
X91310000Y-136190000D03*
X91310000Y-122890000D03*
X106810000Y-122890000D03*
D11*
X108810000Y-129540000D03*
X108810000Y-132040000D03*
X108810000Y-127040000D03*
X99060000Y-119790000D03*
X101560000Y-119790000D03*
X96560000Y-119790000D03*
D12*
X102910000Y-137790000D03*
X95210000Y-137790000D03*
X95210000Y-142290000D03*
X102910000Y-142290000D03*
%TD*%
D13*
%TO.C,TP3*%
X121920000Y-104648000D03*
%TD*%
%TO.C,TP2*%
X162560000Y-65024000D03*
%TD*%
%TO.C,TP1*%
X124460000Y-65024000D03*
%TD*%
D12*
%TO.C,SW2*%
X171600000Y-99060000D03*
X171600000Y-103560000D03*
X165100000Y-99060000D03*
X165100000Y-103560000D03*
%TD*%
%TO.C,SW1*%
X100480000Y-99060000D03*
X100480000Y-103560000D03*
X93980000Y-99060000D03*
X93980000Y-103560000D03*
%TD*%
%TO.C,R20*%
G36*
G01*
X167550000Y-41207000D02*
X167550000Y-39057000D01*
G75*
G02*
X167800000Y-38807000I250000J0D01*
G01*
X168600000Y-38807000D01*
G75*
G02*
X168850000Y-39057000I0J-250000D01*
G01*
X168850000Y-41207000D01*
G75*
G02*
X168600000Y-41457000I-250000J0D01*
G01*
X167800000Y-41457000D01*
G75*
G02*
X167550000Y-41207000I0J250000D01*
G01*
G37*
G36*
G01*
X164450000Y-41207000D02*
X164450000Y-39057000D01*
G75*
G02*
X164700000Y-38807000I250000J0D01*
G01*
X165500000Y-38807000D01*
G75*
G02*
X165750000Y-39057000I0J-250000D01*
G01*
X165750000Y-41207000D01*
G75*
G02*
X165500000Y-41457000I-250000J0D01*
G01*
X164700000Y-41457000D01*
G75*
G02*
X164450000Y-41207000I0J250000D01*
G01*
G37*
%TD*%
%TO.C,R15*%
G36*
G01*
X101659000Y-46344000D02*
X99509000Y-46344000D01*
G75*
G02*
X99259000Y-46094000I0J250000D01*
G01*
X99259000Y-45294000D01*
G75*
G02*
X99509000Y-45044000I250000J0D01*
G01*
X101659000Y-45044000D01*
G75*
G02*
X101909000Y-45294000I0J-250000D01*
G01*
X101909000Y-46094000D01*
G75*
G02*
X101659000Y-46344000I-250000J0D01*
G01*
G37*
G36*
G01*
X101659000Y-49444000D02*
X99509000Y-49444000D01*
G75*
G02*
X99259000Y-49194000I0J250000D01*
G01*
X99259000Y-48394000D01*
G75*
G02*
X99509000Y-48144000I250000J0D01*
G01*
X101659000Y-48144000D01*
G75*
G02*
X101909000Y-48394000I0J-250000D01*
G01*
X101909000Y-49194000D01*
G75*
G02*
X101659000Y-49444000I-250000J0D01*
G01*
G37*
%TD*%
%TO.C,R12*%
G36*
G01*
X166206000Y-44645000D02*
X166206000Y-46795000D01*
G75*
G02*
X165956000Y-47045000I-250000J0D01*
G01*
X165156000Y-47045000D01*
G75*
G02*
X164906000Y-46795000I0J250000D01*
G01*
X164906000Y-44645000D01*
G75*
G02*
X165156000Y-44395000I250000J0D01*
G01*
X165956000Y-44395000D01*
G75*
G02*
X166206000Y-44645000I0J-250000D01*
G01*
G37*
G36*
G01*
X169306000Y-44645000D02*
X169306000Y-46795000D01*
G75*
G02*
X169056000Y-47045000I-250000J0D01*
G01*
X168256000Y-47045000D01*
G75*
G02*
X168006000Y-46795000I0J250000D01*
G01*
X168006000Y-44645000D01*
G75*
G02*
X168256000Y-44395000I250000J0D01*
G01*
X169056000Y-44395000D01*
G75*
G02*
X169306000Y-44645000I0J-250000D01*
G01*
G37*
%TD*%
%TO.C,R6*%
G36*
G01*
X110685000Y-97954000D02*
X112835000Y-97954000D01*
G75*
G02*
X113085000Y-98204000I0J-250000D01*
G01*
X113085000Y-99004000D01*
G75*
G02*
X112835000Y-99254000I-250000J0D01*
G01*
X110685000Y-99254000D01*
G75*
G02*
X110435000Y-99004000I0J250000D01*
G01*
X110435000Y-98204000D01*
G75*
G02*
X110685000Y-97954000I250000J0D01*
G01*
G37*
G36*
G01*
X110685000Y-94854000D02*
X112835000Y-94854000D01*
G75*
G02*
X113085000Y-95104000I0J-250000D01*
G01*
X113085000Y-95904000D01*
G75*
G02*
X112835000Y-96154000I-250000J0D01*
G01*
X110685000Y-96154000D01*
G75*
G02*
X110435000Y-95904000I0J250000D01*
G01*
X110435000Y-95104000D01*
G75*
G02*
X110685000Y-94854000I250000J0D01*
G01*
G37*
%TD*%
D14*
%TO.C,J9*%
X147650200Y-137693400D03*
X145110200Y-137693400D03*
X147650200Y-135153400D03*
X145110200Y-135153400D03*
X147650200Y-132613400D03*
X145110200Y-132613400D03*
X147650200Y-130073400D03*
X145110200Y-130073400D03*
X147650200Y-127533400D03*
X145110200Y-127533400D03*
X147650200Y-124993400D03*
X145110200Y-124993400D03*
X147650200Y-122453400D03*
X145110200Y-122453400D03*
X147650200Y-119913400D03*
X145110200Y-119913400D03*
X147650200Y-117373400D03*
X145110200Y-117373400D03*
X147650200Y-114833400D03*
D15*
X145110200Y-114833400D03*
%TD*%
D14*
%TO.C,J8*%
X175260000Y-50800000D03*
X172720000Y-50800000D03*
X175260000Y-48260000D03*
X172720000Y-48260000D03*
X175260000Y-45720000D03*
X172720000Y-45720000D03*
X175260000Y-43180000D03*
D15*
X172720000Y-43180000D03*
%TD*%
D14*
%TO.C,J7*%
X96520000Y-50800000D03*
X93980000Y-50800000D03*
X96520000Y-48260000D03*
X93980000Y-48260000D03*
X96520000Y-45720000D03*
X93980000Y-45720000D03*
X96520000Y-43180000D03*
D15*
X93980000Y-43180000D03*
%TD*%
D14*
%TO.C,J6*%
X162560000Y-68580000D03*
X160020000Y-68580000D03*
X157480000Y-68580000D03*
X154940000Y-68580000D03*
X152400000Y-68580000D03*
X149860000Y-68580000D03*
X147320000Y-68580000D03*
D15*
X144780000Y-68580000D03*
%TD*%
D14*
%TO.C,J5*%
X153924000Y-38608000D03*
X151384000Y-38608000D03*
X148844000Y-38608000D03*
D15*
X146304000Y-38608000D03*
%TD*%
D14*
%TO.C,J4*%
X122123200Y-137668000D03*
X119583200Y-137668000D03*
X122123200Y-135128000D03*
X119583200Y-135128000D03*
X122123200Y-132588000D03*
X119583200Y-132588000D03*
X122123200Y-130048000D03*
X119583200Y-130048000D03*
X122123200Y-127508000D03*
X119583200Y-127508000D03*
X122123200Y-124968000D03*
X119583200Y-124968000D03*
X122123200Y-122428000D03*
X119583200Y-122428000D03*
X122123200Y-119888000D03*
X119583200Y-119888000D03*
X122123200Y-117348000D03*
X119583200Y-117348000D03*
X122123200Y-114808000D03*
D15*
X119583200Y-114808000D03*
%TD*%
D14*
%TO.C,J3*%
X120904000Y-38608000D03*
X118364000Y-38608000D03*
X115824000Y-38608000D03*
D15*
X113284000Y-38608000D03*
%TD*%
D14*
%TO.C,J2*%
X124460000Y-68580000D03*
X121920000Y-68580000D03*
X119380000Y-68580000D03*
X116840000Y-68580000D03*
X114300000Y-68580000D03*
X111760000Y-68580000D03*
X109220000Y-68580000D03*
D15*
X106680000Y-68580000D03*
%TD*%
D14*
%TO.C,J1*%
X142240000Y-102616000D03*
X142240000Y-100076000D03*
X142240000Y-97536000D03*
D15*
X142240000Y-94996000D03*
%TD*%
D16*
%TO.C,H14*%
X150876000Y-150876000D03*
D17*
X150876000Y-150876000D03*
%TD*%
D16*
%TO.C,H13*%
X140716000Y-150876000D03*
D17*
X140716000Y-150876000D03*
%TD*%
D16*
%TO.C,H12*%
X159512000Y-30988000D03*
D17*
X159512000Y-30988000D03*
%TD*%
D16*
%TO.C,H11*%
X151892000Y-30988000D03*
D17*
X151892000Y-30988000D03*
%TD*%
D16*
%TO.C,H10*%
X144272000Y-30988000D03*
D17*
X144272000Y-30988000D03*
%TD*%
D16*
%TO.C,H9*%
X136652000Y-30988000D03*
D17*
X136652000Y-30988000D03*
%TD*%
D16*
%TO.C,H8*%
X129032000Y-30988000D03*
D17*
X129032000Y-30988000D03*
%TD*%
D16*
%TO.C,H7*%
X121412000Y-30988000D03*
D17*
X121412000Y-30988000D03*
%TD*%
D16*
%TO.C,H6*%
X113792000Y-30988000D03*
D17*
X113792000Y-30988000D03*
%TD*%
D16*
%TO.C,H5*%
X106172000Y-30988000D03*
D17*
X106172000Y-30988000D03*
%TD*%
D18*
%TO.C,H4*%
X175260000Y-149860000D03*
%TD*%
%TO.C,H3*%
X91440000Y-149860000D03*
%TD*%
%TO.C,H2*%
X175260000Y-30480000D03*
%TD*%
%TO.C,H1*%
X91440000Y-30480000D03*
%TD*%
D19*
%TO.C,D2*%
X175260000Y-60960000D03*
D20*
X172720000Y-60960000D03*
%TD*%
D19*
%TO.C,D1*%
X93980000Y-60960000D03*
D20*
X91440000Y-60960000D03*
%TD*%
M02*
