%TF.GenerationSoftware,KiCad,Pcbnew,5.1.10*%
%TF.CreationDate,2021-06-28T20:45:46+02:00*%
%TF.ProjectId,lni-badge,6c6e692d-6261-4646-9765-2e6b69636164,rev?*%
%TF.SameCoordinates,Original*%
%TF.FileFunction,Paste,Bot*%
%TF.FilePolarity,Positive*%
%FSLAX46Y46*%
G04 Gerber Fmt 4.6, Leading zero omitted, Abs format (unit mm)*
G04 Created by KiCad (PCBNEW 5.1.10) date 2021-06-28 20:45:46*
%MOMM*%
%LPD*%
G01*
G04 APERTURE LIST*
G04 APERTURE END LIST*
%TO.C,R9*%
G36*
G01*
X151833000Y-74534000D02*
X153983000Y-74534000D01*
G75*
G02*
X154233000Y-74784000I0J-250000D01*
G01*
X154233000Y-75584000D01*
G75*
G02*
X153983000Y-75834000I-250000J0D01*
G01*
X151833000Y-75834000D01*
G75*
G02*
X151583000Y-75584000I0J250000D01*
G01*
X151583000Y-74784000D01*
G75*
G02*
X151833000Y-74534000I250000J0D01*
G01*
G37*
G36*
G01*
X151833000Y-71434000D02*
X153983000Y-71434000D01*
G75*
G02*
X154233000Y-71684000I0J-250000D01*
G01*
X154233000Y-72484000D01*
G75*
G02*
X153983000Y-72734000I-250000J0D01*
G01*
X151833000Y-72734000D01*
G75*
G02*
X151583000Y-72484000I0J250000D01*
G01*
X151583000Y-71684000D01*
G75*
G02*
X151833000Y-71434000I250000J0D01*
G01*
G37*
%TD*%
%TO.C,C8*%
G36*
G01*
X151749999Y-132002500D02*
X153050001Y-132002500D01*
G75*
G02*
X153300000Y-132252499I0J-249999D01*
G01*
X153300000Y-133077501D01*
G75*
G02*
X153050001Y-133327500I-249999J0D01*
G01*
X151749999Y-133327500D01*
G75*
G02*
X151500000Y-133077501I0J249999D01*
G01*
X151500000Y-132252499D01*
G75*
G02*
X151749999Y-132002500I249999J0D01*
G01*
G37*
G36*
G01*
X151749999Y-128877500D02*
X153050001Y-128877500D01*
G75*
G02*
X153300000Y-129127499I0J-249999D01*
G01*
X153300000Y-129952501D01*
G75*
G02*
X153050001Y-130202500I-249999J0D01*
G01*
X151749999Y-130202500D01*
G75*
G02*
X151500000Y-129952501I0J249999D01*
G01*
X151500000Y-129127499D01*
G75*
G02*
X151749999Y-128877500I249999J0D01*
G01*
G37*
%TD*%
%TO.C,R21*%
G36*
G01*
X171645000Y-68464000D02*
X173795000Y-68464000D01*
G75*
G02*
X174045000Y-68714000I0J-250000D01*
G01*
X174045000Y-69514000D01*
G75*
G02*
X173795000Y-69764000I-250000J0D01*
G01*
X171645000Y-69764000D01*
G75*
G02*
X171395000Y-69514000I0J250000D01*
G01*
X171395000Y-68714000D01*
G75*
G02*
X171645000Y-68464000I250000J0D01*
G01*
G37*
G36*
G01*
X171645000Y-65364000D02*
X173795000Y-65364000D01*
G75*
G02*
X174045000Y-65614000I0J-250000D01*
G01*
X174045000Y-66414000D01*
G75*
G02*
X173795000Y-66664000I-250000J0D01*
G01*
X171645000Y-66664000D01*
G75*
G02*
X171395000Y-66414000I0J250000D01*
G01*
X171395000Y-65614000D01*
G75*
G02*
X171645000Y-65364000I250000J0D01*
G01*
G37*
%TD*%
%TO.C,R19*%
G36*
G01*
X169530000Y-39175000D02*
X169530000Y-37025000D01*
G75*
G02*
X169780000Y-36775000I250000J0D01*
G01*
X170580000Y-36775000D01*
G75*
G02*
X170830000Y-37025000I0J-250000D01*
G01*
X170830000Y-39175000D01*
G75*
G02*
X170580000Y-39425000I-250000J0D01*
G01*
X169780000Y-39425000D01*
G75*
G02*
X169530000Y-39175000I0J250000D01*
G01*
G37*
G36*
G01*
X166430000Y-39175000D02*
X166430000Y-37025000D01*
G75*
G02*
X166680000Y-36775000I250000J0D01*
G01*
X167480000Y-36775000D01*
G75*
G02*
X167730000Y-37025000I0J-250000D01*
G01*
X167730000Y-39175000D01*
G75*
G02*
X167480000Y-39425000I-250000J0D01*
G01*
X166680000Y-39425000D01*
G75*
G02*
X166430000Y-39175000I0J250000D01*
G01*
G37*
%TD*%
%TO.C,R18*%
G36*
G01*
X174128000Y-55939000D02*
X174128000Y-53789000D01*
G75*
G02*
X174378000Y-53539000I250000J0D01*
G01*
X175178000Y-53539000D01*
G75*
G02*
X175428000Y-53789000I0J-250000D01*
G01*
X175428000Y-55939000D01*
G75*
G02*
X175178000Y-56189000I-250000J0D01*
G01*
X174378000Y-56189000D01*
G75*
G02*
X174128000Y-55939000I0J250000D01*
G01*
G37*
G36*
G01*
X171028000Y-55939000D02*
X171028000Y-53789000D01*
G75*
G02*
X171278000Y-53539000I250000J0D01*
G01*
X172078000Y-53539000D01*
G75*
G02*
X172328000Y-53789000I0J-250000D01*
G01*
X172328000Y-55939000D01*
G75*
G02*
X172078000Y-56189000I-250000J0D01*
G01*
X171278000Y-56189000D01*
G75*
G02*
X171028000Y-55939000I0J250000D01*
G01*
G37*
%TD*%
%TO.C,R17*%
G36*
G01*
X117289000Y-44562000D02*
X119439000Y-44562000D01*
G75*
G02*
X119689000Y-44812000I0J-250000D01*
G01*
X119689000Y-45612000D01*
G75*
G02*
X119439000Y-45862000I-250000J0D01*
G01*
X117289000Y-45862000D01*
G75*
G02*
X117039000Y-45612000I0J250000D01*
G01*
X117039000Y-44812000D01*
G75*
G02*
X117289000Y-44562000I250000J0D01*
G01*
G37*
G36*
G01*
X117289000Y-41462000D02*
X119439000Y-41462000D01*
G75*
G02*
X119689000Y-41712000I0J-250000D01*
G01*
X119689000Y-42512000D01*
G75*
G02*
X119439000Y-42762000I-250000J0D01*
G01*
X117289000Y-42762000D01*
G75*
G02*
X117039000Y-42512000I0J250000D01*
G01*
X117039000Y-41712000D01*
G75*
G02*
X117289000Y-41462000I250000J0D01*
G01*
G37*
%TD*%
%TO.C,R16*%
G36*
G01*
X121353000Y-44588000D02*
X123503000Y-44588000D01*
G75*
G02*
X123753000Y-44838000I0J-250000D01*
G01*
X123753000Y-45638000D01*
G75*
G02*
X123503000Y-45888000I-250000J0D01*
G01*
X121353000Y-45888000D01*
G75*
G02*
X121103000Y-45638000I0J250000D01*
G01*
X121103000Y-44838000D01*
G75*
G02*
X121353000Y-44588000I250000J0D01*
G01*
G37*
G36*
G01*
X121353000Y-41488000D02*
X123503000Y-41488000D01*
G75*
G02*
X123753000Y-41738000I0J-250000D01*
G01*
X123753000Y-42538000D01*
G75*
G02*
X123503000Y-42788000I-250000J0D01*
G01*
X121353000Y-42788000D01*
G75*
G02*
X121103000Y-42538000I0J250000D01*
G01*
X121103000Y-41738000D01*
G75*
G02*
X121353000Y-41488000I250000J0D01*
G01*
G37*
%TD*%
%TO.C,R14*%
G36*
G01*
X89857000Y-69454000D02*
X92007000Y-69454000D01*
G75*
G02*
X92257000Y-69704000I0J-250000D01*
G01*
X92257000Y-70504000D01*
G75*
G02*
X92007000Y-70754000I-250000J0D01*
G01*
X89857000Y-70754000D01*
G75*
G02*
X89607000Y-70504000I0J250000D01*
G01*
X89607000Y-69704000D01*
G75*
G02*
X89857000Y-69454000I250000J0D01*
G01*
G37*
G36*
G01*
X89857000Y-66354000D02*
X92007000Y-66354000D01*
G75*
G02*
X92257000Y-66604000I0J-250000D01*
G01*
X92257000Y-67404000D01*
G75*
G02*
X92007000Y-67654000I-250000J0D01*
G01*
X89857000Y-67654000D01*
G75*
G02*
X89607000Y-67404000I0J250000D01*
G01*
X89607000Y-66604000D01*
G75*
G02*
X89857000Y-66354000I250000J0D01*
G01*
G37*
%TD*%
%TO.C,R13*%
G36*
G01*
X166766000Y-50741000D02*
X166766000Y-52891000D01*
G75*
G02*
X166516000Y-53141000I-250000J0D01*
G01*
X165716000Y-53141000D01*
G75*
G02*
X165466000Y-52891000I0J250000D01*
G01*
X165466000Y-50741000D01*
G75*
G02*
X165716000Y-50491000I250000J0D01*
G01*
X166516000Y-50491000D01*
G75*
G02*
X166766000Y-50741000I0J-250000D01*
G01*
G37*
G36*
G01*
X169866000Y-50741000D02*
X169866000Y-52891000D01*
G75*
G02*
X169616000Y-53141000I-250000J0D01*
G01*
X168816000Y-53141000D01*
G75*
G02*
X168566000Y-52891000I0J250000D01*
G01*
X168566000Y-50741000D01*
G75*
G02*
X168816000Y-50491000I250000J0D01*
G01*
X169616000Y-50491000D01*
G75*
G02*
X169866000Y-50741000I0J-250000D01*
G01*
G37*
%TD*%
%TO.C,R11*%
G36*
G01*
X97985000Y-59346000D02*
X100135000Y-59346000D01*
G75*
G02*
X100385000Y-59596000I0J-250000D01*
G01*
X100385000Y-60396000D01*
G75*
G02*
X100135000Y-60646000I-250000J0D01*
G01*
X97985000Y-60646000D01*
G75*
G02*
X97735000Y-60396000I0J250000D01*
G01*
X97735000Y-59596000D01*
G75*
G02*
X97985000Y-59346000I250000J0D01*
G01*
G37*
G36*
G01*
X97985000Y-56246000D02*
X100135000Y-56246000D01*
G75*
G02*
X100385000Y-56496000I0J-250000D01*
G01*
X100385000Y-57296000D01*
G75*
G02*
X100135000Y-57546000I-250000J0D01*
G01*
X97985000Y-57546000D01*
G75*
G02*
X97735000Y-57296000I0J250000D01*
G01*
X97735000Y-56496000D01*
G75*
G02*
X97985000Y-56246000I250000J0D01*
G01*
G37*
%TD*%
%TO.C,R10*%
G36*
G01*
X89975000Y-45354000D02*
X87825000Y-45354000D01*
G75*
G02*
X87575000Y-45104000I0J250000D01*
G01*
X87575000Y-44304000D01*
G75*
G02*
X87825000Y-44054000I250000J0D01*
G01*
X89975000Y-44054000D01*
G75*
G02*
X90225000Y-44304000I0J-250000D01*
G01*
X90225000Y-45104000D01*
G75*
G02*
X89975000Y-45354000I-250000J0D01*
G01*
G37*
G36*
G01*
X89975000Y-48454000D02*
X87825000Y-48454000D01*
G75*
G02*
X87575000Y-48204000I0J250000D01*
G01*
X87575000Y-47404000D01*
G75*
G02*
X87825000Y-47154000I250000J0D01*
G01*
X89975000Y-47154000D01*
G75*
G02*
X90225000Y-47404000I0J-250000D01*
G01*
X90225000Y-48204000D01*
G75*
G02*
X89975000Y-48454000I-250000J0D01*
G01*
G37*
%TD*%
%TO.C,R8*%
G36*
G01*
X147769000Y-74534000D02*
X149919000Y-74534000D01*
G75*
G02*
X150169000Y-74784000I0J-250000D01*
G01*
X150169000Y-75584000D01*
G75*
G02*
X149919000Y-75834000I-250000J0D01*
G01*
X147769000Y-75834000D01*
G75*
G02*
X147519000Y-75584000I0J250000D01*
G01*
X147519000Y-74784000D01*
G75*
G02*
X147769000Y-74534000I250000J0D01*
G01*
G37*
G36*
G01*
X147769000Y-71434000D02*
X149919000Y-71434000D01*
G75*
G02*
X150169000Y-71684000I0J-250000D01*
G01*
X150169000Y-72484000D01*
G75*
G02*
X149919000Y-72734000I-250000J0D01*
G01*
X147769000Y-72734000D01*
G75*
G02*
X147519000Y-72484000I0J250000D01*
G01*
X147519000Y-71684000D01*
G75*
G02*
X147769000Y-71434000I250000J0D01*
G01*
G37*
%TD*%
%TO.C,R7*%
G36*
G01*
X113225000Y-75602000D02*
X115375000Y-75602000D01*
G75*
G02*
X115625000Y-75852000I0J-250000D01*
G01*
X115625000Y-76652000D01*
G75*
G02*
X115375000Y-76902000I-250000J0D01*
G01*
X113225000Y-76902000D01*
G75*
G02*
X112975000Y-76652000I0J250000D01*
G01*
X112975000Y-75852000D01*
G75*
G02*
X113225000Y-75602000I250000J0D01*
G01*
G37*
G36*
G01*
X113225000Y-72502000D02*
X115375000Y-72502000D01*
G75*
G02*
X115625000Y-72752000I0J-250000D01*
G01*
X115625000Y-73552000D01*
G75*
G02*
X115375000Y-73802000I-250000J0D01*
G01*
X113225000Y-73802000D01*
G75*
G02*
X112975000Y-73552000I0J250000D01*
G01*
X112975000Y-72752000D01*
G75*
G02*
X113225000Y-72502000I250000J0D01*
G01*
G37*
%TD*%
%TO.C,R5*%
G36*
G01*
X157338000Y-119439000D02*
X157338000Y-117289000D01*
G75*
G02*
X157588000Y-117039000I250000J0D01*
G01*
X158388000Y-117039000D01*
G75*
G02*
X158638000Y-117289000I0J-250000D01*
G01*
X158638000Y-119439000D01*
G75*
G02*
X158388000Y-119689000I-250000J0D01*
G01*
X157588000Y-119689000D01*
G75*
G02*
X157338000Y-119439000I0J250000D01*
G01*
G37*
G36*
G01*
X154238000Y-119439000D02*
X154238000Y-117289000D01*
G75*
G02*
X154488000Y-117039000I250000J0D01*
G01*
X155288000Y-117039000D01*
G75*
G02*
X155538000Y-117289000I0J-250000D01*
G01*
X155538000Y-119439000D01*
G75*
G02*
X155288000Y-119689000I-250000J0D01*
G01*
X154488000Y-119689000D01*
G75*
G02*
X154238000Y-119439000I0J250000D01*
G01*
G37*
%TD*%
%TO.C,R4*%
G36*
G01*
X166000000Y-109279000D02*
X166000000Y-107129000D01*
G75*
G02*
X166250000Y-106879000I250000J0D01*
G01*
X167050000Y-106879000D01*
G75*
G02*
X167300000Y-107129000I0J-250000D01*
G01*
X167300000Y-109279000D01*
G75*
G02*
X167050000Y-109529000I-250000J0D01*
G01*
X166250000Y-109529000D01*
G75*
G02*
X166000000Y-109279000I0J250000D01*
G01*
G37*
G36*
G01*
X162900000Y-109279000D02*
X162900000Y-107129000D01*
G75*
G02*
X163150000Y-106879000I250000J0D01*
G01*
X163950000Y-106879000D01*
G75*
G02*
X164200000Y-107129000I0J-250000D01*
G01*
X164200000Y-109279000D01*
G75*
G02*
X163950000Y-109529000I-250000J0D01*
G01*
X163150000Y-109529000D01*
G75*
G02*
X162900000Y-109279000I0J250000D01*
G01*
G37*
%TD*%
%TO.C,R3*%
G36*
G01*
X104738000Y-104081000D02*
X104738000Y-106231000D01*
G75*
G02*
X104488000Y-106481000I-250000J0D01*
G01*
X103688000Y-106481000D01*
G75*
G02*
X103438000Y-106231000I0J250000D01*
G01*
X103438000Y-104081000D01*
G75*
G02*
X103688000Y-103831000I250000J0D01*
G01*
X104488000Y-103831000D01*
G75*
G02*
X104738000Y-104081000I0J-250000D01*
G01*
G37*
G36*
G01*
X107838000Y-104081000D02*
X107838000Y-106231000D01*
G75*
G02*
X107588000Y-106481000I-250000J0D01*
G01*
X106788000Y-106481000D01*
G75*
G02*
X106538000Y-106231000I0J250000D01*
G01*
X106538000Y-104081000D01*
G75*
G02*
X106788000Y-103831000I250000J0D01*
G01*
X107588000Y-103831000D01*
G75*
G02*
X107838000Y-104081000I0J-250000D01*
G01*
G37*
%TD*%
%TO.C,R2*%
G36*
G01*
X128106000Y-131513000D02*
X128106000Y-133663000D01*
G75*
G02*
X127856000Y-133913000I-250000J0D01*
G01*
X127056000Y-133913000D01*
G75*
G02*
X126806000Y-133663000I0J250000D01*
G01*
X126806000Y-131513000D01*
G75*
G02*
X127056000Y-131263000I250000J0D01*
G01*
X127856000Y-131263000D01*
G75*
G02*
X128106000Y-131513000I0J-250000D01*
G01*
G37*
G36*
G01*
X131206000Y-131513000D02*
X131206000Y-133663000D01*
G75*
G02*
X130956000Y-133913000I-250000J0D01*
G01*
X130156000Y-133913000D01*
G75*
G02*
X129906000Y-133663000I0J250000D01*
G01*
X129906000Y-131513000D01*
G75*
G02*
X130156000Y-131263000I250000J0D01*
G01*
X130956000Y-131263000D01*
G75*
G02*
X131206000Y-131513000I0J-250000D01*
G01*
G37*
%TD*%
%TO.C,R1*%
G36*
G01*
X108346000Y-140657000D02*
X108346000Y-142807000D01*
G75*
G02*
X108096000Y-143057000I-250000J0D01*
G01*
X107296000Y-143057000D01*
G75*
G02*
X107046000Y-142807000I0J250000D01*
G01*
X107046000Y-140657000D01*
G75*
G02*
X107296000Y-140407000I250000J0D01*
G01*
X108096000Y-140407000D01*
G75*
G02*
X108346000Y-140657000I0J-250000D01*
G01*
G37*
G36*
G01*
X111446000Y-140657000D02*
X111446000Y-142807000D01*
G75*
G02*
X111196000Y-143057000I-250000J0D01*
G01*
X110396000Y-143057000D01*
G75*
G02*
X110146000Y-142807000I0J250000D01*
G01*
X110146000Y-140657000D01*
G75*
G02*
X110396000Y-140407000I250000J0D01*
G01*
X111196000Y-140407000D01*
G75*
G02*
X111446000Y-140657000I0J-250000D01*
G01*
G37*
%TD*%
%TO.C,C9*%
G36*
G01*
X163653500Y-134477999D02*
X163653500Y-135778001D01*
G75*
G02*
X163403501Y-136028000I-249999J0D01*
G01*
X162578499Y-136028000D01*
G75*
G02*
X162328500Y-135778001I0J249999D01*
G01*
X162328500Y-134477999D01*
G75*
G02*
X162578499Y-134228000I249999J0D01*
G01*
X163403501Y-134228000D01*
G75*
G02*
X163653500Y-134477999I0J-249999D01*
G01*
G37*
G36*
G01*
X166778500Y-134477999D02*
X166778500Y-135778001D01*
G75*
G02*
X166528501Y-136028000I-249999J0D01*
G01*
X165703499Y-136028000D01*
G75*
G02*
X165453500Y-135778001I0J249999D01*
G01*
X165453500Y-134477999D01*
G75*
G02*
X165703499Y-134228000I249999J0D01*
G01*
X166528501Y-134228000D01*
G75*
G02*
X166778500Y-134477999I0J-249999D01*
G01*
G37*
%TD*%
%TO.C,C7*%
G36*
G01*
X157364000Y-114950001D02*
X157364000Y-113649999D01*
G75*
G02*
X157613999Y-113400000I249999J0D01*
G01*
X158439001Y-113400000D01*
G75*
G02*
X158689000Y-113649999I0J-249999D01*
G01*
X158689000Y-114950001D01*
G75*
G02*
X158439001Y-115200000I-249999J0D01*
G01*
X157613999Y-115200000D01*
G75*
G02*
X157364000Y-114950001I0J249999D01*
G01*
G37*
G36*
G01*
X154239000Y-114950001D02*
X154239000Y-113649999D01*
G75*
G02*
X154488999Y-113400000I249999J0D01*
G01*
X155314001Y-113400000D01*
G75*
G02*
X155564000Y-113649999I0J-249999D01*
G01*
X155564000Y-114950001D01*
G75*
G02*
X155314001Y-115200000I-249999J0D01*
G01*
X154488999Y-115200000D01*
G75*
G02*
X154239000Y-114950001I0J249999D01*
G01*
G37*
%TD*%
%TO.C,C6*%
G36*
G01*
X99710001Y-112930500D02*
X98409999Y-112930500D01*
G75*
G02*
X98160000Y-112680501I0J249999D01*
G01*
X98160000Y-111855499D01*
G75*
G02*
X98409999Y-111605500I249999J0D01*
G01*
X99710001Y-111605500D01*
G75*
G02*
X99960000Y-111855499I0J-249999D01*
G01*
X99960000Y-112680501D01*
G75*
G02*
X99710001Y-112930500I-249999J0D01*
G01*
G37*
G36*
G01*
X99710001Y-116055500D02*
X98409999Y-116055500D01*
G75*
G02*
X98160000Y-115805501I0J249999D01*
G01*
X98160000Y-114980499D01*
G75*
G02*
X98409999Y-114730500I249999J0D01*
G01*
X99710001Y-114730500D01*
G75*
G02*
X99960000Y-114980499I0J-249999D01*
G01*
X99960000Y-115805501D01*
G75*
G02*
X99710001Y-116055500I-249999J0D01*
G01*
G37*
%TD*%
%TO.C,C5*%
G36*
G01*
X114442001Y-127154500D02*
X113141999Y-127154500D01*
G75*
G02*
X112892000Y-126904501I0J249999D01*
G01*
X112892000Y-126079499D01*
G75*
G02*
X113141999Y-125829500I249999J0D01*
G01*
X114442001Y-125829500D01*
G75*
G02*
X114692000Y-126079499I0J-249999D01*
G01*
X114692000Y-126904501D01*
G75*
G02*
X114442001Y-127154500I-249999J0D01*
G01*
G37*
G36*
G01*
X114442001Y-130279500D02*
X113141999Y-130279500D01*
G75*
G02*
X112892000Y-130029501I0J249999D01*
G01*
X112892000Y-129204499D01*
G75*
G02*
X113141999Y-128954500I249999J0D01*
G01*
X114442001Y-128954500D01*
G75*
G02*
X114692000Y-129204499I0J-249999D01*
G01*
X114692000Y-130029501D01*
G75*
G02*
X114442001Y-130279500I-249999J0D01*
G01*
G37*
%TD*%
%TO.C,C4*%
G36*
G01*
X166038500Y-112918001D02*
X166038500Y-111617999D01*
G75*
G02*
X166288499Y-111368000I249999J0D01*
G01*
X167113501Y-111368000D01*
G75*
G02*
X167363500Y-111617999I0J-249999D01*
G01*
X167363500Y-112918001D01*
G75*
G02*
X167113501Y-113168000I-249999J0D01*
G01*
X166288499Y-113168000D01*
G75*
G02*
X166038500Y-112918001I0J249999D01*
G01*
G37*
G36*
G01*
X162913500Y-112918001D02*
X162913500Y-111617999D01*
G75*
G02*
X163163499Y-111368000I249999J0D01*
G01*
X163988501Y-111368000D01*
G75*
G02*
X164238500Y-111617999I0J-249999D01*
G01*
X164238500Y-112918001D01*
G75*
G02*
X163988501Y-113168000I-249999J0D01*
G01*
X163163499Y-113168000D01*
G75*
G02*
X162913500Y-112918001I0J249999D01*
G01*
G37*
%TD*%
%TO.C,C3*%
G36*
G01*
X104725500Y-98917999D02*
X104725500Y-100218001D01*
G75*
G02*
X104475501Y-100468000I-249999J0D01*
G01*
X103650499Y-100468000D01*
G75*
G02*
X103400500Y-100218001I0J249999D01*
G01*
X103400500Y-98917999D01*
G75*
G02*
X103650499Y-98668000I249999J0D01*
G01*
X104475501Y-98668000D01*
G75*
G02*
X104725500Y-98917999I0J-249999D01*
G01*
G37*
G36*
G01*
X107850500Y-98917999D02*
X107850500Y-100218001D01*
G75*
G02*
X107600501Y-100468000I-249999J0D01*
G01*
X106775499Y-100468000D01*
G75*
G02*
X106525500Y-100218001I0J249999D01*
G01*
X106525500Y-98917999D01*
G75*
G02*
X106775499Y-98668000I249999J0D01*
G01*
X107600501Y-98668000D01*
G75*
G02*
X107850500Y-98917999I0J-249999D01*
G01*
G37*
%TD*%
%TO.C,C2*%
G36*
G01*
X131656001Y-125630500D02*
X129455999Y-125630500D01*
G75*
G02*
X129206000Y-125380501I0J249999D01*
G01*
X129206000Y-124555499D01*
G75*
G02*
X129455999Y-124305500I249999J0D01*
G01*
X131656001Y-124305500D01*
G75*
G02*
X131906000Y-124555499I0J-249999D01*
G01*
X131906000Y-125380501D01*
G75*
G02*
X131656001Y-125630500I-249999J0D01*
G01*
G37*
G36*
G01*
X131656001Y-128755500D02*
X129455999Y-128755500D01*
G75*
G02*
X129206000Y-128505501I0J249999D01*
G01*
X129206000Y-127680499D01*
G75*
G02*
X129455999Y-127430500I249999J0D01*
G01*
X131656001Y-127430500D01*
G75*
G02*
X131906000Y-127680499I0J-249999D01*
G01*
X131906000Y-128505501D01*
G75*
G02*
X131656001Y-128755500I-249999J0D01*
G01*
G37*
%TD*%
%TO.C,C1*%
G36*
G01*
X108358500Y-145145999D02*
X108358500Y-146446001D01*
G75*
G02*
X108108501Y-146696000I-249999J0D01*
G01*
X107283499Y-146696000D01*
G75*
G02*
X107033500Y-146446001I0J249999D01*
G01*
X107033500Y-145145999D01*
G75*
G02*
X107283499Y-144896000I249999J0D01*
G01*
X108108501Y-144896000D01*
G75*
G02*
X108358500Y-145145999I0J-249999D01*
G01*
G37*
G36*
G01*
X111483500Y-145145999D02*
X111483500Y-146446001D01*
G75*
G02*
X111233501Y-146696000I-249999J0D01*
G01*
X110408499Y-146696000D01*
G75*
G02*
X110158500Y-146446001I0J249999D01*
G01*
X110158500Y-145145999D01*
G75*
G02*
X110408499Y-144896000I249999J0D01*
G01*
X111233501Y-144896000D01*
G75*
G02*
X111483500Y-145145999I0J-249999D01*
G01*
G37*
%TD*%
M02*
