%TF.GenerationSoftware,KiCad,Pcbnew,5.1.10*%
%TF.CreationDate,2021-08-29T20:37:59+02:00*%
%TF.ProjectId,lni-badge,6c6e692d-6261-4646-9765-2e6b69636164,rev?*%
%TF.SameCoordinates,Original*%
%TF.FileFunction,Paste,Top*%
%TF.FilePolarity,Positive*%
%FSLAX46Y46*%
G04 Gerber Fmt 4.6, Leading zero omitted, Abs format (unit mm)*
G04 Created by KiCad (PCBNEW 5.1.10) date 2021-08-29 20:37:59*
%MOMM*%
%LPD*%
G01*
G04 APERTURE LIST*
G04 APERTURE END LIST*
%TO.C,R20*%
G36*
G01*
X167550000Y-41207001D02*
X167550000Y-39056999D01*
G75*
G02*
X167799999Y-38807000I249999J0D01*
G01*
X168600001Y-38807000D01*
G75*
G02*
X168850000Y-39056999I0J-249999D01*
G01*
X168850000Y-41207001D01*
G75*
G02*
X168600001Y-41457000I-249999J0D01*
G01*
X167799999Y-41457000D01*
G75*
G02*
X167550000Y-41207001I0J249999D01*
G01*
G37*
G36*
G01*
X164450000Y-41207001D02*
X164450000Y-39056999D01*
G75*
G02*
X164699999Y-38807000I249999J0D01*
G01*
X165500001Y-38807000D01*
G75*
G02*
X165750000Y-39056999I0J-249999D01*
G01*
X165750000Y-41207001D01*
G75*
G02*
X165500001Y-41457000I-249999J0D01*
G01*
X164699999Y-41457000D01*
G75*
G02*
X164450000Y-41207001I0J249999D01*
G01*
G37*
%TD*%
%TO.C,R15*%
G36*
G01*
X101659001Y-46344000D02*
X99508999Y-46344000D01*
G75*
G02*
X99259000Y-46094001I0J249999D01*
G01*
X99259000Y-45293999D01*
G75*
G02*
X99508999Y-45044000I249999J0D01*
G01*
X101659001Y-45044000D01*
G75*
G02*
X101909000Y-45293999I0J-249999D01*
G01*
X101909000Y-46094001D01*
G75*
G02*
X101659001Y-46344000I-249999J0D01*
G01*
G37*
G36*
G01*
X101659001Y-49444000D02*
X99508999Y-49444000D01*
G75*
G02*
X99259000Y-49194001I0J249999D01*
G01*
X99259000Y-48393999D01*
G75*
G02*
X99508999Y-48144000I249999J0D01*
G01*
X101659001Y-48144000D01*
G75*
G02*
X101909000Y-48393999I0J-249999D01*
G01*
X101909000Y-49194001D01*
G75*
G02*
X101659001Y-49444000I-249999J0D01*
G01*
G37*
%TD*%
%TO.C,R12*%
G36*
G01*
X166206000Y-44644999D02*
X166206000Y-46795001D01*
G75*
G02*
X165956001Y-47045000I-249999J0D01*
G01*
X165155999Y-47045000D01*
G75*
G02*
X164906000Y-46795001I0J249999D01*
G01*
X164906000Y-44644999D01*
G75*
G02*
X165155999Y-44395000I249999J0D01*
G01*
X165956001Y-44395000D01*
G75*
G02*
X166206000Y-44644999I0J-249999D01*
G01*
G37*
G36*
G01*
X169306000Y-44644999D02*
X169306000Y-46795001D01*
G75*
G02*
X169056001Y-47045000I-249999J0D01*
G01*
X168255999Y-47045000D01*
G75*
G02*
X168006000Y-46795001I0J249999D01*
G01*
X168006000Y-44644999D01*
G75*
G02*
X168255999Y-44395000I249999J0D01*
G01*
X169056001Y-44395000D01*
G75*
G02*
X169306000Y-44644999I0J-249999D01*
G01*
G37*
%TD*%
%TO.C,R6*%
G36*
G01*
X96130799Y-76999000D02*
X98280801Y-76999000D01*
G75*
G02*
X98530800Y-77248999I0J-249999D01*
G01*
X98530800Y-78049001D01*
G75*
G02*
X98280801Y-78299000I-249999J0D01*
G01*
X96130799Y-78299000D01*
G75*
G02*
X95880800Y-78049001I0J249999D01*
G01*
X95880800Y-77248999D01*
G75*
G02*
X96130799Y-76999000I249999J0D01*
G01*
G37*
G36*
G01*
X96130799Y-73899000D02*
X98280801Y-73899000D01*
G75*
G02*
X98530800Y-74148999I0J-249999D01*
G01*
X98530800Y-74949001D01*
G75*
G02*
X98280801Y-75199000I-249999J0D01*
G01*
X96130799Y-75199000D01*
G75*
G02*
X95880800Y-74949001I0J249999D01*
G01*
X95880800Y-74148999D01*
G75*
G02*
X96130799Y-73899000I249999J0D01*
G01*
G37*
%TD*%
%TO.C,R3*%
G36*
G01*
X97277501Y-111521000D02*
X95127499Y-111521000D01*
G75*
G02*
X94877500Y-111271001I0J249999D01*
G01*
X94877500Y-110470999D01*
G75*
G02*
X95127499Y-110221000I249999J0D01*
G01*
X97277501Y-110221000D01*
G75*
G02*
X97527500Y-110470999I0J-249999D01*
G01*
X97527500Y-111271001D01*
G75*
G02*
X97277501Y-111521000I-249999J0D01*
G01*
G37*
G36*
G01*
X97277501Y-114621000D02*
X95127499Y-114621000D01*
G75*
G02*
X94877500Y-114371001I0J249999D01*
G01*
X94877500Y-113570999D01*
G75*
G02*
X95127499Y-113321000I249999J0D01*
G01*
X97277501Y-113321000D01*
G75*
G02*
X97527500Y-113570999I0J-249999D01*
G01*
X97527500Y-114371001D01*
G75*
G02*
X97277501Y-114621000I-249999J0D01*
G01*
G37*
%TD*%
%TO.C,C3*%
G36*
G01*
X100662503Y-111583500D02*
X99362497Y-111583500D01*
G75*
G02*
X99112500Y-111333503I0J249997D01*
G01*
X99112500Y-110508497D01*
G75*
G02*
X99362497Y-110258500I249997J0D01*
G01*
X100662503Y-110258500D01*
G75*
G02*
X100912500Y-110508497I0J-249997D01*
G01*
X100912500Y-111333503D01*
G75*
G02*
X100662503Y-111583500I-249997J0D01*
G01*
G37*
G36*
G01*
X100662503Y-114708500D02*
X99362497Y-114708500D01*
G75*
G02*
X99112500Y-114458503I0J249997D01*
G01*
X99112500Y-113633497D01*
G75*
G02*
X99362497Y-113383500I249997J0D01*
G01*
X100662503Y-113383500D01*
G75*
G02*
X100912500Y-113633497I0J-249997D01*
G01*
X100912500Y-114458503D01*
G75*
G02*
X100662503Y-114708500I-249997J0D01*
G01*
G37*
%TD*%
M02*
